<?xml version="1.0" encoding="utf-8" standalone="no"?>
<!DOCTYPE svg PUBLIC "-//W3C//DTD SVG 1.1//EN"
  "http://www.w3.org/Graphics/SVG/1.1/DTD/svg11.dtd">
<!-- Created with matplotlib (http://matplotlib.org/) -->
<svg height="216pt" version="1.1" viewBox="0 0 216 216" width="216pt" xmlns="http://www.w3.org/2000/svg" xmlns:xlink="http://www.w3.org/1999/xlink">
 <defs>
  <style type="text/css">
*{stroke-linecap:butt;stroke-linejoin:round;}
  </style>
 </defs>
 <g id="figure_1">
  <g id="patch_1">
   <path d="
M0 216
L216 216
L216 0
L0 0
z
" style="fill:#ffffff;"/>
  </g>
  <g id="axes_1">
   <g id="patch_2">
    <path d="
M27 194.4
L194.4 194.4
L194.4 21.6
L27 21.6
z
" style="fill:#ffffff;"/>
   </g>
   <g id="line2d_1">
    <path clip-path="url(#p4c72f1c596)" d="
M27 194.4
L27.0946 177.12
L27.2958 159.84
L27.2986 163.296
L27.3273 170.208
L27.399 163.296
L27.5056 142.56
L27.5061 146.016
L27.572 159.84
L27.6113 149.472
L27.7709 121.824
L27.7877 125.28
L27.803 121.824
L27.803 121.824
L28.0772 59.616
L28.2384 69.984
L28.2435 66.528
L28.2589 63.072
L28.2645 66.528
L28.2645 66.528
L28.3669 73.44
L28.455 52.704
L28.4846 69.984
L28.5808 90.72
L28.6076 80.352
L28.6379 83.808
L28.6417 80.352
L28.6417 80.352
L28.8556 45.792
L28.8659 49.248
L28.9017 52.704
L28.9021 49.248
L28.9021 49.248
L28.968 38.88
L28.9906 49.248
L28.9906 49.248
L29.0105 52.704
L29.0299 49.248
L29.0299 49.248
L29.087 45.792
L29.0911 49.248
L29.0911 49.248
L29.1151 52.704
L29.1232 49.248
L29.1232 49.248
L29.1551 35.424
L29.2139 49.248
L29.2139 49.248
L29.3394 76.896
L29.3546 73.44
L29.3944 76.896
L29.3944 76.896
L29.4255 83.808
L29.4537 76.896
L29.4537 76.896
L29.4843 73.44
L29.4951 76.896
L29.4951 76.896
L29.5028 87.264
L29.5449 76.896
L29.5449 76.896
L29.5505 73.44
L29.5975 76.896
L29.5975 76.896
L29.6774 90.72
L29.7082 76.896
L30.077 142.56
L30.0846 139.104
L30.1315 142.56
L30.1315 142.56
L30.1647 152.928
L30.2066 142.56
L30.2066 142.56
L30.2193 139.104
L30.2194 142.56
L30.2194 142.56
L30.372 170.208
L30.3786 166.752
L30.3892 163.296
L30.3976 166.752
L30.3976 166.752
L30.4022 170.208
L30.4128 166.752
L30.4128 166.752
L30.4676 156.384
L30.492 166.752
L30.492 166.752
L30.5673 187.488
L30.6131 173.664
L30.6965 194.4
L30.7415 187.488
L30.7573 184.032
L30.7589 187.488
L30.7589 187.488
L30.7792 194.4
L30.8005 187.488
L30.8005 187.488
L30.8305 184.032
L30.8409 187.488
L30.8409 187.488
L30.9084 194.4
L30.9256 187.488
L30.9917 180.576
L30.9989 187.488
L31.0968 194.4
L31.2804 173.664
L31.3029 180.576
L31.3454 184.032
L31.3533 180.576
L31.3533 180.576
L31.3901 166.752
L31.4504 180.576
L31.7123 156.384
L31.729 159.84
L31.7748 177.12
L31.8609 173.664
L31.8858 166.752
L31.943 173.664
L31.943 173.664
L31.9458 177.12
L31.9563 173.664
L31.9563 173.664
L32.1257 146.016
L32.1548 156.384
L32.1908 146.016
L32.1908 146.016
L32.3 128.736
L32.3094 132.192
L32.3558 128.736
L32.365 132.192
L32.365 132.192
L32.3717 135.648
L32.377 132.192
L32.377 132.192
L32.4815 125.28
L32.4972 128.736
L32.5338 135.648
L32.5613 128.736
L32.5613 128.736
L32.5615 125.28
L32.5792 128.736
L32.5792 128.736
L32.5914 132.192
L32.6034 128.736
L32.6034 128.736
L32.657 121.824
L32.6795 128.736
L32.6918 135.648
L32.7254 128.736
L32.7254 128.736
L32.759 125.28
L32.7753 128.736
L32.7753 128.736
L32.7907 132.192
L32.7939 128.736
L32.7939 128.736
L32.8735 114.912
L32.9282 118.368
L33.0436 128.736
L33.0626 125.28
L33.2263 101.088
L33.27 111.456
L33.3143 101.088
L33.3174 97.632
L33.3248 101.088
L33.3248 101.088
L33.4469 114.912
L33.4692 101.088
L33.4893 114.912
L33.4893 114.912
L33.5271 121.824
L33.5374 114.912
L33.5374 114.912
L33.5584 104.544
L33.6103 114.912
L33.6103 114.912
L33.6623 125.28
L33.6855 114.912
L33.7068 111.456
L33.7218 114.912
L33.7218 114.912
L33.8358 125.28
L33.8394 121.824
L33.903 114.912
L33.9042 121.824
L33.9042 121.824
L33.9843 132.192
L34.0122 125.28
L34.1222 135.648
L34.1328 132.192
L34.2081 114.912
L34.2557 121.824
L34.3017 128.736
L34.318 121.824
L34.318 121.824
L34.3306 118.368
L34.346 121.824
L34.346 121.824
L34.3526 125.28
L34.3557 121.824
L34.3557 121.824
L34.4563 111.456
L34.5366 132.192
L34.5393 135.648
L34.5439 132.192
L34.5439 132.192
L34.5695 125.28
L34.5868 132.192
L34.5868 132.192
L34.5982 139.104
L34.6339 132.192
L34.6339 132.192
L34.6819 118.368
L34.71 132.192
L34.71 132.192
L34.7367 135.648
L34.744 132.192
L34.744 132.192
L34.7471 128.736
L34.7662 132.192
L34.7662 132.192
L34.8118 142.56
L34.8626 135.648
L34.9485 118.368
L35.0008 128.736
L35.0542 142.56
L35.0744 128.736
L35.0744 128.736
L35.1614 118.368
L35.1806 125.28
L35.3601 152.928
L35.3753 142.56
L35.389 139.104
L35.3983 142.56
L35.3983 142.56
L35.5218 152.928
L35.5574 149.472
L35.5585 152.928
L35.5585 152.928
L35.6643 170.208
L35.6675 163.296
L35.7323 177.12
L35.7939 166.752
L35.8651 156.384
L35.8839 159.84
L35.9195 163.296
L35.9242 159.84
L35.9242 159.84
L36.0193 152.928
L36.0247 159.84
L36.0617 170.208
L36.0823 159.84
L36.0823 159.84
L36.1293 152.928
L36.1751 156.384
L36.3201 166.752
L36.3415 163.296
L36.3448 166.752
L36.3448 166.752
L36.3472 170.208
L36.3549 166.752
L36.3549 166.752
L36.4698 128.736
L36.5433 121.824
L36.5557 128.736
L36.6134 139.104
L36.6569 132.192
L36.6875 125.28
L36.7035 132.192
L36.7035 132.192
L36.7168 135.648
L36.7232 132.192
L36.7232 132.192
L36.8231 104.544
L36.8662 111.456
L36.9856 104.544
L37.072 132.192
L37.1375 118.368
L37.1849 108
L37.247 114.912
L37.2592 121.824
L37.3169 114.912
L37.3169 114.912
L37.3284 111.456
L37.3335 114.912
L37.3335 114.912
L37.3984 135.648
L37.4496 132.192
L37.5736 108
L37.6201 104.544
L37.6261 108
L37.6774 111.456
L37.7089 108
L37.7089 108
L37.8363 90.72
L37.8615 94.176
L38.0313 114.912
L38.1269 132.192
L38.1777 121.824
L38.1814 118.368
L38.183 121.824
L38.183 121.824
L38.1958 128.736
L38.2045 121.824
L38.2045 121.824
L38.2826 104.544
L38.334 108
L38.3374 111.456
L38.3483 108
L38.3483 108
L38.4383 90.72
L38.4538 101.088
L38.5117 108
L38.5346 101.088
L38.6073 94.176
L38.6497 97.632
L38.7671 125.28
L38.8717 149.472
L38.9372 142.56
L39.0051 132.192
L39.0324 139.104
L39.2262 156.384
L39.2296 149.472
L39.248 156.384
L39.248 156.384
L39.2532 159.84
L39.2765 156.384
L39.2765 156.384
L39.3487 139.104
L39.415 149.472
L39.5048 163.296
L39.5071 159.84
L39.5918 146.016
L39.612 135.648
L39.6454 146.016
L39.6454 146.016
L39.6547 149.472
L39.6558 146.016
L39.6558 146.016
L39.67 139.104
L39.7034 146.016
L39.7034 146.016
L39.7082 149.472
L39.7154 146.016
L39.7154 146.016
L39.8225 114.912
L39.8607 125.28
L39.9916 146.016
L40.0593 139.104
L40.0756 135.648
L40.0775 139.104
L40.0775 139.104
L40.1433 149.472
L40.2158 146.016
L40.2489 135.648
L40.2861 146.016
L40.2861 146.016
L40.3083 149.472
L40.3131 146.016
L40.3131 146.016
L40.3644 118.368
L40.4388 128.736
L40.4676 121.824
L40.4844 128.736
L40.4844 128.736
L40.5056 132.192
L40.5084 128.736
L40.5084 128.736
L40.5206 121.824
L40.611 125.28
L40.6699 132.192
L40.6811 125.28
L40.6811 125.28
L40.8062 114.912
L40.9377 104.544
L40.9466 108
L40.9698 114.912
L40.9968 108
L40.9968 108
L41.0236 101.088
L41.041 108
L41.041 108
L41.0426 114.912
L41.1296 108
L41.1296 108
L41.1309 101.088
L41.1759 108
L41.1759 108
L41.1803 111.456
L41.1919 108
L41.1919 108
L41.2019 104.544
L41.2045 108
L41.2045 108
L41.3056 118.368
L41.3193 111.456
L41.3519 101.088
L41.381 111.456
L41.381 111.456
L41.5082 135.648
L41.5805 125.28
L41.6031 128.736
L41.6335 125.28
L41.6436 128.736
L41.7354 142.56
L41.7586 149.472
L41.8105 142.56
L41.8105 142.56
L41.812 139.104
L41.8182 142.56
L41.8182 142.56
L41.8526 146.016
L41.8685 142.56
L41.8685 142.56
L41.9594 121.824
L41.9668 125.28
L42.0053 128.736
L42.0099 125.28
L42.0099 125.28
L42.0323 121.824
L42.0443 125.28
L42.0443 125.28
L42.1433 135.648
L42.1528 132.192
L42.1692 128.736
L42.193 132.192
L42.193 132.192
L42.1995 135.648
L42.2026 132.192
L42.2026 132.192
L42.2468 125.28
L42.2728 132.192
L42.2728 132.192
L42.2764 135.648
L42.2866 132.192
L42.2866 132.192
L42.2887 128.736
L42.3101 132.192
L42.3101 132.192
L42.3945 142.56
L42.4246 139.104
L42.4592 149.472
L42.4947 139.104
L42.4947 139.104
L42.5274 132.192
L42.5495 139.104
L42.5495 139.104
L42.556 142.56
L42.5563 139.104
L42.5563 139.104
L42.6072 135.648
L42.6229 139.104
L42.6229 139.104
L42.8136 180.576
L42.8203 177.12
L42.8726 170.208
L42.9039 177.12
L42.9606 180.576
L42.9638 177.12
L43.0719 156.384
L43.1858 170.208
L43.1996 163.296
L43.3251 128.736
L43.3626 135.648
L43.4958 163.296
L43.5069 159.84
L43.5239 163.296
L43.5239 163.296
L43.6309 173.664
L43.6444 166.752
L43.654 159.84
L43.6879 166.752
L43.6879 166.752
L43.6931 170.208
L43.7037 166.752
L43.7037 166.752
L43.748 156.384
L43.7738 166.752
L43.7738 166.752
L43.8482 173.664
L43.8882 170.208
L43.9368 173.664
L43.938 170.208
L43.938 170.208
L43.99 149.472
L44.0496 159.84
L44.2108 184.032
L44.2377 173.664
L44.2451 166.752
L44.3038 173.664
L44.3038 173.664
L44.3191 180.576
L44.3384 173.664
L44.3384 173.664
L44.4324 152.928
L44.5734 135.648
L44.6144 142.56
L44.6336 146.016
L44.6482 142.56
L44.6482 142.56
L44.6647 135.648
L44.6781 142.56
L44.6781 142.56
L44.7039 146.016
L44.7089 142.56
L44.7089 142.56
L44.7711 132.192
L44.8344 135.648
L44.8646 132.192
L44.9221 111.456
L44.968 118.368
L44.987 121.824
L44.994 118.368
L44.994 118.368
L45.102 97.632
L45.143 101.088
L45.1728 108
L45.2027 101.088
L45.2027 101.088
L45.2702 90.72
L45.2825 101.088
L45.2825 101.088
L45.2881 104.544
L45.3449 101.088
L45.3449 101.088
L45.3713 94.176
L45.4573 97.632
L45.6253 114.912
L45.678 97.632
L45.7482 101.088
L45.7963 111.456
L45.8458 118.368
L45.899 111.456
L45.899 111.456
L45.8994 108
L45.9082 111.456
L45.9082 111.456
L45.9264 114.912
L45.9419 111.456
L45.9419 111.456
L46.0326 83.808
L46.077 101.088
L46.0794 104.544
L46.08 101.088
L46.08 101.088
L46.1214 97.632
L46.1388 101.088
L46.1388 101.088
L46.1759 108
L46.2069 101.088
L46.2069 101.088
L46.2191 97.632
L46.2455 101.088
L46.2455 101.088
L46.2639 104.544
L46.2647 101.088
L46.2647 101.088
L46.322 90.72
L46.3621 101.088
L46.4423 118.368
L46.5105 114.912
L46.5152 111.456
L46.5198 114.912
L46.5198 114.912
L46.5861 121.824
L46.5907 114.912
L46.5907 114.912
L46.5924 111.456
L46.5974 114.912
L46.5974 114.912
L46.6963 139.104
L46.7478 132.192
L46.7703 128.736
L46.7726 132.192
L46.7726 132.192
L46.8077 142.56
L46.8594 132.192
L46.8594 132.192
L46.9251 125.28
L46.9286 132.192
L46.9286 132.192
L46.9423 139.104
L46.9655 132.192
L46.9655 132.192
L47.0372 114.912
L47.0787 128.736
L47.2584 166.752
L47.4239 152.928
L47.4578 156.384
L47.538 159.84
L47.5392 156.384
L47.5392 156.384
L47.6746 132.192
L47.8029 146.016
L47.8186 142.56
L47.8268 146.016
L47.8268 146.016
L47.9498 170.208
L47.9672 163.296
L47.9845 156.384
L47.9931 163.296
L47.9931 163.296
L48.039 180.576
L48.0977 166.752
L48.2535 187.488
L48.2673 184.032
L48.3306 166.752
L48.386 180.576
L48.4046 187.488
L48.4493 180.576
L48.4493 180.576
L48.4521 177.12
L48.4546 180.576
L48.4546 180.576
L48.4718 190.944
L48.5579 187.488
L48.6805 173.664
L48.7011 180.576
L48.7958 190.944
L48.8182 187.488
L48.9082 177.12
L48.935 180.576
L48.9534 187.488
L48.9848 180.576
L48.9848 180.576
L49.1463 135.648
L49.1536 139.104
L49.1755 142.56
L49.1762 139.104
L49.1762 139.104
L49.2257 125.28
L49.2831 135.648
L49.3085 146.016
L49.3514 135.648
L49.3514 135.648
L49.4509 125.28
L49.4592 132.192
L49.5656 118.368
L49.6338 104.544
L49.716 94.176
L49.7488 83.808
L49.7831 94.176
L49.7831 94.176
L49.8944 101.088
L50.0697 121.824
L50.0759 118.368
L50.0879 114.912
L50.0886 118.368
L50.0886 118.368
L50.1826 128.736
L50.1917 125.28
L50.2507 121.824
L50.2601 125.28
L50.2669 128.736
L50.2812 125.28
L50.2812 125.28
L50.4186 111.456
L50.4359 132.192
L50.5066 118.368
L50.5383 114.912
L50.55 118.368
L50.55 118.368
L50.5657 121.824
L50.5701 118.368
L50.5701 118.368
L50.6755 104.544
L50.6873 108
L50.7536 114.912
L50.7605 108
L50.7605 108
L50.8291 94.176
L50.856 101.088
L50.9142 94.176
L50.9587 97.632
L51.0155 108
L51.0514 101.088
L51.1131 94.176
L51.1166 101.088
L51.1486 104.544
L51.1626 101.088
L51.1626 101.088
L51.1636 97.632
L51.1681 101.088
L51.1681 101.088
L51.2893 135.648
L51.3332 128.736
L51.3365 135.648
L51.3365 135.648
L51.6043 173.664
L51.6576 163.296
L51.6671 156.384
L51.6698 163.296
L51.6698 163.296
L51.766 180.576
L51.8217 177.12
L51.8231 180.576
L51.8483 184.032
L51.8493 180.576
L51.8493 180.576
L51.8514 177.12
L51.8743 180.576
L51.8743 180.576
L51.9413 194.4
L51.976 187.488
L52.0285 180.576
L52.062 187.488
L52.0797 190.944
L52.0822 187.488
L52.0822 187.488
L52.1945 166.752
L52.2532 177.12
L52.3375 180.576
L52.3616 177.12
L52.396 170.208
L52.3998 177.12
L52.3998 177.12
L52.4063 180.576
L52.4147 177.12
L52.4147 177.12
L52.544 170.208
L52.5463 173.664
L52.5558 170.208
L52.5558 170.208
L52.6378 163.296
L52.6418 166.752
L52.8224 187.488
L52.8404 180.576
L52.96 170.208
L52.9624 173.664
L52.9877 177.12
L53.0007 173.664
L53.0007 173.664
L53.0343 159.84
L53.0945 170.208
L53.2718 194.4
L53.3443 187.488
L53.4531 173.664
L53.5748 163.296
L53.585 166.752
L53.6596 163.296
L53.8279 149.472
L53.8346 152.928
L53.847 149.472
L53.847 149.472
L53.9587 132.192
L54.0148 135.648
L54.0243 132.192
L54.0797 128.736
L54.0908 132.192
L54.0908 132.192
L54.1077 142.56
L54.1953 139.104
L54.2636 114.912
L54.3456 132.192
L54.4333 149.472
L54.5169 146.016
L54.6265 135.648
L54.6689 139.104
L54.8025 152.928
L54.8363 146.016
L54.9 132.192
L54.9293 125.28
L54.9348 132.192
L54.9348 132.192
L54.9521 135.648
L54.9587 132.192
L54.9587 132.192
L55.0214 125.28
L55.0845 128.736
L55.1103 132.192
L55.112 128.736
L55.112 128.736
L55.289 87.264
L55.3348 97.632
L55.3708 101.088
L55.4082 97.632
L55.5036 83.808
L55.5401 94.176
L55.5659 101.088
L55.5802 94.176
L55.5802 94.176
L55.7014 73.44
L55.8525 63.072
L55.8538 66.528
L56.0486 108
L56.0943 101.088
L56.1739 90.72
L56.2052 94.176
L56.226 101.088
L56.2797 94.176
L56.2797 94.176
L56.301 90.72
L56.3074 94.176
L56.3074 94.176
L56.3868 101.088
L56.4074 94.176
L56.4074 94.176
L56.5144 76.896
L56.5223 80.352
L56.548 87.264
L56.5896 80.352
L56.5896 80.352
L56.6132 73.44
L56.6401 80.352
L56.6401 80.352
L56.8078 101.088
L56.8302 97.632
L56.9306 114.912
L56.9751 104.544
L56.9789 101.088
L56.9814 104.544
L56.9814 104.544
L57.3764 152.928
L57.4051 149.472
L57.5035 139.104
L57.5209 142.56
L57.5487 146.016
L57.5528 142.56
L57.5528 142.56
L57.5761 132.192
L57.5871 142.56
L57.5871 142.56
L57.6844 170.208
L57.7182 173.664
L57.7186 170.208
L57.7186 170.208
L57.7686 166.752
L57.7772 170.208
L57.7772 170.208
L57.9184 194.4
L57.9231 190.944
L57.9506 187.488
L57.9813 190.944
L57.9813 190.944
L58.097 194.4
L58.2071 184.032
L58.2889 170.208
L58.3507 177.12
L58.3796 180.576
L58.3926 177.12
L58.3926 177.12
L58.424 173.664
L58.4264 177.12
L58.4264 177.12
L58.5017 184.032
L58.508 177.12
L58.508 177.12
L58.516 173.664
L58.5252 177.12
L58.5252 177.12
L58.5713 184.032
L58.578 177.12
L58.578 177.12
L58.746 156.384
L58.7615 159.84
L58.8775 177.12
L58.978 190.944
L59.0189 187.488
L59.0546 194.4
L59.0952 187.488
L59.2032 163.296
L59.2261 166.752
L59.3391 184.032
L59.386 180.576
L59.5485 149.472
L59.687 146.016
L59.6893 149.472
L59.6905 146.016
L59.6905 146.016
L59.9749 121.824
L60.0095 132.192
L60.0103 135.648
L60.0143 132.192
L60.0143 132.192
L60.1283 101.088
L60.1785 104.544
L60.1842 101.088
L60.1933 97.632
L60.1964 101.088
L60.1964 101.088
L60.2348 108
L60.2824 101.088
L60.2824 101.088
L60.379 94.176
L60.3899 101.088
L60.4704 114.912
L60.5046 104.544
L60.5048 101.088
L60.5118 104.544
L60.5118 104.544
L60.6248 114.912
L60.6977 101.088
L60.6984 97.632
L60.6987 101.088
L60.6987 101.088
L60.8372 125.28
L60.9467 121.824
L61.0209 108
L61.0437 121.824
L61.0437 121.824
L61.1564 132.192
L61.1612 128.736
L61.2398 118.368
L61.2862 114.912
L61.2966 118.368
L61.2966 118.368
L61.304 121.824
L61.3114 118.368
L61.3114 118.368
L61.4167 101.088
L61.4218 97.632
L61.4267 101.088
L61.4267 101.088
L61.433 111.456
L61.5255 104.544
L61.5872 108
L61.6078 104.544
L61.6078 104.544
L61.6132 101.088
L61.6274 104.544
L61.6274 104.544
L61.7129 111.456
L61.7344 104.544
L61.7964 94.176
L61.8158 97.632
L61.88 90.72
L61.9089 97.632
L62.0391 118.368
L62.0534 108
L62.0791 118.368
L62.0791 118.368
L62.2648 156.384
L62.278 149.472
L62.3172 135.648
L62.3628 149.472
L62.3628 149.472
L62.5119 180.576
L62.5526 177.12
L62.5894 163.296
L62.66 173.664
L62.6679 177.12
L62.6688 173.664
L62.6688 173.664
L62.6718 170.208
L62.6735 173.664
L62.6735 173.664
L62.7258 184.032
L62.7709 173.664
L62.7709 173.664
L62.865 159.84
L62.8824 163.296
L62.9787 184.032
L63.0062 177.12
L63.0313 173.664
L63.0459 177.12
L63.0459 177.12
L63.082 180.576
L63.0915 177.12
L63.0915 177.12
L63.0935 173.664
L63.1075 177.12
L63.1075 177.12
L63.1507 187.488
L63.241 184.032
L63.4401 163.296
L63.4517 166.752
L63.5237 180.576
L63.5878 187.488
L63.6919 194.4
L63.6995 190.944
L63.7822 163.296
L63.8254 173.664
L63.934 163.296
L63.9873 166.752
L64.0957 173.664
L64.1104 177.12
L64.1185 173.664
L64.1185 173.664
L64.1479 166.752
L64.1581 173.664
L64.1581 173.664
L64.1751 180.576
L64.1994 173.664
L64.1994 173.664
L64.2002 170.208
L64.2008 173.664
L64.2008 173.664
L64.2072 177.12
L64.2231 173.664
L64.2231 173.664
L64.2333 166.752
L64.2488 173.664
L64.2488 173.664
L64.2699 177.12
L64.2703 173.664
L64.2703 173.664
L64.393 159.84
L64.442 149.472
L64.4528 159.84
L64.4528 159.84
L64.5099 163.296
L64.5184 159.84
L64.6604 132.192
L64.669 128.736
L64.6879 132.192
L64.6879 132.192
L64.751 142.56
L64.7798 132.192
L64.8472 111.456
L64.8918 121.824
L64.9346 125.28
L64.9356 121.824
L64.9356 121.824
L64.9576 118.368
L64.9657 121.824
L64.9657 121.824
L65.0609 135.648
L65.0956 125.28
L65.1093 118.368
L65.1312 125.28
L65.1312 125.28
L65.1331 128.736
L65.162 125.28
L65.162 125.28
L65.2918 108
L65.2983 111.456
L65.3196 118.368
L65.3346 111.456
L65.3346 111.456
L65.4028 97.632
L65.4238 111.456
L65.4612 114.912
L65.47 111.456
L65.47 111.456
L65.5364 97.632
L65.5656 111.456
L65.5656 111.456
L65.577 121.824
L65.5938 111.456
L65.5938 111.456
L65.6992 104.544
L65.7055 108
L65.7666 97.632
L65.8125 104.544
L65.967 121.824
L65.9918 118.368
L66.1113 101.088
L66.1256 97.632
L66.1306 101.088
L66.1306 101.088
L66.2197 114.912
L66.244 108
L66.3327 97.632
L66.3456 101.088
L66.4445 108
L66.5422 97.632
L66.5519 104.544
L66.685 121.824
L66.7386 114.912
L66.7549 121.824
L66.7549 121.824
L66.8572 132.192
L66.867 128.736
L66.8801 125.28
L66.8851 128.736
L66.8851 128.736
L66.8862 132.192
L66.8886 128.736
L66.8886 128.736
L66.9128 125.28
L66.919 128.736
L66.919 128.736
L66.9281 132.192
L66.9617 128.736
L66.9617 128.736
L67.0789 97.632
L67.1018 104.544
L67.2314 125.28
L67.2371 121.824
L67.2398 118.368
L67.2457 121.824
L67.2457 121.824
L67.2522 125.28
L67.2556 121.824
L67.2556 121.824
L67.3145 104.544
L67.3679 118.368
L67.5147 132.192
L67.5835 146.016
L67.6604 166.752
L67.6999 152.928
L67.704 149.472
L67.7048 152.928
L67.7048 152.928
L67.7549 156.384
L67.76 152.928
L67.76 152.928
L67.7605 149.472
L67.7648 152.928
L67.7648 152.928
L67.7939 156.384
L67.8072 152.928
L67.8072 152.928
L67.8124 146.016
L67.8302 152.928
L67.8302 152.928
L67.8758 166.752
L67.8903 152.928
L67.8903 152.928
L67.9304 142.56
L68.0013 149.472
L68.0649 177.12
L68.124 166.752
L68.2267 184.032
L68.25 177.12
L68.3205 184.032
L68.3515 177.12
L68.4248 159.84
L68.4747 146.016
L68.527 159.84
L68.7406 180.576
L68.7438 177.12
L68.8311 170.208
L68.8513 177.12
L68.8777 180.576
L68.8792 177.12
L68.8792 177.12
L68.9374 163.296
L69.0045 170.208
L69.0469 177.12
L69.0552 170.208
L69.0552 170.208
L69.0762 163.296
L69.0851 170.208
L69.201 163.296
L69.2011 159.84
L69.2124 163.296
L69.2124 163.296
L69.329 187.488
L69.3503 177.12
L69.4857 159.84
L69.492 163.296
L69.5784 166.752
L69.5802 163.296
L69.7027 152.928
L69.7278 156.384
L69.7383 152.928
L69.7383 152.928
L69.7965 149.472
L69.7981 152.928
L69.7981 152.928
L69.8698 163.296
L69.8917 156.384
L69.9632 149.472
L69.9965 156.384
L70.0756 166.752
L70.1322 159.84
L70.2446 139.104
L70.3146 125.28
L70.3718 128.736
L70.4173 132.192
L70.4225 128.736
L70.4725 118.368
L70.4847 128.736
L70.4847 128.736
L70.5922 139.104
L70.6268 142.56
L70.6492 139.104
L70.6492 139.104
L70.6965 128.736
L70.7453 135.648
L71.147 90.72
L71.1742 101.088
L71.256 94.176
L71.3622 69.984
L71.3981 76.896
L71.4249 73.44
L71.4275 76.896
L71.4275 76.896
L71.4591 83.808
L71.4861 76.896
L71.4861 76.896
L71.5094 73.44
L71.5165 76.896
L71.5165 76.896
L71.5291 80.352
L71.5298 76.896
L71.5298 76.896
L71.5675 63.072
L71.6108 76.896
L71.6108 76.896
L71.6333 87.264
L71.6649 76.896
L71.6649 76.896
L71.7612 59.616
L71.7636 66.528
L72.0009 94.176
L72.0419 90.72
L72.0448 87.264
L72.0551 90.72
L72.0551 90.72
L72.1821 118.368
L72.2624 121.824
L72.2721 118.368
L72.4577 90.72
L72.5077 101.088
L72.534 90.72
L72.6131 87.264
L72.6215 90.72
L72.628 94.176
L72.6464 90.72
L72.6464 90.72
L72.6517 87.264
L72.6522 90.72
L72.6522 90.72
L72.7369 108
L72.7455 104.544
L72.7991 97.632
L72.8024 104.544
L72.8024 104.544
L72.8155 108
L72.8272 104.544
L72.8272 104.544
L72.9108 94.176
L72.9336 101.088
L72.9928 114.912
L73.0438 108
L73.1409 90.72
L73.1461 97.632
L73.1829 101.088
L73.1858 97.632
L73.1858 97.632
L73.2861 66.528
L73.3132 80.352
L73.4469 128.736
L73.5738 152.928
L73.5952 146.016
L73.6586 142.56
L73.6707 146.016
L73.6707 146.016
L73.7802 159.84
L73.7919 156.384
L73.7985 159.84
L73.7985 159.84
L73.9107 177.12
L74.0081 184.032
L74.077 173.664
L74.0854 166.752
L74.1114 173.664
L74.1114 173.664
L74.1142 177.12
L74.1203 173.664
L74.1203 173.664
L74.1291 170.208
L74.1295 173.664
L74.1295 173.664
L74.1497 184.032
L74.1933 173.664
L74.1933 173.664
L74.2189 170.208
L74.2194 173.664
L74.2194 173.664
L74.2939 184.032
L74.3112 177.12
L74.5853 152.928
L74.6394 163.296
L74.6492 152.928
L74.6645 149.472
L74.6661 152.928
L74.6661 152.928
L74.6788 159.84
L74.6967 152.928
L74.6967 152.928
L74.7264 149.472
L74.7332 152.928
L74.7332 152.928
L74.7446 159.84
L74.7529 152.928
L74.7529 152.928
L74.7862 142.56
L74.8801 146.016
L75.0056 170.208
L75.1172 166.752
L75.145 180.576
L75.2236 170.208
L75.2404 163.296
L75.3017 170.208
L75.3017 170.208
L75.4367 187.488
L75.4435 184.032
L75.4555 187.488
L75.4555 187.488
L75.5684 194.4
L75.5719 190.944
L75.5917 184.032
L75.6513 190.944
L75.6513 190.944
L75.6534 194.4
L75.6615 190.944
L75.6615 190.944
L76.3565 73.44
L76.3585 76.896
L76.4513 94.176
L76.4526 97.632
L76.4737 94.176
L76.4737 94.176
L76.5671 76.896
L76.5947 87.264
L76.6155 90.72
L76.6462 87.264
L76.6462 87.264
L76.6468 83.808
L76.6612 87.264
L76.6612 87.264
L76.7648 101.088
L76.7655 97.632
L76.7958 101.088
L76.7971 97.632
L76.7971 97.632
L76.802 94.176
L76.8128 97.632
L76.8128 97.632
L76.9788 128.736
L77.007 121.824
L77.2237 97.632
L77.2267 101.088
L77.2869 118.368
L77.3313 108
L77.4082 118.368
L77.4245 111.456
L77.4521 108
L77.457 111.456
L77.457 111.456
L77.5986 125.28
L77.7115 135.648
L77.7239 128.736
L77.8169 118.368
L77.9055 128.736
L77.9199 121.824
L77.9651 114.912
L77.996 121.824
L77.996 121.824
L78.047 132.192
L78.1043 125.28
L78.1135 128.736
L78.1246 125.28
L78.1246 125.28
L78.141 121.824
L78.143 125.28
L78.143 125.28
L78.1611 128.736
L78.1682 125.28
L78.1682 125.28
L78.1767 118.368
L78.2015 125.28
L78.2015 125.28
L78.2698 142.56
L78.3124 139.104
L78.4401 156.384
L78.4644 152.928
L78.4645 156.384
L78.4645 156.384
L78.4804 159.84
L78.482 156.384
L78.482 156.384
L78.5502 146.016
L78.5649 156.384
L78.7167 177.12
L78.8673 194.4
L78.8805 190.944
L78.9694 173.664
L78.9988 180.576
L79.0286 184.032
L79.0741 180.576
L79.0741 180.576
L79.0855 170.208
L79.1107 180.576
L79.1107 180.576
L79.1122 184.032
L79.117 180.576
L79.117 180.576
L79.2233 163.296
L79.244 166.752
L79.2507 163.296
L79.2507 163.296
L79.2526 159.84
L79.2724 163.296
L79.2724 163.296
L79.4465 180.576
L79.492 173.664
L79.6102 146.016
L79.6442 152.928
L79.6876 156.384
L79.6931 152.928
L79.6931 152.928
L79.7497 149.472
L79.7573 152.928
L79.7573 152.928
L79.8338 159.84
L79.8624 152.928
L79.9623 142.56
L80.0321 135.648
L80.0486 142.56
L80.1382 156.384
L80.1756 149.472
L80.2624 142.56
L80.2771 149.472
L80.2919 156.384
L80.3077 149.472
L80.3077 149.472
L80.3399 142.56
L80.3636 149.472
L80.3636 149.472
L80.3779 152.928
L80.3873 149.472
L80.3873 149.472
L80.3881 146.016
L80.405 149.472
L80.405 149.472
L80.4205 156.384
L80.434 149.472
L80.434 149.472
L80.5053 135.648
L80.5314 142.56
L80.6971 156.384
L80.81 146.016
L80.875 156.384
L80.9255 149.472
L81.0261 132.192
L81.0491 146.016
L81.1064 156.384
L81.1211 146.016
L81.1211 146.016
L81.2495 135.648
L81.3669 149.472
L81.3805 142.56
L81.4577 132.192
L81.4925 139.104
L81.5563 142.56
L81.5745 139.104
L81.5757 135.648
L81.5835 139.104
L81.5835 139.104
L81.619 146.016
L81.6318 139.104
L81.6318 139.104
L81.7164 121.824
L81.7233 128.736
L81.7513 125.28
L81.7745 128.736
L81.7745 128.736
L81.8422 135.648
L81.8844 128.736
L81.8943 125.28
L81.9253 128.736
L81.9253 128.736
L81.9739 132.192
L81.9753 128.736
L81.9753 128.736
L82.0189 114.912
L82.0565 128.736
L82.3155 163.296
L82.3519 159.84
L82.4358 149.472
L82.4603 156.384
L82.6155 177.12
L82.7211 166.752
L82.735 163.296
L82.739 166.752
L82.739 166.752
L82.7822 170.208
L82.7877 166.752
L82.7877 166.752
L82.8361 146.016
L82.9021 149.472
L82.9053 146.016
L83.0486 128.736
L83.0876 135.648
L83.0974 128.736
L83.0974 128.736
L83.153 125.28
L83.1666 128.736
L83.1666 128.736
L83.2197 139.104
L83.2717 128.736
L83.2775 125.28
L83.2796 128.736
L83.2796 128.736
L83.2981 135.648
L83.303 128.736
L83.303 128.736
L83.3087 125.28
L83.3178 128.736
L83.3178 128.736
L83.3366 132.192
L83.3399 128.736
L83.3399 128.736
L83.3637 118.368
L83.3886 128.736
L83.3886 128.736
L83.4549 149.472
L83.5257 142.56
L83.6439 139.104
L83.7448 149.472
L83.7459 146.016
L83.8446 132.192
L83.9028 139.104
L84.0147 159.84
L84.0475 163.296
L84.0555 159.84
L84.0555 159.84
L84.1045 146.016
L84.154 149.472
L84.2012 152.928
L84.2298 149.472
L84.4174 125.28
L84.5314 128.736
L84.5352 125.28
L84.5639 128.736
L84.5639 128.736
L84.565 132.192
L84.5662 128.736
L84.5662 128.736
L84.6664 118.368
L84.716 121.824
L84.8201 139.104
L84.852 128.736
L84.8786 118.368
L84.9206 128.736
L84.9206 128.736
L84.9627 132.192
L84.9667 128.736
L84.9667 128.736
L85.0171 121.824
L85.0551 128.736
L85.0882 132.192
L85.1067 128.736
L85.1067 128.736
L85.1378 125.28
L85.1498 128.736
L85.1498 128.736
L85.1671 132.192
L85.1696 128.736
L85.1696 128.736
L85.2173 114.912
L85.2652 125.28
L85.3041 114.912
L85.3672 125.28
L85.3814 128.736
L85.3824 125.28
L85.3824 125.28
L85.3857 121.824
L85.408 125.28
L85.408 125.28
L85.4125 128.736
L85.4152 125.28
L85.4152 125.28
L85.4702 104.544
L85.5186 125.28
L85.553 135.648
L85.6277 132.192
L85.7413 125.28
L85.7549 128.736
L85.8533 146.016
L85.8671 135.648
L85.9174 125.28
L85.9676 132.192
L86.0751 142.56
L86.0824 135.648
L86.1458 125.28
L86.1538 135.648
L86.1538 135.648
L86.1634 142.56
L86.2028 135.648
L86.2028 135.648
L86.2485 118.368
L86.2563 114.912
L86.2736 118.368
L86.2736 118.368
L86.2827 125.28
L86.2881 118.368
L86.2881 118.368
L86.3223 111.456
L86.3644 118.368
L86.3644 118.368
L86.5193 135.648
L86.5309 128.736
L86.6533 111.456
L86.6567 118.368
L86.6782 121.824
L86.6795 118.368
L86.6795 118.368
L86.682 114.912
L86.6848 118.368
L86.6848 118.368
L86.7442 125.28
L86.7619 118.368
L86.7619 118.368
L86.8206 101.088
L86.8645 118.368
L86.8645 118.368
L86.8689 121.824
L86.8726 118.368
L86.8726 118.368
L86.8905 111.456
L86.9144 118.368
L86.9144 118.368
L87.0364 146.016
L87.0438 139.104
L87.0858 135.648
L87.0866 139.104
L87.0866 139.104
L87.1648 146.016
L87.1759 139.104
L87.1759 139.104
L87.1958 132.192
L87.2227 139.104
L87.2227 139.104
L87.3253 163.296
L87.3501 149.472
L87.357 146.016
L87.3657 149.472
L87.3657 149.472
L87.4674 177.12
L87.4844 173.664
L87.5384 159.84
L87.5737 173.664
L87.6636 187.488
L87.737 184.032
L87.8499 173.664
L87.8511 177.12
L87.9639 187.488
L88.0502 194.4
L88.0623 187.488
L88.1498 170.208
L88.1581 173.664
L88.2141 177.12
L88.2198 173.664
L88.237 166.752
L88.2868 173.664
L88.2868 173.664
L88.4066 194.4
L88.5345 180.576
L88.5376 187.488
L88.5547 190.944
L88.5751 187.488
L88.5751 187.488
L88.6661 163.296
L88.6904 166.752
L88.8298 180.576
L88.8569 177.12
L88.9929 159.84
L89.0381 152.928
L89.0471 159.84
L89.0471 159.84
L89.0804 163.296
L89.0921 159.84
L89.0921 159.84
L89.1843 139.104
L89.258 146.016
L89.3551 159.84
L89.3982 152.928
L89.4624 139.104
L89.5437 146.016
L89.5816 152.928
L89.5917 146.016
L89.5917 146.016
L89.6983 121.824
L89.7143 125.28
L89.7265 128.736
L89.733 125.28
L89.733 125.28
L89.9855 80.352
L90.0023 87.264
L90.0453 94.176
L90.0538 87.264
L90.0538 87.264
L90.1565 66.528
L90.1911 69.984
L90.1967 73.44
L90.2015 69.984
L90.2015 69.984
L90.2172 66.528
L90.2186 69.984
L90.2186 69.984
L90.2244 73.44
L90.2297 69.984
L90.2297 69.984
L90.3834 45.792
L90.3967 52.704
L90.4278 45.792
L90.4278 45.792
L90.4327 42.336
L90.4358 45.792
L90.4358 45.792
L90.4397 52.704
L90.4633 45.792
L90.4633 45.792
L90.5182 38.88
L90.5559 45.792
L90.5559 45.792
L90.6954 76.896
L90.7106 69.984
L90.7112 66.528
L90.7119 69.984
L90.7119 69.984
L90.7623 76.896
L90.7901 69.984
L90.7901 69.984
L90.8701 52.704
L90.9202 56.16
L90.946 59.616
L90.9538 56.16
L90.9538 56.16
L91.0372 42.336
L91.0779 52.704
L91.1485 63.072
L91.1837 56.16
L91.2452 59.616
L91.2844 56.16
L91.3643 42.336
L91.3785 49.248
L91.4156 52.704
L91.4204 49.248
L91.4204 49.248
L91.4931 45.792
L91.4953 49.248
L91.4953 49.248
L91.5109 52.704
L91.5226 49.248
L91.5226 49.248
L91.5809 38.88
L91.6017 49.248
L91.6017 49.248
L91.7089 73.44
L91.8386 97.632
L91.9503 83.808
L91.9736 94.176
L92.1283 118.368
L92.1401 114.912
L92.1487 108
L92.2103 114.912
L92.2103 114.912
L92.226 118.368
L92.2324 114.912
L92.2324 114.912
L92.2681 101.088
L92.3262 114.912
L92.359 118.368
L92.3627 114.912
L92.3627 114.912
L92.3914 97.632
L92.4281 114.912
L92.4281 114.912
L92.5603 135.648
L92.564 132.192
L92.6104 121.824
L92.6491 132.192
L92.6491 132.192
L92.6579 135.648
L92.6609 132.192
L92.6609 132.192
L92.6626 128.736
L92.6743 132.192
L92.6743 132.192
L92.7809 149.472
L92.8025 146.016
L92.804 142.56
L92.8077 146.016
L92.8077 146.016
L92.9246 159.84
L92.9371 156.384
L92.9622 159.84
L92.9622 159.84
L93.2024 194.4
L93.2098 190.944
L93.2834 180.576
L93.3314 187.488
L93.3855 190.944
L93.3874 187.488
L93.3874 187.488
L93.493 177.12
L93.5087 184.032
L93.5248 187.488
L93.5291 184.032
L93.5291 184.032
L93.5384 180.576
L93.5412 184.032
L93.5412 184.032
L93.5629 187.488
L93.5744 184.032
L93.5744 184.032
L93.6039 166.752
L93.646 184.032
L93.646 184.032
L93.6477 187.488
L93.6524 184.032
L93.6524 184.032
L93.6701 173.664
L93.703 184.032
L93.703 184.032
L93.7274 194.4
L93.8026 187.488
L93.8389 177.12
L93.8751 187.488
L93.8751 187.488
L93.8787 190.944
L93.8861 187.488
L93.8861 187.488
L93.898 184.032
L93.8994 187.488
L93.8994 187.488
L93.9826 194.4
L94.0441 184.032
L94.0545 180.576
L94.0642 184.032
L94.0642 184.032
L94.0829 187.488
L94.1043 184.032
L94.1043 184.032
L94.2523 163.296
L94.285 170.208
L94.2891 163.296
L94.2891 163.296
L94.3192 149.472
L94.3942 159.84
L94.5197 177.12
L94.5335 170.208
L94.6602 152.928
L94.6708 159.84
L94.8177 180.576
L94.9922 166.752
L94.9968 170.208
L94.9973 173.664
L95.0043 170.208
L95.0043 170.208
L95.1901 139.104
L95.2036 142.56
L95.2313 139.104
L95.2313 139.104
L95.3199 121.824
L95.3391 128.736
L95.3672 132.192
L95.374 128.736
L95.374 128.736
L95.4025 125.28
L95.4303 128.736
L95.4303 128.736
L95.436 132.192
L95.4675 128.736
L95.4675 128.736
L95.6177 101.088
L95.755 135.648
L95.7701 132.192
L95.818 125.28
L95.8233 132.192
L95.8233 132.192
L95.9264 139.104
L95.9495 135.648
L95.9609 139.104
L95.9609 139.104
L96.0827 149.472
L96.2292 128.736
L96.2376 132.192
L96.249 135.648
L96.2605 132.192
L96.2605 132.192
L96.434 114.912
L96.4466 118.368
L96.581 125.28
L96.6178 118.368
L96.6327 125.28
L96.6327 125.28
L96.7547 146.016
L96.8658 152.928
L96.8948 149.472
L96.9823 142.56
L96.9966 146.016
L97.0166 149.472
L97.0189 146.016
L97.0189 146.016
L97.0441 128.736
L97.1213 135.648
L97.2001 142.56
L97.21 139.104
L97.2791 142.56
L97.2871 139.104
L97.2919 135.648
L97.295 139.104
L97.295 139.104
L97.3102 142.56
L97.3106 139.104
L97.3106 139.104
L97.3968 132.192
L97.4067 139.104
L97.5028 166.752
L97.6142 156.384
L97.6392 152.928
L97.6454 156.384
L97.6454 156.384
L97.7011 163.296
L97.7527 156.384
L97.7697 159.84
L97.7715 156.384
L97.7715 156.384
L97.8058 152.928
L97.8291 156.384
L97.8291 156.384
L97.9552 170.208
L97.9577 166.752
L98.0096 173.664
L98.0171 166.752
L98.1249 152.928
L98.1439 159.84
L98.2376 170.208
L98.2484 159.84
L98.3492 142.56
L98.3897 152.928
L98.515 163.296
L98.5326 156.384
L98.578 163.296
L98.578 163.296
L98.6855 177.12
L98.6967 170.208
L98.7117 159.84
L98.8057 166.752
L98.8358 163.296
L98.8364 166.752
L98.8364 166.752
L98.961 184.032
L98.9882 177.12
L99.0678 159.84
L99.069 163.296
L99.1529 152.928
L99.1758 163.296
L99.2136 170.208
L99.2179 163.296
L99.2179 163.296
L99.2941 146.016
L99.3253 152.928
L99.4053 156.384
L99.4627 152.928
L99.4675 156.384
L99.5639 166.752
L99.5759 163.296
L99.648 149.472
L99.6556 152.928
L99.7431 146.016
L99.7512 152.928
L99.8913 177.12
L99.9065 173.664
L99.9638 166.752
L99.988 170.208
L100.172 187.488
L100.176 184.032
L100.352 159.84
L100.386 166.752
L100.413 170.208
L100.427 166.752
L100.427 166.752
L100.588 149.472
L100.603 152.928
L100.644 156.384
L100.653 152.928
L100.653 152.928
L100.784 142.56
L100.798 146.016
L100.809 149.472
L100.81 146.016
L100.81 146.016
L100.92 135.648
L100.954 139.104
L100.972 135.648
L101.141 114.912
L101.17 111.456
L101.207 114.912
L101.207 114.912
L101.323 135.648
L101.334 139.104
L101.37 135.648
L101.37 135.648
L101.385 132.192
L101.409 135.648
L101.409 135.648
L101.557 159.84
L101.572 149.472
L101.576 142.56
L101.614 149.472
L101.614 149.472
L101.691 156.384
L101.728 152.928
L101.771 146.016
L101.778 152.928
L101.778 152.928
L101.779 156.384
L101.781 152.928
L101.781 152.928
L101.993 121.824
L101.995 125.28
L102.004 128.736
L102.01 125.28
L102.01 125.28
L102.023 121.824
L102.032 125.28
L102.032 125.28
L102.139 132.192
L102.166 128.736
L102.234 121.824
L102.26 125.28
L102.341 132.192
L102.366 125.28
L102.373 121.824
L102.378 125.28
L102.378 125.28
L102.442 139.104
L102.504 128.736
L102.527 121.824
L102.564 128.736
L102.564 128.736
L102.58 132.192
L102.592 128.736
L102.592 128.736
L102.645 121.824
L102.688 128.736
L102.688 128.736
L102.69 132.192
L102.692 128.736
L102.692 128.736
L102.692 125.28
L102.694 128.736
L102.694 128.736
L102.85 159.84
L102.859 156.384
L103.001 139.104
L103.086 125.28
L103.122 135.648
L103.264 146.016
L103.264 142.56
L103.356 159.84
L103.381 166.752
L103.385 159.84
L103.385 159.84
L103.401 149.472
L103.427 159.84
L103.427 159.84
L103.443 163.296
L103.451 159.84
L103.451 159.84
L103.558 128.736
L103.605 135.648
L103.62 142.56
L103.652 135.648
L103.652 135.648
L103.762 121.824
L103.844 152.928
L103.885 139.104
L103.969 132.192
L103.987 135.648
L104.034 142.56
L104.064 135.648
L104.064 135.648
L104.077 128.736
L104.091 135.648
L104.091 135.648
L104.241 173.664
L104.342 163.296
L104.345 159.84
L104.347 163.296
L104.347 163.296
L104.386 166.752
L104.387 163.296
L104.387 163.296
L104.44 149.472
L104.442 156.384
L104.612 146.016
L104.641 132.192
L104.745 139.104
L104.766 146.016
L104.8 139.104
L104.8 139.104
L104.881 128.736
L104.907 135.648
L105.045 114.912
L105.06 118.368
L105.148 142.56
L105.158 139.104
L105.307 118.368
L105.321 128.736
L105.546 146.016
L105.601 139.104
L105.632 146.016
L105.632 146.016
L105.668 152.928
L105.678 146.016
L105.678 146.016
L105.697 142.56
L105.7 146.016
L105.7 146.016
L105.703 149.472
L105.704 146.016
L105.704 146.016
L105.742 142.56
L105.75 146.016
L105.75 146.016
L105.78 156.384
L105.86 152.928
L105.936 149.472
L105.94 152.928
L105.959 163.296
L106.033 156.384
L106.17 166.752
L106.178 163.296
L106.26 139.104
L106.27 135.648
L106.292 139.104
L106.292 139.104
L106.322 142.56
L106.329 139.104
L106.329 139.104
L106.491 121.824
L106.51 125.28
L106.546 128.736
L106.546 125.28
L106.546 125.28
L106.626 118.368
L106.677 114.912
L106.703 118.368
L106.71 121.824
L106.772 118.368
L106.772 118.368
L106.824 108
L106.881 114.912
L106.884 118.368
L106.887 114.912
L106.887 114.912
L106.911 104.544
L106.993 114.912
L106.998 118.368
L107.001 114.912
L107.001 114.912
L107.021 101.088
L107.059 114.912
L107.059 114.912
L107.07 118.368
L107.08 114.912
L107.08 114.912
L107.11 108
L107.142 114.912
L107.142 114.912
L107.185 121.824
L107.232 114.912
L107.232 114.912
L107.234 111.456
L107.242 114.912
L107.242 114.912
L107.305 135.648
L107.37 128.736
L107.423 142.56
L107.454 128.736
L107.481 121.824
L107.5 128.736
L107.5 128.736
L107.509 132.192
L107.509 128.736
L107.509 128.736
L107.627 97.632
L107.788 121.824
L107.792 118.368
L107.827 108
L107.911 111.456
L108.025 132.192
L108.041 128.736
L108.126 104.544
L108.178 111.456
L108.251 118.368
L108.282 111.456
L108.38 90.72
L108.434 97.632
L108.508 114.912
L108.553 111.456
L108.559 114.912
L108.559 114.912
L108.705 139.104
L108.726 132.192
L108.727 139.104
L108.727 139.104
L108.802 146.016
L108.806 139.104
L108.806 139.104
L108.81 135.648
L108.81 139.104
L108.81 139.104
L108.835 146.016
L108.844 139.104
L108.844 139.104
L108.997 114.912
L109.028 132.192
L109.048 139.104
L109.068 132.192
L109.068 132.192
L109.168 118.368
L109.179 121.824
L109.343 142.56
L109.387 139.104
L109.392 142.56
L109.392 142.56
L109.501 156.384
L109.526 152.928
L109.56 146.016
L109.583 152.928
L109.583 152.928
L109.677 173.664
L109.68 170.208
L109.783 146.016
L109.842 159.84
L109.92 180.576
L109.954 173.664
L110.091 159.84
L110.111 163.296
L110.219 173.664
L110.239 166.752
L110.243 163.296
L110.244 166.752
L110.244 166.752
L110.246 170.208
L110.268 166.752
L110.268 166.752
L110.403 159.84
L110.574 184.032
L110.607 177.12
L110.723 166.752
L110.781 170.208
L110.787 166.752
L110.787 166.752
L110.791 163.296
L110.796 166.752
L110.796 166.752
L110.797 170.208
L110.8 166.752
L110.8 166.752
L110.889 149.472
L110.92 152.928
L110.934 149.472
L110.944 152.928
L110.944 152.928
L111.038 163.296
L111.049 156.384
L111.168 152.928
L111.171 156.384
L111.178 152.928
L111.178 152.928
L111.268 149.472
L111.305 146.016
L111.308 149.472
L111.308 149.472
L111.347 159.84
L111.381 149.472
L111.381 149.472
L111.382 146.016
L111.4 149.472
L111.4 149.472
L111.401 152.928
L111.404 149.472
L111.404 149.472
L111.443 146.016
L111.444 149.472
L111.444 149.472
L111.456 152.928
L111.46 149.472
L111.46 149.472
L111.566 142.56
L111.731 163.296
L111.734 159.84
L111.789 173.664
L111.873 166.752
L111.879 159.84
L111.944 163.296
L112.077 152.928
L112.183 146.016
L112.318 135.648
L112.34 139.104
L112.354 146.016
L112.407 139.104
L112.407 139.104
L112.545 108
L112.597 121.824
L112.645 114.912
L112.725 118.368
L112.739 125.28
L112.74 118.368
L112.74 118.368
L112.745 114.912
L112.759 118.368
L112.759 118.368
L112.841 125.28
L112.85 118.368
L112.85 118.368
L112.954 90.72
L112.981 101.088
L113.051 114.912
L113.082 108
L113.107 104.544
L113.113 108
L113.113 108
L113.182 121.824
L113.232 114.912
L113.267 121.824
L113.268 114.912
L113.268 114.912
L113.279 111.456
L113.279 114.912
L113.279 114.912
L113.4 142.56
L113.408 139.104
L113.446 142.56
L113.452 139.104
L113.452 139.104
L113.546 118.368
L113.567 121.824
L113.626 111.456
L113.684 118.368
L113.771 146.016
L113.832 135.648
L113.916 142.56
L113.96 139.104
L114.005 135.648
L114.016 139.104
L114.016 139.104
L114.037 146.016
L114.06 139.104
L114.06 139.104
L114.084 125.28
L114.162 135.648
L114.27 121.824
L114.332 128.736
L114.451 135.648
L114.645 166.752
L114.702 149.472
L114.803 135.648
L114.815 142.56
L114.827 146.016
L114.834 142.56
L114.834 142.56
L114.854 135.648
L114.862 142.56
L114.862 142.56
L115.147 184.032
L115.227 180.576
L115.24 177.12
L115.24 180.576
L115.24 180.576
L115.377 194.4
L115.714 152.928
L115.714 156.384
L115.746 159.84
L115.749 156.384
L115.749 156.384
L115.939 104.544
L115.939 108
L116 114.912
L116.009 108
L116.009 108
L116.019 104.544
L116.032 108
L116.032 108
L116.133 125.28
L116.254 139.104
L116.27 132.192
L116.299 125.28
L116.309 132.192
L116.309 132.192
L116.376 142.56
L116.399 132.192
L116.399 132.192
L116.413 125.28
L116.437 132.192
L116.437 132.192
L116.498 142.56
L116.516 132.192
L116.751 108
L116.767 114.912
L116.788 118.368
L116.788 114.912
L116.788 114.912
L116.81 111.456
L116.825 114.912
L116.825 114.912
L116.969 135.648
L117.074 125.28
L117.076 128.736
L117.095 132.192
L117.099 128.736
L117.099 128.736
L117.118 125.28
L117.127 128.736
L117.127 128.736
L117.131 132.192
L117.143 128.736
L117.143 128.736
L117.268 118.368
L117.29 121.824
L117.292 118.368
L117.292 118.368
L117.417 101.088
L117.627 87.264
L117.737 108
L117.777 90.72
L117.828 108
L117.914 121.824
L117.936 114.912
L117.94 111.456
L117.945 114.912
L117.945 114.912
L117.981 121.824
L118.01 114.912
L118.01 114.912
L118.024 108
L118.039 114.912
L118.039 114.912
L118.161 142.56
L118.213 149.472
L118.219 142.56
L118.219 142.56
L118.347 125.28
L118.432 139.104
L118.445 132.192
L118.476 128.736
L118.509 132.192
L118.509 132.192
L118.581 146.016
L118.626 139.104
L118.727 125.28
L118.736 128.736
L118.769 132.192
L118.77 128.736
L118.77 128.736
L118.784 125.28
L118.786 128.736
L118.786 128.736
L118.799 132.192
L118.811 128.736
L118.811 128.736
L118.828 125.28
L118.834 128.736
L118.834 128.736
L118.955 142.56
L118.966 139.104
L119.154 170.208
L119.238 163.296
L119.254 156.384
L119.301 163.296
L119.301 163.296
L119.306 170.208
L119.33 163.296
L119.33 163.296
L119.331 159.84
L119.34 163.296
L119.34 163.296
L119.499 194.4
L119.546 180.576
L119.649 166.752
L119.679 170.208
L119.78 184.032
L119.788 177.12
L119.965 187.488
L119.971 184.032
L120.013 180.576
L120.035 184.032
L120.035 184.032
L120.062 190.944
L120.106 184.032
L120.106 184.032
L120.171 173.664
L120.2 184.032
L120.2 184.032
L120.204 187.488
L120.22 184.032
L120.22 184.032
L120.314 156.384
L120.336 163.296
L120.561 184.032
L120.61 177.12
L120.672 184.032
L120.724 173.664
L120.808 177.12
L120.825 180.576
L120.846 177.12
L120.846 177.12
L121.021 156.384
L121.024 159.84
L121.114 177.12
L121.131 163.296
L121.325 142.56
L121.425 159.84
L121.463 149.472
L121.652 132.192
L121.674 135.648
L121.78 142.56
L122.154 90.72
L122.208 101.088
L122.269 114.912
L122.318 111.456
L122.368 101.088
L122.418 111.456
L122.431 114.912
L122.435 111.456
L122.435 111.456
L122.503 73.44
L122.572 87.264
L122.715 118.368
L122.757 121.824
L122.774 118.368
L122.774 118.368
L122.897 90.72
L122.906 94.176
L122.943 87.264
L122.968 94.176
L122.968 94.176
L123.044 104.544
L123.083 97.632
L123.084 94.176
L123.09 97.632
L123.09 97.632
L123.113 111.456
L123.192 104.544
L123.249 97.632
L123.263 104.544
L123.263 104.544
L123.263 108
L123.282 104.544
L123.282 104.544
L123.308 101.088
L123.312 104.544
L123.312 104.544
L123.48 128.736
L123.542 125.28
L123.55 118.368
L123.568 125.28
L123.568 125.28
L123.601 132.192
L123.669 128.736
L123.731 114.912
L123.775 125.28
L123.786 128.736
L123.786 125.28
L123.786 125.28
L123.84 104.544
L123.916 114.912
L123.919 121.824
L123.92 114.912
L123.92 114.912
L123.978 104.544
L124.009 114.912
L124.009 114.912
L124.141 156.384
L124.183 149.472
L124.221 156.384
L124.221 156.384
L124.224 159.84
L124.224 156.384
L124.224 156.384
L124.224 152.928
L124.229 156.384
L124.229 156.384
L124.34 180.576
L124.344 177.12
L124.386 173.664
L124.418 177.12
L124.532 187.488
L124.627 177.12
L124.696 184.032
L124.828 194.4
L124.829 190.944
L124.93 173.664
L124.932 177.12
L125.126 194.4
L125.128 190.944
L125.191 170.208
L125.22 173.664
L125.483 194.4
L125.495 190.944
L125.577 170.208
L125.635 180.576
L125.652 177.12
L125.666 180.576
L125.666 180.576
L125.827 194.4
L125.845 190.944
L125.856 187.488
L125.868 190.944
L125.868 190.944
L125.925 194.4
L125.927 190.944
L125.927 190.944
L126.071 159.84
L126.077 163.296
L126.189 180.576
L126.386 152.928
L126.458 159.84
L126.52 170.208
L126.565 163.296
L126.869 125.28
L126.886 135.648
L126.906 139.104
L126.911 135.648
L126.911 135.648
L127.066 101.088
L127.067 104.544
L127.075 101.088
L127.075 101.088
L127.096 97.632
L127.099 101.088
L127.099 101.088
L127.1 104.544
L127.124 101.088
L127.124 101.088
L127.237 59.616
L127.329 80.352
L127.35 73.44
L127.392 66.528
L127.394 73.44
L127.394 73.44
L127.398 76.896
L127.405 73.44
L127.405 73.44
L127.534 56.16
L127.722 83.808
L127.743 76.896
L127.757 73.44
L127.757 76.896
L127.757 76.896
L127.758 80.352
L127.764 76.896
L127.764 76.896
L127.782 69.984
L127.83 76.896
L127.83 76.896
L127.84 80.352
L127.852 76.896
L127.852 76.896
L127.867 73.44
L127.869 76.896
L127.869 76.896
L127.955 87.264
L127.975 83.808
L128.012 80.352
L128.021 83.808
L128.021 83.808
L128.147 97.632
L128.162 90.72
L128.275 66.528
L128.344 76.896
L128.385 69.984
L128.398 76.896
L128.398 76.896
L128.41 80.352
L128.412 76.896
L128.412 76.896
L128.427 69.984
L128.445 76.896
L128.445 76.896
L128.53 97.632
L128.542 94.176
L128.704 114.912
L128.773 132.192
L128.804 118.368
L128.817 114.912
L128.822 118.368
L128.822 118.368
L128.998 135.648
L129.009 128.736
L129.046 125.28
L129.052 128.736
L129.052 128.736
L129.118 149.472
L129.151 146.016
L129.2 149.472
L129.214 146.016
L129.214 146.016
L129.319 128.736
L129.362 135.648
L129.377 139.104
L129.411 135.648
L129.411 135.648
L129.454 121.824
L129.516 132.192
L129.594 146.016
L129.625 135.648
L129.664 128.736
L129.697 135.648
L129.697 135.648
L129.708 142.56
L129.712 135.648
L129.712 135.648
L129.72 132.192
L129.745 135.648
L129.745 135.648
L129.848 149.472
L129.858 142.56
L129.879 128.736
L129.899 142.56
L129.899 142.56
L129.919 159.84
L130.026 152.928
L130.047 146.016
L130.077 152.928
L130.077 152.928
L130.188 180.576
L130.2 177.12
L130.229 156.384
L130.298 177.12
L130.298 177.12
L130.299 180.576
L130.304 177.12
L130.304 177.12
L130.327 173.664
L130.328 177.12
L130.328 177.12
L130.387 194.4
L130.432 184.032
L130.467 180.576
L130.48 184.032
L130.48 184.032
L130.511 194.4
L130.583 187.488
L130.6 194.4
L130.623 187.488
L130.623 187.488
L130.634 184.032
L130.64 187.488
L130.64 187.488
L130.649 190.944
L130.657 187.488
L130.657 187.488
L130.668 184.032
L130.681 187.488
L130.681 187.488
L130.683 190.944
L130.688 187.488
L130.688 187.488
L131.01 156.384
L131.017 159.84
L131.019 156.384
L131.019 156.384
L131.294 132.192
L131.41 146.016
L131.448 139.104
L131.456 135.648
L131.473 139.104
L131.473 139.104
L131.477 142.56
L131.491 139.104
L131.491 139.104
L131.515 135.648
L131.521 139.104
L131.521 139.104
L131.579 146.016
L131.62 139.104
L131.657 132.192
L131.68 139.104
L131.68 139.104
L131.72 146.016
L131.742 139.104
L131.742 139.104
L131.827 132.192
L131.847 135.648
L131.997 159.84
L132.162 128.736
L132.185 132.192
L132.19 135.648
L132.191 132.192
L132.191 132.192
L132.275 108
L132.323 114.912
L132.338 111.456
L132.346 114.912
L132.346 114.912
L132.365 125.28
L132.446 114.912
L132.446 114.912
L132.565 97.632
L132.576 101.088
L132.598 104.544
L132.61 101.088
L132.61 101.088
L132.71 94.176
L132.725 97.632
L132.726 101.088
L132.757 97.632
L132.757 97.632
L132.771 94.176
L132.779 97.632
L132.779 97.632
L132.842 118.368
L132.884 104.544
L132.92 108
L132.936 104.544
L132.936 104.544
L132.944 97.632
L132.951 104.544
L132.951 104.544
L132.996 111.456
L133.036 104.544
L133.036 104.544
L133.117 90.72
L133.132 94.176
L133.176 87.264
L133.182 94.176
L133.182 94.176
L133.365 132.192
L133.416 128.736
L133.429 125.28
L133.43 128.736
L133.43 128.736
L133.495 142.56
L133.497 146.016
L133.498 142.56
L133.498 142.56
L133.594 132.192
L133.622 139.104
L133.642 146.016
L133.684 139.104
L133.684 139.104
L133.685 135.648
L133.687 139.104
L133.687 139.104
L133.755 152.928
L133.771 139.104
L133.771 139.104
L133.889 125.28
L133.899 128.736
L133.935 132.192
L133.935 128.736
L133.935 128.736
L133.936 125.28
L133.953 128.736
L133.953 128.736
L134.013 139.104
L134.028 128.736
L134.137 139.104
L134.179 135.648
L134.264 125.28
L134.298 128.736
L134.303 132.192
L134.315 128.736
L134.315 128.736
L134.454 111.456
L134.68 159.84
L134.687 149.472
L134.848 139.104
L134.855 142.56
L134.896 159.84
L134.954 152.928
L135.079 142.56
L135.085 146.016
L135.111 149.472
L135.147 146.016
L135.147 146.016
L135.249 132.192
L135.256 146.016
L135.273 152.928
L135.277 146.016
L135.277 146.016
L135.279 139.104
L135.287 146.016
L135.287 146.016
L135.306 149.472
L135.317 146.016
L135.317 146.016
L135.345 142.56
L135.365 146.016
L135.365 146.016
L135.489 159.84
L135.517 156.384
L135.522 152.928
L135.534 156.384
L135.534 156.384
L135.646 173.664
L135.66 170.208
L135.666 173.664
L135.666 173.664
L135.772 180.576
L135.985 146.016
L135.986 149.472
L136.023 156.384
L136.046 149.472
L136.046 149.472
L136.058 142.56
L136.071 149.472
L136.071 149.472
L136.088 152.928
L136.094 149.472
L136.094 149.472
L136.097 146.016
L136.098 149.472
L136.098 149.472
L136.117 156.384
L136.19 152.928
L136.347 142.56
L136.494 166.752
L136.547 163.296
L136.58 159.84
L136.614 163.296
L136.614 163.296
L136.689 173.664
L136.709 163.296
L136.887 142.56
L136.888 146.016
L136.95 156.384
L136.983 149.472
L137.095 125.28
L137.137 121.824
L137.14 125.28
L137.14 125.28
L137.177 128.736
L137.181 125.28
L137.181 125.28
L137.188 121.824
L137.191 125.28
L137.191 125.28
L137.327 149.472
L137.338 146.016
L137.474 132.192
L137.575 142.56
L137.591 135.648
L137.592 132.192
L137.603 135.648
L137.603 135.648
L137.614 139.104
L137.621 135.648
L137.621 135.648
L137.856 101.088
L137.899 94.176
L137.905 101.088
L137.905 101.088
L138.007 111.456
L138.012 108
L138.16 94.176
L138.165 97.632
L138.168 94.176
L138.168 94.176
L138.194 80.352
L138.243 94.176
L138.243 94.176
L138.272 104.544
L138.305 97.632
L138.383 87.264
L138.4 76.896
L138.421 87.264
L138.421 87.264
L138.49 101.088
L138.537 97.632
L138.63 90.72
L138.641 97.632
L138.76 114.912
L138.873 108
L138.984 125.28
L139.164 108
L139.184 111.456
L139.321 128.736
L139.344 125.28
L139.353 121.824
L139.362 125.28
L139.362 125.28
L139.384 128.736
L139.384 125.28
L139.384 125.28
L139.5 118.368
L139.66 149.472
L139.707 135.648
L139.851 128.736
L139.904 125.28
L139.909 128.736
L139.939 139.104
L139.997 128.736
L139.997 128.736
L140.04 118.368
L140.056 128.736
L140.056 128.736
L140.161 152.928
L140.17 156.384
L140.177 152.928
L140.177 152.928
L140.356 118.368
L140.356 121.824
L140.516 159.84
L140.523 156.384
L140.617 135.648
L140.65 149.472
L140.651 152.928
L140.663 149.472
L140.663 149.472
L140.695 142.56
L140.709 149.472
L140.709 149.472
L140.718 152.928
L140.741 149.472
L140.741 149.472
L140.887 118.368
L140.902 125.28
L141.49 177.12
L141.762 135.648
L141.765 139.104
L141.788 135.648
L141.788 135.648
L141.888 121.824
L141.919 128.736
L141.935 121.824
L141.935 121.824
L141.953 111.456
L142.005 121.824
L142.005 121.824
L142.034 135.648
L142.073 121.824
L142.073 121.824
L142.12 114.912
L142.142 121.824
L142.404 159.84
L142.464 149.472
L142.489 142.56
L142.495 149.472
L142.495 149.472
L142.5 152.928
L142.516 149.472
L142.516 149.472
L142.631 132.192
L142.642 135.648
L142.707 149.472
L142.732 135.648
L142.752 132.192
L142.757 135.648
L142.757 135.648
L142.761 139.104
L142.768 135.648
L142.768 135.648
L142.848 118.368
L142.881 128.736
L142.912 139.104
L142.975 128.736
L143.037 111.456
L143.159 118.368
L143.264 142.56
L143.281 139.104
L143.415 132.192
L143.694 94.176
L143.695 97.632
L143.901 128.736
L143.948 121.824
L143.992 118.368
L144.036 121.824
L144.078 132.192
L144.162 125.28
L144.167 121.824
L144.177 125.28
L144.177 125.28
L144.305 142.56
L144.313 149.472
L144.325 142.56
L144.325 142.56
L144.349 135.648
L144.39 142.56
L144.39 142.56
L144.439 146.016
L144.447 142.56
L144.447 142.56
L144.529 118.368
L144.566 121.824
L144.759 142.56
L144.777 139.104
L144.79 135.648
L144.804 139.104
L144.804 139.104
L144.805 142.56
L144.81 139.104
L144.81 139.104
L144.839 132.192
L144.854 139.104
L144.854 139.104
L144.956 156.384
L145.006 149.472
L145.095 125.28
L145.157 135.648
L145.166 146.016
L145.247 139.104
L145.276 142.56
L145.277 139.104
L145.277 139.104
L145.321 132.192
L145.372 139.104
L145.372 139.104
L145.376 146.016
L145.385 139.104
L145.385 139.104
L145.423 132.192
L145.446 139.104
L145.446 139.104
L145.475 152.928
L145.553 142.56
L145.557 139.104
L145.573 142.56
L145.573 142.56
L145.583 146.016
L145.589 142.56
L145.589 142.56
L145.704 121.824
L145.705 125.28
L145.839 139.104
L146.025 156.384
L146.042 152.928
L146.055 156.384
L146.055 156.384
L146.152 166.752
L146.165 163.296
L146.409 194.4
L146.511 170.208
L146.547 180.576
L146.624 177.12
L146.63 180.576
L146.765 187.488
L146.768 184.032
L146.881 170.208
L146.94 173.664
L146.952 170.208
L146.952 170.208
L146.982 166.752
L147 170.208
L147 170.208
L147.092 173.664
L147.096 170.208
L147.228 159.84
L147.269 166.752
L147.274 159.84
L147.274 159.84
L147.407 139.104
L147.411 142.56
L147.477 156.384
L147.498 146.016
L147.523 142.56
L147.553 146.016
L147.553 146.016
L147.563 149.472
L147.569 146.016
L147.569 146.016
L147.606 135.648
L147.615 139.104
L147.704 146.016
L147.721 149.472
L147.728 146.016
L147.728 146.016
L147.73 142.56
L147.754 146.016
L147.754 146.016
L147.843 156.384
L147.872 149.472
L147.984 135.648
L147.988 139.104
L148.055 125.28
L148.098 135.648
L148.136 132.192
L148.143 135.648
L148.171 139.104
L148.189 135.648
L148.189 135.648
L148.191 128.736
L148.219 135.648
L148.219 135.648
L148.356 163.296
L148.363 159.84
L148.44 156.384
L148.448 159.84
L148.506 166.752
L148.531 163.296
L148.779 142.56
L148.813 149.472
L148.815 152.928
L148.831 149.472
L148.831 149.472
L148.857 146.016
L148.88 149.472
L148.88 149.472
L148.991 163.296
L148.996 159.84
L149.099 142.56
L149.151 146.016
L149.2 149.472
L149.201 146.016
L149.201 146.016
L149.271 139.104
L149.308 142.56
L149.481 121.824
L149.596 90.72
L149.63 101.088
L149.633 104.544
L149.641 101.088
L149.641 101.088
L149.647 97.632
L149.657 101.088
L149.657 101.088
L149.825 111.456
L149.834 108
L149.872 87.264
L149.945 94.176
L150.035 101.088
L150.05 94.176
L150.053 90.72
L150.056 94.176
L150.056 94.176
L150.101 108
L150.149 97.632
L150.238 87.264
L150.264 94.176
L150.452 111.456
L150.461 108
L150.502 111.456
L150.502 111.456
L150.604 121.824
L150.681 128.736
L150.704 125.28
L150.738 114.912
L150.771 125.28
L150.771 125.28
L150.782 132.192
L150.788 125.28
L150.788 125.28
L150.89 108
L150.894 111.456
L150.956 121.824
L150.973 111.456
L151.032 94.176
L151.096 108
L151.098 111.456
L151.1 108
L151.1 108
L151.189 94.176
L151.207 101.088
L151.234 104.544
L151.234 101.088
L151.234 101.088
L151.311 90.72
L151.377 94.176
L151.436 104.544
L151.449 94.176
L151.449 94.176
L151.489 90.72
L151.49 94.176
L151.49 94.176
L151.56 111.456
L151.607 104.544
L151.663 108
L151.671 104.544
L151.671 104.544
L151.688 97.632
L151.69 104.544
L151.69 104.544
L151.752 128.736
L151.877 125.28
L151.89 121.824
L151.891 125.28
L151.891 125.28
L152.054 166.752
L152.186 190.944
L152.231 184.032
L152.286 173.664
L152.306 184.032
L152.306 184.032
L152.376 194.4
L152.393 184.032
L152.393 184.032
L152.486 173.664
L152.502 184.032
L152.555 194.4
L152.598 184.032
L152.598 184.032
L152.611 180.576
L152.657 184.032
L152.657 184.032
L152.661 187.488
L152.662 184.032
L152.662 184.032
L152.718 170.208
L152.773 177.12
L152.782 180.576
L152.784 177.12
L152.784 177.12
L152.936 159.84
L152.999 163.296
L153.075 173.664
L153.141 166.752
L153.335 135.648
L153.345 139.104
L153.351 135.648
L153.351 135.648
L153.444 128.736
L153.46 132.192
L153.63 166.752
L153.636 163.296
L153.795 190.944
L153.807 180.576
L153.821 173.664
L153.832 180.576
L153.832 180.576
L153.871 194.4
L153.915 180.576
L153.972 177.12
L153.978 180.576
L154.02 190.944
L154.095 184.032
L154.197 166.752
L154.215 170.208
L154.243 166.752
L154.243 166.752
L154.421 132.192
L154.445 139.104
L154.48 132.192
L154.48 132.192
L154.549 121.824
L154.608 125.28
L154.71 139.104
L154.728 142.56
L154.746 139.104
L154.746 139.104
L154.9 114.912
L154.905 118.368
L154.978 128.736
L155.009 121.824
L155.05 114.912
L155.098 121.824
L155.112 128.736
L155.117 121.824
L155.117 121.824
L155.124 118.368
L155.148 121.824
L155.148 121.824
L155.33 139.104
L155.342 132.192
L155.343 128.736
L155.375 132.192
L155.375 132.192
L155.514 166.752
L155.535 149.472
L155.571 139.104
L155.631 149.472
L155.631 149.472
L155.633 152.928
L155.636 149.472
L155.636 149.472
L155.647 146.016
L155.653 149.472
L155.653 149.472
L155.69 152.928
L155.69 149.472
L155.69 149.472
L155.821 132.192
L155.874 135.648
L155.879 139.104
L155.88 135.648
L155.88 135.648
L155.996 125.28
L156.024 128.736
L156.024 132.192
L156.027 128.736
L156.027 128.736
L156.087 121.824
L156.125 125.28
L156.163 135.648
L156.264 132.192
L156.348 125.28
L156.504 139.104
L156.578 146.016
L156.587 139.104
L156.587 139.104
L156.625 135.648
L156.635 139.104
L156.635 139.104
L156.656 142.56
L156.662 139.104
L156.662 139.104
L156.682 121.824
L156.777 135.648
L156.777 139.104
L156.795 135.648
L156.795 135.648
L156.9 118.368
L156.907 121.824
L156.911 125.28
L156.975 121.824
L156.975 121.824
L157.013 97.632
L157.099 101.088
L157.132 97.632
L157.132 101.088
L157.132 101.088
L157.238 125.28
L157.255 128.736
L157.264 125.28
L157.264 125.28
L157.282 121.824
L157.291 125.28
L157.291 125.28
L157.361 128.736
L157.379 125.28
L157.399 121.824
L157.409 125.28
L157.409 125.28
L157.428 128.736
L157.444 125.28
L157.444 125.28
L157.541 118.368
L157.547 121.824
L157.617 108
L157.649 118.368
L157.709 125.28
L157.734 118.368
L157.74 114.912
L157.74 118.368
L157.74 118.368
L157.815 125.28
L157.826 118.368
L157.826 118.368
L157.859 108
L157.885 118.368
L157.885 118.368
L157.977 146.016
L157.992 142.56
L158.112 159.84
L158.178 156.384
L158.319 118.368
L158.343 125.28
L158.345 132.192
L158.351 125.28
L158.351 125.28
L158.529 104.544
L158.541 111.456
L158.609 149.472
L158.657 146.016
L158.808 128.736
L158.873 132.192
L158.882 128.736
L158.882 128.736
L158.89 121.824
L158.912 128.736
L158.912 128.736
L158.992 132.192
L158.999 128.736
L159.004 125.28
L159.011 128.736
L159.011 128.736
L159.055 132.192
L159.056 128.736
L159.056 128.736
L159.144 108
L159.197 121.824
L159.31 132.192
L159.312 128.736
L159.354 114.912
L159.421 128.736
L159.471 139.104
L159.532 132.192
L159.593 125.28
L159.612 132.192
L159.632 135.648
L159.644 132.192
L159.644 132.192
L159.664 125.28
L159.699 132.192
L159.699 132.192
L159.708 146.016
L159.789 135.648
L159.849 121.824
L159.913 132.192
L159.943 139.104
L159.962 132.192
L159.962 132.192
L159.978 125.28
L159.997 132.192
L159.997 132.192
L160.068 142.56
L160.077 132.192
L160.077 132.192
L160.132 125.28
L160.18 132.192
L160.238 118.368
L160.288 125.28
L160.325 128.736
L160.326 125.28
L160.326 125.28
L160.385 121.824
L160.387 125.28
L160.387 125.28
L160.408 128.736
L160.414 125.28
L160.414 125.28
L160.436 114.912
L160.492 125.28
L160.492 125.28
L160.515 128.736
L160.534 125.28
L160.534 125.28
L160.559 118.368
L160.576 125.28
L160.576 125.28
L160.605 135.648
L160.619 125.28
L160.619 125.28
L160.622 121.824
L160.624 125.28
L160.624 125.28
L160.771 149.472
L160.782 146.016
L160.787 142.56
L160.803 146.016
L160.803 146.016
L160.811 152.928
L160.827 146.016
L160.827 146.016
L160.957 132.192
L161.019 135.648
L161.022 132.192
L161.162 121.824
L161.286 135.648
L161.287 132.192
L161.35 128.736
L161.358 132.192
L161.358 132.192
L161.366 139.104
L161.386 132.192
L161.386 132.192
L161.419 121.824
L161.455 125.28
L161.552 132.192
L161.573 128.736
L161.593 125.28
L161.597 128.736
L161.597 128.736
L161.68 142.56
L161.702 135.648
L161.844 101.088
L161.902 114.912
L162.012 125.28
L162.02 121.824
L162.033 118.368
L162.033 121.824
L162.033 121.824
L162.141 146.016
L162.177 142.56
L162.288 139.104
L162.381 163.296
L162.412 159.84
L162.44 166.752
L162.479 159.84
L162.479 159.84
L162.489 156.384
L162.517 159.84
L162.517 159.84
L162.556 163.296
L162.556 159.84
L162.556 159.84
L162.612 142.56
L162.678 149.472
L162.689 156.384
L162.757 149.472
L162.757 149.472
L162.789 146.016
L162.81 149.472
L162.81 149.472
L162.81 152.928
L162.829 149.472
L162.829 149.472
L162.863 146.016
L162.863 149.472
L162.863 149.472
L162.885 152.928
L162.895 149.472
L162.895 149.472
L162.915 146.016
L162.931 149.472
L162.931 149.472
L163.044 156.384
L163.175 149.472
L163.187 152.928
L163.189 149.472
L163.189 149.472
L163.209 146.016
L163.215 149.472
L163.215 149.472
L163.257 166.752
L163.357 156.384
L163.414 149.472
L163.423 156.384
L163.454 166.752
L163.477 156.384
L163.477 156.384
L163.701 125.28
L163.705 132.192
L163.729 125.28
L163.729 125.28
L163.765 118.368
L163.781 125.28
L163.781 125.28
L163.834 135.648
L163.888 128.736
L163.904 125.28
L163.936 128.736
L163.936 128.736
L164.021 139.104
L164.046 128.736
L164.197 101.088
L164.2 104.544
L164.333 114.912
L164.345 111.456
L164.354 108
L164.362 111.456
L164.362 111.456
L164.384 114.912
L164.384 111.456
L164.384 111.456
L164.391 108
L164.391 111.456
L164.391 111.456
L164.403 114.912
L164.424 111.456
L164.424 111.456
L164.439 108
L164.449 111.456
L164.449 111.456
L164.591 132.192
L164.603 128.736
L164.605 132.192
L164.605 132.192
L164.686 135.648
L164.695 132.192
L164.717 128.736
L164.719 132.192
L164.719 132.192
L164.761 142.56
L164.81 132.192
L164.81 132.192
L164.831 128.736
L164.865 132.192
L164.865 132.192
L164.88 135.648
L164.912 132.192
L164.912 132.192
L164.939 125.28
L164.963 132.192
L164.963 132.192
L164.985 142.56
L165.012 132.192
L165.012 132.192
L165.155 111.456
L165.191 121.824
L165.277 118.368
L165.298 114.912
L165.308 118.368
L165.308 118.368
L165.409 135.648
L165.461 125.28
L165.52 135.648
L165.558 121.824
L165.63 135.648
L165.664 149.472
L165.744 139.104
L165.755 135.648
L165.76 139.104
L165.76 139.104
L165.814 156.384
L165.883 152.928
L165.903 156.384
L165.988 177.12
L165.997 173.664
L166.188 194.4
L166.193 190.944
L166.308 177.12
L166.332 184.032
L166.346 177.12
L166.346 177.12
L166.456 156.384
L166.633 170.208
L166.635 166.752
L166.64 163.296
L166.648 166.752
L166.648 166.752
L166.848 184.032
L166.85 180.576
L166.955 156.384
L167.037 149.472
L167.061 152.928
L167.076 149.472
L167.082 152.928
L167.082 152.928
L167.151 163.296
L167.176 152.928
L167.216 149.472
L167.227 152.928
L167.227 152.928
L167.274 166.752
L167.328 152.928
L167.337 149.472
L167.341 152.928
L167.341 152.928
L167.451 166.752
L167.459 156.384
L167.651 135.648
L167.664 139.104
L167.665 135.648
L167.665 135.648
L167.683 121.824
L167.776 135.648
L167.893 128.736
L167.99 121.824
L168.002 125.28
L168.014 128.736
L168.016 125.28
L168.016 125.28
L168.035 118.368
L168.052 125.28
L168.052 125.28
L168.171 132.192
L168.171 128.736
L168.198 132.192
L168.198 132.192
L168.242 139.104
L168.25 132.192
L168.25 132.192
L168.433 101.088
L168.546 108
L168.556 104.544
L168.566 101.088
L168.569 104.544
L168.569 104.544
L168.624 111.456
L168.642 104.544
L168.892 125.28
L168.899 128.736
L168.9 125.28
L168.9 125.28
L168.976 111.456
L169.004 114.912
L169.072 128.736
L169.12 135.648
L169.122 128.736
L169.122 128.736
L169.253 104.544
L169.283 114.912
L169.391 132.192
L169.542 114.912
L169.586 121.824
L169.725 135.648
L169.745 132.192
L169.76 135.648
L169.76 135.648
L169.768 139.104
L169.775 135.648
L169.775 135.648
L169.845 121.824
L169.889 132.192
L169.993 149.472
L170.048 146.016
L170.049 149.472
L170.049 149.472
L170.053 152.928
L170.055 149.472
L170.055 149.472
L170.081 142.56
L170.093 149.472
L170.093 149.472
L170.106 152.928
L170.121 149.472
L170.121 149.472
L170.13 146.016
L170.153 149.472
L170.153 149.472
L170.155 152.928
L170.156 149.472
L170.156 149.472
L170.249 132.192
L170.283 139.104
L170.338 152.928
L170.375 139.104
L170.375 139.104
L170.379 135.648
L170.39 139.104
L170.39 139.104
L170.44 146.016
L170.474 139.104
L170.474 139.104
L170.516 125.28
L170.587 135.648
L170.671 152.928
L170.685 146.016
L170.8 132.192
L170.806 142.56
L170.819 146.016
L170.839 142.56
L170.839 142.56
L170.916 121.824
L170.998 135.648
L171.112 184.032
L171.133 170.208
L171.168 166.752
L171.173 170.208
L171.173 170.208
L171.191 173.664
L171.196 170.208
L171.196 170.208
L171.197 166.752
L171.202 170.208
L171.202 170.208
L171.212 180.576
L171.281 177.12
L171.375 166.752
L171.431 173.664
L171.477 180.576
L171.508 173.664
L171.508 173.664
L171.585 163.296
L171.615 166.752
L171.679 187.488
L171.712 170.208
L171.788 159.84
L171.823 166.752
L171.83 170.208
L171.83 166.752
L171.83 166.752
L171.924 156.384
L171.943 159.84
L172.047 166.752
L172.152 177.12
L172.155 173.664
L172.203 166.752
L172.254 170.208
L172.303 177.12
L172.332 170.208
L172.332 170.208
L172.342 163.296
L172.374 170.208
L172.374 170.208
L172.398 177.12
L172.467 170.208
L172.467 170.208
L172.613 142.56
L172.689 146.016
L172.698 142.56
L172.698 142.56
L172.759 128.736
L172.811 139.104
L172.941 128.736
L172.964 135.648
L172.975 139.104
L172.981 135.648
L172.981 135.648
L172.983 132.192
L172.997 135.648
L172.997 135.648
L173.065 149.472
L173.111 146.016
L173.132 156.384
L173.144 146.016
L173.144 146.016
L173.271 125.28
L173.283 128.736
L173.284 132.192
L173.288 128.736
L173.288 128.736
L173.323 125.28
L173.355 128.736
L173.355 128.736
L173.363 132.192
L173.403 128.736
L173.403 128.736
L173.557 104.544
L173.562 108
L173.568 104.544
L173.568 104.544
L173.574 101.088
L173.586 104.544
L173.586 104.544
L173.59 108
L173.59 104.544
L173.59 104.544
L173.658 87.264
L173.702 101.088
L173.776 104.544
L173.789 101.088
L173.789 101.088
L173.797 97.632
L173.798 101.088
L173.798 101.088
L173.815 104.544
L173.837 101.088
L173.837 101.088
L173.869 87.264
L173.904 101.088
L173.904 101.088
L173.929 118.368
L174.017 111.456
L174.033 108
L174.052 111.456
L174.052 111.456
L174.172 125.28
L174.175 121.824
L174.323 101.088
L174.551 121.824
L174.556 118.368
L174.667 104.544
L174.686 108
L174.816 128.736
L174.842 135.648
L174.88 128.736
L174.88 128.736
L174.918 125.28
L174.923 128.736
L174.923 128.736
L174.928 132.192
L174.928 128.736
L174.928 128.736
L175.001 121.824
L175.042 125.28
L175.179 142.56
L175.186 139.104
L175.209 142.56
L175.209 142.56
L175.226 146.016
L175.245 142.56
L175.245 142.56
L175.358 128.736
L175.358 132.192
L175.449 142.56
L175.459 135.648
L175.499 118.368
L175.585 132.192
L175.604 135.648
L175.614 132.192
L175.614 132.192
L175.754 108
L175.955 152.928
L175.986 146.016
L176.036 135.648
L176.096 142.56
L176.114 146.016
L176.121 142.56
L176.121 142.56
L176.266 118.368
L176.279 121.824
L176.309 114.912
L176.369 121.824
L176.481 146.016
L176.528 139.104
L176.538 135.648
L176.575 139.104
L176.575 139.104
L176.595 142.56
L176.606 139.104
L176.606 139.104
L176.703 128.736
L176.711 139.104
L176.722 135.648
L176.725 139.104
L176.725 139.104
L176.842 156.384
L177.006 132.192
L177.043 146.016
L177.151 163.296
L177.509 121.824
L177.724 146.016
L177.741 139.104
L177.753 125.28
L177.788 139.104
L177.788 139.104
L177.892 156.384
L177.906 152.928
L177.937 149.472
L177.948 152.928
L177.948 152.928
L177.952 156.384
L177.98 152.928
L177.98 152.928
L178.037 139.104
L178.077 146.016
L178.175 159.84
L178.194 149.472
L178.244 146.016
L178.253 149.472
L178.253 149.472
L178.282 159.84
L178.356 152.928
L178.378 149.472
L178.378 152.928
L178.378 152.928
L178.403 156.384
L178.416 152.928
L178.416 152.928
L178.468 139.104
L178.527 152.928
L178.534 149.472
L178.544 152.928
L178.544 152.928
L178.67 166.752
L178.687 163.296
L179.009 128.736
L179.012 132.192
L179.103 152.928
L179.152 146.016
L179.277 121.824
L179.335 135.648
L179.376 121.824
L179.408 111.456
L179.432 121.824
L179.432 121.824
L179.509 142.56
L179.563 139.104
L179.65 132.192
L179.672 139.104
L179.735 149.472
L179.768 139.104
L179.844 128.736
L179.873 139.104
L179.956 152.928
L180.016 149.472
L180.064 142.56
L180.081 149.472
L180.081 149.472
L180.113 152.928
L180.146 149.472
L180.146 149.472
L180.178 142.56
L180.185 149.472
L180.185 149.472
L180.208 152.928
L180.225 149.472
L180.225 149.472
L180.325 139.104
L180.332 142.56
L180.337 146.016
L180.338 142.56
L180.338 142.56
L180.494 121.824
L180.613 135.648
L180.631 132.192
L180.683 139.104
L180.69 132.192
L180.69 132.192
L180.71 128.736
L180.726 132.192
L180.726 132.192
L180.792 139.104
L180.796 132.192
L180.796 132.192
L180.805 128.736
L180.811 132.192
L180.811 132.192
L180.836 142.56
L180.902 132.192
L180.918 128.736
L180.944 132.192
L180.944 132.192
L180.949 139.104
L180.952 132.192
L180.952 132.192
L180.985 128.736
L180.989 132.192
L180.989 132.192
L181.096 139.104
L181.177 128.736
L181.225 132.192
L181.245 135.648
L181.252 132.192
L181.252 132.192
L181.298 128.736
L181.302 132.192
L181.302 132.192
L181.332 142.56
L181.358 132.192
L181.358 132.192
L181.375 125.28
L181.395 132.192
L181.395 132.192
L181.411 135.648
L181.463 132.192
L181.463 132.192
L181.472 125.28
L181.494 132.192
L181.494 132.192
L181.496 135.648
L181.496 132.192
L181.496 132.192
L181.502 125.28
L181.526 132.192
L181.526 132.192
L181.618 139.104
L181.62 135.648
L181.658 139.104
L181.684 135.648
L181.684 135.648
L181.71 118.368
L181.802 128.736
L181.949 149.472
L181.994 142.56
L182.001 135.648
L182.095 142.56
L182.258 121.824
L182.275 128.736
L182.31 132.192
L182.319 128.736
L182.319 128.736
L182.416 111.456
L182.433 121.824
L182.518 142.56
L182.582 135.648
L182.729 108
L182.734 111.456
L182.735 118.368
L182.748 111.456
L182.748 111.456
L182.753 108
L182.754 111.456
L182.754 111.456
L182.829 118.368
L182.859 111.456
L182.909 118.368
L182.947 111.456
L182.986 108
L182.994 111.456
L182.994 111.456
L182.997 114.912
L183.001 111.456
L183.001 111.456
L183.041 108
L183.061 111.456
L183.061 111.456
L183.124 118.368
L183.164 111.456
L183.164 111.456
L183.185 104.544
L183.197 111.456
L183.197 111.456
L183.252 114.912
L183.259 111.456
L183.259 111.456
L183.327 104.544
L183.359 111.456
L183.38 118.368
L183.428 111.456
L183.428 111.456
L183.441 108
L183.459 111.456
L183.459 111.456
L183.715 156.384
L183.718 149.472
L183.772 142.56
L183.808 149.472
L183.822 152.928
L183.85 149.472
L183.85 149.472
L183.858 135.648
L183.918 149.472
L183.918 149.472
L184.007 166.752
L184.051 159.84
L184.086 163.296
L184.182 156.384
L184.206 152.928
L184.21 156.384
L184.21 156.384
L184.248 159.84
L184.25 156.384
L184.25 156.384
L184.278 149.472
L184.289 156.384
L184.289 156.384
L184.291 159.84
L184.292 156.384
L184.292 156.384
L184.318 146.016
L184.406 149.472
L184.517 163.296
L184.535 156.384
L184.55 152.928
L184.56 156.384
L184.56 156.384
L184.666 177.12
L184.671 173.664
L184.745 184.032
L184.781 177.12
L184.958 135.648
L184.961 139.104
L184.97 142.56
L184.98 139.104
L184.98 139.104
L185.005 132.192
L185.053 139.104
L185.053 139.104
L185.057 142.56
L185.059 139.104
L185.059 139.104
L185.109 135.648
L185.116 139.104
L185.116 139.104
L185.129 142.56
L185.134 139.104
L185.134 139.104
L185.137 135.648
L185.159 139.104
L185.159 139.104
L185.16 142.56
L185.161 139.104
L185.161 139.104
L185.24 128.736
L185.255 135.648
L185.286 139.104
L185.292 135.648
L185.292 135.648
L185.293 132.192
L185.311 135.648
L185.311 135.648
L185.35 156.384
L185.431 149.472
L185.567 128.736
L185.72 152.928
L185.771 159.84
L185.79 152.928
L185.925 142.56
L185.933 146.016
L186.057 166.752
L186.148 170.208
L186.315 149.472
L186.422 125.28
L186.545 108
L186.578 111.456
L186.702 156.384
L186.718 152.928
L186.732 159.84
L186.748 152.928
L186.748 152.928
L186.849 135.648
L186.853 139.104
L186.861 142.56
L186.872 139.104
L186.872 139.104
L186.945 128.736
L186.985 135.648
L187.029 139.104
L187.037 135.648
L187.037 135.648
L187.043 132.192
L187.061 135.648
L187.061 135.648
L187.071 139.104
L187.082 135.648
L187.082 135.648
L187.105 132.192
L187.153 135.648
L187.153 135.648
L187.157 139.104
L187.174 135.648
L187.174 135.648
L187.298 125.28
L187.33 128.736
L187.33 125.28
L187.33 125.28
L187.378 114.912
L187.392 118.368
L187.48 125.28
L187.493 121.824
L187.609 97.632
L187.689 108
L187.769 114.912
L187.793 108
L187.815 97.632
L187.891 104.544
L187.955 118.368
L187.973 104.544
L187.99 101.088
L187.992 104.544
L187.992 104.544
L188.003 114.912
L188.005 104.544
L188.005 104.544
L188.071 101.088
L188.085 104.544
L188.203 114.912
L188.208 111.456
L188.24 108
L188.247 111.456
L188.247 111.456
L188.341 135.648
L188.362 125.28
L188.366 128.736
L188.382 125.28
L188.382 125.28
L188.456 118.368
L188.485 125.28
L188.712 149.472
L188.736 142.56
L188.762 139.104
L188.765 142.56
L188.765 142.56
L188.775 146.016
L188.797 142.56
L188.797 142.56
L188.8 139.104
L188.801 142.56
L188.801 142.56
L188.88 146.016
L188.885 142.56
L188.927 139.104
L188.933 142.56
L188.933 142.56
L189.059 180.576
L189.06 177.12
L189.198 149.472
L189.229 159.84
L189.281 149.472
L189.316 159.84
L189.317 163.296
L189.319 159.84
L189.319 159.84
L189.446 128.736
L189.488 135.648
L189.609 166.752
L189.669 170.208
L189.67 166.752
L189.67 166.752
L189.722 152.928
L189.769 156.384
L189.843 166.752
L189.893 159.84
L189.909 152.928
L189.935 159.84
L189.935 159.84
L189.981 163.296
L189.985 159.84
L189.985 159.84
L190.042 149.472
L190.086 156.384
L190.119 149.472
L190.185 156.384
L190.185 159.84
L190.189 156.384
L190.189 156.384
L190.241 146.016
L190.267 156.384
L190.267 156.384
L190.271 159.84
L190.297 156.384
L190.297 156.384
L190.321 142.56
L190.386 156.384
L190.386 156.384
L190.395 163.296
L190.423 156.384
L190.423 156.384
L190.447 152.928
L190.448 156.384
L190.448 156.384
L190.451 159.84
L190.459 156.384
L190.459 156.384
L190.466 152.928
L190.499 156.384
L190.499 156.384
L190.553 159.84
L190.58 156.384
L190.58 156.384
L190.684 142.56
L190.695 146.016
L190.763 156.384
L190.8 146.016
L190.859 139.104
L190.9 142.56
L190.948 128.736
L191.018 118.368
L191.034 128.736
L191.034 128.736
L191.035 132.192
L191.038 128.736
L191.038 128.736
L191.048 125.28
L191.055 128.736
L191.055 128.736
L191.069 132.192
L191.088 128.736
L191.088 128.736
L191.203 114.912
L191.258 108
L191.297 111.456
L191.384 118.368
L191.398 111.456
L191.418 108
L191.438 111.456
L191.438 111.456
L191.523 135.648
L191.539 132.192
L191.579 128.736
L191.593 132.192
L191.692 142.56
L191.737 139.104
L191.775 132.192
L191.797 139.104
L191.797 139.104
L191.798 142.56
L191.8 139.104
L191.8 139.104
L191.847 132.192
L191.903 139.104
L191.986 118.368
L192.079 94.176
L192.086 101.088
L192.129 104.544
L192.16 101.088
L192.234 76.896
L192.278 87.264
L192.291 101.088
L192.376 97.632
L192.666 49.248
L192.685 59.616
L192.761 90.72
L192.792 83.808
L192.853 97.632
L192.941 90.72
L192.976 83.808
L192.998 90.72
L192.998 90.72
L193.125 101.088
L193.127 97.632
L193.135 90.72
L193.143 97.632
L193.143 97.632
L193.16 104.544
L193.182 97.632
L193.182 97.632
L193.19 94.176
L193.201 97.632
L193.201 97.632
L193.344 132.192
L193.366 125.28
L193.377 121.824
L193.377 125.28
L193.377 125.28
L193.474 142.56
L193.49 135.648
L193.571 128.736
L193.583 135.648
L193.651 139.104
L193.653 135.648
L193.763 121.824
L193.855 104.544
L193.947 111.456
L193.97 118.368
L193.971 111.456
L193.971 111.456
L194.056 101.088
L194.091 108
L194.182 114.912
L194.189 108
L194.19 104.544
L194.19 108
L194.19 108
L194.351 139.104
L194.379 135.648
L194.379 139.104
L194.379 139.104
L194.387 142.56
L194.387 142.56" style="fill:none;stroke:#0000ff;stroke-linecap:square;"/>
   </g>
   <g id="matplotlib.axis_1">
    <g id="text_1">
     <!-- $t$ -->
     <defs>
      <path d="
M1.79688 38.5938
L10.2031 38.5938
L10.2031 11.7031
C10.2031 0.703125 15.0938 -1.09375 18.4062 -1.09375
C22.9062 -1.09375 28 -0.09375 33.2031 2.70312
L31.5938 8.59375
C30.2031 7.59375 27.0938 5.29688 22.7969 5.29688
C17.5938 5.29688 17.4062 11.2031 17.4062 14
L17.4062 38.5938
L31.5 38.5938
L31.5 44.5
L17.4062 44.5
L17.4062 57.0938
L10.4062 57.0938
L10.4062 44.5
L1.79688 44.5
z
" id="CMUSansSerif-74"/>
     </defs>
     <g transform="translate(108.48 208.064375)scale(0.12 -0.12)">
      <use transform="translate(0.0 0.90625)" xlink:href="#CMUSansSerif-74"/>
     </g>
    </g>
   </g>
   <g id="matplotlib.axis_2">
    <g id="text_2">
     <!-- $n(t)$ -->
     <defs>
      <path d="
M8 0
L15.7969 0
L15.7969 24
C15.7969 31.4062 18.2969 39.4062 26 39.4062
C35.7969 39.4062 35.7969 31.9062 35.7969 28.0938
L35.7969 0
L43.5938 0
L43.5938 28.7969
C43.5938 35.7969 42.7031 45.5 29.9062 45.5
C21.0938 45.5 16.7031 39.7969 15.2969 38
L15.2969 45
L8 45
z
" id="CMUSansSerif-6e"/>
      <path d="
M5.5 -25
L11.5938 -25
C18.4062 -18.9062 30.7969 -5.09375 30.7969 25.0938
C30.7969 55 18.4062 68.9062 11.5938 75
L5.5 75
C10.2031 70 23 57.7031 23 25
C23 -6.40625 11.5 -18.5938 5.5 -25" id="CMUSansSerif-29"/>
      <path d="
M8 25
C8 -5.40625 20.7031 -19.2031 27.0938 -25
L33.2969 -25
L30.0938 -21.5938
C18.4062 -8.09375 15.7969 10.2969 15.7969 25
C15.7969 38.7031 18.0938 52.9062 25.2031 64.7969
C28.0938 69.7031 30.4062 71.9062 33.2969 75
L27.0938 75
C20.2969 68.9062 8 55.0938 8 25" id="CMUSansSerif-28"/>
     </defs>
     <g transform="translate(19.0 117.96)rotate(-90.0)scale(0.12 -0.12)">
      <use xlink:href="#CMUSansSerif-6e"/>
      <use transform="translate(51.69999694824219 0.0)" xlink:href="#CMUSansSerif-28"/>
      <use transform="translate(90.59999084472656 0.0)" xlink:href="#CMUSansSerif-74"/>
      <use transform="translate(126.69998168945312 0.0)" xlink:href="#CMUSansSerif-29"/>
     </g>
    </g>
   </g>
   <g id="patch_3">
    <path d="
M194.4 194.4
L194.4 21.6" style="fill:none;stroke:#000000;"/>
   </g>
   <g id="patch_4">
    <path d="
M27 21.6
L194.4 21.6" style="fill:none;stroke:#000000;"/>
   </g>
   <g id="patch_5">
    <path d="
M27 194.4
L27 21.6" style="fill:none;stroke:#000000;"/>
   </g>
   <g id="patch_6">
    <path d="
M27 194.4
L194.4 194.4" style="fill:none;stroke:#000000;"/>
   </g>
  </g>
 </g>
 <defs>
  <clipPath id="p4c72f1c596">
   <rect height="172.8" width="167.4" x="27.0" y="21.6"/>
  </clipPath>
 </defs>
</svg>
