<?xml version="1.0" encoding="utf-8" standalone="no"?>
<!DOCTYPE svg PUBLIC "-//W3C//DTD SVG 1.1//EN"
  "http://www.w3.org/Graphics/SVG/1.1/DTD/svg11.dtd">
<!-- Created with matplotlib (http://matplotlib.org/) -->
<svg height="216pt" version="1.1" viewBox="0 0 216 216" width="216pt" xmlns="http://www.w3.org/2000/svg" xmlns:xlink="http://www.w3.org/1999/xlink">
 <defs>
  <style type="text/css">
*{stroke-linecap:butt;stroke-linejoin:round;}
  </style>
 </defs>
 <g id="figure_1">
  <g id="patch_1">
   <path d="
M0 216
L216 216
L216 0
L0 0
z
" style="fill:#ffffff;"/>
  </g>
  <g id="axes_1">
   <g id="patch_2">
    <path d="
M27 194.4
L194.4 194.4
L194.4 21.6
L27 21.6
z
" style="fill:#ffffff;"/>
   </g>
   <g id="line2d_1">
    <path clip-path="url(#p4c72f1c596)" d="
M27 194.4
L27.1232 188.64
L27.134 191.52
L27.1362 188.64
L27.1362 188.64
L27.4515 125.28
L27.4672 128.16
L27.567 139.68
L27.6447 145.44
L27.6773 142.56
L27.8315 119.52
L27.8368 122.4
L27.9539 142.56
L27.9591 145.44
L27.9717 142.56
L27.9717 142.56
L28.0018 139.68
L28.0212 142.56
L28.0212 142.56
L28.0245 145.44
L28.0259 142.56
L28.0259 142.56
L28.1467 133.92
L28.2677 125.28
L28.3038 128.16
L28.3783 119.52
L28.5583 105.12
L28.5674 110.88
L28.5896 105.12
L28.5896 105.12
L28.5908 102.24
L28.6063 105.12
L28.6063 105.12
L28.6815 108
L28.6881 105.12
L28.6881 105.12
L28.7865 87.84
L28.8304 96.48
L28.8471 99.36
L28.8536 96.48
L28.8536 96.48
L28.8671 90.72
L28.9472 96.48
L28.9677 99.36
L28.9679 96.48
L28.9679 96.48
L28.9748 93.6
L28.9929 96.48
L28.9929 96.48
L29.0673 99.36
L29.0739 96.48
L29.1723 102.24
L29.1854 108
L29.205 102.24
L29.205 102.24
L29.3134 82.08
L29.4218 64.8
L29.4596 67.68
L29.4816 73.44
L29.5024 67.68
L29.5024 67.68
L29.6648 47.52
L29.6654 50.4
L29.7235 59.04
L29.7844 53.28
L29.8213 50.4
L29.8246 53.28
L29.8246 53.28
L29.943 76.32
L29.9749 70.56
L30.1176 79.2
L30.1219 76.32
L30.1228 73.44
L30.1262 76.32
L30.1262 76.32
L30.1672 79.2
L30.168 76.32
L30.168 76.32
L30.2345 64.8
L30.264 73.44
L30.2846 76.32
L30.2914 73.44
L30.2914 73.44
L30.3547 59.04
L30.4035 67.68
L30.5833 84.96
L30.6481 76.32
L30.6748 84.96
L30.6748 84.96
L30.675 87.84
L30.686 84.96
L30.686 84.96
L30.7001 79.2
L30.7067 84.96
L30.7067 84.96
L30.8145 99.36
L30.8415 96.48
L30.8664 90.72
L30.8811 96.48
L30.8811 96.48
L30.8875 99.36
L30.9094 96.48
L30.9094 96.48
L30.9295 87.84
L30.9422 96.48
L30.9422 96.48
L30.9742 102.24
L30.9775 96.48
L30.9775 96.48
L30.986 93.6
L30.9907 96.48
L30.9907 96.48
L31.0297 102.24
L31.0404 96.48
L31.0404 96.48
L31.1103 79.2
L31.1365 82.08
L31.1562 79.2
L31.161 82.08
L31.161 82.08
L31.1963 84.96
L31.1988 82.08
L31.1988 82.08
L31.2308 73.44
L31.2694 76.32
L31.3628 82.08
L31.3696 79.2
L31.5277 56.16
L31.5836 67.68
L31.6706 87.84
L31.6953 82.08
L31.7118 79.2
L31.7197 82.08
L31.7197 82.08
L31.7493 93.6
L31.8024 82.08
L31.8024 82.08
L31.8189 76.32
L31.835 82.08
L31.835 82.08
L31.9185 90.72
L31.9448 82.08
L31.9525 79.2
L31.9642 82.08
L31.9642 82.08
L31.9793 84.96
L32.0056 82.08
L32.0056 82.08
L32.066 70.56
L32.0972 82.08
L32.1187 84.96
L32.1585 82.08
L32.1585 82.08
L32.2636 70.56
L32.2639 73.44
L32.2784 76.32
L32.2797 73.44
L32.2797 73.44
L32.3261 64.8
L32.3784 73.44
L32.5465 90.72
L32.5808 82.08
L32.6063 90.72
L32.6063 90.72
L32.6822 105.12
L32.7241 93.6
L32.7858 87.84
L32.7929 93.6
L32.8187 99.36
L32.8272 93.6
L32.8272 93.6
L32.9301 73.44
L32.9383 76.32
L33.0606 64.8
L33.0655 67.68
L33.1549 73.44
L33.1766 67.68
L33.2821 56.16
L33.2832 67.68
L33.3179 61.92
L33.339 67.68
L33.339 67.68
L33.3481 70.56
L33.3738 67.68
L33.3738 67.68
L33.3772 64.8
L33.3789 67.68
L33.3789 67.68
L33.4124 73.44
L33.4127 67.68
L33.4127 67.68
L33.4147 64.8
L33.4163 67.68
L33.4163 67.68
L33.6048 90.72
L33.6061 87.84
L33.6732 82.08
L33.7043 84.96
L33.8192 90.72
L33.825 87.84
L33.8311 84.96
L33.8376 87.84
L33.8376 87.84
L33.8489 90.72
L33.8563 87.84
L33.8563 87.84
L34.0252 70.56
L34.0419 76.32
L34.1838 96.48
L34.3462 82.08
L34.4351 87.84
L34.4691 84.96
L34.489 87.84
L34.489 87.84
L34.5924 93.6
L34.6276 87.84
L34.6479 93.6
L34.6479 93.6
L34.689 102.24
L34.7165 93.6
L34.7165 93.6
L34.7457 90.72
L34.75 93.6
L34.75 93.6
L34.7968 105.12
L34.8656 102.24
L34.919 84.96
L34.9756 102.24
L35.008 105.12
L35.0375 102.24
L35.1393 96.48
L35.1399 99.36
L35.2852 113.76
L35.3925 108
L35.3928 105.12
L35.4066 108
L35.4066 108
L35.4332 110.88
L35.4346 108
L35.4346 108
L35.4364 105.12
L35.4455 108
L35.4455 108
L35.4602 116.64
L35.52 108
L35.52 108
L35.5565 99.36
L35.573 108
L35.573 108
L35.5906 110.88
L35.6195 108
L35.6195 108
L35.6465 105.12
L35.6709 108
L35.6709 108
L35.6872 116.64
L35.7107 108
L35.7107 108
L35.7224 105.12
L35.7244 108
L35.7244 108
L35.7831 125.28
L35.8345 119.52
L35.9211 108
L35.9253 110.88
L36.1032 102.24
L36.1205 105.12
L36.1925 110.88
L36.228 105.12
L36.2321 102.24
L36.2412 105.12
L36.2412 105.12
L36.3357 110.88
L36.3429 108
L36.4807 113.76
L36.5949 93.6
L36.6275 96.48
L36.7449 110.88
L36.7716 108
L36.7904 105.12
L36.864 108
L36.9815 128.16
L37.0932 133.92
L37.133 139.68
L37.157 133.92
L37.2455 128.16
L37.2821 125.28
L37.2864 128.16
L37.2864 128.16
L37.3049 131.04
L37.3203 128.16
L37.3203 128.16
L37.3817 125.28
L37.3861 128.16
L37.3861 128.16
L37.4087 133.92
L37.4508 128.16
L37.4508 128.16
L37.5147 116.64
L37.5655 122.4
L37.678 128.16
L37.6912 125.28
L37.9635 96.48
L37.9894 99.36
L38.044 105.12
L38.0964 102.24
L38.1028 99.36
L38.1036 102.24
L38.1036 102.24
L38.1179 105.12
L38.1213 102.24
L38.1213 102.24
L38.2191 87.84
L38.2423 90.72
L38.247 93.6
L38.2487 90.72
L38.2487 90.72
L38.2707 79.2
L38.3124 90.72
L38.3124 90.72
L38.3141 93.6
L38.3391 90.72
L38.3391 90.72
L38.3641 82.08
L38.3873 90.72
L38.3873 90.72
L38.4637 105.12
L38.5106 99.36
L38.6087 90.72
L38.6141 93.6
L38.6558 87.84
L38.673 93.6
L38.673 93.6
L38.7878 105.12
L38.8029 102.24
L38.8033 105.12
L38.8033 105.12
L38.807 108
L38.8182 105.12
L38.8182 105.12
L38.9603 90.72
L39.0147 93.6
L39.0206 90.72
L39.0206 90.72
L39.1077 82.08
L39.1281 87.84
L39.244 102.24
L39.2589 96.48
L39.2765 93.6
L39.3101 96.48
L39.3101 96.48
L39.3137 99.36
L39.3398 96.48
L39.3398 96.48
L39.3605 93.6
L39.3647 96.48
L39.3647 96.48
L39.4467 108
L39.5026 102.24
L39.5271 99.36
L39.5361 102.24
L39.5361 102.24
L39.5986 110.88
L39.626 102.24
L39.7052 93.6
L39.7108 96.48
L39.773 102.24
L39.7889 96.48
L39.7891 93.6
L39.7904 96.48
L39.7904 96.48
L39.9315 113.76
L39.936 108
L39.9735 110.88
L39.9764 108
L39.9764 108
L40.0647 96.48
L40.0844 108
L40.206 113.76
L40.2336 110.88
L40.2451 113.76
L40.2451 113.76
L40.2485 116.64
L40.2537 113.76
L40.2537 113.76
L40.2541 110.88
L40.2655 113.76
L40.2655 113.76
L40.3884 133.92
L40.3894 131.04
L40.4306 128.16
L40.4397 131.04
L40.4397 131.04
L40.5067 136.8
L40.5324 131.04
L40.5438 125.28
L40.5848 131.04
L40.5848 131.04
L40.6076 136.8
L40.6196 131.04
L40.6196 131.04
L40.7455 110.88
L40.7617 113.76
L40.7651 116.64
L40.7678 113.76
L40.7678 113.76
L41.1087 73.44
L41.1159 67.68
L41.137 73.44
L41.137 73.44
L41.2632 82.08
L41.3059 76.32
L41.3531 82.08
L41.3578 87.84
L41.3804 82.08
L41.3804 82.08
L41.3894 79.2
L41.3904 82.08
L41.3904 82.08
L41.4584 87.84
L41.4657 84.96
L41.5454 82.08
L41.5753 84.96
L41.6569 90.72
L41.9451 61.92
L41.9948 67.68
L42.0261 73.44
L42.0368 67.68
L42.0368 67.68
L42.144 53.28
L42.1537 61.92
L42.2482 67.68
L42.2633 61.92
L42.2882 56.16
L42.3057 61.92
L42.3057 61.92
L42.3856 70.56
L42.4443 67.68
L42.619 44.64
L42.6244 47.52
L42.69 53.28
L42.7315 50.4
L42.7904 61.92
L42.8389 53.28
L42.9099 33.12
L42.9611 47.52
L43.0533 67.68
L43.0747 56.16
L43.0814 53.28
L43.0815 56.16
L43.0815 56.16
L43.091 61.92
L43.0957 56.16
L43.0957 56.16
L43.113 50.4
L43.1423 56.16
L43.1423 56.16
L43.1664 61.92
L43.1957 56.16
L43.1957 56.16
L43.1963 53.28
L43.1982 56.16
L43.1982 56.16
L43.3893 79.2
L43.4889 90.72
L43.5158 82.08
L43.5673 79.2
L43.5754 82.08
L43.5754 82.08
L43.5881 84.96
L43.6105 82.08
L43.6105 82.08
L43.6502 76.32
L43.6583 82.08
L43.6583 82.08
L43.7589 96.48
L43.9748 82.08
L43.9778 84.96
L44.0018 87.84
L44.0065 84.96
L44.0065 84.96
L44.051 82.08
L44.0581 84.96
L44.0581 84.96
L44.1423 93.6
L44.1673 90.72
L44.3192 67.68
L44.345 70.56
L44.3495 67.68
L44.3495 67.68
L44.3577 64.8
L44.3624 67.68
L44.3624 67.68
L44.4578 90.72
L44.4947 84.96
L44.5282 87.84
L44.5364 84.96
L44.5364 84.96
L44.5646 82.08
L44.5692 84.96
L44.5692 84.96
L44.6244 99.36
L44.6838 93.6
L44.7495 99.36
L44.7741 93.6
L44.8449 87.84
L44.8506 93.6
L44.8506 93.6
L44.9229 102.24
L45.1041 87.84
L45.1617 93.6
L45.2318 102.24
L45.2484 93.6
L45.2603 90.72
L45.2663 93.6
L45.2663 93.6
L45.2672 96.48
L45.2757 93.6
L45.2757 93.6
L45.2858 90.72
L45.2947 93.6
L45.2947 93.6
L45.5572 122.4
L45.6761 102.24
L45.7393 108
L45.7441 113.76
L45.7552 108
L45.7552 108
L45.8512 90.72
L45.8732 93.6
L45.9227 90.72
L45.9227 90.72
L45.9247 87.84
L45.9253 90.72
L45.9253 90.72
L45.9827 102.24
L46.0292 93.6
L46.0774 90.72
L46.0967 93.6
L46.1306 96.48
L46.1367 93.6
L46.1367 93.6
L46.1372 90.72
L46.1568 93.6
L46.1568 93.6
L46.288 105.12
L46.2949 102.24
L46.3086 93.6
L46.383 102.24
L46.4698 96.48
L46.4905 99.36
L46.6231 116.64
L46.691 110.88
L46.7805 102.24
L46.8073 108
L46.8611 113.76
L46.9177 110.88
L46.9287 105.12
L46.9426 110.88
L46.9426 110.88
L47.023 119.52
L47.0547 116.64
L47.0638 119.52
L47.0647 116.64
L47.0647 116.64
L47.1312 102.24
L47.1726 110.88
L47.3069 119.52
L47.4246 105.12
L47.4291 108
L47.5322 93.6
L47.5581 102.24
L47.6147 108
L47.6193 102.24
L47.6193 102.24
L47.6242 99.36
L47.6376 102.24
L47.6376 102.24
L47.739 108
L47.7523 110.88
L47.7539 108
L47.7539 108
L47.8157 96.48
L47.8597 99.36
L47.8675 102.24
L47.8714 99.36
L47.8714 99.36
L47.8788 96.48
L47.9151 99.36
L47.9151 99.36
L47.9198 102.24
L47.9296 99.36
L47.9296 99.36
L47.9365 96.48
L47.9609 99.36
L47.9609 99.36
L48.0405 113.76
L48.0803 108
L48.1142 99.36
L48.183 108
L48.1953 110.88
L48.2264 108
L48.2264 108
L48.2309 105.12
L48.235 108
L48.235 108
L48.2595 110.88
L48.2638 108
L48.2638 108
L48.3243 105.12
L48.3251 108
L48.3251 108
L48.519 128.16
L48.5313 122.4
L48.6749 108
L48.6986 113.76
L48.7109 119.52
L48.753 113.76
L48.753 113.76
L48.7654 110.88
L48.7975 113.76
L48.7975 113.76
L48.799 116.64
L48.8026 113.76
L48.8026 113.76
L48.9243 93.6
L49.208 53.28
L49.2304 67.68
L49.3166 84.96
L49.3455 79.2
L49.5377 99.36
L49.6207 87.84
L49.6344 96.48
L49.6626 93.6
L49.6876 96.48
L49.6876 96.48
L49.714 102.24
L49.7286 96.48
L49.7286 96.48
L49.8342 61.92
L49.8964 70.56
L49.9747 79.2
L50.0065 70.56
L50.0078 67.68
L50.0322 70.56
L50.0322 70.56
L50.0404 73.44
L50.0451 70.56
L50.0451 70.56
L50.0802 61.92
L50.0852 70.56
L50.0852 70.56
L50.2082 84.96
L50.2577 73.44
L50.2974 84.96
L50.2974 84.96
L50.4116 90.72
L50.4665 105.12
L50.5004 96.48
L50.5687 90.72
L50.616 93.6
L50.6523 96.48
L50.6834 93.6
L50.6834 93.6
L50.6877 90.72
L50.6904 93.6
L50.6904 93.6
L50.7072 99.36
L50.7505 93.6
L50.7505 93.6
L51.0314 67.68
L51.0341 70.56
L51.0753 73.44
L51.0992 70.56
L51.0992 70.56
L51.2019 59.04
L51.2067 61.92
L51.2393 73.44
L51.3146 61.92
L51.3244 56.16
L51.3709 61.92
L51.3709 61.92
L51.511 84.96
L51.5756 82.08
L51.8305 99.36
L51.8662 93.6
L51.9927 82.08
L51.9979 84.96
L51.999 82.08
L51.999 82.08
L52.0583 70.56
L52.0849 79.2
L52.232 99.36
L52.3208 90.72
L52.3595 87.84
L52.3622 90.72
L52.3622 90.72
L52.3814 99.36
L52.4342 90.72
L52.4342 90.72
L52.4556 82.08
L52.5385 90.72
L52.5833 96.48
L52.6455 90.72
L52.7229 79.2
L52.7771 84.96
L52.8837 105.12
L52.8926 102.24
L52.9781 96.48
L53.0033 99.36
L53.0291 105.12
L53.0824 99.36
L53.0824 99.36
L53.1166 93.6
L53.1347 99.36
L53.1347 99.36
L53.1495 108
L53.218 99.36
L53.218 99.36
L53.3395 90.72
L53.4267 102.24
L53.4407 96.48
L53.5267 87.84
L53.571 93.6
L53.572 96.48
L53.5754 93.6
L53.5754 93.6
L53.6175 87.84
L53.6484 93.6
L53.6878 96.48
L53.6915 93.6
L53.6915 93.6
L53.7245 79.2
L53.8441 84.96
L53.8603 87.84
L53.906 84.96
L53.906 84.96
L53.9519 76.32
L53.9637 84.96
L53.9637 84.96
L54.0923 99.36
L54.1457 96.48
L54.149 99.36
L54.149 99.36
L54.2302 105.12
L54.2446 102.24
L54.2961 99.36
L54.2984 102.24
L54.2984 102.24
L54.3118 110.88
L54.3542 102.24
L54.3542 102.24
L54.3773 93.6
L54.4656 99.36
L54.6685 84.96
L54.6689 87.84
L54.6737 90.72
L54.6803 87.84
L54.6803 87.84
L54.7949 64.8
L54.8103 70.56
L54.9456 59.04
L54.9495 64.8
L54.9911 79.2
L55.0643 73.44
L55.1331 67.68
L55.1337 73.44
L55.1337 73.44
L55.1432 76.32
L55.1458 73.44
L55.1458 73.44
L55.1499 67.68
L55.2374 73.44
L55.2374 73.44
L55.2567 84.96
L55.3474 79.2
L55.3705 73.44
L55.4224 79.2
L55.4224 79.2
L55.5785 99.36
L55.5836 96.48
L55.5998 93.6
L55.6088 96.48
L55.6088 96.48
L55.6254 102.24
L55.6444 96.48
L55.6444 96.48
L55.6509 90.72
L55.6756 96.48
L55.6756 96.48
L55.7525 108
L55.7892 105.12
L55.8581 93.6
L55.9242 102.24
L56.1417 122.4
L56.142 119.52
L56.1472 122.4
L56.1472 122.4
L56.196 125.28
L56.2274 122.4
L56.2274 122.4
L56.3355 113.76
L56.3441 116.64
L56.3604 119.52
L56.3746 116.64
L56.3746 116.64
L56.4973 105.12
L56.5233 110.88
L56.5426 105.12
L56.5426 105.12
L56.5789 99.36
L56.589 105.12
L56.589 105.12
L56.5914 108
L56.6256 105.12
L56.6256 105.12
L56.7739 87.84
L56.7987 96.48
L56.8059 99.36
L56.8254 96.48
L56.8254 96.48
L56.84 93.6
L56.8601 96.48
L56.8601 96.48
L57.1179 128.16
L57.1531 122.4
L57.2137 119.52
L57.2178 122.4
L57.2178 122.4
L57.2201 125.28
L57.2278 122.4
L57.2278 122.4
L57.3228 116.64
L57.512 96.48
L57.5227 99.36
L57.5685 93.6
L57.589 99.36
L57.7069 105.12
L57.7463 108
L57.7493 105.12
L57.7493 105.12
L57.7612 102.24
L57.776 105.12
L57.776 105.12
L57.8323 119.52
L57.836 122.4
L57.8639 119.52
L57.8639 119.52
L58.0047 102.24
L58.0905 96.48
L58.1098 102.24
L58.113 108
L58.1174 102.24
L58.1174 102.24
L58.2188 93.6
L58.2256 96.48
L58.3297 108
L58.3519 105.12
L58.3853 96.48
L58.4289 105.12
L58.4289 105.12
L58.4551 110.88
L58.4675 105.12
L58.4675 105.12
L58.4956 102.24
L58.5148 105.12
L58.5148 105.12
L58.5262 108
L58.5361 105.12
L58.5361 105.12
L58.5419 102.24
L58.5516 105.12
L58.5516 105.12
L58.6156 116.64
L58.6413 108
L58.6735 110.88
L58.679 108
L58.679 108
L58.7139 105.12
L58.7181 108
L58.7181 108
L58.7442 110.88
L58.7459 108
L58.7459 108
L58.8433 99.36
L58.8556 108
L58.9042 102.24
L58.9282 108
L58.9282 108
L58.9473 110.88
L58.9624 108
L58.9624 108
L58.9977 105.12
L59.0048 108
L59.0048 108
L59.037 110.88
L59.0414 108
L59.0414 108
L59.1558 102.24
L59.1667 99.36
L59.1695 102.24
L59.1695 102.24
L59.3524 128.16
L59.4363 125.28
L59.4475 128.16
L59.5311 133.92
L59.543 128.16
L59.5774 119.52
L59.6608 125.28
L59.6756 128.16
L59.6894 125.28
L59.6894 125.28
L59.7934 110.88
L59.8451 108
L59.8552 110.88
L59.9419 113.76
L59.9452 110.88
L59.9452 110.88
L60.0434 96.48
L60.0437 99.36
L60.0971 102.24
L60.1007 99.36
L60.1007 99.36
L60.1034 96.48
L60.1097 99.36
L60.1097 99.36
L60.1296 105.12
L60.1635 99.36
L60.1635 99.36
L60.1854 96.48
L60.1957 99.36
L60.1957 99.36
L60.3397 110.88
L60.4105 105.12
L60.4358 110.88
L60.481 116.64
L60.5472 113.76
L60.6944 99.36
L60.7923 113.76
L60.7959 110.88
L60.8233 108
L60.8349 110.88
L60.8349 110.88
L60.9639 125.28
L60.9665 122.4
L61.0409 116.64
L61.0541 122.4
L61.0541 122.4
L61.1526 139.68
L61.1773 136.8
L61.4497 108
L61.4878 110.88
L61.4892 108
L61.4892 108
L61.4896 105.12
L61.5158 108
L61.5158 108
L61.5368 110.88
L61.537 108
L61.537 108
L61.6135 96.48
L61.6625 99.36
L61.7589 108
L61.7919 102.24
L61.9126 87.84
L61.926 84.96
L61.9301 87.84
L61.9301 87.84
L62.0414 105.12
L62.0873 99.36
L62.1843 90.72
L62.1897 96.48
L62.2255 102.24
L62.24 96.48
L62.24 96.48
L62.3408 79.2
L62.3774 84.96
L62.5642 108
L62.5709 105.12
L62.6747 96.48
L62.7133 99.36
L62.7632 110.88
L62.8236 99.36
L62.9478 87.84
L62.9672 96.48
L63.0041 105.12
L63.0775 96.48
L63.1852 76.32
L63.2127 79.2
L63.3899 67.68
L63.4364 70.56
L63.6296 87.84
L63.6477 84.96
L63.6541 82.08
L63.6632 84.96
L63.6632 84.96
L63.7608 102.24
L63.7778 96.48
L63.806 105.12
L63.8888 96.48
L63.9223 87.84
L63.9712 96.48
L63.9712 96.48
L64.0769 108
L64.13 96.48
L64.1771 105.12
L64.2692 122.4
L64.3224 110.88
L64.355 105.12
L64.3795 110.88
L64.4572 113.76
L64.4604 110.88
L64.5748 105.12
L64.6403 108
L64.6413 105.12
L64.6413 105.12
L64.6953 99.36
L64.7017 105.12
L64.7017 105.12
L64.7616 113.76
L64.8096 110.88
L64.8773 116.64
L64.8902 110.88
L64.8902 110.88
L65.0295 84.96
L65.041 90.72
L65.0849 93.6
L65.0966 90.72
L65.0966 90.72
L65.2161 70.56
L65.2307 73.44
L65.3197 96.48
L65.3563 90.72
L65.4079 87.84
L65.4124 90.72
L65.4742 96.48
L65.4962 90.72
L65.5007 87.84
L65.5011 90.72
L65.5011 90.72
L65.6646 102.24
L65.6778 99.36
L65.714 90.72
L65.7879 99.36
L65.8394 93.6
L65.8453 99.36
L65.8453 99.36
L65.864 102.24
L65.8798 99.36
L65.8798 99.36
L65.8969 90.72
L65.9416 99.36
L65.9416 99.36
L65.9433 102.24
L65.9657 99.36
L65.9657 99.36
L66.0738 90.72
L66.0873 93.6
L66.1133 110.88
L66.2178 108
L66.3384 99.36
L66.3435 96.48
L66.3485 99.36
L66.3485 99.36
L66.3612 108
L66.4589 99.36
L66.6001 87.84
L66.6112 90.72
L66.6195 87.84
L66.6195 87.84
L66.6702 82.08
L66.7197 87.84
L66.7197 87.84
L66.8338 99.36
L66.855 90.72
L66.9118 96.48
L66.9815 87.84
L67.0992 76.32
L67.2303 82.08
L67.2481 79.2
L67.3128 64.8
L67.3411 79.2
L67.6666 119.52
L67.8002 110.88
L67.8056 113.76
L67.8096 119.52
L67.9128 116.64
L68.0683 133.92
L68.1981 122.4
L68.2089 125.28
L68.2155 131.04
L68.2398 125.28
L68.2398 125.28
L68.3454 119.52
L68.3457 122.4
L68.3738 128.16
L68.3791 122.4
L68.3791 122.4
L68.4275 108
L68.4916 113.76
L68.5989 105.12
L68.6122 110.88
L68.6136 113.76
L68.6153 110.88
L68.6153 110.88
L68.7412 84.96
L68.8801 99.36
L68.8896 105.12
L68.9019 99.36
L68.9019 99.36
L68.9866 84.96
L69.0217 93.6
L69.2785 125.28
L69.3665 116.64
L69.385 125.28
L69.4481 139.68
L69.4605 133.92
L69.5334 125.28
L69.554 122.4
L69.5616 125.28
L69.5616 125.28
L69.6259 133.92
L69.6332 125.28
L69.6332 125.28
L69.6645 122.4
L69.6823 125.28
L69.6823 125.28
L69.7469 148.32
L69.8484 159.84
L69.8522 154.08
L69.8961 148.32
L69.9244 154.08
L69.9244 154.08
L70.0624 171.36
L70.0747 168.48
L70.0823 165.6
L70.0861 168.48
L70.0861 168.48
L70.2153 191.52
L70.2393 185.76
L70.2726 191.52
L70.2726 191.52
L70.275 194.4
L70.2761 191.52
L70.2761 191.52
L70.353 180
L70.3895 188.64
L70.412 194.4
L70.4537 188.64
L70.4537 188.64
L70.4646 185.76
L70.4703 188.64
L70.4703 188.64
L70.4833 191.52
L70.4845 188.64
L70.4845 188.64
L70.6365 180
L70.6385 182.88
L70.6421 185.76
L70.648 182.88
L70.648 182.88
L70.6602 180
L70.686 182.88
L70.686 182.88
L70.7906 194.4
L70.8055 185.76
L70.8116 180
L70.8283 185.76
L70.8283 185.76
L70.9121 194.4
L70.9265 185.76
L70.9409 182.88
L70.9476 185.76
L70.9476 185.76
L70.9862 191.52
L71.0234 185.76
L71.0234 185.76
L71.0319 174.24
L71.0555 185.76
L71.0555 185.76
L71.1789 194.4
L71.2852 188.64
L71.2853 191.52
L71.2979 188.64
L71.3011 191.52
L71.3011 191.52
L71.3055 194.4
L71.3072 191.52
L71.3072 191.52
L71.3101 188.64
L71.3175 191.52
L71.3175 191.52
L71.3259 194.4
L71.3347 191.52
L71.3347 191.52
L71.3399 188.64
L71.3489 191.52
L71.3489 191.52
L71.3923 194.4
L71.3966 191.52
L71.3966 191.52
L71.3993 188.64
L71.4059 191.52
L71.4059 191.52
L71.4135 194.4
L71.4281 191.52
L71.4281 191.52
L71.4552 177.12
L71.4929 191.52
L71.4929 191.52
L71.4973 194.4
L71.4988 191.52
L71.4988 191.52
L71.4991 188.64
L71.5089 191.52
L71.5089 191.52
L71.6034 194.4
L71.6983 185.76
L71.7078 191.52
L71.7191 194.4
L71.7261 191.52
L71.7261 191.52
L71.7471 185.76
L71.797 191.52
L71.797 191.52
L71.8371 194.4
L71.8407 191.52
L71.8407 191.52
L71.8547 188.64
L71.863 191.52
L71.863 191.52
L71.8766 194.4
L71.8795 191.52
L71.8795 191.52
L71.924 185.76
L71.9608 191.52
L71.9608 191.52
L71.9836 194.4
L71.9917 191.52
L71.9917 191.52
L72.0218 185.76
L72.0342 191.52
L72.0342 191.52
L72.0665 194.4
L72.0912 191.52
L72.0912 191.52
L72.1158 188.64
L72.1167 191.52
L72.1167 191.52
L72.1254 194.4
L72.1257 191.52
L72.1257 191.52
L72.1379 188.64
L72.1438 191.52
L72.1438 191.52
L72.1565 194.4
L72.1629 191.52
L72.1629 191.52
L72.1735 188.64
L72.1915 191.52
L72.1915 191.52
L72.1949 194.4
L72.1989 191.52
L72.1989 191.52
L72.2169 185.76
L72.2278 191.52
L72.2278 191.52
L72.2601 194.4
L72.2618 191.52
L72.2618 191.52
L72.2699 188.64
L72.2731 191.52
L72.2731 191.52
L72.3235 194.4
L72.3297 191.52
L72.3297 191.52
L72.3563 188.64
L72.3586 191.52
L72.3586 191.52
L72.3871 194.4
L72.3931 191.52
L72.3931 191.52
L72.4248 188.64
L72.4249 191.52
L72.4249 191.52
L72.4374 194.4
L72.4402 191.52
L72.4402 191.52
L72.4406 188.64
L72.4506 191.52
L72.4506 191.52
L72.454 194.4
L72.4613 191.52
L72.4613 191.52
L72.4737 188.64
L72.4833 191.52
L72.4833 191.52
L72.492 194.4
L72.4922 191.52
L72.4922 191.52
L72.5032 188.64
L72.5041 191.52
L72.5041 191.52
L72.5445 194.4
L72.5499 191.52
L72.5499 191.52
L72.6364 182.88
L72.6512 191.52
L72.6512 191.52
L72.6686 194.4
L72.6799 191.52
L72.6799 191.52
L72.6883 185.76
L72.7047 191.52
L72.7047 191.52
L72.7574 194.4
L72.7627 191.52
L72.7627 191.52
L72.7666 185.76
L72.8127 191.52
L72.8127 191.52
L72.9293 194.4
L73.0681 182.88
L73.0754 185.76
L73.089 182.88
L73.089 182.88
L73.1017 180
L73.1092 182.88
L73.1092 182.88
L73.1352 188.64
L73.1433 182.88
L73.1433 182.88
L73.1435 180
L73.1729 182.88
L73.1729 182.88
L73.2685 194.4
L73.2882 191.52
L73.3977 194.4
L73.5034 191.52
L73.5159 194.4
L73.5218 191.52
L73.5218 191.52
L73.5425 188.64
L73.544 191.52
L73.544 191.52
L73.5846 194.4
L73.5873 191.52
L73.5873 191.52
L73.589 188.64
L73.603 191.52
L73.603 191.52
L73.6263 194.4
L73.6313 191.52
L73.6313 191.52
L73.6697 182.88
L73.7069 191.52
L73.7069 191.52
L73.8025 194.4
L73.8065 191.52
L73.8234 194.4
L73.8564 191.52
L73.8564 191.52
L73.8713 185.76
L73.8748 191.52
L73.8748 191.52
L73.9061 194.4
L73.9102 191.52
L73.9102 191.52
L73.919 185.76
L73.9253 191.52
L73.9253 191.52
L73.9657 194.4
L73.97 191.52
L73.97 191.52
L73.9708 188.64
L73.9725 191.52
L73.9725 191.52
L74.0796 194.4
L74.0801 191.52
L74.0897 182.88
L74.1095 191.52
L74.1095 191.52
L74.1099 194.4
L74.1198 191.52
L74.1198 191.52
L74.123 185.76
L74.1696 191.52
L74.1696 191.52
L74.1922 194.4
L74.1948 191.52
L74.1948 191.52
L74.2322 188.64
L74.2439 191.52
L74.2439 191.52
L74.2707 194.4
L74.2759 191.52
L74.2759 191.52
L74.288 188.64
L74.2998 191.52
L74.2998 191.52
L74.3086 194.4
L74.3201 191.52
L74.3201 191.52
L74.3356 188.64
L74.3433 191.52
L74.3433 191.52
L74.4038 194.4
L74.4154 191.52
L74.4154 191.52
L74.4321 188.64
L74.4398 191.52
L74.4398 191.52
L74.4764 194.4
L74.4891 191.52
L74.4891 191.52
L74.5008 185.76
L74.5197 191.52
L74.5197 191.52
L74.5473 194.4
L74.5593 191.52
L74.5593 191.52
L74.5729 188.64
L74.5801 191.52
L74.5801 191.52
L74.6616 194.4
L74.6669 191.52
L74.6669 191.52
L74.6894 182.88
L74.723 191.52
L74.723 191.52
L74.7402 194.4
L74.7489 191.52
L74.7489 191.52
L74.8068 180
L74.8641 188.64
L74.9652 194.4
L74.9787 191.52
L75.0531 194.4
L75.0685 191.52
L75.0685 191.52
L75.071 188.64
L75.0761 191.52
L75.0761 191.52
L75.0966 194.4
L75.104 191.52
L75.104 191.52
L75.1064 188.64
L75.1128 191.52
L75.1128 191.52
L75.1237 194.4
L75.1264 191.52
L75.1264 191.52
L75.1974 182.88
L75.2172 191.52
L75.2172 191.52
L75.2186 194.4
L75.2293 191.52
L75.2293 191.52
L75.2337 188.64
L75.2419 191.52
L75.2419 191.52
L75.2644 194.4
L75.2667 191.52
L75.2667 191.52
L75.2689 188.64
L75.2764 191.52
L75.2764 191.52
L75.304 194.4
L75.3041 191.52
L75.3041 191.52
L75.3153 185.76
L75.3215 191.52
L75.3215 191.52
L75.3274 194.4
L75.3371 191.52
L75.3371 191.52
L75.3417 188.64
L75.3515 191.52
L75.3515 191.52
L75.3524 194.4
L75.3562 191.52
L75.3562 191.52
L75.3668 188.64
L75.3723 191.52
L75.3723 191.52
L75.4123 194.4
L75.4262 191.52
L75.4262 191.52
L75.4281 188.64
L75.4297 191.52
L75.4297 191.52
L75.4859 194.4
L75.4889 191.52
L75.4889 191.52
L75.5186 188.64
L75.52 191.52
L75.52 191.52
L75.5679 194.4
L75.5743 191.52
L75.5743 191.52
L75.5751 188.64
L75.5859 191.52
L75.5859 191.52
L75.6159 194.4
L75.6174 191.52
L75.6174 191.52
L75.7146 180
L75.7269 191.52
L75.7269 191.52
L75.7283 194.4
L75.7459 191.52
L75.7459 191.52
L75.7645 188.64
L75.7735 191.52
L75.7735 191.52
L75.7758 194.4
L75.7887 191.52
L75.7887 191.52
L75.7893 188.64
L75.8 191.52
L75.8 191.52
L75.8379 194.4
L75.8399 191.52
L75.8399 191.52
L75.9031 185.76
L75.909 191.52
L75.909 191.52
L75.9268 194.4
L75.9283 191.52
L75.9283 191.52
L75.9305 188.64
L75.9305 191.52
L75.9305 191.52
L75.9719 194.4
L75.9725 191.52
L75.9725 191.52
L75.9999 185.76
L76.0244 191.52
L76.0244 191.52
L76.0321 194.4
L76.0421 191.52
L76.0421 191.52
L76.0692 185.76
L76.0928 191.52
L76.0928 191.52
L76.1138 194.4
L76.118 191.52
L76.118 191.52
L76.1358 188.64
L76.1374 191.52
L76.1374 191.52
L76.1962 194.4
L76.2037 191.52
L76.2037 191.52
L76.2331 177.12
L76.3116 185.76
L76.3441 180
L76.3632 185.76
L76.3632 185.76
L76.4232 194.4
L76.4763 191.52
L76.4893 188.64
L76.4902 191.52
L76.4902 191.52
L76.4909 194.4
L76.5013 191.52
L76.5013 191.52
L76.5285 185.76
L76.5541 191.52
L76.5541 191.52
L76.5594 194.4
L76.5894 191.52
L76.5894 191.52
L76.6026 188.64
L76.6106 191.52
L76.6106 191.52
L76.613 194.4
L76.6235 191.52
L76.6235 191.52
L76.6583 185.76
L76.6672 191.52
L76.6672 191.52
L76.7135 194.4
L76.7287 191.52
L76.7287 191.52
L76.7429 185.76
L76.7617 191.52
L76.7617 191.52
L76.7862 194.4
L76.8021 191.52
L76.8021 191.52
L76.9239 180
L77.0335 182.88
L77.0484 177.12
L77.0576 182.88
L77.0576 182.88
L77.1776 194.4
L77.2135 191.52
L77.2136 188.64
L77.2181 191.52
L77.2181 191.52
L77.2464 194.4
L77.2544 191.52
L77.2544 191.52
L77.2916 188.64
L77.3038 191.52
L77.3038 191.52
L77.3209 194.4
L77.3313 191.52
L77.3313 191.52
L77.3744 182.88
L77.3951 191.52
L77.3951 191.52
L77.3964 194.4
L77.4069 191.52
L77.4069 191.52
L77.4293 185.76
L77.4582 191.52
L77.4582 191.52
L77.5128 194.4
L77.5199 191.52
L77.5199 191.52
L77.5719 182.88
L77.632 185.76
L77.6419 180
L77.6436 185.76
L77.6436 185.76
L77.6967 191.52
L77.7521 188.64
L77.8113 194.4
L77.8322 188.64
L77.8322 188.64
L77.9097 177.12
L77.9648 180
L78.089 194.4
L78.2459 180
L78.2644 182.88
L78.2739 180
L78.2739 180
L78.2776 177.12
L78.2798 180
L78.2798 180
L78.282 182.88
L78.3006 180
L78.3006 180
L78.3097 177.12
L78.3234 180
L78.3234 180
L78.33 182.88
L78.3329 180
L78.3329 180
L78.3351 174.24
L78.3785 180
L78.3785 180
L78.5594 194.4
L78.6566 188.64
L78.6756 191.52
L78.6961 188.64
L78.7274 191.52
L78.7274 191.52
L78.8022 194.4
L78.804 191.52
L78.804 191.52
L78.8075 188.64
L78.8091 191.52
L78.8091 191.52
L78.8828 194.4
L78.8982 191.52
L79.0923 177.12
L79.1508 188.64
L79.2013 180
L79.2908 174.24
L79.3094 177.12
L79.3401 182.88
L79.361 177.12
L79.361 177.12
L79.4079 168.48
L79.4167 177.12
L79.4167 177.12
L79.4744 182.88
L79.4856 177.12
L79.4856 177.12
L79.6019 162.72
L79.6064 171.36
L79.809 194.4
L79.8276 191.52
L79.8499 185.76
L79.8997 191.52
L79.8997 191.52
L79.9017 194.4
L79.9196 191.52
L79.9196 191.52
L79.9268 188.64
L79.9272 191.52
L79.9272 191.52
L79.9462 194.4
L79.9549 191.52
L79.9549 191.52
L79.9657 188.64
L79.9682 191.52
L79.9682 191.52
L80.0096 194.4
L80.0101 191.52
L80.0101 191.52
L80.0192 185.76
L80.0398 191.52
L80.0398 191.52
L80.0649 194.4
L80.0718 191.52
L80.0718 191.52
L80.0923 188.64
L80.0967 191.52
L80.0967 191.52
L80.1199 194.4
L80.1252 191.52
L80.1252 191.52
L80.1975 182.88
L80.2101 191.52
L80.2653 194.4
L80.2654 191.52
L80.2654 191.52
L80.3038 185.76
L80.3183 191.52
L80.3183 191.52
L80.4401 194.4
L80.4943 188.64
L80.5566 191.52
L80.5826 194.4
L80.5935 191.52
L80.5935 191.52
L80.6175 188.64
L80.6193 191.52
L80.6193 191.52
L80.6475 194.4
L80.6521 191.52
L80.6521 191.52
L80.6702 180
L80.7093 191.52
L80.7093 191.52
L80.7143 194.4
L80.7443 191.52
L80.7443 191.52
L80.7721 188.64
L80.7726 191.52
L80.7726 191.52
L80.8028 194.4
L80.8327 191.52
L80.8327 191.52
L80.8381 188.64
L80.8484 191.52
L80.8484 191.52
L80.8741 194.4
L80.8743 191.52
L80.8743 191.52
L80.887 188.64
L80.8923 191.52
L80.8923 191.52
L80.9356 194.4
L80.9357 191.52
L80.9357 191.52
L80.9457 188.64
L80.956 191.52
L80.956 191.52
L80.962 194.4
L80.9629 191.52
L80.9629 191.52
L81.016 182.88
L81.0266 191.52
L81.0266 191.52
L81.0557 194.4
L81.0589 191.52
L81.0589 191.52
L81.0591 188.64
L81.0623 191.52
L81.0623 191.52
L81.0642 194.4
L81.0791 191.52
L81.0791 191.52
L81.0958 185.76
L81.1162 191.52
L81.1162 191.52
L81.2254 194.4
L81.3289 182.88
L81.3355 188.64
L81.3539 194.4
L81.3708 188.64
L81.3708 188.64
L81.4828 171.36
L81.4888 174.24
L81.5063 177.12
L81.5112 174.24
L81.5112 174.24
L81.5167 171.36
L81.5273 174.24
L81.5273 174.24
L81.6439 194.4
L81.7237 182.88
L81.8037 188.64
L81.8213 194.4
L81.8636 188.64
L81.8636 188.64
L81.8758 180
L81.9782 182.88
L82.0378 191.52
L82.0391 194.4
L82.0489 191.52
L82.0489 191.52
L82.0615 188.64
L82.0647 191.52
L82.0647 191.52
L82.0946 194.4
L82.0965 191.52
L82.0965 191.52
L82.185 185.76
L82.2089 188.64
L82.2215 194.4
L82.2462 188.64
L82.2462 188.64
L82.2637 182.88
L82.3193 188.64
L82.3193 188.64
L82.3219 191.52
L82.3263 188.64
L82.3263 188.64
L82.3749 177.12
L82.3989 188.64
L82.3989 188.64
L82.5061 194.4
L82.6127 171.36
L82.6524 177.12
L82.6586 182.88
L82.6812 177.12
L82.6812 177.12
L82.6848 174.24
L82.7006 177.12
L82.7006 177.12
L82.7967 194.4
L82.8163 188.64
L82.9427 194.4
L83.0962 182.88
L83.0986 185.76
L83.1093 188.64
L83.1102 185.76
L83.1102 185.76
L83.1117 182.88
L83.114 185.76
L83.114 185.76
L83.2161 194.4
L83.2212 191.52
L83.2426 188.64
L83.2442 191.52
L83.2442 191.52
L83.2515 194.4
L83.2647 191.52
L83.2647 191.52
L83.322 185.76
L83.3361 191.52
L83.3361 191.52
L83.3619 194.4
L83.3709 191.52
L83.3709 191.52
L83.3753 185.76
L83.4315 191.52
L83.4315 191.52
L83.4408 194.4
L83.4559 191.52
L83.4559 191.52
L83.5608 182.88
L83.5685 188.64
L83.5729 194.4
L83.6075 188.64
L83.6075 188.64
L83.7353 180
L83.7353 182.88
L83.8393 171.36
L83.8518 180
L83.9728 194.4
L84.0785 185.76
L84.0855 191.52
L84.112 194.4
L84.1254 191.52
L84.1254 191.52
L84.1306 188.64
L84.1434 191.52
L84.1434 191.52
L84.1574 194.4
L84.1632 191.52
L84.1632 191.52
L84.1942 185.76
L84.2083 191.52
L84.2083 191.52
L84.2225 194.4
L84.2387 191.52
L84.2387 191.52
L84.2734 188.64
L84.2816 191.52
L84.2816 191.52
L84.2849 194.4
L84.2855 191.52
L84.2855 191.52
L84.2938 188.64
L84.2997 191.52
L84.2997 191.52
L84.3322 194.4
L84.3368 191.52
L84.3368 191.52
L84.3815 180
L84.401 191.52
L84.401 191.52
L84.4036 194.4
L84.4063 191.52
L84.4063 191.52
L84.4103 188.64
L84.4143 191.52
L84.4143 191.52
L84.4515 194.4
L84.4632 191.52
L84.4632 191.52
L84.5018 185.76
L84.5233 191.52
L84.5233 191.52
L84.6044 194.4
L84.6081 191.52
L84.6081 191.52
L84.615 188.64
L84.6218 191.52
L84.6218 191.52
L84.635 194.4
L84.6399 191.52
L84.6399 191.52
L84.6604 185.76
L84.6676 191.52
L84.6676 191.52
L84.6698 194.4
L84.6877 191.52
L84.6877 191.52
L84.691 188.64
L84.6945 191.52
L84.6945 191.52
L84.7676 194.4
L84.769 191.52
L84.769 191.52
L84.8445 177.12
L84.8817 182.88
L85.0422 194.4
L85.0989 182.88
L85.1625 188.64
L85.3149 194.4
L85.3274 188.64
L85.4087 191.52
L85.4678 194.4
L85.4775 191.52
L85.4775 191.52
L85.4893 188.64
L85.4909 191.52
L85.4909 191.52
L85.5531 194.4
L85.5537 191.52
L85.5537 191.52
L85.5668 188.64
L85.5741 191.52
L85.5741 191.52
L85.5782 194.4
L85.5784 191.52
L85.5784 191.52
L85.5931 188.64
L85.6067 191.52
L85.6067 191.52
L85.6071 194.4
L85.6076 191.52
L85.6076 191.52
L85.6109 188.64
L85.6315 191.52
L85.6315 191.52
L85.6395 194.4
L85.6429 191.52
L85.6429 191.52
L85.6811 182.88
L85.7124 191.52
L85.7124 191.52
L85.7131 194.4
L85.7244 191.52
L85.7244 191.52
L85.7269 188.64
L85.7444 191.52
L85.7444 191.52
L85.7532 194.4
L85.7536 191.52
L85.7536 191.52
L85.759 188.64
L85.7667 191.52
L85.7667 191.52
L85.7904 194.4
L85.7912 191.52
L85.7912 191.52
L85.7954 185.76
L85.8038 191.52
L85.8038 191.52
L85.8427 194.4
L85.8771 191.52
L85.8771 191.52
L85.9761 185.76
L85.986 191.52
L86.0006 194.4
L86.004 191.52
L86.004 191.52
L86.0096 188.64
L86.0115 191.52
L86.0115 191.52
L86.049 194.4
L86.0556 191.52
L86.0556 191.52
L86.0829 185.76
L86.0992 191.52
L86.0992 191.52
L86.1262 194.4
L86.1285 191.52
L86.1285 191.52
L86.1771 185.76
L86.2351 191.52
L86.2781 194.4
L86.2813 191.52
L86.2813 191.52
L86.2878 185.76
L86.2919 191.52
L86.2919 191.52
L86.3035 194.4
L86.3121 191.52
L86.3121 191.52
L86.3321 188.64
L86.3382 191.52
L86.3382 191.52
L86.3972 194.4
L86.4019 191.52
L86.4019 191.52
L86.4021 188.64
L86.4084 191.52
L86.4084 191.52
L86.419 194.4
L86.4263 191.52
L86.4263 191.52
L86.4479 188.64
L86.4508 191.52
L86.4508 191.52
L86.4782 194.4
L86.4843 191.52
L86.4843 191.52
L86.5302 182.88
L86.5637 191.52
L86.5637 191.52
L86.5733 194.4
L86.577 191.52
L86.577 191.52
L86.5926 185.76
L86.6172 191.52
L86.6172 191.52
L86.67 194.4
L86.6834 191.52
L86.6834 191.52
L86.757 182.88
L86.7913 185.76
L86.8059 182.88
L86.808 185.76
L86.808 185.76
L86.9207 194.4
L87.0388 182.88
L87.0607 191.52
L87.1432 194.4
L87.1716 191.52
L87.2517 194.4
L87.2569 191.52
L87.2569 191.52
L87.2645 185.76
L87.3097 191.52
L87.3097 191.52
L87.396 194.4
L87.3997 191.52
L87.4879 182.88
L87.5073 191.52
L87.5197 194.4
L87.528 191.52
L87.528 191.52
L87.5661 185.76
L87.5823 191.52
L87.5823 191.52
L87.6612 194.4
L87.6696 191.52
L87.6696 191.52
L87.7016 188.64
L87.7017 191.52
L87.7017 191.52
L87.7019 194.4
L87.7023 191.52
L87.7023 191.52
L87.7267 188.64
L87.728 191.52
L87.728 191.52
L87.7306 194.4
L87.7346 191.52
L87.7346 191.52
L87.7439 188.64
L87.7455 191.52
L87.7455 191.52
L87.7877 194.4
L87.8196 191.52
L87.8196 191.52
L87.8783 185.76
L87.8812 191.52
L87.8812 191.52
L87.8882 194.4
L87.9056 191.52
L87.9056 191.52
L87.9206 182.88
L87.9399 191.52
L87.9399 191.52
L87.9459 194.4
L87.9488 191.52
L87.9488 191.52
L87.9777 185.76
L87.9998 191.52
L87.9998 191.52
L88.0221 194.4
L88.035 191.52
L88.035 191.52
L88.1235 182.88
L88.1529 188.64
L88.1581 194.4
L88.1936 188.64
L88.1936 188.64
L88.282 174.24
L88.3034 180
L88.3679 194.4
L88.4091 182.88
L88.4192 180
L88.4193 182.88
L88.4193 182.88
L88.4855 194.4
L88.5274 182.88
L88.5487 177.12
L88.566 182.88
L88.566 182.88
L88.6772 194.4
L88.6822 188.64
L88.6892 182.88
L88.7083 188.64
L88.7083 188.64
L88.7463 194.4
L88.7579 188.64
L88.7579 188.64
L88.778 185.76
L88.7939 188.64
L88.7939 188.64
L88.8054 194.4
L88.8094 188.64
L88.8094 188.64
L88.9133 174.24
L88.9225 180
L88.9672 191.52
L89.0393 188.64
L89.0499 191.52
L89.0647 188.64
L89.0647 188.64
L89.0939 180
L89.1008 188.64
L89.1008 188.64
L89.1739 194.4
L89.2112 188.64
L89.2882 194.4
L89.3157 191.52
L89.3271 188.64
L89.3291 191.52
L89.3291 191.52
L89.3652 194.4
L89.4016 191.52
L89.4016 191.52
L89.4743 180
L89.4989 188.64
L89.6274 194.4
L89.6286 191.52
L89.6501 188.64
L89.6581 191.52
L89.6581 191.52
L89.6724 194.4
L89.6737 191.52
L89.6737 191.52
L89.7243 177.12
L89.7682 191.52
L89.7682 191.52
L89.7728 194.4
L89.7759 191.52
L89.7759 191.52
L89.7933 188.64
L89.7988 191.52
L89.7988 191.52
L89.8006 194.4
L89.8039 191.52
L89.8039 191.52
L89.8438 185.76
L89.8552 191.52
L89.8552 191.52
L89.8651 194.4
L89.8997 191.52
L89.8997 191.52
L89.9077 185.76
L89.917 191.52
L89.917 191.52
L89.9172 194.4
L89.9469 191.52
L89.9469 191.52
L89.9491 188.64
L89.9536 191.52
L89.9536 191.52
L90.0143 194.4
L90.017 191.52
L90.017 191.52
L90.0345 185.76
L90.0437 191.52
L90.0437 191.52
L90.0784 194.4
L90.0949 191.52
L90.0949 191.52
L90.0985 185.76
L90.1326 191.52
L90.1326 191.52
L90.1999 194.4
L90.2019 191.52
L90.2019 191.52
L90.2277 188.64
L90.2491 191.52
L90.2491 191.52
L90.2502 194.4
L90.2606 191.52
L90.2606 191.52
L90.2772 185.76
L90.2908 191.52
L90.2908 191.52
L90.3796 194.4
L90.4016 191.52
L90.405 188.64
L90.4104 191.52
L90.4104 191.52
L90.4131 194.4
L90.4414 191.52
L90.4414 191.52
L90.454 185.76
L90.4572 191.52
L90.4572 191.52
L90.4795 194.4
L90.485 191.52
L90.485 191.52
L90.5071 185.76
L90.521 191.52
L90.521 191.52
L90.5245 194.4
L90.5467 191.52
L90.5467 191.52
L90.5732 188.64
L90.5906 191.52
L90.5906 191.52
L90.6735 194.4
L90.6753 191.52
L90.6753 191.52
L90.6823 185.76
L90.6851 191.52
L90.6851 191.52
L90.6962 194.4
L90.6965 191.52
L90.6965 191.52
L90.7784 171.36
L90.8149 182.88
L90.9498 194.4
L91.025 177.12
L91.0634 188.64
L91.0701 194.4
L91.0978 188.64
L91.0978 188.64
L91.1416 185.76
L91.153 188.64
L91.153 188.64
L91.2657 194.4
L91.3171 174.24
L91.3777 191.52
L91.3813 194.4
L91.3877 191.52
L91.3877 191.52
L91.4002 188.64
L91.4017 191.52
L91.4017 191.52
L91.4099 194.4
L91.411 191.52
L91.411 191.52
L91.4642 185.76
L91.4668 191.52
L91.4668 191.52
L91.4746 194.4
L91.4797 191.52
L91.4797 191.52
L91.5187 180
L91.5547 191.52
L91.5547 191.52
L91.5624 194.4
L91.5731 191.52
L91.5731 191.52
L91.5991 188.64
L91.6053 191.52
L91.6053 191.52
L91.6176 194.4
L91.6184 191.52
L91.6184 191.52
L91.6416 185.76
L91.67 191.52
L91.67 191.52
L91.7225 194.4
L91.7288 191.52
L91.7288 191.52
L91.7294 188.64
L91.7353 191.52
L91.7353 191.52
L91.7781 194.4
L91.7905 191.52
L91.7905 191.52
L91.8144 188.64
L91.8202 191.52
L91.8202 191.52
L91.8233 194.4
L91.834 191.52
L91.834 191.52
L91.8659 188.64
L91.8861 191.52
L91.8861 191.52
L91.9747 194.4
L92.0357 188.64
L92.0827 191.52
L92.0975 194.4
L92.1067 191.52
L92.1067 191.52
L92.1321 185.76
L92.1446 191.52
L92.1446 191.52
L92.163 194.4
L92.1691 191.52
L92.1691 191.52
L92.1695 188.64
L92.1707 191.52
L92.1707 191.52
L92.1798 194.4
L92.189 191.52
L92.189 191.52
L92.2118 188.64
L92.2252 191.52
L92.2252 191.52
L92.288 194.4
L92.2887 191.52
L92.2887 191.52
L92.4259 168.48
L92.432 177.12
L92.555 194.4
L92.5668 191.52
L92.7022 171.36
L92.7135 180
L92.8041 194.4
L92.8362 191.52
L92.8577 188.64
L92.8601 191.52
L92.8601 191.52
L92.8732 194.4
L92.8765 191.52
L92.8765 191.52
L92.883 185.76
L92.8855 191.52
L92.8855 191.52
L92.928 194.4
L92.9478 191.52
L92.9478 191.52
L92.9558 188.64
L92.9603 191.52
L92.9603 191.52
L92.962 194.4
L92.9722 191.52
L92.9722 191.52
L92.9832 188.64
L92.9858 191.52
L92.9858 191.52
L92.9874 194.4
L92.9919 191.52
L92.9919 191.52
L93.0376 180
L93.0616 191.52
L93.0616 191.52
L93.1196 194.4
L93.1203 191.52
L93.1203 191.52
L93.1214 188.64
L93.1231 191.52
L93.1231 191.52
L93.1787 194.4
L93.1844 191.52
L93.1844 191.52
L93.2512 177.12
L93.2876 191.52
L93.3285 194.4
L93.3333 191.52
L93.3333 191.52
L93.4232 185.76
L93.4363 188.64
L93.5613 194.4
L93.61 180
L93.666 194.4
L93.7813 185.76
L93.7852 191.52
L93.788 194.4
L93.7931 191.52
L93.7931 191.52
L93.8085 185.76
L93.8414 191.52
L93.8414 191.52
L93.8415 194.4
L93.8438 191.52
L93.8438 191.52
L93.8543 188.64
L93.8602 191.52
L93.8602 191.52
L93.9482 194.4
L93.9568 191.52
L93.9568 191.52
L93.9842 185.76
L94.005 191.52
L94.005 191.52
L94.0325 194.4
L94.0526 191.52
L94.0526 191.52
L94.1326 182.88
L94.1446 191.52
L94.1446 191.52
L94.147 194.4
L94.1473 191.52
L94.1473 191.52
L94.1488 188.64
L94.1599 191.52
L94.1599 191.52
L94.1652 194.4
L94.1818 191.52
L94.1818 191.52
L94.1918 188.64
L94.2072 191.52
L94.2072 191.52
L94.2135 194.4
L94.2196 191.52
L94.2196 191.52
L94.3118 182.88
L94.3414 185.76
L94.4479 194.4
L94.5206 185.76
L94.5582 191.52
L94.6278 194.4
L94.63 191.52
L94.63 191.52
L94.6318 188.64
L94.6334 191.52
L94.6334 191.52
L94.6659 194.4
L94.6666 191.52
L94.6666 191.52
L94.746 180
L94.789 182.88
L94.9163 194.4
L95.0217 188.64
L95.0277 191.52
L95.0627 194.4
L95.0708 191.52
L95.0708 191.52
L95.0804 188.64
L95.0945 191.52
L95.0945 191.52
L95.1021 194.4
L95.1111 191.52
L95.1111 191.52
L95.1278 185.76
L95.1552 191.52
L95.1552 191.52
L95.2158 194.4
L95.2226 191.52
L95.2226 191.52
L95.2683 177.12
L95.3433 182.88
L95.3678 180
L95.3838 182.88
L95.3838 182.88
L95.4714 194.4
L95.5086 191.52
L95.532 194.4
L95.5329 191.52
L95.5329 191.52
L95.54 188.64
L95.5431 191.52
L95.5431 191.52
L95.5452 194.4
L95.5474 191.52
L95.5474 191.52
L95.5756 185.76
L95.5835 191.52
L95.5835 191.52
L95.6979 194.4
L95.7644 182.88
L95.8101 191.52
L95.8392 194.4
L95.8533 191.52
L95.8533 191.52
L95.8897 188.64
L95.8953 191.52
L95.8953 191.52
L95.9241 194.4
L95.9297 191.52
L95.9297 191.52
L95.9555 188.64
L95.9626 191.52
L95.9626 191.52
L95.9733 194.4
L95.9759 191.52
L95.9759 191.52
L95.9818 188.64
L95.9893 191.52
L95.9893 191.52
L96.0184 194.4
L96.0254 191.52
L96.0254 191.52
L96.0564 188.64
L96.0569 191.52
L96.0569 191.52
L96.1409 194.4
L96.1613 191.52
L96.1996 182.88
L96.2627 188.64
L96.277 191.52
L96.2943 188.64
L96.2943 188.64
L96.3638 185.76
L96.3672 188.64
L96.3672 188.64
L96.4393 194.4
L96.4534 188.64
L96.4534 188.64
L96.5192 182.88
L96.5278 188.64
L96.5278 188.64
L96.6406 194.4
L96.6752 185.76
L96.7589 191.52
L96.7614 194.4
L96.7649 191.52
L96.7649 191.52
L96.7726 182.88
L96.7894 191.52
L96.7894 191.52
L96.7934 194.4
L96.8031 191.52
L96.8031 191.52
L96.8238 182.88
L96.8538 191.52
L96.8538 191.52
L96.8951 194.4
L96.909 191.52
L96.909 191.52
L96.9299 182.88
L96.9479 191.52
L96.9479 191.52
L96.948 194.4
L96.9506 191.52
L96.9506 191.52
L96.9913 182.88
L97.0529 191.52
L97.0628 194.4
L97.0656 191.52
L97.0656 191.52
L97.0723 188.64
L97.0852 191.52
L97.0852 191.52
L97.1158 194.4
L97.117 191.52
L97.117 191.52
L97.2273 180
L97.2314 177.12
L97.2386 180
L97.2386 180
L97.3086 194.4
L97.3685 188.64
L97.479 194.4
L97.4853 191.52
L97.5041 185.76
L97.5601 191.52
L97.5601 191.52
L97.6009 194.4
L97.6018 191.52
L97.6018 191.52
L97.6072 188.64
L97.6119 191.52
L97.6119 191.52
L97.6588 194.4
L97.6601 191.52
L97.6601 191.52
L97.7026 182.88
L97.742 191.52
L97.742 191.52
L97.7573 194.4
L97.7592 191.52
L97.7592 191.52
L97.7805 185.76
L97.824 191.52
L97.824 191.52
L97.8263 194.4
L97.8672 191.52
L97.8672 191.52
L97.9538 174.24
L97.982 177.12
L98.146 194.4
L98.2043 185.76
L98.2565 191.52
L98.3373 194.4
L98.3432 191.52
L98.3432 191.52
L98.3562 185.76
L98.3872 191.52
L98.3872 191.52
L98.4055 194.4
L98.4082 191.52
L98.4082 191.52
L98.4109 188.64
L98.4169 191.52
L98.4169 191.52
L98.4189 194.4
L98.4282 191.52
L98.4282 191.52
L98.4429 188.64
L98.4436 191.52
L98.4436 191.52
L98.4582 194.4
L98.4738 191.52
L98.4738 191.52
L98.5687 185.76
L98.5784 191.52
L98.5784 191.52
L98.6277 194.4
L98.6329 191.52
L98.6329 191.52
L98.6354 188.64
L98.6713 191.52
L98.6713 191.52
L98.6744 194.4
L98.6814 191.52
L98.6814 191.52
L98.748 185.76
L98.7653 191.52
L98.7653 191.52
L98.8361 194.4
L98.8542 191.52
L98.8542 191.52
L98.9239 177.12
L98.9603 191.52
L99.0736 194.4
L99.1539 188.64
L99.1832 191.52
L99.2 194.4
L99.2006 191.52
L99.2006 191.52
L99.2333 185.76
L99.3079 191.52
L99.3159 194.4
L99.3284 191.52
L99.3284 191.52
L99.3923 177.12
L99.437 191.52
L99.4482 194.4
L99.4502 191.52
L99.4502 191.52
L99.5337 182.88
L99.7408 194.4
L99.8172 188.64
L99.8192 191.52
L99.859 194.4
L99.8768 191.52
L99.8768 191.52
L100.004 180
L100.013 182.88
L100.106 194.4
L100.11 191.52
L100.136 188.64
L100.138 191.52
L100.138 191.52
L100.143 194.4
L100.147 191.52
L100.147 191.52
L100.149 188.64
L100.177 191.52
L100.177 191.52
L100.244 194.4
L100.246 191.52
L100.246 191.52
L100.252 188.64
L100.263 191.52
L100.263 191.52
L100.358 194.4
L100.358 191.52
L100.358 191.52
L100.393 188.64
L100.4 191.52
L100.4 191.52
L100.472 194.4
L100.474 191.52
L100.474 191.52
L100.486 188.64
L100.513 191.52
L100.513 191.52
L100.522 194.4
L100.532 191.52
L100.532 191.52
L100.589 177.12
L100.644 185.76
L100.775 194.4
L100.888 188.64
L100.957 194.4
L100.995 191.52
L101.007 188.64
L101.013 191.52
L101.013 191.52
L101.034 194.4
L101.047 191.52
L101.047 191.52
L101.058 182.88
L101.084 191.52
L101.084 191.52
L101.096 194.4
L101.098 191.52
L101.098 191.52
L101.106 185.76
L101.11 191.52
L101.11 191.52
L101.152 194.4
L101.161 191.52
L101.161 191.52
L101.2 185.76
L101.271 188.64
L101.277 191.52
L101.278 188.64
L101.278 188.64
L101.3 177.12
L101.386 188.64
L101.389 191.52
L101.391 188.64
L101.391 188.64
L101.409 185.76
L101.424 188.64
L101.424 188.64
L101.513 194.4
L101.538 191.52
L101.557 188.64
L101.56 191.52
L101.56 191.52
L101.565 194.4
L101.569 191.52
L101.569 191.52
L101.583 188.64
L101.595 191.52
L101.595 191.52
L101.616 194.4
L101.617 191.52
L101.617 191.52
L101.619 188.64
L101.635 191.52
L101.635 191.52
L101.66 194.4
L101.662 191.52
L101.662 191.52
L101.746 177.12
L101.774 188.64
L101.828 194.4
L101.838 188.64
L101.838 188.64
L101.844 185.76
L101.848 188.64
L101.848 188.64
L101.903 194.4
L101.938 188.64
L101.938 188.64
L101.953 185.76
L101.955 188.64
L101.955 188.64
L102.039 194.4
L102.049 188.64
L102.058 185.76
L102.058 188.64
L102.058 188.64
L102.076 191.52
L102.089 188.64
L102.089 188.64
L102.127 174.24
L102.175 188.64
L102.278 194.4
L102.286 191.52
L102.295 188.64
L102.296 191.52
L102.296 191.52
L102.34 194.4
L102.349 191.52
L102.349 191.52
L102.355 188.64
L102.373 191.52
L102.373 191.52
L102.374 194.4
L102.378 191.52
L102.378 191.52
L102.383 188.64
L102.397 191.52
L102.397 191.52
L102.407 194.4
L102.414 191.52
L102.414 191.52
L102.415 188.64
L102.42 191.52
L102.42 191.52
L102.435 194.4
L102.441 191.52
L102.441 191.52
L102.459 182.88
L102.478 191.52
L102.478 191.52
L102.51 194.4
L102.513 191.52
L102.513 191.52
L102.571 180
L102.614 191.52
L102.648 188.64
L102.659 191.52
L102.659 191.52
L102.662 194.4
L102.669 191.52
L102.669 191.52
L102.672 188.64
L102.677 191.52
L102.677 191.52
L102.738 194.4
L102.768 191.52
L102.813 180
L102.855 191.52
L102.855 191.52
L102.864 194.4
L102.879 191.52
L102.879 191.52
L102.888 185.76
L102.903 191.52
L102.903 191.52
L103.019 194.4
L103.146 159.84
L103.173 165.6
L103.445 194.4
L103.563 185.76
L103.618 194.4
L103.65 185.76
L103.65 185.76
L103.73 165.6
L103.75 174.24
L103.963 194.4
L103.97 191.52
L103.983 185.76
L104 191.52
L104 191.52
L104.01 194.4
L104.022 191.52
L104.022 191.52
L104.041 185.76
L104.055 191.52
L104.055 191.52
L104.085 194.4
L104.086 191.52
L104.086 191.52
L104.161 180
L104.186 191.52
L104.186 191.52
L104.218 194.4
L104.221 191.52
L104.221 191.52
L104.258 182.88
L104.29 191.52
L104.29 191.52
L104.363 194.4
L104.367 191.52
L104.367 191.52
L104.375 188.64
L104.388 191.52
L104.388 191.52
L104.393 194.4
L104.399 191.52
L104.399 191.52
L104.48 174.24
L104.493 180
L104.522 177.12
L104.524 180
L104.524 180
L104.671 194.4
L104.75 185.76
L104.777 194.4
L104.896 188.64
L104.897 191.52
L104.918 194.4
L104.918 191.52
L104.918 191.52
L104.924 188.64
L104.941 191.52
L104.941 191.52
L104.941 194.4
L104.942 191.52
L104.942 191.52
L104.958 188.64
L104.977 191.52
L104.977 191.52
L104.978 194.4
L104.986 191.52
L104.986 191.52
L105.004 182.88
L105.012 191.52
L105.012 191.52
L105.015 194.4
L105.021 191.52
L105.021 191.52
L105.024 188.64
L105.044 191.52
L105.044 191.52
L105.045 194.4
L105.066 191.52
L105.066 191.52
L105.099 185.76
L105.102 191.52
L105.102 191.52
L105.182 194.4
L105.19 191.52
L105.19 191.52
L105.255 180
L105.286 185.76
L105.441 194.4
L105.589 180
L105.595 185.76
L105.612 194.4
L105.705 191.52
L105.713 188.64
L105.734 191.52
L105.734 191.52
L105.777 194.4
L105.777 191.52
L105.777 191.52
L105.786 188.64
L105.788 191.52
L105.788 191.52
L105.838 194.4
L105.855 191.52
L105.855 191.52
L105.923 182.88
L105.966 191.52
L105.972 188.64
L105.996 191.52
L105.996 191.52
L105.999 194.4
L105.999 191.52
L105.999 191.52
L106.001 188.64
L106.027 191.52
L106.027 191.52
L106.028 194.4
L106.033 191.52
L106.033 191.52
L106.067 180
L106.146 185.76
L106.208 194.4
L106.273 188.64
L106.291 185.76
L106.295 188.64
L106.295 188.64
L106.323 194.4
L106.393 191.52
L106.455 182.88
L106.494 191.52
L106.523 188.64
L106.549 191.52
L106.549 191.52
L106.558 194.4
L106.562 191.52
L106.562 191.52
L106.663 182.88
L106.666 191.52
L106.711 194.4
L106.711 191.52
L106.711 191.52
L106.755 182.88
L106.819 191.52
L106.932 194.4
L107.031 185.76
L107.041 188.64
L107.159 194.4
L107.216 185.76
L107.278 188.64
L107.391 194.4
L107.497 188.64
L107.499 191.52
L107.586 194.4
L107.605 191.52
L107.684 180
L107.703 188.64
L107.736 191.52
L107.738 188.64
L107.738 188.64
L107.746 185.76
L107.75 188.64
L107.75 188.64
L107.754 191.52
L107.754 188.64
L107.754 188.64
L107.755 185.76
L107.759 188.64
L107.759 188.64
L107.789 191.52
L107.789 188.64
L107.789 188.64
L107.843 182.88
L107.896 188.64
L107.935 194.4
L107.94 188.64
L107.94 188.64
L108.033 177.12
L108.064 182.88
L108.2 194.4
L108.21 191.52
L108.254 177.12
L108.316 185.76
L108.45 194.4
L108.549 188.64
L108.567 191.52
L108.622 194.4
L108.622 191.52
L108.622 191.52
L108.635 182.88
L108.728 191.52
L108.752 194.4
L108.752 191.52
L108.752 191.52
L108.781 185.76
L108.822 191.52
L108.822 191.52
L108.83 194.4
L108.831 191.52
L108.831 191.52
L108.833 188.64
L108.835 191.52
L108.835 191.52
L108.888 194.4
L108.897 191.52
L108.897 191.52
L108.905 188.64
L108.912 191.52
L108.912 191.52
L108.943 194.4
L108.947 191.52
L108.947 191.52
L109.001 188.64
L109.011 191.52
L109.011 191.52
L109.035 194.4
L109.037 191.52
L109.037 191.52
L109.045 188.64
L109.047 191.52
L109.047 191.52
L109.055 194.4
L109.059 191.52
L109.059 191.52
L109.099 185.76
L109.129 191.52
L109.129 191.52
L109.13 194.4
L109.147 191.52
L109.147 191.52
L109.167 182.88
L109.192 191.52
L109.192 191.52
L109.214 194.4
L109.217 191.52
L109.217 191.52
L109.218 188.64
L109.229 191.52
L109.229 191.52
L109.297 194.4
L109.303 191.52
L109.303 191.52
L109.407 180
L109.501 191.52
L109.537 182.88
L109.587 168.48
L109.655 171.36
L109.747 194.4
L109.779 188.64
L109.854 182.88
L109.871 188.64
L109.896 194.4
L109.924 188.64
L109.924 188.64
L109.993 180
L110.006 182.88
L110.067 177.12
L110.107 180
L110.232 188.64
L110.274 191.52
L110.274 188.64
L110.274 188.64
L110.284 182.88
L110.3 188.64
L110.3 188.64
L110.42 194.4
L110.487 185.76
L110.526 194.4
L110.655 182.88
L110.831 194.4
L110.94 182.88
L110.943 185.76
L110.948 188.64
L110.95 185.76
L110.95 185.76
L110.964 182.88
L110.968 185.76
L110.968 185.76
L111.073 191.52
L111.155 194.4
L111.156 191.52
L111.156 191.52
L111.177 185.76
L111.187 191.52
L111.187 191.52
L111.199 194.4
L111.236 191.52
L111.236 191.52
L111.261 185.76
L111.305 191.52
L111.305 191.52
L111.308 194.4
L111.31 191.52
L111.31 191.52
L111.391 182.88
L111.416 185.76
L111.438 188.64
L111.441 185.76
L111.441 185.76
L111.456 180
L111.465 185.76
L111.465 185.76
L111.572 194.4
L111.655 185.76
L111.69 191.52
L111.711 194.4
L111.714 191.52
L111.714 191.52
L111.843 185.76
L111.975 191.52
L112.047 188.64
L112.086 191.52
L112.09 188.64
L112.09 188.64
L112.198 180
L112.235 182.88
L112.236 185.76
L112.24 182.88
L112.24 182.88
L112.361 162.72
L112.464 168.48
L112.494 165.6
L112.68 156.96
L112.703 159.84
L112.712 162.72
L112.714 159.84
L112.714 159.84
L112.827 154.08
L112.915 171.36
L112.942 162.72
L112.956 159.84
L112.959 162.72
L112.959 162.72
L112.986 165.6
L113.003 162.72
L113.003 162.72
L113.069 156.96
L113.073 159.84
L113.129 165.6
L113.145 162.72
L113.22 154.08
L113.588 113.76
L113.654 119.52
L113.733 122.4
L113.739 119.52
L113.739 119.52
L113.84 113.76
L113.893 125.28
L114.015 119.52
L114.022 116.64
L114.036 119.52
L114.036 119.52
L114.108 131.04
L114.142 122.4
L114.178 125.28
L114.189 122.4
L114.189 122.4
L114.304 116.64
L114.312 119.52
L114.391 113.76
L114.408 119.52
L114.463 128.16
L114.513 119.52
L114.655 131.04
L114.792 113.76
L114.794 116.64
L114.817 119.52
L114.817 116.64
L114.817 116.64
L114.827 113.76
L114.833 116.64
L114.833 116.64
L114.838 119.52
L114.84 116.64
L114.84 116.64
L114.849 110.88
L114.861 116.64
L114.861 116.64
L114.863 119.52
L114.885 116.64
L114.885 116.64
L114.918 113.76
L114.919 116.64
L114.919 116.64
L114.923 119.52
L114.934 116.64
L114.934 116.64
L114.955 113.76
L114.965 116.64
L114.965 116.64
L114.965 119.52
L114.975 116.64
L114.975 116.64
L115.067 93.6
L115.078 99.36
L115.105 96.48
L115.117 99.36
L115.117 99.36
L115.14 105.12
L115.197 102.24
L115.25 99.36
L115.295 102.24
L115.456 116.64
L115.557 108
L115.575 113.76
L115.617 116.64
L115.632 113.76
L115.632 113.76
L115.691 102.24
L115.726 108
L115.781 105.12
L115.789 108
L115.841 113.76
L115.895 108
L115.953 99.36
L116.009 105.12
L116.178 122.4
L116.189 119.52
L116.233 122.4
L116.267 119.52
L116.279 113.76
L116.287 119.52
L116.287 119.52
L116.288 122.4
L116.29 119.52
L116.29 119.52
L116.403 113.76
L116.471 122.4
L116.514 119.52
L116.541 116.64
L116.546 119.52
L116.546 119.52
L116.59 128.16
L116.646 125.28
L117.028 87.84
L117.037 93.6
L117.261 119.52
L117.446 108
L117.49 113.76
L117.516 108
L117.631 96.48
L117.632 99.36
L117.852 128.16
L117.945 116.64
L117.958 122.4
L118.07 110.88
L118.126 119.52
L118.238 131.04
L118.238 128.16
L118.405 113.76
L118.405 116.64
L118.425 122.4
L118.443 116.64
L118.443 116.64
L118.45 110.88
L118.479 116.64
L118.479 116.64
L118.523 119.52
L118.531 116.64
L118.531 116.64
L118.534 113.76
L118.538 116.64
L118.538 116.64
L118.551 119.52
L118.596 116.64
L118.596 116.64
L118.601 113.76
L118.609 116.64
L118.609 116.64
L118.643 122.4
L118.654 116.64
L118.654 116.64
L118.865 99.36
L118.871 102.24
L118.901 108
L118.919 102.24
L118.919 102.24
L118.969 90.72
L119.017 102.24
L119.035 108
L119.069 102.24
L119.069 102.24
L119.11 93.6
L119.159 102.24
L119.159 102.24
L119.274 116.64
L119.377 105.12
L119.431 90.72
L119.53 99.36
L119.542 102.24
L119.558 99.36
L119.558 99.36
L119.665 87.84
L119.666 84.96
L119.666 87.84
L119.666 87.84
L119.675 90.72
L119.676 87.84
L119.676 87.84
L119.705 84.96
L119.708 87.84
L119.708 87.84
L119.751 90.72
L119.756 87.84
L119.756 87.84
L119.766 82.08
L119.793 87.84
L119.793 87.84
L119.881 96.48
L119.921 90.72
L119.947 82.08
L119.959 90.72
L119.959 90.72
L120.137 108
L120.147 105.12
L120.148 108
L120.148 108
L120.263 119.52
L120.271 116.64
L120.273 113.76
L120.278 116.64
L120.278 116.64
L120.296 119.52
L120.31 116.64
L120.31 116.64
L120.402 99.36
L120.435 108
L120.514 116.64
L120.549 113.76
L120.573 105.12
L120.583 113.76
L120.583 113.76
L120.631 122.4
L120.662 119.52
L120.85 110.88
L120.912 113.76
L120.918 110.88
L120.918 110.88
L120.986 102.24
L121.035 108
L121.067 116.64
L121.155 113.76
L121.176 110.88
L121.184 113.76
L121.184 113.76
L121.293 125.28
L121.342 119.52
L121.436 110.88
L121.446 113.76
L121.541 128.16
L121.591 119.52
L121.595 116.64
L121.595 119.52
L121.595 119.52
L121.632 125.28
L121.645 119.52
L121.645 119.52
L121.677 116.64
L121.711 119.52
L121.711 119.52
L121.715 122.4
L121.715 119.52
L121.715 119.52
L121.782 110.88
L121.814 116.64
L121.952 122.4
L121.953 119.52
L121.987 110.88
L122.012 119.52
L122.012 119.52
L122.045 131.04
L122.122 122.4
L122.245 108
L122.268 110.88
L122.273 108
L122.273 108
L122.314 105.12
L122.326 108
L122.355 110.88
L122.357 108
L122.357 108
L122.48 96.48
L122.528 99.36
L122.528 102.24
L122.542 99.36
L122.542 99.36
L122.691 76.32
L122.743 79.2
L122.832 90.72
L122.851 82.08
L122.856 79.2
L122.865 82.08
L122.865 82.08
L122.896 93.6
L122.953 90.72
L122.988 87.84
L122.999 90.72
L122.999 90.72
L123.017 96.48
L123.031 90.72
L123.031 90.72
L123.058 82.08
L123.066 90.72
L123.066 90.72
L123.068 93.6
L123.073 90.72
L123.073 90.72
L123.152 73.44
L123.185 84.96
L123.228 99.36
L123.314 90.72
L123.431 76.32
L123.444 73.44
L123.449 76.32
L123.449 76.32
L123.536 93.6
L123.537 90.72
L123.747 79.2
L123.903 93.6
L123.907 90.72
L123.931 93.6
L123.931 93.6
L123.932 96.48
L123.954 93.6
L123.954 93.6
L124.025 79.2
L124.067 90.72
L124.353 116.64
L124.389 128.16
L124.42 119.52
L124.503 128.16
L124.545 136.8
L124.588 128.16
L124.588 128.16
L124.667 119.52
L124.698 125.28
L124.825 113.76
L124.851 119.52
L124.941 128.16
L124.991 122.4
L125.022 110.88
L125.086 119.52
L125.155 116.64
L125.158 119.52
L125.257 125.28
L125.265 122.4
L125.278 125.28
L125.278 122.4
L125.278 122.4
L125.415 116.64
L125.426 125.28
L125.475 116.64
L125.475 116.64
L125.503 108
L125.565 113.76
L125.636 119.52
L125.64 122.4
L125.664 119.52
L125.664 119.52
L125.801 102.24
L125.812 105.12
L125.819 102.24
L125.819 102.24
L125.832 99.36
L125.832 102.24
L125.832 102.24
L125.867 105.12
L125.874 102.24
L125.874 102.24
L126.036 82.08
L126.042 87.84
L126.061 90.72
L126.061 87.84
L126.061 87.84
L126.069 84.96
L126.081 87.84
L126.081 87.84
L126.11 96.48
L126.124 87.84
L126.124 87.84
L126.2 84.96
L126.21 87.84
L126.21 87.84
L126.225 90.72
L126.225 87.84
L126.225 87.84
L126.277 73.44
L126.327 84.96
L126.368 90.72
L126.434 84.96
L126.438 82.08
L126.442 84.96
L126.442 84.96
L126.551 99.36
L126.599 105.12
L126.63 99.36
L126.63 99.36
L126.726 82.08
L126.759 87.84
L126.892 105.12
L126.906 102.24
L126.923 105.12
L126.923 105.12
L127.005 116.64
L127.067 110.88
L127.223 90.72
L127.294 96.48
L127.308 90.72
L127.308 90.72
L127.357 87.84
L127.36 90.72
L127.36 90.72
L127.41 99.36
L127.441 90.72
L127.45 87.84
L127.459 90.72
L127.459 90.72
L127.486 96.48
L127.513 90.72
L127.513 90.72
L127.59 76.32
L127.637 84.96
L127.683 70.56
L127.717 84.96
L127.775 96.48
L127.823 87.84
L127.84 84.96
L127.858 87.84
L127.858 87.84
L127.927 90.72
L127.95 87.84
L128.004 67.68
L128.088 70.56
L128.173 76.32
L128.178 70.56
L128.192 64.8
L128.22 70.56
L128.22 70.56
L128.295 82.08
L128.359 87.84
L128.375 93.6
L128.395 87.84
L128.395 87.84
L128.396 84.96
L128.405 87.84
L128.405 87.84
L128.406 90.72
L128.414 87.84
L128.414 87.84
L128.499 73.44
L128.521 76.32
L128.819 108
L128.897 99.36
L129.073 87.84
L129.145 82.08
L129.167 87.84
L129.257 99.36
L129.297 93.6
L129.391 82.08
L129.41 84.96
L129.431 79.2
L129.45 84.96
L129.45 84.96
L129.48 87.84
L129.486 84.96
L129.486 84.96
L129.517 79.2
L129.525 84.96
L129.525 84.96
L129.526 87.84
L129.527 84.96
L129.527 84.96
L129.633 64.8
L129.637 67.68
L129.708 56.16
L129.758 59.04
L129.828 67.68
L129.866 61.92
L129.997 36
L130.109 44.64
L130.11 47.52
L130.126 44.64
L130.126 44.64
L130.129 41.76
L130.135 44.64
L130.135 44.64
L130.288 82.08
L130.299 79.2
L130.331 73.44
L130.364 79.2
L130.364 79.2
L130.568 102.24
L130.587 99.36
L130.764 84.96
L130.777 87.84
L130.891 99.36
L130.941 110.88
L131.014 102.24
L131.112 76.32
L131.156 84.96
L131.233 96.48
L131.247 93.6
L131.323 87.84
L131.355 93.6
L131.538 113.76
L131.653 108
L131.775 102.24
L131.873 108
L131.884 102.24
L131.89 99.36
L131.902 102.24
L131.902 102.24
L131.91 105.12
L131.914 102.24
L131.914 102.24
L131.934 93.6
L131.972 102.24
L131.972 102.24
L131.973 105.12
L131.973 102.24
L131.973 102.24
L132.013 99.36
L132.017 102.24
L132.017 102.24
L132.168 108
L132.206 87.84
L132.294 93.6
L132.449 105.12
L132.456 102.24
L132.472 99.36
L132.474 102.24
L132.474 102.24
L132.476 105.12
L132.489 102.24
L132.489 102.24
L132.511 99.36
L132.511 102.24
L132.511 102.24
L132.571 110.88
L132.623 108
L132.741 122.4
L132.774 113.76
L132.803 108
L132.81 113.76
L132.81 113.76
L132.882 125.28
L132.927 119.52
L132.939 122.4
L132.945 119.52
L132.945 119.52
L132.995 116.64
L132.999 119.52
L132.999 119.52
L133.075 128.16
L133.093 125.28
L133.147 116.64
L133.193 125.28
L133.219 128.16
L133.254 125.28
L133.254 125.28
L133.307 122.4
L133.317 125.28
L133.317 125.28
L133.432 133.92
L133.489 128.16
L133.526 131.04
L133.744 148.32
L133.745 145.44
L133.754 142.56
L133.764 145.44
L133.764 145.44
L133.789 151.2
L133.811 145.44
L133.811 145.44
L133.926 128.16
L133.987 125.28
L133.991 128.16
L133.991 128.16
L134.005 131.04
L134.006 128.16
L134.006 128.16
L134.012 125.28
L134.016 128.16
L134.016 128.16
L134.026 131.04
L134.03 128.16
L134.03 128.16
L134.072 119.52
L134.155 122.4
L134.275 131.04
L134.275 128.16
L134.315 131.04
L134.322 128.16
L134.322 128.16
L134.334 125.28
L134.351 128.16
L134.351 128.16
L134.391 131.04
L134.398 128.16
L134.398 128.16
L134.4 125.28
L134.42 128.16
L134.42 128.16
L134.544 136.8
L134.558 131.04
L134.601 136.8
L134.601 136.8
L134.629 145.44
L134.67 136.8
L134.978 116.64
L135.001 122.4
L135.061 116.64
L135.061 116.64
L135.116 102.24
L135.194 105.12
L135.23 108
L135.23 105.12
L135.23 105.12
L135.378 93.6
L135.446 102.24
L135.477 93.6
L135.657 82.08
L135.675 84.96
L135.676 82.08
L135.676 82.08
L135.707 76.32
L135.727 82.08
L135.727 82.08
L135.747 84.96
L135.747 82.08
L135.747 82.08
L135.828 73.44
L135.851 79.2
L135.866 82.08
L135.869 79.2
L135.869 79.2
L135.885 76.32
L135.887 79.2
L135.887 79.2
L135.921 96.48
L136.005 93.6
L136.039 87.84
L136.049 93.6
L136.049 93.6
L136.065 99.36
L136.102 93.6
L136.102 93.6
L136.206 82.08
L136.218 87.84
L136.337 59.04
L136.391 70.56
L136.484 73.44
L136.486 70.56
L136.491 67.68
L136.527 70.56
L136.527 70.56
L136.531 76.32
L136.558 70.56
L136.558 70.56
L136.589 59.04
L136.639 70.56
L136.639 70.56
L136.649 76.32
L136.663 70.56
L136.663 70.56
L136.725 64.8
L136.745 70.56
L136.745 70.56
L136.836 84.96
L136.875 79.2
L136.901 76.32
L136.919 79.2
L136.919 79.2
L136.943 84.96
L136.979 79.2
L136.979 79.2
L137.006 76.32
L137.019 79.2
L137.019 79.2
L137.045 90.72
L137.095 79.2
L137.095 79.2
L137.152 70.56
L137.171 79.2
L137.171 79.2
L137.197 82.08
L137.202 79.2
L137.202 79.2
L137.244 73.44
L137.258 79.2
L137.258 79.2
L137.379 96.48
L137.463 90.72
L137.464 87.84
L137.514 90.72
L137.514 90.72
L137.557 99.36
L137.61 90.72
L137.659 87.84
L137.665 90.72
L137.665 90.72
L137.704 96.48
L137.741 90.72
L137.741 90.72
L137.742 87.84
L137.742 90.72
L137.742 90.72
L137.909 108
L137.932 105.12
L137.973 102.24
L137.974 105.12
L137.974 105.12
L138.118 122.4
L138.161 113.76
L138.241 102.24
L138.276 110.88
L138.356 119.52
L138.387 116.64
L138.39 113.76
L138.4 116.64
L138.4 116.64
L138.407 119.52
L138.425 116.64
L138.425 116.64
L138.467 113.76
L138.48 116.64
L138.48 116.64
L138.522 125.28
L138.594 119.52
L138.697 110.88
L138.701 113.76
L138.714 116.64
L138.715 113.76
L138.715 113.76
L138.716 110.88
L138.719 113.76
L138.719 113.76
L138.745 119.52
L138.756 113.76
L138.756 113.76
L138.884 102.24
L138.894 105.12
L138.91 108
L138.912 105.12
L138.912 105.12
L138.927 99.36
L138.933 105.12
L138.933 105.12
L138.937 108
L138.939 105.12
L138.939 105.12
L138.992 102.24
L138.995 105.12
L138.995 105.12
L139.077 119.52
L139.11 110.88
L139.215 122.4
L139.266 119.52
L139.358 105.12
L139.406 113.76
L139.468 108
L139.517 102.24
L139.544 108
L139.544 108
L139.564 110.88
L139.6 108
L139.6 108
L139.614 102.24
L139.631 108
L139.631 108
L139.675 119.52
L139.737 113.76
L139.846 133.92
L139.903 119.52
L140.076 96.48
L140.113 102.24
L140.282 113.76
L140.285 110.88
L140.39 90.72
L140.397 99.36
L140.401 96.48
L140.404 99.36
L140.404 99.36
L140.41 102.24
L140.419 99.36
L140.419 99.36
L140.423 96.48
L140.434 99.36
L140.434 99.36
L140.517 110.88
L140.552 102.24
L140.622 79.2
L140.708 87.84
L140.766 99.36
L140.861 113.76
L140.865 110.88
L141.009 93.6
L141.022 102.24
L141.025 105.12
L141.04 102.24
L141.04 102.24
L141.05 99.36
L141.08 102.24
L141.08 102.24
L141.099 105.12
L141.12 102.24
L141.12 102.24
L141.184 84.96
L141.253 87.84
L141.319 108
L141.39 99.36
L141.443 105.12
L141.488 99.36
L141.613 90.72
L141.614 93.6
L141.737 116.64
L141.737 113.76
L141.762 116.64
L141.767 113.76
L141.767 113.76
L141.783 110.88
L141.786 113.76
L141.786 113.76
L141.835 119.52
L141.85 113.76
L141.9 96.48
L141.951 93.6
L141.954 96.48
L141.954 96.48
L142 105.12
L142.068 99.36
L142.3 125.28
L142.321 122.4
L142.514 102.24
L142.561 105.12
L142.578 108
L142.586 105.12
L142.586 105.12
L142.595 99.36
L142.67 105.12
L142.67 105.12
L142.686 108
L142.696 105.12
L142.696 105.12
L142.869 93.6
L142.995 113.76
L143.014 105.12
L143.066 110.88
L143.087 105.12
L143.087 105.12
L143.093 102.24
L143.096 105.12
L143.096 105.12
L143.125 110.88
L143.18 105.12
L143.18 105.12
L143.224 96.48
L143.267 105.12
L143.267 105.12
L143.275 108
L143.299 105.12
L143.299 105.12
L143.418 90.72
L143.483 79.2
L143.523 87.84
L143.573 93.6
L143.593 87.84
L143.593 87.84
L143.608 82.08
L143.617 87.84
L143.617 87.84
L143.789 96.48
L143.807 93.6
L143.817 96.48
L143.817 96.48
L143.883 108
L143.93 105.12
L144.089 87.84
L144.093 90.72
L144.113 93.6
L144.134 90.72
L144.134 90.72
L144.162 87.84
L144.163 90.72
L144.163 90.72
L144.205 93.6
L144.3 90.72
L144.301 93.6
L144.421 102.24
L144.742 128.16
L144.834 116.64
L144.836 119.52
L144.876 131.04
L144.959 145.44
L144.984 136.8
L145.01 139.68
L145.022 136.8
L145.022 136.8
L145.169 125.28
L145.213 133.92
L145.259 125.28
L145.267 122.4
L145.269 125.28
L145.269 125.28
L145.332 131.04
L145.342 125.28
L145.379 122.4
L145.421 125.28
L145.421 125.28
L145.54 131.04
L145.549 128.16
L145.551 131.04
L145.551 131.04
L145.652 136.8
L145.656 133.92
L145.759 125.28
L145.822 128.16
L145.827 131.04
L145.835 128.16
L145.835 128.16
L145.89 119.52
L145.93 125.28
L145.953 128.16
L145.96 125.28
L145.96 125.28
L146.106 105.12
L146.159 113.76
L146.206 125.28
L146.241 116.64
L146.318 102.24
L146.32 99.36
L146.328 102.24
L146.328 102.24
L146.484 113.76
L146.51 110.88
L146.522 113.76
L146.522 113.76
L146.608 128.16
L146.66 119.52
L146.765 105.12
L146.78 108
L146.787 105.12
L146.787 105.12
L146.885 93.6
L146.889 96.48
L146.915 99.36
L146.92 96.48
L146.92 96.48
L146.923 93.6
L146.944 96.48
L146.944 96.48
L146.957 99.36
L146.967 96.48
L146.967 96.48
L147.042 87.84
L147.076 90.72
L147.166 84.96
L147.168 90.72
L147.278 99.36
L147.34 96.48
L147.344 99.36
L147.498 122.4
L147.522 125.28
L147.534 122.4
L147.534 122.4
L147.655 105.12
L147.708 108
L147.722 113.76
L147.784 108
L147.784 108
L147.909 84.96
L148.026 73.44
L148.051 79.2
L148.145 84.96
L148.158 82.08
L148.214 73.44
L148.266 82.08
L148.33 108
L148.365 99.36
L148.395 108
L148.413 99.36
L148.413 99.36
L148.415 93.6
L148.442 99.36
L148.442 99.36
L148.451 102.24
L148.452 99.36
L148.452 99.36
L148.457 96.48
L148.459 99.36
L148.459 99.36
L148.517 108
L148.552 99.36
L148.552 99.36
L148.642 84.96
L148.664 90.72
L148.689 87.84
L148.695 90.72
L148.695 90.72
L148.822 116.64
L148.9 113.76
L148.946 110.88
L148.952 113.76
L148.952 113.76
L149.062 125.28
L149.092 122.4
L149.098 119.52
L149.1 122.4
L149.1 122.4
L149.134 125.28
L149.142 122.4
L149.142 122.4
L149.163 119.52
L149.166 122.4
L149.166 122.4
L149.187 125.28
L149.193 122.4
L149.193 122.4
L149.239 119.52
L149.24 122.4
L149.24 122.4
L149.241 125.28
L149.269 122.4
L149.269 122.4
L149.375 108
L149.521 119.52
L149.534 116.64
L149.55 113.76
L149.564 116.64
L149.564 116.64
L149.761 133.92
L149.824 125.28
L149.862 128.16
L149.993 139.68
L150.027 136.8
L150.056 131.04
L150.065 136.8
L150.141 139.68
L150.158 136.8
L150.28 119.52
L150.406 105.12
L150.469 113.76
L150.506 119.52
L150.534 113.76
L150.534 113.76
L150.554 110.88
L150.568 113.76
L150.568 113.76
L150.591 116.64
L150.594 113.76
L150.594 113.76
L150.608 110.88
L150.61 113.76
L150.61 113.76
L150.636 119.52
L150.647 113.76
L150.647 113.76
L150.782 82.08
L150.805 90.72
L150.878 87.84
L150.882 90.72
L150.987 99.36
L150.995 96.48
L151.109 61.92
L151.133 79.2
L151.216 87.84
L151.248 82.08
L151.253 79.2
L151.259 82.08
L151.259 82.08
L151.396 93.6
L151.456 90.72
L151.456 93.6
L151.456 93.6
L151.484 102.24
L151.534 93.6
L151.534 93.6
L151.638 87.84
L151.644 90.72
L151.771 113.76
L151.774 110.88
L151.845 102.24
L151.878 110.88
L152.027 125.28
L152.068 119.52
L152.069 116.64
L152.077 119.52
L152.077 119.52
L152.196 128.16
L152.199 125.28
L152.229 116.64
L152.252 122.4
L152.315 128.16
L152.324 122.4
L152.387 110.88
L152.425 122.4
L152.468 128.16
L152.52 122.4
L152.52 122.4
L152.575 116.64
L152.594 122.4
L152.594 122.4
L152.6 125.28
L152.618 122.4
L152.618 122.4
L152.661 110.88
L152.733 116.64
L152.824 131.04
L152.844 119.52
L153.029 87.84
L153.05 84.96
L153.058 87.84
L153.058 87.84
L153.059 90.72
L153.073 87.84
L153.073 87.84
L153.095 84.96
L153.1 87.84
L153.1 87.84
L153.173 99.36
L153.219 90.72
L153.276 84.96
L153.285 90.72
L153.285 90.72
L153.331 96.48
L153.341 90.72
L153.341 90.72
L153.46 82.08
L153.603 99.36
L153.604 96.48
L153.614 99.36
L153.614 99.36
L153.618 102.24
L153.623 99.36
L153.623 99.36
L153.624 96.48
L153.629 99.36
L153.629 99.36
L153.633 105.12
L153.657 99.36
L153.657 99.36
L153.667 96.48
L153.678 99.36
L153.678 99.36
L153.841 113.76
L153.945 108
L153.957 110.88
L153.962 113.76
L153.978 110.88
L153.978 110.88
L153.979 108
L153.981 110.88
L153.981 110.88
L154.167 136.8
L154.181 133.92
L154.187 136.8
L154.187 136.8
L154.434 165.6
L154.436 162.72
L154.532 154.08
L154.558 148.32
L154.602 154.08
L154.602 154.08
L154.639 162.72
L154.666 154.08
L154.732 162.72
L154.735 154.08
L154.859 142.56
L154.924 151.2
L155.063 171.36
L155.085 174.24
L155.095 171.36
L155.095 171.36
L155.162 162.72
L155.202 165.6
L155.484 194.4
L155.629 180
L155.635 185.76
L155.747 194.4
L155.851 182.88
L155.868 191.52
L155.882 194.4
L155.884 191.52
L155.884 191.52
L155.905 188.64
L155.926 191.52
L155.926 191.52
L156.008 194.4
L156.011 191.52
L156.06 177.12
L156.07 174.24
L156.071 177.12
L156.071 177.12
L156.081 180
L156.086 177.12
L156.086 177.12
L156.114 174.24
L156.132 177.12
L156.132 177.12
L156.15 182.88
L156.154 177.12
L156.154 177.12
L156.221 165.6
L156.261 171.36
L156.283 168.48
L156.289 171.36
L156.289 171.36
L156.294 174.24
L156.297 171.36
L156.297 171.36
L156.306 168.48
L156.312 171.36
L156.312 171.36
L156.373 180
L156.374 177.12
L156.443 171.36
L156.466 177.12
L156.526 182.88
L156.535 177.12
L156.535 177.12
L156.536 174.24
L156.538 177.12
L156.538 177.12
L156.541 180
L156.545 177.12
L156.545 177.12
L156.583 168.48
L156.617 177.12
L156.617 177.12
L156.762 188.64
L156.762 185.76
L156.795 194.4
L156.859 185.76
L156.867 182.88
L156.871 185.76
L156.871 185.76
L156.935 194.4
L156.979 185.76
L157.002 188.64
L157.014 185.76
L157.014 185.76
L157.046 177.12
L157.091 185.76
L157.091 185.76
L157.099 194.4
L157.146 185.76
L157.146 185.76
L157.175 180
L157.193 185.76
L157.193 185.76
L157.215 194.4
L157.257 185.76
L157.257 185.76
L157.294 182.88
L157.302 185.76
L157.302 185.76
L157.466 194.4
L157.569 182.88
L157.628 188.64
L157.71 194.4
L157.73 188.64
L157.73 188.64
L157.737 185.76
L157.745 188.64
L157.745 188.64
L157.85 194.4
L157.857 191.52
L157.858 188.64
L157.859 191.52
L157.859 191.52
L157.895 194.4
L157.897 191.52
L157.897 191.52
L157.901 185.76
L157.93 191.52
L157.93 191.52
L157.931 194.4
L157.937 191.52
L157.937 191.52
L157.963 180
L157.995 191.52
L157.995 191.52
L158.042 194.4
L158.047 191.52
L158.047 191.52
L158.071 180
L158.129 191.52
L158.129 191.52
L158.19 194.4
L158.207 191.52
L158.421 171.36
L158.438 174.24
L158.681 194.4
L158.683 191.52
L158.734 185.76
L158.739 191.52
L158.739 191.52
L158.754 194.4
L158.758 191.52
L158.758 191.52
L158.767 185.76
L158.778 191.52
L158.778 191.52
L158.782 194.4
L158.791 191.52
L158.791 191.52
L158.887 180
L158.918 182.88
L158.923 180
L158.923 180
L158.971 171.36
L158.981 180
L158.981 180
L158.988 182.88
L158.996 180
L158.996 180
L159.002 177.12
L159.005 180
L159.005 180
L159.059 188.64
L159.094 180
L159.235 174.24
L159.264 177.12
L159.278 174.24
L159.278 174.24
L159.386 168.48
L159.387 174.24
L159.527 194.4
L159.619 185.76
L159.637 194.4
L159.784 174.24
L159.789 177.12
L159.867 194.4
L159.911 191.52
L159.973 188.64
L159.976 191.52
L159.981 194.4
L159.988 191.52
L159.988 191.52
L160.076 180
L160.088 188.64
L160.199 194.4
L160.209 191.52
L160.211 188.64
L160.222 191.52
L160.222 191.52
L160.314 194.4
L160.328 191.52
L160.334 188.64
L160.342 191.52
L160.342 191.52
L160.383 194.4
L160.386 191.52
L160.386 191.52
L160.52 177.12
L160.551 180
L160.561 182.88
L160.564 180
L160.564 180
L160.568 177.12
L160.57 180
L160.57 180
L160.577 182.88
L160.589 180
L160.589 180
L160.616 171.36
L160.682 180
L160.682 180
L160.692 185.76
L160.725 180
L160.725 180
L160.79 177.12
L160.792 180
L160.792 180
L160.83 185.76
L160.843 180
L160.843 180
L160.848 177.12
L160.852 180
L160.852 180
L160.984 194.4
L160.989 191.52
L161.026 194.4
L161.031 191.52
L161.031 191.52
L161.131 182.88
L161.136 185.76
L161.176 191.52
L161.183 185.76
L161.183 185.76
L161.189 182.88
L161.196 185.76
L161.196 185.76
L161.273 194.4
L161.305 188.64
L161.379 194.4
L161.409 188.64
L161.41 185.76
L161.42 188.64
L161.42 188.64
L161.463 194.4
L161.466 188.64
L161.466 188.64
L161.561 162.72
L161.579 168.48
L161.627 180
L161.685 171.36
L161.697 168.48
L161.7 171.36
L161.7 171.36
L161.753 182.88
L161.865 194.4
L161.976 185.76
L162.105 191.52
L162.113 188.64
L162.145 180
L162.186 188.64
L162.186 188.64
L162.242 194.4
L162.253 188.64
L162.253 188.64
L162.325 177.12
L162.355 180
L162.423 191.52
L162.465 182.88
L162.471 180
L162.48 182.88
L162.48 182.88
L162.663 194.4
L162.672 191.52
L162.679 188.64
L162.7 191.52
L162.7 191.52
L162.738 194.4
L162.756 191.52
L162.756 191.52
L162.763 188.64
L162.767 191.52
L162.767 191.52
L162.84 194.4
L162.845 191.52
L162.856 185.76
L162.88 191.52
L162.88 191.52
L162.899 194.4
L162.932 191.52
L162.932 191.52
L162.941 188.64
L162.942 191.52
L162.942 191.52
L162.946 194.4
L162.968 191.52
L162.968 191.52
L163.024 188.64
L163.036 191.52
L163.041 194.4
L163.047 191.52
L163.047 191.52
L163.064 182.88
L163.141 191.52
L163.141 191.52
L163.142 194.4
L163.142 191.52
L163.142 191.52
L163.232 185.76
L163.235 191.52
L163.235 191.52
L163.253 194.4
L163.254 191.52
L163.254 191.52
L163.266 185.76
L163.29 191.52
L163.29 191.52
L163.309 194.4
L163.311 191.52
L163.311 191.52
L163.312 188.64
L163.334 191.52
L163.334 191.52
L163.346 194.4
L163.348 191.52
L163.348 191.52
L163.416 180
L163.442 185.76
L163.516 194.4
L163.549 188.64
L163.572 185.76
L163.577 188.64
L163.577 188.64
L163.632 194.4
L163.674 191.52
L163.696 188.64
L163.72 191.52
L163.72 191.52
L163.735 194.4
L163.735 191.52
L163.735 191.52
L163.773 182.88
L163.783 191.52
L163.783 191.52
L163.828 194.4
L163.829 191.52
L163.829 191.52
L163.831 188.64
L163.856 191.52
L163.856 191.52
L163.955 194.4
L164.077 185.76
L164.083 188.64
L164.159 194.4
L164.169 188.64
L164.169 188.64
L164.218 180
L164.279 185.76
L164.407 194.4
L164.408 191.52
L164.447 185.76
L164.468 191.52
L164.468 191.52
L164.471 194.4
L164.473 191.52
L164.473 191.52
L164.501 180
L164.559 191.52
L164.559 191.52
L164.585 194.4
L164.611 191.52
L164.611 191.52
L164.612 188.64
L164.618 191.52
L164.618 191.52
L164.636 194.4
L164.645 191.52
L164.645 191.52
L164.662 188.64
L164.676 191.52
L164.676 191.52
L164.696 194.4
L164.709 191.52
L164.709 191.52
L164.714 188.64
L164.716 191.52
L164.716 191.52
L164.717 194.4
L164.73 191.52
L164.73 191.52
L164.755 185.76
L164.768 191.52
L164.768 191.52
L164.804 194.4
L164.805 191.52
L164.805 191.52
L164.805 188.64
L164.814 191.52
L164.814 191.52
L164.832 194.4
L164.833 191.52
L164.833 191.52
L164.909 182.88
L164.934 191.52
L164.949 194.4
L164.957 191.52
L164.957 191.52
L165.004 182.88
L165.011 191.52
L165.011 191.52
L165.093 194.4
L165.101 191.52
L165.101 191.52
L165.129 182.88
L165.174 191.52
L165.174 191.52
L165.238 194.4
L165.259 191.52
L165.259 191.52
L165.294 185.76
L165.302 191.52
L165.302 191.52
L165.303 194.4
L165.308 191.52
L165.308 191.52
L165.362 171.36
L165.422 188.64
L165.49 194.4
L165.505 188.64
L165.505 188.64
L165.506 182.88
L165.528 188.64
L165.528 188.64
L165.621 194.4
L165.656 188.64
L165.728 191.52
L165.793 194.4
L165.798 191.52
L165.798 191.52
L165.799 188.64
L165.803 191.52
L165.803 191.52
L165.805 194.4
L165.814 191.52
L165.814 191.52
L165.815 188.64
L165.817 191.52
L165.817 191.52
L165.82 194.4
L165.841 191.52
L165.841 191.52
L165.848 188.64
L165.863 191.52
L165.863 191.52
L165.885 194.4
L165.888 191.52
L165.888 191.52
L165.903 188.64
L165.903 191.52
L165.903 191.52
L165.913 194.4
L165.928 191.52
L165.928 191.52
L165.938 188.64
L165.977 191.52
L165.977 191.52
L165.984 194.4
L166.019 191.52
L166.019 191.52
L166.084 185.76
L166.104 191.52
L166.104 191.52
L166.14 194.4
L166.15 191.52
L166.15 191.52
L166.266 182.88
L166.322 194.4
L166.367 182.88
L166.387 180
L166.387 182.88
L166.387 182.88
L166.498 194.4
L166.639 182.88
L166.657 188.64
L166.736 194.4
L166.75 188.64
L166.76 185.76
L166.776 188.64
L166.776 188.64
L166.807 194.4
L166.821 188.64
L166.821 188.64
L166.888 185.76
L166.896 188.64
L166.944 194.4
L166.972 188.64
L166.972 188.64
L167.081 180
L167.085 185.76
L167.098 191.52
L167.176 185.76
L167.34 194.4
L167.442 188.64
L167.474 194.4
L167.498 188.64
L167.498 188.64
L167.505 180
L167.515 188.64
L167.515 188.64
L167.621 194.4
L167.621 191.52
L167.709 182.88
L167.73 191.52
L167.736 194.4
L167.767 191.52
L167.767 191.52
L167.781 188.64
L167.808 191.52
L167.808 191.52
L167.837 194.4
L167.85 191.52
L167.85 191.52
L167.852 188.64
L167.866 191.52
L167.866 191.52
L167.919 194.4
L167.929 191.52
L167.929 191.52
L167.945 188.64
L167.947 191.52
L167.947 191.52
L168.051 194.4
L168.052 191.52
L168.076 177.12
L168.108 191.52
L168.108 191.52
L168.155 194.4
L168.166 191.52
L168.166 191.52
L168.182 185.76
L168.189 191.52
L168.189 191.52
L168.219 194.4
L168.225 191.52
L168.225 191.52
L168.235 188.64
L168.242 191.52
L168.242 191.52
L168.276 194.4
L168.286 191.52
L168.286 191.52
L168.298 188.64
L168.308 191.52
L168.308 191.52
L168.422 194.4
L168.506 185.76
L168.547 188.64
L168.554 194.4
L168.602 188.64
L168.602 188.64
L168.652 182.88
L168.665 188.64
L168.665 188.64
L168.666 194.4
L168.698 188.64
L168.698 188.64
L168.75 174.24
L168.811 185.76
L168.834 191.52
L168.902 185.76
L168.902 182.88
L168.904 185.76
L168.904 185.76
L169.022 194.4
L169.139 185.76
L169.17 188.64
L169.259 194.4
L169.265 191.52
L169.31 194.4
L169.324 191.52
L169.345 188.64
L169.345 191.52
L169.345 191.52
L169.422 194.4
L169.43 191.52
L169.43 191.52
L169.431 188.64
L169.437 191.52
L169.437 191.52
L169.491 194.4
L169.493 191.52
L169.493 191.52
L169.503 188.64
L169.513 191.52
L169.513 191.52
L169.56 194.4
L169.562 191.52
L169.562 191.52
L169.612 188.64
L169.625 191.52
L169.625 191.52
L169.637 194.4
L169.664 191.52
L169.664 191.52
L169.709 185.76
L169.729 191.52
L169.729 191.52
L169.801 194.4
L169.802 191.52
L169.802 191.52
L169.84 185.76
L169.866 191.52
L169.866 191.52
L169.971 194.4
L169.976 191.52
L170.036 185.76
L170.044 191.52
L170.044 191.52
L170.052 194.4
L170.058 191.52
L170.058 191.52
L170.109 188.64
L170.12 191.52
L170.12 191.52
L170.216 194.4
L170.22 191.52
L170.308 185.76
L170.315 191.52
L170.315 191.52
L170.32 194.4
L170.325 191.52
L170.325 191.52
L170.334 188.64
L170.337 191.52
L170.337 191.52
L170.354 194.4
L170.357 191.52
L170.357 191.52
L170.371 185.76
L170.41 191.52
L170.41 191.52
L170.423 194.4
L170.426 191.52
L170.426 191.52
L170.445 188.64
L170.447 191.52
L170.447 191.52
L170.469 194.4
L170.476 191.52
L170.476 191.52
L170.477 188.64
L170.488 191.52
L170.488 191.52
L170.59 194.4
L170.595 191.52
L170.62 177.12
L170.67 191.52
L170.67 191.52
L170.728 194.4
L170.729 191.52
L170.729 191.52
L170.743 185.76
L170.761 191.52
L170.761 191.52
L170.823 194.4
L170.827 191.52
L170.827 191.52
L170.83 188.64
L170.833 191.52
L170.833 191.52
L170.86 194.4
L170.863 191.52
L170.863 191.52
L170.9 185.76
L170.964 191.52
L171.028 194.4
L171.031 191.52
L171.031 191.52
L171.042 188.64
L171.044 191.52
L171.044 191.52
L171.113 194.4
L171.119 191.52
L171.119 191.52
L171.21 180
L171.236 185.76
L171.325 194.4
L171.33 188.64
L171.354 185.76
L171.375 188.64
L171.375 188.64
L171.39 194.4
L171.402 188.64
L171.402 188.64
L171.433 182.88
L171.445 188.64
L171.445 188.64
L171.478 194.4
L171.489 188.64
L171.489 188.64
L171.559 185.76
L171.564 188.64
L171.564 188.64
L171.639 194.4
L171.663 191.52
L171.678 188.64
L171.684 191.52
L171.684 191.52
L171.726 194.4
L171.737 191.52
L171.737 191.52
L171.738 188.64
L171.739 191.52
L171.739 191.52
L171.796 194.4
L171.798 191.52
L171.798 191.52
L171.853 180
L171.896 191.52
L171.896 191.52
L171.997 194.4
L171.999 191.52
L172.119 185.76
L172.14 194.4
L172.182 185.76
L172.182 185.76
L172.205 177.12
L172.275 185.76
L172.275 185.76
L172.292 194.4
L172.306 185.76
L172.306 185.76
L172.316 182.88
L172.316 185.76
L172.316 185.76
L172.423 194.4
L172.431 191.52
L172.476 194.4
L172.49 191.52
L172.49 191.52
L172.631 162.72
L172.637 165.6
L172.773 185.76
L172.781 182.88
L172.811 180
L172.818 182.88
L172.818 182.88
L172.827 185.76
L172.829 182.88
L172.829 182.88
L172.854 177.12
L172.859 182.88
L172.859 182.88
L172.941 194.4
L172.957 182.88
L172.957 182.88
L173.002 171.36
L173.048 182.88
L173.048 182.88
L173.052 185.76
L173.061 182.88
L173.061 182.88
L173.075 180
L173.08 182.88
L173.08 182.88
L173.167 194.4
L173.174 191.52
L173.277 174.24
L173.386 180
L173.418 182.88
L173.418 180
L173.418 180
L173.442 174.24
L173.463 180
L173.463 180
L173.597 194.4
L173.626 191.52
L173.734 168.48
L173.793 174.24
L173.92 194.4
L173.928 188.64
L173.95 182.88
L173.963 188.64
L173.963 188.64
L174.061 194.4
L174.061 191.52
L174.086 194.4
L174.096 191.52
L174.096 191.52
L174.132 182.88
L174.142 191.52
L174.142 191.52
L174.174 194.4
L174.178 191.52
L174.178 191.52
L174.192 188.64
L174.201 191.52
L174.201 191.52
L174.202 194.4
L174.206 191.52
L174.206 191.52
L174.261 182.88
L174.31 185.76
L174.365 177.12
L174.385 185.76
L174.534 194.4
L174.677 182.88
L174.774 194.4
L174.806 188.64
L174.815 185.76
L174.816 188.64
L174.816 188.64
L174.914 194.4
L174.978 185.76
L175.027 191.52
L175.05 194.4
L175.066 191.52
L175.066 191.52
L175.078 188.64
L175.087 191.52
L175.087 191.52
L175.182 194.4
L175.19 191.52
L175.215 194.4
L175.221 191.52
L175.221 191.52
L175.224 188.64
L175.229 191.52
L175.229 191.52
L175.24 194.4
L175.245 191.52
L175.245 191.52
L175.281 185.76
L175.295 191.52
L175.295 191.52
L175.352 194.4
L175.379 191.52
L175.423 194.4
L175.424 191.52
L175.424 191.52
L175.444 185.76
L175.449 191.52
L175.449 191.52
L175.45 194.4
L175.454 191.52
L175.454 191.52
L175.462 185.76
L175.466 191.52
L175.466 191.52
L175.579 194.4
L175.69 182.88
L175.773 188.64
L175.777 182.88
L175.863 171.36
L175.87 180
L175.953 185.76
L175.981 182.88
L175.983 180
L175.987 182.88
L175.987 182.88
L176.085 194.4
L176.109 191.52
L176.119 188.64
L176.121 191.52
L176.121 191.52
L176.193 194.4
L176.203 191.52
L176.203 191.52
L176.213 188.64
L176.226 191.52
L176.226 191.52
L176.256 194.4
L176.268 191.52
L176.268 191.52
L176.332 188.64
L176.352 191.52
L176.352 191.52
L176.383 194.4
L176.385 191.52
L176.385 191.52
L176.416 182.88
L176.503 185.76
L176.576 194.4
L176.599 185.76
L176.614 180
L176.63 185.76
L176.63 185.76
L176.642 194.4
L176.712 185.76
L176.712 185.76
L176.774 177.12
L176.833 180
L176.982 191.52
L176.99 188.64
L177.007 185.76
L177.024 188.64
L177.024 188.64
L177.041 194.4
L177.068 188.64
L177.068 188.64
L177.074 185.76
L177.076 188.64
L177.076 188.64
L177.196 194.4
L177.288 185.76
L177.298 191.52
L177.342 188.64
L177.344 191.52
L177.344 191.52
L177.35 194.4
L177.355 191.52
L177.355 191.52
L177.356 188.64
L177.368 191.52
L177.368 191.52
L177.388 194.4
L177.39 191.52
L177.39 191.52
L177.394 188.64
L177.396 191.52
L177.396 191.52
L177.416 194.4
L177.44 191.52
L177.44 191.52
L177.481 177.12
L177.519 191.52
L177.519 191.52
L177.601 194.4
L177.604 191.52
L177.604 191.52
L177.626 185.76
L177.641 191.52
L177.641 191.52
L177.642 194.4
L177.667 191.52
L177.667 191.52
L177.667 188.64
L177.671 191.52
L177.671 191.52
L177.694 194.4
L177.696 191.52
L177.696 191.52
L177.705 185.76
L177.72 191.52
L177.72 191.52
L177.773 194.4
L177.778 191.52
L177.778 191.52
L177.787 185.76
L177.815 191.52
L177.815 191.52
L177.866 194.4
L177.872 191.52
L177.872 191.52
L177.878 188.64
L177.883 191.52
L177.883 191.52
L177.885 194.4
L177.893 191.52
L177.893 191.52
L177.92 188.64
L177.921 191.52
L177.921 191.52
L177.943 194.4
L177.944 191.52
L177.944 191.52
L178.007 182.88
L178.022 191.52
L178.022 191.52
L178.109 194.4
L178.121 191.52
L178.121 191.52
L178.137 188.64
L178.148 191.52
L178.148 191.52
L178.15 194.4
L178.151 191.52
L178.151 191.52
L178.185 180
L178.217 191.52
L178.217 191.52
L178.283 194.4
L178.285 191.52
L178.285 191.52
L178.295 188.64
L178.353 191.52
L178.353 191.52
L178.456 194.4
L178.555 188.64
L178.566 191.52
L178.627 182.88
L178.641 191.52
L178.643 194.4
L178.646 191.52
L178.646 191.52
L178.677 185.76
L178.698 191.52
L178.698 191.52
L178.704 194.4
L178.735 191.52
L178.735 191.52
L178.82 185.76
L178.848 188.64
L178.91 194.4
L178.952 191.52
L179.019 194.4
L179.021 191.52
L179.021 191.52
L179.069 188.64
L179.073 191.52
L179.073 191.52
L179.109 194.4
L179.126 191.52
L179.126 191.52
L179.128 185.76
L179.141 191.52
L179.141 191.52
L179.216 194.4
L179.224 191.52
L179.224 191.52
L179.229 188.64
L179.237 191.52
L179.237 191.52
L179.271 194.4
L179.287 191.52
L179.287 191.52
L179.297 188.64
L179.302 191.52
L179.302 191.52
L179.338 194.4
L179.341 191.52
L179.341 191.52
L179.345 188.64
L179.353 191.52
L179.353 191.52
L179.375 194.4
L179.386 191.52
L179.386 191.52
L179.389 188.64
L179.403 191.52
L179.403 191.52
L179.511 194.4
L179.606 188.64
L179.62 191.52
L179.698 194.4
L179.699 191.52
L179.699 191.52
L179.727 182.88
L179.744 191.52
L179.744 191.52
L179.805 194.4
L179.808 191.52
L179.808 191.52
L179.82 188.64
L179.825 191.52
L179.825 191.52
L179.846 194.4
L179.851 191.52
L179.851 191.52
L179.874 185.76
L179.882 191.52
L179.882 191.52
L179.91 194.4
L179.921 191.52
L179.921 191.52
L180.026 177.12
L180.108 194.4
L180.173 185.76
L180.189 182.88
L180.206 185.76
L180.206 185.76
L180.279 194.4
L180.308 191.52
L180.357 194.4
L180.365 191.52
L180.365 191.52
L180.417 180
L180.481 188.64
L180.584 194.4
L180.587 191.52
L180.596 194.4
L180.608 191.52
L180.608 191.52
L180.64 185.76
L180.676 191.52
L180.676 191.52
L180.683 194.4
L180.697 191.52
L180.697 191.52
L180.721 185.76
L180.742 191.52
L180.742 191.52
L180.746 194.4
L180.771 191.52
L180.771 191.52
L180.794 185.76
L180.805 191.52
L180.805 191.52
L180.869 194.4
L180.878 191.52
L180.878 191.52
L180.974 177.12
L180.997 182.88
L181.023 185.76
L181.024 182.88
L181.024 182.88
L181.034 177.12
L181.042 182.88
L181.042 182.88
L181.105 194.4
L181.131 185.76
L181.23 171.36
L181.254 180
L181.284 182.88
L181.285 180
L181.285 180
L181.3 177.12
L181.313 180
L181.313 180
L181.373 194.4
L181.422 185.76
L181.519 194.4
L181.538 188.64
L181.646 194.4
L181.783 185.76
L181.921 194.4
L182.048 185.76
L182.199 194.4
L182.248 185.76
L182.307 191.52
L182.317 194.4
L182.325 191.52
L182.325 191.52
L182.361 185.76
L182.407 191.52
L182.409 194.4
L182.422 191.52
L182.422 191.52
L182.458 182.88
L182.501 191.52
L182.563 194.4
L182.583 191.52
L182.585 188.64
L182.589 191.52
L182.589 191.52
L182.594 194.4
L182.619 191.52
L182.619 191.52
L182.635 188.64
L182.66 191.52
L182.66 191.52
L182.735 194.4
L182.747 191.52
L182.747 191.52
L182.793 182.88
L182.866 185.76
L182.9 188.64
L182.906 185.76
L182.906 185.76
L182.984 171.36
L183.016 177.12
L183.079 194.4
L183.155 185.76
L183.274 194.4
L183.279 188.64
L183.329 177.12
L183.382 185.76
L183.395 188.64
L183.413 185.76
L183.413 185.76
L183.416 182.88
L183.449 185.76
L183.449 185.76
L183.462 191.52
L183.467 185.76
L183.467 185.76
L183.487 182.88
L183.498 185.76
L183.498 185.76
L183.604 194.4
L183.61 191.52
L183.624 194.4
L183.629 191.52
L183.629 191.52
L183.679 182.88
L183.74 191.52
L183.754 194.4
L183.754 191.52
L183.754 191.52
L183.786 188.64
L183.79 191.52
L183.79 191.52
L183.9 194.4
L184.012 180
L184.013 185.76
L184.036 188.64
L184.04 185.76
L184.04 185.76
L184.044 182.88
L184.051 185.76
L184.051 185.76
L184.116 194.4
L184.165 191.52
L184.202 188.64
L184.209 191.52
L184.209 191.52
L184.255 194.4
L184.255 191.52
L184.255 191.52
L184.402 174.24
L184.402 177.12
L184.464 185.76
L184.493 177.12
L184.517 171.36
L184.542 177.12
L184.542 177.12
L184.658 194.4
L184.742 188.64
L184.774 191.52
L184.777 194.4
L184.784 191.52
L184.784 191.52
L184.843 182.88
L184.878 191.52
L184.878 191.52
L184.884 194.4
L184.885 191.52
L184.885 191.52
L184.906 188.64
L184.914 191.52
L184.914 191.52
L184.951 194.4
L184.951 191.52
L184.951 191.52
L184.983 180
L185.045 191.52
L185.045 191.52
L185.124 194.4
L185.124 191.52
L185.124 191.52
L185.132 188.64
L185.133 191.52
L185.133 191.52
L185.189 194.4
L185.19 191.52
L185.19 191.52
L185.312 177.12
L185.424 194.4
L185.44 191.52
L185.527 194.4
L185.528 191.52
L185.6 185.76
L185.62 191.52
L185.62 191.52
L185.643 194.4
L185.649 191.52
L185.649 191.52
L185.65 188.64
L185.65 191.52
L185.65 191.52
L185.658 194.4
L185.665 191.52
L185.665 191.52
L185.666 188.64
L185.669 191.52
L185.669 191.52
L185.671 194.4
L185.677 191.52
L185.677 191.52
L185.734 180
L185.785 188.64
L185.884 171.36
L185.912 177.12
L186.046 191.52
L186.056 185.76
L186.069 182.88
L186.086 185.76
L186.086 185.76
L186.198 194.4
L186.309 182.88
L186.315 188.64
L186.342 185.76
L186.358 188.64
L186.358 188.64
L186.376 191.52
L186.379 188.64
L186.379 188.64
L186.416 177.12
L186.439 188.64
L186.439 188.64
L186.498 194.4
L186.533 188.64
L186.533 188.64
L186.599 180
L186.626 185.76
L186.661 177.12
L186.681 185.76
L186.681 185.76
L186.771 194.4
L186.806 191.52
L186.919 171.36
L186.943 180
L186.958 185.76
L186.995 180
L186.995 180
L187.003 174.24
L187.048 180
L187.048 180
L187.051 182.88
L187.055 180
L187.055 180
L187.073 171.36
L187.075 180
L187.075 180
L187.101 182.88
L187.103 180
L187.103 180
L187.117 177.12
L187.12 180
L187.12 180
L187.234 194.4
L187.449 165.6
L187.454 171.36
L187.511 182.88
L187.574 174.24
L187.61 168.48
L187.638 174.24
L187.638 174.24
L187.772 194.4
L187.789 191.52
L187.808 185.76
L187.855 191.52
L187.855 191.52
L187.869 194.4
L187.878 191.52
L187.878 191.52
L187.888 185.76
L187.908 191.52
L187.908 191.52
L187.929 194.4
L187.945 191.52
L187.945 191.52
L188.056 180
L188.063 182.88
L188.165 194.4
L188.182 188.64
L188.21 182.88
L188.236 188.64
L188.236 188.64
L188.257 194.4
L188.26 188.64
L188.26 188.64
L188.265 185.76
L188.265 188.64
L188.265 188.64
L188.324 194.4
L188.338 188.64
L188.338 188.64
L188.339 185.76
L188.34 188.64
L188.34 188.64
L188.407 194.4
L188.437 188.64
L188.448 185.76
L188.45 188.64
L188.45 188.64
L188.563 194.4
L188.564 191.52
L188.572 185.76
L188.586 191.52
L188.586 191.52
L188.587 194.4
L188.587 191.52
L188.587 191.52
L188.587 188.64
L188.597 191.52
L188.597 191.52
L188.632 194.4
L188.635 191.52
L188.635 191.52
L188.669 182.88
L188.693 191.52
L188.693 191.52
L188.729 194.4
L188.729 191.52
L188.729 191.52
L188.767 185.76
L188.785 191.52
L188.785 191.52
L188.796 194.4
L188.797 191.52
L188.797 191.52
L188.894 177.12
L188.908 182.88
L188.925 174.24
L188.988 182.88
L188.988 182.88
L189.104 191.52
L189.116 188.64
L189.131 180
L189.156 188.64
L189.156 188.64
L189.208 194.4
L189.216 188.64
L189.216 188.64
L189.226 182.88
L189.231 188.64
L189.231 188.64
L189.306 194.4
L189.337 188.64
L189.339 185.76
L189.341 188.64
L189.341 188.64
L189.377 194.4
L189.382 188.64
L189.382 188.64
L189.411 185.76
L189.425 188.64
L189.425 188.64
L189.494 194.4
L189.498 188.64
L189.498 188.64
L189.503 185.76
L189.521 188.64
L189.521 188.64
L189.561 194.4
L189.573 188.64
L189.573 188.64
L189.574 185.76
L189.579 188.64
L189.579 188.64
L189.597 191.52
L189.619 188.64
L189.619 188.64
L189.697 177.12
L189.724 182.88
L189.784 194.4
L189.817 182.88
L189.824 180
L189.83 182.88
L189.83 182.88
L189.842 185.76
L189.847 182.88
L189.847 182.88
L189.875 180
L189.877 182.88
L189.877 182.88
L189.975 194.4
L189.988 188.64
L190.047 182.88
L190.071 188.64
L190.071 188.64
L190.175 194.4
L190.179 191.52
L190.215 194.4
L190.218 191.52
L190.218 191.52
L190.235 188.64
L190.248 191.52
L190.248 191.52
L190.276 194.4
L190.278 191.52
L190.278 191.52
L190.37 177.12
L190.391 188.64
L190.5 194.4
L190.642 177.12
L190.65 180
L190.769 194.4
L190.852 185.76
L190.866 191.52
L190.928 194.4
L190.944 191.52
L191.007 185.76
L191.024 191.52
L191.024 194.4
L191.026 191.52
L191.026 191.52
L191.075 182.88
L191.136 188.64
L191.258 194.4
L191.344 188.64
L191.358 194.4
L191.523 180
L191.555 185.76
L191.566 188.64
L191.583 185.76
L191.583 185.76
L191.612 182.88
L191.614 185.76
L191.614 185.76
L191.699 194.4
L191.722 185.76
L191.744 182.88
L191.754 185.76
L191.754 185.76
L191.916 194.4
L192.022 188.64
L192.04 191.52
L192.063 188.64
L192.063 188.64
L192.147 171.36
L192.16 188.64
L192.16 188.64
L192.164 194.4
L192.218 188.64
L192.218 188.64
L192.225 185.76
L192.228 188.64
L192.228 188.64
L192.229 191.52
L192.232 188.64
L192.232 188.64
L192.282 180
L192.305 188.64
L192.305 188.64
L192.399 194.4
L192.416 188.64
L192.513 194.4
L192.524 188.64
L192.572 182.88
L192.59 188.64
L192.59 188.64
L192.591 191.52
L192.593 188.64
L192.593 188.64
L192.674 174.24
L192.692 182.88
L192.839 194.4
L192.851 191.52
L192.864 188.64
L192.875 191.52
L192.875 191.52
L192.907 194.4
L192.911 191.52
L192.911 191.52
L192.921 188.64
L192.937 191.52
L192.937 191.52
L192.97 194.4
L192.972 191.52
L192.972 191.52
L192.99 188.64
L193.001 191.52
L193.001 191.52
L193.098 194.4
L193.106 191.52
L193.106 191.52
L193.107 188.64
L193.112 191.52
L193.112 191.52
L193.139 194.4
L193.147 191.52
L193.147 191.52
L193.186 182.88
L193.229 191.52
L193.229 191.52
L193.249 194.4
L193.25 191.52
L193.25 191.52
L193.282 188.64
L193.288 191.52
L193.288 191.52
L193.3 194.4
L193.309 191.52
L193.309 191.52
L193.318 188.64
L193.328 191.52
L193.328 191.52
L193.35 194.4
L193.354 191.52
L193.354 191.52
L193.377 188.64
L193.38 191.52
L193.38 191.52
L193.391 194.4
L193.393 191.52
L193.393 191.52
L193.404 188.64
L193.407 191.52
L193.407 191.52
L193.409 194.4
L193.418 191.52
L193.418 191.52
L193.454 182.88
L193.478 191.52
L193.478 191.52
L193.479 194.4
L193.48 191.52
L193.48 191.52
L193.517 185.76
L193.572 191.52
L193.677 194.4
L193.721 188.64
L193.786 194.4
L193.878 188.64
L193.894 191.52
L193.918 194.4
L193.919 191.52
L193.919 191.52
L193.926 188.64
L193.929 191.52
L193.929 191.52
L193.941 194.4
L193.942 191.52
L193.942 191.52
L193.994 182.88
L194.043 191.52
L194.05 194.4
L194.066 191.52
L194.066 191.52
L194.076 188.64
L194.079 191.52
L194.079 191.52
L194.097 194.4
L194.109 191.52
L194.109 191.52
L194.122 185.76
L194.135 191.52
L194.135 191.52
L194.195 194.4
L194.2 191.52
L194.235 177.12
L194.311 185.76
L194.34 194.4
L194.375 185.76
L194.375 185.76
L194.382 177.12
L194.393 182.88" style="fill:none;stroke:#0000ff;stroke-linecap:square;"/>
   </g>
   <g id="matplotlib.axis_1">
    <g id="text_1">
     <!-- $t$ -->
     <defs>
      <path d="
M1.79688 38.5938
L10.2031 38.5938
L10.2031 11.7031
C10.2031 0.703125 15.0938 -1.09375 18.4062 -1.09375
C22.9062 -1.09375 28 -0.09375 33.2031 2.70312
L31.5938 8.59375
C30.2031 7.59375 27.0938 5.29688 22.7969 5.29688
C17.5938 5.29688 17.4062 11.2031 17.4062 14
L17.4062 38.5938
L31.5 38.5938
L31.5 44.5
L17.4062 44.5
L17.4062 57.0938
L10.4062 57.0938
L10.4062 44.5
L1.79688 44.5
z
" id="CMUSansSerif-74"/>
     </defs>
     <g transform="translate(108.036 209.79725)scale(0.144 -0.144)">
      <use transform="translate(0.0 0.90625)" xlink:href="#CMUSansSerif-74"/>
     </g>
    </g>
   </g>
   <g id="matplotlib.axis_2">
    <g id="text_2">
     <!-- $n(t)$ -->
     <defs>
      <path d="
M8 0
L15.7969 0
L15.7969 24
C15.7969 31.4062 18.2969 39.4062 26 39.4062
C35.7969 39.4062 35.7969 31.9062 35.7969 28.0938
L35.7969 0
L43.5938 0
L43.5938 28.7969
C43.5938 35.7969 42.7031 45.5 29.9062 45.5
C21.0938 45.5 16.7031 39.7969 15.2969 38
L15.2969 45
L8 45
z
" id="CMUSansSerif-6e"/>
      <path d="
M5.5 -25
L11.5938 -25
C18.4062 -18.9062 30.7969 -5.09375 30.7969 25.0938
C30.7969 55 18.4062 68.9062 11.5938 75
L5.5 75
C10.2031 70 23 57.7031 23 25
C23 -6.40625 11.5 -18.5938 5.5 -25" id="CMUSansSerif-29"/>
      <path d="
M8 25
C8 -5.40625 20.7031 -19.2031 27.0938 -25
L33.2969 -25
L30.0938 -21.5938
C18.4062 -8.09375 15.7969 10.2969 15.7969 25
C15.7969 38.7031 18.0938 52.9062 25.2031 64.7969
C28.0938 69.7031 30.4062 71.9062 33.2969 75
L27.0938 75
C20.2969 68.9062 8 55.0938 8 25" id="CMUSansSerif-28"/>
     </defs>
     <g transform="translate(18.4 119.952)rotate(-90.0)scale(0.144 -0.144)">
      <use xlink:href="#CMUSansSerif-6e"/>
      <use transform="translate(51.69999694824219 0.0)" xlink:href="#CMUSansSerif-28"/>
      <use transform="translate(90.59999084472656 0.0)" xlink:href="#CMUSansSerif-74"/>
      <use transform="translate(126.69998168945312 0.0)" xlink:href="#CMUSansSerif-29"/>
     </g>
    </g>
   </g>
   <g id="patch_3">
    <path d="
M194.4 194.4
L194.4 21.6" style="fill:none;stroke:#000000;"/>
   </g>
   <g id="patch_4">
    <path d="
M27 21.6
L194.4 21.6" style="fill:none;stroke:#000000;"/>
   </g>
   <g id="patch_5">
    <path d="
M27 194.4
L27 21.6" style="fill:none;stroke:#000000;"/>
   </g>
   <g id="patch_6">
    <path d="
M27 194.4
L194.4 194.4" style="fill:none;stroke:#000000;"/>
   </g>
  </g>
 </g>
 <defs>
  <clipPath id="p4c72f1c596">
   <rect height="172.8" width="167.4" x="27.0" y="21.6"/>
  </clipPath>
 </defs>
</svg>
