<?xml version="1.0" encoding="utf-8" standalone="no"?>
<!DOCTYPE svg PUBLIC "-//W3C//DTD SVG 1.1//EN"
  "http://www.w3.org/Graphics/SVG/1.1/DTD/svg11.dtd">
<!-- Created with matplotlib (http://matplotlib.org/) -->
<svg height="216pt" version="1.1" viewBox="0 0 216 216" width="216pt" xmlns="http://www.w3.org/2000/svg" xmlns:xlink="http://www.w3.org/1999/xlink">
 <defs>
  <style type="text/css">
*{stroke-linecap:butt;stroke-linejoin:round;}
  </style>
 </defs>
 <g id="figure_1">
  <g id="patch_1">
   <path d="
M0 216
L216 216
L216 0
L0 0
z
" style="fill:#ffffff;"/>
  </g>
  <g id="axes_1">
   <g id="patch_2">
    <path d="
M27 194.4
L194.4 194.4
L194.4 21.6
L27 21.6
z
" style="fill:#ffffff;"/>
   </g>
   <g id="line2d_1">
    <path clip-path="url(#p4c72f1c596)" d="
M27 122.4
L27.0172 119.52
L27.0172 119.52
L27.0172 119.52
L27.1732 148.32
L27.2228 145.44
L27.2408 148.32
L27.2491 145.44
L27.2491 145.44
L27.2734 142.56
L27.2758 145.44
L27.2758 145.44
L27.3906 159.84
L27.5028 154.08
L27.6371 145.44
L27.7508 139.68
L27.7626 142.56
L27.7689 145.44
L27.7726 142.56
L27.7726 142.56
L27.8634 128.16
L27.9118 136.8
L27.9303 139.68
L27.9658 136.8
L27.9658 136.8
L28.0428 128.16
L28.0766 133.92
L28.1688 142.56
L28.1915 139.68
L28.2853 131.04
L28.2902 133.92
L28.334 139.68
L28.3741 133.92
L28.4771 131.04
L28.5637 133.92
L28.5751 131.04
L28.7137 116.64
L28.7316 113.76
L28.7384 116.64
L28.7384 116.64
L28.7579 119.52
L28.7597 116.64
L28.7597 116.64
L28.7616 113.76
L28.7622 116.64
L28.7622 116.64
L28.8436 133.92
L28.8782 131.04
L29.0134 108
L29.0443 110.88
L29.0469 108
L29.0469 108
L29.0509 105.12
L29.0572 108
L29.0572 108
L29.1292 128.16
L29.2065 125.28
L29.3096 139.68
L29.3424 133.92
L29.4679 122.4
L29.5387 116.64
L29.5478 113.76
L29.5729 116.64
L29.5729 116.64
L29.6518 125.28
L29.6849 119.52
L29.6927 116.64
L29.6945 119.52
L29.6945 119.52
L29.7846 131.04
L29.8251 125.28
L29.8847 122.4
L29.916 125.28
L30.0077 133.92
L30.0227 125.28
L30.091 131.04
L30.1024 125.28
L30.1289 122.4
L30.1333 125.28
L30.1333 125.28
L30.2381 145.44
L30.2668 154.08
L30.3256 145.44
L30.3256 145.44
L30.4095 139.68
L30.4273 145.44
L30.4273 145.44
L30.4287 148.32
L30.4294 145.44
L30.4294 145.44
L30.6109 125.28
L30.6132 128.16
L30.618 131.04
L30.6217 128.16
L30.6217 128.16
L30.7085 122.4
L30.7325 128.16
L30.7354 131.04
L30.7355 128.16
L30.7355 128.16
L30.765 113.76
L30.8343 119.52
L31.0695 90.72
L31.0846 102.24
L31.1921 119.52
L31.2661 108
L31.307 116.64
L31.4013 122.4
L31.4129 116.64
L31.5357 105.12
L31.5441 110.88
L31.6127 125.28
L31.6541 122.4
L31.6784 119.52
L31.6867 122.4
L31.6867 122.4
L31.6879 125.28
L31.6988 122.4
L31.6988 122.4
L31.7879 113.76
L31.8212 108
L31.8751 110.88
L31.9099 113.76
L31.9155 110.88
L31.9155 110.88
L31.9799 96.48
L32.0512 105.12
L32.2113 122.4
L32.2155 119.52
L32.2271 116.64
L32.2334 119.52
L32.2334 119.52
L32.2718 131.04
L32.3286 119.52
L32.3512 116.64
L32.3689 119.52
L32.3689 119.52
L32.374 122.4
L32.421 119.52
L32.421 119.52
L32.4232 116.64
L32.433 119.52
L32.433 119.52
L32.4358 122.4
L32.4444 119.52
L32.4444 119.52
L32.4689 116.64
L32.4694 119.52
L32.4694 119.52
L32.4948 122.4
L32.5343 119.52
L32.5343 119.52
L32.5989 110.88
L32.6269 119.52
L32.6269 119.52
L32.7096 131.04
L32.7227 122.4
L32.7701 119.52
L32.7853 122.4
L32.7853 122.4
L32.8417 131.04
L32.8764 128.16
L32.9429 122.4
L32.9497 128.16
L32.9564 131.04
L32.9615 128.16
L32.9615 128.16
L33.0073 119.52
L33.067 125.28
L33.1324 131.04
L33.1734 125.28
L33.2329 113.76
L33.2946 122.4
L33.3064 125.28
L33.3117 122.4
L33.3117 122.4
L33.44 93.6
L33.4517 96.48
L33.5565 108
L33.5964 105.12
L33.6054 102.24
L33.6192 105.12
L33.6192 105.12
L33.6553 116.64
L33.7367 108
L33.8148 96.48
L33.8588 99.36
L34.0692 119.52
L34.0808 116.64
L34.1293 113.76
L34.1492 116.64
L34.1492 116.64
L34.1827 122.4
L34.2644 119.52
L34.3584 110.88
L34.4298 116.64
L34.5573 128.16
L34.5922 122.4
L34.6034 128.16
L34.6034 128.16
L34.6677 136.8
L34.6963 133.92
L34.777 139.68
L34.7805 133.92
L34.8388 119.52
L34.8615 125.28
L34.9977 131.04
L35.0035 133.92
L35.0142 131.04
L35.0142 131.04
L35.019 128.16
L35.0469 131.04
L35.0469 131.04
L35.1493 159.84
L35.2542 139.68
L35.3511 142.56
L35.4196 145.44
L35.4241 142.56
L35.4706 131.04
L35.6046 133.92
L35.6073 136.8
L35.6089 133.92
L35.6089 133.92
L35.6664 128.16
L35.6986 133.92
L35.7115 136.8
L35.751 133.92
L35.8145 131.04
L35.8154 133.92
L35.8189 136.8
L35.8384 133.92
L35.8384 133.92
L35.8428 131.04
L35.8441 133.92
L35.8441 133.92
L35.8471 136.8
L35.8531 133.92
L35.8531 133.92
L35.9984 125.28
L36.0508 133.92
L36.1294 128.16
L36.2354 108
L36.2857 110.88
L36.2868 108
L36.2868 108
L36.2931 102.24
L36.3019 108
L36.3019 108
L36.4313 139.68
L36.4623 142.56
L36.4657 139.68
L36.4657 139.68
L36.5371 133.92
L36.5574 139.68
L36.5574 139.68
L36.6864 156.96
L36.7597 139.68
L36.8329 142.56
L36.9416 145.44
L36.9542 139.68
L36.986 145.44
L36.986 145.44
L37.0402 151.2
L37.0615 145.44
L37.1005 142.56
L37.1098 145.44
L37.1098 145.44
L37.116 148.32
L37.1183 145.44
L37.1183 145.44
L37.1519 142.56
L37.16 145.44
L37.16 145.44
L37.2639 151.2
L37.4073 156.96
L37.4075 154.08
L37.4669 136.8
L37.5302 145.44
L37.7223 131.04
L37.7252 133.92
L37.7431 136.8
L37.7464 133.92
L37.7464 133.92
L37.7626 131.04
L37.7759 133.92
L37.7759 133.92
L37.8194 142.56
L37.8504 139.68
L37.8982 136.8
L37.8991 139.68
L37.9191 142.56
L37.9446 139.68
L37.9446 139.68
L37.982 128.16
L38.0257 139.68
L38.0972 151.2
L38.1698 145.44
L38.3254 116.64
L38.3288 113.76
L38.3556 116.64
L38.3556 116.64
L38.3731 119.52
L38.3734 116.64
L38.3734 116.64
L38.3938 110.88
L38.4211 116.64
L38.4211 116.64
L38.4699 119.52
L38.4732 116.64
L38.4732 116.64
L38.6477 93.6
L38.656 96.48
L38.7447 110.88
L38.7639 99.36
L38.7929 93.6
L38.8012 99.36
L38.8012 99.36
L38.8277 108
L38.854 99.36
L38.854 99.36
L38.9317 96.48
L38.9331 99.36
L38.9331 99.36
L38.9526 108
L39.0147 99.36
L39.0147 99.36
L39.2514 73.44
L39.3459 84.96
L39.3623 79.2
L39.4592 50.4
L39.4966 56.16
L39.4996 59.04
L39.5059 56.16
L39.5059 56.16
L39.5108 53.28
L39.5111 56.16
L39.5111 56.16
L39.6414 73.44
L39.6586 67.68
L39.6857 73.44
L39.6857 73.44
L39.6925 79.2
L39.6964 73.44
L39.6964 73.44
L39.6985 70.56
L39.6999 73.44
L39.6999 73.44
L39.7841 90.72
L39.7972 96.48
L39.8202 90.72
L39.8202 90.72
L39.8436 87.84
L39.8528 90.72
L39.8528 90.72
L40.01 113.76
L40.0213 110.88
L40.032 113.76
L40.032 113.76
L40.138 116.64
L40.1403 113.76
L40.1792 110.88
L40.1836 113.76
L40.1836 113.76
L40.2383 116.64
L40.2427 113.76
L40.2427 113.76
L40.3708 102.24
L40.3952 105.12
L40.6477 136.8
L40.6656 133.92
L40.6756 131.04
L40.6901 133.92
L40.6901 133.92
L40.7145 139.68
L40.7765 133.92
L40.7837 131.04
L40.793 133.92
L40.793 133.92
L40.7966 136.8
L40.8066 133.92
L40.8066 133.92
L40.8725 122.4
L40.8989 131.04
L40.9283 139.68
L40.9677 131.04
L40.9677 131.04
L40.9994 122.4
L41.0175 131.04
L41.0175 131.04
L41.2159 142.56
L41.2224 139.68
L41.4034 128.16
L41.4132 131.04
L41.4274 136.8
L41.4602 131.04
L41.4602 131.04
L41.5256 122.4
L41.5273 119.52
L41.5434 122.4
L41.5434 122.4
L41.6157 142.56
L41.6337 139.68
L41.7599 148.32
L41.7817 142.56
L41.8689 125.28
L41.9445 133.92
L41.9539 136.8
L41.9586 133.92
L41.9586 133.92
L42.0495 128.16
L42.0565 131.04
L42.1718 148.32
L42.2387 142.56
L42.393 148.32
L42.5876 136.8
L42.6154 139.68
L42.6287 136.8
L42.6287 136.8
L42.7014 119.52
L42.7461 131.04
L42.774 139.68
L42.7998 131.04
L42.7998 131.04
L42.8156 128.16
L42.8173 131.04
L42.8173 131.04
L42.8183 133.92
L42.8184 131.04
L42.8184 131.04
L42.9348 116.64
L42.9384 119.52
L42.9773 128.16
L43.0527 122.4
L43.0767 119.52
L43.0875 122.4
L43.0875 122.4
L43.0945 128.16
L43.1354 122.4
L43.1354 122.4
L43.1426 119.52
L43.1587 122.4
L43.1587 122.4
L43.1624 128.16
L43.1765 122.4
L43.1765 122.4
L43.2878 110.88
L43.3798 122.4
L43.4149 116.64
L43.5101 102.24
L43.5436 108
L43.593 119.52
L43.6204 108
L43.6204 108
L43.6235 105.12
L43.6393 108
L43.6393 108
L43.6417 110.88
L43.6486 108
L43.6486 108
L43.6737 99.36
L43.7039 108
L43.7039 108
L43.7041 110.88
L43.7192 108
L43.7192 108
L43.7237 105.12
L43.7274 108
L43.7274 108
L43.7481 110.88
L43.7559 108
L43.7559 108
L43.7577 105.12
L43.791 108
L43.791 108
L43.9185 116.64
L43.9533 102.24
L44.0172 113.76
L44.2859 145.44
L44.3286 136.8
L44.4508 122.4
L44.5559 131.04
L44.5732 128.16
L44.5904 131.04
L44.592 128.16
L44.592 128.16
L44.685 119.52
L44.731 122.4
L44.7351 119.52
L44.7351 119.52
L44.8232 99.36
L44.9097 110.88
L44.9706 105.12
L45.0465 99.36
L45.095 102.24
L45.1806 122.4
L45.1906 119.52
L45.2198 122.4
L45.2244 119.52
L45.2244 119.52
L45.2426 113.76
L45.2539 119.52
L45.2539 119.52
L45.3603 142.56
L45.4746 136.8
L45.4925 139.68
L45.5675 148.32
L45.6111 142.56
L45.6572 148.32
L45.6706 142.56
L45.7697 133.92
L45.7698 136.8
L45.8899 142.56
L45.8984 139.68
L46.0114 108
L46.0416 99.36
L46.0601 108
L46.0601 108
L46.0917 110.88
L46.0962 108
L46.0962 108
L46.2269 93.6
L46.261 87.84
L46.2627 93.6
L46.2627 93.6
L46.5176 116.64
L46.6122 128.16
L46.6367 119.52
L46.7093 108
L46.7315 119.52
L46.7315 119.52
L46.7689 122.4
L46.7691 119.52
L46.7691 119.52
L46.8105 110.88
L46.8822 113.76
L46.9301 122.4
L46.951 113.76
L46.951 113.76
L47.0013 105.12
L47.0566 113.76
L47.0871 110.88
L47.105 113.76
L47.105 113.76
L47.2467 125.28
L47.2897 116.64
L47.3252 125.28
L47.3925 128.16
L47.3929 125.28
L47.4794 105.12
L47.5146 108
L47.6095 133.92
L47.6428 125.28
L47.6607 122.4
L47.6637 125.28
L47.6637 125.28
L47.7185 136.8
L47.7746 125.28
L47.8174 119.52
L47.8594 125.28
L47.9042 128.16
L47.9076 125.28
L47.9076 125.28
L47.9769 116.64
L48.0173 125.28
L48.0372 119.52
L48.0662 125.28
L48.0662 125.28
L48.0795 128.16
L48.0811 125.28
L48.0811 125.28
L48.1172 122.4
L48.1182 125.28
L48.1182 125.28
L48.2051 139.68
L48.2528 133.92
L48.3071 131.04
L48.3177 133.92
L48.3177 133.92
L48.3488 136.8
L48.3639 133.92
L48.3639 133.92
L48.4019 131.04
L48.429 133.92
L48.429 133.92
L48.4318 136.8
L48.4857 133.92
L48.4857 133.92
L48.5734 125.28
L48.5975 131.04
L48.6 133.92
L48.6279 131.04
L48.6279 131.04
L48.6408 128.16
L48.6424 131.04
L48.6424 131.04
L48.652 133.92
L48.6538 131.04
L48.6538 131.04
L48.6999 128.16
L48.72 131.04
L48.7822 145.44
L48.8424 142.56
L48.8684 145.44
L48.8749 142.56
L48.8749 142.56
L48.925 136.8
L48.9413 142.56
L48.9413 142.56
L49.0162 148.32
L49.0375 145.44
L49.0864 142.56
L49.0936 145.44
L49.0936 145.44
L49.1103 151.2
L49.1139 145.44
L49.1139 145.44
L49.1925 139.68
L49.2101 142.56
L49.2287 145.44
L49.2296 142.56
L49.2296 142.56
L49.2328 136.8
L49.2783 142.56
L49.2783 142.56
L49.2795 145.44
L49.2854 142.56
L49.2854 142.56
L49.4149 128.16
L49.4354 131.04
L49.5416 139.68
L49.5581 133.92
L49.6771 102.24
L49.8861 133.92
L49.9393 128.16
L50.0614 119.52
L50.1096 116.64
L50.1126 119.52
L50.1126 119.52
L50.1214 122.4
L50.1263 119.52
L50.1263 119.52
L50.1269 116.64
L50.1584 119.52
L50.1584 119.52
L50.2616 133.92
L50.2668 128.16
L50.4746 93.6
L50.477 96.48
L50.4895 102.24
L50.5 96.48
L50.5 96.48
L50.5736 82.08
L50.6133 84.96
L50.6506 90.72
L50.6713 84.96
L50.6713 84.96
L50.6784 82.08
L50.6818 84.96
L50.6818 84.96
L50.6833 87.84
L50.6836 84.96
L50.6836 84.96
L50.688 82.08
L50.6944 84.96
L50.6944 84.96
L50.8416 105.12
L50.8687 108
L50.9073 105.12
L50.9073 105.12
L51.0276 82.08
L51.0738 87.84
L51.1248 84.96
L51.1281 87.84
L51.1281 87.84
L51.2025 93.6
L51.211 87.84
L51.211 87.84
L51.2272 82.08
L51.282 87.84
L51.3316 93.6
L51.3538 87.84
L51.4263 79.2
L51.4629 84.96
L51.549 96.48
L51.5795 87.84
L51.61 82.08
L51.6338 87.84
L51.6338 87.84
L51.8032 119.52
L51.8102 116.64
L51.8331 113.76
L51.8506 116.64
L51.8506 116.64
L51.9948 133.92
L52.0133 131.04
L52.014 133.92
L52.014 133.92
L52.0263 136.8
L52.0279 133.92
L52.0279 133.92
L52.1567 113.76
L52.2573 125.28
L52.2791 122.4
L52.3048 119.52
L52.3085 122.4
L52.3085 122.4
L52.4966 145.44
L52.5192 142.56
L52.5795 145.44
L52.5795 145.44
L52.6089 151.2
L52.6419 145.44
L52.6419 145.44
L52.7348 136.8
L52.7375 139.68
L52.7883 148.32
L52.8639 142.56
L52.884 139.68
L52.8849 142.56
L52.8849 142.56
L52.9036 148.32
L52.9547 142.56
L52.9547 142.56
L53.0999 119.52
L53.2891 105.12
L53.3475 110.88
L53.3643 108
L53.4192 105.12
L53.4301 108
L53.4301 108
L53.4307 110.88
L53.4431 108
L53.4431 108
L53.4914 99.36
L53.5428 108
L53.6223 113.76
L53.6564 116.64
L53.6658 113.76
L53.6658 113.76
L53.7761 105.12
L53.7859 102.24
L53.7971 105.12
L53.7971 105.12
L53.8344 110.88
L53.8636 105.12
L53.8636 105.12
L53.898 96.48
L53.9662 102.24
L54.0214 110.88
L54.0514 102.24
L54.0514 102.24
L54.0975 96.48
L54.1603 102.24
L54.2349 110.88
L54.2754 119.52
L54.3222 110.88
L54.3222 110.88
L54.4576 99.36
L54.467 102.24
L54.4747 99.36
L54.4747 99.36
L54.4752 96.48
L54.4762 99.36
L54.4762 99.36
L54.4777 102.24
L54.4905 99.36
L54.4905 99.36
L54.5353 96.48
L54.5387 99.36
L54.5387 99.36
L54.56 110.88
L54.6352 105.12
L54.6506 102.24
L54.6539 105.12
L54.6539 105.12
L54.7425 128.16
L54.7674 116.64
L54.7746 110.88
L54.7996 116.64
L54.7996 116.64
L54.8633 119.52
L54.9051 116.64
L54.9463 110.88
L54.9799 116.64
L54.9799 116.64
L54.9884 122.4
L55.0228 116.64
L55.0228 116.64
L55.084 113.76
L55.1176 116.64
L55.1176 116.64
L55.2015 125.28
L55.2284 122.4
L55.3482 108
L55.359 110.88
L55.3713 108
L55.3779 110.88
L55.3779 110.88
L55.3809 113.76
L55.392 110.88
L55.392 110.88
L55.4677 99.36
L55.5551 105.12
L55.5922 110.88
L55.5941 105.12
L55.5941 105.12
L55.6588 93.6
L55.7018 102.24
L55.8702 122.4
L55.9282 128.16
L55.9621 122.4
L56.01 119.52
L56.0132 122.4
L56.0132 122.4
L56.0311 125.28
L56.0366 122.4
L56.0366 122.4
L56.1206 108
L56.1777 113.76
L56.1895 116.64
L56.1916 113.76
L56.1916 113.76
L56.2562 105.12
L56.3202 110.88
L56.3237 113.76
L56.3466 110.88
L56.3466 110.88
L56.3671 102.24
L56.3857 110.88
L56.3857 110.88
L56.3973 113.76
L56.4042 110.88
L56.4042 110.88
L56.4402 108
L56.4579 110.88
L56.4579 110.88
L56.4592 116.64
L56.4655 110.88
L56.4655 110.88
L56.5551 96.48
L56.5714 105.12
L56.6323 102.24
L56.6339 105.12
L56.6531 110.88
L56.6931 105.12
L56.6931 105.12
L56.7131 93.6
L56.7841 102.24
L56.9569 119.52
L56.9693 113.76
L56.9697 110.88
L56.9875 113.76
L56.9875 113.76
L56.9917 116.64
L56.9962 113.76
L56.9962 113.76
L57.0262 105.12
L57.0815 110.88
L57.2022 122.4
L57.2144 128.16
L57.2415 122.4
L57.2415 122.4
L57.2648 116.64
L57.283 122.4
L57.283 122.4
L57.32 128.16
L57.3736 122.4
L57.3736 122.4
L57.3737 119.52
L57.3831 122.4
L57.3831 122.4
L57.4759 131.04
L57.479 128.16
L57.553 119.52
L57.5712 128.16
L57.6884 136.8
L57.718 139.68
L57.7351 136.8
L57.7351 136.8
L57.7568 133.92
L57.7745 136.8
L57.7745 136.8
L57.8649 145.44
L57.8765 142.56
L57.9339 128.16
L57.9842 142.56
L58.0109 151.2
L58.1032 145.44
L58.1226 142.56
L58.1318 145.44
L58.1318 145.44
L58.1422 151.2
L58.2018 145.44
L58.2018 145.44
L58.2099 142.56
L58.2181 145.44
L58.2181 145.44
L58.2402 148.32
L58.2486 145.44
L58.2486 145.44
L58.3578 128.16
L58.4984 119.52
L58.5301 122.4
L58.5405 119.52
L58.5405 119.52
L58.574 110.88
L58.6643 116.64
L58.7568 131.04
L58.7872 128.16
L58.8597 136.8
L58.8737 128.16
L59.0073 119.52
L59.1123 139.68
L59.146 133.92
L59.1766 128.16
L59.1965 133.92
L59.1965 133.92
L59.2107 136.8
L59.2139 133.92
L59.2139 133.92
L59.2207 131.04
L59.2227 133.92
L59.2227 133.92
L59.2415 142.56
L59.2642 133.92
L59.2642 133.92
L59.4392 105.12
L59.5873 113.76
L59.7898 131.04
L59.8631 128.16
L59.8725 125.28
L59.8746 128.16
L59.8746 128.16
L59.8884 131.04
L59.9019 128.16
L59.9019 128.16
L60.0053 116.64
L60.0138 119.52
L60.0477 116.64
L60.0639 119.52
L60.1032 122.4
L60.1223 119.52
L60.1223 119.52
L60.1838 113.76
L60.1944 119.52
L60.1944 119.52
L60.2673 128.16
L60.2837 122.4
L60.3342 125.28
L60.371 122.4
L60.3716 119.52
L60.3716 122.4
L60.3716 122.4
L60.437 125.28
L60.4663 122.4
L60.4806 119.52
L60.4821 122.4
L60.4821 122.4
L60.5933 145.44
L60.6483 136.8
L60.6957 133.92
L60.7055 136.8
L60.7055 136.8
L60.7068 139.68
L60.7102 136.8
L60.7102 136.8
L60.8442 113.76
L60.8874 128.16
L60.9553 122.4
L60.9871 125.28
L61.0311 122.4
L61.0311 122.4
L61.0883 105.12
L61.131 110.88
L61.2598 119.52
L61.3536 108
L61.3638 102.24
L61.3763 108
L61.3763 108
L61.5131 125.28
L61.5543 122.4
L61.5572 125.28
L61.5572 125.28
L61.5686 128.16
L61.5813 125.28
L61.5813 125.28
L61.6469 116.64
L61.6661 125.28
L61.6661 125.28
L61.6661 128.16
L61.6704 125.28
L61.6704 125.28
L61.6718 122.4
L61.6756 125.28
L61.6756 125.28
L61.7154 128.16
L61.733 125.28
L61.733 125.28
L61.8295 116.64
L61.8366 119.52
L61.8463 122.4
L61.8619 119.52
L61.8619 119.52
L61.9912 102.24
L61.9935 105.12
L62.1192 90.72
L62.1349 96.48
L62.2178 116.64
L62.2628 108
L62.2815 113.76
L62.2835 108
L62.2835 108
L62.3681 93.6
L62.3973 96.48
L62.4106 99.36
L62.412 96.48
L62.412 96.48
L62.413 93.6
L62.4278 96.48
L62.4278 96.48
L62.444 102.24
L62.4551 96.48
L62.4551 96.48
L62.4914 93.6
L62.5028 96.48
L62.5028 96.48
L62.6071 122.4
L62.6585 128.16
L62.6857 122.4
L62.6857 122.4
L62.7831 113.76
L62.8637 122.4
L62.946 116.64
L62.981 113.76
L62.985 116.64
L62.985 116.64
L63.0999 136.8
L63.1123 133.92
L63.1369 136.8
L63.1369 136.8
L63.1573 142.56
L63.1659 136.8
L63.1659 136.8
L63.1963 133.92
L63.1985 136.8
L63.1985 136.8
L63.2222 139.68
L63.2387 136.8
L63.2387 136.8
L63.2782 133.92
L63.2797 136.8
L63.2797 136.8
L63.3375 148.32
L63.356 145.44
L63.5487 156.96
L63.5534 154.08
L63.6242 151.2
L63.6523 154.08
L63.7247 156.96
L63.7309 154.08
L63.7309 154.08
L63.7532 145.44
L63.7813 154.08
L63.7813 154.08
L63.7836 156.96
L63.7857 154.08
L63.7857 154.08
L63.895 145.44
L63.907 148.32
L63.9607 151.2
L63.9781 148.32
L64.1727 122.4
L64.1826 125.28
L64.241 131.04
L64.2789 125.28
L64.321 116.64
L64.3317 125.28
L64.3317 125.28
L64.3513 128.16
L64.3526 125.28
L64.3526 125.28
L64.3593 122.4
L64.3627 125.28
L64.3627 125.28
L64.4724 133.92
L64.4853 131.04
L64.5458 119.52
L64.5852 131.04
L64.7019 145.44
L64.7215 136.8
L64.8706 119.52
L64.8841 122.4
L64.888 119.52
L64.888 119.52
L64.8934 116.64
L64.8975 119.52
L64.8975 119.52
L64.92 122.4
L64.9207 119.52
L64.9207 119.52
L64.9548 116.64
L64.959 119.52
L64.959 119.52
L64.9591 122.4
L64.9592 119.52
L64.9592 119.52
L65.0338 99.36
L65.0635 113.76
L65.0763 116.64
L65.0929 113.76
L65.0929 113.76
L65.1052 110.88
L65.116 113.76
L65.116 113.76
L65.1631 122.4
L65.2294 116.64
L65.2521 110.88
L65.3148 116.64
L65.3148 116.64
L65.3169 119.52
L65.3541 116.64
L65.3541 116.64
L65.6358 84.96
L65.6522 90.72
L65.7996 125.28
L65.8389 119.52
L65.9415 110.88
L65.9682 113.76
L66.0741 125.28
L66.0881 122.4
L66.0937 116.64
L66.1191 122.4
L66.1191 122.4
L66.2521 145.44
L66.3644 139.68
L66.4922 148.32
L66.4941 145.44
L66.495 142.56
L66.5068 145.44
L66.5068 145.44
L66.5229 148.32
L66.5245 145.44
L66.5245 145.44
L66.7546 122.4
L66.7668 125.28
L66.7856 128.16
L66.7867 125.28
L66.7867 125.28
L66.8066 122.4
L66.8179 125.28
L66.8179 125.28
L66.8971 133.92
L66.9192 125.28
L67.1703 108
L67.1754 110.88
L67.1774 108
L67.1774 108
L67.1805 105.12
L67.1952 108
L67.1952 108
L67.2125 113.76
L67.238 108
L67.238 108
L67.24 105.12
L67.2445 108
L67.2445 108
L67.4053 119.52
L67.4242 131.04
L67.5122 125.28
L67.6181 142.56
L67.6453 133.92
L67.6987 128.16
L67.7151 133.92
L67.7151 133.92
L67.7286 136.8
L67.7307 133.92
L67.7307 133.92
L67.8924 116.64
L67.9215 122.4
L68.0664 145.44
L68.0901 136.8
L68.1181 145.44
L68.1181 145.44
L68.3094 159.84
L68.3182 156.96
L68.3244 159.84
L68.3244 159.84
L68.3391 165.6
L68.3606 159.84
L68.3606 159.84
L68.4005 154.08
L68.4259 159.84
L68.5059 168.48
L68.5324 159.84
L68.5477 156.96
L68.548 159.84
L68.548 159.84
L68.6215 165.6
L68.627 159.84
L68.627 159.84
L68.7407 139.68
L68.7438 142.56
L68.7683 139.68
L68.7683 139.68
L68.8807 133.92
L68.8895 136.8
L69.0084 151.2
L69.0127 148.32
L69.0302 136.8
L69.1197 148.32
L69.2053 154.08
L69.2065 151.2
L69.3489 142.56
L69.3596 145.44
L69.4077 151.2
L69.424 145.44
L69.424 145.44
L69.446 142.56
L69.4553 145.44
L69.4553 145.44
L69.4802 151.2
L69.5021 145.44
L69.5021 145.44
L69.5151 142.56
L69.5327 145.44
L69.5327 145.44
L69.5379 148.32
L69.5454 145.44
L69.5454 145.44
L69.595 136.8
L69.6511 142.56
L69.7468 128.16
L69.7687 136.8
L69.8341 139.68
L69.8565 136.8
L69.8643 133.92
L69.8714 136.8
L69.8714 136.8
L69.8737 139.68
L69.8743 136.8
L69.8743 136.8
L69.8804 131.04
L69.8948 136.8
L69.8948 136.8
L69.9197 139.68
L69.9231 136.8
L69.9231 136.8
L70.0409 119.52
L70.1209 110.88
L70.1704 113.76
L70.1907 116.64
L70.1973 113.76
L70.1973 113.76
L70.2653 102.24
L70.2925 110.88
L70.312 108
L70.3365 110.88
L70.3365 110.88
L70.4044 119.52
L70.4336 113.76
L70.4718 110.88
L70.4802 113.76
L70.4802 113.76
L70.5455 119.52
L70.5789 113.76
L70.5965 110.88
L70.6033 113.76
L70.6033 113.76
L70.8069 133.92
L70.8224 131.04
L70.8246 133.92
L70.8246 133.92
L70.8277 136.8
L70.8321 133.92
L70.8321 133.92
L70.8373 131.04
L70.8612 133.92
L70.8612 133.92
L70.8696 136.8
L70.8916 133.92
L70.8916 133.92
L70.9937 125.28
L71.0061 131.04
L71.0624 133.92
L71.0778 131.04
L71.082 128.16
L71.0878 131.04
L71.0878 131.04
L71.0952 136.8
L71.1272 131.04
L71.1272 131.04
L71.132 128.16
L71.1329 131.04
L71.1329 131.04
L71.2414 133.92
L71.3749 119.52
L71.3778 122.4
L71.3784 119.52
L71.3784 119.52
L71.4269 110.88
L71.5093 113.76
L71.5333 110.88
L71.5372 113.76
L71.5372 113.76
L71.538 116.64
L71.5404 113.76
L71.5404 113.76
L71.5457 110.88
L71.5557 113.76
L71.5557 113.76
L71.6512 128.16
L71.6647 122.4
L71.6684 119.52
L71.6794 122.4
L71.6794 122.4
L71.7395 142.56
L71.7973 136.8
L71.8461 142.56
L71.865 136.8
L71.877 133.92
L71.8777 136.8
L71.8777 136.8
L71.8877 139.68
L71.9095 136.8
L71.9095 136.8
L72.0214 119.52
L72.0307 122.4
L72.045 119.52
L72.045 119.52
L72.0964 110.88
L72.1475 119.52
L72.1987 122.4
L72.2147 119.52
L72.2147 119.52
L72.3365 105.12
L72.6182 131.04
L72.6296 122.4
L72.7312 110.88
L72.7547 116.64
L72.7827 122.4
L72.8232 116.64
L72.8232 116.64
L72.9173 102.24
L72.9397 110.88
L73.0479 131.04
L73.1208 125.28
L73.1266 119.52
L73.2115 125.28
L73.2115 125.28
L73.2149 128.16
L73.2201 125.28
L73.2201 125.28
L73.2972 113.76
L73.3186 125.28
L73.3246 128.16
L73.3371 125.28
L73.3371 125.28
L73.5357 105.12
L73.7902 131.04
L73.8035 125.28
L73.8706 131.04
L73.8706 131.04
L73.8849 133.92
L73.8902 131.04
L73.8902 131.04
L73.9727 125.28
L73.9756 128.16
L74.0192 136.8
L74.034 128.16
L74.034 128.16
L74.0666 125.28
L74.0826 128.16
L74.0826 128.16
L74.1274 142.56
L74.1786 139.68
L74.2128 145.44
L74.2211 139.68
L74.2211 139.68
L74.3388 131.04
L74.3392 133.92
L74.4025 113.76
L74.5265 119.52
L74.5675 122.4
L74.5789 119.52
L74.5789 119.52
L74.5869 116.64
L74.6038 119.52
L74.6038 119.52
L74.6453 122.4
L74.6673 119.52
L74.6673 119.52
L74.6733 116.64
L74.6819 119.52
L74.6819 119.52
L74.8034 131.04
L74.9918 113.76
L75.1566 131.04
L75.1633 125.28
L75.2549 119.52
L75.3592 110.88
L75.4123 113.76
L75.4354 116.64
L75.4359 113.76
L75.4359 113.76
L75.444 110.88
L75.454 113.76
L75.454 113.76
L75.5409 128.16
L75.5679 125.28
L75.6906 133.92
L75.7126 128.16
L75.8298 110.88
L76.0025 125.28
L76.0932 116.64
L76.1048 125.28
L76.2211 136.8
L76.2587 131.04
L76.4177 113.76
L76.4247 116.64
L76.4758 125.28
L76.502 116.64
L76.502 116.64
L76.6058 110.88
L76.6589 99.36
L76.7067 110.88
L76.8238 119.52
L76.8299 116.64
L76.9323 122.4
L76.9354 119.52
L77.0493 96.48
L77.1005 108
L77.1214 113.76
L77.1873 108
L77.1873 108
L77.1885 105.12
L77.1913 108
L77.1913 108
L77.3037 122.4
L77.3352 113.76
L77.3372 110.88
L77.3417 113.76
L77.3417 113.76
L77.4363 133.92
L77.4438 131.04
L77.499 139.68
L77.5536 133.92
L77.6417 122.4
L77.6643 133.92
L77.6692 136.8
L77.6726 133.92
L77.6726 133.92
L77.7953 122.4
L77.848 125.28
L77.8633 128.16
L77.8675 125.28
L77.8675 125.28
L78.0549 102.24
L78.19 110.88
L78.2495 108
L78.3689 113.76
L78.3692 110.88
L78.4506 102.24
L78.4769 110.88
L78.4783 113.76
L78.4905 110.88
L78.4905 110.88
L78.5187 108
L78.5194 110.88
L78.5194 110.88
L78.6028 122.4
L78.6228 113.76
L78.71 105.12
L78.7341 110.88
L78.7368 113.76
L78.7404 110.88
L78.7404 110.88
L78.9043 96.48
L78.9439 99.36
L78.9452 96.48
L78.9452 96.48
L78.9635 84.96
L79.0474 96.48
L79.1421 90.72
L79.1512 96.48
L79.18 110.88
L79.2135 96.48
L79.2135 96.48
L79.3311 87.84
L79.3314 90.72
L79.4085 82.08
L79.4367 87.84
L79.4676 93.6
L79.4765 87.84
L79.4765 87.84
L79.5025 82.08
L79.5294 87.84
L79.5294 87.84
L79.5308 90.72
L79.5512 87.84
L79.5512 87.84
L79.5721 84.96
L79.573 87.84
L79.573 87.84
L79.5925 93.6
L79.6032 87.84
L79.6032 87.84
L79.6889 82.08
L79.6977 87.84
L79.6977 87.84
L79.8115 108
L79.8133 105.12
L79.9564 96.48
L79.9705 102.24
L80.0152 110.88
L80.0643 102.24
L80.1949 87.84
L80.2032 93.6
L80.486 133.92
L80.497 131.04
L80.5359 125.28
L80.573 131.04
L80.573 131.04
L80.6129 142.56
L80.6824 136.8
L80.8184 159.84
L80.9011 151.2
L80.9393 145.44
L80.9847 151.2
L80.9857 154.08
L81.028 151.2
L81.028 151.2
L81.0317 148.32
L81.0402 151.2
L81.0402 151.2
L81.0586 154.08
L81.0609 151.2
L81.0609 151.2
L81.1531 133.92
L81.176 136.8
L81.1969 142.56
L81.2034 136.8
L81.2034 136.8
L81.3707 105.12
L81.3798 110.88
L81.4229 119.52
L81.4568 110.88
L81.4568 110.88
L81.4575 108
L81.4608 110.88
L81.4608 110.88
L81.4712 119.52
L81.496 110.88
L81.496 110.88
L81.543 108
L81.5478 110.88
L81.5478 110.88
L81.6841 128.16
L81.7162 122.4
L81.7252 128.16
L81.7252 128.16
L81.7253 131.04
L81.7287 128.16
L81.7287 128.16
L81.8285 116.64
L81.8413 119.52
L81.8718 128.16
L81.911 119.52
L81.911 119.52
L81.921 116.64
L81.9315 119.52
L81.9315 119.52
L81.9412 122.4
L81.9486 119.52
L81.9486 119.52
L81.9738 116.64
L81.9839 119.52
L81.9839 119.52
L82.0381 131.04
L82.0887 119.52
L82.2315 131.04
L82.2405 125.28
L82.2424 122.4
L82.2532 125.28
L82.2532 125.28
L82.3617 133.92
L82.411 136.8
L82.413 133.92
L82.413 133.92
L82.4237 131.04
L82.4289 133.92
L82.4289 133.92
L82.4726 142.56
L82.513 133.92
L82.513 133.92
L82.5598 131.04
L82.5603 133.92
L82.5603 133.92
L82.5977 136.8
L82.636 133.92
L82.636 133.92
L82.6671 128.16
L82.6972 133.92
L82.6972 133.92
L82.7212 139.68
L82.7266 133.92
L82.7266 133.92
L82.7682 122.4
L82.8198 131.04
L82.8544 136.8
L82.8989 133.92
L83.0259 125.28
L83.0619 131.04
L83.0874 136.8
L83.163 131.04
L83.2495 125.28
L83.2628 131.04
L83.2976 139.68
L83.3415 131.04
L83.3415 131.04
L83.3501 128.16
L83.3512 131.04
L83.3512 131.04
L83.476 148.32
L83.5154 136.8
L83.5175 133.92
L83.5235 136.8
L83.5235 136.8
L83.59 142.56
L83.6117 136.8
L83.6316 133.92
L83.6435 136.8
L83.6435 136.8
L83.7031 145.44
L83.7189 139.68
L83.7775 133.92
L83.8045 139.68
L83.8408 148.32
L83.916 142.56
L83.9334 136.8
L83.9839 142.56
L83.9839 142.56
L84.0663 151.2
L84.1187 145.44
L84.1524 148.32
L84.1818 145.44
L84.1818 145.44
L84.1856 142.56
L84.1876 145.44
L84.1876 145.44
L84.2038 148.32
L84.2072 145.44
L84.2072 145.44
L84.3193 131.04
L84.3341 139.68
L84.3441 142.56
L84.3451 139.68
L84.3451 139.68
L84.3681 136.8
L84.3849 139.68
L84.3849 139.68
L84.4052 142.56
L84.4118 139.68
L84.4118 139.68
L84.5338 131.04
L84.556 133.92
L84.6738 151.2
L84.7283 142.56
L84.7466 139.68
L84.7487 142.56
L84.7487 142.56
L84.7559 145.44
L84.7594 142.56
L84.7594 142.56
L84.8615 122.4
L84.8874 131.04
L84.9411 145.44
L84.9739 131.04
L84.9885 128.16
L84.9996 131.04
L84.9996 131.04
L85.0026 139.68
L85.056 131.04
L85.056 131.04
L85.0747 128.16
L85.0777 131.04
L85.0777 131.04
L85.2268 151.2
L85.2538 148.32
L85.2655 151.2
L85.2655 151.2
L85.335 156.96
L85.3521 154.08
L85.4015 151.2
L85.4453 154.08
L85.4728 156.96
L85.4892 154.08
L85.4892 154.08
L85.4925 151.2
L85.4936 154.08
L85.4936 154.08
L85.542 159.84
L85.5745 154.08
L85.5745 154.08
L85.6378 145.44
L85.6844 148.32
L85.7254 154.08
L85.7323 148.32
L85.7323 148.32
L85.8361 136.8
L85.8609 139.68
L85.9185 133.92
L85.9459 139.68
L86.0079 145.44
L86.0504 142.56
L86.1399 136.8
L86.1515 142.56
L86.1619 145.44
L86.1719 142.56
L86.1719 142.56
L86.2119 136.8
L86.283 139.68
L86.3392 136.8
L86.3449 139.68
L86.4489 154.08
L86.4983 156.96
L86.5101 154.08
L86.5101 154.08
L86.5925 131.04
L86.6202 133.92
L86.7032 139.68
L86.7046 133.92
L86.7288 128.16
L86.7471 133.92
L86.7471 133.92
L86.7839 142.56
L86.8322 133.92
L86.8322 133.92
L87.0844 93.6
L87.1051 96.48
L87.1947 110.88
L87.2739 105.12
L87.2878 108
L87.3605 110.88
L87.3608 108
L87.3608 108
L87.3637 105.12
L87.3729 108
L87.3729 108
L87.4199 110.88
L87.4247 108
L87.4247 108
L87.4294 105.12
L87.4501 108
L87.4501 108
L87.4544 110.88
L87.4624 108
L87.4624 108
L87.4703 102.24
L87.542 108
L87.542 108
L87.555 110.88
L87.5781 108
L87.5781 108
L87.5963 105.12
L87.6163 108
L87.6163 108
L87.6205 110.88
L87.6372 108
L87.6372 108
L87.693 102.24
L87.6967 108
L87.6967 108
L87.7985 116.64
L87.8038 113.76
L87.9697 99.36
L87.9859 105.12
L87.9862 108
L87.9887 105.12
L87.9887 105.12
L88.1241 93.6
L88.1274 96.48
L88.1302 99.36
L88.1435 96.48
L88.1435 96.48
L88.1768 90.72
L88.1957 96.48
L88.1957 96.48
L88.1992 99.36
L88.2204 96.48
L88.2204 96.48
L88.2267 93.6
L88.2375 96.48
L88.2375 96.48
L88.2515 102.24
L88.2668 96.48
L88.2668 96.48
L88.3048 93.6
L88.3063 96.48
L88.3063 96.48
L88.3102 99.36
L88.3197 96.48
L88.3197 96.48
L88.4477 82.08
L88.5302 90.72
L88.5509 82.08
L88.5573 76.32
L88.5619 82.08
L88.5619 82.08
L88.5738 84.96
L88.5782 82.08
L88.5782 82.08
L88.5878 79.2
L88.6124 82.08
L88.6124 82.08
L88.632 84.96
L88.6389 82.08
L88.6389 82.08
L88.641 76.32
L88.6518 82.08
L88.6518 82.08
L88.7444 96.48
L88.7581 93.6
L88.7786 99.36
L88.7804 93.6
L88.7804 93.6
L88.8881 84.96
L88.8917 87.84
L88.9106 90.72
L88.9109 87.84
L88.9109 87.84
L88.9267 84.96
L88.927 87.84
L88.927 87.84
L88.9938 90.72
L88.997 87.84
L88.997 87.84
L89.0157 82.08
L89.0185 87.84
L89.0185 87.84
L89.0985 99.36
L89.1298 90.72
L89.1804 84.96
L89.1828 90.72
L89.1828 90.72
L89.3989 110.88
L89.4503 102.24
L89.5123 108
L89.6797 119.52
L89.8749 99.36
L89.8775 102.24
L89.9189 96.48
L89.9258 102.24
L89.9258 102.24
L90.0249 119.52
L90.0482 113.76
L90.0555 110.88
L90.0626 113.76
L90.0626 113.76
L90.2045 136.8
L90.232 131.04
L90.5493 96.48
L90.5556 99.36
L90.5572 96.48
L90.5572 96.48
L90.646 82.08
L90.6786 90.72
L90.7644 99.36
L90.8156 96.48
L90.9524 82.08
L90.9561 84.96
L90.98 87.84
L90.9959 84.96
L90.9959 84.96
L91.0006 82.08
L91.0037 84.96
L91.0037 84.96
L91.0254 87.84
L91.0425 84.96
L91.0425 84.96
L91.0582 79.2
L91.0842 84.96
L91.0842 84.96
L91.0996 90.72
L91.1063 84.96
L91.1063 84.96
L91.1848 73.44
L91.2605 79.2
L91.367 93.6
L91.3972 90.72
L91.4148 93.6
L91.4148 93.6
L91.4258 99.36
L91.4425 93.6
L91.4425 93.6
L91.46 90.72
L91.4665 93.6
L91.4665 93.6
L91.4756 96.48
L91.4844 93.6
L91.4844 93.6
L91.5031 90.72
L91.5382 93.6
L91.5382 93.6
L91.6107 105.12
L91.6361 102.24
L91.6741 105.12
L91.6794 102.24
L91.6794 102.24
L91.7688 96.48
L91.7839 99.36
L91.7965 96.48
L91.7967 99.36
L91.7967 99.36
L91.9159 116.64
L91.9291 113.76
L91.9444 108
L92.0202 113.76
L92.0202 113.76
L92.0702 116.64
L92.0707 113.76
L92.0707 113.76
L92.1898 99.36
L92.195 102.24
L92.2183 108
L92.242 102.24
L92.242 102.24
L92.2546 99.36
L92.2681 102.24
L92.2681 102.24
L92.2821 105.12
L92.2837 102.24
L92.2837 102.24
L92.3072 99.36
L92.322 102.24
L92.322 102.24
L92.4469 119.52
L92.6098 145.44
L92.6764 125.28
L92.718 133.92
L92.7458 136.8
L92.7461 133.92
L92.7461 133.92
L92.7532 131.04
L92.7593 133.92
L92.7593 133.92
L92.7729 136.8
L92.7766 133.92
L92.7766 133.92
L92.8157 125.28
L92.8763 133.92
L93.0172 151.2
L93.052 142.56
L93.1253 133.92
L93.1323 142.56
L93.1323 142.56
L93.1752 154.08
L93.2228 142.56
L93.2956 139.68
L93.3003 142.56
L93.3778 151.2
L93.3945 145.44
L93.4503 133.92
L93.5254 139.68
L93.5282 142.56
L93.5372 139.68
L93.5372 139.68
L93.5871 136.8
L93.5987 139.68
L93.5987 139.68
L93.6784 145.44
L93.6785 142.56
L93.7373 136.8
L93.7551 142.56
L93.7743 145.44
L93.8006 142.56
L93.8006 142.56
L93.8103 139.68
L93.8365 142.56
L93.8365 142.56
L93.8866 148.32
L93.896 142.56
L93.896 142.56
L93.9871 125.28
L94.0252 131.04
L94.0574 133.92
L94.0626 131.04
L94.0626 131.04
L94.1076 119.52
L94.1483 131.04
L94.1483 131.04
L94.2735 148.32
L94.3435 151.2
L94.3538 148.32
L94.5268 125.28
L94.5857 128.16
L94.6474 133.92
L94.6591 128.16
L94.6591 128.16
L94.7702 110.88
L94.827 116.64
L94.8722 131.04
L94.9522 122.4
L95.0301 105.12
L95.0624 116.64
L95.2262 142.56
L95.2393 148.32
L95.2652 142.56
L95.2652 142.56
L95.2838 136.8
L95.3083 142.56
L95.3083 142.56
L95.3169 145.44
L95.3205 142.56
L95.3205 142.56
L95.3985 128.16
L95.427 133.92
L95.4495 136.8
L95.4496 133.92
L95.4496 133.92
L95.5226 119.52
L95.5596 131.04
L95.677 122.4
L95.7231 125.28
L95.8301 136.8
L95.8405 133.92
L95.9784 145.44
L95.9793 142.56
L95.9813 139.68
L95.9978 142.56
L95.9978 142.56
L96.1393 156.96
L96.1426 151.2
L96.3601 113.76
L96.3833 116.64
L96.3845 113.76
L96.3845 113.76
L96.4859 108
L96.6028 93.6
L96.6583 96.48
L96.6688 102.24
L96.6993 96.48
L96.6993 96.48
L96.6998 93.6
L96.7037 96.48
L96.7037 96.48
L96.7191 99.36
L96.7206 96.48
L96.7206 96.48
L96.7813 84.96
L96.8063 96.48
L96.8063 96.48
L96.8856 110.88
L96.9204 99.36
L96.9691 96.48
L96.9699 99.36
L96.9699 99.36
L96.9713 102.24
L96.9714 99.36
L96.9714 99.36
L96.9751 96.48
L96.9758 99.36
L96.9758 99.36
L97.0383 119.52
L97.1383 110.88
L97.1455 108
L97.1601 110.88
L97.1601 110.88
L97.2023 116.64
L97.2075 110.88
L97.2075 110.88
L97.2557 102.24
L97.2894 110.88
L97.2894 110.88
L97.298 116.64
L97.339 110.88
L97.339 110.88
L97.4489 105.12
L97.4596 108
L97.4607 105.12
L97.4607 105.12
L97.4675 102.24
L97.4682 105.12
L97.4682 105.12
L97.5079 110.88
L97.509 105.12
L97.509 105.12
L97.5123 102.24
L97.5327 105.12
L97.5327 105.12
L97.5883 113.76
L97.6587 110.88
L97.6618 113.76
L97.7091 116.64
L97.7304 113.76
L97.8019 99.36
L97.8405 105.12
L97.856 108
L97.8826 105.12
L97.8826 105.12
L97.8995 93.6
L97.9924 102.24
L98.1327 116.64
L98.1469 113.76
L98.152 116.64
L98.152 116.64
L98.3075 128.16
L98.533 148.32
L98.5638 142.56
L98.5823 133.92
L98.5882 142.56
L98.5882 142.56
L98.677 154.08
L98.7403 151.2
L98.7997 145.44
L98.8118 151.2
L98.8118 151.2
L98.8941 162.72
L98.9255 156.96
L99.1965 116.64
L99.2201 113.76
L99.2314 116.64
L99.2314 116.64
L99.2404 119.52
L99.2424 116.64
L99.2424 116.64
L99.2539 110.88
L99.2892 116.64
L99.2892 116.64
L99.3253 122.4
L99.3402 116.64
L99.3402 116.64
L99.3753 110.88
L99.3837 116.64
L99.3837 116.64
L99.3981 122.4
L99.441 119.52
L99.5716 128.16
L99.6238 139.68
L99.6558 136.8
L99.9853 108
L100.024 116.64
L100.055 122.4
L100.129 116.64
L100.143 113.76
L100.155 116.64
L100.155 116.64
L100.254 128.16
L100.283 125.28
L100.301 122.4
L100.322 125.28
L100.322 125.28
L100.323 128.16
L100.33 125.28
L100.33 125.28
L100.361 122.4
L100.367 125.28
L100.367 125.28
L100.369 128.16
L100.418 125.28
L100.418 125.28
L100.42 122.4
L100.423 125.28
L100.423 125.28
L100.429 128.16
L100.443 125.28
L100.443 125.28
L100.553 119.52
L100.556 122.4
L100.588 128.16
L100.597 122.4
L100.597 122.4
L100.631 119.52
L100.635 122.4
L100.635 122.4
L100.647 125.28
L100.652 122.4
L100.652 122.4
L100.821 108
L100.881 116.64
L100.911 108
L100.919 105.12
L100.921 108
L100.921 108
L101.022 125.28
L101.036 122.4
L101.231 99.36
L101.246 102.24
L101.343 122.4
L101.383 116.64
L101.422 113.76
L101.431 116.64
L101.431 116.64
L101.439 119.52
L101.441 116.64
L101.441 116.64
L101.487 110.88
L101.514 116.64
L101.514 116.64
L101.528 125.28
L101.622 122.4
L101.773 113.76
L101.774 116.64
L101.805 119.52
L101.807 116.64
L101.807 116.64
L101.867 108
L101.886 116.64
L102.145 148.32
L102.375 136.8
L102.469 156.96
L102.501 151.2
L102.562 142.56
L102.607 148.32
L102.72 154.08
L102.73 151.2
L102.816 142.56
L102.845 148.32
L102.949 133.92
L102.982 136.8
L103.181 151.2
L103.32 136.8
L103.357 139.68
L103.502 151.2
L103.515 148.32
L103.645 139.68
L103.695 131.04
L103.728 139.68
L103.906 154.08
L103.987 151.2
L103.99 148.32
L103.991 151.2
L103.991 151.2
L104.007 156.96
L104.037 151.2
L104.037 151.2
L104.112 139.68
L104.173 145.44
L104.299 151.2
L104.436 125.28
L104.438 122.4
L104.447 125.28
L104.447 125.28
L104.46 131.04
L104.472 125.28
L104.472 125.28
L104.513 122.4
L104.532 125.28
L104.696 139.68
L104.734 131.04
L104.822 128.16
L104.829 131.04
L104.829 131.04
L104.852 133.92
L104.855 131.04
L104.855 131.04
L104.872 122.4
L104.899 131.04
L104.899 131.04
L104.971 145.44
L105.008 133.92
L105.135 116.64
L105.15 119.52
L105.158 116.64
L105.158 116.64
L105.233 105.12
L105.275 110.88
L105.298 108
L105.308 110.88
L105.308 110.88
L105.322 116.64
L105.388 110.88
L105.388 110.88
L105.409 108
L105.439 110.88
L105.439 110.88
L105.491 113.76
L105.516 110.88
L105.516 110.88
L105.637 99.36
L105.661 102.24
L105.669 99.36
L105.669 99.36
L105.67 96.48
L105.674 99.36
L105.674 99.36
L105.692 102.24
L105.699 99.36
L105.699 99.36
L105.785 90.72
L105.8 99.36
L105.807 102.24
L105.815 99.36
L105.815 99.36
L105.873 90.72
L105.899 99.36
L105.899 99.36
L106.042 116.64
L106.102 108
L106.134 113.76
L106.209 105.12
L106.257 110.88
L106.265 113.76
L106.272 110.88
L106.272 110.88
L106.297 99.36
L106.328 110.88
L106.328 110.88
L106.33 113.76
L106.332 110.88
L106.332 110.88
L106.422 102.24
L106.444 108
L106.465 110.88
L106.485 108
L106.485 108
L106.498 102.24
L106.546 108
L106.546 108
L106.662 116.64
L106.692 105.12
L106.764 108
L106.805 105.12
L106.807 108
L106.859 110.88
L106.879 108
L106.879 108
L106.885 105.12
L106.893 108
L106.893 108
L106.895 110.88
L106.92 108
L106.92 108
L106.944 105.12
L106.944 108
L106.944 108
L106.951 110.88
L106.952 108
L106.952 108
L106.971 105.12
L107.04 108
L107.04 108
L107.146 125.28
L107.195 122.4
L107.198 125.28
L107.198 125.28
L107.279 139.68
L107.32 133.92
L107.352 128.16
L107.376 133.92
L107.376 133.92
L107.465 148.32
L107.538 151.2
L107.542 148.32
L107.604 145.44
L107.605 148.32
L107.605 148.32
L107.606 151.2
L107.61 148.32
L107.61 148.32
L107.729 136.8
L107.743 142.56
L107.837 154.08
L107.868 148.32
L108.048 133.92
L108.073 139.68
L108.09 133.92
L108.09 133.92
L108.165 122.4
L108.205 131.04
L108.206 133.92
L108.209 131.04
L108.209 131.04
L108.219 128.16
L108.22 131.04
L108.22 131.04
L108.309 139.68
L108.354 136.8
L108.478 105.12
L108.594 108
L108.611 105.12
L108.612 108
L108.612 108
L108.619 113.76
L108.654 108
L108.654 108
L108.777 99.36
L108.79 105.12
L108.942 116.64
L108.972 113.76
L109.002 116.64
L109.002 116.64
L109.017 119.52
L109.036 116.64
L109.036 116.64
L109.04 113.76
L109.042 116.64
L109.042 116.64
L109.079 119.52
L109.08 116.64
L109.08 116.64
L109.13 110.88
L109.19 113.76
L109.259 102.24
L109.334 108
L109.415 116.64
L109.452 110.88
L109.544 102.24
L109.675 119.52
L109.776 113.76
L109.848 105.12
L109.874 113.76
L109.874 113.76
L109.876 116.64
L109.879 113.76
L109.879 113.76
L110.11 84.96
L110.136 87.84
L110.137 90.72
L110.162 87.84
L110.162 87.84
L110.262 82.08
L110.267 87.84
L110.31 82.08
L110.326 87.84
L110.326 87.84
L110.337 96.48
L110.371 87.84
L110.371 87.84
L110.506 56.16
L110.531 64.8
L110.559 70.56
L110.573 64.8
L110.573 64.8
L110.651 44.64
L110.689 53.28
L110.876 82.08
L110.894 76.32
L111.045 87.84
L111.05 84.96
L111.064 70.56
L111.162 76.32
L111.355 102.24
L111.385 99.36
L111.54 110.88
L111.54 108
L111.543 105.12
L111.545 108
L111.545 108
L111.547 110.88
L111.581 108
L111.581 108
L111.653 102.24
L111.666 108
L111.666 108
L111.668 110.88
L111.678 108
L111.678 108
L111.724 99.36
L111.777 105.12
L111.991 84.96
L112.014 90.72
L112.016 93.6
L112.064 90.72
L112.064 90.72
L112.148 76.32
L112.174 84.96
L112.203 90.72
L112.212 84.96
L112.212 84.96
L112.229 82.08
L112.231 84.96
L112.231 84.96
L112.243 87.84
L112.28 84.96
L112.28 84.96
L112.505 67.68
L112.625 96.48
L112.692 93.6
L112.745 82.08
L112.775 93.6
L112.775 93.6
L112.881 105.12
L112.882 102.24
L112.925 113.76
L113.036 110.88
L113.217 87.84
L113.297 113.76
L113.302 110.88
L113.37 119.52
L113.405 128.16
L113.432 119.52
L113.432 119.52
L113.481 113.76
L113.507 119.52
L113.539 122.4
L113.541 119.52
L113.541 119.52
L113.65 108
L113.659 113.76
L113.661 116.64
L113.662 113.76
L113.662 113.76
L113.756 105.12
L113.992 125.28
L114.006 122.4
L114.016 119.52
L114.019 122.4
L114.019 122.4
L114.026 125.28
L114.047 122.4
L114.047 122.4
L114.085 108
L114.147 122.4
L114.159 125.28
L114.221 122.4
L114.221 122.4
L114.237 119.52
L114.241 122.4
L114.241 122.4
L114.337 128.16
L114.337 125.28
L114.375 119.52
L114.409 125.28
L114.409 125.28
L114.554 154.08
L114.563 151.2
L114.624 139.68
L114.661 148.32
L114.723 154.08
L114.738 148.32
L114.869 136.8
L114.911 145.44
L114.984 139.68
L115.009 133.92
L115.046 139.68
L115.046 139.68
L115.086 151.2
L115.14 142.56
L115.177 145.44
L115.179 142.56
L115.179 142.56
L115.266 136.8
L115.285 142.56
L115.309 151.2
L115.322 142.56
L115.322 142.56
L115.422 136.8
L115.435 139.68
L115.449 136.8
L115.449 136.8
L115.559 122.4
L115.575 131.04
L115.58 133.92
L115.59 131.04
L115.59 131.04
L115.605 128.16
L115.643 131.04
L115.643 131.04
L115.749 148.32
L115.752 145.44
L115.82 142.56
L115.851 145.44
L115.859 148.32
L115.864 145.44
L115.864 145.44
L116.049 119.52
L116.051 122.4
L116.311 96.48
L116.316 102.24
L116.406 133.92
L116.469 113.76
L116.562 102.24
L116.58 105.12
L116.631 110.88
L116.656 105.12
L116.656 105.12
L116.728 96.48
L116.759 105.12
L116.759 105.12
L116.909 125.28
L116.96 128.16
L116.964 125.28
L117.021 116.64
L117.03 125.28
L117.03 125.28
L117.041 128.16
L117.052 125.28
L117.052 125.28
L117.205 110.88
L117.238 119.52
L117.255 110.88
L117.255 110.88
L117.306 96.48
L117.36 105.12
L117.465 116.64
L117.478 113.76
L117.492 110.88
L117.496 113.76
L117.496 113.76
L117.685 136.8
L117.734 133.92
L117.893 119.52
L118.008 131.04
L118.038 125.28
L118.085 131.04
L118.085 131.04
L118.199 142.56
L118.204 139.68
L118.275 133.92
L118.287 136.8
L118.348 131.04
L118.355 136.8
L118.355 136.8
L118.357 139.68
L118.367 136.8
L118.367 136.8
L118.375 131.04
L118.408 136.8
L118.408 136.8
L118.45 139.68
L118.469 136.8
L118.469 136.8
L118.471 133.92
L118.492 136.8
L118.492 136.8
L118.561 148.32
L118.614 145.44
L118.624 148.32
L118.637 145.44
L118.637 145.44
L118.718 128.16
L118.792 133.92
L118.798 136.8
L118.799 133.92
L118.799 133.92
L118.804 131.04
L118.822 133.92
L118.822 133.92
L118.831 136.8
L118.849 133.92
L118.849 133.92
L118.99 113.76
L119.018 119.52
L119.065 122.4
L119.075 119.52
L119.075 119.52
L119.075 116.64
L119.095 119.52
L119.095 119.52
L119.106 122.4
L119.125 119.52
L119.125 119.52
L119.244 108
L119.256 113.76
L119.342 122.4
L119.374 119.52
L119.404 116.64
L119.429 119.52
L119.429 119.52
L119.43 122.4
L119.43 119.52
L119.43 119.52
L119.479 102.24
L119.542 116.64
L119.702 96.48
L119.724 99.36
L119.737 96.48
L119.737 96.48
L119.782 87.84
L119.838 93.6
L119.982 102.24
L119.992 96.48
L120.021 102.24
L120.021 102.24
L120.14 119.52
L120.344 93.6
L120.384 102.24
L120.53 116.64
L120.56 113.76
L120.573 116.64
L120.573 116.64
L120.684 122.4
L120.691 119.52
L120.736 108
L120.806 113.76
L120.873 122.4
L120.893 113.76
L121.007 99.36
L121.02 102.24
L121.093 110.88
L121.121 102.24
L121.122 99.36
L121.125 102.24
L121.125 102.24
L121.209 119.52
L121.235 108
L121.238 105.12
L121.243 108
L121.243 108
L121.4 133.92
L121.508 125.28
L121.515 131.04
L121.542 133.92
L121.548 131.04
L121.548 131.04
L121.691 110.88
L121.706 108
L121.718 110.88
L121.718 110.88
L121.738 116.64
L121.771 110.88
L121.771 110.88
L121.79 108
L121.814 110.88
L121.814 110.88
L121.836 116.64
L121.848 110.88
L121.848 110.88
L121.882 96.48
L121.909 110.88
L121.909 110.88
L122.067 131.04
L122.118 122.4
L122.157 131.04
L122.157 131.04
L122.285 145.44
L122.312 142.56
L122.334 145.44
L122.334 145.44
L122.365 151.2
L122.426 148.32
L122.912 102.24
L122.923 105.12
L122.945 108
L122.946 105.12
L122.946 105.12
L122.963 102.24
L122.969 105.12
L122.969 105.12
L123.015 116.64
L123.04 108
L123.086 105.12
L123.089 108
L123.106 110.88
L123.109 108
L123.109 108
L123.192 105.12
L123.193 108
L123.193 108
L123.202 110.88
L123.216 108
L123.216 108
L123.24 105.12
L123.241 108
L123.241 108
L123.352 110.88
L123.435 105.12
L123.456 110.88
L123.492 119.52
L123.564 116.64
L123.872 151.2
L123.886 148.32
L124.11 128.16
L124.13 133.92
L124.147 136.8
L124.147 133.92
L124.147 133.92
L124.203 128.16
L124.226 133.92
L124.226 133.92
L124.39 159.84
L124.4 156.96
L124.499 139.68
L124.509 142.56
L124.687 131.04
L124.713 136.8
L124.815 145.44
L124.89 139.68
L124.922 145.44
L124.956 151.2
L124.975 145.44
L124.975 145.44
L125.006 139.68
L125.057 145.44
L125.417 113.76
L125.441 122.4
L125.476 125.28
L125.482 122.4
L125.482 122.4
L125.498 116.64
L125.535 122.4
L125.535 122.4
L125.535 125.28
L125.543 122.4
L125.543 122.4
L125.663 105.12
L125.672 113.76
L125.757 128.16
L125.784 119.52
L125.933 87.84
L125.939 90.72
L125.981 87.84
L125.988 90.72
L125.988 90.72
L126.119 119.52
L126.177 116.64
L126.192 110.88
L126.242 116.64
L126.242 116.64
L126.384 131.04
L126.408 128.16
L126.41 131.04
L126.41 131.04
L126.502 145.44
L126.521 139.68
L126.618 131.04
L126.644 133.92
L126.716 136.8
L126.721 133.92
L126.788 131.04
L126.827 133.92
L126.906 142.56
L126.925 133.92
L127.017 139.68
L127.025 136.8
L127.114 128.16
L127.152 131.04
L127.197 145.44
L127.27 133.92
L127.307 136.8
L127.347 133.92
L127.381 131.04
L127.414 133.92
L127.414 133.92
L127.541 142.56
L127.571 136.8
L127.595 142.56
L127.595 142.56
L127.595 145.44
L127.601 142.56
L127.601 142.56
L127.62 139.68
L127.621 142.56
L127.621 142.56
L127.642 145.44
L127.651 142.56
L127.651 142.56
L127.759 128.16
L127.773 136.8
L127.78 142.56
L127.789 136.8
L127.789 136.8
L127.859 128.16
L127.915 133.92
L127.92 136.8
L127.933 133.92
L127.933 133.92
L128.05 110.88
L128.081 116.64
L128.144 110.88
L128.288 93.6
L128.312 105.12
L128.404 119.52
L128.414 116.64
L128.571 133.92
L128.585 128.16
L128.594 125.28
L128.6 128.16
L128.6 128.16
L128.604 131.04
L128.622 128.16
L128.622 128.16
L128.625 125.28
L128.649 128.16
L128.649 128.16
L128.656 131.04
L128.662 128.16
L128.662 128.16
L128.788 113.76
L128.827 110.88
L128.852 113.76
L128.852 113.76
L128.926 131.04
L128.962 128.16
L128.997 125.28
L129.017 128.16
L129.017 128.16
L129.06 139.68
L129.085 128.16
L129.085 128.16
L129.194 113.76
L129.325 122.4
L129.334 119.52
L129.334 116.64
L129.35 119.52
L129.35 119.52
L129.41 125.28
L129.426 119.52
L129.571 102.24
L129.604 99.36
L129.607 102.24
L129.607 102.24
L129.718 113.76
L129.742 110.88
L129.773 105.12
L129.779 110.88
L129.779 110.88
L129.855 131.04
L129.879 125.28
L129.904 116.64
L129.997 122.4
L130.005 125.28
L130.01 122.4
L130.01 122.4
L130.039 119.52
L130.042 122.4
L130.042 122.4
L130.06 125.28
L130.073 122.4
L130.073 122.4
L130.153 102.24
L130.199 105.12
L130.225 113.76
L130.323 108
L130.386 119.52
L130.438 110.88
L130.447 105.12
L130.475 110.88
L130.475 110.88
L130.502 119.52
L130.585 113.76
L130.628 105.12
L130.656 113.76
L130.656 113.76
L130.743 125.28
L130.761 119.52
L130.878 113.76
L130.881 116.64
L130.944 128.16
L130.963 125.28
L131.009 122.4
L131.05 125.28
L131.095 136.8
L131.174 128.16
L131.19 125.28
L131.211 128.16
L131.211 128.16
L131.25 133.92
L131.263 128.16
L131.263 128.16
L131.368 116.64
L131.378 119.52
L131.482 128.16
L131.482 125.28
L131.568 113.76
L131.601 122.4
L131.72 131.04
L131.723 128.16
L131.742 119.52
L131.789 128.16
L131.789 128.16
L131.886 154.08
L131.912 145.44
L132.019 125.28
L132.141 131.04
L132.142 128.16
L132.302 99.36
L132.329 102.24
L132.343 99.36
L132.343 99.36
L132.365 96.48
L132.366 99.36
L132.366 99.36
L132.397 105.12
L132.439 99.36
L132.439 99.36
L132.462 96.48
L132.465 99.36
L132.465 99.36
L132.476 102.24
L132.494 99.36
L132.494 99.36
L132.511 96.48
L132.52 99.36
L132.52 99.36
L132.525 102.24
L132.552 99.36
L132.552 99.36
L132.578 93.6
L132.579 99.36
L132.579 99.36
L132.65 108
L132.69 102.24
L132.795 93.6
L132.798 99.36
L132.809 96.48
L132.822 99.36
L132.822 99.36
L132.878 105.12
L132.926 99.36
L132.993 93.6
L133.007 99.36
L133.067 102.24
L133.071 99.36
L133.071 99.36
L133.078 96.48
L133.084 99.36
L133.084 99.36
L133.369 136.8
L133.385 133.92
L133.415 128.16
L133.441 133.92
L133.441 133.92
L133.451 136.8
L133.466 133.92
L133.466 133.92
L133.497 128.16
L133.516 133.92
L133.516 133.92
L133.639 145.44
L133.71 133.92
L133.792 128.16
L133.838 131.04
L133.878 128.16
L133.879 125.28
L133.88 128.16
L133.88 128.16
L134.017 139.68
L134.023 136.8
L134.129 125.28
L134.133 128.16
L134.144 125.28
L134.153 128.16
L134.153 128.16
L134.253 136.8
L134.304 133.92
L134.309 136.8
L134.309 136.8
L134.327 142.56
L134.334 136.8
L134.334 136.8
L134.452 119.52
L134.453 122.4
L134.498 116.64
L134.524 122.4
L134.56 125.28
L134.567 122.4
L134.567 122.4
L134.672 105.12
L134.673 102.24
L134.676 105.12
L134.676 105.12
L134.772 113.76
L134.799 108
L134.815 105.12
L134.878 108
L134.878 108
L134.916 110.88
L134.918 108
L134.918 108
L134.941 102.24
L134.952 108
L134.952 108
L134.976 113.76
L135.022 110.88
L135.108 116.64
L135.13 110.88
L135.168 108
L135.175 110.88
L135.175 110.88
L135.241 113.76
L135.246 110.88
L135.246 110.88
L135.32 105.12
L135.354 110.88
L135.354 110.88
L135.356 113.76
L135.364 110.88
L135.364 110.88
L135.369 108
L135.372 110.88
L135.372 110.88
L135.477 125.28
L135.53 119.52
L135.545 110.88
L135.576 119.52
L135.576 119.52
L135.642 125.28
L135.685 122.4
L135.708 125.28
L135.719 122.4
L135.719 122.4
L135.825 113.76
L135.844 119.52
L135.948 128.16
L136.001 125.28
L136.097 122.4
L136.107 125.28
L136.115 122.4
L136.12 125.28
L136.12 125.28
L136.237 133.92
L136.265 131.04
L136.45 116.64
L136.457 119.52
L136.62 133.92
L136.627 131.04
L136.684 116.64
L136.736 128.16
L136.741 131.04
L136.766 128.16
L136.766 128.16
L136.77 125.28
L136.772 128.16
L136.772 128.16
L136.779 131.04
L136.781 128.16
L136.781 128.16
L136.934 113.76
L136.938 116.64
L137.063 125.28
L137.069 122.4
L137.133 119.52
L137.142 122.4
L137.181 125.28
L137.187 122.4
L137.187 122.4
L137.244 116.64
L137.28 122.4
L137.483 139.68
L137.552 125.28
L137.59 139.68
L137.595 142.56
L137.602 139.68
L137.602 139.68
L137.712 133.92
L137.713 136.8
L137.813 122.4
L137.837 131.04
L137.945 142.56
L137.957 136.8
L138.037 125.28
L138.07 128.16
L138.143 133.92
L138.161 128.16
L138.17 125.28
L138.194 128.16
L138.194 128.16
L138.315 139.68
L138.328 136.8
L138.336 133.92
L138.34 136.8
L138.34 136.8
L138.483 154.08
L138.524 142.56
L138.555 154.08
L138.635 159.84
L138.656 156.96
L138.889 133.92
L138.901 136.8
L139.013 148.32
L139.041 142.56
L139.05 139.68
L139.052 142.56
L139.052 142.56
L139.139 154.08
L139.209 148.32
L139.227 154.08
L139.358 177.12
L139.398 174.24
L139.4 177.12
L139.4 177.12
L139.48 185.76
L139.494 180
L139.67 168.48
L139.823 145.44
L139.823 148.32
L139.84 154.08
L139.861 148.32
L139.861 148.32
L139.947 139.68
L139.971 145.44
L140.137 131.04
L140.146 133.92
L140.268 148.32
L140.27 151.2
L140.286 148.32
L140.286 148.32
L140.317 145.44
L140.332 148.32
L140.332 148.32
L140.336 151.2
L140.345 148.32
L140.345 148.32
L140.356 145.44
L140.36 148.32
L140.36 148.32
L140.364 154.08
L140.451 148.32
L140.451 148.32
L140.472 145.44
L140.525 148.32
L140.525 148.32
L140.568 154.08
L140.616 148.32
L140.616 148.32
L140.799 125.28
L140.822 122.4
L140.824 125.28
L140.824 125.28
L140.834 128.16
L140.835 125.28
L140.835 125.28
L140.889 116.64
L140.939 125.28
L141.172 90.72
L141.248 96.48
L141.332 105.12
L141.355 102.24
L141.464 87.84
L141.488 96.48
L141.614 113.76
L141.622 116.64
L141.633 113.76
L141.633 113.76
L141.652 110.88
L141.653 113.76
L141.653 113.76
L141.667 119.52
L141.685 113.76
L141.685 113.76
L141.722 110.88
L141.724 113.76
L141.724 113.76
L141.847 125.28
L141.852 122.4
L141.94 119.52
L141.944 122.4
L141.965 125.28
L141.984 122.4
L141.984 122.4
L142.011 116.64
L142.017 122.4
L142.017 122.4
L142.128 139.68
L142.144 133.92
L142.213 119.52
L142.29 122.4
L142.339 128.16
L142.365 122.4
L142.365 122.4
L142.423 110.88
L142.447 122.4
L142.506 125.28
L142.554 122.4
L142.556 119.52
L142.564 122.4
L142.564 122.4
L142.68 136.8
L142.698 131.04
L142.725 125.28
L142.74 131.04
L142.74 131.04
L142.745 133.92
L142.753 131.04
L142.753 131.04
L142.784 128.16
L142.789 131.04
L142.789 131.04
L142.821 133.92
L142.821 131.04
L142.821 131.04
L142.967 116.64
L142.979 119.52
L142.988 122.4
L142.99 119.52
L142.99 119.52
L143.087 105.12
L143.115 108
L143.149 116.64
L143.234 110.88
L143.527 76.32
L143.555 82.08
L143.736 116.64
L143.747 113.76
L143.747 116.64
L143.747 116.64
L143.908 139.68
L143.957 133.92
L144.007 139.68
L144.045 133.92
L144.061 128.16
L144.075 133.92
L144.075 133.92
L144.209 142.56
L144.295 128.16
L144.311 131.04
L144.4 139.68
L144.433 133.92
L144.452 122.4
L144.493 133.92
L144.493 133.92
L144.544 145.44
L144.599 139.68
L144.646 136.8
L144.657 139.68
L144.657 139.68
L144.681 142.56
L144.688 139.68
L144.688 139.68
L144.737 136.8
L144.737 139.68
L144.737 139.68
L144.762 148.32
L144.788 139.68
L144.788 139.68
L144.906 131.04
L144.947 139.68
L145.034 136.8
L145.114 122.4
L145.175 133.92
L145.196 139.68
L145.204 133.92
L145.204 133.92
L145.244 122.4
L145.327 125.28
L145.44 136.8
L145.489 125.28
L145.548 133.92
L145.577 139.68
L145.583 133.92
L145.583 133.92
L145.672 128.16
L145.687 133.92
L145.731 136.8
L145.74 133.92
L145.74 133.92
L145.763 131.04
L145.781 133.92
L145.781 133.92
L145.788 136.8
L145.795 133.92
L145.795 133.92
L145.83 131.04
L145.834 133.92
L145.834 133.92
L145.868 142.56
L145.917 133.92
L145.958 139.68
L145.979 133.92
L145.979 133.92
L145.998 128.16
L146.022 133.92
L146.022 133.92
L146.025 136.8
L146.027 133.92
L146.027 133.92
L146.1 122.4
L146.128 131.04
L146.253 142.56
L146.256 136.8
L146.31 131.04
L146.349 133.92
L146.372 136.8
L146.377 133.92
L146.377 133.92
L146.482 122.4
L146.591 131.04
L146.634 128.16
L146.715 119.52
L146.76 125.28
L146.813 133.92
L146.845 125.28
L146.934 119.52
L146.934 122.4
L147.193 142.56
L147.205 139.68
L147.384 119.52
L147.398 122.4
L147.404 119.52
L147.404 119.52
L147.476 113.76
L147.49 108
L147.491 113.76
L147.491 113.76
L147.585 128.16
L147.602 122.4
L147.727 108
L147.747 113.76
L147.866 122.4
L148.073 102.24
L148.082 105.12
L148.124 110.88
L148.149 105.12
L148.149 105.12
L148.211 99.36
L148.226 105.12
L148.226 105.12
L148.331 116.64
L148.443 105.12
L148.465 110.88
L148.626 133.92
L148.747 122.4
L148.759 128.16
L148.834 139.68
L148.872 131.04
L148.873 128.16
L148.874 131.04
L148.874 131.04
L148.874 133.92
L148.875 131.04
L148.875 131.04
L148.875 128.16
L148.897 131.04
L148.897 131.04
L149 139.68
L149.008 133.92
L149.168 108
L149.247 110.88
L149.263 113.76
L149.271 110.88
L149.271 110.88
L149.383 102.24
L149.396 105.12
L149.459 110.88
L149.486 105.12
L149.548 102.24
L149.556 105.12
L149.649 119.52
L149.658 116.64
L149.7 119.52
L149.708 116.64
L149.888 102.24
L149.898 105.12
L150.007 108
L150.041 99.36
L150.046 108
L150.046 108
L150.082 116.64
L150.128 108
L150.128 108
L150.129 105.12
L150.137 108
L150.137 108
L150.288 125.28
L150.405 133.92
L150.414 131.04
L150.421 128.16
L150.423 131.04
L150.423 131.04
L150.447 136.8
L150.465 131.04
L150.465 131.04
L150.608 116.64
L150.625 119.52
L150.725 125.28
L150.779 128.16
L150.779 125.28
L150.779 125.28
L150.789 119.52
L150.801 125.28
L150.801 125.28
L150.812 131.04
L150.842 125.28
L150.842 125.28
L150.85 122.4
L150.857 125.28
L150.857 125.28
L150.863 131.04
L150.906 125.28
L150.906 125.28
L150.921 119.52
L150.973 125.28
L150.973 125.28
L151.096 142.56
L151.302 162.72
L151.344 156.96
L151.428 154.08
L151.434 156.96
L151.447 159.84
L151.459 156.96
L151.459 156.96
L151.524 151.2
L151.549 156.96
L151.549 156.96
L151.562 162.72
L151.587 156.96
L151.587 156.96
L151.687 148.32
L151.733 142.56
L151.774 148.32
L151.799 151.2
L151.8 148.32
L151.8 148.32
L151.886 125.28
L151.906 131.04
L151.928 128.16
L151.928 131.04
L151.928 131.04
L151.949 139.68
L152.053 136.8
L152.09 133.92
L152.09 136.8
L152.09 136.8
L152.178 145.44
L152.205 139.68
L152.24 131.04
L152.244 139.68
L152.244 139.68
L152.398 156.96
L152.425 159.84
L152.44 156.96
L152.44 156.96
L152.46 154.08
L152.467 156.96
L152.467 156.96
L152.54 165.6
L152.55 156.96
L152.55 156.96
L152.648 145.44
L152.679 148.32
L152.689 151.2
L152.689 148.32
L152.689 148.32
L152.735 145.44
L152.738 148.32
L152.738 148.32
L152.802 154.08
L152.826 148.32
L152.875 139.68
L152.903 148.32
L152.903 148.32
L152.939 151.2
L152.943 148.32
L152.943 148.32
L152.977 145.44
L152.981 148.32
L152.981 148.32
L153.029 154.08
L153.047 148.32
L153.047 148.32
L153.079 142.56
L153.101 148.32
L153.101 148.32
L153.18 159.84
L153.212 151.2
L153.333 125.28
L153.438 122.4
L153.556 148.32
L153.572 145.44
L153.663 142.56
L153.689 148.32
L153.694 142.56
L153.694 142.56
L153.763 128.16
L153.793 139.68
L153.901 148.32
L153.925 145.44
L153.933 142.56
L153.966 145.44
L153.966 145.44
L154.013 151.2
L154.072 145.44
L154.077 142.56
L154.098 145.44
L154.098 145.44
L154.141 156.96
L154.269 154.08
L154.366 145.44
L154.457 136.8
L154.477 142.56
L154.566 151.2
L154.596 145.44
L154.65 136.8
L154.658 145.44
L154.658 145.44
L154.689 151.2
L154.714 145.44
L154.714 145.44
L154.88 131.04
L154.901 136.8
L154.981 145.44
L155.072 151.2
L155.077 145.44
L155.077 145.44
L155.079 142.56
L155.086 145.44
L155.086 145.44
L155.088 151.2
L155.107 145.44
L155.107 145.44
L155.234 133.92
L155.265 136.8
L155.283 133.92
L155.283 133.92
L155.337 122.4
L155.386 133.92
L155.405 136.8
L155.459 133.92
L155.459 133.92
L155.512 125.28
L155.56 133.92
L155.56 133.92
L155.664 145.44
L155.796 119.52
L155.894 131.04
L155.898 133.92
L155.899 131.04
L155.899 131.04
L155.902 128.16
L155.908 131.04
L155.908 131.04
L155.948 142.56
L156.02 136.8
L156.154 125.28
L156.166 128.16
L156.209 142.56
L156.271 128.16
L156.288 119.52
L156.322 128.16
L156.322 128.16
L156.408 139.68
L156.452 131.04
L156.492 116.64
L156.546 119.52
L156.652 131.04
L156.67 122.4
L156.675 119.52
L156.679 122.4
L156.679 122.4
L156.767 136.8
L156.789 131.04
L156.983 110.88
L157.023 116.64
L157.143 131.04
L157.203 116.64
L157.236 125.28
L157.328 119.52
L157.332 125.28
L157.358 128.16
L157.362 125.28
L157.362 125.28
L157.421 113.76
L157.49 119.52
L157.599 102.24
L157.634 113.76
L157.638 116.64
L157.641 113.76
L157.641 113.76
L157.774 93.6
L157.785 99.36
L157.84 87.84
L157.907 93.6
L158.019 108
L158.075 102.24
L158.121 99.36
L158.128 102.24
L158.128 102.24
L158.206 116.64
L158.238 113.76
L158.313 99.36
L158.362 110.88
L158.505 102.24
L158.518 105.12
L158.606 113.76
L158.616 110.88
L158.663 99.36
L158.723 108
L158.74 110.88
L158.757 108
L158.757 108
L158.774 96.48
L158.887 99.36
L158.968 110.88
L159 102.24
L159.076 84.96
L159.108 87.84
L159.119 90.72
L159.128 87.84
L159.128 87.84
L159.149 84.96
L159.157 87.84
L159.157 87.84
L159.285 113.76
L159.289 110.88
L159.312 116.64
L159.32 110.88
L159.32 110.88
L159.408 102.24
L159.43 108
L159.451 119.52
L159.491 108
L159.491 108
L159.492 102.24
L159.523 108
L159.523 108
L159.61 119.52
L159.637 113.76
L159.733 110.88
L159.826 125.28
L159.872 116.64
L159.907 113.76
L159.91 116.64
L159.91 116.64
L159.913 119.52
L159.935 116.64
L159.935 116.64
L159.939 113.76
L159.946 116.64
L159.946 116.64
L159.957 119.52
L159.958 116.64
L159.958 116.64
L160.023 105.12
L160.05 116.64
L160.378 87.84
L160.383 96.48
L160.494 108
L160.516 105.12
L160.572 99.36
L160.589 105.12
L160.695 122.4
L160.708 116.64
L160.814 131.04
L160.852 119.52
L161.006 96.48
L161.06 99.36
L161.101 108
L161.132 99.36
L161.132 99.36
L161.137 96.48
L161.157 99.36
L161.157 99.36
L161.166 102.24
L161.187 99.36
L161.187 99.36
L161.242 96.48
L161.25 99.36
L161.25 99.36
L161.26 108
L161.282 99.36
L161.282 99.36
L161.366 87.84
L161.393 90.72
L161.596 110.88
L161.64 108
L161.646 110.88
L161.646 110.88
L161.837 136.8
L161.851 133.92
L161.907 131.04
L161.922 133.92
L161.922 133.92
L162.021 142.56
L162.034 136.8
L162.119 131.04
L162.123 136.8
L162.123 136.8
L162.211 154.08
L162.248 151.2
L162.259 154.08
L162.265 151.2
L162.265 151.2
L162.333 142.56
L162.471 154.08
L162.495 145.44
L162.498 142.56
L162.508 145.44
L162.508 145.44
L162.533 151.2
L162.585 145.44
L162.585 145.44
L162.704 139.68
L162.705 142.56
L162.71 145.44
L162.712 142.56
L162.712 142.56
L162.716 139.68
L162.717 142.56
L162.717 142.56
L162.853 162.72
L162.86 159.84
L162.872 162.72
L162.872 162.72
L162.88 165.6
L162.882 162.72
L162.882 162.72
L162.895 159.84
L162.896 162.72
L162.896 162.72
L162.946 171.36
L163.006 168.48
L163.092 154.08
L163.133 162.72
L163.153 168.48
L163.243 162.72
L163.248 159.84
L163.256 162.72
L163.256 162.72
L163.265 165.6
L163.266 162.72
L163.266 162.72
L163.442 145.44
L163.457 151.2
L163.472 154.08
L163.478 151.2
L163.478 151.2
L163.565 136.8
L163.617 145.44
L163.716 148.32
L163.728 145.44
L163.79 128.16
L163.875 131.04
L163.878 133.92
L163.881 131.04
L163.881 131.04
L164.049 116.64
L164.067 125.28
L164.247 151.2
L164.292 148.32
L164.447 136.8
L164.453 139.68
L164.565 154.08
L164.623 151.2
L164.791 136.8
L164.81 133.92
L164.845 136.8
L164.845 136.8
L164.853 145.44
L164.903 136.8
L164.903 136.8
L165.109 116.64
L165.113 119.52
L165.257 136.8
L165.29 131.04
L165.292 136.8
L165.292 136.8
L165.32 139.68
L165.321 136.8
L165.321 136.8
L165.325 133.92
L165.363 136.8
L165.363 136.8
L165.367 139.68
L165.375 136.8
L165.375 136.8
L165.387 131.04
L165.444 136.8
L165.444 136.8
L165.479 139.68
L165.487 136.8
L165.487 136.8
L165.506 133.92
L165.51 136.8
L165.51 136.8
L165.514 139.68
L165.529 136.8
L165.529 136.8
L165.59 128.16
L165.643 131.04
L165.664 133.92
L165.667 131.04
L165.667 131.04
L165.827 116.64
L165.827 119.52
L165.887 125.28
L165.928 119.52
L166.058 105.12
L166.13 113.76
L166.183 110.88
L166.274 108
L166.881 159.84
L166.901 154.08
L166.947 145.44
L166.993 148.32
L167.039 151.2
L167.056 148.32
L167.075 145.44
L167.095 148.32
L167.095 148.32
L167.1 154.08
L167.118 148.32
L167.118 148.32
L167.151 139.68
L167.164 148.32
L167.164 148.32
L167.216 154.08
L167.258 148.32
L167.325 139.68
L167.37 145.44
L167.494 151.2
L167.501 148.32
L167.512 151.2
L167.512 151.2
L167.521 154.08
L167.532 151.2
L167.532 151.2
L167.664 136.8
L167.769 125.28
L167.812 131.04
L167.833 136.8
L167.898 131.04
L167.898 131.04
L168.005 122.4
L168.1 119.52
L168.104 122.4
L168.141 125.28
L168.148 122.4
L168.148 122.4
L168.215 110.88
L168.258 119.52
L168.259 122.4
L168.266 119.52
L168.266 119.52
L168.32 110.88
L168.36 119.52
L168.36 119.52
L168.441 128.16
L168.464 125.28
L168.65 87.84
L168.735 96.48
L168.769 99.36
L168.776 96.48
L168.776 96.48
L168.841 84.96
L168.852 96.48
L168.852 96.48
L168.935 119.52
L168.992 113.76
L168.998 110.88
L169.001 113.76
L169.001 113.76
L169.096 131.04
L169.146 128.16
L169.227 122.4
L169.235 125.28
L169.292 133.92
L169.304 136.8
L169.332 133.92
L169.332 133.92
L169.452 119.52
L169.544 113.76
L169.562 119.52
L169.679 128.16
L169.812 136.8
L169.864 131.04
L169.923 133.92
L169.988 142.56
L170.014 145.44
L170.015 142.56
L170.015 142.56
L170.122 136.8
L170.123 139.68
L170.137 142.56
L170.148 139.68
L170.148 139.68
L170.158 136.8
L170.17 139.68
L170.17 139.68
L170.209 145.44
L170.253 139.68
L170.314 131.04
L170.334 139.68
L170.465 131.04
L170.47 136.8
L170.539 142.56
L170.585 139.68
L170.744 116.64
L170.755 122.4
L170.867 128.16
L170.907 122.4
L170.924 128.16
L170.924 128.16
L170.924 131.04
L170.926 128.16
L170.926 128.16
L170.942 125.28
L170.948 128.16
L170.948 128.16
L171.078 142.56
L171.089 136.8
L171.183 125.28
L171.194 128.16
L171.36 136.8
L171.361 133.92
L171.524 113.76
L171.635 136.8
L171.642 131.04
L171.653 128.16
L171.667 131.04
L171.667 131.04
L171.668 133.92
L171.673 131.04
L171.673 131.04
L171.675 128.16
L171.697 131.04
L171.697 131.04
L171.699 133.92
L171.713 131.04
L171.713 131.04
L171.734 128.16
L171.75 131.04
L171.75 131.04
L171.778 139.68
L171.859 136.8
L171.947 131.04
L171.967 136.8
L172.017 133.92
L172.032 136.8
L172.07 145.44
L172.131 136.8
L172.131 136.8
L172.23 116.64
L172.231 119.52
L172.309 125.28
L172.358 122.4
L172.39 110.88
L172.457 122.4
L172.457 122.4
L172.472 128.16
L172.478 122.4
L172.478 122.4
L172.533 113.76
L172.591 119.52
L172.595 116.64
L172.597 119.52
L172.597 119.52
L172.599 122.4
L172.632 119.52
L172.632 119.52
L172.779 108
L172.786 113.76
L172.837 116.64
L172.84 113.76
L172.84 113.76
L172.884 110.88
L172.895 113.76
L172.895 113.76
L172.963 125.28
L173.003 116.64
L173.096 99.36
L173.114 105.12
L173.222 99.36
L173.222 102.24
L173.246 108
L173.257 102.24
L173.257 102.24
L173.257 99.36
L173.262 102.24
L173.262 102.24
L173.383 119.52
L173.39 116.64
L173.439 110.88
L173.445 116.64
L173.445 116.64
L173.481 125.28
L173.556 122.4
L173.626 125.28
L173.732 119.52
L173.738 122.4
L173.745 125.28
L173.761 122.4
L173.761 122.4
L173.786 119.52
L173.789 122.4
L173.789 122.4
L173.833 133.92
L173.89 131.04
L173.96 136.8
L173.98 131.04
L174.025 113.76
L174.111 116.64
L174.5 148.32
L174.614 136.8
L174.62 145.44
L174.823 133.92
L174.823 136.8
L174.842 148.32
L174.897 136.8
L174.946 131.04
L174.949 136.8
L174.949 136.8
L175.048 142.56
L175.083 133.92
L175.14 139.68
L175.21 142.56
L175.215 139.68
L175.215 139.68
L175.286 128.16
L175.318 131.04
L175.376 128.16
L175.394 131.04
L175.412 136.8
L175.47 131.04
L175.47 131.04
L175.585 116.64
L175.587 119.52
L175.604 122.4
L175.606 119.52
L175.606 119.52
L175.654 116.64
L175.656 119.52
L175.656 119.52
L175.738 128.16
L175.766 122.4
L175.861 113.76
L175.883 119.52
L175.903 116.64
L175.938 119.52
L175.938 119.52
L175.947 122.4
L175.955 119.52
L175.955 119.52
L175.958 116.64
L175.963 119.52
L175.963 119.52
L176.004 125.28
L176.033 119.52
L176.033 119.52
L176.115 110.88
L176.147 116.64
L176.223 128.16
L176.272 122.4
L176.429 105.12
L176.478 113.76
L176.532 125.28
L176.593 116.64
L176.597 113.76
L176.602 116.64
L176.602 116.64
L176.717 125.28
L176.833 133.92
L176.951 139.68
L177.041 131.04
L177.06 136.8
L177.17 145.44
L177.219 139.68
L177.242 145.44
L177.242 145.44
L177.334 156.96
L177.34 154.08
L177.385 151.2
L177.385 154.08
L177.385 154.08
L177.387 156.96
L177.419 154.08
L177.419 154.08
L177.53 139.68
L177.543 142.56
L177.603 148.32
L177.619 142.56
L177.619 142.56
L177.649 136.8
L177.673 142.56
L177.673 142.56
L177.822 162.72
L177.83 159.84
L177.852 154.08
L177.887 159.84
L177.887 159.84
L177.895 162.72
L177.907 159.84
L177.907 159.84
L177.909 156.96
L177.912 159.84
L177.912 159.84
L177.945 165.6
L177.98 159.84
L177.98 159.84
L178.033 151.2
L178.098 156.96
L178.105 162.72
L178.117 156.96
L178.117 156.96
L178.132 154.08
L178.138 156.96
L178.138 156.96
L178.208 162.72
L178.226 156.96
L178.465 128.16
L178.498 136.8
L178.566 142.56
L178.57 136.8
L178.57 136.8
L178.602 133.92
L178.634 136.8
L178.634 136.8
L178.659 139.68
L178.664 136.8
L178.664 136.8
L178.846 105.12
L178.863 108
L178.927 119.52
L179.09 136.8
L179.158 128.16
L179.195 122.4
L179.197 128.16
L179.197 128.16
L179.204 131.04
L179.253 128.16
L179.253 128.16
L179.338 125.28
L179.398 122.4
L179.412 125.28
L179.431 128.16
L179.433 125.28
L179.433 125.28
L179.589 105.12
L179.628 108
L179.733 122.4
L179.805 116.64
L179.814 113.76
L179.815 116.64
L179.815 116.64
L179.829 122.4
L179.833 116.64
L179.833 116.64
L179.845 113.76
L179.86 116.64
L179.86 116.64
L179.864 119.52
L179.873 116.64
L179.873 116.64
L179.888 110.88
L179.942 116.64
L179.942 116.64
L180.027 125.28
L180.047 119.52
L180.056 116.64
L180.065 119.52
L180.065 119.52
L180.107 122.4
L180.118 119.52
L180.118 119.52
L180.231 108
L180.236 110.88
L180.379 131.04
L180.616 148.32
L180.644 145.44
L180.662 148.32
L180.662 148.32
L180.676 154.08
L180.722 148.32
L180.722 148.32
L180.788 133.92
L180.828 145.44
L180.853 151.2
L180.879 145.44
L180.879 145.44
L180.908 142.56
L180.916 145.44
L180.916 145.44
L180.926 148.32
L180.927 145.44
L180.927 145.44
L181.07 128.16
L181.138 136.8
L181.145 139.68
L181.154 136.8
L181.154 136.8
L181.24 119.52
L181.254 122.4
L181.298 116.64
L181.305 122.4
L181.305 122.4
L181.373 133.92
L181.376 136.8
L181.39 133.92
L181.39 133.92
L181.57 113.76
L181.586 116.64
L181.612 125.28
L181.673 116.64
L181.673 116.64
L181.692 113.76
L181.696 116.64
L181.696 116.64
L181.751 119.52
L181.771 116.64
L181.771 116.64
L181.776 113.76
L181.778 116.64
L181.778 116.64
L181.784 119.52
L181.792 116.64
L181.792 116.64
L181.858 113.76
L181.866 116.64
L181.874 122.4
L181.885 116.64
L181.885 116.64
L181.968 110.88
L181.996 113.76
L182.08 105.12
L182.164 110.88
L182.169 105.12
L182.362 84.96
L182.436 87.84
L182.494 96.48
L182.51 87.84
L182.51 87.84
L182.523 82.08
L182.557 87.84
L182.557 87.84
L182.588 96.48
L182.612 87.84
L182.612 87.84
L182.615 84.96
L182.618 87.84
L182.618 87.84
L182.618 90.72
L182.624 87.84
L182.624 87.84
L182.624 84.96
L182.628 87.84
L182.628 87.84
L182.736 102.24
L182.763 96.48
L182.804 102.24
L182.804 102.24
L182.905 125.28
L182.932 119.52
L182.963 128.16
L182.985 119.52
L182.985 119.52
L183.018 113.76
L183.025 119.52
L183.025 119.52
L183.042 122.4
L183.043 119.52
L183.043 119.52
L183.085 110.88
L183.111 119.52
L183.111 119.52
L183.252 133.92
L183.259 128.16
L183.272 133.92
L183.272 133.92
L183.283 142.56
L183.351 133.92
L183.351 133.92
L183.481 128.16
L183.509 133.92
L183.537 128.16
L183.537 128.16
L183.61 119.52
L183.638 125.28
L183.77 136.8
L183.784 133.92
L183.856 139.68
L183.878 136.8
L183.994 125.28
L184.017 131.04
L184.023 133.92
L184.024 131.04
L184.024 131.04
L184.095 122.4
L184.129 128.16
L184.135 131.04
L184.148 128.16
L184.148 128.16
L184.245 110.88
L184.266 119.52
L184.409 145.44
L184.482 142.56
L184.546 148.32
L184.564 145.44
L184.658 136.8
L184.704 131.04
L184.732 136.8
L184.732 136.8
L184.843 148.32
L185.061 119.52
L185.109 125.28
L185.232 136.8
L185.251 139.68
L185.314 136.8
L185.338 133.92
L185.338 136.8
L185.338 136.8
L185.346 139.68
L185.355 136.8
L185.355 136.8
L185.355 133.92
L185.362 136.8
L185.362 136.8
L185.364 139.68
L185.365 136.8
L185.365 136.8
L185.466 128.16
L185.499 131.04
L185.528 128.16
L185.528 128.16
L185.562 119.52
L185.635 125.28
L185.733 133.92
L185.734 131.04
L185.787 133.92
L185.796 131.04
L185.938 110.88
L185.957 116.64
L186.306 79.2
L186.344 87.84
L186.442 102.24
L186.451 96.48
L186.472 105.12
L186.549 99.36
L186.609 96.48
L186.613 99.36
L186.613 99.36
L186.617 105.12
L186.623 99.36
L186.623 99.36
L186.777 90.72
L186.906 99.36
L186.992 93.6
L187.014 96.48
L187.122 108
L187.136 105.12
L187.3 90.72
L187.311 93.6
L187.461 113.76
L187.462 110.88
L187.487 102.24
L187.507 110.88
L187.507 110.88
L187.616 113.76
L187.7 99.36
L187.732 105.12
L187.86 90.72
L187.989 108
L188.018 105.12
L188.028 102.24
L188.036 105.12
L188.036 105.12
L188.125 110.88
L188.145 108
L188.242 99.36
L188.25 108
L188.318 122.4
L188.367 116.64
L188.413 102.24
L188.48 105.12
L188.647 82.08
L188.679 87.84
L188.702 96.48
L188.738 87.84
L188.738 87.84
L188.739 84.96
L188.74 87.84
L188.74 87.84
L188.74 90.72
L188.743 87.84
L188.743 87.84
L188.796 84.96
L188.804 87.84
L188.852 96.48
L188.908 90.72
L189.009 64.8
L189.077 73.44
L189.099 76.32
L189.117 73.44
L189.117 73.44
L189.159 70.56
L189.161 73.44
L189.161 73.44
L189.161 76.32
L189.162 73.44
L189.162 73.44
L189.207 70.56
L189.236 73.44
L189.236 73.44
L189.295 84.96
L189.356 76.32
L189.408 82.08
L189.415 76.32
L189.425 73.44
L189.486 76.32
L189.486 76.32
L189.59 105.12
L189.611 96.48
L189.687 110.88
L189.783 105.12
L189.906 84.96
L189.969 93.6
L190.111 102.24
L190.172 90.72
L190.21 102.24
L190.227 108
L190.238 102.24
L190.238 102.24
L190.266 96.48
L190.276 102.24
L190.276 102.24
L190.281 105.12
L190.298 102.24
L190.298 102.24
L190.302 99.36
L190.323 102.24
L190.323 102.24
L190.485 116.64
L190.577 102.24
L190.585 105.12
L190.699 93.6
L190.716 102.24
L190.759 105.12
L190.766 102.24
L190.766 102.24
L190.781 93.6
L190.801 102.24
L190.801 102.24
L190.941 113.76
L190.957 108
L190.974 113.76
L190.974 113.76
L190.981 116.64
L190.981 113.76
L190.981 113.76
L191.011 108
L191.077 110.88
L191.108 113.76
L191.124 110.88
L191.124 110.88
L191.135 108
L191.141 110.88
L191.141 110.88
L191.24 119.52
L191.248 116.64
L191.254 113.76
L191.263 116.64
L191.263 116.64
L191.286 125.28
L191.309 116.64
L191.309 116.64
L191.337 110.88
L191.346 116.64
L191.346 116.64
L191.359 122.4
L191.383 116.64
L191.383 116.64
L191.491 108
L191.579 96.48
L191.617 105.12
L191.738 125.28
L191.767 119.52
L191.841 108
L191.875 116.64
L191.94 119.52
L191.954 116.64
L191.954 116.64
L192.082 108
L192.097 105.12
L192.106 108
L192.106 108
L192.106 110.88
L192.115 108
L192.115 108
L192.288 84.96
L192.289 87.84
L192.347 90.72
L192.352 87.84
L192.352 87.84
L192.389 76.32
L192.424 87.84
L192.424 87.84
L192.546 108
L192.547 105.12
L192.553 102.24
L192.569 105.12
L192.569 105.12
L192.715 125.28
L192.73 119.52
L192.758 116.64
L192.765 119.52
L192.765 119.52
L192.768 122.4
L192.778 119.52
L192.778 119.52
L192.824 108
L192.845 113.76
L192.903 116.64
L192.915 113.76
L192.926 110.88
L192.94 113.76
L192.94 113.76
L193.054 131.04
L193.175 122.4
L193.221 136.8
L193.285 133.92
L193.458 119.52
L193.463 122.4
L193.475 128.16
L193.48 122.4
L193.48 122.4
L193.53 108
L193.567 122.4
L193.567 122.4
L193.599 128.16
L193.636 122.4
L193.636 122.4
L193.656 116.64
L193.706 122.4
L193.706 122.4
L193.778 133.92
L193.812 131.04
L193.894 119.52
L193.935 128.16
L194.013 136.8
L194.039 131.04
L194.055 128.16
L194.064 131.04
L194.064 131.04
L194.066 133.92
L194.071 131.04
L194.071 131.04
L194.241 110.88
L194.256 113.76
L194.343 122.4
L194.355 119.52" style="fill:none;stroke:#0000ff;stroke-linecap:square;"/>
   </g>
   <g id="matplotlib.axis_1">
    <g id="text_1">
     <!-- $t$ -->
     <defs>
      <path d="
M1.79688 38.5938
L10.2031 38.5938
L10.2031 11.7031
C10.2031 0.703125 15.0938 -1.09375 18.4062 -1.09375
C22.9062 -1.09375 28 -0.09375 33.2031 2.70312
L31.5938 8.59375
C30.2031 7.59375 27.0938 5.29688 22.7969 5.29688
C17.5938 5.29688 17.4062 11.2031 17.4062 14
L17.4062 38.5938
L31.5 38.5938
L31.5 44.5
L17.4062 44.5
L17.4062 57.0938
L10.4062 57.0938
L10.4062 44.5
L1.79688 44.5
z
" id="CMUSansSerif-74"/>
     </defs>
     <g transform="translate(108.036 209.79725)scale(0.144 -0.144)">
      <use transform="translate(0.0 0.90625)" xlink:href="#CMUSansSerif-74"/>
     </g>
    </g>
   </g>
   <g id="matplotlib.axis_2">
    <g id="text_2">
     <!-- $n(t)$ -->
     <defs>
      <path d="
M8 0
L15.7969 0
L15.7969 24
C15.7969 31.4062 18.2969 39.4062 26 39.4062
C35.7969 39.4062 35.7969 31.9062 35.7969 28.0938
L35.7969 0
L43.5938 0
L43.5938 28.7969
C43.5938 35.7969 42.7031 45.5 29.9062 45.5
C21.0938 45.5 16.7031 39.7969 15.2969 38
L15.2969 45
L8 45
z
" id="CMUSansSerif-6e"/>
      <path d="
M5.5 -25
L11.5938 -25
C18.4062 -18.9062 30.7969 -5.09375 30.7969 25.0938
C30.7969 55 18.4062 68.9062 11.5938 75
L5.5 75
C10.2031 70 23 57.7031 23 25
C23 -6.40625 11.5 -18.5938 5.5 -25" id="CMUSansSerif-29"/>
      <path d="
M8 25
C8 -5.40625 20.7031 -19.2031 27.0938 -25
L33.2969 -25
L30.0938 -21.5938
C18.4062 -8.09375 15.7969 10.2969 15.7969 25
C15.7969 38.7031 18.0938 52.9062 25.2031 64.7969
C28.0938 69.7031 30.4062 71.9062 33.2969 75
L27.0938 75
C20.2969 68.9062 8 55.0938 8 25" id="CMUSansSerif-28"/>
     </defs>
     <g transform="translate(18.4 119.952)rotate(-90.0)scale(0.144 -0.144)">
      <use xlink:href="#CMUSansSerif-6e"/>
      <use transform="translate(51.69999694824219 0.0)" xlink:href="#CMUSansSerif-28"/>
      <use transform="translate(90.59999084472656 0.0)" xlink:href="#CMUSansSerif-74"/>
      <use transform="translate(126.69998168945312 0.0)" xlink:href="#CMUSansSerif-29"/>
     </g>
    </g>
   </g>
   <g id="patch_3">
    <path d="
M194.4 194.4
L194.4 21.6" style="fill:none;stroke:#000000;"/>
   </g>
   <g id="patch_4">
    <path d="
M27 21.6
L194.4 21.6" style="fill:none;stroke:#000000;"/>
   </g>
   <g id="patch_5">
    <path d="
M27 194.4
L27 21.6" style="fill:none;stroke:#000000;"/>
   </g>
   <g id="patch_6">
    <path d="
M27 194.4
L194.4 194.4" style="fill:none;stroke:#000000;"/>
   </g>
  </g>
 </g>
 <defs>
  <clipPath id="p4c72f1c596">
   <rect height="172.8" width="167.4" x="27.0" y="21.6"/>
  </clipPath>
 </defs>
</svg>
