<?xml version="1.0" encoding="utf-8" standalone="no"?>
<!DOCTYPE svg PUBLIC "-//W3C//DTD SVG 1.1//EN"
  "http://www.w3.org/Graphics/SVG/1.1/DTD/svg11.dtd">
<!-- Created with matplotlib (http://matplotlib.org/) -->
<svg height="216pt" version="1.1" viewBox="0 0 216 216" width="216pt" xmlns="http://www.w3.org/2000/svg" xmlns:xlink="http://www.w3.org/1999/xlink">
 <defs>
  <style type="text/css">
*{stroke-linecap:butt;stroke-linejoin:round;}
  </style>
 </defs>
 <g id="figure_1">
  <g id="patch_1">
   <path d="
M0 216
L216 216
L216 0
L0 0
z
" style="fill:#ffffff;"/>
  </g>
  <g id="axes_1">
   <g id="patch_2">
    <path d="
M27 194.4
L194.4 194.4
L194.4 21.6
L27 21.6
z
" style="fill:#ffffff;"/>
   </g>
   <g id="line2d_1">
    <path clip-path="url(#p4c72f1c596)" d="
M27 194.4
L27.7281 114.912
L27.7568 118.368
L27.758 114.912
L27.8132 111.456
L27.8179 114.912
L27.8235 118.368
L27.8321 114.912
L27.8321 114.912
L27.9217 90.72
L27.9423 94.176
L27.9683 90.72
L27.9797 94.176
L27.9797 94.176
L28.0314 114.912
L28.0833 108
L28.1305 111.456
L28.1468 108
L28.1673 101.088
L28.176 108
L28.176 108
L28.2008 111.456
L28.2063 108
L28.2063 108
L28.2376 104.544
L28.2518 108
L28.2518 108
L28.2522 111.456
L28.2553 108
L28.2553 108
L28.3282 94.176
L28.3416 97.632
L28.4142 83.808
L28.5838 63.072
L28.6168 66.528
L28.622 63.072
L28.622 63.072
L28.668 59.616
L28.6721 63.072
L28.6721 63.072
L28.6981 66.528
L28.7147 63.072
L28.7147 63.072
L28.7527 49.248
L28.804 56.16
L28.834 52.704
L28.838 56.16
L28.838 56.16
L28.9582 69.984
L28.9907 66.528
L28.9993 69.984
L28.9993 69.984
L29.0268 76.896
L29.0342 69.984
L29.0342 69.984
L29.0364 66.528
L29.0536 69.984
L29.0536 69.984
L29.2598 104.544
L29.4428 128.736
L29.4556 118.368
L29.4863 108
L29.5596 118.368
L29.5623 125.28
L29.5683 118.368
L29.5683 118.368
L29.6273 114.912
L29.6284 118.368
L29.6284 118.368
L29.7202 125.28
L29.7307 121.824
L29.9033 101.088
L29.9444 104.544
L29.9539 101.088
L29.9539 101.088
L30.0513 94.176
L30.0637 97.632
L30.0733 101.088
L30.0741 97.632
L30.0741 97.632
L30.1943 69.984
L30.279 87.264
L30.3607 80.352
L30.4669 83.808
L30.4932 80.352
L30.4988 83.808
L30.4988 83.808
L30.6563 97.632
L30.6612 94.176
L30.8081 76.896
L30.89 90.72
L30.9147 83.808
L30.9699 69.984
L30.971 66.528
L30.9749 69.984
L30.9749 69.984
L30.9795 73.44
L30.9872 69.984
L30.9872 69.984
L31.0562 63.072
L31.0692 69.984
L31.1446 83.808
L31.1631 69.984
L31.1895 63.072
L31.2006 69.984
L31.2006 69.984
L31.2054 76.896
L31.2207 69.984
L31.2207 69.984
L31.234 63.072
L31.2477 69.984
L31.2477 69.984
L31.2501 73.44
L31.2509 69.984
L31.2509 69.984
L31.2558 66.528
L31.2744 69.984
L31.2744 69.984
L31.3219 80.352
L31.3472 69.984
L31.3472 69.984
L31.3539 66.528
L31.3544 69.984
L31.3544 69.984
L31.4317 76.896
L31.4599 73.44
L31.5339 66.528
L31.5837 69.984
L31.5971 66.528
L31.6041 69.984
L31.6041 69.984
L31.7066 76.896
L31.7254 73.44
L31.7484 69.984
L31.7738 73.44
L31.7738 73.44
L31.7793 76.896
L31.7856 73.44
L31.7856 73.44
L31.8064 69.984
L31.8122 73.44
L31.8122 73.44
L31.8313 76.896
L31.8358 73.44
L31.8358 73.44
L31.9504 56.16
L32.1753 80.352
L32.1771 76.896
L32.1907 73.44
L32.2113 76.896
L32.2113 76.896
L32.279 108
L32.3746 101.088
L32.3858 94.176
L32.4245 101.088
L32.4245 101.088
L32.4722 108
L32.4821 101.088
L32.4821 101.088
L32.4868 97.632
L32.4926 101.088
L32.4926 101.088
L32.518 111.456
L32.5306 101.088
L32.5306 101.088
L32.6039 83.808
L32.6264 101.088
L32.6264 101.088
L32.6317 104.544
L32.6568 101.088
L32.6568 101.088
L32.761 83.808
L32.7848 94.176
L32.7865 97.632
L32.7881 94.176
L32.7881 94.176
L32.9582 73.44
L32.9639 76.896
L33.001 87.264
L33.0408 76.896
L33.0408 76.896
L33.0464 73.44
L33.0565 76.896
L33.0565 76.896
L33.1606 90.72
L33.1731 80.352
L33.1745 76.896
L33.1747 80.352
L33.1747 80.352
L33.2964 94.176
L33.454 69.984
L33.4712 73.44
L33.6702 97.632
L33.7078 94.176
L33.712 97.632
L33.712 97.632
L33.7162 101.088
L33.7193 97.632
L33.7193 97.632
L33.8498 90.72
L33.9801 114.912
L33.9927 118.368
L34.0032 114.912
L34.0032 114.912
L34.0821 101.088
L34.1521 94.176
L34.1781 101.088
L34.2102 104.544
L34.2217 101.088
L34.2217 101.088
L34.4174 76.896
L34.6881 97.632
L34.7823 83.808
L34.8056 90.72
L34.8881 97.632
L34.9039 94.176
L34.9177 90.72
L34.9325 94.176
L34.9325 94.176
L34.9373 101.088
L34.9887 94.176
L34.9887 94.176
L35.1243 76.896
L35.2798 101.088
L35.4793 76.896
L35.4879 83.808
L35.4924 87.264
L35.4975 83.808
L35.4975 83.808
L35.5638 73.44
L35.6031 80.352
L35.6616 90.72
L35.7005 80.352
L35.768 69.984
L35.8079 76.896
L35.9185 97.632
L35.9546 87.264
L36.0579 66.528
L36.0861 69.984
L36.1608 59.616
L36.1826 56.16
L36.1847 59.616
L36.1847 59.616
L36.2339 69.984
L36.3035 63.072
L36.3789 45.792
L36.4251 49.248
L36.5201 66.528
L36.5441 59.616
L36.5912 66.528
L36.6019 59.616
L36.6019 59.616
L36.6068 56.16
L36.6205 59.616
L36.6205 59.616
L36.7698 80.352
L37.2372 132.192
L37.305 128.736
L37.3454 125.28
L37.3469 128.736
L37.3469 128.736
L37.4496 135.648
L37.4574 132.192
L37.7285 97.632
L37.7312 90.72
L37.7441 97.632
L37.7441 97.632
L37.7982 111.456
L37.8536 101.088
L37.992 76.896
L38.0064 80.352
L38.0302 90.72
L38.0677 80.352
L38.1166 69.984
L38.1422 66.528
L38.1549 69.984
L38.1549 69.984
L38.2128 83.808
L38.2609 76.896
L38.2803 73.44
L38.2832 76.896
L38.2832 76.896
L38.3036 80.352
L38.304 76.896
L38.304 76.896
L38.3798 52.704
L38.4003 59.616
L38.4594 69.984
L38.4787 76.896
L38.5304 69.984
L38.5304 69.984
L38.6031 63.072
L38.6043 69.984
L38.6043 69.984
L38.7033 83.808
L38.7159 73.44
L38.7929 63.072
L38.8302 66.528
L38.8341 69.984
L38.8373 66.528
L38.8373 66.528
L38.8378 63.072
L38.8568 66.528
L38.8568 66.528
L38.9255 87.264
L38.9804 73.44
L39.1376 56.16
L39.1477 63.072
L39.1836 73.44
L39.2476 66.528
L39.2773 56.16
L39.294 66.528
L39.294 66.528
L39.3231 73.44
L39.349 66.528
L39.349 66.528
L39.3576 63.072
L39.359 66.528
L39.359 66.528
L39.4329 76.896
L39.4576 73.44
L39.5371 63.072
L39.5795 69.984
L39.5798 73.44
L39.5916 69.984
L39.5916 69.984
L39.5929 66.528
L39.6344 69.984
L39.6344 69.984
L39.7122 83.808
L39.7492 76.896
L39.7743 73.44
L39.7925 76.896
L39.7925 76.896
L39.7955 80.352
L39.7962 76.896
L39.7962 76.896
L39.9282 63.072
L39.9387 66.528
L39.9523 63.072
L39.9523 63.072
L40.1002 31.968
L40.1063 38.88
L40.1412 31.968
L40.1412 31.968
L40.1421 28.512
L40.1423 31.968
L40.1423 31.968
L40.1545 38.88
L40.1698 31.968
L40.1698 31.968
L40.2169 25.056
L40.2314 31.968
L40.2314 31.968
L40.3932 63.072
L40.4082 66.528
L40.4144 63.072
L40.4144 63.072
L40.5284 52.704
L40.5325 56.16
L40.7036 87.264
L40.8043 73.44
L40.8291 83.808
L40.8883 94.176
L40.9421 87.264
L40.9869 76.896
L41.0042 87.264
L41.0042 87.264
L41.0916 101.088
L41.1084 97.632
L41.1643 87.264
L41.2839 80.352
L41.2952 83.808
L41.3122 80.352
L41.3122 80.352
L41.3289 69.984
L41.3462 80.352
L41.3462 80.352
L41.3489 83.808
L41.3522 80.352
L41.3522 80.352
L41.3605 73.44
L41.3672 80.352
L41.3672 80.352
L41.369 83.808
L41.3739 80.352
L41.3739 80.352
L41.3746 76.896
L41.3778 80.352
L41.3778 80.352
L41.4141 87.264
L41.4311 80.352
L41.4311 80.352
L41.4857 69.984
L41.4971 80.352
L41.4971 80.352
L41.4979 83.808
L41.5049 80.352
L41.5049 80.352
L41.5339 73.44
L41.5423 80.352
L41.5423 80.352
L41.5542 87.264
L41.5677 80.352
L41.5677 80.352
L41.6137 69.984
L41.6735 80.352
L41.7083 83.808
L41.7325 80.352
L41.7325 80.352
L41.7698 73.44
L41.7831 80.352
L41.7831 80.352
L41.8206 94.176
L41.8939 90.72
L41.9106 83.808
L41.9296 90.72
L41.9296 90.72
L41.9597 94.176
L41.9657 90.72
L41.9657 90.72
L42.0753 80.352
L42.0863 83.808
L42.1104 87.264
L42.1134 83.808
L42.1134 83.808
L42.1558 69.984
L42.1798 83.808
L42.1798 83.808
L42.3122 97.632
L42.3212 94.176
L42.3295 97.632
L42.3295 97.632
L42.36 108
L42.3897 97.632
L42.3897 97.632
L42.4725 83.808
L42.5263 87.264
L42.6067 94.176
L42.6151 90.72
L42.7666 111.456
L42.8299 121.824
L42.8491 111.456
L42.8491 111.456
L42.886 108
L42.9107 111.456
L43.0019 121.824
L43.0127 111.456
L43.039 97.632
L43.117 101.088
L43.181 108
L43.2181 101.088
L43.2786 83.808
L43.3111 94.176
L43.3658 104.544
L43.375 108
L43.399 104.544
L43.399 104.544
L43.4151 94.176
L43.4951 104.544
L43.7051 90.72
L43.7124 94.176
L43.7163 97.632
L43.7178 94.176
L43.7178 94.176
L43.822 76.896
L43.8413 87.264
L43.8564 83.808
L43.8611 87.264
L43.8611 87.264
L43.9171 97.632
L43.9721 94.176
L44.017 108
L44.0721 94.176
L44.2064 66.528
L44.2541 73.44
L44.2876 66.528
L44.4059 42.336
L44.4523 59.616
L44.4951 66.528
L44.5057 59.616
L44.5057 59.616
L44.5587 52.704
L44.5812 59.616
L44.5812 59.616
L44.7974 94.176
L44.8089 90.72
L44.8122 94.176
L44.8122 94.176
L44.902 101.088
L44.9084 97.632
L45.041 83.808
L45.0544 90.72
L45.1507 104.544
L45.1545 94.176
L45.1668 90.72
L45.172 94.176
L45.172 94.176
L45.421 132.192
L45.4488 125.28
L45.5811 97.632
L45.631 94.176
L45.6338 97.632
L45.6445 101.088
L45.6611 97.632
L45.6611 97.632
L45.6797 83.808
L45.7432 97.632
L45.7432 97.632
L45.8135 108
L45.8339 101.088
L45.889 97.632
L45.8925 101.088
L45.8925 101.088
L45.9042 104.544
L45.9325 101.088
L45.9325 101.088
L45.9553 97.632
L45.9584 101.088
L45.9584 101.088
L46.0282 111.456
L46.0568 101.088
L46.1158 94.176
L46.1288 101.088
L46.1288 101.088
L46.2198 111.456
L46.2327 108
L46.2607 104.544
L46.2618 108
L46.2618 108
L46.2738 111.456
L46.2796 108
L46.2796 108
L46.3922 94.176
L46.408 101.088
L46.444 111.456
L46.5269 104.544
L46.6387 97.632
L46.6721 94.176
L46.6928 97.632
L46.6928 97.632
L46.7106 101.088
L46.7337 97.632
L46.7337 97.632
L46.8883 76.896
L46.898 80.352
L46.9052 76.896
L46.9052 76.896
L46.9195 73.44
L46.9336 76.896
L46.9336 76.896
L47.2682 104.544
L47.2836 101.088
L47.369 90.72
L47.4538 87.264
L47.4623 90.72
L47.4623 90.72
L47.4872 97.632
L47.5574 90.72
L47.5574 90.72
L47.5738 87.264
L47.574 90.72
L47.574 90.72
L47.5749 94.176
L47.5902 90.72
L47.5902 90.72
L47.7795 69.984
L47.921 94.176
L47.9607 83.808
L47.9706 73.44
L47.979 83.808
L47.979 83.808
L47.9942 87.264
L48.0098 83.808
L48.0098 83.808
L48.0517 76.896
L48.1036 83.808
L48.2185 90.72
L48.2606 87.264
L48.2689 90.72
L48.2689 90.72
L48.2708 94.176
L48.2741 90.72
L48.2741 90.72
L48.3798 63.072
L48.3821 66.528
L48.3929 69.984
L48.3958 66.528
L48.3958 66.528
L48.4393 63.072
L48.4399 66.528
L48.4399 66.528
L48.4614 73.44
L48.4972 66.528
L48.4972 66.528
L48.603 59.616
L48.6155 63.072
L48.6693 49.248
L48.7383 59.616
L48.9003 76.896
L48.9303 83.808
L48.9995 80.352
L49.0403 73.44
L49.0749 80.352
L49.1258 90.72
L49.1573 80.352
L49.186 76.896
L49.2049 80.352
L49.2049 80.352
L49.3242 101.088
L49.3528 97.632
L49.3573 101.088
L49.3573 101.088
L49.42 114.912
L49.4508 108
L49.8568 56.16
L49.9456 59.616
L49.9589 69.984
L49.9846 59.616
L49.9846 59.616
L50.0688 42.336
L50.0969 49.248
L50.1259 42.336
L50.1475 49.248
L50.1475 49.248
L50.1748 56.16
L50.214 49.248
L50.214 49.248
L50.2648 45.792
L50.2678 49.248
L50.2678 49.248
L50.3841 69.984
L50.3945 66.528
L50.4674 59.616
L50.4926 66.528
L50.4926 66.528
L50.5485 90.72
L50.6293 76.896
L50.6602 80.352
L50.665 76.896
L50.665 76.896
L50.6954 73.44
L50.7125 76.896
L50.7125 76.896
L50.7307 80.352
L50.7459 76.896
L50.7459 76.896
L50.8664 56.16
L50.8756 63.072
L50.9038 59.616
L50.9152 63.072
L50.9152 63.072
L50.9243 66.528
L50.9346 63.072
L50.9346 63.072
L50.9628 59.616
L50.9697 63.072
L50.9697 63.072
L51.0039 69.984
L51.0175 63.072
L51.0175 63.072
L51.1578 35.424
L51.1719 42.336
L51.2641 59.616
L51.2718 56.16
L51.3324 66.528
L51.3996 63.072
L51.417 56.16
L51.4198 63.072
L51.4198 63.072
L51.4955 69.984
L51.5204 63.072
L51.5818 52.704
L51.6365 59.616
L51.7689 87.264
L51.8826 80.352
L51.8849 83.808
L51.8971 90.72
L51.9095 83.808
L51.9095 83.808
L51.9128 80.352
L51.9283 83.808
L51.9283 83.808
L51.9416 87.264
L51.9503 83.808
L51.9503 83.808
L52.0236 66.528
L52.0753 73.44
L52.1696 90.72
L52.261 80.352
L52.3053 76.896
L52.3169 80.352
L52.3169 80.352
L52.364 87.264
L52.3794 80.352
L52.3794 80.352
L52.4871 63.072
L52.4919 66.528
L52.5853 87.264
L52.6191 76.896
L52.6452 73.44
L52.6462 76.896
L52.6462 76.896
L52.7691 90.72
L52.779 83.808
L52.7971 80.352
L52.8346 83.808
L52.8346 83.808
L52.8462 87.264
L52.858 83.808
L52.858 83.808
L52.9059 69.984
L52.9823 80.352
L53.011 83.808
L53.0394 80.352
L53.0394 80.352
L53.1261 66.528
L53.1378 73.44
L53.2734 63.072
L53.2938 66.528
L53.4183 94.176
L53.4254 90.72
L53.4321 94.176
L53.4321 94.176
L53.4329 97.632
L53.4571 94.176
L53.4571 94.176
L53.4925 90.72
L53.5151 94.176
L53.5151 94.176
L53.5269 97.632
L53.5306 94.176
L53.5306 94.176
L53.6669 73.44
L53.7173 76.896
L53.803 94.176
L53.8384 83.808
L53.8682 80.352
L53.8731 83.808
L53.8731 83.808
L53.8955 87.264
L53.8973 83.808
L53.8973 83.808
L53.9101 80.352
L53.9155 83.808
L53.9155 83.808
L53.9268 90.72
L53.9453 83.808
L53.9453 83.808
L54.0303 66.528
L54.0543 76.896
L54.1737 66.528
L54.1924 69.984
L54.1988 66.528
L54.1988 66.528
L54.2096 63.072
L54.2116 66.528
L54.2116 66.528
L54.2215 69.984
L54.2221 66.528
L54.2221 66.528
L54.2254 63.072
L54.2294 66.528
L54.2294 66.528
L54.3515 76.896
L54.3717 73.44
L54.393 76.896
L54.393 76.896
L54.4167 80.352
L54.4172 76.896
L54.4172 76.896
L54.4322 73.44
L54.439 76.896
L54.439 76.896
L54.5028 94.176
L54.5503 90.72
L54.6179 80.352
L54.6497 87.264
L54.6772 83.808
L54.6894 87.264
L54.6894 87.264
L54.7949 104.544
L54.8058 101.088
L54.866 111.456
L54.9043 104.544
L55.0386 90.72
L55.0449 94.176
L55.0722 101.088
L55.1339 94.176
L55.1339 94.176
L55.1884 83.808
L55.2425 90.72
L55.6289 135.648
L55.6326 132.192
L55.7973 114.912
L55.8267 121.824
L55.8442 114.912
L55.8442 114.912
L55.8698 111.456
L55.89 114.912
L55.89 114.912
L55.9981 128.736
L56.0008 125.28
L56.0976 114.912
L56.1479 111.456
L56.152 114.912
L56.277 125.28
L56.3011 121.824
L56.4139 87.264
L56.4171 90.72
L56.4564 97.632
L56.4913 90.72
L56.6142 83.808
L56.632 90.72
L56.6425 83.808
L56.6425 83.808
L56.7208 76.896
L56.7373 83.808
L56.7373 83.808
L56.8007 104.544
L56.8457 97.632
L56.9431 108
L56.9563 101.088
L56.9578 97.632
L56.9683 101.088
L56.9683 101.088
L57.0799 118.368
L57.1319 114.912
L57.1882 104.544
L57.2228 114.912
L57.2496 118.368
L57.2725 114.912
L57.2725 114.912
L57.3904 108
L57.5507 121.824
L57.5862 111.456
L57.6405 121.824
L57.6405 121.824
L57.6561 125.28
L57.6663 121.824
L57.6663 121.824
L57.8767 90.72
L58.0502 108
L58.0503 104.544
L58.1599 76.896
L58.2088 80.352
L58.2177 87.264
L58.2355 80.352
L58.2355 80.352
L58.2359 76.896
L58.2443 80.352
L58.2443 80.352
L58.2657 83.808
L58.2676 80.352
L58.2676 80.352
L58.2839 76.896
L58.2867 80.352
L58.2867 80.352
L58.339 83.808
L58.3413 80.352
L58.3413 80.352
L58.3498 73.44
L58.3729 80.352
L58.3729 80.352
L58.3912 83.808
L58.3929 80.352
L58.3929 80.352
L58.41 73.44
L58.4684 80.352
L58.4684 80.352
L58.4889 90.72
L58.5591 83.808
L58.768 69.984
L58.7956 76.896
L58.8054 69.984
L58.8054 69.984
L58.8486 63.072
L58.8674 69.984
L58.8674 69.984
L58.8783 73.44
L58.8855 69.984
L58.8855 69.984
L58.9482 59.616
L58.9551 69.984
L58.9989 80.352
L59.0745 76.896
L59.0922 73.44
L59.0978 76.896
L59.0978 76.896
L59.1476 87.264
L59.194 76.896
L59.194 76.896
L59.2296 66.528
L59.3011 73.44
L59.5197 97.632
L59.5232 94.176
L59.6424 76.896
L59.6868 80.352
L59.7156 76.896
L59.7706 69.984
L59.7855 76.896
L59.7855 76.896
L59.8607 90.72
L59.9147 87.264
L60.1264 111.456
L60.2654 76.896
L60.303 80.352
L60.3468 73.44
L60.3957 80.352
L60.3972 83.808
L60.398 80.352
L60.398 80.352
L60.6871 35.424
L60.6883 42.336
L60.7325 45.792
L60.7435 42.336
L60.7435 42.336
L60.8148 35.424
L60.8466 42.336
L60.925 56.16
L60.9452 49.248
L60.9672 45.792
L60.968 49.248
L60.968 49.248
L61.0433 56.16
L61.0549 49.248
L61.0549 49.248
L61.0645 42.336
L61.0996 49.248
L61.0996 49.248
L61.2293 69.984
L61.3805 52.704
L61.3826 56.16
L61.4483 63.072
L61.4894 59.616
L61.5502 56.16
L61.5508 59.616
L61.5508 59.616
L61.582 69.984
L61.5936 59.616
L61.5936 59.616
L61.6856 49.248
L61.7078 52.704
L61.8515 80.352
L61.9176 69.984
L61.9754 59.616
L62.0129 66.528
L62.1118 69.984
L62.1213 66.528
L62.2384 52.704
L62.2787 59.616
L62.3115 66.528
L62.318 59.616
L62.318 59.616
L62.3723 49.248
L62.3893 59.616
L62.3893 59.616
L62.3999 63.072
L62.4173 59.616
L62.4173 59.616
L62.4857 52.704
L62.5056 59.616
L62.5056 59.616
L62.5981 80.352
L62.638 76.896
L62.8739 31.968
L62.9591 49.248
L63.0093 38.88
L63.0225 31.968
L63.0263 38.88
L63.0263 38.88
L63.1114 59.616
L63.1728 52.704
L63.1791 49.248
L63.1864 52.704
L63.1864 52.704
L63.1865 56.16
L63.2025 52.704
L63.2025 52.704
L63.2055 49.248
L63.2111 52.704
L63.2111 52.704
L63.2373 56.16
L63.2393 52.704
L63.2393 52.704
L63.3018 42.336
L63.362 45.792
L63.3675 49.248
L63.3839 45.792
L63.3839 45.792
L63.3985 38.88
L63.4177 45.792
L63.4177 45.792
L63.5268 56.16
L63.5622 52.704
L63.568 56.16
L63.568 56.16
L63.5751 59.616
L63.5907 56.16
L63.5907 56.16
L63.685 42.336
L63.7113 45.792
L63.9138 73.44
L63.9417 83.808
L63.9911 73.44
L63.9911 73.44
L63.9931 69.984
L64.0018 73.44
L64.0018 73.44
L64.113 76.896
L64.2169 52.704
L64.2543 56.16
L64.2937 69.984
L64.3128 56.16
L64.3128 56.16
L64.3424 49.248
L64.4122 52.704
L64.4318 56.16
L64.4461 52.704
L64.4461 52.704
L64.4529 49.248
L64.4614 52.704
L64.4614 52.704
L64.5087 66.528
L64.5498 52.704
L64.581 49.248
L64.5912 52.704
L64.5912 52.704
L64.598 59.616
L64.61 52.704
L64.61 52.704
L64.6562 49.248
L64.6689 52.704
L64.6689 52.704
L64.7752 69.984
L64.8117 76.896
L64.8426 69.984
L64.8426 69.984
L64.8557 66.528
L64.8793 69.984
L64.8793 69.984
L64.9434 83.808
L64.9857 76.896
L65.0146 69.984
L65.0415 76.896
L65.0415 76.896
L65.2563 104.544
L65.2566 101.088
L65.2825 94.176
L65.2945 101.088
L65.2945 101.088
L65.3271 111.456
L65.3641 108
L65.421 97.632
L65.4285 94.176
L65.4414 97.632
L65.4414 97.632
L65.4458 101.088
L65.4524 97.632
L65.4524 97.632
L65.5 80.352
L65.5524 94.176
L65.5718 97.632
L65.5969 94.176
L65.5969 94.176
L65.7637 83.808
L65.765 87.264
L65.7725 83.808
L65.7725 83.808
L65.7827 80.352
L65.789 83.808
L65.789 83.808
L65.878 97.632
L65.9028 87.264
L66.0358 63.072
L66.0831 69.984
L66.229 94.176
L66.2363 101.088
L66.2687 94.176
L66.2687 94.176
L66.2993 90.72
L66.3058 94.176
L66.3058 94.176
L66.3716 108
L66.4243 101.088
L66.4381 97.632
L66.439 101.088
L66.439 101.088
L66.476 108
L66.5312 104.544
L66.5788 101.088
L66.6111 104.544
L66.6306 111.456
L66.642 104.544
L66.642 104.544
L66.7015 94.176
L66.7427 101.088
L66.7947 97.632
L66.7957 101.088
L66.8154 104.544
L66.8267 101.088
L66.8267 101.088
L66.9082 87.264
L66.9373 97.632
L66.9778 104.544
L67.0127 97.632
L67.0127 97.632
L67.0175 94.176
L67.0256 97.632
L67.0256 97.632
L67.1763 114.912
L67.1996 111.456
L67.2261 114.912
L67.2261 114.912
L67.3368 132.192
L67.3748 121.824
L67.3941 114.912
L67.4347 121.824
L67.4347 121.824
L67.4757 125.28
L67.502 121.824
L67.595 108
L67.6652 114.912
L67.6675 108
L67.8696 83.808
L67.8964 90.72
L67.9176 104.544
L67.9628 90.72
L67.9628 90.72
L67.966 87.264
L67.9931 90.72
L67.9931 90.72
L67.9944 94.176
L67.9948 90.72
L67.9948 90.72
L68.0335 80.352
L68.0667 87.264
L68.1264 90.72
L68.1483 87.264
L68.1565 83.808
L68.1753 87.264
L68.1753 87.264
L68.1779 90.72
L68.2027 87.264
L68.2027 87.264
L68.2992 76.896
L68.3021 80.352
L68.3532 83.808
L68.3606 80.352
L68.3941 66.528
L68.4809 76.896
L68.7317 97.632
L68.7512 90.72
L68.7877 97.632
L68.7877 97.632
L68.8447 111.456
L68.8744 97.632
L68.8744 97.632
L68.96 83.808
L68.9892 90.72
L69.293 125.28
L69.385 118.368
L69.6205 152.928
L69.6691 142.56
L69.793 121.824
L69.7987 128.736
L69.9183 149.472
L69.9265 142.56
L69.9484 149.472
L69.9484 149.472
L70.0353 156.384
L70.0584 149.472
L70.1504 152.928
L70.1556 149.472
L70.164 142.56
L70.1966 149.472
L70.1966 149.472
L70.2066 152.928
L70.209 149.472
L70.209 149.472
L70.2191 146.016
L70.2325 149.472
L70.2325 149.472
L70.2594 156.384
L70.2898 149.472
L70.2898 149.472
L70.3016 146.016
L70.315 149.472
L70.315 149.472
L70.3902 163.296
L70.4317 156.384
L70.4509 152.928
L70.4598 156.384
L70.4598 156.384
L70.5755 184.032
L70.6043 177.12
L70.6152 173.664
L70.6198 177.12
L70.6198 177.12
L70.7117 187.488
L70.7215 177.12
L70.76 170.208
L70.7793 177.12
L70.7793 177.12
L70.9047 190.944
L70.9447 173.664
L70.9648 166.752
L70.9887 173.664
L70.9887 173.664
L71.0094 177.12
L71.0225 173.664
L71.0225 173.664
L71.0891 163.296
L71.1144 170.208
L71.1342 173.664
L71.1436 170.208
L71.1436 170.208
L71.1577 166.752
L71.1987 170.208
L71.1987 170.208
L71.2061 173.664
L71.2093 170.208
L71.2093 170.208
L71.2223 163.296
L71.3063 166.752
L71.5011 180.576
L71.6107 170.208
L71.6524 166.752
L71.6542 170.208
L71.6542 170.208
L71.6909 177.12
L71.7098 170.208
L71.7098 170.208
L71.7871 163.296
L71.8096 170.208
L71.8629 187.488
L71.9613 184.032
L72.06 170.208
L72.2277 187.488
L72.2339 180.576
L72.2705 163.296
L72.3265 180.576
L72.3265 180.576
L72.348 187.488
L72.3714 180.576
L72.3714 180.576
L72.4997 156.384
L72.5137 159.84
L72.5393 163.296
L72.5602 159.84
L72.5602 159.84
L72.564 152.928
L72.5823 159.84
L72.5823 159.84
L72.6572 177.12
L72.6976 173.664
L72.7144 177.12
L72.745 173.664
L72.745 173.664
L72.7482 166.752
L72.7517 173.664
L72.7517 173.664
L72.8591 194.4
L72.8596 190.944
L72.879 187.488
L72.8806 190.944
L72.8806 190.944
L72.8905 194.4
L72.9055 190.944
L72.9055 190.944
L72.9082 187.488
L72.9108 190.944
L72.9108 190.944
L72.9211 194.4
L72.923 190.944
L72.923 190.944
L72.9236 187.488
L72.9237 190.944
L72.9237 190.944
L72.9375 194.4
L72.949 190.944
L72.949 190.944
L73.0172 180.576
L73.0462 187.488
L73.1606 190.944
L73.2005 184.032
L73.2052 190.944
L73.2052 190.944
L73.2061 194.4
L73.2126 190.944
L73.2126 190.944
L73.2459 184.032
L73.2877 190.944
L73.2877 190.944
L73.326 194.4
L73.3479 190.944
L73.3479 190.944
L73.4141 177.12
L73.4571 184.032
L73.5188 173.664
L73.5778 177.12
L73.7356 190.944
L73.7468 187.488
L73.7473 190.944
L73.7473 190.944
L73.749 194.4
L73.7516 190.944
L73.7516 190.944
L73.7721 187.488
L73.7728 190.944
L73.7728 190.944
L73.8301 194.4
L73.8555 190.944
L73.8555 190.944
L73.8697 184.032
L73.8734 190.944
L73.8734 190.944
L73.8908 194.4
L73.9451 190.944
L73.9451 190.944
L73.9584 180.576
L73.9806 190.944
L73.9806 190.944
L74.0128 194.4
L74.0149 190.944
L74.0149 190.944
L74.1766 163.296
L74.1853 173.664
L74.2484 184.032
L74.2904 173.664
L74.2985 166.752
L74.3233 173.664
L74.3233 173.664
L74.3644 187.488
L74.4241 173.664
L74.4784 163.296
L74.5015 166.752
L74.6215 180.576
L74.6383 170.208
L74.7236 142.56
L74.7581 152.928
L74.9494 177.12
L74.9616 173.664
L75.0063 170.208
L75.0132 173.664
L75.0132 173.664
L75.1248 184.032
L75.14 180.576
L75.1757 194.4
L75.26 187.488
L75.2858 173.664
L75.3802 180.576
L75.4275 194.4
L75.4958 184.032
L75.6551 194.4
L75.6573 190.944
L75.6764 187.488
L75.6826 190.944
L75.6826 190.944
L75.699 194.4
L75.7131 190.944
L75.7131 190.944
L75.8534 177.12
L76.0172 194.4
L76.0296 190.944
L76.0447 187.488
L76.0482 190.944
L76.0482 190.944
L76.136 194.4
L76.191 180.576
L76.227 190.944
L76.2606 194.4
L76.2651 190.944
L76.2651 190.944
L76.3077 184.032
L76.3446 190.944
L76.3446 190.944
L76.363 194.4
L76.3772 190.944
L76.3772 190.944
L76.4185 187.488
L76.4186 190.944
L76.4186 190.944
L76.4737 194.4
L76.4833 190.944
L76.4833 190.944
L76.5092 177.12
L76.5999 184.032
L76.8011 166.752
L76.9899 187.488
L76.9951 184.032
L76.9972 187.488
L76.9972 187.488
L77.0105 190.944
L77.0586 187.488
L77.0586 187.488
L77.1127 177.12
L77.1869 180.576
L77.2154 187.488
L77.2432 180.576
L77.2432 180.576
L77.2919 170.208
L77.3126 180.576
L77.3126 180.576
L77.3289 190.944
L77.3395 180.576
L77.3395 180.576
L77.4282 170.208
L77.4441 173.664
L77.4647 177.12
L77.4867 173.664
L77.4867 173.664
L77.4888 170.208
L77.4954 173.664
L77.4954 173.664
L77.5727 184.032
L77.6005 180.576
L77.6186 190.944
L77.6348 180.576
L77.6348 180.576
L77.754 173.664
L77.7581 177.12
L77.8436 194.4
L77.9124 187.488
L77.9141 184.032
L77.9188 187.488
L77.9188 187.488
L77.9503 194.4
L77.9683 187.488
L77.9683 187.488
L78.0772 170.208
L78.1012 173.664
L78.1032 170.208
L78.1032 170.208
L78.1165 159.84
L78.1289 170.208
L78.1289 170.208
L78.2185 187.488
L78.2286 184.032
L78.4363 194.4
L78.5943 187.488
L78.6025 190.944
L78.6191 187.488
L78.6191 187.488
L78.7655 170.208
L78.7849 177.12
L78.7909 170.208
L78.7909 170.208
L78.8016 166.752
L78.824 170.208
L78.824 170.208
L78.8453 184.032
L78.8531 170.208
L78.8531 170.208
L78.9157 156.384
L78.9632 170.208
L79.0277 166.752
L79.0432 170.208
L79.0432 170.208
L79.0552 177.12
L79.0785 170.208
L79.0785 170.208
L79.2008 152.928
L79.2226 156.384
L79.3018 173.664
L79.354 170.208
L79.3925 177.12
L79.4499 170.208
L79.511 173.664
L79.5198 170.208
L79.6074 149.472
L79.644 156.384
L79.7616 173.664
L79.7691 170.208
L79.8438 173.664
L79.8493 170.208
L79.8639 166.752
L79.8664 170.208
L79.8664 170.208
L79.9149 180.576
L79.9331 170.208
L79.9331 170.208
L79.9335 166.752
L79.9568 170.208
L79.9568 170.208
L80.145 187.488
L80.2205 184.032
L80.2228 187.488
L80.3348 194.4
L80.3412 190.944
L80.3627 187.488
L80.3632 190.944
L80.3632 190.944
L80.4056 194.4
L80.4063 190.944
L80.4063 190.944
L80.6198 170.208
L80.6974 184.032
L80.7289 177.12
L80.7332 170.208
L80.7395 177.12
L80.7395 177.12
L80.8531 194.4
L80.8558 190.944
L81.005 180.576
L81.0183 184.032
L81.0346 187.488
L81.0408 184.032
L81.0408 184.032
L81.0765 180.576
L81.0857 184.032
L81.0857 184.032
L81.2313 194.4
L81.3559 166.752
L81.3612 170.208
L81.3712 173.664
L81.3748 170.208
L81.3748 170.208
L81.3841 166.752
L81.4141 170.208
L81.4141 170.208
L81.5287 184.032
L81.6255 166.752
L81.6888 173.664
L81.7114 177.12
L81.727 173.664
L81.727 173.664
L81.7505 170.208
L81.7551 173.664
L81.7551 173.664
L81.8523 194.4
L81.8679 184.032
L81.9308 177.12
L81.9605 184.032
L81.9605 184.032
L82.0867 194.4
L82.1561 184.032
L82.1939 190.944
L82.226 194.4
L82.2399 190.944
L82.2399 190.944
L82.2601 184.032
L82.2731 190.944
L82.2731 190.944
L82.2825 194.4
L82.2891 190.944
L82.2891 190.944
L82.3116 184.032
L82.3176 190.944
L82.3176 190.944
L82.3218 194.4
L82.325 190.944
L82.325 190.944
L82.3456 187.488
L82.3563 190.944
L82.3563 190.944
L82.3867 194.4
L82.4112 190.944
L82.4112 190.944
L82.4632 184.032
L82.4732 190.944
L82.4732 190.944
L82.4938 194.4
L82.508 190.944
L82.508 190.944
L82.5469 187.488
L82.5487 190.944
L82.5487 190.944
L82.5892 194.4
L82.6138 190.944
L82.6138 190.944
L82.6299 187.488
L82.649 190.944
L82.649 190.944
L82.7152 194.4
L82.7156 190.944
L82.7156 190.944
L82.7295 187.488
L82.7297 190.944
L82.7297 190.944
L82.7329 194.4
L82.7399 190.944
L82.7399 190.944
L82.9695 149.472
L82.9921 156.384
L83.1562 194.4
L83.1774 184.032
L83.198 187.488
L83.2031 184.032
L83.2031 184.032
L83.2036 180.576
L83.2098 184.032
L83.2098 184.032
L83.2105 187.488
L83.2183 184.032
L83.2183 184.032
L83.2194 180.576
L83.224 184.032
L83.224 184.032
L83.2319 187.488
L83.2329 184.032
L83.2329 184.032
L83.2821 180.576
L83.2958 184.032
L83.3836 194.4
L83.4812 184.032
L83.4959 190.944
L83.5051 194.4
L83.5247 190.944
L83.5247 190.944
L83.5931 184.032
L83.6163 190.944
L83.6503 194.4
L83.6571 190.944
L83.6571 190.944
L83.7033 177.12
L83.777 180.576
L83.8955 194.4
L83.9094 190.944
L83.9684 194.4
L83.9741 190.944
L84.1032 173.664
L84.129 184.032
L84.1392 187.488
L84.1501 184.032
L84.1501 184.032
L84.198 180.576
L84.2013 184.032
L84.2013 184.032
L84.3062 194.4
L84.3063 190.944
L84.3364 187.488
L84.3366 190.944
L84.3366 190.944
L84.3466 194.4
L84.3485 190.944
L84.3485 190.944
L84.3678 184.032
L84.387 190.944
L84.387 190.944
L84.3973 194.4
L84.3983 190.944
L84.3983 190.944
L84.5348 163.296
L84.5515 170.208
L84.5771 173.664
L84.5815 170.208
L84.5815 170.208
L84.6472 166.752
L84.6567 170.208
L84.7959 184.032
L84.8356 194.4
L84.8776 190.944
L84.9844 187.488
L84.9855 190.944
L84.9857 194.4
L84.9952 190.944
L84.9952 190.944
L85.0815 187.488
L85.085 190.944
L85.1387 194.4
L85.1482 190.944
L85.1482 190.944
L85.2345 180.576
L85.2623 184.032
L85.2632 180.576
L85.2632 180.576
L85.2889 177.12
L85.2913 180.576
L85.2913 180.576
L85.3243 190.944
L85.3982 184.032
L85.531 194.4
L85.553 190.944
L85.5672 187.488
L85.5892 190.944
L85.5892 190.944
L85.5981 194.4
L85.6038 190.944
L85.6038 190.944
L85.638 180.576
L85.6889 190.944
L85.6889 190.944
L85.8014 194.4
L85.8471 177.12
L85.9143 187.488
L86.0624 166.752
L86.0967 177.12
L86.1014 180.576
L86.1036 177.12
L86.1036 177.12
L86.16 166.752
L86.1833 177.12
L86.1934 180.576
L86.1945 177.12
L86.1945 177.12
L86.212 170.208
L86.2374 177.12
L86.2374 177.12
L86.3489 194.4
L86.3676 190.944
L86.4327 170.208
L86.4437 166.752
L86.4668 170.208
L86.4668 170.208
L86.5925 194.4
L86.6326 180.576
L86.6381 173.664
L86.6835 180.576
L86.6835 180.576
L86.8272 194.4
L86.8433 190.944
L86.9516 187.488
L87.0175 194.4
L87.0579 187.488
L87.068 184.032
L87.069 187.488
L87.069 187.488
L87.1316 194.4
L87.1513 190.944
L87.2282 194.4
L87.2431 190.944
L87.2829 184.032
L87.3099 190.944
L87.3099 190.944
L87.3449 194.4
L87.3552 190.944
L87.3552 190.944
L87.5311 177.12
L87.5444 180.576
L87.5583 184.032
L87.5839 180.576
L87.5839 180.576
L87.6208 177.12
L87.6243 180.576
L87.6243 180.576
L87.6628 190.944
L87.6767 180.576
L87.6767 180.576
L87.7218 177.12
L87.7361 180.576
L87.7361 180.576
L87.7499 187.488
L87.7603 180.576
L87.7603 180.576
L87.7872 177.12
L87.8055 180.576
L87.8055 180.576
L87.8591 194.4
L87.8925 187.488
L88.0306 180.576
L88.1758 194.4
L88.1812 190.944
L88.2253 184.032
L88.2378 190.944
L88.3033 194.4
L88.3132 190.944
L88.488 170.208
L88.5032 173.664
L88.6232 184.032
L88.7864 194.4
L88.7871 190.944
L88.8032 187.488
L88.8118 190.944
L88.8118 190.944
L88.8647 194.4
L88.8656 190.944
L88.8656 190.944
L88.9297 180.576
L88.9745 190.944
L88.9863 194.4
L88.9991 190.944
L88.9991 190.944
L89.0033 187.488
L89.0183 190.944
L89.0183 190.944
L89.0389 194.4
L89.0416 190.944
L89.0416 190.944
L89.0494 187.488
L89.0514 190.944
L89.0514 190.944
L89.1264 194.4
L89.139 190.944
L89.139 190.944
L89.1598 180.576
L89.1977 190.944
L89.1977 190.944
L89.2082 194.4
L89.2405 190.944
L89.2405 190.944
L89.2727 184.032
L89.2914 190.944
L89.2914 190.944
L89.2986 194.4
L89.2988 190.944
L89.2988 190.944
L89.4008 184.032
L89.402 187.488
L89.4136 190.944
L89.4232 187.488
L89.4232 187.488
L89.4262 184.032
L89.4381 187.488
L89.4381 187.488
L89.4425 190.944
L89.4444 187.488
L89.4444 187.488
L89.5153 184.032
L89.5209 187.488
L89.6346 194.4
L89.7235 184.032
L89.7354 187.488
L89.8108 194.4
L89.8427 190.944
L89.8865 170.208
L89.9199 190.944
L89.9199 190.944
L89.9774 194.4
L89.9776 190.944
L89.9776 190.944
L89.9834 187.488
L89.9861 190.944
L89.9861 190.944
L90.0354 194.4
L90.0364 190.944
L90.0364 190.944
L90.1641 173.664
L90.1885 184.032
L90.247 187.488
L90.2472 184.032
L90.2472 184.032
L90.2736 177.12
L90.2907 184.032
L90.2907 184.032
L90.3919 194.4
L90.3993 190.944
L90.4675 194.4
L90.4699 190.944
L90.4699 190.944
L90.5027 184.032
L90.5584 190.944
L90.5584 190.944
L90.6491 194.4
L90.6517 190.944
L90.6517 190.944
L90.6739 180.576
L90.7618 190.944
L90.7864 194.4
L90.7908 190.944
L90.7908 190.944
L90.9013 170.208
L90.907 173.664
L90.9822 194.4
L90.9996 184.032
L91.0457 180.576
L91.0525 184.032
L91.0525 184.032
L91.0783 187.488
L91.124 184.032
L91.124 184.032
L91.1683 173.664
L91.1872 184.032
L91.1872 184.032
L91.302 194.4
L91.3044 190.944
L91.3672 184.032
L91.4005 190.944
L91.4693 194.4
L91.471 190.944
L91.471 190.944
L91.5555 184.032
L91.5796 190.944
L91.5986 194.4
L91.6103 190.944
L91.6103 190.944
L91.6609 177.12
L91.6991 190.944
L91.6991 190.944
L91.7115 194.4
L91.7235 190.944
L91.7235 190.944
L91.726 187.488
L91.7341 190.944
L91.7341 190.944
L91.793 194.4
L91.7932 190.944
L91.7932 190.944
L91.8695 177.12
L91.8958 190.944
L91.9007 194.4
L91.9016 190.944
L91.9016 190.944
L91.9024 187.488
L91.9278 190.944
L91.9278 190.944
L91.975 194.4
L91.992 190.944
L91.992 190.944
L91.9946 187.488
L91.9982 190.944
L91.9982 190.944
L92.0143 194.4
L92.0191 190.944
L92.0191 190.944
L92.0199 187.488
L92.024 190.944
L92.024 190.944
L92.0386 194.4
L92.0407 190.944
L92.0407 190.944
L92.0558 184.032
L92.0895 190.944
L92.0895 190.944
L92.1008 194.4
L92.1013 190.944
L92.1013 190.944
L92.1539 184.032
L92.1712 190.944
L92.1712 190.944
L92.1885 194.4
L92.1962 190.944
L92.1962 190.944
L92.2119 187.488
L92.2182 190.944
L92.2182 190.944
L92.2318 194.4
L92.2331 190.944
L92.2331 190.944
L92.2398 187.488
L92.2493 190.944
L92.2493 190.944
L92.2827 194.4
L92.2836 190.944
L92.2836 190.944
L92.2944 187.488
L92.2962 190.944
L92.2962 190.944
L92.3535 194.4
L92.3759 190.944
L92.3759 190.944
L92.3955 180.576
L92.4074 190.944
L92.4074 190.944
L92.4131 194.4
L92.4222 190.944
L92.4222 190.944
L92.4602 187.488
L92.4689 190.944
L92.4689 190.944
L92.4698 194.4
L92.4864 190.944
L92.4864 190.944
L92.5224 184.032
L92.5894 190.944
L92.5957 194.4
L92.6013 190.944
L92.6013 190.944
L92.7459 166.752
L92.7914 173.664
L92.8406 187.488
L92.9079 180.576
L92.9749 194.4
L93.0273 184.032
L93.0282 180.576
L93.0356 184.032
L93.0356 184.032
L93.1341 194.4
L93.1454 187.488
L93.3164 159.84
L93.3192 166.752
L93.4324 184.032
L93.4372 180.576
L93.4807 177.12
L93.5321 180.576
L93.5676 187.488
L93.5993 180.576
L93.5993 180.576
L93.755 159.84
L93.7564 163.296
L93.9754 184.032
L94.1144 163.296
L94.1172 170.208
L94.1343 180.576
L94.1538 170.208
L94.1538 170.208
L94.1623 166.752
L94.1668 170.208
L94.1668 170.208
L94.2018 173.664
L94.2116 170.208
L94.2116 170.208
L94.2121 166.752
L94.232 170.208
L94.232 170.208
L94.3065 194.4
L94.3515 184.032
L94.4763 166.752
L94.4771 170.208
L94.4827 166.752
L94.4827 166.752
L94.5305 163.296
L94.5371 166.752
L94.5371 166.752
L94.69 184.032
L94.699 180.576
L94.6998 184.032
L94.6998 184.032
L94.7632 190.944
L94.7967 184.032
L94.8647 166.752
L94.901 184.032
L94.9721 194.4
L95.0113 190.944
L95.0243 187.488
L95.0312 190.944
L95.0312 190.944
L95.0709 194.4
L95.0718 190.944
L95.0718 190.944
L95.1327 184.032
L95.1425 190.944
L95.1425 190.944
L95.2356 194.4
L95.4242 166.752
L95.5 170.208
L95.5785 194.4
L95.6139 187.488
L95.6509 173.664
L95.7405 184.032
L95.8201 194.4
L95.8515 187.488
L95.8634 184.032
L95.8653 187.488
L95.8653 187.488
L95.8826 194.4
L95.9007 187.488
L95.9007 187.488
L95.9134 184.032
L95.9143 187.488
L95.9143 187.488
L95.9674 194.4
L96.0207 187.488
L96.0555 184.032
L96.0613 187.488
L96.0613 187.488
L96.1294 194.4
L96.135 187.488
L96.135 187.488
L96.1421 184.032
L96.1565 187.488
L96.1565 187.488
L96.2528 194.4
L96.2568 187.488
L96.2568 187.488
L96.292 173.664
L96.3541 180.576
L96.3929 184.032
L96.3975 180.576
L96.3975 180.576
L96.4379 170.208
L96.5025 173.664
L96.6081 184.032
L96.6286 180.576
L96.634 177.12
L96.6461 180.576
L96.6461 180.576
L96.6886 187.488
L96.7196 180.576
L96.7196 180.576
L96.7234 177.12
L96.724 180.576
L96.724 180.576
L96.7981 187.488
L96.8036 180.576
L96.8036 180.576
L96.8432 173.664
L96.8536 180.576
L96.8536 180.576
L96.9779 194.4
L97.0557 187.488
L97.0752 190.944
L97.0947 194.4
L97.1092 190.944
L97.1092 190.944
L97.1647 180.576
L97.2423 170.208
L97.2772 173.664
L97.3516 187.488
L97.3821 177.12
L97.5615 146.016
L97.5723 149.472
L97.6014 152.928
L97.6094 149.472
L97.6094 149.472
L97.6105 146.016
L97.6171 149.472
L97.6171 149.472
L97.7075 159.84
L97.7334 156.384
L97.7921 152.928
L97.7939 156.384
L97.7939 156.384
L97.9181 173.664
L97.9638 166.752
L98.024 152.928
L98.0811 163.296
L98.1013 173.664
L98.1093 163.296
L98.1093 163.296
L98.1346 156.384
L98.1436 163.296
L98.1436 163.296
L98.2656 173.664
L98.2694 170.208
L98.2709 173.664
L98.2709 173.664
L98.3027 187.488
L98.3693 177.12
L98.3849 180.576
L98.3852 177.12
L98.3852 177.12
L98.4078 173.664
L98.4189 177.12
L98.4189 177.12
L98.4392 180.576
L98.4455 177.12
L98.4455 177.12
L98.5474 166.752
L98.5549 170.208
L98.5644 173.664
L98.5652 170.208
L98.5652 170.208
L98.5992 159.84
L98.6263 170.208
L98.6263 170.208
L98.6421 173.664
L98.6488 170.208
L98.6488 170.208
L98.6997 166.752
L98.7056 170.208
L98.7056 170.208
L98.8919 194.4
L98.9816 173.664
L99.0571 180.576
L99.1818 194.4
L99.2828 184.032
L99.3394 190.944
L99.3841 194.4
L99.4062 190.944
L99.4062 190.944
L99.4468 184.032
L99.4684 190.944
L99.4684 190.944
L99.561 194.4
L99.6817 187.488
L99.6912 190.944
L99.9849 163.296
L100.013 170.208
L100.016 173.664
L100.039 170.208
L100.039 170.208
L100.107 149.472
L100.161 159.84
L100.175 166.752
L100.228 159.84
L100.228 159.84
L100.238 152.928
L100.268 159.84
L100.268 159.84
L100.373 170.208
L100.393 166.752
L100.495 156.384
L100.559 152.928
L100.574 156.384
L100.674 184.032
L100.71 173.664
L100.817 194.4
L100.895 187.488
L100.924 173.664
L101.014 184.032
L101.02 187.488
L101.021 184.032
L101.021 184.032
L101.237 156.384
L101.243 166.752
L101.243 170.208
L101.247 166.752
L101.247 166.752
L101.402 156.384
L101.431 159.84
L101.584 187.488
L101.699 194.4
L101.791 187.488
L101.796 190.944
L101.813 194.4
L101.819 190.944
L101.819 190.944
L101.863 180.576
L101.901 190.944
L101.901 190.944
L101.919 194.4
L101.926 190.944
L101.926 190.944
L101.927 187.488
L101.928 190.944
L101.928 190.944
L101.985 194.4
L101.989 190.944
L102.118 152.928
L102.266 184.032
L102.324 177.12
L102.356 173.664
L102.362 177.12
L102.362 177.12
L102.427 184.032
L102.434 177.12
L102.434 177.12
L102.438 173.664
L102.438 177.12
L102.438 177.12
L102.548 194.4
L102.571 187.488
L102.655 194.4
L102.663 187.488
L102.734 177.12
L102.907 194.4
L102.962 187.488
L102.988 180.576
L103.011 187.488
L103.011 187.488
L103.03 194.4
L103.065 187.488
L103.065 187.488
L103.095 177.12
L103.154 187.488
L103.154 187.488
L103.29 194.4
L103.403 180.576
L103.424 184.032
L103.521 190.944
L103.547 187.488
L103.553 180.576
L103.563 187.488
L103.563 187.488
L103.602 194.4
L103.607 187.488
L103.607 187.488
L103.646 170.208
L103.692 187.488
L103.692 187.488
L103.707 190.944
L103.714 187.488
L103.714 187.488
L103.758 180.576
L103.785 187.488
L103.785 187.488
L103.804 194.4
L103.809 187.488
L103.809 187.488
L103.817 177.12
L103.917 187.488
L103.955 194.4
L103.981 187.488
L103.981 187.488
L104.098 177.12
L104.102 180.576
L104.199 194.4
L104.22 184.032
L104.24 180.576
L104.243 184.032
L104.243 184.032
L104.282 194.4
L104.368 187.488
L104.507 170.208
L104.588 180.576
L104.613 170.208
L104.633 166.752
L104.645 170.208
L104.645 170.208
L104.722 184.032
L104.773 180.576
L104.818 177.12
L104.819 180.576
L104.819 180.576
L104.819 184.032
L104.823 180.576
L104.823 180.576
L104.826 170.208
L104.874 180.576
L104.874 180.576
L104.883 187.488
L104.902 180.576
L104.902 180.576
L104.972 152.928
L105.036 156.384
L105.056 159.84
L105.07 156.384
L105.07 156.384
L105.086 152.928
L105.087 156.384
L105.087 156.384
L105.195 177.12
L105.212 173.664
L105.217 177.12
L105.217 177.12
L105.219 180.576
L105.237 177.12
L105.237 177.12
L105.239 173.664
L105.241 177.12
L105.241 177.12
L105.352 194.4
L105.365 187.488
L105.451 194.4
L105.467 190.944
L105.478 187.488
L105.483 190.944
L105.483 190.944
L105.514 194.4
L105.53 190.944
L105.53 190.944
L105.596 173.664
L105.623 184.032
L105.656 187.488
L105.662 184.032
L105.662 184.032
L105.665 180.576
L105.667 184.032
L105.667 184.032
L105.731 194.4
L105.782 190.944
L105.938 177.12
L105.972 180.576
L105.976 177.12
L105.976 177.12
L105.981 173.664
L105.985 177.12
L105.985 177.12
L105.997 180.576
L106.01 177.12
L106.01 177.12
L106.01 173.664
L106.01 177.12
L106.01 177.12
L106.111 194.4
L106.111 190.944
L106.129 187.488
L106.131 190.944
L106.131 190.944
L106.134 194.4
L106.136 190.944
L106.136 190.944
L106.157 180.576
L106.244 190.944
L106.292 187.488
L106.306 190.944
L106.306 190.944
L106.309 194.4
L106.333 190.944
L106.333 190.944
L106.352 184.032
L106.37 190.944
L106.37 190.944
L106.402 194.4
L106.403 190.944
L106.403 190.944
L106.405 187.488
L106.419 190.944
L106.419 190.944
L106.437 194.4
L106.439 190.944
L106.439 190.944
L106.579 166.752
L106.639 180.576
L106.694 170.208
L106.714 159.84
L106.736 170.208
L106.736 170.208
L106.777 177.12
L106.811 170.208
L106.811 170.208
L106.823 163.296
L106.829 170.208
L106.829 170.208
L106.831 173.664
L106.84 170.208
L106.84 170.208
L106.844 166.752
L106.846 170.208
L106.846 170.208
L106.855 173.664
L106.86 170.208
L106.86 170.208
L106.914 159.84
L106.933 170.208
L106.933 170.208
L107.029 190.944
L107.057 184.032
L107.071 187.488
L107.078 184.032
L107.078 184.032
L107.09 180.576
L107.095 184.032
L107.095 184.032
L107.121 194.4
L107.202 184.032
L107.244 173.664
L107.27 184.032
L107.27 184.032
L107.398 190.944
L107.401 187.488
L107.421 177.12
L107.448 187.488
L107.448 187.488
L107.512 194.4
L107.513 190.944
L107.632 194.4
L107.739 190.944
L107.767 194.4
L107.769 190.944
L107.769 190.944
L107.772 184.032
L107.783 190.944
L107.783 190.944
L107.793 194.4
L107.794 190.944
L107.794 190.944
L107.909 177.12
L107.91 180.576
L107.925 187.488
L107.961 180.576
L107.961 180.576
L107.967 173.664
L107.981 180.576
L107.981 180.576
L108.087 194.4
L108.111 184.032
L108.158 180.576
L108.159 184.032
L108.361 194.4
L108.365 190.944
L108.447 173.664
L108.494 180.576
L108.67 194.4
L108.679 190.944
L108.681 187.488
L108.683 190.944
L108.683 190.944
L108.692 194.4
L108.729 190.944
L108.729 190.944
L108.777 184.032
L108.795 190.944
L108.795 190.944
L108.812 194.4
L108.815 190.944
L108.815 190.944
L108.82 187.488
L108.835 190.944
L108.835 190.944
L108.878 194.4
L108.896 190.944
L108.896 190.944
L109.004 177.12
L109.013 180.576
L109.041 190.944
L109.097 180.576
L109.097 180.576
L109.207 156.384
L109.367 125.28
L109.384 118.368
L109.402 125.28
L109.402 125.28
L109.403 128.736
L109.416 125.28
L109.416 125.28
L109.581 101.088
L109.602 114.912
L109.674 118.368
L109.693 114.912
L109.693 114.912
L109.704 111.456
L109.719 114.912
L109.719 114.912
L109.852 152.928
L109.865 142.56
L109.995 132.192
L109.996 135.648
L110.056 159.84
L110.185 173.664
L110.243 170.208
L110.245 173.664
L110.302 194.4
L110.339 190.944
L110.372 187.488
L110.372 190.944
L110.372 190.944
L110.392 194.4
L110.42 190.944
L110.42 190.944
L110.424 187.488
L110.426 190.944
L110.426 190.944
L110.47 194.4
L110.496 190.944
L110.496 190.944
L110.51 184.032
L110.576 190.944
L110.576 190.944
L110.578 194.4
L110.583 190.944
L110.583 190.944
L110.713 163.296
L110.732 170.208
L110.734 173.664
L110.745 170.208
L110.745 170.208
L110.807 159.84
L110.833 170.208
L110.833 170.208
L110.835 173.664
L110.842 170.208
L110.842 170.208
L110.935 163.296
L110.956 166.752
L110.986 173.664
L111.023 166.752
L111.023 166.752
L111.147 135.648
L111.165 146.016
L111.275 149.472
L111.376 170.208
L111.399 166.752
L111.59 139.104
L111.592 142.56
L111.692 156.384
L111.729 149.472
L111.775 146.016
L111.795 149.472
L111.795 149.472
L111.881 159.84
L111.893 149.472
L112.037 132.192
L112.081 135.648
L112.093 132.192
L112.093 132.192
L112.113 125.28
L112.125 132.192
L112.125 132.192
L112.135 135.648
L112.142 132.192
L112.142 132.192
L112.191 118.368
L112.201 114.912
L112.202 118.368
L112.202 118.368
L112.327 132.192
L112.365 128.736
L112.368 132.192
L112.368 132.192
L112.379 139.104
L112.424 132.192
L112.424 132.192
L112.546 114.912
L112.594 111.456
L112.6 114.912
L112.6 114.912
L112.706 128.736
L112.712 125.28
L112.83 104.544
L112.898 108
L113.012 125.28
L113.017 121.824
L113.056 114.912
L113.068 121.824
L113.127 132.192
L113.173 121.824
L113.247 111.456
L113.275 118.368
L113.336 121.824
L113.337 118.368
L113.337 118.368
L113.355 114.912
L113.358 118.368
L113.358 118.368
L113.503 135.648
L113.549 128.736
L113.559 125.28
L113.56 128.736
L113.56 128.736
L113.609 146.016
L113.674 135.648
L113.861 159.84
L113.943 152.928
L114.027 139.104
L114.036 142.56
L114.153 128.736
L114.315 104.544
L114.322 108
L114.443 118.368
L114.478 114.912
L114.493 118.368
L114.493 118.368
L114.509 121.824
L114.552 118.368
L114.552 118.368
L114.694 90.72
L114.876 118.368
L114.906 114.912
L114.934 118.368
L114.934 118.368
L114.981 135.648
L115.065 125.28
L115.088 118.368
L115.109 125.28
L115.109 125.28
L115.173 135.648
L115.209 142.56
L115.212 135.648
L115.212 135.648
L115.303 121.824
L115.325 125.28
L115.347 128.736
L115.366 125.28
L115.366 125.28
L115.372 121.824
L115.381 125.28
L115.381 125.28
L115.502 142.56
L115.523 132.192
L115.592 114.912
L115.704 108
L115.704 111.456
L115.745 121.824
L115.807 114.912
L115.94 104.544
L116.032 111.456
L116.05 104.544
L116.14 73.44
L116.196 76.896
L116.198 73.44
L116.198 73.44
L116.199 69.984
L116.199 73.44
L116.199 73.44
L116.231 80.352
L116.255 73.44
L116.255 73.44
L116.411 52.704
L116.457 56.16
L116.46 52.704
L116.46 52.704
L116.475 45.792
L116.485 52.704
L116.485 52.704
L116.62 66.528
L116.632 63.072
L116.642 66.528
L116.642 66.528
L116.726 90.72
L116.795 83.808
L116.798 90.72
L116.898 104.544
L116.918 101.088
L116.944 97.632
L116.945 101.088
L116.945 101.088
L116.954 104.544
L116.962 101.088
L116.962 101.088
L117.069 83.808
L117.095 80.352
L117.124 83.808
L117.124 83.808
L117.24 90.72
L117.366 80.352
L117.486 90.72
L117.494 83.808
L117.503 90.72
L117.503 90.72
L117.527 94.176
L117.54 90.72
L117.54 90.72
L117.553 87.264
L117.554 90.72
L117.554 90.72
L117.685 108
L117.749 104.544
L117.767 108
L117.794 111.456
L117.799 108
L117.799 108
L117.815 104.544
L117.845 108
L117.845 108
L117.871 111.456
L117.892 108
L117.892 108
L118.023 90.72
L118.101 108
L118.132 101.088
L118.15 97.632
L118.153 101.088
L118.153 101.088
L118.23 111.456
L118.253 104.544
L118.369 87.264
L118.436 94.176
L118.472 101.088
L118.506 94.176
L118.506 94.176
L118.525 83.808
L118.59 94.176
L118.59 94.176
L118.745 121.824
L118.881 114.912
L118.899 118.368
L118.904 114.912
L118.904 114.912
L118.933 104.544
L119.016 108
L119.044 104.544
L119.054 108
L119.054 108
L119.067 111.456
L119.076 108
L119.076 108
L119.176 90.72
L119.191 94.176
L119.262 76.896
L119.303 90.72
L119.383 101.088
L119.402 90.72
L119.402 90.72
L119.511 80.352
L119.57 90.72
L119.604 80.352
L119.633 69.984
L119.7 80.352
L119.7 80.352
L119.742 87.264
L119.746 80.352
L119.746 80.352
L119.753 76.896
L119.753 80.352
L119.753 80.352
L119.77 87.264
L119.781 80.352
L119.781 80.352
L119.799 69.984
L119.883 76.896
L120.041 94.176
L120.21 69.984
L120.373 101.088
L120.424 94.176
L120.469 101.088
L120.56 87.264
L120.596 94.176
L120.619 97.632
L120.648 94.176
L120.648 94.176
L120.668 87.264
L120.702 94.176
L120.702 94.176
L120.71 97.632
L120.718 94.176
L120.718 94.176
L120.751 87.264
L120.76 94.176
L120.76 94.176
L120.846 114.912
L120.889 104.544
L120.936 94.176
L120.996 101.088
L121.093 118.368
L121.097 121.824
L121.098 118.368
L121.098 118.368
L121.142 114.912
L121.16 118.368
L121.16 118.368
L121.195 132.192
L121.272 121.824
L121.273 118.368
L121.286 121.824
L121.286 121.824
L121.291 128.736
L121.298 121.824
L121.298 121.824
L121.401 104.544
L121.41 111.456
L121.547 125.28
L121.583 128.736
L121.6 125.28
L121.6 125.28
L121.619 121.824
L121.62 125.28
L121.62 125.28
L121.63 128.736
L121.63 125.28
L121.63 125.28
L121.811 90.72
L121.817 94.176
L121.85 97.632
L121.875 94.176
L121.875 94.176
L121.914 87.264
L121.942 94.176
L121.942 94.176
L122.014 104.544
L122.037 94.176
L122.037 94.176
L122.139 87.264
L122.151 90.72
L122.232 111.456
L122.263 108
L122.383 118.368
L122.4 114.912
L122.408 118.368
L122.408 118.368
L122.419 121.824
L122.433 118.368
L122.433 118.368
L122.472 104.544
L122.528 118.368
L122.528 118.368
L122.53 121.824
L122.54 118.368
L122.54 118.368
L122.551 114.912
L122.564 118.368
L122.564 118.368
L122.674 128.736
L122.849 87.264
L122.98 104.544
L122.989 97.632
L123.234 66.528
L123.249 76.896
L123.344 90.72
L123.37 87.264
L123.518 69.984
L123.571 80.352
L123.595 69.984
L123.595 69.984
L123.598 66.528
L123.617 69.984
L123.617 69.984
L123.807 104.544
L123.843 90.72
L123.882 87.264
L123.884 90.72
L123.884 90.72
L123.943 94.176
L123.957 90.72
L123.957 90.72
L124.084 69.984
L124.085 73.44
L124.107 66.528
L124.147 73.44
L124.147 73.44
L124.165 76.896
L124.171 73.44
L124.171 73.44
L124.177 69.984
L124.229 73.44
L124.229 73.44
L124.235 80.352
L124.273 73.44
L124.273 73.44
L124.391 63.072
L124.402 66.528
L124.47 80.352
L124.522 76.896
L124.543 73.44
L124.556 76.896
L124.556 76.896
L124.593 87.264
L124.619 76.896
L124.619 76.896
L124.644 66.528
L124.666 76.896
L124.666 76.896
L124.772 94.176
L124.808 87.264
L124.892 73.44
L124.918 83.808
L125.029 97.632
L125.052 94.176
L125.056 90.72
L125.124 94.176
L125.124 94.176
L125.155 97.632
L125.164 94.176
L125.164 94.176
L125.195 90.72
L125.203 94.176
L125.203 94.176
L125.258 101.088
L125.322 97.632
L125.326 101.088
L125.332 108
L125.36 101.088
L125.36 101.088
L125.526 80.352
L125.557 87.264
L125.624 94.176
L125.631 87.264
L125.631 87.264
L125.638 83.808
L125.653 87.264
L125.653 87.264
L125.761 90.72
L125.801 83.808
L125.871 87.264
L125.879 94.176
L125.885 87.264
L125.885 87.264
L125.904 80.352
L125.91 87.264
L125.91 87.264
L125.928 90.72
L125.931 87.264
L125.931 87.264
L125.942 80.352
L125.955 87.264
L125.955 87.264
L126.042 104.544
L126.095 97.632
L126.174 80.352
L126.182 87.264
L126.271 97.632
L126.296 90.72
L126.306 83.808
L126.322 90.72
L126.322 90.72
L126.548 128.736
L126.623 118.368
L126.641 128.736
L126.667 135.648
L126.698 128.736
L126.698 128.736
L126.699 125.28
L126.699 128.736
L126.699 128.736
L126.71 132.192
L126.716 128.736
L126.716 128.736
L126.79 118.368
L126.827 125.28
L126.845 118.368
L126.911 125.28
L126.911 125.28
L126.975 132.192
L127 128.736
L127.145 121.824
L127.157 125.28
L127.163 121.824
L127.163 121.824
L127.187 111.456
L127.264 118.368
L127.486 146.016
L127.516 135.648
L127.653 125.28
L127.653 128.736
L127.699 135.648
L127.702 128.736
L127.702 128.736
L127.821 118.368
L127.859 125.28
L127.88 118.368
L127.88 118.368
L127.971 90.72
L128.007 104.544
L128.129 114.912
L128.163 118.368
L128.191 114.912
L128.191 114.912
L128.25 90.72
L128.298 101.088
L128.316 97.632
L128.317 101.088
L128.317 101.088
L128.32 104.544
L128.324 101.088
L128.324 101.088
L128.438 66.528
L128.447 73.44
L128.462 66.528
L128.462 66.528
L128.519 63.072
L128.535 66.528
L128.535 66.528
L128.634 83.808
L128.676 80.352
L128.758 76.896
L128.762 80.352
L128.762 80.352
L128.879 90.72
L128.936 97.632
L128.959 90.72
L128.959 90.72
L129.004 87.264
L129.023 90.72
L129.023 90.72
L129.04 97.632
L129.044 90.72
L129.044 90.72
L129.174 80.352
L129.183 83.808
L129.211 87.264
L129.212 83.808
L129.212 83.808
L129.24 73.44
L129.268 83.808
L129.268 83.808
L129.361 94.176
L129.383 90.72
L129.64 121.824
L129.655 114.912
L129.769 87.264
L129.795 90.72
L129.813 87.264
L129.813 87.264
L129.882 63.072
L129.945 73.44
L129.977 80.352
L130.008 73.44
L130.008 73.44
L130.026 69.984
L130.041 73.44
L130.041 73.44
L130.083 83.808
L130.151 73.44
L130.166 63.072
L130.19 73.44
L130.19 73.44
L130.193 76.896
L130.22 73.44
L130.22 73.44
L130.282 63.072
L130.308 73.44
L130.308 73.44
L130.466 90.72
L130.468 87.264
L130.48 83.808
L130.481 87.264
L130.481 87.264
L130.571 104.544
L130.589 101.088
L130.791 80.352
L130.801 83.808
L130.944 104.544
L130.956 101.088
L130.965 97.632
L130.976 101.088
L130.976 101.088
L130.991 104.544
L131.019 101.088
L131.019 101.088
L131.032 97.632
L131.033 101.088
L131.033 101.088
L131.16 114.912
L131.304 87.264
L131.318 90.72
L131.361 111.456
L131.45 108
L131.525 94.176
L131.539 108
L131.539 108
L131.639 118.368
L131.653 111.456
L131.751 83.808
L131.77 94.176
L131.778 97.632
L131.793 94.176
L131.793 94.176
L131.803 83.808
L131.821 94.176
L131.821 94.176
L131.842 104.544
L131.909 94.176
L131.909 94.176
L132.061 73.44
L132.089 76.896
L132.09 73.44
L132.09 73.44
L132.098 66.528
L132.144 73.44
L132.144 73.44
L132.372 114.912
L132.376 111.456
L132.458 101.088
L132.485 108
L132.514 111.456
L132.542 108
L132.571 104.544
L132.579 108
L132.579 108
L132.618 114.912
L132.644 108
L132.644 108
L132.724 97.632
L132.754 108
L132.77 111.456
L132.773 108
L132.773 108
L132.775 104.544
L132.804 108
L132.804 108
L132.926 125.28
L132.968 111.456
L133.038 121.824
L133.104 125.28
L133.12 121.824
L133.12 121.824
L133.131 118.368
L133.151 121.824
L133.151 121.824
L133.278 142.56
L133.292 135.648
L133.422 118.368
L133.427 121.824
L133.473 128.736
L133.497 121.824
L133.497 121.824
L133.502 118.368
L133.526 121.824
L133.526 121.824
L133.555 132.192
L133.613 121.824
L133.613 121.824
L133.708 104.544
L133.736 108
L133.751 104.544
L133.817 108
L133.894 104.544
L134.098 118.368
L134.306 104.544
L134.333 108
L134.336 104.544
L134.336 104.544
L134.472 97.632
L134.485 101.088
L134.488 97.632
L134.488 97.632
L134.49 94.176
L134.504 97.632
L134.504 97.632
L134.507 101.088
L134.541 97.632
L134.541 97.632
L134.545 94.176
L134.563 97.632
L134.563 97.632
L134.682 121.824
L134.753 114.912
L134.845 101.088
L134.866 104.544
L134.875 101.088
L134.875 101.088
L134.887 97.632
L134.888 101.088
L134.888 101.088
L134.898 104.544
L134.917 101.088
L134.917 101.088
L134.93 97.632
L134.953 101.088
L134.953 101.088
L135.054 111.456
L135.189 97.632
L135.201 104.544
L135.235 114.912
L135.289 104.544
L135.349 97.632
L135.366 104.544
L135.417 114.912
L135.451 104.544
L135.451 104.544
L135.547 90.72
L135.555 94.176
L135.576 97.632
L135.583 94.176
L135.583 94.176
L135.633 80.352
L135.669 94.176
L135.669 94.176
L135.785 111.456
L135.908 90.72
L135.925 97.632
L136.094 121.824
L136.107 108
L136.12 101.088
L136.128 108
L136.128 108
L136.132 111.456
L136.134 108
L136.134 108
L136.259 87.264
L136.271 90.72
L136.284 87.264
L136.284 87.264
L136.284 83.808
L136.287 87.264
L136.287 87.264
L136.304 90.72
L136.307 87.264
L136.307 87.264
L136.321 83.808
L136.322 87.264
L136.322 87.264
L136.429 101.088
L136.454 97.632
L136.471 94.176
L136.486 97.632
L136.486 97.632
L136.595 118.368
L136.612 114.912
L136.727 101.088
L136.792 104.544
L136.8 108
L136.807 104.544
L136.807 104.544
L136.89 97.632
L136.917 104.544
L136.981 94.176
L137.022 104.544
L137.045 108
L137.05 104.544
L137.05 104.544
L137.057 101.088
L137.067 104.544
L137.067 104.544
L137.109 108
L137.139 104.544
L137.247 76.896
L137.261 83.808
L137.271 90.72
L137.323 83.808
L137.323 83.808
L137.333 80.352
L137.354 83.808
L137.354 83.808
L137.414 97.632
L137.474 87.264
L137.487 83.808
L137.493 87.264
L137.493 87.264
L137.591 104.544
L137.613 97.632
L137.644 104.544
L137.646 97.632
L137.646 97.632
L137.742 73.44
L137.783 90.72
L137.888 104.544
L137.919 108
L137.925 104.544
L137.925 104.544
L138.047 90.72
L138.048 94.176
L138.055 90.72
L138.055 90.72
L138.174 76.896
L138.443 104.544
L138.463 97.632
L138.465 94.176
L138.496 97.632
L138.496 97.632
L138.496 101.088
L138.536 97.632
L138.536 97.632
L138.556 94.176
L138.587 97.632
L138.587 97.632
L138.597 104.544
L138.634 97.632
L138.634 97.632
L138.745 73.44
L138.79 76.896
L138.803 73.44
L138.803 73.44
L138.81 69.984
L138.815 73.44
L138.815 73.44
L138.895 90.72
L138.937 87.264
L138.94 83.808
L138.942 87.264
L138.942 87.264
L138.984 94.176
L139.039 87.264
L139.039 87.264
L139.049 83.808
L139.053 87.264
L139.053 87.264
L139.124 104.544
L139.165 94.176
L139.29 73.44
L139.341 80.352
L139.467 101.088
L139.484 90.72
L139.512 83.808
L139.541 90.72
L139.541 90.72
L139.555 94.176
L139.559 90.72
L139.559 90.72
L139.56 87.264
L139.561 90.72
L139.561 90.72
L139.569 94.176
L139.58 90.72
L139.58 90.72
L139.637 76.896
L139.688 87.264
L139.805 73.44
L139.809 76.896
L139.958 87.264
L139.996 83.808
L140.042 76.896
L140.05 83.808
L140.05 83.808
L140.084 90.72
L140.13 83.808
L140.13 83.808
L140.202 76.896
L140.236 83.808
L140.351 97.632
L140.351 94.176
L140.423 83.808
L140.453 94.176
L140.492 108
L140.562 94.176
L140.564 90.72
L140.566 94.176
L140.566 94.176
L140.585 97.632
L140.586 94.176
L140.586 94.176
L140.597 83.808
L140.688 87.264
L140.704 90.72
L140.726 87.264
L140.726 87.264
L140.822 69.984
L140.835 73.44
L140.865 63.072
L140.938 73.44
L140.956 80.352
L140.973 73.44
L140.973 73.44
L140.973 69.984
L140.985 73.44
L140.985 73.44
L140.991 76.896
L141.001 73.44
L141.001 73.44
L141.044 59.616
L141.11 73.44
L141.242 38.88
L141.278 45.792
L141.39 69.984
L141.498 87.264
L141.565 76.896
L141.577 87.264
L141.577 87.264
L141.596 94.176
L141.653 87.264
L141.653 87.264
L141.663 83.808
L141.666 87.264
L141.666 87.264
L141.684 94.176
L141.718 87.264
L141.718 87.264
L141.746 80.352
L141.755 87.264
L141.755 87.264
L141.825 101.088
L141.883 94.176
L141.905 87.264
L141.917 94.176
L141.917 94.176
L142.016 121.824
L142.017 118.368
L142.051 111.456
L142.133 114.912
L142.209 142.56
L142.246 135.648
L142.263 139.104
L142.271 135.648
L142.271 135.648
L142.283 128.736
L142.32 135.648
L142.32 135.648
L142.389 146.016
L142.432 139.104
L142.458 135.648
L142.502 139.104
L142.502 139.104
L142.531 142.56
L142.541 139.104
L142.541 139.104
L142.582 132.192
L142.591 139.104
L142.591 139.104
L142.641 142.56
L142.643 139.104
L142.643 139.104
L142.824 90.72
L142.83 94.176
L142.838 90.72
L142.838 90.72
L142.844 87.264
L142.855 90.72
L142.855 90.72
L142.909 97.632
L142.931 90.72
L142.931 90.72
L142.961 83.808
L142.998 90.72
L142.998 90.72
L143.067 104.544
L143.113 97.632
L143.303 73.44
L143.441 111.456
L143.547 108
L143.796 63.072
L143.805 66.528
L144.034 87.264
L144.04 80.352
L144.107 63.072
L144.146 76.896
L144.158 80.352
L144.164 76.896
L144.164 76.896
L144.272 59.616
L144.33 66.528
L144.44 69.984
L144.51 56.16
L144.57 63.072
L144.677 73.44
L144.701 69.984
L144.792 63.072
L144.8 69.984
L144.8 69.984
L144.805 76.896
L144.828 69.984
L144.828 69.984
L144.863 63.072
L144.926 69.984
L145.038 83.808
L145.074 80.352
L145.085 76.896
L145.095 80.352
L145.095 80.352
L145.101 83.808
L145.105 80.352
L145.105 80.352
L145.145 73.44
L145.157 80.352
L145.157 80.352
L145.233 111.456
L145.261 104.544
L145.277 108
L145.285 104.544
L145.285 104.544
L145.415 87.264
L145.435 90.72
L145.444 87.264
L145.444 87.264
L145.473 76.896
L145.555 83.808
L145.581 90.72
L145.592 83.808
L145.592 83.808
L145.668 59.616
L145.684 66.528
L145.751 63.072
L145.756 66.528
L145.756 69.984
L145.774 66.528
L145.774 66.528
L145.829 56.16
L145.86 66.528
L145.86 66.528
L145.872 69.984
L145.906 66.528
L145.906 66.528
L146 52.704
L146.035 59.616
L146.067 66.528
L146.074 59.616
L146.074 59.616
L146.11 56.16
L146.113 59.616
L146.113 59.616
L146.227 63.072
L146.3 59.616
L146.309 63.072
L146.515 97.632
L146.52 94.176
L146.529 90.72
L146.536 94.176
L146.536 94.176
L146.613 108
L146.642 94.176
L146.691 90.72
L146.692 94.176
L146.692 94.176
L146.713 97.632
L146.722 94.176
L146.722 94.176
L146.778 76.896
L146.828 80.352
L146.844 73.44
L146.847 80.352
L146.847 80.352
L146.997 101.088
L147.054 94.176
L147.082 101.088
L147.176 108
L147.19 104.544
L147.209 101.088
L147.213 104.544
L147.213 104.544
L147.283 118.368
L147.331 111.456
L147.343 108
L147.362 111.456
L147.362 111.456
L147.405 118.368
L147.426 111.456
L147.426 111.456
L147.433 108
L147.435 111.456
L147.435 111.456
L147.561 121.824
L147.634 111.456
L147.676 118.368
L147.729 125.28
L147.736 118.368
L147.736 118.368
L147.833 111.456
L147.836 114.912
L147.896 125.28
L147.974 121.824
L148.056 108
L148.077 114.912
L148.145 104.544
L148.179 111.456
L148.239 97.632
L148.246 94.176
L148.25 97.632
L148.25 97.632
L148.344 118.368
L148.374 108
L148.488 83.808
L148.548 90.72
L148.604 87.264
L148.632 90.72
L148.833 114.912
L148.87 101.088
L148.89 104.544
L149.008 97.632
L149.009 101.088
L149.01 104.544
L149.026 101.088
L149.026 101.088
L149.15 83.808
L149.348 59.616
L149.352 63.072
L149.357 66.528
L149.384 63.072
L149.384 63.072
L149.411 59.616
L149.414 63.072
L149.414 63.072
L149.438 66.528
L149.441 63.072
L149.441 63.072
L149.479 59.616
L149.48 63.072
L149.48 63.072
L149.596 76.896
L149.603 69.984
L149.664 59.616
L149.705 66.528
L149.762 76.896
L149.792 66.528
L149.792 66.528
L149.801 59.616
L149.83 66.528
L149.83 66.528
L149.956 76.896
L149.997 73.44
L150.002 76.896
L150.002 76.896
L150.095 101.088
L150.246 104.544
L150.4 80.352
L150.439 83.808
L150.455 87.264
L150.459 83.808
L150.459 83.808
L150.478 80.352
L150.486 83.808
L150.486 83.808
L150.591 87.264
L150.602 83.808
L150.612 87.264
L150.612 87.264
L150.643 90.72
L150.644 87.264
L150.644 87.264
L150.649 83.808
L150.666 87.264
L150.666 87.264
L150.683 90.72
L150.703 87.264
L150.703 87.264
L150.707 83.808
L150.709 87.264
L150.709 87.264
L150.712 90.72
L150.728 87.264
L150.728 87.264
L150.755 83.808
L150.755 87.264
L150.755 87.264
L150.775 90.72
L150.779 87.264
L150.779 87.264
L150.78 83.808
L150.795 87.264
L150.795 87.264
L150.873 97.632
L150.988 108
L151.129 128.736
L151.165 121.824
L151.194 114.912
L151.237 121.824
L151.237 121.824
L151.373 139.104
L151.39 142.56
L151.398 139.104
L151.398 139.104
L151.413 132.192
L151.423 139.104
L151.423 139.104
L151.512 159.84
L151.655 180.576
L151.662 184.032
L151.666 180.576
L151.666 180.576
L151.774 166.752
L151.848 170.208
L151.853 166.752
L151.853 166.752
L151.911 159.84
L151.956 166.752
L151.975 173.664
L151.993 166.752
L151.993 166.752
L151.996 163.296
L151.998 166.752
L151.998 166.752
L151.999 170.208
L152.002 166.752
L152.002 166.752
L152.195 146.016
L152.217 149.472
L152.222 146.016
L152.222 146.016
L152.369 125.28
L152.375 121.824
L152.388 125.28
L152.388 125.28
L152.439 135.648
L152.456 125.28
L152.456 125.28
L152.499 118.368
L152.519 125.28
L152.519 125.28
L152.611 132.192
L152.624 125.28
L152.748 111.456
L152.862 132.192
L152.909 125.28
L153.031 104.544
L153.058 101.088
L153.069 104.544
L153.069 104.544
L153.102 114.912
L153.155 104.544
L153.155 104.544
L153.249 94.176
L153.253 101.088
L153.507 135.648
L153.79 114.912
L153.79 118.368
L154.033 149.472
L154.051 142.56
L154.093 149.472
L154.093 149.472
L154.172 163.296
L154.199 159.84
L154.292 142.56
L154.312 139.104
L154.316 142.56
L154.316 142.56
L154.325 146.016
L154.333 142.56
L154.333 142.56
L154.466 118.368
L154.472 121.824
L154.482 128.736
L154.502 121.824
L154.502 121.824
L154.596 114.912
L154.609 121.824
L154.728 135.648
L154.803 118.368
L154.873 125.28
L154.924 139.104
L154.934 135.648
L154.99 132.192
L154.993 135.648
L155.042 146.016
L155.109 142.56
L155.205 132.192
L155.213 139.104
L155.256 146.016
L155.295 139.104
L155.295 139.104
L155.297 135.648
L155.298 139.104
L155.298 139.104
L155.436 152.928
L155.581 128.736
L155.593 132.192
L155.677 142.56
L155.704 135.648
L155.754 146.016
L155.806 139.104
L155.821 135.648
L155.823 139.104
L155.823 139.104
L155.84 142.56
L155.86 139.104
L155.86 139.104
L155.869 135.648
L155.873 139.104
L155.873 139.104
L156.177 173.664
L156.182 170.208
L156.352 146.016
L156.409 152.928
L156.446 146.016
L156.497 135.648
L156.515 146.016
L156.515 146.016
L156.751 173.664
L156.846 159.84
L156.886 163.296
L156.895 166.752
L156.899 163.296
L156.899 163.296
L156.902 159.84
L156.905 163.296
L156.905 163.296
L156.946 173.664
L156.958 163.296
L156.958 163.296
L156.993 152.928
L157.001 163.296
L157.001 163.296
L157.025 170.208
L157.049 163.296
L157.049 163.296
L157.098 152.928
L157.167 159.84
L157.171 163.296
L157.175 159.84
L157.175 159.84
L157.277 152.928
L157.425 170.208
L157.432 159.84
L157.435 156.384
L157.438 159.84
L157.438 159.84
L157.52 163.296
L157.725 149.472
L157.976 177.12
L157.994 170.208
L158.009 166.752
L158.027 170.208
L158.027 170.208
L158.06 177.12
L158.074 170.208
L158.074 170.208
L158.236 142.56
L158.238 146.016
L158.263 142.56
L158.263 146.016
L158.263 146.016
L158.419 159.84
L158.424 156.384
L158.429 159.84
L158.429 159.84
L158.512 177.12
L158.564 166.752
L158.57 163.296
L158.571 166.752
L158.571 166.752
L158.616 173.664
L158.653 166.752
L158.701 163.296
L158.71 166.752
L158.71 166.752
L158.712 170.208
L158.72 166.752
L158.72 166.752
L158.73 163.296
L158.733 166.752
L158.733 166.752
L158.769 173.664
L158.776 166.752
L158.776 166.752
L158.895 152.928
L158.912 159.84
L158.935 152.928
L158.935 152.928
L159.021 142.56
L159.045 149.472
L159.076 152.928
L159.08 149.472
L159.08 149.472
L159.205 125.28
L159.208 128.736
L159.239 139.104
L159.268 128.736
L159.268 128.736
L159.276 125.28
L159.304 128.736
L159.304 128.736
L159.371 135.648
L159.391 128.736
L159.391 128.736
L159.397 125.28
L159.413 128.736
L159.413 128.736
L159.514 149.472
L159.527 146.016
L159.593 139.104
L159.615 146.016
L159.615 146.016
L159.714 159.84
L159.724 156.384
L159.815 173.664
L159.897 170.208
L160.014 152.928
L160.014 156.384
L160.033 159.84
L160.035 156.384
L160.035 156.384
L160.036 152.928
L160.038 156.384
L160.038 156.384
L160.18 170.208
L160.183 166.752
L160.272 159.84
L160.279 163.296
L160.325 159.84
L160.376 163.296
L160.433 177.12
L160.491 166.752
L160.601 128.736
L160.785 146.016
L160.785 142.56
L160.81 135.648
L160.82 142.56
L160.82 142.56
L160.917 149.472
L160.93 146.016
L160.931 142.56
L160.935 146.016
L160.935 146.016
L160.97 156.384
L160.98 146.016
L160.98 146.016
L160.983 142.56
L160.991 146.016
L160.991 146.016
L161.061 163.296
L161.091 152.928
L161.122 149.472
L161.139 152.928
L161.139 152.928
L161.203 180.576
L161.299 173.664
L161.321 163.296
L161.347 173.664
L161.347 173.664
L161.358 180.576
L161.447 177.12
L161.472 173.664
L161.48 177.12
L161.48 177.12
L161.602 194.4
L161.612 190.944
L161.649 184.032
L161.663 190.944
L161.663 190.944
L161.765 194.4
L161.769 190.944
L161.843 177.12
L161.855 187.488
L161.889 194.4
L161.902 187.488
L161.902 187.488
L161.949 180.576
L161.954 187.488
L161.954 187.488
L162.057 194.4
L162.141 184.032
L162.195 187.488
L162.256 194.4
L162.308 190.944
L162.328 187.488
L162.328 190.944
L162.328 190.944
L162.349 194.4
L162.361 190.944
L162.361 190.944
L162.393 184.032
L162.41 190.944
L162.41 190.944
L162.432 194.4
L162.457 190.944
L162.457 190.944
L162.482 187.488
L162.499 190.944
L162.499 190.944
L162.527 194.4
L162.528 190.944
L162.528 190.944
L162.694 177.12
L162.701 180.576
L162.743 190.944
L162.769 180.576
L162.769 180.576
L162.897 152.928
L163.016 177.12
L163.046 163.296
L163.054 159.84
L163.078 163.296
L163.078 163.296
L163.102 173.664
L163.169 163.296
L163.169 163.296
L163.268 156.384
L163.28 163.296
L163.299 159.84
L163.3 163.296
L163.3 163.296
L163.304 166.752
L163.358 163.296
L163.358 163.296
L163.36 159.84
L163.361 163.296
L163.361 163.296
L163.487 187.488
L163.578 177.12
L163.597 184.032
L163.72 194.4
L163.739 190.944
L163.74 187.488
L163.741 190.944
L163.741 190.944
L163.783 194.4
L163.784 190.944
L163.784 190.944
L163.809 177.12
L163.908 180.576
L163.929 187.488
L163.973 180.576
L163.973 180.576
L164.127 152.928
L164.133 156.384
L164.139 152.928
L164.139 152.928
L164.182 149.472
L164.183 152.928
L164.183 152.928
L164.219 163.296
L164.266 152.928
L164.266 152.928
L164.28 139.104
L164.314 152.928
L164.314 152.928
L164.408 170.208
L164.47 180.576
L164.492 170.208
L164.534 163.296
L164.564 170.208
L164.564 170.208
L164.571 173.664
L164.573 170.208
L164.573 170.208
L164.642 152.928
L164.723 159.84
L164.727 163.296
L164.734 159.84
L164.734 159.84
L164.743 156.384
L164.746 159.84
L164.746 159.84
L164.805 163.296
L164.829 159.84
L164.829 159.84
L164.87 156.384
L164.91 159.84
L164.91 159.84
L165.069 173.664
L165.087 170.208
L165.094 173.664
L165.094 173.664
L165.2 194.4
L165.388 166.752
L165.47 177.12
L165.49 170.208
L165.591 159.84
L165.613 166.752
L165.705 190.944
L165.72 187.488
L165.763 184.032
L165.784 187.488
L165.784 187.488
L165.902 194.4
L165.912 190.944
L165.921 187.488
L165.935 190.944
L165.935 190.944
L165.964 194.4
L165.975 190.944
L165.975 190.944
L165.991 184.032
L165.996 190.944
L165.996 190.944
L166.02 194.4
L166.023 190.944
L166.023 190.944
L166.028 187.488
L166.066 190.944
L166.066 190.944
L166.099 194.4
L166.108 190.944
L166.108 190.944
L166.147 184.032
L166.158 190.944
L166.158 190.944
L166.16 194.4
L166.179 190.944
L166.179 190.944
L166.187 187.488
L166.19 190.944
L166.19 190.944
L166.192 194.4
L166.207 190.944
L166.207 190.944
L166.249 173.664
L166.348 184.032
L166.449 194.4
L166.457 190.944
L166.516 194.4
L166.517 190.944
L166.517 190.944
L166.563 180.576
L166.579 190.944
L166.579 190.944
L166.584 194.4
L166.591 190.944
L166.591 190.944
L166.628 180.576
L166.67 190.944
L166.67 190.944
L166.711 194.4
L166.713 190.944
L166.713 190.944
L166.783 180.576
L166.857 184.032
L166.947 194.4
L166.984 187.488
L166.99 184.032
L166.993 187.488
L166.993 187.488
L166.996 190.944
L167.005 187.488
L167.005 187.488
L167.02 184.032
L167.06 187.488
L167.06 187.488
L167.086 194.4
L167.134 187.488
L167.134 187.488
L167.142 180.576
L167.18 187.488
L167.18 187.488
L167.254 194.4
L167.266 190.944
L167.341 177.12
L167.392 187.488
L167.5 194.4
L167.617 184.032
L167.624 190.944
L167.651 187.488
L167.653 190.944
L167.653 190.944
L167.682 194.4
L167.685 190.944
L167.685 190.944
L167.705 184.032
L167.713 190.944
L167.713 190.944
L167.72 194.4
L167.742 190.944
L167.742 190.944
L167.796 166.752
L167.846 170.208
L167.974 184.032
L167.983 177.12
L168.003 173.664
L168.008 177.12
L168.008 177.12
L168.024 187.488
L168.04 177.12
L168.04 177.12
L168.067 166.752
L168.117 177.12
L168.117 177.12
L168.148 184.032
L168.164 177.12
L168.164 177.12
L168.171 173.664
L168.173 177.12
L168.173 177.12
L168.291 190.944
L168.413 166.752
L168.416 170.208
L168.554 190.944
L168.647 194.4
L169.017 146.016
L169.034 142.56
L169.053 146.016
L169.053 146.016
L169.158 156.384
L169.168 152.928
L169.25 139.104
L169.275 142.56
L169.412 156.384
L169.436 149.472
L169.466 142.56
L169.481 149.472
L169.481 149.472
L169.542 156.384
L169.567 152.928
L169.593 149.472
L169.602 152.928
L169.602 152.928
L169.602 156.384
L169.614 152.928
L169.614 152.928
L169.619 146.016
L169.634 152.928
L169.634 152.928
L169.645 159.84
L169.654 152.928
L169.654 152.928
L169.749 142.56
L169.769 146.016
L169.865 156.384
L169.891 149.472
L169.906 142.56
L169.911 149.472
L169.911 149.472
L169.918 159.84
L169.969 149.472
L169.969 149.472
L169.972 146.016
L169.973 149.472
L169.973 149.472
L169.983 156.384
L170.008 149.472
L170.008 149.472
L170.023 146.016
L170.053 149.472
L170.053 149.472
L170.139 166.752
L170.227 159.84
L170.265 152.928
L170.282 159.84
L170.282 159.84
L170.288 163.296
L170.299 159.84
L170.299 159.84
L170.31 156.384
L170.317 159.84
L170.317 159.84
L170.333 163.296
L170.34 159.84
L170.34 159.84
L170.425 139.104
L170.449 146.016
L170.626 173.664
L170.69 163.296
L170.709 173.664
L170.709 173.664
L170.712 180.576
L170.795 177.12
L170.851 173.664
L170.877 177.12
L171.031 194.4
L171.032 190.944
L171.153 180.576
L171.235 194.4
L171.277 184.032
L171.294 180.576
L171.295 184.032
L171.295 184.032
L171.343 194.4
L171.379 184.032
L171.379 184.032
L171.49 159.84
L171.514 163.296
L171.584 173.664
L171.717 187.488
L171.722 184.032
L171.725 187.488
L171.725 187.488
L171.729 190.944
L171.734 187.488
L171.734 187.488
L171.737 184.032
L171.771 187.488
L171.771 187.488
L171.873 194.4
L171.873 190.944
L171.918 194.4
L171.927 190.944
L171.927 190.944
L171.939 187.488
L171.956 190.944
L171.956 190.944
L172.022 194.4
L172.035 190.944
L172.035 190.944
L172.037 187.488
L172.039 190.944
L172.039 190.944
L172.041 194.4
L172.054 190.944
L172.054 190.944
L172.125 184.032
L172.144 190.944
L172.144 190.944
L172.159 194.4
L172.166 190.944
L172.166 190.944
L172.356 173.664
L172.366 177.12
L172.484 190.944
L172.502 187.488
L172.517 190.944
L172.517 190.944
L172.566 194.4
L172.567 190.944
L172.567 190.944
L172.571 187.488
L172.571 190.944
L172.571 190.944
L172.577 194.4
L172.582 190.944
L172.582 190.944
L172.603 187.488
L172.617 190.944
L172.617 190.944
L172.651 194.4
L172.656 190.944
L172.656 190.944
L172.67 184.032
L172.706 190.944
L172.706 190.944
L172.708 194.4
L172.761 190.944
L172.761 190.944
L172.943 166.752
L172.959 170.208
L172.967 177.12
L173.02 170.208
L173.02 170.208
L173.021 166.752
L173.063 170.208
L173.063 170.208
L173.218 184.032
L173.258 180.576
L173.26 184.032
L173.26 184.032
L173.336 194.4
L173.372 187.488
L173.473 177.12
L173.516 180.576
L173.518 177.12
L173.518 177.12
L173.521 173.664
L173.525 177.12
L173.525 177.12
L173.678 194.4
L173.719 187.488
L173.734 184.032
L173.734 187.488
L173.734 187.488
L173.815 194.4
L173.817 187.488
L173.817 187.488
L173.98 166.752
L173.991 170.208
L174.074 187.488
L174.1 173.664
L174.13 159.84
L174.211 166.752
L174.241 170.208
L174.248 166.752
L174.248 166.752
L174.305 159.84
L174.341 166.752
L174.353 170.208
L174.362 166.752
L174.362 166.752
L174.417 152.928
L174.457 166.752
L174.638 187.488
L174.643 184.032
L174.643 180.576
L174.644 184.032
L174.644 184.032
L174.724 190.944
L175.028 156.384
L175.034 152.928
L175.049 156.384
L175.049 156.384
L175.051 159.84
L175.075 156.384
L175.075 156.384
L175.244 132.192
L175.357 139.104
L175.378 132.192
L175.405 139.104
L175.405 139.104
L175.481 159.84
L175.553 152.928
L175.581 139.104
L175.665 142.56
L175.801 156.384
L175.808 152.928
L175.816 149.472
L175.817 152.928
L175.817 152.928
L175.839 166.752
L175.917 156.384
L176.007 159.84
L176.008 156.384
L176.01 152.928
L176.012 156.384
L176.012 156.384
L176.029 159.84
L176.043 156.384
L176.043 156.384
L176.077 152.928
L176.079 156.384
L176.079 156.384
L176.209 166.752
L176.211 163.296
L176.339 142.56
L176.343 146.016
L176.566 170.208
L176.575 163.296
L176.61 159.84
L176.63 163.296
L176.63 163.296
L176.651 166.752
L176.653 163.296
L176.653 163.296
L176.773 146.016
L176.776 149.472
L176.792 152.928
L176.796 149.472
L176.796 149.472
L176.824 139.104
L176.917 142.56
L176.922 146.016
L176.924 142.56
L176.924 142.56
L176.985 125.28
L177.04 139.104
L177.057 142.56
L177.104 139.104
L177.104 139.104
L177.233 101.088
L177.238 104.544
L177.28 94.176
L177.318 104.544
L177.318 104.544
L177.477 142.56
L177.574 121.824
L177.655 128.736
L177.662 135.648
L177.686 128.736
L177.686 128.736
L177.692 121.824
L177.733 128.736
L177.733 128.736
L177.856 159.84
L177.88 163.296
L177.883 159.84
L177.883 159.84
L177.904 152.928
L177.976 159.84
L177.981 166.752
L177.99 159.84
L177.99 159.84
L178.013 156.384
L178.028 159.84
L178.028 159.84
L178.14 180.576
L178.147 177.12
L178.179 170.208
L178.218 177.12
L178.218 177.12
L178.233 180.576
L178.24 177.12
L178.24 177.12
L178.294 173.664
L178.3 177.12
L178.3 177.12
L178.325 187.488
L178.386 177.12
L178.386 177.12
L178.481 163.296
L178.498 173.664
L178.599 194.4
L178.839 166.752
L178.847 170.208
L178.883 173.664
L178.889 170.208
L178.889 170.208
L178.899 166.752
L178.911 170.208
L178.911 170.208
L178.984 180.576
L179.022 177.12
L179.105 194.4
L179.164 184.032
L179.186 180.576
L179.203 184.032
L179.203 184.032
L179.318 194.4
L179.351 187.488
L179.425 190.944
L179.435 194.4
L179.497 190.944
L179.497 190.944
L179.531 187.488
L179.531 190.944
L179.531 190.944
L179.596 194.4
L179.603 190.944
L179.603 190.944
L179.623 173.664
L179.688 190.944
L179.688 190.944
L179.692 194.4
L179.712 190.944
L179.712 190.944
L179.725 187.488
L179.728 190.944
L179.728 190.944
L179.827 194.4
L179.987 166.752
L180.078 173.664
L180.088 177.12
L180.088 173.664
L180.088 173.664
L180.213 149.472
L180.221 152.928
L180.268 166.752
L180.329 152.928
L180.338 156.384
L180.343 152.928
L180.343 152.928
L180.368 149.472
L180.37 152.928
L180.37 152.928
L180.382 156.384
L180.39 152.928
L180.39 152.928
L180.399 149.472
L180.436 152.928
L180.436 152.928
L180.489 156.384
L180.492 152.928
L180.492 152.928
L180.495 149.472
L180.505 152.928
L180.505 152.928
L180.644 163.296
L180.921 139.104
L180.939 146.016
L181.189 180.576
L181.192 177.12
L181.215 173.664
L181.217 177.12
L181.217 177.12
L181.303 184.032
L181.326 180.576
L181.334 177.12
L181.351 180.576
L181.351 180.576
L181.398 190.944
L181.442 180.576
L181.442 180.576
L181.448 177.12
L181.463 180.576
L181.463 180.576
L181.494 184.032
L181.497 180.576
L181.497 180.576
L181.559 173.664
L181.563 180.576
L181.563 180.576
L181.669 194.4
L181.676 190.944
L181.705 180.576
L181.787 187.488
L181.801 190.944
L181.808 187.488
L181.808 187.488
L181.891 177.12
L181.924 180.576
L181.952 194.4
L182.03 190.944
L182.079 180.576
L182.149 187.488
L182.172 194.4
L182.223 187.488
L182.223 187.488
L182.445 146.016
L182.489 156.384
L182.653 190.944
L182.729 177.12
L182.74 170.208
L182.746 177.12
L182.746 177.12
L182.782 184.032
L182.853 177.12
L182.858 166.752
L182.918 177.12
L182.918 177.12
L182.943 184.032
L182.964 177.12
L182.964 177.12
L182.966 173.664
L182.971 177.12
L182.971 177.12
L183.141 194.4
L183.213 184.032
L183.243 187.488
L183.28 194.4
L183.343 190.944
L183.4 177.12
L183.498 184.032
L183.504 190.944
L183.509 184.032
L183.509 184.032
L183.511 180.576
L183.519 184.032
L183.519 184.032
L183.521 187.488
L183.522 184.032
L183.522 184.032
L183.554 173.664
L183.619 184.032
L183.619 184.032
L183.644 194.4
L183.649 190.944
L183.77 184.032
L183.776 177.12
L183.872 180.576
L183.927 194.4
L183.955 180.576
L183.955 180.576
L184.041 163.296
L184.079 166.752
L184.081 163.296
L184.081 163.296
L184.208 152.928
L184.224 156.384
L184.234 152.928
L184.234 152.928
L184.284 146.016
L184.301 152.928
L184.301 152.928
L184.313 156.384
L184.333 152.928
L184.333 152.928
L184.371 149.472
L184.372 152.928
L184.372 152.928
L184.408 159.84
L184.431 152.928
L184.431 152.928
L184.588 118.368
L184.616 125.28
L184.744 135.648
L184.757 132.192
L184.777 128.736
L184.786 132.192
L184.786 132.192
L184.912 159.84
L184.956 166.752
L184.98 159.84
L184.98 159.84
L185.008 142.56
L185.098 156.384
L185.239 187.488
L185.299 194.4
L185.32 190.944
L185.396 184.032
L185.428 190.944
L185.433 194.4
L185.435 190.944
L185.435 190.944
L185.492 187.488
L185.498 190.944
L185.498 190.944
L185.546 194.4
L185.549 190.944
L185.549 190.944
L185.606 173.664
L185.662 187.488
L185.777 194.4
L185.829 180.576
L185.891 190.944
L185.894 194.4
L185.903 190.944
L185.903 190.944
L185.907 187.488
L185.922 190.944
L185.922 190.944
L185.935 194.4
L185.938 190.944
L185.938 190.944
L185.945 187.488
L185.967 190.944
L185.967 190.944
L186.018 194.4
L186.034 190.944
L186.034 190.944
L186.036 184.032
L186.039 190.944
L186.039 190.944
L186.049 194.4
L186.053 190.944
L186.053 190.944
L186.165 180.576
L186.254 159.84
L186.265 170.208
L186.3 184.032
L186.366 173.664
L186.424 159.84
L186.458 173.664
L186.569 187.488
L186.625 184.032
L186.628 187.488
L186.628 187.488
L186.653 194.4
L186.665 187.488
L186.665 187.488
L186.714 184.032
L186.72 187.488
L186.72 187.488
L186.748 190.944
L186.749 187.488
L186.749 187.488
L186.765 184.032
L186.77 187.488
L186.77 187.488
L186.775 190.944
L186.779 187.488
L186.779 187.488
L186.864 170.208
L186.892 184.032
L187.004 194.4
L187.134 173.664
L187.187 180.576
L187.313 187.488
L187.316 184.032
L187.452 177.12
L187.565 194.4
L187.607 187.488
L187.652 184.032
L187.652 187.488
L187.652 187.488
L187.695 194.4
L187.696 187.488
L187.696 187.488
L187.731 177.12
L187.803 187.488
L187.816 190.944
L187.824 187.488
L187.824 187.488
L187.826 184.032
L187.827 187.488
L187.827 187.488
L187.901 194.4
L187.932 187.488
L187.932 187.488
L187.949 184.032
L187.951 187.488
L187.951 187.488
L188.055 194.4
L188.059 190.944
L188.078 187.488
L188.092 190.944
L188.092 190.944
L188.101 194.4
L188.129 190.944
L188.129 190.944
L188.144 184.032
L188.195 190.944
L188.195 190.944
L188.203 194.4
L188.204 190.944
L188.204 190.944
L188.332 173.664
L188.354 184.032
L188.42 194.4
L188.461 184.032
L188.491 190.944
L188.521 184.032
L188.521 184.032
L188.612 173.664
L188.632 180.576
L188.66 177.12
L188.663 180.576
L188.663 180.576
L188.664 184.032
L188.666 180.576
L188.666 180.576
L188.79 170.208
L188.799 177.12
L188.995 194.4
L189.167 177.12
L189.228 184.032
L189.287 194.4
L189.338 190.944
L189.468 177.12
L189.484 180.576
L189.496 184.032
L189.517 180.576
L189.517 180.576
L189.552 177.12
L189.554 180.576
L189.554 180.576
L189.559 187.488
L189.606 180.576
L189.606 180.576
L189.707 166.752
L189.707 170.208
L189.765 180.576
L189.804 173.664
L189.986 149.472
L190.028 156.384
L190.084 163.296
L190.147 159.84
L190.241 152.928
L190.252 156.384
L190.273 170.208
L190.33 156.384
L190.33 156.384
L190.346 152.928
L190.366 156.384
L190.366 156.384
L190.417 159.84
L190.421 156.384
L190.421 156.384
L190.523 146.016
L190.529 149.472
L190.7 177.12
L190.708 173.664
L190.814 170.208
L191.027 194.4
L191.119 180.576
L191.128 187.488
L191.234 194.4
L191.235 190.944
L191.336 173.664
L191.345 180.576
L191.388 190.944
L191.431 180.576
L191.662 159.84
L191.672 166.752
L191.713 170.208
L191.716 166.752
L191.716 166.752
L191.818 156.384
L191.85 149.472
L191.865 156.384
L191.865 156.384
L191.882 163.296
L191.903 156.384
L191.903 156.384
L191.939 152.928
L191.969 156.384
L191.969 156.384
L191.971 159.84
L191.972 156.384
L191.972 156.384
L191.987 149.472
L192.011 156.384
L192.011 156.384
L192.017 159.84
L192.03 156.384
L192.03 156.384
L192.052 152.928
L192.061 156.384
L192.061 156.384
L192.173 173.664
L192.203 170.208
L192.205 173.664
L192.205 173.664
L192.245 187.488
L192.263 173.664
L192.263 173.664
L192.386 159.84
L192.507 173.664
L192.54 177.12
L192.543 173.664
L192.543 173.664
L192.55 170.208
L192.56 173.664
L192.56 173.664
L192.731 187.488
L192.789 173.664
L192.845 177.12
L192.855 184.032
L192.88 177.12
L192.88 177.12
L192.913 170.208
L192.927 177.12
L192.927 177.12
L193.041 184.032
L193.131 194.4
L193.163 187.488
L193.286 159.84
L193.383 170.208
L193.386 166.752
L193.529 149.472
L193.573 152.928
L193.591 156.384
L193.64 152.928
L193.64 152.928
L193.703 142.56
L193.731 149.472
L193.783 152.928
L193.79 149.472
L193.931 114.912
L193.98 108
L194.018 114.912
L194.024 121.824
L194.04 114.912
L194.04 114.912
L194.137 101.088
L194.158 111.456
L194.314 125.28
L194.336 121.824
L194.345 125.28
L194.345 125.28
L194.397 132.192
L194.397 132.192" style="fill:none;stroke:#0000ff;stroke-linecap:square;"/>
   </g>
   <g id="matplotlib.axis_1">
    <g id="text_1">
     <!-- $t$ -->
     <defs>
      <path d="
M1.79688 38.5938
L10.2031 38.5938
L10.2031 11.7031
C10.2031 0.703125 15.0938 -1.09375 18.4062 -1.09375
C22.9062 -1.09375 28 -0.09375 33.2031 2.70312
L31.5938 8.59375
C30.2031 7.59375 27.0938 5.29688 22.7969 5.29688
C17.5938 5.29688 17.4062 11.2031 17.4062 14
L17.4062 38.5938
L31.5 38.5938
L31.5 44.5
L17.4062 44.5
L17.4062 57.0938
L10.4062 57.0938
L10.4062 44.5
L1.79688 44.5
z
" id="CMUSansSerif-74"/>
     </defs>
     <g transform="translate(108.036 209.79725)scale(0.144 -0.144)">
      <use transform="translate(0.0 0.90625)" xlink:href="#CMUSansSerif-74"/>
     </g>
    </g>
   </g>
   <g id="matplotlib.axis_2">
    <g id="text_2">
     <!-- $n(t)$ -->
     <defs>
      <path d="
M8 0
L15.7969 0
L15.7969 24
C15.7969 31.4062 18.2969 39.4062 26 39.4062
C35.7969 39.4062 35.7969 31.9062 35.7969 28.0938
L35.7969 0
L43.5938 0
L43.5938 28.7969
C43.5938 35.7969 42.7031 45.5 29.9062 45.5
C21.0938 45.5 16.7031 39.7969 15.2969 38
L15.2969 45
L8 45
z
" id="CMUSansSerif-6e"/>
      <path d="
M5.5 -25
L11.5938 -25
C18.4062 -18.9062 30.7969 -5.09375 30.7969 25.0938
C30.7969 55 18.4062 68.9062 11.5938 75
L5.5 75
C10.2031 70 23 57.7031 23 25
C23 -6.40625 11.5 -18.5938 5.5 -25" id="CMUSansSerif-29"/>
      <path d="
M8 25
C8 -5.40625 20.7031 -19.2031 27.0938 -25
L33.2969 -25
L30.0938 -21.5938
C18.4062 -8.09375 15.7969 10.2969 15.7969 25
C15.7969 38.7031 18.0938 52.9062 25.2031 64.7969
C28.0938 69.7031 30.4062 71.9062 33.2969 75
L27.0938 75
C20.2969 68.9062 8 55.0938 8 25" id="CMUSansSerif-28"/>
     </defs>
     <g transform="translate(18.4 119.952)rotate(-90.0)scale(0.144 -0.144)">
      <use xlink:href="#CMUSansSerif-6e"/>
      <use transform="translate(51.69999694824219 0.0)" xlink:href="#CMUSansSerif-28"/>
      <use transform="translate(90.59999084472656 0.0)" xlink:href="#CMUSansSerif-74"/>
      <use transform="translate(126.69998168945312 0.0)" xlink:href="#CMUSansSerif-29"/>
     </g>
    </g>
   </g>
   <g id="patch_3">
    <path d="
M194.4 194.4
L194.4 21.6" style="fill:none;stroke:#000000;"/>
   </g>
   <g id="patch_4">
    <path d="
M27 21.6
L194.4 21.6" style="fill:none;stroke:#000000;"/>
   </g>
   <g id="patch_5">
    <path d="
M27 194.4
L27 21.6" style="fill:none;stroke:#000000;"/>
   </g>
   <g id="patch_6">
    <path d="
M27 194.4
L194.4 194.4" style="fill:none;stroke:#000000;"/>
   </g>
  </g>
 </g>
 <defs>
  <clipPath id="p4c72f1c596">
   <rect height="172.8" width="167.4" x="27.0" y="21.6"/>
  </clipPath>
 </defs>
</svg>
