<?xml version="1.0" encoding="utf-8" standalone="no"?>
<!DOCTYPE svg PUBLIC "-//W3C//DTD SVG 1.1//EN"
  "http://www.w3.org/Graphics/SVG/1.1/DTD/svg11.dtd">
<!-- Created with matplotlib (http://matplotlib.org/) -->
<svg height="216pt" version="1.1" viewBox="0 0 216 216" width="216pt" xmlns="http://www.w3.org/2000/svg" xmlns:xlink="http://www.w3.org/1999/xlink">
 <defs>
  <style type="text/css">
*{stroke-linecap:butt;stroke-linejoin:round;}
  </style>
 </defs>
 <g id="figure_1">
  <g id="patch_1">
   <path d="
M0 216
L216 216
L216 0
L0 0
z
" style="fill:#ffffff;"/>
  </g>
  <g id="axes_1">
   <g id="patch_2">
    <path d="
M27 194.4
L194.4 194.4
L194.4 21.6
L27 21.6
z
" style="fill:#ffffff;"/>
   </g>
   <g id="line2d_1">
    <path clip-path="url(#p4c72f1c596)" d="
M27 194.4
L27.2317 152.16
L27.2613 148.32
L27.2863 152.16
L27.2863 152.16
L27.3005 156
L27.3061 152.16
L27.3061 152.16
L27.5921 90.72
L27.6025 94.56
L27.6088 98.4
L27.6094 94.56
L27.6094 94.56
L27.7663 71.52
L27.7801 79.2
L27.8645 71.52
L27.8824 79.2
L27.9476 86.88
L27.9673 79.2
L27.9673 79.2
L28.0791 60
L28.0934 56.16
L28.0997 60
L28.0997 60
L28.1123 63.84
L28.1294 60
L28.1294 60
L28.1359 56.16
L28.1439 60
L28.1439 60
L28.1948 71.52
L28.2504 63.84
L28.2658 60
L28.2789 63.84
L28.2789 63.84
L28.4074 75.36
L28.4159 71.52
L28.5277 52.32
L28.5325 56.16
L28.5942 71.52
L28.6364 67.68
L28.6755 52.32
L28.7403 63.84
L28.8073 67.68
L28.824 63.84
L28.824 63.84
L28.8279 60
L28.8286 63.84
L28.8286 63.84
L28.9214 75.36
L28.9342 67.68
L29.0943 52.32
L29.101 56.16
L29.105 52.32
L29.105 52.32
L29.1372 48.48
L29.1428 52.32
L29.1428 52.32
L29.2092 71.52
L29.2447 67.68
L29.2925 83.04
L29.3508 67.68
L29.3728 63.84
L29.3734 67.68
L29.3734 67.68
L29.511 90.72
L29.5186 86.88
L29.6802 56.16
L29.6831 60
L29.699 56.16
L29.699 56.16
L29.7021 52.32
L29.7136 56.16
L29.7136 56.16
L29.7938 67.68
L29.8259 60
L29.8392 63.84
L29.8414 60
L29.8414 60
L29.9316 33.12
L29.9432 36.96
L29.9708 33.12
L29.9775 36.96
L29.9775 36.96
L30.024 48.48
L30.0937 44.64
L30.1175 33.12
L30.1381 44.64
L30.1381 44.64
L30.2593 67.68
L30.4336 121.44
L30.5794 98.4
L30.5851 90.72
L30.6 98.4
L30.6 98.4
L30.7208 113.76
L30.7217 109.92
L30.882 129.12
L30.9058 125.28
L30.9074 129.12
L30.9074 129.12
L30.9238 132.96
L30.9255 129.12
L30.9255 129.12
L30.9519 125.28
L30.9523 129.12
L30.9523 129.12
L31.0016 136.8
L31.0661 132.96
L31.1381 113.76
L31.1786 125.28
L31.2166 121.44
L31.2407 125.28
L31.2407 125.28
L31.2532 132.96
L31.2652 125.28
L31.2652 125.28
L31.2854 117.6
L31.3095 125.28
L31.3095 125.28
L31.332 129.12
L31.3338 125.28
L31.3338 125.28
L31.3491 121.44
L31.3537 125.28
L31.3537 125.28
L31.421 136.8
L31.4498 129.12
L31.4935 125.28
L31.5153 129.12
L31.5434 132.96
L31.5695 129.12
L31.5695 129.12
L31.6159 121.44
L31.6282 129.12
L31.6282 129.12
L31.6387 132.96
L31.6418 129.12
L31.6418 129.12
L31.7805 102.24
L31.8636 86.88
L31.9037 94.56
L32.161 136.8
L32.2037 121.44
L32.3988 71.52
L32.4797 86.88
L32.5577 94.56
L32.5846 86.88
L32.5943 79.2
L32.61 86.88
L32.61 86.88
L32.766 106.08
L32.9578 79.2
L33.1849 102.24
L33.2985 83.04
L33.3133 86.88
L33.3361 90.72
L33.3392 86.88
L33.3392 86.88
L33.4392 79.2
L33.4405 83.04
L33.4711 86.88
L33.51 83.04
L33.5832 71.52
L33.5873 79.2
L33.6269 83.04
L33.6302 79.2
L33.6302 79.2
L33.6304 75.36
L33.6365 79.2
L33.6365 79.2
L33.6495 83.04
L33.6546 79.2
L33.6546 79.2
L33.7566 63.84
L33.7763 67.68
L33.7803 71.52
L33.7803 67.68
L33.7803 67.68
L33.8871 56.16
L33.9097 63.84
L33.9262 56.16
L33.9262 56.16
L33.9321 52.32
L33.9617 56.16
L33.9617 56.16
L34.0004 79.2
L34.0811 60
L34.2207 40.8
L34.2286 44.64
L34.3612 52.32
L34.3617 48.48
L34.3973 44.64
L34.399 48.48
L34.399 48.48
L34.4584 63.84
L34.4757 71.52
L34.512 63.84
L34.512 63.84
L34.5312 56.16
L34.5614 63.84
L34.5614 63.84
L34.7065 90.72
L34.8171 106.08
L34.8752 121.44
L34.9261 109.92
L34.9616 98.4
L35.0101 106.08
L35.0373 109.92
L35.0467 106.08
L35.0467 106.08
L35.0902 98.4
L35.109 106.08
L35.109 106.08
L35.1447 109.92
L35.1601 106.08
L35.1601 106.08
L35.2403 90.72
L35.2592 94.56
L35.3007 98.4
L35.3044 94.56
L35.3044 94.56
L35.3046 90.72
L35.31 94.56
L35.31 94.56
L35.3191 98.4
L35.328 94.56
L35.328 94.56
L35.3713 75.36
L35.401 83.04
L35.5963 102.24
L35.6125 94.56
L35.6335 86.88
L35.6428 94.56
L35.6428 94.56
L35.7741 106.08
L35.7826 102.24
L35.8861 67.68
L35.9498 79.2
L36.0717 102.24
L36.0824 90.72
L36.1311 79.2
L36.1324 90.72
L36.1324 90.72
L36.1492 106.08
L36.2438 94.56
L36.3025 75.36
L36.3116 94.56
L36.3116 94.56
L36.3241 98.4
L36.3426 94.56
L36.3426 94.56
L36.3555 90.72
L36.3623 94.56
L36.3623 94.56
L36.4245 113.76
L36.4929 109.92
L36.506 106.08
L36.5072 109.92
L36.5072 109.92
L36.7646 148.32
L36.8299 125.28
L36.8774 144.48
L36.8792 148.32
L36.8941 144.48
L36.8941 144.48
L36.9263 140.64
L36.9308 144.48
L36.9308 144.48
L36.9552 152.16
L36.9789 144.48
L36.9789 144.48
L37.0025 132.96
L37.0483 144.48
L37.0483 144.48
L37.1826 156
L37.2703 152.16
L37.2896 156
L37.3498 163.68
L37.3968 156
L37.5323 117.6
L37.5417 121.44
L37.8146 75.36
L37.818 79.2
L37.8237 83.04
L37.8603 79.2
L37.8603 79.2
L37.995 63.84
L37.9986 67.68
L38.0002 71.52
L38.0014 67.68
L38.0014 67.68
L38.0426 56.16
L38.0957 67.68
L38.1109 71.52
L38.1219 67.68
L38.1219 67.68
L38.1473 60
L38.1513 67.68
L38.1513 67.68
L38.1541 71.52
L38.1708 67.68
L38.1708 67.68
L38.1923 60
L38.2511 67.68
L38.2511 67.68
L38.2623 75.36
L38.2778 67.68
L38.2778 67.68
L38.2917 60
L38.2997 67.68
L38.2997 67.68
L38.338 79.2
L38.3525 67.68
L38.3525 67.68
L38.354 60
L38.3708 67.68
L38.3708 67.68
L38.4763 86.88
L38.5045 75.36
L38.6636 52.32
L38.8277 94.56
L38.8495 83.04
L38.8744 75.36
L38.8926 83.04
L38.8926 83.04
L38.9915 94.56
L39.04 90.72
L39.0525 86.88
L39.06 90.72
L39.06 90.72
L39.0649 94.56
L39.0949 90.72
L39.0949 90.72
L39.1313 83.04
L39.1568 90.72
L39.1568 90.72
L39.1641 94.56
L39.1709 90.72
L39.1709 90.72
L39.2919 79.2
L39.2963 83.04
L39.3239 90.72
L39.3291 83.04
L39.3291 83.04
L39.4109 71.52
L39.423 75.36
L39.6082 86.88
L39.6206 83.04
L39.6478 75.36
L39.7162 83.04
L39.776 75.36
L39.793 83.04
L39.8304 86.88
L39.8317 83.04
L39.8317 83.04
L39.853 75.36
L39.8862 83.04
L39.8862 83.04
L40.1718 117.6
L40.2274 98.4
L40.2616 109.92
L40.3132 113.76
L40.3181 109.92
L40.3181 109.92
L40.3255 98.4
L40.3963 106.08
L40.4833 113.76
L40.5123 109.92
L40.5377 102.24
L40.5622 109.92
L40.5622 109.92
L40.5691 117.6
L40.6149 109.92
L40.6149 109.92
L40.6252 106.08
L40.6307 109.92
L40.6307 109.92
L40.671 117.6
L40.6931 109.92
L40.6931 109.92
L40.717 98.4
L40.7434 109.92
L40.7434 109.92
L40.7719 121.44
L40.8604 117.6
L40.8981 113.76
L40.9194 117.6
L40.9194 117.6
L40.9208 121.44
L40.9319 117.6
L40.9319 117.6
L40.9452 113.76
L40.9475 117.6
L40.9475 117.6
L40.9544 121.44
L40.9597 117.6
L40.9597 117.6
L41.0618 109.92
L41.0733 113.76
L41.163 75.36
L41.2134 90.72
L41.2523 106.08
L41.2826 90.72
L41.2826 90.72
L41.3072 79.2
L41.3346 90.72
L41.3346 90.72
L41.5326 117.6
L41.6337 98.4
L41.6786 106.08
L41.6818 109.92
L41.6931 106.08
L41.6931 106.08
L41.7712 90.72
L41.8075 94.56
L41.8556 90.72
L41.8582 94.56
L41.8582 94.56
L41.9633 117.6
L41.9761 109.92
L41.9864 106.08
L42.0281 109.92
L42.0281 109.92
L42.0281 113.76
L42.0309 109.92
L42.0309 109.92
L42.0428 102.24
L42.0738 109.92
L42.0738 109.92
L42.1094 113.76
L42.1113 109.92
L42.1113 109.92
L42.1743 102.24
L42.2276 106.08
L42.2329 113.76
L42.2572 106.08
L42.2572 106.08
L42.278 102.24
L42.2912 106.08
L42.2912 106.08
L42.2973 109.92
L42.3119 106.08
L42.3119 106.08
L42.3946 90.72
L42.4139 102.24
L42.5392 113.76
L42.5426 109.92
L42.7336 67.68
L42.7942 56.16
L42.8185 67.68
L42.8185 67.68
L42.8853 90.72
L42.9373 83.04
L42.9805 67.68
L43.0156 83.04
L43.0156 83.04
L43.0165 86.88
L43.0258 83.04
L43.0258 83.04
L43.0336 79.2
L43.0376 83.04
L43.0376 83.04
L43.067 98.4
L43.1471 86.88
L43.1571 83.04
L43.1595 86.88
L43.1595 86.88
L43.2423 117.6
L43.3086 102.24
L43.3765 86.88
L43.4025 102.24
L43.4025 102.24
L43.4276 113.76
L43.4721 102.24
L43.4721 102.24
L43.543 90.72
L43.5836 98.4
L43.6439 117.6
L43.683 106.08
L43.8301 90.72
L43.8533 98.4
L44.1073 113.76
L44.1086 109.92
L44.1127 106.08
L44.1341 109.92
L44.1341 109.92
L44.1537 113.76
L44.1603 109.92
L44.1603 109.92
L44.2974 90.72
L44.4076 106.08
L44.4487 98.4
L44.4609 90.72
L44.4871 98.4
L44.4871 98.4
L44.6023 109.92
L44.8141 83.04
L44.937 67.68
L45.0207 79.2
L45.0369 71.52
L45.0534 67.68
L45.0603 71.52
L45.0603 71.52
L45.0641 75.36
L45.0726 71.52
L45.0726 71.52
L45.0786 67.68
L45.1028 71.52
L45.1028 71.52
L45.2568 90.72
L45.2839 83.04
L45.3437 79.2
L45.3577 83.04
L45.3577 83.04
L45.5091 106.08
L45.5238 102.24
L45.5256 98.4
L45.5471 102.24
L45.5471 102.24
L45.5704 106.08
L45.5706 102.24
L45.5706 102.24
L45.684 90.72
L45.8476 63.84
L45.892 71.52
L45.9234 79.2
L45.9481 71.52
L45.9481 71.52
L45.9586 63.84
L45.9769 71.52
L45.9769 71.52
L46.0291 75.36
L46.0318 71.52
L46.0318 71.52
L46.0488 63.84
L46.1086 71.52
L46.1086 71.52
L46.1728 90.72
L46.2271 75.36
L46.2332 71.52
L46.245 75.36
L46.245 75.36
L46.3442 83.04
L46.3505 79.2
L46.7143 109.92
L46.7274 106.08
L46.745 102.24
L46.7625 106.08
L46.7625 106.08
L46.9034 125.28
L46.9171 121.44
L47.0388 102.24
L47.1892 83.04
L47.1941 86.88
L47.2976 98.4
L47.302 94.56
L47.3136 90.72
L47.3406 94.56
L47.3406 94.56
L47.4575 121.44
L47.4584 117.6
L47.5725 106.08
L47.5815 113.76
L47.5924 117.6
L47.6594 113.76
L47.6594 113.76
L47.882 83.04
L47.9713 98.4
L48.027 90.72
L48.0609 94.56
L48.0832 90.72
L48.0832 90.72
L48.0919 79.2
L48.1459 90.72
L48.1459 90.72
L48.2244 102.24
L48.2551 90.72
L48.3464 109.92
L48.4102 106.08
L48.5394 98.4
L48.6188 113.76
L48.6664 106.08
L48.6854 102.24
L48.6883 106.08
L48.6883 106.08
L48.711 117.6
L48.7671 109.92
L48.8014 106.08
L48.8029 109.92
L48.8029 109.92
L48.8075 113.76
L48.8181 109.92
L48.8181 109.92
L48.913 90.72
L48.9783 75.36
L49.0184 90.72
L49.163 113.76
L49.1815 106.08
L49.2907 83.04
L49.3245 98.4
L49.4576 125.28
L49.4741 121.44
L49.4977 117.6
L49.4983 121.44
L49.4983 121.44
L49.5868 129.12
L49.6094 125.28
L49.6257 121.44
L49.6299 125.28
L49.6299 125.28
L49.6423 129.12
L49.6509 125.28
L49.6509 125.28
L49.7562 75.36
L49.7708 79.2
L49.9116 102.24
L49.9367 98.4
L50.0051 83.04
L50.0516 94.56
L50.0703 106.08
L50.1452 94.56
L50.2763 106.08
L50.2895 102.24
L50.3717 83.04
L50.4056 94.56
L50.5555 109.92
L50.5574 106.08
L50.6477 90.72
L50.6592 94.56
L50.7867 106.08
L50.7963 102.24
L50.9577 109.92
L50.9657 106.08
L51.0749 83.04
L51.1034 90.72
L51.1634 109.92
L51.2099 94.56
L51.2762 86.88
L51.2785 90.72
L51.3462 94.56
L51.3539 90.72
L51.3913 86.88
L51.3947 90.72
L51.3947 90.72
L51.3986 94.56
L51.3993 90.72
L51.3993 90.72
L51.44 83.04
L51.457 90.72
L51.457 90.72
L51.4576 94.56
L51.479 90.72
L51.479 90.72
L51.535 79.2
L51.543 86.88
L51.5946 90.72
L51.5973 86.88
L51.6479 83.04
L51.661 86.88
L51.661 86.88
L51.6622 94.56
L51.7026 86.88
L51.7026 86.88
L51.784 75.36
L51.819 83.04
L51.8371 86.88
L51.8384 83.04
L51.8384 83.04
L51.842 79.2
L51.8582 83.04
L51.8582 83.04
L51.9404 102.24
L51.9722 86.88
L51.9783 83.04
L51.9962 86.88
L51.9962 86.88
L52.1252 106.08
L52.13 102.24
L52.1352 98.4
L52.1373 102.24
L52.1373 102.24
L52.2059 113.76
L52.2453 106.08
L52.279 102.24
L52.2864 106.08
L52.2864 106.08
L52.3251 109.92
L52.3946 106.08
L52.3948 102.24
L52.3962 106.08
L52.3962 106.08
L52.402 109.92
L52.4103 106.08
L52.4103 106.08
L52.5228 86.88
L52.5387 90.72
L52.5677 102.24
L52.6324 90.72
L52.6324 90.72
L52.7926 71.52
L52.7976 75.36
L52.8265 86.88
L52.8806 75.36
L52.9323 71.52
L52.9453 75.36
L52.9705 79.2
L52.9825 75.36
L52.9825 75.36
L53.0421 56.16
L53.141 63.84
L53.1419 67.68
L53.1618 63.84
L53.1618 63.84
L53.2656 48.48
L53.2796 56.16
L53.379 33.12
L53.4305 44.64
L53.4687 67.68
L53.5454 63.84
L53.6922 98.4
L53.7671 94.56
L53.8003 90.72
L53.8179 94.56
L53.8179 94.56
L53.8577 102.24
L53.9174 94.56
L53.9202 90.72
L53.9205 94.56
L53.9205 94.56
L53.954 98.4
L53.979 94.56
L53.979 94.56
L54.0005 90.72
L54.0132 94.56
L54.0132 94.56
L54.0327 98.4
L54.0354 94.56
L54.0354 94.56
L54.1212 86.88
L54.1459 94.56
L54.2762 67.68
L54.2931 71.52
L54.3191 67.68
L54.322 71.52
L54.322 71.52
L54.5338 90.72
L54.5555 83.04
L54.5628 90.72
L54.5628 90.72
L54.6896 121.44
L54.6976 113.76
L54.7577 109.92
L54.7672 113.76
L54.8129 129.12
L54.8728 113.76
L54.876 109.92
L54.8902 113.76
L54.8902 113.76
L54.8927 121.44
L54.9309 113.76
L54.9309 113.76
L54.9897 102.24
L55.0117 113.76
L55.1481 132.96
L55.1663 125.28
L55.2777 102.24
L55.3518 94.56
L55.3784 98.4
L55.4757 106.08
L55.4809 98.4
L55.487 90.72
L55.4951 98.4
L55.4951 98.4
L55.5414 113.76
L55.6157 109.92
L55.7149 102.24
L55.7335 106.08
L55.7371 109.92
L55.7799 106.08
L55.7799 106.08
L55.8663 94.56
L55.8819 98.4
L55.9067 102.24
L55.9106 98.4
L55.9106 98.4
L56.0338 83.04
L56.1764 67.68
L56.1852 75.36
L56.2913 90.72
L56.3114 86.88
L56.3373 90.72
L56.3381 86.88
L56.3381 86.88
L56.4065 75.36
L56.4264 86.88
L56.4264 86.88
L56.5166 98.4
L56.5494 94.56
L56.73 67.68
L56.7816 83.04
L56.8434 71.52
L56.9758 52.32
L56.9968 60
L57.0168 56.16
L57.0501 60
L57.0501 60
L57.0651 63.84
L57.0678 60
L57.0678 60
L57.1669 29.28
L57.2117 36.96
L57.3514 63.84
L57.4255 44.64
L57.4655 60
L57.536 79.2
L57.5783 75.36
L57.7166 60
L57.7188 63.84
L57.7636 60
L57.7684 63.84
L57.7684 63.84
L57.808 75.36
L57.8352 63.84
L57.8352 63.84
L57.9085 48.48
L57.9398 63.84
L57.9583 60
L57.9705 63.84
L57.9705 63.84
L58.2294 125.28
L58.2861 109.92
L58.2991 125.28
L58.3774 117.6
L58.3893 121.44
L58.507 132.96
L58.5412 129.12
L58.5497 125.28
L58.5616 129.12
L58.5616 129.12
L58.6002 136.8
L58.6574 129.12
L58.8261 144.48
L58.8267 140.64
L58.9443 117.6
L58.9567 129.12
L59.0539 121.44
L59.0546 125.28
L59.1462 156
L59.2282 140.64
L59.3346 113.76
L59.5126 136.8
L59.5259 129.12
L59.5738 113.76
L59.6373 121.44
L59.665 117.6
L59.6796 121.44
L59.6796 121.44
L59.7976 156
L59.8376 140.64
L60.017 106.08
L60.0425 113.76
L60.053 117.6
L60.0617 113.76
L60.0617 113.76
L60.0783 106.08
L60.0872 113.76
L60.0872 113.76
L60.2162 129.12
L60.263 121.44
L60.2715 129.12
L60.2715 129.12
L60.3377 136.8
L60.3771 129.12
L60.427 109.92
L60.4797 117.6
L60.6142 106.08
L60.6314 113.76
L60.6658 117.6
L60.6793 113.76
L60.6793 113.76
L60.7103 109.92
L60.7133 113.76
L60.7133 113.76
L60.7317 117.6
L60.747 113.76
L60.747 113.76
L60.7602 109.92
L60.7718 113.76
L60.7718 113.76
L60.8928 129.12
L60.9532 121.44
L60.9816 125.28
L61.0146 132.96
L61.0463 125.28
L61.0463 125.28
L61.1664 90.72
L61.2702 71.52
L61.3031 83.04
L61.4097 90.72
L61.4137 86.88
L61.4302 90.72
L61.4302 86.88
L61.4302 86.88
L61.5062 71.52
L61.5401 75.36
L61.5593 79.2
L61.5633 75.36
L61.5633 75.36
L61.6963 67.68
L61.7047 71.52
L61.7301 67.68
L61.7301 67.68
L61.7682 60
L61.783 67.68
L61.783 67.68
L61.8257 71.52
L61.8307 67.68
L61.8307 67.68
L61.8497 60
L61.881 67.68
L61.881 67.68
L62.0531 86.88
L62.0755 83.04
L62.1251 86.88
L62.1251 86.88
L62.1436 94.56
L62.2142 86.88
L62.2142 86.88
L62.223 83.04
L62.2486 86.88
L62.2486 86.88
L62.2606 90.72
L62.264 86.88
L62.264 86.88
L62.265 83.04
L62.2788 86.88
L62.2788 86.88
L62.3064 90.72
L62.3066 86.88
L62.3066 86.88
L62.3668 71.52
L62.437 75.36
L62.4995 86.88
L62.5412 79.2
L62.5815 75.36
L62.5861 79.2
L62.5861 79.2
L62.6035 86.88
L62.62 79.2
L62.62 79.2
L62.6651 67.68
L62.6832 79.2
L62.6832 79.2
L62.8335 102.24
L62.9265 79.2
L63.0177 90.72
L63.0892 109.92
L63.1137 90.72
L63.1474 94.56
L63.1568 90.72
L63.1568 90.72
L63.2198 75.36
L63.2662 86.88
L63.2699 90.72
L63.2708 86.88
L63.2708 86.88
L63.3395 79.2
L63.3755 86.88
L63.5124 117.6
L63.5502 109.92
L63.5699 117.6
L63.5699 117.6
L63.5767 121.44
L63.5774 117.6
L63.5774 117.6
L63.6119 109.92
L63.671 117.6
L63.7943 94.56
L63.8375 86.88
L63.868 94.56
L63.8968 98.4
L63.9086 94.56
L63.9086 94.56
L64.0173 79.2
L64.0233 83.04
L64.1025 102.24
L64.1957 90.72
L64.2418 94.56
L64.2451 90.72
L64.2451 90.72
L64.2471 86.88
L64.2945 90.72
L64.2945 90.72
L64.3657 117.6
L64.4367 109.92
L64.4538 102.24
L64.5154 109.92
L64.6349 129.12
L64.6824 117.6
L64.6837 113.76
L64.6921 117.6
L64.6921 117.6
L64.6926 121.44
L64.7108 117.6
L64.7108 117.6
L64.8129 94.56
L64.8308 83.04
L64.8866 94.56
L64.8866 94.56
L64.9173 102.24
L64.9414 94.56
L64.9414 94.56
L64.9549 86.88
L64.9732 94.56
L64.9732 94.56
L64.9771 98.4
L64.9873 94.56
L64.9873 94.56
L65.0071 86.88
L65.0508 94.56
L65.0508 94.56
L65.1288 102.24
L65.1598 98.4
L65.1815 106.08
L65.2172 98.4
L65.2172 98.4
L65.2261 94.56
L65.2419 98.4
L65.2419 98.4
L65.269 106.08
L65.2982 98.4
L65.2982 98.4
L65.3001 94.56
L65.3389 98.4
L65.3389 98.4
L65.4377 113.76
L65.4521 102.24
L65.4658 98.4
L65.4759 102.24
L65.4759 102.24
L65.4936 113.76
L65.5601 102.24
L65.5601 102.24
L65.5704 98.4
L65.5733 102.24
L65.5733 102.24
L65.5832 106.08
L65.6138 102.24
L65.6138 102.24
L65.6141 98.4
L65.6196 102.24
L65.6196 102.24
L65.6241 106.08
L65.6291 102.24
L65.6291 102.24
L65.6352 98.4
L65.6456 102.24
L65.6456 102.24
L65.6645 113.76
L65.7581 106.08
L65.7605 102.24
L65.7722 106.08
L65.7722 106.08
L65.8388 113.76
L65.859 106.08
L65.859 106.08
L65.941 98.4
L65.9732 102.24
L66.0229 106.08
L66.0418 102.24
L66.0418 102.24
L66.1002 79.2
L66.1752 86.88
L66.3149 121.44
L66.3761 113.76
L66.5445 94.56
L66.7765 125.28
L66.7863 117.6
L66.8304 125.28
L66.8304 125.28
L66.8675 132.96
L66.8746 125.28
L66.8746 125.28
L66.9435 121.44
L66.9529 125.28
L66.9932 136.8
L67.0089 125.28
L67.0089 125.28
L67.019 121.44
L67.0197 125.28
L67.0197 125.28
L67.0309 129.12
L67.0332 125.28
L67.0332 125.28
L67.0356 117.6
L67.0432 125.28
L67.0432 125.28
L67.0528 132.96
L67.0661 125.28
L67.0661 125.28
L67.1935 106.08
L67.1973 113.76
L67.2082 121.44
L67.2345 113.76
L67.2345 113.76
L67.2775 106.08
L67.31 113.76
L67.31 113.76
L67.3192 117.6
L67.3195 113.76
L67.3195 113.76
L67.3482 98.4
L67.4063 113.76
L67.5995 125.28
L67.7791 109.92
L67.8014 113.76
L67.8098 117.6
L67.81 113.76
L67.81 113.76
L67.9046 94.56
L67.9279 98.4
L68.0577 109.92
L68.2557 83.04
L68.272 94.56
L68.4091 106.08
L68.4221 102.24
L68.4281 94.56
L68.4509 102.24
L68.4509 102.24
L68.4731 106.08
L68.4754 102.24
L68.4754 102.24
L68.5608 90.72
L68.588 98.4
L68.5885 102.24
L68.6009 98.4
L68.6009 98.4
L68.6043 94.56
L68.6231 98.4
L68.6231 98.4
L68.697 106.08
L68.7031 98.4
L68.7031 98.4
L68.711 94.56
L68.7128 98.4
L68.7128 98.4
L68.9175 129.12
L68.9301 125.28
L69.003 106.08
L69.0119 109.92
L69.1924 90.72
L69.215 98.4
L69.2358 102.24
L69.2415 98.4
L69.2415 98.4
L69.3342 75.36
L69.3429 83.04
L69.4583 75.36
L69.46 79.2
L69.4952 94.56
L69.5371 79.2
L69.5371 79.2
L69.6635 67.68
L69.6795 71.52
L69.8391 102.24
L69.8432 98.4
L69.8627 90.72
L69.8679 98.4
L69.8679 98.4
L69.8688 106.08
L69.9211 98.4
L69.9211 98.4
L69.9422 75.36
L70.0429 86.88
L70.1114 71.52
L70.1624 79.2
L70.1785 75.36
L70.1842 79.2
L70.1842 79.2
L70.5067 117.6
L70.5912 94.56
L70.6232 98.4
L70.6263 102.24
L70.6413 98.4
L70.6413 98.4
L70.7574 86.88
L70.7591 94.56
L70.7682 102.24
L70.7947 94.56
L70.7947 94.56
L70.8395 86.88
L70.8737 94.56
L70.8737 94.56
L70.9585 102.24
L70.9821 98.4
L70.9883 94.56
L70.9912 98.4
L70.9912 98.4
L71.0645 106.08
L71.1331 102.24
L71.1407 106.08
L71.284 132.96
L71.2901 125.28
L71.3865 117.6
L71.4422 125.28
L71.4699 117.6
L71.4713 113.76
L71.5058 117.6
L71.5058 117.6
L71.6094 144.48
L71.6779 132.96
L71.7898 117.6
L71.9119 125.28
L72.2521 83.04
L72.2544 86.88
L72.2727 90.72
L72.2749 86.88
L72.2749 86.88
L72.3843 71.52
L72.3905 75.36
L72.4561 63.84
L72.4982 71.52
L72.5477 79.2
L72.5668 75.36
L72.6347 63.84
L72.6736 75.36
L72.7325 98.4
L72.781 86.88
L72.8549 79.2
L72.8908 86.88
L72.988 98.4
L73.1043 79.2
L73.1512 90.72
L73.2369 83.04
L73.2411 90.72
L73.2918 102.24
L73.3469 98.4
L73.3605 94.56
L73.3611 98.4
L73.3611 98.4
L73.4746 121.44
L73.4868 113.76
L73.6469 102.24
L73.6783 106.08
L73.8561 125.28
L74.1311 63.84
L74.2003 75.36
L74.2168 79.2
L74.2265 75.36
L74.2265 75.36
L74.241 71.52
L74.2537 75.36
L74.2537 75.36
L74.4041 94.56
L74.4745 102.24
L74.4878 94.56
L74.6019 79.2
L74.6135 86.88
L74.7016 109.92
L74.7309 102.24
L74.748 98.4
L74.7538 102.24
L74.7538 102.24
L74.8454 117.6
L74.8652 109.92
L75.024 86.88
L75.0409 94.56
L75.1867 129.12
L75.4375 94.56
L75.4384 98.4
L75.5498 117.6
L75.5544 113.76
L75.7072 75.36
L75.7777 83.04
L75.7876 75.36
L75.7876 75.36
L75.8315 67.68
L75.8468 75.36
L75.8468 75.36
L75.9328 86.88
L75.9651 79.2
L75.9786 83.04
L75.9846 79.2
L75.9846 79.2
L76.0583 60
L76.1097 63.84
L76.2153 60
L76.2248 63.84
L76.226 60
L76.226 60
L76.2764 44.64
L76.3028 40.8
L76.3202 44.64
L76.3202 44.64
L76.4081 56.16
L76.4336 52.32
L76.4413 48.48
L76.4526 52.32
L76.4526 52.32
L76.4637 56.16
L76.4708 52.32
L76.4708 52.32
L76.5227 36.96
L76.5846 44.64
L76.8393 79.2
L76.864 67.68
L76.9427 56.16
L76.9831 60
L76.9998 67.68
L77.0045 60
L77.0045 60
L77.0605 56.16
L77.0645 60
L77.0645 60
L77.0764 63.84
L77.0869 60
L77.0869 60
L77.134 56.16
L77.1417 60
L77.1417 60
L77.2064 71.52
L77.2681 63.84
L77.3658 52.32
L77.3852 60
L77.4066 63.84
L77.4073 60
L77.4073 60
L77.417 56.16
L77.4178 60
L77.4178 60
L77.532 71.52
L77.5455 67.68
L77.5588 71.52
L77.5706 67.68
L77.5706 67.68
L77.5727 63.84
L77.5742 67.68
L77.5742 67.68
L77.687 94.56
L77.7218 86.88
L77.7322 83.04
L77.7339 86.88
L77.7339 86.88
L77.8919 125.28
L77.9059 117.6
L77.906 113.76
L77.9272 117.6
L77.9272 117.6
L78.0223 132.96
L78.1072 129.12
L78.2207 117.6
L78.3097 121.44
L78.314 117.6
L78.3237 113.76
L78.3264 117.6
L78.3264 117.6
L78.3996 121.44
L78.4094 117.6
L78.4443 102.24
L78.467 117.6
L78.467 117.6
L78.497 136.8
L78.5675 121.44
L78.6094 113.76
L78.6203 117.6
L78.8134 132.96
L78.8288 125.28
L78.862 117.6
L78.8684 125.28
L78.8684 125.28
L78.9097 144.48
L78.9863 129.12
L79.0895 102.24
L79.1129 106.08
L79.1644 117.6
L79.2268 113.76
L79.3001 106.08
L79.3193 109.92
L79.3994 113.76
L79.4024 109.92
L79.4024 109.92
L79.4071 106.08
L79.4202 109.92
L79.4202 109.92
L79.4495 121.44
L79.5267 117.6
L79.5617 125.28
L79.5696 117.6
L79.5696 117.6
L79.5971 113.76
L79.6031 117.6
L79.6031 117.6
L79.642 125.28
L79.6606 117.6
L79.6606 117.6
L79.6767 113.76
L79.6957 117.6
L79.6957 117.6
L79.7279 129.12
L79.7429 117.6
L79.7429 117.6
L79.7752 106.08
L79.8075 117.6
L79.8075 117.6
L79.9294 129.12
L79.9782 132.96
L79.9801 129.12
L79.9801 129.12
L80.1997 83.04
L80.2081 86.88
L80.2149 83.04
L80.2149 83.04
L80.2603 60
L80.3248 67.68
L80.3848 63.84
L80.399 67.68
L80.4998 83.04
L80.5241 75.36
L80.5356 63.84
L80.573 75.36
L80.573 75.36
L80.5776 79.2
L80.5818 75.36
L80.5818 75.36
L80.6002 71.52
L80.6039 75.36
L80.6039 75.36
L80.6672 94.56
L80.7002 79.2
L80.7617 71.52
L80.7718 79.2
L80.9789 113.76
L81.0313 106.08
L81.0442 102.24
L81.0807 106.08
L81.0807 106.08
L81.0846 109.92
L81.1117 106.08
L81.1117 106.08
L81.2291 98.4
L81.2654 113.76
L81.3277 102.24
L81.3573 98.4
L81.3894 102.24
L81.4234 106.08
L81.4442 102.24
L81.4442 102.24
L81.4738 98.4
L81.4824 102.24
L81.4824 102.24
L81.5704 121.44
L81.6013 117.6
L81.6792 121.44
L81.699 117.6
L81.7349 109.92
L81.7501 117.6
L81.7501 117.6
L81.7973 129.12
L81.8435 117.6
L81.8435 117.6
L81.901 109.92
L81.9291 117.6
L81.9291 117.6
L82.0519 136.8
L82.1255 121.44
L82.1465 132.96
L82.1662 136.8
L82.1805 132.96
L82.1805 132.96
L82.2418 121.44
L82.2939 125.28
L82.3754 136.8
L82.3941 125.28
L82.5026 102.24
L82.5033 106.08
L82.5317 98.4
L82.6154 102.24
L82.7086 121.44
L82.7633 113.76
L82.773 109.92
L82.7879 113.76
L82.7879 113.76
L82.7899 117.6
L82.7918 113.76
L82.7918 113.76
L82.8046 109.92
L82.8066 113.76
L82.8066 113.76
L82.809 117.6
L82.8241 113.76
L82.8241 113.76
L82.8506 109.92
L82.8557 113.76
L82.8557 113.76
L82.93 121.44
L82.9543 113.76
L82.9543 113.76
L82.9567 109.92
L82.9609 113.76
L82.9609 113.76
L83.0482 121.44
L83.0698 113.76
L83.0985 109.92
L83.0989 113.76
L83.0989 113.76
L83.1137 117.6
L83.1237 113.76
L83.1237 113.76
L83.2777 86.88
L83.2941 90.72
L83.4324 117.6
L83.4588 109.92
L83.464 117.6
L83.464 117.6
L83.5377 129.12
L83.5643 117.6
L83.5927 109.92
L83.6188 117.6
L83.6188 117.6
L83.7715 144.48
L83.8057 129.12
L83.8565 117.6
L83.9108 125.28
L83.9204 129.12
L83.928 125.28
L83.928 125.28
L84.0229 102.24
L84.054 109.92
L84.1476 98.4
L84.1624 106.08
L84.1909 113.76
L84.2045 106.08
L84.2045 106.08
L84.3006 90.72
L84.4437 83.04
L84.4504 86.88
L84.4548 83.04
L84.4548 83.04
L84.5322 75.36
L84.557 83.04
L84.585 67.68
L84.6649 79.2
L84.6694 86.88
L84.6917 79.2
L84.6917 79.2
L84.8141 67.68
L84.8552 63.84
L84.882 67.68
L84.882 67.68
L84.8949 71.52
L84.8951 67.68
L84.8951 67.68
L84.9013 63.84
L84.9123 67.68
L84.9123 67.68
L85.0264 90.72
L85.046 83.04
L85.1178 71.52
L85.1542 83.04
L85.2375 67.68
L85.2532 83.04
L85.3003 94.56
L85.3384 83.04
L85.4022 67.68
L85.4504 75.36
L85.744 113.76
L85.7573 109.92
L85.7578 113.76
L85.7578 113.76
L85.8465 121.44
L85.8626 113.76
L85.8961 121.44
L85.9337 113.76
L85.9337 113.76
L86.0502 94.56
L86.0699 98.4
L86.0813 94.56
L86.0813 94.56
L86.2345 79.2
L86.2467 83.04
L86.3227 90.72
L86.3466 86.88
L86.3789 79.2
L86.3985 86.88
L86.3985 86.88
L86.438 102.24
L86.4887 94.56
L86.5647 102.24
L86.6491 125.28
L86.6853 117.6
L86.7021 113.76
L86.7052 117.6
L86.7052 117.6
L86.721 121.44
L86.7222 117.6
L86.7222 117.6
L86.8365 102.24
L86.8405 106.08
L86.8794 102.24
L86.8794 102.24
L86.9319 86.88
L86.9673 102.24
L86.9673 102.24
L87.0009 106.08
L87.0059 102.24
L87.0059 102.24
L87.1169 83.04
L87.2397 71.52
L87.2989 52.32
L87.3412 67.68
L87.4245 83.04
L87.4766 71.52
L87.5584 52.32
L87.6315 56.16
L87.7535 83.04
L87.7922 75.36
L87.8299 83.04
L87.8299 83.04
L87.837 86.88
L87.839 83.04
L87.839 83.04
L87.8786 75.36
L87.9137 83.04
L87.9137 83.04
L88.0646 117.6
L88.0736 113.76
L88.3547 83.04
L88.3794 90.72
L88.4322 106.08
L88.4777 102.24
L88.5078 98.4
L88.5107 102.24
L88.5107 102.24
L88.583 113.76
L88.6258 106.08
L88.6965 121.44
L88.7566 113.76
L88.9475 79.2
L89.1191 98.4
L89.1247 94.56
L89.1402 90.72
L89.1432 94.56
L89.1432 94.56
L89.2142 98.4
L89.2154 94.56
L89.2154 94.56
L89.2473 83.04
L89.3092 94.56
L89.3092 94.56
L89.4152 136.8
L89.4408 129.12
L89.4657 125.28
L89.4826 129.12
L89.4826 129.12
L89.6385 144.48
L89.6828 132.96
L89.7339 144.48
L89.8272 136.8
L89.8319 140.64
L89.9217 156
L90.049 163.68
L90.1725 136.8
L90.1817 140.64
L90.1948 136.8
L90.1948 136.8
L90.223 129.12
L90.2739 136.8
L90.3069 140.64
L90.3272 136.8
L90.3272 136.8
L90.3314 132.96
L90.3443 136.8
L90.3443 136.8
L90.3702 140.64
L90.3785 136.8
L90.3785 136.8
L90.487 113.76
L90.4889 117.6
L90.5862 132.96
L90.6046 125.28
L90.6327 129.12
L90.6426 125.28
L90.6426 125.28
L90.7036 109.92
L90.7254 94.56
L90.7658 109.92
L90.836 102.24
L90.8394 109.92
L90.9819 125.28
L91.0038 121.44
L91.0956 132.96
L91.1375 125.28
L91.2701 106.08
L91.2931 109.92
L91.2972 106.08
L91.2972 106.08
L91.3377 98.4
L91.3623 106.08
L91.3623 106.08
L91.3678 109.92
L91.3782 106.08
L91.3782 106.08
L91.562 75.36
L91.6884 90.72
L91.7052 86.88
L91.8414 63.84
L91.8452 67.68
L91.8491 63.84
L91.8491 63.84
L91.8706 60
L91.8728 63.84
L91.8728 63.84
L91.985 75.36
L92.0206 90.72
L92.0447 75.36
L92.0447 75.36
L92.134 60
L92.1438 63.84
L92.3845 83.04
L92.3965 79.2
L92.4092 83.04
L92.4092 83.04
L92.5133 94.56
L92.5472 86.88
L92.7103 106.08
L92.7627 102.24
L92.7899 86.88
L92.8734 90.72
L93.0239 113.76
L93.0306 109.92
L93.1691 86.88
L93.172 90.72
L93.2081 83.04
L93.2238 90.72
L93.2238 90.72
L93.233 94.56
L93.2366 90.72
L93.2366 90.72
L93.2685 79.2
L93.3042 90.72
L93.3042 90.72
L93.3757 94.56
L93.382 90.72
L93.4373 86.88
L93.4455 90.72
L93.4455 90.72
L93.478 94.56
L93.4796 90.72
L93.4796 90.72
L93.4877 86.88
L93.4902 90.72
L93.4902 90.72
L93.5955 102.24
L93.6898 94.56
L93.7226 98.4
L93.7592 106.08
L93.8065 98.4
L93.8065 98.4
L93.8131 94.56
L93.8147 98.4
L93.8147 98.4
L93.9202 113.76
L93.9441 109.92
L94.0461 90.72
L94.1663 75.36
L94.199 83.04
L94.3313 94.56
L94.4489 71.52
L94.4736 79.2
L94.5991 98.4
L94.6069 94.56
L94.6606 86.88
L94.6963 94.56
L94.7845 90.72
L94.7939 94.56
L94.7963 98.4
L94.8027 94.56
L94.8027 94.56
L94.8716 83.04
L94.902 94.56
L95.0019 106.08
L95.0715 98.4
L95.1124 102.24
L95.2135 117.6
L95.2364 109.92
L95.3464 90.72
L95.4104 109.92
L95.5003 98.4
L95.6123 79.2
L95.6209 83.04
L95.7594 109.92
L95.864 125.28
L95.8767 121.44
L95.9101 109.92
L95.9531 121.44
L95.9531 121.44
L95.9692 125.28
L95.9712 121.44
L95.9712 121.44
L96.077 117.6
L96.1097 125.28
L96.1312 117.6
L96.4919 83.04
L96.503 86.88
L96.5202 98.4
L96.6082 90.72
L96.6897 83.04
L96.7031 86.88
L96.8481 102.24
L96.85 98.4
L96.856 94.56
L96.8676 98.4
L96.8676 98.4
L96.9897 125.28
L97.0081 113.76
L97.0739 98.4
L97.1756 79.2
L97.1905 75.36
L97.1936 79.2
L97.1936 79.2
L97.3008 94.56
L97.4292 48.48
L97.4865 63.84
L97.7585 94.56
L97.7668 90.72
L97.7694 86.88
L97.8078 90.72
L97.8078 90.72
L97.8183 98.4
L97.8478 90.72
L97.8478 90.72
L97.8602 86.88
L97.8651 90.72
L97.8651 90.72
L97.8782 94.56
L97.8795 90.72
L97.8795 90.72
L97.9646 75.36
L97.9873 86.88
L98.0482 79.2
L98.0606 86.88
L98.0606 86.88
L98.063 90.72
L98.0842 86.88
L98.0842 86.88
L98.2148 67.68
L98.4765 102.24
L98.5038 106.08
L98.514 102.24
L98.514 102.24
L98.6198 94.56
L98.7494 109.92
L98.7502 106.08
L98.8437 94.56
L98.8726 102.24
L98.9605 113.76
L99.1445 98.4
L99.1856 106.08
L99.2984 136.8
L99.3201 129.12
L99.332 125.28
L99.346 129.12
L99.346 129.12
L99.3584 132.96
L99.3743 129.12
L99.3743 129.12
L99.3906 125.28
L99.4058 129.12
L99.4058 129.12
L99.4469 132.96
L99.4596 129.12
L99.4958 125.28
L99.5157 129.12
L99.5157 129.12
L99.517 132.96
L99.5339 129.12
L99.5339 129.12
L99.5436 113.76
L99.6449 121.44
L99.6901 117.6
L99.6977 121.44
L99.6977 121.44
L99.7598 132.96
L99.8653 140.64
L99.8731 136.8
L99.9967 117.6
L100.017 121.44
L100.12 136.8
L100.141 129.12
L100.199 117.6
L100.221 129.12
L100.221 129.12
L100.285 140.64
L100.31 132.96
L100.521 102.24
L100.551 106.08
L100.641 113.76
L100.658 106.08
L100.665 102.24
L100.702 106.08
L100.702 106.08
L100.708 109.92
L100.708 106.08
L100.708 106.08
L100.742 102.24
L100.749 106.08
L100.749 106.08
L100.799 117.6
L100.838 106.08
L100.891 90.72
L100.921 86.88
L100.922 90.72
L100.922 90.72
L101.039 113.76
L101.18 83.04
L101.206 90.72
L101.323 98.4
L101.325 94.56
L101.337 86.88
L101.355 94.56
L101.355 94.56
L101.505 113.76
L101.516 109.92
L101.618 86.88
L101.693 90.72
L101.785 113.76
L101.794 109.92
L102.025 83.04
L102.052 90.72
L102.09 102.24
L102.138 98.4
L102.242 102.24
L102.248 98.4
L102.336 90.72
L102.34 98.4
L102.401 83.04
L102.485 90.72
L102.626 83.04
L102.628 86.88
L102.69 113.76
L102.759 109.92
L102.867 86.88
L102.901 98.4
L102.958 86.88
L103.011 67.68
L103.07 75.36
L103.197 48.48
L103.235 56.16
L103.451 33.12
L103.459 40.8
L103.468 44.64
L103.472 40.8
L103.472 40.8
L103.478 29.28
L103.498 40.8
L103.498 40.8
L103.501 44.64
L103.51 40.8
L103.51 40.8
L103.515 36.96
L103.523 40.8
L103.523 40.8
L103.582 56.16
L103.604 44.64
L103.79 63.84
L103.926 79.2
L103.933 75.36
L103.948 67.68
L103.962 75.36
L103.962 75.36
L103.999 79.2
L104.025 75.36
L104.025 75.36
L104.113 60
L104.129 71.52
L104.263 102.24
L104.291 98.4
L104.304 90.72
L104.335 98.4
L104.335 98.4
L104.4 106.08
L104.419 98.4
L104.419 98.4
L104.427 94.56
L104.431 98.4
L104.431 98.4
L104.47 106.08
L104.48 98.4
L104.48 98.4
L104.582 79.2
L104.593 90.72
L104.609 86.88
L104.646 90.72
L104.646 90.72
L104.847 129.12
L104.853 125.28
L104.981 86.88
L105.072 98.4
L105.086 102.24
L105.091 98.4
L105.091 98.4
L105.098 94.56
L105.108 98.4
L105.108 98.4
L105.13 109.92
L105.139 98.4
L105.139 98.4
L105.175 90.72
L105.183 98.4
L105.183 98.4
L105.24 113.76
L105.286 98.4
L105.301 102.24
L105.31 98.4
L105.31 98.4
L105.319 94.56
L105.325 98.4
L105.325 98.4
L105.344 109.92
L105.435 102.24
L105.467 106.08
L105.473 102.24
L105.473 102.24
L105.48 98.4
L105.48 102.24
L105.48 102.24
L105.505 109.92
L105.535 102.24
L105.535 102.24
L105.647 83.04
L105.748 48.48
L105.789 60
L105.897 98.4
L105.952 86.88
L105.976 83.04
L105.979 86.88
L105.979 86.88
L106.026 98.4
L106.054 86.88
L106.054 86.88
L106.057 83.04
L106.063 86.88
L106.063 86.88
L106.115 90.72
L106.121 86.88
L106.121 86.88
L106.123 83.04
L106.126 86.88
L106.126 86.88
L106.259 102.24
L106.322 106.08
L106.326 102.24
L106.396 94.56
L106.437 98.4
L106.455 109.92
L106.488 98.4
L106.488 98.4
L106.525 83.04
L106.578 98.4
L106.578 98.4
L106.607 106.08
L106.684 98.4
L106.715 102.24
L106.728 98.4
L106.728 98.4
L106.738 90.72
L106.786 98.4
L106.786 98.4
L106.809 102.24
L106.813 98.4
L106.813 98.4
L106.813 94.56
L106.815 98.4
L106.815 98.4
L106.958 117.6
L106.964 113.76
L107.072 86.88
L107.088 90.72
L107.211 113.76
L107.239 106.08
L107.304 94.56
L107.349 98.4
L107.413 90.72
L107.423 98.4
L107.423 98.4
L107.492 117.6
L107.543 113.76
L107.725 136.8
L107.771 132.96
L107.862 109.92
L107.881 113.76
L107.891 117.6
L107.893 113.76
L107.893 113.76
L107.974 94.56
L108.005 102.24
L108.078 113.76
L108.105 109.92
L108.296 94.56
L108.303 98.4
L108.311 94.56
L108.311 94.56
L108.335 90.72
L108.39 94.56
L108.39 94.56
L108.502 106.08
L108.532 113.76
L108.596 106.08
L108.596 106.08
L108.609 102.24
L108.612 106.08
L108.612 106.08
L108.619 109.92
L108.626 106.08
L108.626 106.08
L108.645 102.24
L108.673 106.08
L108.673 106.08
L108.688 113.76
L108.736 106.08
L108.736 106.08
L108.844 86.88
L108.845 90.72
L108.862 98.4
L108.931 90.72
L108.931 90.72
L108.938 86.88
L108.953 90.72
L108.953 90.72
L108.954 98.4
L109.05 90.72
L109.05 90.72
L109.121 83.04
L109.148 90.72
L109.148 90.72
L109.152 94.56
L109.164 90.72
L109.164 90.72
L109.166 86.88
L109.177 90.72
L109.177 90.72
L109.292 98.4
L109.312 94.56
L109.473 63.84
L109.499 71.52
L109.536 75.36
L109.54 71.52
L109.54 71.52
L109.647 60
L109.658 63.84
L109.798 86.88
L109.811 79.2
L109.867 86.88
L109.867 86.88
L110.007 106.08
L110.023 94.56
L110.038 86.88
L110.127 90.72
L110.279 109.92
L110.291 102.24
L110.316 109.92
L110.316 109.92
L110.364 132.96
L110.456 121.44
L110.507 129.12
L110.523 121.44
L110.523 121.44
L110.538 117.6
L110.544 121.44
L110.544 121.44
L110.562 129.12
L110.572 121.44
L110.572 121.44
L110.718 94.56
L110.91 67.68
L111.037 86.88
L111.081 75.36
L111.132 86.88
L111.135 90.72
L111.144 86.88
L111.144 86.88
L111.21 63.84
L111.262 79.2
L111.412 98.4
L111.416 94.56
L111.521 83.04
L111.525 86.88
L111.613 94.56
L111.638 90.72
L111.649 83.04
L111.676 90.72
L111.676 90.72
L111.771 121.44
L111.789 117.6
L111.837 113.76
L111.838 117.6
L111.838 117.6
L111.971 159.84
L112.003 144.48
L112.236 163.68
L112.377 132.96
L112.486 140.64
L112.487 144.48
L112.507 140.64
L112.507 140.64
L112.679 125.28
L112.725 136.8
L112.777 129.12
L113.095 79.2
L113.114 86.88
L113.178 94.56
L113.191 86.88
L113.191 86.88
L113.314 75.36
L113.341 63.84
L113.425 67.68
L113.567 79.2
L113.58 75.36
L113.585 79.2
L113.585 79.2
L113.682 121.44
L113.691 117.6
L113.824 94.56
L113.851 106.08
L113.863 109.92
L113.867 106.08
L113.867 106.08
L113.968 83.04
L114.016 94.56
L114.017 98.4
L114.025 94.56
L114.025 94.56
L114.045 90.72
L114.063 94.56
L114.063 94.56
L114.095 102.24
L114.151 94.56
L114.151 94.56
L114.255 79.2
L114.262 83.04
L114.274 86.88
L114.296 83.04
L114.296 83.04
L114.327 75.36
L114.357 83.04
L114.357 83.04
L114.358 86.88
L114.361 83.04
L114.361 83.04
L114.388 75.36
L114.417 83.04
L114.417 83.04
L114.445 86.88
L114.45 83.04
L114.45 83.04
L114.454 79.2
L114.458 83.04
L114.458 83.04
L114.531 90.72
L114.541 83.04
L114.541 83.04
L114.622 71.52
L114.65 79.2
L114.703 94.56
L114.758 83.04
L114.919 102.24
L114.933 94.56
L115.048 86.88
L115.048 90.72
L115.131 117.6
L115.197 109.92
L115.264 86.88
L115.296 98.4
L115.326 94.56
L115.331 98.4
L115.331 98.4
L115.332 102.24
L115.333 98.4
L115.333 98.4
L115.415 79.2
L115.442 94.56
L115.447 98.4
L115.455 94.56
L115.455 94.56
L115.521 79.2
L115.532 94.56
L115.532 94.56
L115.57 102.24
L115.601 94.56
L115.601 94.56
L115.7 71.52
L115.759 60
L115.785 71.52
L115.786 75.36
L115.798 71.52
L115.798 71.52
L115.812 67.68
L115.817 71.52
L115.817 71.52
L115.887 79.2
L115.894 71.52
L115.894 71.52
L115.946 48.48
L116.03 60
L116.114 71.52
L116.141 63.84
L116.16 67.68
L116.168 63.84
L116.168 63.84
L116.175 56.16
L116.185 63.84
L116.185 63.84
L116.225 67.68
L116.246 63.84
L116.246 63.84
L116.324 48.48
L116.374 56.16
L116.454 63.84
L116.474 60
L116.541 56.16
L116.55 60
L116.55 60
L116.572 67.68
L116.615 60
L116.615 60
L116.62 56.16
L116.628 60
L116.628 60
L116.757 75.36
L116.794 71.52
L116.926 56.16
L116.935 60
L116.951 63.84
L116.974 60
L116.974 60
L117.093 36.96
L117.119 48.48
L117.138 52.32
L117.147 48.48
L117.147 48.48
L117.17 44.64
L117.171 48.48
L117.171 48.48
L117.226 56.16
L117.237 48.48
L117.237 48.48
L117.241 44.64
L117.244 48.48
L117.244 48.48
L117.35 67.68
L117.404 60
L117.413 52.32
L117.443 60
L117.443 60
L117.663 94.56
L117.678 79.2
L117.732 63.84
L117.802 67.68
L117.83 75.36
L117.847 67.68
L117.847 67.68
L117.911 48.48
L117.963 52.32
L118.003 48.48
L118.003 52.32
L118.003 52.32
L118.115 79.2
L118.126 75.36
L118.145 71.52
L118.17 75.36
L118.17 75.36
L118.174 79.2
L118.178 75.36
L118.178 75.36
L118.184 71.52
L118.2 75.36
L118.2 75.36
L118.248 83.04
L118.27 75.36
L118.27 75.36
L118.393 52.32
L118.409 60
L118.44 63.84
L118.464 60
L118.49 56.16
L118.492 60
L118.492 60
L118.493 63.84
L118.504 60
L118.504 60
L118.514 56.16
L118.519 60
L118.519 60
L118.621 71.52
L118.801 102.24
L118.868 98.4
L118.959 79.2
L118.969 90.72
L119.065 102.24
L119.101 98.4
L119.108 94.56
L119.11 98.4
L119.11 98.4
L119.235 117.6
L119.258 113.76
L119.271 117.6
L119.271 117.6
L119.372 132.96
L119.38 129.12
L119.47 136.8
L119.492 132.96
L119.578 117.6
L119.579 113.76
L119.617 117.6
L119.617 117.6
L119.695 132.96
L119.737 121.44
L119.761 125.28
L119.774 121.44
L119.774 121.44
L119.873 79.2
L119.902 94.56
L119.907 90.72
L119.91 94.56
L119.91 94.56
L120.02 106.08
L120.02 102.24
L120.122 98.4
L120.125 102.24
L120.148 106.08
L120.151 102.24
L120.151 102.24
L120.168 98.4
L120.172 102.24
L120.172 102.24
L120.328 140.64
L120.352 132.96
L120.367 129.12
L120.37 132.96
L120.37 132.96
L120.412 140.64
L120.428 132.96
L120.428 132.96
L120.439 129.12
L120.447 132.96
L120.447 132.96
L120.476 140.64
L120.542 132.96
L120.596 129.12
L120.607 132.96
L120.743 140.64
L120.749 136.8
L120.757 132.96
L120.776 136.8
L120.776 136.8
L120.796 140.64
L120.814 136.8
L120.814 136.8
L120.952 125.28
L120.973 129.12
L121.023 144.48
L121.095 140.64
L121.257 156
L121.332 136.8
L121.355 129.12
L121.385 136.8
L121.385 136.8
L121.387 144.48
L121.406 136.8
L121.406 136.8
L121.479 121.44
L121.516 125.28
L121.52 129.12
L121.522 125.28
L121.522 125.28
L121.551 117.6
L121.558 125.28
L121.558 125.28
L121.585 129.12
L121.587 125.28
L121.587 125.28
L121.723 94.56
L121.802 98.4
L121.808 102.24
L121.81 98.4
L121.81 98.4
L121.874 83.04
L121.98 67.68
L122.224 102.24
L122.298 94.56
L122.386 86.88
L122.721 125.28
L122.723 121.44
L122.759 113.76
L122.791 121.44
L122.791 121.44
L122.799 125.28
L122.803 121.44
L122.803 121.44
L122.832 109.92
L122.845 121.44
L122.845 121.44
L122.894 129.12
L122.932 125.28
L122.989 113.76
L123.034 121.44
L123.084 125.28
L123.095 121.44
L123.181 106.08
L123.19 109.92
L123.345 117.6
L123.497 86.88
L123.523 90.72
L123.532 86.88
L123.532 86.88
L123.563 71.52
L123.649 75.36
L123.654 79.2
L123.654 75.36
L123.654 75.36
L123.75 44.64
L123.771 52.32
L123.922 79.2
L123.932 75.36
L123.937 71.52
L123.938 75.36
L123.938 75.36
L123.978 83.04
L123.987 75.36
L123.987 75.36
L124.058 56.16
L124.123 67.68
L124.269 83.04
L124.281 79.2
L124.288 83.04
L124.288 83.04
L124.291 86.88
L124.295 83.04
L124.295 83.04
L124.307 75.36
L124.322 83.04
L124.322 83.04
L124.439 109.92
L124.464 98.4
L124.487 94.56
L124.49 98.4
L124.49 98.4
L124.702 129.12
L124.727 117.6
L124.917 86.88
L124.933 94.56
L124.957 98.4
L124.96 94.56
L124.96 94.56
L124.975 86.88
L124.984 94.56
L124.984 94.56
L125.093 98.4
L125.119 86.88
L125.153 98.4
L125.153 98.4
L125.198 106.08
L125.24 98.4
L125.24 98.4
L125.26 94.56
L125.264 98.4
L125.264 98.4
L125.365 113.76
L125.544 83.04
L125.598 86.88
L125.646 98.4
L125.697 90.72
L125.801 79.2
L125.827 86.88
L125.918 94.56
L125.931 90.72
L126.002 79.2
L126.033 90.72
L126.147 109.92
L126.162 102.24
L126.17 109.92
L126.17 109.92
L126.28 125.28
L126.314 121.44
L126.418 106.08
L126.435 117.6
L126.548 132.96
L126.562 125.28
L126.571 132.96
L126.571 132.96
L126.596 136.8
L126.618 132.96
L126.618 132.96
L126.761 113.76
L126.779 121.44
L126.8 125.28
L126.814 121.44
L126.814 121.44
L126.856 117.6
L126.877 121.44
L126.877 121.44
L126.888 125.28
L126.893 121.44
L126.893 121.44
L126.941 98.4
L126.994 106.08
L127.025 109.92
L127.027 106.08
L127.027 106.08
L127.141 90.72
L127.149 86.88
L127.15 90.72
L127.15 90.72
L127.156 94.56
L127.16 90.72
L127.16 90.72
L127.172 83.04
L127.191 90.72
L127.191 90.72
L127.214 102.24
L127.248 90.72
L127.248 90.72
L127.268 86.88
L127.271 90.72
L127.271 90.72
L127.273 94.56
L127.291 90.72
L127.291 90.72
L127.414 52.32
L127.415 56.16
L127.46 63.84
L127.502 56.16
L127.503 52.32
L127.514 56.16
L127.514 56.16
L127.677 79.2
L127.759 52.32
L127.811 63.84
L128.037 102.24
L128.064 98.4
L128.13 83.04
L128.186 94.56
L128.384 113.76
L128.752 83.04
L128.777 94.56
L128.844 83.04
L128.92 75.36
L128.945 83.04
L128.971 86.88
L128.973 83.04
L128.973 83.04
L129.114 67.68
L129.114 71.52
L129.182 94.56
L129.23 83.04
L129.301 98.4
L129.349 90.72
L129.445 79.2
L129.488 86.88
L129.51 94.56
L129.55 86.88
L129.55 86.88
L129.57 79.2
L129.663 83.04
L129.688 86.88
L129.726 83.04
L129.726 83.04
L129.753 56.16
L129.836 83.04
L129.851 79.2
L129.858 83.04
L129.858 83.04
L129.864 86.88
L129.872 83.04
L129.872 83.04
L129.927 71.52
L129.986 75.36
L130.006 90.72
L130.101 86.88
L130.147 90.72
L130.147 86.88
L130.147 86.88
L130.155 83.04
L130.156 86.88
L130.156 86.88
L130.228 106.08
L130.304 98.4
L130.317 94.56
L130.327 98.4
L130.327 98.4
L130.498 113.76
L130.522 102.24
L130.592 113.76
L130.593 117.6
L130.601 113.76
L130.601 113.76
L130.62 106.08
L130.67 113.76
L130.67 113.76
L130.679 121.44
L130.714 113.76
L130.714 113.76
L130.85 90.72
L130.859 98.4
L130.863 90.72
L130.863 90.72
L130.869 86.88
L130.873 90.72
L130.873 90.72
L130.888 94.56
L130.9 90.72
L130.9 90.72
L130.934 83.04
L130.974 90.72
L130.974 90.72
L131.001 94.56
L131.002 90.72
L131.002 90.72
L131.02 86.88
L131.03 90.72
L131.03 90.72
L131.16 106.08
L131.175 102.24
L131.19 98.4
L131.198 102.24
L131.198 102.24
L131.201 106.08
L131.206 102.24
L131.206 102.24
L131.268 86.88
L131.317 98.4
L131.362 106.08
L131.378 98.4
L131.378 98.4
L131.399 94.56
L131.401 98.4
L131.401 98.4
L131.427 106.08
L131.515 102.24
L131.527 94.56
L131.62 98.4
L131.636 86.88
L131.66 98.4
L131.66 98.4
L131.713 102.24
L131.723 98.4
L131.841 86.88
L131.842 90.72
L131.845 94.56
L131.85 90.72
L131.85 90.72
L131.853 86.88
L131.871 90.72
L131.871 90.72
L131.879 94.56
L131.882 90.72
L131.882 90.72
L131.94 79.2
L131.974 86.88
L132.027 94.56
L132.043 86.88
L132.043 86.88
L132.114 56.16
L132.15 67.68
L132.328 94.56
L132.335 86.88
L132.358 83.04
L132.366 86.88
L132.366 86.88
L132.402 106.08
L132.463 86.88
L132.463 86.88
L132.557 63.84
L132.562 71.52
L132.655 67.68
L132.665 71.52
L132.734 83.04
L132.739 79.2
L132.836 86.88
L132.852 90.72
L132.858 86.88
L132.858 86.88
L132.859 83.04
L132.89 86.88
L132.89 86.88
L132.913 90.72
L132.925 86.88
L132.925 86.88
L132.989 79.2
L132.997 86.88
L132.997 86.88
L133.122 117.6
L133.164 102.24
L133.164 98.4
L133.165 102.24
L133.165 102.24
L133.318 125.28
L133.332 121.44
L133.376 117.6
L133.379 121.44
L133.379 121.44
L133.392 125.28
L133.444 121.44
L133.444 121.44
L133.471 117.6
L133.514 121.44
L133.514 121.44
L133.59 136.8
L133.619 125.28
L133.71 144.48
L133.79 136.8
L133.906 129.12
L133.91 132.96
L133.914 129.12
L133.914 129.12
L134.028 109.92
L134.049 113.76
L134.078 109.92
L134.078 109.92
L134.12 94.56
L134.171 109.92
L134.326 152.16
L134.374 136.8
L134.655 102.24
L134.757 132.96
L134.806 117.6
L134.914 106.08
L134.934 109.92
L134.975 102.24
L135.023 109.92
L135.109 121.44
L135.286 102.24
L135.354 86.88
L135.373 102.24
L135.373 102.24
L135.501 117.6
L135.507 109.92
L135.566 102.24
L135.587 109.92
L135.587 109.92
L135.646 125.28
L135.701 117.6
L135.811 106.08
L135.815 109.92
L135.901 121.44
L135.921 109.92
L136.006 94.56
L136.024 102.24
L136.055 113.76
L136.109 102.24
L136.109 102.24
L136.182 94.56
L136.215 98.4
L136.235 106.08
L136.324 98.4
L136.346 86.88
L136.411 90.72
L136.469 102.24
L136.504 90.72
L136.624 71.52
L136.807 94.56
L136.834 86.88
L136.838 83.04
L136.868 86.88
L136.868 86.88
L136.903 94.56
L136.945 86.88
L136.945 86.88
L137.064 71.52
L137.074 75.36
L137.219 79.2
L137.259 71.52
L137.277 79.2
L137.277 79.2
L137.405 94.56
L137.415 86.88
L137.441 94.56
L137.441 94.56
L137.464 98.4
L137.466 94.56
L137.466 94.56
L137.531 79.2
L137.552 90.72
L137.591 98.4
L137.658 90.72
L137.685 86.88
L137.697 90.72
L137.697 90.72
L137.726 98.4
L137.758 90.72
L137.758 90.72
L137.867 75.36
L137.882 86.88
L137.955 113.76
L138.001 98.4
L138.041 109.92
L138.07 98.4
L138.07 98.4
L138.163 94.56
L138.169 98.4
L138.179 102.24
L138.18 98.4
L138.18 98.4
L138.214 83.04
L138.263 98.4
L138.263 98.4
L138.293 106.08
L138.3 98.4
L138.3 98.4
L138.445 75.36
L138.448 79.2
L138.504 94.56
L138.573 86.88
L138.622 79.2
L138.645 86.88
L138.645 86.88
L138.665 90.72
L138.668 86.88
L138.668 86.88
L138.815 67.68
L138.827 71.52
L138.897 83.04
L138.915 79.2
L138.996 90.72
L139.053 83.04
L139.057 79.2
L139.067 83.04
L139.067 83.04
L139.165 109.92
L139.197 94.56
L139.222 106.08
L139.287 94.56
L139.287 94.56
L139.35 86.88
L139.362 94.56
L139.362 94.56
L139.386 102.24
L139.4 94.56
L139.4 94.56
L139.436 90.72
L139.437 94.56
L139.437 94.56
L139.594 125.28
L139.614 121.44
L139.785 90.72
L139.805 98.4
L139.805 102.24
L139.821 98.4
L139.821 98.4
L139.866 86.88
L139.899 98.4
L139.899 98.4
L140.014 109.92
L140.017 106.08
L140.225 90.72
L140.27 106.08
L140.335 102.24
L140.349 98.4
L140.383 102.24
L140.383 102.24
L140.415 109.92
L140.463 102.24
L140.493 98.4
L140.494 102.24
L140.494 102.24
L140.506 106.08
L140.516 102.24
L140.516 102.24
L140.621 94.56
L140.645 98.4
L140.673 94.56
L140.673 94.56
L140.688 79.2
L140.724 94.56
L140.724 94.56
L140.772 102.24
L140.821 94.56
L140.822 90.72
L140.829 94.56
L140.829 94.56
L140.836 98.4
L140.842 94.56
L140.842 94.56
L140.91 90.72
L140.91 94.56
L140.91 94.56
L140.972 102.24
L140.989 94.56
L140.989 94.56
L141.071 83.04
L141.083 94.56
L141.083 94.56
L141.085 102.24
L141.137 94.56
L141.137 94.56
L141.155 90.72
L141.16 94.56
L141.16 94.56
L141.193 106.08
L141.221 94.56
L141.221 94.56
L141.356 75.36
L141.397 83.04
L141.466 98.4
L141.509 94.56
L141.531 83.04
L141.61 90.72
L141.837 125.28
L141.87 117.6
L141.933 98.4
L142.032 102.24
L142.064 90.72
L142.091 102.24
L142.091 102.24
L142.103 106.08
L142.116 102.24
L142.116 102.24
L142.231 79.2
L142.237 83.04
L142.241 86.88
L142.244 83.04
L142.244 83.04
L142.298 71.52
L142.332 83.04
L142.332 83.04
L142.467 113.76
L142.471 109.92
L142.595 102.24
L142.734 75.36
L142.747 83.04
L142.76 75.36
L142.76 75.36
L142.872 63.84
L142.875 67.68
L142.999 102.24
L143.166 125.28
L143.192 117.6
L143.21 109.92
L143.21 117.6
L143.21 117.6
L143.271 125.28
L143.301 117.6
L143.392 129.12
L143.419 121.44
L143.476 102.24
L143.529 106.08
L143.617 117.6
L143.65 113.76
L143.675 109.92
L143.686 113.76
L143.686 113.76
L143.75 129.12
L143.821 121.44
L143.831 117.6
L143.871 121.44
L143.871 121.44
L143.89 132.96
L143.933 121.44
L143.933 121.44
L144.047 90.72
L144.148 71.52
L144.205 75.36
L144.223 90.72
L144.251 75.36
L144.251 75.36
L144.255 71.52
L144.276 75.36
L144.276 75.36
L144.383 90.72
L144.395 86.88
L144.49 75.36
L144.509 79.2
L144.535 83.04
L144.554 79.2
L144.554 79.2
L144.585 71.52
L144.622 79.2
L144.622 79.2
L144.627 86.88
L144.691 79.2
L144.691 79.2
L144.754 63.84
L144.814 71.52
L145.015 90.72
L145.039 86.88
L145.078 79.2
L145.107 86.88
L145.21 98.4
L145.229 94.56
L145.313 71.52
L145.364 75.36
L145.482 56.16
L145.505 60
L145.542 56.16
L145.548 60
L145.548 60
L145.663 75.36
L145.735 94.56
L145.764 86.88
L145.824 90.72
L145.858 86.88
L145.958 71.52
L145.969 75.36
L145.983 71.52
L145.99 75.36
L145.99 75.36
L146.003 86.88
L146.068 75.36
L146.068 75.36
L146.073 71.52
L146.098 75.36
L146.098 75.36
L146.101 79.2
L146.106 75.36
L146.106 75.36
L146.148 60
L146.224 67.68
L146.248 71.52
L146.254 67.68
L146.254 67.68
L146.259 63.84
L146.271 67.68
L146.271 67.68
L146.282 75.36
L146.318 67.68
L146.318 67.68
L146.325 63.84
L146.337 67.68
L146.337 67.68
L146.422 83.04
L146.449 75.36
L146.515 63.84
L146.557 75.36
L146.626 90.72
L146.651 83.04
L146.765 75.36
L146.777 79.2
L146.947 102.24
L146.969 90.72
L147.028 83.04
L147.034 90.72
L147.034 90.72
L147.15 106.08
L147.271 113.76
L147.302 106.08
L147.336 113.76
L147.336 113.76
L147.441 125.28
L147.487 121.44
L147.526 113.76
L147.573 121.44
L147.66 136.8
L147.695 125.28
L147.739 121.44
L147.768 125.28
L147.79 129.12
L147.795 125.28
L147.795 125.28
L147.864 102.24
L147.943 109.92
L147.961 113.76
L147.969 109.92
L147.969 109.92
L148.052 90.72
L148.07 94.56
L148.101 90.72
L148.11 94.56
L148.11 94.56
L148.337 125.28
L148.344 121.44
L148.351 117.6
L148.379 121.44
L148.379 121.44
L148.38 125.28
L148.382 121.44
L148.382 121.44
L148.487 113.76
L148.518 117.6
L148.565 121.44
L148.572 117.6
L148.572 117.6
L148.645 94.56
L148.695 106.08
L148.715 102.24
L148.725 106.08
L148.725 106.08
L148.813 109.92
L148.855 106.08
L148.863 109.92
L148.863 109.92
L148.985 125.28
L149.008 117.6
L149.069 106.08
L149.101 109.92
L149.145 117.6
L149.188 109.92
L149.284 94.56
L149.29 102.24
L149.336 106.08
L149.347 102.24
L149.406 98.4
L149.41 102.24
L149.538 113.76
L149.555 109.92
L149.649 102.24
L149.655 106.08
L149.77 117.6
L149.779 113.76
L149.809 109.92
L149.825 113.76
L149.825 113.76
L149.844 117.6
L149.85 113.76
L149.85 113.76
L149.886 106.08
L149.949 113.76
L149.949 113.76
L149.949 117.6
L149.954 113.76
L149.954 113.76
L150.16 86.88
L150.163 90.72
L150.403 125.28
L150.41 121.44
L150.423 117.6
L150.424 121.44
L150.424 121.44
L150.564 140.64
L150.571 132.96
L150.744 94.56
L150.777 102.24
L150.846 109.92
L150.851 102.24
L150.851 102.24
L150.888 94.56
L150.902 102.24
L150.902 102.24
L150.919 106.08
L150.93 102.24
L150.93 102.24
L151.28 67.68
L151.283 75.36
L151.313 86.88
L151.394 75.36
L151.401 60
L151.483 63.84
L151.602 86.88
L151.645 71.52
L151.723 52.32
L151.761 60
L151.788 67.68
L151.795 60
L151.795 60
L151.92 44.64
L151.925 48.48
L151.947 44.64
L151.952 48.48
L151.952 48.48
L151.955 52.32
L151.96 48.48
L151.96 48.48
L152.06 36.96
L152.093 40.8
L152.128 52.32
L152.169 40.8
L152.169 40.8
L152.173 36.96
L152.174 40.8
L152.174 40.8
L152.175 44.64
L152.179 40.8
L152.179 40.8
L152.192 33.12
L152.194 40.8
L152.194 40.8
L152.203 44.64
L152.205 40.8
L152.205 40.8
L152.292 21.6
L152.318 33.12
L152.391 63.84
L152.457 48.48
L152.462 44.64
L152.465 48.48
L152.465 48.48
L152.54 67.68
L152.553 63.84
L152.812 90.72
L152.863 86.88
L152.867 90.72
L152.867 90.72
L152.966 94.56
L152.972 90.72
L153.073 83.04
L153.083 86.88
L153.087 90.72
L153.092 86.88
L153.092 86.88
L153.099 83.04
L153.1 86.88
L153.1 86.88
L153.271 121.44
L153.31 125.28
L153.312 121.44
L153.312 121.44
L153.436 113.76
L153.499 106.08
L153.533 113.76
L153.669 132.96
L153.725 129.12
L153.918 98.4
L154.099 113.76
L154.179 132.96
L154.208 129.12
L154.243 136.8
L154.249 129.12
L154.249 129.12
L154.275 121.44
L154.292 129.12
L154.292 129.12
L154.325 140.64
L154.375 129.12
L154.382 125.28
L154.388 129.12
L154.388 129.12
L154.394 132.96
L154.407 129.12
L154.407 129.12
L154.425 117.6
L154.472 129.12
L154.472 129.12
L154.49 132.96
L154.492 129.12
L154.492 129.12
L154.572 121.44
L154.617 125.28
L154.62 129.12
L154.62 125.28
L154.62 125.28
L154.654 113.76
L154.732 117.6
L154.77 102.24
L154.826 109.92
L154.943 102.24
L154.95 106.08
L154.982 121.44
L155.016 106.08
L155.016 106.08
L155.141 83.04
L155.166 71.52
L155.196 83.04
L155.196 83.04
L155.284 94.56
L155.293 83.04
L155.293 83.04
L155.294 79.2
L155.296 83.04
L155.296 83.04
L155.306 86.88
L155.367 83.04
L155.367 83.04
L155.375 75.36
L155.421 83.04
L155.421 83.04
L155.614 106.08
L155.661 98.4
L155.702 79.2
L155.762 94.56
L155.819 83.04
L155.936 56.16
L156.059 44.64
L156.151 60
L156.158 44.64
L156.426 67.68
L156.433 63.84
L156.462 67.68
L156.462 67.68
L156.479 79.2
L156.571 67.68
L156.588 71.52
L156.611 67.68
L156.611 67.68
L156.644 56.16
L156.693 67.68
L156.693 67.68
L156.794 102.24
L156.834 90.72
L156.85 86.88
L156.873 90.72
L156.873 90.72
L156.875 94.56
L156.898 90.72
L156.898 90.72
L156.912 86.88
L156.928 90.72
L156.928 90.72
L156.981 98.4
L157.007 90.72
L157.007 90.72
L157.108 71.52
L157.132 79.2
L157.206 94.56
L157.239 79.2
L157.24 75.36
L157.245 79.2
L157.245 79.2
L157.365 94.56
L157.388 90.72
L157.392 94.56
L157.392 94.56
L157.519 113.76
L157.523 106.08
L157.569 94.56
L157.633 102.24
L157.804 71.52
L157.826 83.04
L157.888 94.56
L158.011 106.08
L158.023 109.92
L158.024 106.08
L158.024 106.08
L158.117 94.56
L158.128 98.4
L158.158 94.56
L158.16 98.4
L158.16 98.4
L158.193 106.08
L158.232 98.4
L158.232 98.4
L158.249 94.56
L158.263 98.4
L158.263 98.4
L158.416 117.6
L158.536 125.28
L158.607 136.8
L158.631 125.28
L158.631 125.28
L158.746 86.88
L158.873 67.68
L158.897 71.52
L159.047 90.72
L159.083 75.36
L159.164 86.88
L159.251 109.92
L159.288 106.08
L159.33 102.24
L159.341 106.08
L159.341 106.08
L159.372 113.76
L159.444 106.08
L159.548 144.48
L159.618 129.12
L159.667 113.76
L159.677 109.92
L159.678 113.76
L159.678 113.76
L159.736 117.6
L159.747 113.76
L159.747 113.76
L159.842 102.24
L159.867 106.08
L159.961 94.56
L160.021 102.24
L160.023 106.08
L160.032 102.24
L160.032 102.24
L160.033 98.4
L160.037 102.24
L160.037 102.24
L160.172 129.12
L160.261 117.6
L160.27 113.76
L160.277 117.6
L160.277 117.6
L160.364 129.12
L160.539 102.24
L160.562 117.6
L160.567 121.44
L160.573 117.6
L160.573 117.6
L160.668 94.56
L160.677 98.4
L160.706 102.24
L160.718 98.4
L160.718 98.4
L160.727 94.56
L160.732 98.4
L160.732 98.4
L160.79 117.6
L160.816 109.92
L160.867 102.24
L160.881 109.92
L160.881 109.92
L161.05 140.64
L161.17 144.48
L161.238 129.12
L161.253 136.8
L161.447 148.32
L161.631 136.8
L161.664 144.48
L161.694 136.8
L161.694 136.8
L161.718 132.96
L161.724 136.8
L161.724 136.8
L161.727 140.64
L161.755 136.8
L161.755 136.8
L161.869 117.6
L161.874 121.44
L161.875 117.6
L161.875 117.6
L161.969 106.08
L162.005 109.92
L162.011 106.08
L162.011 106.08
L162.011 102.24
L162.015 106.08
L162.015 106.08
L162.022 109.92
L162.023 106.08
L162.023 106.08
L162.105 86.88
L162.134 106.08
L162.151 113.76
L162.17 106.08
L162.17 106.08
L162.278 86.88
L162.296 94.56
L162.309 98.4
L162.34 94.56
L162.34 94.56
L162.372 90.72
L162.372 94.56
L162.372 94.56
L162.376 98.4
L162.377 94.56
L162.377 94.56
L162.378 90.72
L162.378 94.56
L162.378 94.56
L162.381 98.4
L162.387 94.56
L162.387 94.56
L162.393 90.72
L162.407 94.56
L162.407 94.56
L162.503 113.76
L162.53 109.92
L162.605 90.72
L162.639 102.24
L162.782 86.88
L162.798 90.72
L162.801 94.56
L162.801 90.72
L162.801 90.72
L162.806 86.88
L162.813 90.72
L162.813 90.72
L162.924 106.08
L162.94 98.4
L162.943 106.08
L162.943 106.08
L163.008 113.76
L163.026 106.08
L163.026 106.08
L163.134 79.2
L163.159 75.36
L163.161 79.2
L163.161 79.2
L163.219 86.88
L163.234 79.2
L163.234 79.2
L163.326 60
L163.35 71.52
L163.396 83.04
L163.456 79.2
L163.551 86.88
L163.564 79.2
L163.582 75.36
L163.583 79.2
L163.583 79.2
L163.669 113.76
L163.696 106.08
L163.699 109.92
L163.723 106.08
L163.723 106.08
L163.823 75.36
L163.829 79.2
L163.938 94.56
L163.98 90.72
L164.052 71.52
L164.081 90.72
L164.143 75.36
L164.243 83.04
L164.4 113.76
L164.562 94.56
L164.564 98.4
L164.578 102.24
L164.583 98.4
L164.583 98.4
L164.614 86.88
L164.633 98.4
L164.633 98.4
L164.741 113.76
L164.767 102.24
L164.782 98.4
L164.782 102.24
L164.782 102.24
L164.785 106.08
L164.849 102.24
L164.849 102.24
L164.991 75.36
L165.052 86.88
L165.055 90.72
L165.063 86.88
L165.063 86.88
L165.207 75.36
L165.244 83.04
L165.258 75.36
L165.258 75.36
L165.352 56.16
L165.361 63.84
L165.415 56.16
L165.426 63.84
L165.511 83.04
L165.545 71.52
L165.627 79.2
L165.643 71.52
L165.643 71.52
L165.659 63.84
L165.716 71.52
L165.716 71.52
L165.737 83.04
L165.831 75.36
L165.845 71.52
L165.852 75.36
L165.852 75.36
L165.941 94.56
L166.031 79.2
L166.091 86.88
L166.154 98.4
L166.183 90.72
L166.301 79.2
L166.305 75.36
L166.313 79.2
L166.313 79.2
L166.49 113.76
L166.551 106.08
L166.597 90.72
L166.603 106.08
L166.603 106.08
L166.673 121.44
L166.73 109.92
L166.751 102.24
L166.823 109.92
L166.893 90.72
L166.934 106.08
L167.036 113.76
L167.041 106.08
L167.069 90.72
L167.144 106.08
L167.18 117.6
L167.225 106.08
L167.225 106.08
L167.316 90.72
L167.331 106.08
L167.355 109.92
L167.372 106.08
L167.372 106.08
L167.418 102.24
L167.434 106.08
L167.434 106.08
L167.507 132.96
L167.553 117.6
L167.6 132.96
L167.715 129.12
L167.718 125.28
L167.77 129.12
L167.77 129.12
L167.793 132.96
L167.794 129.12
L167.794 129.12
L167.825 121.44
L167.841 129.12
L167.841 129.12
L167.884 136.8
L167.913 132.96
L168.051 121.44
L168.093 109.92
L168.141 121.44
L168.141 121.44
L168.143 125.28
L168.166 121.44
L168.166 121.44
L168.262 113.76
L168.273 121.44
L168.359 94.56
L168.361 90.72
L168.367 94.56
L168.367 94.56
L168.447 117.6
L168.476 106.08
L168.515 102.24
L168.516 106.08
L168.516 106.08
L168.532 109.92
L168.544 106.08
L168.544 106.08
L168.672 90.72
L168.707 94.56
L168.81 106.08
L168.811 102.24
L168.836 109.92
L168.847 102.24
L168.847 102.24
L168.892 98.4
L168.895 102.24
L168.895 102.24
L168.902 106.08
L168.908 102.24
L168.908 102.24
L168.993 83.04
L169.031 94.56
L169.041 98.4
L169.042 94.56
L169.042 94.56
L169.068 83.04
L169.091 94.56
L169.091 94.56
L169.1 102.24
L169.136 94.56
L169.136 94.56
L169.164 86.88
L169.237 94.56
L169.389 109.92
L169.39 106.08
L169.403 98.4
L169.413 106.08
L169.413 106.08
L169.502 129.12
L169.553 117.6
L169.56 109.92
L169.587 117.6
L169.587 117.6
L169.632 121.44
L169.658 117.6
L169.76 121.44
L169.763 117.6
L169.815 106.08
L169.88 113.76
L169.884 117.6
L169.888 113.76
L169.888 113.76
L169.903 109.92
L169.924 113.76
L169.924 113.76
L170.021 132.96
L170.086 121.44
L170.215 94.56
L170.225 98.4
L170.268 117.6
L170.301 109.92
L170.341 102.24
L170.35 109.92
L170.35 109.92
L170.369 113.76
L170.377 109.92
L170.377 109.92
L170.513 90.72
L170.539 94.56
L170.549 90.72
L170.549 90.72
L170.581 86.88
L170.6 90.72
L170.768 106.08
L170.771 102.24
L170.772 98.4
L170.787 102.24
L170.787 102.24
L170.8 106.08
L170.81 102.24
L170.81 102.24
L170.818 98.4
L170.82 102.24
L170.82 102.24
L170.897 113.76
L170.908 109.92
L170.95 102.24
L171 109.92
L171.013 113.76
L171.016 109.92
L171.016 109.92
L171.123 94.56
L171.131 98.4
L171.136 94.56
L171.136 94.56
L171.191 83.04
L171.22 90.72
L171.294 109.92
L171.344 94.56
L171.368 90.72
L171.368 94.56
L171.368 94.56
L171.442 98.4
L171.444 94.56
L171.444 94.56
L171.459 90.72
L171.477 94.56
L171.477 94.56
L171.479 98.4
L171.482 94.56
L171.482 94.56
L171.65 56.16
L171.696 60
L171.816 75.36
L171.826 67.68
L171.87 56.16
L171.935 63.84
L172.062 48.48
L172.073 56.16
L172.074 60
L172.093 56.16
L172.093 56.16
L172.1 52.32
L172.144 56.16
L172.144 56.16
L172.153 63.84
L172.16 56.16
L172.16 56.16
L172.246 40.8
L172.278 48.48
L172.38 60
L172.712 98.4
L172.842 109.92
L172.862 106.08
L172.878 109.92
L172.878 109.92
L172.88 113.76
L172.897 109.92
L172.897 109.92
L172.941 102.24
L172.96 109.92
L172.96 109.92
L172.961 113.76
L172.971 109.92
L172.971 109.92
L173.092 98.4
L173.118 102.24
L173.123 106.08
L173.127 102.24
L173.127 102.24
L173.148 98.4
L173.159 102.24
L173.159 102.24
L173.159 106.08
L173.171 102.24
L173.171 102.24
L173.172 98.4
L173.178 102.24
L173.178 102.24
L173.212 113.76
L173.234 102.24
L173.234 102.24
L173.296 94.56
L173.337 102.24
L173.358 113.76
L173.403 109.92
L173.47 102.24
L173.56 79.2
L173.569 86.88
L173.587 83.04
L173.595 86.88
L173.595 86.88
L173.642 90.72
L173.642 86.88
L173.642 86.88
L173.772 67.68
L173.883 90.72
L173.938 83.04
L173.946 79.2
L173.963 83.04
L173.963 83.04
L173.975 86.88
L173.976 83.04
L173.976 83.04
L173.977 79.2
L173.997 83.04
L173.997 83.04
L174.12 102.24
L174.126 98.4
L174.169 106.08
L174.214 98.4
L174.324 75.36
L174.372 86.88
L174.524 106.08
L174.542 102.24
L174.629 94.56
L174.637 98.4
L174.691 106.08
L174.727 98.4
L174.924 60
L174.935 63.84
L175.019 71.52
L175.034 63.84
L175.042 56.16
L175.11 63.84
L175.156 67.68
L175.16 63.84
L175.16 63.84
L175.223 44.64
L175.273 56.16
L175.275 60
L175.275 56.16
L175.275 56.16
L175.382 29.28
L175.401 36.96
L175.424 33.12
L175.43 36.96
L175.43 36.96
L175.661 86.88
L175.671 83.04
L175.712 67.68
L175.765 79.2
L175.882 94.56
L175.901 86.88
L175.929 79.2
L176.008 86.88
L176.054 90.72
L176.056 86.88
L176.056 86.88
L176.17 75.36
L176.171 79.2
L176.183 83.04
L176.19 79.2
L176.19 79.2
L176.201 67.68
L176.22 79.2
L176.22 79.2
L176.245 90.72
L176.319 83.04
L176.377 86.88
L176.4 83.04
L176.452 79.2
L176.475 83.04
L176.48 90.72
L176.498 83.04
L176.498 83.04
L176.499 79.2
L176.503 83.04
L176.503 83.04
L176.517 86.88
L176.518 83.04
L176.518 83.04
L176.67 56.16
L176.674 60
L176.694 67.68
L176.705 60
L176.705 60
L176.748 56.16
L176.757 60
L176.757 60
L176.812 67.68
L176.848 63.84
L176.996 56.16
L177.177 83.04
L177.192 79.2
L177.222 83.04
L177.222 83.04
L177.344 106.08
L177.346 102.24
L177.409 86.88
L177.441 102.24
L177.616 121.44
L177.645 113.76
L177.663 121.44
L177.663 121.44
L177.768 144.48
L177.817 140.64
L177.819 144.48
L177.819 144.48
L177.911 152.16
L177.929 148.32
L178.081 125.28
L178.136 129.12
L178.228 144.48
L178.237 148.32
L178.238 144.48
L178.238 144.48
L178.378 125.28
L178.401 121.44
L178.414 125.28
L178.414 125.28
L178.42 129.12
L178.422 125.28
L178.422 125.28
L178.423 121.44
L178.438 125.28
L178.438 125.28
L178.555 136.8
L178.652 144.48
L178.669 140.64
L178.725 132.96
L178.777 136.8
L178.799 140.64
L178.807 136.8
L178.807 136.8
L178.85 129.12
L178.86 132.96
L178.942 136.8
L178.947 132.96
L178.949 129.12
L178.958 132.96
L178.958 132.96
L178.962 136.8
L178.971 132.96
L178.971 132.96
L179.104 117.6
L179.133 121.44
L179.155 117.6
L179.155 117.6
L179.193 98.4
L179.261 117.6
L179.268 121.44
L179.28 117.6
L179.28 117.6
L179.352 102.24
L179.426 98.4
L179.436 102.24
L179.462 117.6
L179.528 102.24
L179.528 102.24
L179.677 83.04
L179.729 94.56
L179.797 90.72
L179.839 102.24
L179.917 94.56
L180.011 83.04
L180.037 90.72
L180.053 86.88
L180.084 90.72
L180.084 90.72
L180.358 121.44
L180.411 109.92
L180.455 121.44
L180.46 125.28
L180.495 121.44
L180.495 121.44
L180.532 117.6
L180.535 121.44
L180.535 121.44
L180.637 144.48
L180.751 140.64
L180.762 136.8
L180.769 140.64
L180.769 140.64
L180.786 144.48
L180.795 140.64
L180.795 140.64
L180.871 121.44
L180.89 117.6
L180.905 121.44
L180.905 121.44
L180.942 125.28
L180.947 121.44
L180.947 121.44
L180.976 109.92
L181.015 121.44
L181.015 121.44
L181.018 125.28
L181.024 121.44
L181.024 121.44
L181.116 109.92
L181.162 113.76
L181.251 136.8
L181.279 129.12
L181.38 106.08
L181.419 117.6
L181.452 125.28
L181.461 117.6
L181.461 117.6
L181.572 83.04
L181.584 90.72
L181.604 83.04
L181.604 83.04
L181.611 79.2
L181.612 83.04
L181.612 83.04
L181.657 90.72
L181.716 86.88
L181.733 83.04
L181.766 86.88
L181.766 86.88
L181.77 90.72
L181.79 86.88
L181.79 86.88
L181.805 83.04
L181.805 86.88
L181.805 86.88
L181.903 109.92
L181.921 102.24
L181.965 109.92
L181.977 102.24
L181.977 102.24
L181.999 98.4
L182.001 102.24
L182.001 102.24
L182.005 106.08
L182.008 102.24
L182.008 102.24
L182.205 79.2
L182.293 94.56
L182.316 83.04
L182.393 63.84
L182.423 67.68
L182.482 79.2
L182.54 71.52
L182.708 102.24
L182.728 86.88
L182.789 67.68
L182.835 56.16
L182.875 63.84
L182.916 56.16
L182.953 63.84
L182.987 67.68
L183 63.84
L183 63.84
L183.081 44.64
L183.132 56.16
L183.217 67.68
L183.246 60
L183.298 63.84
L183.307 60
L183.307 60
L183.34 44.64
L183.406 60
L183.525 83.04
L183.57 86.88
L183.627 83.04
L183.633 79.2
L183.637 83.04
L183.637 83.04
L183.678 98.4
L183.705 83.04
L183.705 83.04
L183.831 60
L183.927 83.04
L183.941 75.36
L183.979 83.04
L183.989 75.36
L183.989 75.36
L183.99 71.52
L183.993 75.36
L183.993 75.36
L183.993 79.2
L183.995 75.36
L183.995 75.36
L184.041 60
L184.106 67.68
L184.113 71.52
L184.144 67.68
L184.144 67.68
L184.173 63.84
L184.183 67.68
L184.183 67.68
L184.284 86.88
L184.287 83.04
L184.476 106.08
L184.497 102.24
L184.509 98.4
L184.518 102.24
L184.518 102.24
L184.586 113.76
L184.63 106.08
L184.747 86.88
L184.778 94.56
L184.801 113.76
L184.873 109.92
L184.952 94.56
L185.012 106.08
L185.014 109.92
L185.02 106.08
L185.02 106.08
L185.043 98.4
L185.074 106.08
L185.074 106.08
L185.149 109.92
L185.154 106.08
L185.154 106.08
L185.2 94.56
L185.245 106.08
L185.558 156
L185.573 148.32
L185.767 109.92
L185.825 117.6
L185.871 113.76
L185.917 102.24
L185.931 113.76
L185.931 113.76
L186.06 129.12
L186.216 106.08
L186.238 113.76
L186.241 117.6
L186.259 113.76
L186.259 113.76
L186.29 102.24
L186.38 109.92
L186.483 140.64
L186.514 132.96
L186.62 117.6
L186.634 121.44
L186.804 152.16
L186.81 148.32
L186.927 140.64
L187.177 109.92
L187.322 79.2
L187.327 83.04
L187.363 86.88
L187.363 83.04
L187.363 83.04
L187.388 79.2
L187.398 83.04
L187.398 83.04
L187.52 98.4
L187.527 94.56
L187.568 90.72
L187.576 94.56
L187.576 94.56
L187.691 106.08
L187.694 102.24
L188.05 33.12
L188.053 36.96
L188.171 79.2
L188.191 75.36
L188.206 71.52
L188.211 75.36
L188.211 75.36
L188.269 98.4
L188.319 86.88
L188.553 44.64
L188.585 52.32
L188.635 63.84
L188.656 52.32
L188.656 52.32
L188.711 44.64
L188.774 48.48
L188.87 56.16
L188.884 48.48
L188.902 40.8
L188.937 48.48
L188.937 48.48
L189.023 63.84
L189.064 56.16
L189.074 52.32
L189.077 56.16
L189.077 56.16
L189.086 60
L189.088 56.16
L189.088 56.16
L189.114 52.32
L189.119 56.16
L189.119 56.16
L189.145 67.68
L189.188 56.16
L189.188 56.16
L189.204 52.32
L189.223 56.16
L189.223 56.16
L189.343 79.2
L189.381 71.52
L189.409 67.68
L189.419 71.52
L189.419 71.52
L189.704 121.44
L189.746 113.76
L189.764 121.44
L189.764 121.44
L189.932 136.8
L190.034 121.44
L190.161 109.92
L190.265 125.28
L190.267 121.44
L190.336 109.92
L190.361 117.6
L190.451 121.44
L190.459 117.6
L190.551 106.08
L190.569 109.92
L190.572 113.76
L190.582 109.92
L190.582 109.92
L190.818 79.2
L190.909 63.84
L190.933 71.52
L190.958 86.88
L191.036 71.52
L191.043 63.84
L191.054 71.52
L191.054 71.52
L191.152 90.72
L191.177 86.88
L191.329 52.32
L191.44 63.84
L191.443 60
L191.483 52.32
L191.485 60
L191.485 60
L191.517 75.36
L191.562 60
L191.562 60
L191.661 48.48
L191.668 56.16
L191.673 60
L191.677 56.16
L191.677 56.16
L191.783 36.96
L191.807 29.28
L191.828 36.96
L191.828 36.96
L191.944 48.48
L192.144 79.2
L192.191 67.68
L192.219 79.2
L192.219 79.2
L192.293 94.56
L192.328 79.2
L192.38 63.84
L192.417 79.2
L192.417 79.2
L192.57 90.72
L192.856 60
L192.864 67.68
L193.011 94.56
L193.015 90.72
L193.016 94.56
L193.016 94.56
L193.093 117.6
L193.19 106.08
L193.23 94.56
L193.301 106.08
L193.385 113.76
L193.391 106.08
L193.514 83.04
L193.53 90.72
L193.58 86.88
L193.583 90.72
L193.583 90.72
L193.597 106.08
L193.624 90.72
L193.624 90.72
L193.651 83.04
L193.675 90.72
L193.675 90.72
L193.85 125.28
L193.886 117.6
L193.92 109.92
L193.94 117.6
L193.94 117.6
L194.054 129.12
L194.161 109.92
L194.205 117.6
L194.283 129.12
L194.309 117.6
L194.394 144.48
L194.394 144.48" style="fill:none;stroke:#0000ff;stroke-linecap:square;"/>
   </g>
   <g id="matplotlib.axis_1">
    <g id="text_1">
     <!-- $t$ -->
     <defs>
      <path d="
M1.79688 38.5938
L10.2031 38.5938
L10.2031 11.7031
C10.2031 0.703125 15.0938 -1.09375 18.4062 -1.09375
C22.9062 -1.09375 28 -0.09375 33.2031 2.70312
L31.5938 8.59375
C30.2031 7.59375 27.0938 5.29688 22.7969 5.29688
C17.5938 5.29688 17.4062 11.2031 17.4062 14
L17.4062 38.5938
L31.5 38.5938
L31.5 44.5
L17.4062 44.5
L17.4062 57.0938
L10.4062 57.0938
L10.4062 44.5
L1.79688 44.5
z
" id="CMUSansSerif-74"/>
     </defs>
     <g transform="translate(108.48 208.064375)scale(0.12 -0.12)">
      <use transform="translate(0.0 0.90625)" xlink:href="#CMUSansSerif-74"/>
     </g>
    </g>
   </g>
   <g id="matplotlib.axis_2">
    <g id="text_2">
     <!-- $n(t)$ -->
     <defs>
      <path d="
M8 0
L15.7969 0
L15.7969 24
C15.7969 31.4062 18.2969 39.4062 26 39.4062
C35.7969 39.4062 35.7969 31.9062 35.7969 28.0938
L35.7969 0
L43.5938 0
L43.5938 28.7969
C43.5938 35.7969 42.7031 45.5 29.9062 45.5
C21.0938 45.5 16.7031 39.7969 15.2969 38
L15.2969 45
L8 45
z
" id="CMUSansSerif-6e"/>
      <path d="
M5.5 -25
L11.5938 -25
C18.4062 -18.9062 30.7969 -5.09375 30.7969 25.0938
C30.7969 55 18.4062 68.9062 11.5938 75
L5.5 75
C10.2031 70 23 57.7031 23 25
C23 -6.40625 11.5 -18.5938 5.5 -25" id="CMUSansSerif-29"/>
      <path d="
M8 25
C8 -5.40625 20.7031 -19.2031 27.0938 -25
L33.2969 -25
L30.0938 -21.5938
C18.4062 -8.09375 15.7969 10.2969 15.7969 25
C15.7969 38.7031 18.0938 52.9062 25.2031 64.7969
C28.0938 69.7031 30.4062 71.9062 33.2969 75
L27.0938 75
C20.2969 68.9062 8 55.0938 8 25" id="CMUSansSerif-28"/>
     </defs>
     <g transform="translate(19.0 117.96)rotate(-90.0)scale(0.12 -0.12)">
      <use xlink:href="#CMUSansSerif-6e"/>
      <use transform="translate(51.69999694824219 0.0)" xlink:href="#CMUSansSerif-28"/>
      <use transform="translate(90.59999084472656 0.0)" xlink:href="#CMUSansSerif-74"/>
      <use transform="translate(126.69998168945312 0.0)" xlink:href="#CMUSansSerif-29"/>
     </g>
    </g>
   </g>
   <g id="patch_3">
    <path d="
M194.4 194.4
L194.4 21.6" style="fill:none;stroke:#000000;"/>
   </g>
   <g id="patch_4">
    <path d="
M27 21.6
L194.4 21.6" style="fill:none;stroke:#000000;"/>
   </g>
   <g id="patch_5">
    <path d="
M27 194.4
L27 21.6" style="fill:none;stroke:#000000;"/>
   </g>
   <g id="patch_6">
    <path d="
M27 194.4
L194.4 194.4" style="fill:none;stroke:#000000;"/>
   </g>
  </g>
 </g>
 <defs>
  <clipPath id="p4c72f1c596">
   <rect height="172.8" width="167.4" x="27.0" y="21.6"/>
  </clipPath>
 </defs>
</svg>
