<?xml version="1.0" encoding="utf-8" standalone="no"?>
<!DOCTYPE svg PUBLIC "-//W3C//DTD SVG 1.1//EN"
  "http://www.w3.org/Graphics/SVG/1.1/DTD/svg11.dtd">
<!-- Created with matplotlib (http://matplotlib.org/) -->
<svg height="216pt" version="1.1" viewBox="0 0 216 216" width="216pt" xmlns="http://www.w3.org/2000/svg" xmlns:xlink="http://www.w3.org/1999/xlink">
 <defs>
  <style type="text/css">
*{stroke-linecap:butt;stroke-linejoin:round;}
  </style>
 </defs>
 <g id="figure_1">
  <g id="patch_1">
   <path d="
M0 216
L216 216
L216 0
L0 0
z
" style="fill:#ffffff;"/>
  </g>
  <g id="axes_1">
   <g id="patch_2">
    <path d="
M27 194.4
L194.4 194.4
L194.4 21.6
L27 21.6
z
" style="fill:#ffffff;"/>
   </g>
   <g id="line2d_1">
    <path clip-path="url(#p4c72f1c596)" d="
M27 194.4
L27.1087 166.752
L27.2001 156.384
L27.3124 152.928
L27.3127 156.384
L27.3303 152.928
L27.3303 152.928
L27.4761 128.736
L27.7243 94.176
L27.8667 66.528
L27.8827 73.44
L28.0726 94.176
L28.0876 90.72
L28.0918 87.264
L28.0919 90.72
L28.0919 90.72
L28.1375 104.544
L28.1745 90.72
L28.222 83.808
L28.23 90.72
L28.23 90.72
L28.2799 101.088
L28.3234 90.72
L28.4015 76.896
L28.4175 87.264
L28.4446 90.72
L28.4664 87.264
L28.4664 87.264
L28.55 76.896
L28.5645 80.352
L28.5895 83.808
L28.5908 80.352
L28.5908 80.352
L28.6716 76.896
L28.6719 80.352
L28.7244 90.72
L28.7953 83.808
L28.9199 73.44
L28.9433 90.72
L29.0159 73.44
L29.0386 69.984
L29.0467 73.44
L29.0467 73.44
L29.0912 80.352
L29.0998 73.44
L29.1774 69.984
L29.191 73.44
L29.1973 76.896
L29.2005 73.44
L29.2005 73.44
L29.3462 49.248
L29.3557 59.616
L29.3961 66.528
L29.4343 59.616
L29.4343 59.616
L29.4894 52.704
L29.5244 59.616
L29.6435 69.984
L29.6473 66.528
L29.6583 63.072
L29.6683 66.528
L29.6683 66.528
L29.7628 83.808
L29.7847 76.896
L29.821 80.352
L29.823 76.896
L29.823 76.896
L29.8381 73.44
L29.8552 76.896
L29.8552 76.896
L29.9083 87.264
L29.9397 80.352
L29.9808 76.896
L29.9845 80.352
L29.9845 80.352
L30.0098 87.264
L30.0142 80.352
L30.0142 80.352
L30.1437 73.44
L30.243 83.808
L30.2694 80.352
L30.2864 76.896
L30.2912 80.352
L30.2912 80.352
L30.3181 83.808
L30.3235 80.352
L30.3928 76.896
L30.4079 80.352
L30.4825 90.72
L30.5063 87.264
L30.5754 97.632
L30.6173 87.264
L30.7901 66.528
L30.8089 69.984
L30.8211 73.44
L30.8217 69.984
L30.8217 69.984
L30.8405 66.528
L30.8555 69.984
L30.8555 69.984
L30.9749 94.176
L30.9945 80.352
L31.0193 83.808
L31.0236 80.352
L31.0236 80.352
L31.037 76.896
L31.0378 80.352
L31.0378 80.352
L31.1544 94.176
L31.1622 90.72
L31.3304 63.072
L31.3356 59.616
L31.3411 63.072
L31.3411 63.072
L31.4836 87.264
L31.5333 76.896
L31.5919 69.984
L31.6439 73.44
L31.6636 69.984
L31.6663 73.44
L31.6663 73.44
L31.7041 80.352
L31.752 73.44
L31.752 73.44
L31.7958 59.616
L31.8479 66.528
L31.8846 73.44
L31.9153 69.984
L32.0057 63.072
L32.0199 66.528
L32.0413 69.984
L32.0466 66.528
L32.0466 66.528
L32.0474 63.072
L32.0513 66.528
L32.0513 66.528
L32.1409 76.896
L32.1645 73.44
L32.1845 69.984
L32.1852 73.44
L32.1852 73.44
L32.4308 108
L32.435 104.544
L32.442 108
L32.442 108
L32.5501 114.912
L32.5513 111.456
L32.6609 97.632
L32.7203 101.088
L32.7443 97.632
L32.7443 97.632
L32.8633 73.44
L32.9673 87.264
L32.9896 80.352
L33.0003 76.896
L33.0109 80.352
L33.0109 80.352
L33.1265 108
L33.2595 80.352
L33.3107 83.808
L33.3365 90.72
L33.3389 83.808
L33.3389 83.808
L33.3736 76.896
L33.4063 83.808
L33.4063 83.808
L33.411 87.264
L33.4181 83.808
L33.4181 83.808
L33.4912 69.984
L33.5224 80.352
L33.5533 87.264
L33.5686 80.352
L33.5686 80.352
L33.5882 76.896
L33.5953 80.352
L33.5953 80.352
L33.6028 83.808
L33.6301 80.352
L33.6301 80.352
L33.7598 69.984
L33.8869 83.808
L33.8991 87.264
L33.9004 83.808
L33.9004 83.808
L33.903 80.352
L33.9059 83.808
L33.9059 83.808
L34.0371 94.176
L34.0648 90.72
L34.1436 80.352
L34.1667 87.264
L34.3173 63.072
L34.3518 66.528
L34.3625 69.984
L34.3711 66.528
L34.3711 66.528
L34.4456 49.248
L34.5192 56.16
L34.6283 69.984
L34.7847 49.248
L34.8174 56.16
L34.8405 59.616
L34.848 56.16
L34.848 56.16
L34.9368 42.336
L34.9609 49.248
L35.0643 35.424
L35.0668 38.88
L35.1723 49.248
L35.1816 42.336
L35.217 31.968
L35.2393 42.336
L35.2393 42.336
L35.2481 45.792
L35.2589 42.336
L35.2589 42.336
L35.3779 31.968
L35.3917 38.88
L35.4825 56.16
L35.5373 52.704
L35.6129 63.072
L35.6693 59.616
L35.6817 56.16
L35.6961 59.616
L35.6961 59.616
L35.7819 63.072
L35.7841 59.616
L35.7841 59.616
L35.8842 45.792
L35.9208 49.248
L35.9235 45.792
L35.9235 45.792
L36.0231 25.056
L36.0462 31.968
L36.1041 49.248
L36.1651 42.336
L36.2672 35.424
L36.2684 38.88
L36.4377 66.528
L36.4393 59.616
L36.5889 42.336
L36.6125 45.792
L36.6974 56.16
L36.716 52.704
L36.7326 49.248
L36.7452 52.704
L36.7452 52.704
L36.9135 69.984
L37.0965 80.352
L37.1005 76.896
L37.1168 73.44
L37.1309 76.896
L37.1309 76.896
L37.1548 83.808
L37.1753 76.896
L37.1753 76.896
L37.3918 59.616
L37.5404 80.352
L37.5618 73.44
L37.7098 49.248
L37.7398 56.16
L37.7638 63.072
L37.7752 56.16
L37.7752 56.16
L37.7955 52.704
L37.8104 56.16
L37.8104 56.16
L37.8257 63.072
L37.8881 56.16
L37.8881 56.16
L37.9801 38.88
L37.9939 45.792
L38.0212 52.704
L38.0536 45.792
L38.0536 45.792
L38.098 31.968
L38.1246 45.792
L38.1246 45.792
L38.1616 52.704
L38.1873 45.792
L38.1873 45.792
L38.2043 35.424
L38.2548 45.792
L38.2548 45.792
L38.2589 49.248
L38.2726 45.792
L38.2726 45.792
L38.3265 38.88
L38.3325 45.792
L38.3325 45.792
L38.3559 49.248
L38.3714 45.792
L38.3714 45.792
L38.3859 42.336
L38.3895 45.792
L38.3895 45.792
L38.4515 52.704
L38.4765 45.792
L38.5175 59.616
L38.6767 80.352
L38.7303 69.984
L38.7686 76.896
L38.9178 94.176
L38.9295 87.264
L39.1185 69.984
L39.126 76.896
L39.1457 80.352
L39.1548 76.896
L39.1548 76.896
L39.2323 63.072
L39.283 73.44
L39.3015 76.896
L39.319 73.44
L39.319 73.44
L39.3306 69.984
L39.3433 73.44
L39.3433 73.44
L39.4688 83.808
L39.4766 76.896
L39.4864 73.44
L39.4994 76.896
L39.4994 76.896
L39.5059 80.352
L39.5128 76.896
L39.5128 76.896
L39.6064 69.984
L39.6216 76.896
L39.6967 90.72
L39.7319 83.808
L39.7676 90.72
L39.7752 83.808
L39.7752 83.808
L39.956 66.528
L39.9565 69.984
L39.9949 83.808
L40.0554 69.984
L40.0874 80.352
L40.1521 69.984
L40.2086 63.072
L40.2387 69.984
L40.2387 69.984
L40.4106 94.176
L40.4685 83.808
L40.4815 94.176
L40.4815 94.176
L40.579 104.544
L40.5924 94.176
L40.7161 73.44
L40.7835 69.984
L40.7845 73.44
L40.7845 73.44
L40.7923 76.896
L40.7965 73.44
L40.7965 73.44
L40.8243 69.984
L40.8286 73.44
L40.8286 73.44
L40.836 76.896
L40.837 73.44
L40.837 73.44
L40.9115 52.704
L40.926 56.16
L40.9808 45.792
L41.0396 38.88
L41.0479 45.792
L41.0479 45.792
L41.1443 59.616
L41.171 52.704
L41.2921 42.336
L41.3612 52.704
L41.3723 45.792
L41.412 38.88
L41.4367 45.792
L41.4367 45.792
L41.5502 59.616
L41.5594 56.16
L41.5653 59.616
L41.5653 59.616
L41.5865 63.072
L41.5934 59.616
L41.5934 59.616
L41.6041 56.16
L41.6059 59.616
L41.6059 59.616
L41.7504 83.808
L41.7529 80.352
L41.9079 45.792
L42.0318 52.704
L42.0348 49.248
L42.056 45.792
L42.0673 49.248
L42.0673 49.248
L42.1749 63.072
L42.1839 59.616
L42.2042 52.704
L42.2428 59.616
L42.2428 59.616
L42.3692 80.352
L42.3922 69.984
L42.4208 73.44
L42.427 69.984
L42.427 69.984
L42.4523 66.528
L42.4689 69.984
L42.4689 69.984
L42.4826 73.44
L42.4831 69.984
L42.4831 69.984
L42.4964 66.528
L42.4983 69.984
L42.4983 69.984
L42.5025 73.44
L42.5067 69.984
L42.5067 69.984
L42.5068 66.528
L42.5153 69.984
L42.5153 69.984
L42.6007 87.264
L42.627 83.808
L42.6731 80.352
L42.6798 83.808
L42.6798 83.808
L42.7992 94.176
L42.8294 90.72
L42.8308 94.176
L42.8308 94.176
L42.8516 104.544
L42.9284 101.088
L43.061 90.72
L43.0703 94.176
L43.163 114.912
L43.2499 121.824
L43.2788 118.368
L43.3994 101.088
L43.4046 104.544
L43.4186 108
L43.42 104.544
L43.42 104.544
L43.4271 97.632
L43.4801 104.544
L43.4801 104.544
L43.4882 108
L43.5053 104.544
L43.5053 104.544
L43.6249 80.352
L43.6529 83.808
L43.69 101.088
L43.7048 108
L43.7108 101.088
L43.7108 101.088
L43.7526 97.632
L43.7716 101.088
L43.7716 101.088
L43.7951 104.544
L43.7974 101.088
L43.7974 101.088
L43.8054 94.176
L43.8104 101.088
L43.8104 101.088
L43.834 104.544
L43.8438 101.088
L43.8438 101.088
L43.8953 87.264
L43.9323 94.176
L43.9819 97.632
L43.996 94.176
L44.003 90.72
L44.0215 94.176
L44.0215 94.176
L44.235 104.544
L44.2532 101.088
L44.3411 83.808
L44.3465 87.264
L44.462 97.632
L44.4853 94.176
L44.6612 73.44
L44.6889 80.352
L44.7768 97.632
L44.8063 94.176
L44.8118 97.632
L44.8146 94.176
L44.8146 94.176
L44.8181 90.72
L44.8317 94.176
L44.8317 94.176
L44.8591 97.632
L44.8756 94.176
L44.8756 94.176
L44.8787 90.72
L44.8841 94.176
L44.8841 94.176
L44.9736 108
L44.9995 101.088
L45.1285 90.72
L45.2458 111.456
L45.2641 108
L45.3213 83.808
L45.3845 101.088
L45.4523 108
L45.4592 101.088
L45.4592 101.088
L45.4687 97.632
L45.4743 101.088
L45.4743 101.088
L45.4951 108
L45.5098 101.088
L45.5098 101.088
L45.5103 97.632
L45.543 101.088
L45.543 101.088
L45.574 104.544
L45.5802 101.088
L45.5802 101.088
L45.7332 73.44
L45.7817 80.352
L45.8094 73.44
L45.8094 73.44
L45.8131 69.984
L45.8132 73.44
L45.8132 73.44
L45.8134 76.896
L45.8281 73.44
L45.8281 73.44
L45.8309 69.984
L45.8366 73.44
L45.8366 73.44
L45.9245 83.808
L45.9373 73.44
L45.9373 73.44
L45.9793 59.616
L46.0398 63.072
L46.1835 45.792
L46.2182 49.248
L46.2918 59.616
L46.3272 56.16
L46.4545 38.88
L46.4667 42.336
L46.578 52.704
L46.7246 73.44
L46.7721 63.072
L46.8124 56.16
L46.8183 63.072
L46.8183 63.072
L46.9005 76.896
L46.9296 69.984
L46.963 66.528
L46.9663 69.984
L46.9663 69.984
L46.9944 73.44
L46.9963 69.984
L46.9963 69.984
L47.0153 59.616
L47.0667 69.984
L47.0667 69.984
L47.0697 73.44
L47.0751 69.984
L47.0751 69.984
L47.0762 66.528
L47.0817 69.984
L47.0817 69.984
L47.2577 97.632
L47.2903 90.72
L47.2957 97.632
L47.2957 97.632
L47.4129 111.456
L47.4374 104.544
L47.4773 97.632
L47.5388 104.544
L47.5648 101.088
L47.5695 104.544
L47.5695 104.544
L47.6464 128.736
L47.6827 121.824
L47.8196 101.088
L47.9078 83.808
L47.9817 94.176
L48.0577 101.088
L48.0912 97.632
L48.2053 118.368
L48.2718 111.456
L48.3686 114.912
L48.3732 111.456
L48.4906 90.72
L48.5028 97.632
L48.602 94.176
L48.8173 108
L48.8179 104.544
L48.8343 101.088
L48.8486 104.544
L48.8486 104.544
L48.8551 108
L48.8869 104.544
L48.8869 104.544
L48.8903 101.088
L48.8913 104.544
L48.8913 104.544
L48.8936 108
L48.9026 104.544
L48.9026 104.544
L48.9342 94.176
L49.0197 101.088
L49.1388 111.456
L49.1426 108
L49.1507 104.544
L49.1566 108
L49.1566 108
L49.1813 114.912
L49.1858 108
L49.1858 108
L49.1893 104.544
L49.1929 108
L49.1929 108
L49.1966 111.456
L49.2035 108
L49.2035 108
L49.2153 104.544
L49.2189 108
L49.2189 108
L49.2876 114.912
L49.2989 108
L49.397 83.808
L49.3992 80.352
L49.3993 83.808
L49.3993 83.808
L49.4591 104.544
L49.5487 97.632
L49.6661 118.368
L49.7428 108
L49.7784 90.72
L49.8542 97.632
L49.9119 104.544
L49.9338 97.632
L49.9338 97.632
L50.0602 73.44
L50.1911 94.176
L50.24 87.264
L50.2507 80.352
L50.2718 87.264
L50.2718 87.264
L50.2917 94.176
L50.3178 87.264
L50.3178 87.264
L50.3895 66.528
L50.4322 83.808
L50.505 101.088
L50.5771 94.176
L50.5818 90.72
L50.5838 94.176
L50.5838 94.176
L50.5935 97.632
L50.5943 94.176
L50.5943 94.176
L50.722 80.352
L50.81 90.72
L50.8287 80.352
L50.92 69.984
L50.9344 73.44
L51.06 52.704
L51.151 56.16
L51.1909 59.616
L51.195 56.16
L51.195 56.16
L51.2428 45.792
L51.2678 56.16
L51.4217 73.44
L51.4862 80.352
L51.5089 73.44
L51.5089 73.44
L51.5364 66.528
L51.5568 73.44
L51.5568 73.44
L51.6173 80.352
L51.6638 76.896
L51.69 80.352
L51.6977 76.896
L51.6977 76.896
L51.7101 73.44
L51.7121 76.896
L51.7121 76.896
L51.8314 108
L51.8841 97.632
L51.9567 90.72
L51.9874 87.264
L52.0005 90.72
L52.0005 90.72
L52.1478 121.824
L52.4153 94.176
L52.444 101.088
L52.5456 125.28
L52.6086 114.912
L52.8263 97.632
L52.8447 101.088
L52.8864 97.632
L52.8864 97.632
L52.9364 80.352
L53.0162 87.264
L53.1504 101.088
L53.2623 90.72
L53.2728 87.264
L53.2816 90.72
L53.2816 90.72
L53.3244 101.088
L53.3629 90.72
L53.3629 90.72
L53.4704 59.616
L53.4955 69.984
L53.6949 97.632
L53.7374 83.808
L53.8922 94.176
L53.9065 90.72
L53.9372 83.808
L53.9877 90.72
L53.9877 90.72
L54.0606 97.632
L54.0911 90.72
L54.2849 73.44
L54.3443 76.896
L54.3537 73.44
L54.4858 56.16
L54.5045 63.072
L54.5249 56.16
L54.5249 56.16
L54.5507 52.704
L54.5567 56.16
L54.5567 56.16
L54.569 59.616
L54.6243 56.16
L54.6243 56.16
L54.6693 49.248
L54.6845 56.16
L54.6845 56.16
L54.6874 59.616
L54.6918 56.16
L54.6918 56.16
L54.7266 52.704
L54.7572 56.16
L54.7572 56.16
L54.777 59.616
L54.7776 56.16
L54.7776 56.16
L54.7871 52.704
L54.8001 56.16
L54.8001 56.16
L54.938 76.896
L55.0707 63.072
L55.0829 66.528
L55.1325 80.352
L55.2014 69.984
L55.2563 59.616
L55.318 66.528
L55.3328 59.616
L55.3703 66.528
L55.3703 66.528
L55.4631 80.352
L55.4637 76.896
L55.6468 94.176
L55.6504 90.72
L55.7989 80.352
L55.8041 83.808
L55.8716 90.72
L55.9202 87.264
L55.966 80.352
L55.976 87.264
L55.976 87.264
L56.0207 94.176
L56.0283 87.264
L56.0283 87.264
L56.2149 59.616
L56.231 73.44
L56.2438 80.352
L56.2445 73.44
L56.2445 73.44
L56.2703 69.984
L56.2792 73.44
L56.2792 73.44
L56.3282 80.352
L56.3786 73.44
L56.3839 69.984
L56.3922 73.44
L56.3922 73.44
L56.515 104.544
L56.5321 101.088
L56.5371 104.544
L56.5371 104.544
L56.6133 118.368
L56.6352 114.912
L56.7511 132.192
L56.8004 125.28
L56.8345 121.824
L56.8375 125.28
L56.8375 125.28
L56.853 128.736
L56.8863 125.28
L56.8863 125.28
L57.0754 104.544
L57.0861 111.456
L57.1021 118.368
L57.1387 111.456
L57.1387 111.456
L57.2625 94.176
L57.3003 104.544
L57.3648 121.824
L57.3812 125.28
L57.3994 121.824
L57.3994 121.824
L57.5003 101.088
L57.5039 104.544
L57.5631 97.632
L57.5728 104.544
L57.6015 108
L57.6241 104.544
L57.6241 104.544
L57.7636 94.176
L57.914 80.352
L57.9214 87.264
L57.9281 90.72
L57.9399 87.264
L57.9399 87.264
L58.0693 76.896
L58.1287 73.44
L58.1779 76.896
L58.273 94.176
L58.4135 69.984
L58.4275 80.352
L58.5649 104.544
L58.5722 97.632
L58.6873 83.808
L58.6986 87.264
L58.724 83.808
L58.7325 87.264
L58.7325 87.264
L58.7544 94.176
L58.7696 87.264
L58.7696 87.264
L58.855 66.528
L58.887 69.984
L59.0492 90.72
L59.0652 87.264
L59.1508 76.896
L59.1813 83.808
L59.2886 104.544
L59.3089 90.72
L59.3358 94.176
L59.3363 90.72
L59.3363 90.72
L59.4657 66.528
L59.487 80.352
L59.5107 87.264
L59.5286 80.352
L59.5286 80.352
L59.5418 73.44
L59.5497 80.352
L59.5497 80.352
L59.6133 83.808
L59.6191 80.352
L59.6191 80.352
L59.6317 76.896
L59.637 80.352
L59.637 80.352
L59.6417 83.808
L59.6525 80.352
L59.6525 80.352
L59.6654 76.896
L59.6676 80.352
L59.6676 80.352
L59.8318 97.632
L59.9757 63.072
L60.1047 69.984
L60.1486 59.616
L60.1705 69.984
L60.1705 69.984
L60.275 80.352
L60.2855 76.896
L60.4255 56.16
L60.4645 63.072
L60.5749 76.896
L60.6698 66.528
L60.7058 73.44
L60.7541 80.352
L60.7802 73.44
L61.0118 45.792
L61.0363 59.616
L61.1503 76.896
L61.2128 73.44
L61.2272 76.896
L61.324 83.808
L61.3566 80.352
L61.4797 66.528
L61.6118 90.72
L61.6846 80.352
L61.7169 73.44
L61.7449 80.352
L61.7449 80.352
L61.8677 87.264
L61.8852 80.352
L61.9293 87.264
L61.9293 87.264
L61.9731 94.176
L62.005 87.264
L62.0507 80.352
L62.0876 87.264
L62.1774 101.088
L62.1972 90.72
L62.4046 118.368
L62.4534 101.088
L62.5147 118.368
L62.5663 128.736
L62.6222 121.824
L62.6502 118.368
L62.6612 121.824
L62.6612 121.824
L62.6904 128.736
L62.7561 121.824
L62.7877 118.368
L62.7895 121.824
L62.7895 121.824
L62.852 125.28
L62.8634 121.824
L62.8634 121.824
L62.87 118.368
L62.8718 121.824
L62.8718 121.824
L62.8941 128.736
L62.9529 121.824
L63.0583 108
L63.1124 114.912
L63.1389 118.368
L63.1452 114.912
L63.1452 114.912
L63.1936 111.456
L63.1964 114.912
L63.3189 118.368
L63.4049 111.456
L63.4159 118.368
L63.4431 121.824
L63.4521 118.368
L63.4521 118.368
L63.5206 104.544
L63.5831 111.456
L63.7082 121.824
L63.712 118.368
L63.7181 114.912
L63.7217 118.368
L63.7217 118.368
L63.7244 121.824
L63.7316 118.368
L63.7316 118.368
L63.753 114.912
L63.7635 118.368
L63.7635 118.368
L63.9316 128.736
L63.933 125.28
L64.0164 114.912
L64.0385 118.368
L64.0661 125.28
L64.1392 118.368
L64.1616 114.912
L64.1848 118.368
L64.1848 118.368
L64.1963 121.824
L64.2217 118.368
L64.2217 118.368
L64.2617 101.088
L64.336 114.912
L64.4303 121.824
L64.444 118.368
L64.627 87.264
L64.6436 90.72
L64.8137 104.544
L64.8342 97.632
L64.8917 87.264
L64.9173 90.72
L65.055 80.352
L65.0811 83.808
L65.1145 90.72
L65.1384 83.808
L65.1384 83.808
L65.1563 80.352
L65.1574 83.808
L65.1574 83.808
L65.158 87.264
L65.1663 83.808
L65.1663 83.808
L65.2454 76.896
L65.3009 73.44
L65.3014 76.896
L65.4151 83.808
L65.4223 80.352
L65.4368 83.808
L65.4368 83.808
L65.453 94.176
L65.51 83.808
L65.51 83.808
L65.5104 80.352
L65.5281 83.808
L65.5281 83.808
L65.6953 121.824
L65.7728 108
L65.8647 104.544
L65.8782 108
L65.9821 114.912
L65.9914 111.456
L66.0525 90.72
L66.1548 94.176
L66.1598 97.632
L66.1829 94.176
L66.1829 94.176
L66.1854 90.72
L66.1936 94.176
L66.1936 94.176
L66.1963 97.632
L66.205 94.176
L66.205 94.176
L66.2768 80.352
L66.302 83.808
L66.3749 104.544
L66.4512 90.72
L66.6099 76.896
L66.6189 80.352
L66.6227 76.896
L66.6227 76.896
L66.7266 59.616
L66.7433 66.528
L66.745 69.984
L66.7526 66.528
L66.7526 66.528
L66.7528 63.072
L66.7631 66.528
L66.7631 66.528
L66.7692 69.984
L66.7961 66.528
L66.7961 66.528
L66.8393 63.072
L66.8532 66.528
L66.8532 66.528
L66.9413 94.176
L66.9546 90.72
L66.9711 94.176
L66.9788 90.72
L66.9788 90.72
L67.1215 73.44
L67.1622 80.352
L67.1637 83.808
L67.1852 80.352
L67.1852 80.352
L67.2895 73.44
L67.4206 59.616
L67.4234 63.072
L67.447 73.44
L67.4982 63.072
L67.4982 63.072
L67.6493 35.424
L67.6566 42.336
L67.7378 52.704
L67.7687 45.792
L67.7928 42.336
L67.8022 45.792
L67.8022 45.792
L67.9298 63.072
L68.0475 49.248
L68.0673 56.16
L68.0752 59.616
L68.0848 56.16
L68.0848 56.16
L68.0908 52.704
L68.0967 56.16
L68.0967 56.16
L68.1268 80.352
L68.2014 63.072
L68.2201 59.616
L68.2217 63.072
L68.2217 63.072
L68.3779 83.808
L68.3787 80.352
L68.4683 69.984
L68.4745 73.44
L68.6187 59.616
L68.6364 63.072
L68.6416 66.528
L68.6431 63.072
L68.6431 63.072
L68.6648 56.16
L68.7026 63.072
L68.7026 63.072
L68.8003 69.984
L68.8062 63.072
L68.839 59.616
L68.8451 63.072
L68.8451 63.072
L68.8772 73.44
L68.8916 63.072
L68.8916 63.072
L68.9671 49.248
L68.9768 63.072
L68.9768 63.072
L69.0348 69.984
L69.055 63.072
L69.055 63.072
L69.2378 42.336
L69.3925 73.44
L69.4366 66.528
L69.454 73.44
L69.454 73.44
L69.5687 83.808
L69.5804 76.896
L69.5903 83.808
L69.5903 83.808
L69.8039 132.192
L69.8564 125.28
L69.8742 118.368
L69.8931 125.28
L69.8931 125.28
L70.0045 163.296
L70.0643 149.472
L70.1049 156.384
L70.2684 128.736
L70.2915 142.56
L70.3051 149.472
L70.3419 142.56
L70.3419 142.56
L70.3441 139.104
L70.3457 142.56
L70.3457 142.56
L70.4752 159.84
L70.5732 146.016
L70.5777 149.472
L70.6903 173.664
L70.7288 187.488
L70.7958 173.664
L70.799 170.208
L70.8195 173.664
L70.8195 173.664
L70.8392 180.576
L70.8711 173.664
L70.8711 173.664
L70.8851 166.752
L70.9307 173.664
L70.9307 173.664
L70.9636 180.576
L71.0014 173.664
L71.0014 173.664
L71.0024 170.208
L71.0106 173.664
L71.0106 173.664
L71.0247 180.576
L71.0541 173.664
L71.0541 173.664
L71.0565 170.208
L71.057 173.664
L71.057 173.664
L71.1292 190.944
L71.1675 177.12
L71.1723 180.576
L71.1826 177.12
L71.1826 177.12
L71.2095 173.664
L71.2201 177.12
L71.2201 177.12
L71.3013 187.488
L71.3325 184.032
L71.3949 194.4
L71.4121 190.944
L71.4857 187.488
L71.4926 190.944
L71.5624 194.4
L71.5625 190.944
L71.5625 190.944
L71.6099 177.12
L71.682 184.032
L71.7053 187.488
L71.7071 184.032
L71.7071 184.032
L71.711 177.12
L71.8088 184.032
L71.8088 184.032
L71.8984 190.944
L71.912 184.032
L71.9391 187.488
L71.9451 184.032
L71.9451 184.032
L72.0843 170.208
L72.0959 173.664
L72.2007 180.576
L72.2267 184.032
L72.2298 180.576
L72.2298 180.576
L72.2594 173.664
L72.2798 180.576
L72.2798 180.576
L72.3939 194.4
L72.5684 177.12
L72.577 180.576
L72.6051 190.944
L72.6195 180.576
L72.6195 180.576
L72.6778 177.12
L72.6818 180.576
L72.6818 180.576
L72.7262 194.4
L72.7857 187.488
L72.8747 177.12
L72.9059 180.576
L73.0683 190.944
L73.0871 187.488
L73.0878 190.944
L73.0878 190.944
L73.0964 194.4
L73.1165 190.944
L73.1165 190.944
L73.1468 187.488
L73.1495 190.944
L73.1495 190.944
L73.1787 194.4
L73.1842 190.944
L73.1842 190.944
L73.2393 177.12
L73.274 190.944
L73.274 190.944
L73.3196 194.4
L73.3225 190.944
L73.3225 190.944
L73.3619 187.488
L73.3627 190.944
L73.3627 190.944
L73.3851 194.4
L73.3864 190.944
L73.3864 190.944
L73.4275 187.488
L73.4651 190.944
L73.4738 194.4
L73.4807 190.944
L73.4807 190.944
L73.4891 184.032
L73.5492 190.944
L73.5492 190.944
L73.6684 194.4
L73.7691 187.488
L73.7787 190.944
L73.8068 194.4
L73.8078 190.944
L73.8078 190.944
L73.904 177.12
L73.9274 180.576
L73.9433 177.12
L73.9944 180.576
L73.9944 180.576
L74.0426 190.944
L74.0955 184.032
L74.1148 190.944
L74.1296 184.032
L74.1296 184.032
L74.1663 166.752
L74.2444 170.208
L74.3336 177.12
L74.3627 180.576
L74.3688 177.12
L74.3688 177.12
L74.5216 156.384
L74.5642 170.208
L74.6139 156.384
L74.6139 156.384
L74.622 152.928
L74.6225 156.384
L74.6225 156.384
L74.8182 194.4
L74.8817 184.032
L74.9421 159.84
L75.0049 173.664
L75.0426 190.944
L75.1431 184.032
L75.2206 187.488
L75.2307 184.032
L75.337 170.208
L75.3405 173.664
L75.3463 177.12
L75.3487 173.664
L75.3487 173.664
L75.4211 163.296
L75.4569 170.208
L75.4871 177.12
L75.5372 173.664
L75.5991 170.208
L75.5997 173.664
L75.802 194.4
L75.9373 180.576
L75.9446 187.488
L75.9975 194.4
L76.0211 187.488
L76.0581 184.032
L76.0684 187.488
L76.0684 187.488
L76.1872 194.4
L76.2917 184.032
L76.2922 187.488
L76.3205 194.4
L76.347 187.488
L76.347 187.488
L76.3574 184.032
L76.3583 187.488
L76.3583 187.488
L76.3604 190.944
L76.3616 187.488
L76.3616 187.488
L76.3913 180.576
L76.4483 184.032
L76.4933 187.488
L76.503 184.032
L76.503 184.032
L76.6125 177.12
L76.6147 180.576
L76.6583 190.944
L76.6956 180.576
L76.6956 180.576
L76.7225 177.12
L76.7248 180.576
L76.7248 180.576
L76.8192 194.4
L76.8382 190.944
L76.9633 163.296
L77.0114 177.12
L77.0295 180.576
L77.042 177.12
L77.042 177.12
L77.0568 173.664
L77.0615 177.12
L77.0615 177.12
L77.1824 194.4
L77.3057 184.032
L77.3296 190.944
L77.3379 194.4
L77.3401 190.944
L77.3401 190.944
L77.3715 180.576
L77.4423 190.944
L77.7134 156.384
L77.7486 166.752
L77.8292 180.576
L77.8579 170.208
L77.8955 173.664
L77.905 170.208
L77.905 170.208
L77.908 166.752
L77.9172 170.208
L77.9172 170.208
L77.9797 180.576
L77.9974 170.208
L77.9974 170.208
L78.0176 166.752
L78.0176 170.208
L78.0176 170.208
L78.0359 177.12
L78.0439 170.208
L78.0439 170.208
L78.134 163.296
L78.425 194.4
L78.4501 190.944
L78.5482 180.576
L78.5587 187.488
L78.5864 180.576
L78.6098 187.488
L78.6098 187.488
L78.7237 194.4
L78.9023 170.208
L78.9088 173.664
L78.9092 177.12
L78.9254 173.664
L78.9254 173.664
L79.0399 156.384
L79.3053 184.032
L79.3089 180.576
L79.3301 177.12
L79.3317 180.576
L79.3317 180.576
L79.3998 184.032
L79.4142 180.576
L79.4142 180.576
L79.549 156.384
L79.5664 170.208
L79.6056 156.384
L79.6056 156.384
L79.612 152.928
L79.6126 156.384
L79.6126 156.384
L79.6672 170.208
L79.7191 156.384
L79.7259 152.928
L79.7325 156.384
L79.7325 156.384
L79.7883 163.296
L79.8097 156.384
L79.8097 156.384
L79.8281 152.928
L79.8317 156.384
L79.8317 156.384
L79.9474 190.944
L79.9707 187.488
L80.0148 194.4
L80.0492 187.488
L80.0492 187.488
L80.1083 170.208
L80.1848 177.12
L80.3073 194.4
L80.3077 190.944
L80.3588 184.032
L80.419 187.488
L80.523 170.208
L80.5268 173.664
L80.6114 187.488
L80.6624 180.576
L80.7102 177.12
L80.7132 180.576
L80.7132 180.576
L80.7356 194.4
L80.7961 180.576
L80.7961 180.576
L80.8027 173.664
L80.8234 180.576
L80.8234 180.576
L80.8268 184.032
L80.8351 180.576
L80.8351 180.576
L80.9634 156.384
L81.0231 170.208
L81.0428 173.664
L81.0468 170.208
L81.0468 170.208
L81.0848 159.84
L81.1462 163.296
L81.2639 177.12
L81.2936 166.752
L81.3095 163.296
L81.3108 166.752
L81.3108 166.752
L81.3307 170.208
L81.334 166.752
L81.334 166.752
L81.4735 139.104
L81.4803 146.016
L81.9077 194.4
L81.9273 184.032
L82.0196 190.944
L82.0393 194.4
L82.0401 190.944
L82.0401 190.944
L82.1622 170.208
L82.1977 177.12
L82.3017 194.4
L82.4033 184.032
L82.4114 190.944
L82.452 194.4
L82.4558 190.944
L82.4558 190.944
L82.5723 159.84
L82.6062 166.752
L82.6109 170.208
L82.6124 166.752
L82.6124 166.752
L82.7281 152.928
L82.7419 159.84
L82.7505 163.296
L82.7563 159.84
L82.7563 159.84
L82.8099 152.928
L82.8456 159.84
L82.9952 187.488
L83.0147 184.032
L83.1991 142.56
L83.2003 146.016
L83.2065 149.472
L83.2189 146.016
L83.2189 146.016
L83.2248 142.56
L83.2263 146.016
L83.2263 146.016
L83.372 187.488
L83.4411 170.208
L83.443 163.296
L83.4752 170.208
L83.4752 170.208
L83.5118 187.488
L83.5897 184.032
L83.6098 187.488
L83.6132 184.032
L83.6132 184.032
L83.6411 180.576
L83.6585 184.032
L83.6585 184.032
L83.6588 187.488
L83.6623 184.032
L83.6623 184.032
L83.6746 180.576
L83.6751 184.032
L83.6751 184.032
L83.7822 194.4
L83.7967 190.944
L83.8354 194.4
L83.8361 190.944
L83.8361 190.944
L83.841 187.488
L83.8427 190.944
L83.8427 190.944
L83.8502 194.4
L83.8527 190.944
L83.8527 190.944
L83.857 180.576
L83.9154 190.944
L83.9154 190.944
L83.9518 194.4
L83.993 190.944
L83.993 190.944
L84.1034 180.576
L84.1416 184.032
L84.1483 180.576
L84.1483 180.576
L84.15 177.12
L84.1598 180.576
L84.1598 180.576
L84.1672 184.032
L84.1812 180.576
L84.1812 180.576
L84.186 177.12
L84.188 180.576
L84.188 180.576
L84.2596 194.4
L84.3075 190.944
L84.3279 194.4
L84.3319 190.944
L84.3319 190.944
L84.3524 177.12
L84.4346 187.488
L84.5885 194.4
L84.5903 190.944
L84.6445 194.4
L84.652 190.944
L84.7675 173.664
L84.8478 163.296
L84.8634 173.664
L84.8797 177.12
L84.8817 173.664
L84.8817 173.664
L84.8844 170.208
L84.8885 173.664
L84.8885 173.664
L84.8897 177.12
L84.8913 173.664
L84.8913 173.664
L84.9131 166.752
L84.9577 173.664
L84.9577 173.664
L84.9688 177.12
L84.9766 173.664
L84.9766 173.664
L84.9958 170.208
L84.9986 173.664
L84.9986 173.664
L85.0135 180.576
L85.0222 173.664
L85.0222 173.664
L85.3595 149.472
L85.4168 159.84
L85.4355 149.472
L85.4717 142.56
L85.495 149.472
L85.495 149.472
L85.6166 170.208
L85.6519 163.296
L85.7243 166.752
L85.7288 170.208
L85.7356 166.752
L85.7356 166.752
L85.7373 163.296
L85.7406 166.752
L85.7406 166.752
L85.8396 180.576
L85.87 173.664
L85.8953 170.208
L85.9188 173.664
L85.9188 173.664
L86.051 190.944
L86.0714 194.4
L86.0778 190.944
L86.0778 190.944
L86.1516 173.664
L86.1975 177.12
L86.3138 190.944
L86.3354 187.488
L86.3438 184.032
L86.3495 187.488
L86.3495 187.488
L86.3518 190.944
L86.3528 187.488
L86.3528 187.488
L86.4759 170.208
L86.4956 173.664
L86.5215 180.576
L86.5256 173.664
L86.5256 173.664
L86.6085 163.296
L86.6314 173.664
L86.6421 177.12
L86.6989 173.664
L86.6989 173.664
L86.8532 149.472
L86.9814 170.208
L87.0021 156.384
L87.0077 152.928
L87.0148 156.384
L87.0148 156.384
L87.201 173.664
L87.2528 166.752
L87.36 149.472
L87.4002 156.384
L87.4894 170.208
L87.5088 166.752
L87.5673 163.296
L87.569 166.752
L87.569 166.752
L87.6545 177.12
L87.6796 173.664
L87.7607 180.576
L87.771 177.12
L87.8664 170.208
L87.886 173.664
L87.887 177.12
L87.9015 173.664
L87.9015 173.664
L87.9127 170.208
L87.9157 173.664
L87.9157 173.664
L88.0307 190.944
L88.0329 194.4
L88.0381 190.944
L88.0381 190.944
L88.0476 184.032
L88.0593 190.944
L88.0593 190.944
L88.1474 194.4
L88.1596 190.944
L88.1993 187.488
L88.2083 190.944
L88.2083 190.944
L88.278 194.4
L88.299 190.944
L88.299 190.944
L88.3171 184.032
L88.3197 190.944
L88.3197 190.944
L88.3273 194.4
L88.3388 190.944
L88.3388 190.944
L88.3786 187.488
L88.3822 190.944
L88.3822 190.944
L88.4153 194.4
L88.4168 190.944
L88.4168 190.944
L88.4365 187.488
L88.4591 190.944
L88.4591 190.944
L88.4613 194.4
L88.4649 190.944
L88.4649 190.944
L88.6316 156.384
L88.6399 159.84
L88.6941 156.384
L88.6964 159.84
L88.6964 159.84
L88.7429 173.664
L88.8047 166.752
L88.8518 152.928
L88.8966 156.384
L88.9719 159.84
L88.9743 156.384
L88.975 152.928
L88.983 156.384
L88.983 156.384
L89.1091 170.208
L89.154 173.664
L89.1887 170.208
L89.2013 166.752
L89.2124 170.208
L89.2124 170.208
L89.2442 173.664
L89.2443 170.208
L89.2443 170.208
L89.2543 166.752
L89.2624 170.208
L89.2624 170.208
L89.2648 173.664
L89.2711 170.208
L89.2711 170.208
L89.2846 166.752
L89.2898 170.208
L89.2898 170.208
L89.367 180.576
L89.3918 173.664
L89.563 156.384
L89.5708 159.84
L89.709 187.488
L89.7132 180.576
L89.7814 163.296
L89.8517 170.208
L89.9318 187.488
L89.9769 180.576
L90.1539 152.928
L90.1953 159.84
L90.2581 163.296
L90.2866 159.84
L90.3441 156.384
L90.3657 159.84
L90.3657 159.84
L90.4326 170.208
L90.4461 163.296
L90.6235 139.104
L90.6341 152.928
L90.6531 156.384
L90.6971 152.928
L90.6971 152.928
L90.8869 114.912
L90.9165 121.824
L91.0169 135.648
L91.0315 132.192
L91.2133 149.472
L91.2442 146.016
L91.2472 149.472
L91.2472 149.472
L91.254 152.928
L91.2562 149.472
L91.2562 149.472
L91.3309 135.648
L91.3864 146.016
L91.4428 139.104
L91.4466 146.016
L91.5364 166.752
L91.581 156.384
L91.5915 152.928
L91.5989 156.384
L91.5989 156.384
L91.7015 180.576
L91.7059 177.12
L91.7223 173.664
L91.7261 177.12
L91.7261 177.12
L91.8733 194.4
L92.0084 187.488
L92.0154 190.944
L92.0353 187.488
L92.0353 187.488
L92.0518 184.032
L92.0743 187.488
L92.0743 187.488
L92.0906 194.4
L92.1328 187.488
L92.1328 187.488
L92.3128 156.384
L92.4102 184.032
L92.4913 173.664
L92.5344 170.208
L92.5432 173.664
L92.5432 173.664
L92.6142 190.944
L92.6428 180.576
L92.71 194.4
L92.7441 184.032
L92.7681 180.576
L92.7688 184.032
L92.7688 184.032
L92.8834 194.4
L93.0195 177.12
L93.0531 184.032
L93.1454 194.4
L93.1544 190.944
L93.1946 194.4
L93.2104 190.944
L93.2883 177.12
L93.3351 187.488
L93.3947 194.4
L93.4163 187.488
L93.5191 177.12
L93.5262 184.032
L93.5375 194.4
L93.5542 184.032
L93.5542 184.032
L93.6548 166.752
L93.6628 170.208
L93.81 139.104
L93.8921 152.928
L93.8998 156.384
L93.907 152.928
L93.907 152.928
L93.9074 149.472
L93.9157 152.928
L93.9157 152.928
L93.9407 159.84
L93.9752 152.928
L93.9752 152.928
L93.9775 149.472
L93.9801 152.928
L93.9801 152.928
L93.9995 163.296
L94.0212 152.928
L94.0212 152.928
L94.0508 146.016
L94.0847 152.928
L94.0847 152.928
L94.1888 170.208
L94.1994 166.752
L94.3314 156.384
L94.3828 180.576
L94.4473 163.296
L94.5028 156.384
L94.5079 163.296
L94.5079 163.296
L94.5412 170.208
L94.5961 163.296
L94.5961 163.296
L94.6801 149.472
L94.7276 152.928
L94.7637 159.84
L94.8106 152.928
L94.8106 152.928
L94.8422 146.016
L94.8593 152.928
L94.8593 152.928
L94.9546 170.208
L95.0658 156.384
L95.0812 166.752
L95.1024 177.12
L95.1333 166.752
L95.1333 166.752
L95.1345 163.296
L95.1371 166.752
L95.1371 166.752
L95.2572 184.032
L95.279 177.12
L95.3028 170.208
L95.3198 177.12
L95.3198 177.12
L95.3539 184.032
L95.3874 177.12
L95.3874 177.12
L95.3916 173.664
L95.3958 177.12
L95.3958 177.12
L95.4411 194.4
L95.5126 187.488
L95.8074 149.472
L95.8332 156.384
L95.8864 166.752
L95.9335 156.384
L95.9335 156.384
L95.9781 146.016
L96.0282 156.384
L96.0282 156.384
L96.0827 173.664
L96.128 163.296
L96.456 118.368
L96.4676 121.824
L96.4989 128.736
L96.5083 121.824
L96.5083 121.824
L96.5255 114.912
L96.5894 121.824
L96.5894 121.824
L96.7033 146.016
L96.8308 114.912
L96.87 125.28
L96.8719 128.736
L96.8911 125.28
L96.8911 125.28
L96.96 111.456
L96.9985 125.28
L97.0457 139.104
L97.1145 135.648
L97.1295 128.736
L97.1318 135.648
L97.1318 135.648
L97.2439 173.664
L97.2647 166.752
L97.2691 159.84
L97.2761 166.752
L97.2761 166.752
L97.3154 184.032
L97.3715 166.752
L97.3715 166.752
L97.3723 163.296
L97.3725 166.752
L97.3725 166.752
L97.5253 184.032
L97.6264 166.752
L97.6942 163.296
L97.7072 166.752
L97.7192 177.12
L97.758 166.752
L97.758 166.752
L97.8294 159.84
L97.8484 166.752
L97.8484 166.752
L97.8732 170.208
L97.8753 166.752
L97.8753 166.752
L97.903 156.384
L97.9287 166.752
L97.9287 166.752
L97.9396 170.208
L97.9597 166.752
L97.9597 166.752
L97.9677 163.296
L97.972 166.752
L97.972 166.752
L97.986 170.208
L97.9912 166.752
L97.9912 166.752
L98.0168 163.296
L98.0186 166.752
L98.0186 166.752
L98.1831 187.488
L98.2335 190.944
L98.2367 187.488
L98.2367 187.488
L98.3333 159.84
L98.3362 163.296
L98.5013 132.192
L98.5968 114.912
L98.6122 121.824
L98.6558 128.736
L98.6644 121.824
L98.6644 121.824
L98.7688 108
L98.7798 114.912
L98.7908 118.368
L98.7915 114.912
L98.7915 114.912
L98.8183 104.544
L98.9033 108
L98.9481 118.368
L99.003 111.456
L99.0389 104.544
L99.0582 111.456
L99.0582 111.456
L99.1976 146.016
L99.2247 135.648
L99.233 132.192
L99.2433 135.648
L99.2433 135.648
L99.4331 170.208
L99.4753 156.384
L99.5591 166.752
L99.5842 173.664
L99.596 166.752
L99.596 166.752
L99.6057 156.384
L99.6453 166.752
L99.6453 166.752
L99.8113 194.4
L99.8336 184.032
L99.8635 187.488
L99.8722 184.032
L99.8722 184.032
L99.8977 177.12
L99.9022 184.032
L99.9022 184.032
L100.013 194.4
L100.025 190.944
L100.025 187.488
L100.036 190.944
L100.036 190.944
L100.137 194.4
L100.297 180.576
L100.357 184.032
L100.471 194.4
L100.477 187.488
L100.477 184.032
L100.478 187.488
L100.478 187.488
L100.656 194.4
L100.701 184.032
L100.777 187.488
L100.822 190.944
L100.824 187.488
L100.824 187.488
L100.941 166.752
L100.961 159.84
L100.99 166.752
L100.99 166.752
L101.056 173.664
L101.082 166.752
L101.133 163.296
L101.175 166.752
L101.187 170.208
L101.19 166.752
L101.19 166.752
L101.207 159.84
L101.224 166.752
L101.224 166.752
L101.336 184.032
L101.354 190.944
L101.392 184.032
L101.487 177.12
L101.501 180.576
L101.506 184.032
L101.507 180.576
L101.507 180.576
L101.524 173.664
L101.531 180.576
L101.531 180.576
L101.554 184.032
L101.583 180.576
L101.583 180.576
L101.587 173.664
L101.622 180.576
L101.622 180.576
L101.628 184.032
L101.647 180.576
L101.647 180.576
L101.664 177.12
L101.668 180.576
L101.668 180.576
L101.765 184.032
L101.776 180.576
L101.782 177.12
L101.784 180.576
L101.784 180.576
L101.802 187.488
L101.881 180.576
L101.881 180.576
L101.884 177.12
L101.902 180.576
L101.902 180.576
L101.942 184.032
L101.944 180.576
L101.944 180.576
L101.988 173.664
L102.012 180.576
L102.012 180.576
L102.015 184.032
L102.029 180.576
L102.029 180.576
L102.131 166.752
L102.156 173.664
L102.176 177.12
L102.177 173.664
L102.177 173.664
L102.179 170.208
L102.188 173.664
L102.188 173.664
L102.253 184.032
L102.297 177.12
L102.321 170.208
L102.349 177.12
L102.349 177.12
L102.37 187.488
L102.411 177.12
L102.411 177.12
L102.492 170.208
L102.533 173.664
L102.545 177.12
L102.578 173.664
L102.578 173.664
L102.624 163.296
L102.678 173.664
L102.798 187.488
L102.817 180.576
L102.859 173.664
L102.865 180.576
L102.865 180.576
L102.993 194.4
L103.096 190.944
L103.167 194.4
L103.167 190.944
L103.167 190.944
L103.182 187.488
L103.189 190.944
L103.189 190.944
L103.195 194.4
L103.203 190.944
L103.203 190.944
L103.281 180.576
L103.31 184.032
L103.369 190.944
L103.394 184.032
L103.402 180.576
L103.412 184.032
L103.412 184.032
L103.446 194.4
L103.468 184.032
L103.468 184.032
L103.49 177.12
L103.501 184.032
L103.501 184.032
L103.505 187.488
L103.541 184.032
L103.541 184.032
L103.578 180.576
L103.579 184.032
L103.579 184.032
L103.618 194.4
L103.64 184.032
L103.64 184.032
L103.657 177.12
L103.679 184.032
L103.679 184.032
L103.69 187.488
L103.708 184.032
L103.708 184.032
L103.711 180.576
L103.711 184.032
L103.711 184.032
L103.718 187.488
L103.737 184.032
L103.737 184.032
L103.87 173.664
L103.871 177.12
L103.911 194.4
L104.031 190.944
L104.195 156.384
L104.224 163.296
L104.244 170.208
L104.252 163.296
L104.252 163.296
L104.286 146.016
L104.349 156.384
L104.39 166.752
L104.45 156.384
L104.451 152.928
L104.46 156.384
L104.46 156.384
L104.462 159.84
L104.468 156.384
L104.468 156.384
L104.579 139.104
L104.631 128.736
L104.701 135.648
L104.804 146.016
L104.808 142.56
L104.885 159.84
L104.965 163.296
L104.968 159.84
L105.005 156.384
L105.007 159.84
L105.007 159.84
L105.116 170.208
L105.138 173.664
L105.154 170.208
L105.154 170.208
L105.278 146.016
L105.669 194.4
L105.873 173.664
L105.921 163.296
L105.962 173.664
L105.962 173.664
L105.964 177.12
L105.968 173.664
L105.968 173.664
L106.07 170.208
L106.182 163.296
L106.187 166.752
L106.309 187.488
L106.359 180.576
L106.362 177.12
L106.381 180.576
L106.381 180.576
L106.408 184.032
L106.419 180.576
L106.419 180.576
L106.427 177.12
L106.459 180.576
L106.459 180.576
L106.488 187.488
L106.53 180.576
L106.687 170.208
L106.761 173.664
L106.774 170.208
L106.774 170.208
L106.798 166.752
L106.798 170.208
L106.798 170.208
L106.811 173.664
L106.811 170.208
L106.811 170.208
L106.913 159.84
L106.925 163.296
L106.956 166.752
L106.969 163.296
L106.969 163.296
L106.986 159.84
L107 163.296
L107 163.296
L107.047 180.576
L107.114 173.664
L107.139 163.296
L107.187 173.664
L107.187 173.664
L107.211 180.576
L107.23 173.664
L107.23 173.664
L107.245 170.208
L107.247 173.664
L107.247 173.664
L107.277 177.12
L107.294 173.664
L107.294 173.664
L107.321 170.208
L107.341 173.664
L107.341 173.664
L107.445 190.944
L107.471 180.576
L107.581 170.208
L107.601 177.12
L107.62 184.032
L107.661 177.12
L107.661 177.12
L107.678 173.664
L107.686 177.12
L107.686 177.12
L107.692 184.032
L107.702 177.12
L107.702 177.12
L107.765 159.84
L107.812 163.296
L107.836 173.664
L107.855 163.296
L107.855 163.296
L107.878 156.384
L107.882 163.296
L107.882 163.296
L107.911 166.752
L107.916 163.296
L107.916 163.296
L107.939 159.84
L107.954 163.296
L107.954 163.296
L107.956 166.752
L107.977 163.296
L107.977 163.296
L107.977 159.84
L108.001 163.296
L108.001 163.296
L108.007 166.752
L108.008 163.296
L108.008 163.296
L108.096 146.016
L108.124 156.384
L108.249 173.664
L108.26 170.208
L108.269 166.752
L108.276 170.208
L108.276 170.208
L108.378 180.576
L108.516 163.296
L108.547 166.752
L108.59 177.12
L108.633 166.752
L108.824 139.104
L108.846 146.016
L108.855 139.104
L108.855 139.104
L108.892 135.648
L108.91 139.104
L108.91 139.104
L108.956 152.928
L109.008 139.104
L109.203 159.84
L109.237 149.472
L109.252 142.56
L109.262 149.472
L109.262 149.472
L109.36 159.84
L109.376 156.384
L109.388 149.472
L109.413 156.384
L109.413 156.384
L109.508 166.752
L109.522 163.296
L109.53 159.84
L109.554 163.296
L109.554 163.296
L109.56 166.752
L109.566 163.296
L109.566 163.296
L109.599 156.384
L109.607 163.296
L109.607 163.296
L109.845 194.4
L109.854 190.944
L109.908 180.576
L109.919 190.944
L109.919 190.944
L109.947 194.4
L109.956 190.944
L109.956 190.944
L109.963 187.488
L109.974 190.944
L109.974 190.944
L110.02 194.4
L110.062 190.944
L110.073 184.032
L110.081 190.944
L110.081 190.944
L110.089 194.4
L110.096 190.944
L110.096 190.944
L110.113 187.488
L110.121 190.944
L110.121 190.944
L110.165 194.4
L110.166 190.944
L110.166 190.944
L110.194 180.576
L110.228 190.944
L110.228 190.944
L110.239 194.4
L110.245 190.944
L110.245 190.944
L110.258 187.488
L110.262 190.944
L110.262 190.944
L110.267 194.4
L110.273 190.944
L110.273 190.944
L110.434 180.576
L110.451 184.032
L110.481 194.4
L110.565 187.488
L110.595 180.576
L110.606 187.488
L110.606 187.488
L110.67 194.4
L110.699 190.944
L110.787 184.032
L110.797 190.944
L110.817 194.4
L110.838 190.944
L110.838 190.944
L110.839 187.488
L110.841 190.944
L110.841 190.944
L110.871 194.4
L110.905 190.944
L110.905 190.944
L110.921 180.576
L110.941 190.944
L110.941 190.944
L110.948 194.4
L110.957 190.944
L110.957 190.944
L111.034 184.032
L111.056 190.944
L111.056 190.944
L111.106 194.4
L111.107 190.944
L111.107 190.944
L111.126 187.488
L111.128 190.944
L111.128 190.944
L111.131 194.4
L111.133 190.944
L111.133 190.944
L111.205 180.576
L111.233 190.944
L111.233 190.944
L111.251 194.4
L111.263 190.944
L111.263 190.944
L111.39 170.208
L111.402 173.664
L111.544 194.4
L111.547 190.944
L111.57 194.4
L111.576 190.944
L111.576 190.944
L111.577 187.488
L111.577 190.944
L111.577 190.944
L111.602 194.4
L111.623 190.944
L111.623 190.944
L111.63 187.488
L111.672 190.944
L111.672 190.944
L111.676 194.4
L111.683 190.944
L111.683 190.944
L111.793 180.576
L111.906 187.488
L111.926 184.032
L111.98 177.12
L111.988 184.032
L111.988 184.032
L112.032 194.4
L112.095 184.032
L112.232 177.12
L112.453 135.648
L112.515 146.016
L112.58 149.472
L112.58 146.016
L112.822 125.28
L112.835 128.736
L112.842 125.28
L112.842 125.28
L112.931 108
L112.947 114.912
L112.987 104.544
L113.056 111.456
L113.064 114.912
L113.076 111.456
L113.076 111.456
L113.199 90.72
L113.21 94.176
L113.211 90.72
L113.211 90.72
L113.217 87.264
L113.221 90.72
L113.221 90.72
L113.316 101.088
L113.344 97.632
L113.353 101.088
L113.362 97.632
L113.362 97.632
L113.485 90.72
L113.516 94.176
L113.519 90.72
L113.519 90.72
L113.619 83.808
L113.624 90.72
L113.628 94.176
L113.634 90.72
L113.634 90.72
L113.735 66.528
L113.777 69.984
L113.781 73.44
L113.795 69.984
L113.795 69.984
L113.813 63.072
L113.857 69.984
L113.857 69.984
L113.933 83.808
L113.968 80.352
L113.99 87.264
L114.033 80.352
L114.033 80.352
L114.035 76.896
L114.039 80.352
L114.039 80.352
L114.077 87.264
L114.116 80.352
L114.116 80.352
L114.215 63.072
L114.226 69.984
L114.253 80.352
L114.29 69.984
L114.29 69.984
L114.305 66.528
L114.327 69.984
L114.327 69.984
L114.42 80.352
L114.434 69.984
L114.453 63.072
L114.459 69.984
L114.459 69.984
L114.502 73.44
L114.514 69.984
L114.514 69.984
L114.519 66.528
L114.548 69.984
L114.548 69.984
L114.55 73.44
L114.555 69.984
L114.555 69.984
L114.572 63.072
L114.603 69.984
L114.603 69.984
L114.887 114.912
L114.901 108
L115.051 97.632
L115.147 111.456
L115.176 108
L115.25 83.808
L115.325 90.72
L115.341 94.176
L115.367 90.72
L115.367 90.72
L115.486 80.352
L115.523 87.264
L115.53 80.352
L115.53 80.352
L115.533 76.896
L115.537 80.352
L115.537 80.352
L115.652 94.176
L115.749 114.912
L115.767 111.456
L115.806 118.368
L115.865 114.912
L116.04 90.72
L116.048 97.632
L116.053 101.088
L116.086 97.632
L116.086 97.632
L116.131 87.264
L116.192 97.632
L116.199 101.088
L116.201 97.632
L116.201 97.632
L116.206 94.176
L116.221 97.632
L116.221 97.632
L116.227 101.088
L116.238 97.632
L116.238 97.632
L116.303 80.352
L116.36 90.72
L116.478 101.088
L116.486 94.176
L116.494 101.088
L116.494 101.088
L116.639 114.912
L116.693 108
L116.754 111.456
L116.817 118.368
L116.858 111.456
L116.863 108
L116.867 111.456
L116.867 111.456
L116.907 128.736
L116.988 125.28
L117.111 111.456
L117.123 114.912
L117.183 118.368
L117.213 114.912
L117.22 101.088
L117.251 114.912
L117.251 114.912
L117.351 135.648
L117.398 128.736
L117.698 101.088
L117.766 139.104
L117.785 135.648
L117.951 121.824
L118.053 104.544
L118.061 108
L118.189 90.72
L118.241 83.808
L118.252 90.72
L118.252 90.72
L118.347 104.544
L118.394 108
L118.413 104.544
L118.444 94.176
L118.471 104.544
L118.471 104.544
L118.549 108
L118.69 97.632
L118.718 94.176
L118.721 97.632
L118.721 97.632
L118.872 111.456
L118.89 104.544
L118.947 97.632
L118.979 104.544
L119.042 111.456
L119.064 104.544
L119.128 90.72
L119.184 97.632
L119.199 104.544
L119.22 97.632
L119.314 90.72
L119.426 76.896
L119.447 80.352
L119.464 83.808
L119.465 80.352
L119.465 80.352
L119.477 76.896
L119.489 80.352
L119.489 80.352
L119.496 94.176
L119.527 80.352
L119.527 80.352
L119.642 66.528
L119.643 69.984
L119.647 66.528
L119.647 66.528
L119.793 38.88
L119.796 45.792
L119.883 59.616
L119.898 52.704
L119.925 49.248
L119.927 52.704
L119.927 52.704
L119.94 63.072
L119.955 52.704
L119.955 52.704
L119.959 45.792
L119.965 52.704
L119.965 52.704
L119.982 59.616
L120.018 52.704
L120.018 52.704
L120.027 49.248
L120.028 52.704
L120.028 52.704
L120.078 66.528
L120.132 63.072
L120.204 76.896
L120.237 66.528
L120.247 59.616
L120.273 66.528
L120.273 66.528
L120.441 90.72
L120.445 87.264
L120.476 73.44
L120.561 76.896
L120.819 101.088
L120.856 97.632
L120.964 87.264
L120.982 83.808
L120.983 87.264
L120.983 87.264
L121.1 104.544
L121.109 101.088
L121.117 104.544
L121.117 104.544
L121.225 114.912
L121.228 111.456
L121.236 108
L121.241 111.456
L121.241 111.456
L121.252 114.912
L121.273 111.456
L121.273 111.456
L121.384 87.264
L121.421 101.088
L121.442 114.912
L121.483 101.088
L121.483 101.088
L121.501 97.632
L121.514 101.088
L121.514 101.088
L121.537 108
L121.561 101.088
L121.561 101.088
L121.653 94.176
L121.663 101.088
L121.663 101.088
L121.76 114.912
L121.892 94.176
L121.902 104.544
L121.934 108
L121.968 104.544
L121.968 104.544
L121.982 94.176
L122.075 101.088
L122.091 104.544
L122.096 101.088
L122.096 101.088
L122.137 87.264
L122.219 94.176
L122.402 80.352
L122.503 87.264
L122.54 83.808
L122.544 87.264
L122.544 87.264
L122.654 97.632
L122.733 111.456
L122.764 97.632
L122.927 80.352
L123.071 97.632
L123.099 94.176
L123.101 97.632
L123.101 97.632
L123.224 104.544
L123.259 97.632
L123.295 104.544
L123.295 104.544
L123.298 108
L123.323 104.544
L123.323 104.544
L123.352 97.632
L123.375 104.544
L123.375 104.544
L123.546 135.648
L123.604 121.824
L123.652 114.912
L123.687 121.824
L123.708 139.104
L123.788 135.648
L123.813 132.192
L123.858 135.648
L123.858 135.648
L123.876 139.104
L123.883 135.648
L123.883 135.648
L124.018 121.824
L124.036 128.736
L124.074 121.824
L124.074 121.824
L124.194 108
L124.212 111.456
L124.282 118.368
L124.285 114.912
L124.363 108
L124.39 111.456
L124.571 118.368
L124.574 114.912
L124.581 118.368
L124.581 118.368
L124.7 121.824
L124.802 114.912
L124.913 132.192
L124.964 128.736
L125.086 118.368
L125.115 121.824
L125.219 139.104
L125.405 114.912
L125.426 118.368
L125.502 128.736
L125.529 118.368
L125.533 114.912
L125.581 118.368
L125.581 118.368
L125.682 125.28
L125.847 104.544
L125.859 111.456
L125.981 139.104
L126.004 125.28
L126.072 118.368
L126.111 125.28
L126.125 128.736
L126.139 125.28
L126.139 125.28
L126.238 118.368
L126.24 121.824
L126.281 135.648
L126.326 121.824
L126.366 111.456
L126.423 114.912
L126.612 128.736
L126.727 118.368
L126.943 135.648
L126.992 139.104
L126.998 135.648
L126.998 135.648
L127.074 125.28
L127.085 135.648
L127.085 135.648
L127.147 146.016
L127.167 135.648
L127.167 135.648
L127.253 114.912
L127.277 118.368
L127.323 132.192
L127.41 125.28
L127.522 118.368
L127.529 121.824
L127.577 125.28
L127.59 121.824
L127.59 121.824
L127.716 94.176
L127.803 111.456
L127.842 101.088
L127.856 97.632
L127.862 101.088
L127.862 101.088
L127.902 104.544
L127.904 101.088
L127.904 101.088
L127.97 94.176
L127.986 101.088
L127.986 101.088
L128.025 111.456
L128.064 101.088
L128.064 101.088
L128.075 94.176
L128.096 101.088
L128.096 101.088
L128.128 104.544
L128.131 101.088
L128.131 101.088
L128.147 90.72
L128.234 101.088
L128.266 108
L128.288 101.088
L128.288 101.088
L128.32 90.72
L128.343 101.088
L128.343 101.088
L128.347 108
L128.39 101.088
L128.39 101.088
L128.486 83.808
L128.499 87.264
L128.551 83.808
L128.551 87.264
L128.551 87.264
L128.684 111.456
L128.71 108
L128.717 111.456
L128.717 111.456
L128.828 118.368
L128.86 114.912
L128.865 118.368
L128.865 118.368
L128.939 139.104
L128.976 132.192
L128.983 128.736
L129.006 132.192
L129.006 132.192
L129.007 135.648
L129.017 132.192
L129.017 132.192
L129.067 121.824
L129.142 125.28
L129.251 139.104
L129.253 135.648
L129.312 146.016
L129.37 139.104
L129.544 114.912
L129.564 125.28
L129.583 135.648
L129.665 125.28
L129.743 135.648
L129.747 128.736
L129.87 104.544
L129.886 94.176
L129.949 101.088
L130.051 94.176
L130.08 97.632
L130.143 104.544
L130.219 101.088
L130.225 104.544
L130.234 108
L130.241 104.544
L130.241 104.544
L130.272 97.632
L130.278 104.544
L130.278 104.544
L130.382 121.824
L130.402 118.368
L130.476 128.736
L130.505 121.824
L130.579 104.544
L130.606 111.456
L130.643 114.912
L130.644 111.456
L130.644 111.456
L130.661 108
L130.664 111.456
L130.664 111.456
L130.708 118.368
L130.711 111.456
L130.711 111.456
L130.714 108
L130.719 111.456
L130.719 111.456
L130.723 114.912
L130.727 111.456
L130.727 111.456
L130.753 101.088
L130.787 111.456
L130.787 111.456
L130.807 118.368
L130.832 111.456
L130.832 111.456
L130.877 94.176
L130.929 101.088
L130.964 97.632
L130.965 101.088
L130.965 101.088
L131.012 111.456
L131.058 101.088
L131.069 94.176
L131.093 101.088
L131.093 101.088
L131.095 104.544
L131.099 101.088
L131.099 101.088
L131.122 97.632
L131.125 101.088
L131.125 101.088
L131.198 118.368
L131.234 104.544
L131.348 90.72
L131.361 101.088
L131.367 104.544
L131.374 101.088
L131.374 101.088
L131.43 97.632
L131.451 101.088
L131.451 101.088
L131.517 118.368
L131.583 114.912
L131.645 104.544
L131.702 111.456
L131.706 114.912
L131.71 111.456
L131.71 111.456
L131.789 101.088
L131.819 111.456
L131.896 128.736
L131.951 121.824
L132.013 94.176
L132.067 104.544
L132.095 108
L132.103 104.544
L132.103 104.544
L132.118 101.088
L132.122 104.544
L132.122 104.544
L132.124 108
L132.125 104.544
L132.125 104.544
L132.207 80.352
L132.232 87.264
L132.46 104.544
L132.572 83.808
L132.593 73.44
L132.604 83.808
L132.604 83.808
L132.623 90.72
L132.64 83.808
L132.64 83.808
L132.644 80.352
L132.651 83.808
L132.651 83.808
L132.793 114.912
L132.81 121.824
L132.826 114.912
L132.826 114.912
L132.855 101.088
L132.937 114.912
L132.958 125.28
L132.983 114.912
L132.983 114.912
L132.992 111.456
L132.993 114.912
L132.993 114.912
L132.994 118.368
L133.015 114.912
L133.015 114.912
L133.038 111.456
L133.053 114.912
L133.053 114.912
L133.128 139.104
L133.21 128.736
L133.378 114.912
L133.444 132.192
L133.465 121.824
L133.973 76.896
L133.975 80.352
L133.982 87.264
L134.081 80.352
L134.086 76.896
L134.09 80.352
L134.09 80.352
L134.203 111.456
L134.208 108
L134.317 121.824
L134.345 118.368
L134.373 108
L134.45 118.368
L134.45 118.368
L134.5 121.824
L134.507 118.368
L134.507 118.368
L134.575 104.544
L134.622 114.912
L134.749 101.088
L134.776 104.544
L134.781 101.088
L134.781 101.088
L134.867 87.264
L134.878 90.72
L135.091 69.984
L135.116 76.896
L135.142 83.808
L135.145 76.896
L135.145 76.896
L135.285 56.16
L135.287 59.616
L135.304 63.072
L135.315 59.616
L135.315 59.616
L135.34 45.792
L135.384 59.616
L135.384 59.616
L135.52 90.72
L135.527 87.264
L135.591 80.352
L135.594 87.264
L135.594 87.264
L135.65 101.088
L135.698 90.72
L135.771 73.44
L135.809 90.72
L135.875 104.544
L135.896 90.72
L135.896 90.72
L135.901 83.808
L135.923 90.72
L135.923 90.72
L136.198 108
L136.249 90.72
L136.304 94.176
L136.341 87.264
L136.354 94.176
L136.354 94.176
L136.361 101.088
L136.37 94.176
L136.37 94.176
L136.375 90.72
L136.397 94.176
L136.397 94.176
L136.423 101.088
L136.473 94.176
L136.473 94.176
L136.583 76.896
L136.627 73.44
L136.633 76.896
L136.633 76.896
L136.724 87.264
L136.735 83.808
L136.869 104.544
L136.901 111.456
L136.967 108
L136.98 104.544
L136.989 108
L136.989 108
L136.998 111.456
L137.002 108
L137.002 108
L137.054 94.176
L137.113 104.544
L137.118 108
L137.13 104.544
L137.13 104.544
L137.274 90.72
L137.296 94.176
L137.307 90.72
L137.307 90.72
L137.458 73.44
L137.469 76.896
L137.476 73.44
L137.476 73.44
L137.597 52.704
L137.597 56.16
L137.605 59.616
L137.621 56.16
L137.621 56.16
L137.689 38.88
L137.725 45.792
L137.853 59.616
L137.86 52.704
L137.863 49.248
L137.863 52.704
L137.863 52.704
L137.982 69.984
L138.091 49.248
L138.172 38.88
L138.188 45.792
L138.208 49.248
L138.214 45.792
L138.214 45.792
L138.329 31.968
L138.335 38.88
L138.383 52.704
L138.526 90.72
L138.569 101.088
L138.606 90.72
L138.606 90.72
L138.621 83.808
L138.651 90.72
L138.651 90.72
L138.806 121.824
L138.808 118.368
L138.996 146.016
L139.069 135.648
L139.289 108
L139.326 114.912
L139.393 125.28
L139.433 118.368
L139.526 101.088
L139.557 111.456
L139.578 114.912
L139.582 111.456
L139.582 111.456
L139.6 108
L139.601 111.456
L139.601 111.456
L139.631 114.912
L139.649 111.456
L139.649 111.456
L139.658 108
L139.665 111.456
L139.665 111.456
L139.667 114.912
L139.677 111.456
L139.677 111.456
L139.738 94.176
L139.779 111.456
L139.935 132.192
L139.939 128.736
L140.004 114.912
L140.05 128.736
L140.187 114.912
L140.198 118.368
L140.417 149.472
L140.425 146.016
L140.527 139.104
L140.544 142.56
L140.674 156.384
L140.734 166.752
L140.807 159.84
L140.865 163.296
L140.865 159.84
L140.93 146.016
L140.981 156.384
L141.029 166.752
L141.086 159.84
L141.106 163.296
L141.109 159.84
L141.109 159.84
L141.117 156.384
L141.145 159.84
L141.145 159.84
L141.168 163.296
L141.174 159.84
L141.174 159.84
L141.262 149.472
L141.274 152.928
L141.463 125.28
L141.472 135.648
L141.5 139.104
L141.508 135.648
L141.508 135.648
L141.61 114.912
L141.621 111.456
L141.679 114.912
L141.679 114.912
L141.7 118.368
L141.705 114.912
L141.705 114.912
L141.716 108
L141.73 114.912
L141.73 114.912
L141.742 118.368
L141.773 114.912
L141.773 114.912
L141.777 111.456
L141.838 114.912
L141.838 114.912
L141.953 132.192
L142.001 128.736
L142.182 101.088
L142.23 104.544
L142.246 101.088
L142.246 101.088
L142.387 90.72
L142.55 111.456
L142.576 104.544
L142.646 101.088
L142.658 104.544
L142.761 108
L142.913 135.648
L142.984 128.736
L143.107 114.912
L143.115 118.368
L143.124 121.824
L143.136 118.368
L143.136 118.368
L143.207 104.544
L143.212 111.456
L143.341 125.28
L143.404 118.368
L143.465 114.912
L143.485 118.368
L143.485 118.368
L143.561 125.28
L143.623 121.824
L143.642 125.28
L143.67 135.648
L143.721 125.28
L143.721 125.28
L143.722 121.824
L143.722 125.28
L143.722 125.28
L143.832 135.648
L143.998 114.912
L144.055 101.088
L144.108 104.544
L144.176 111.456
L144.24 108
L144.252 104.544
L144.266 108
L144.266 108
L144.269 114.912
L144.281 108
L144.281 108
L144.398 87.264
L144.404 90.72
L144.617 121.824
L144.62 118.368
L144.73 111.456
L144.809 90.72
L144.868 97.632
L144.9 101.088
L144.901 97.632
L144.901 97.632
L145.01 69.984
L145.054 80.352
L145.088 83.808
L145.102 80.352
L145.102 80.352
L145.108 76.896
L145.113 80.352
L145.113 80.352
L145.316 101.088
L145.318 97.632
L145.436 66.528
L145.48 76.896
L145.624 101.088
L145.629 94.176
L145.642 90.72
L145.646 94.176
L145.646 94.176
L145.782 114.912
L145.816 104.544
L145.879 97.632
L145.92 104.544
L146.051 114.912
L146.138 104.544
L146.152 114.912
L146.189 118.368
L146.191 114.912
L146.191 114.912
L146.28 104.544
L146.289 111.456
L146.322 118.368
L146.339 111.456
L146.339 111.456
L146.36 104.544
L146.382 111.456
L146.382 111.456
L146.397 114.912
L146.43 111.456
L146.43 111.456
L146.494 90.72
L146.534 101.088
L146.549 94.176
L146.577 101.088
L146.577 101.088
L146.588 104.544
L146.611 101.088
L146.611 101.088
L146.624 97.632
L146.632 101.088
L146.632 101.088
L146.657 104.544
L146.693 101.088
L146.693 101.088
L146.707 94.176
L146.713 101.088
L146.713 101.088
L146.816 114.912
L146.86 104.544
L146.875 101.088
L146.876 104.544
L146.876 104.544
L146.928 111.456
L146.988 108
L147.01 101.088
L147.033 108
L147.033 108
L147.05 111.456
L147.074 108
L147.074 108
L147.084 101.088
L147.092 108
L147.092 108
L147.2 118.368
L147.206 111.456
L147.347 90.72
L147.397 101.088
L147.48 94.176
L147.497 83.808
L147.505 94.176
L147.505 94.176
L147.548 97.632
L147.552 94.176
L147.552 94.176
L147.671 83.808
L147.678 90.72
L147.715 108
L147.806 97.632
L147.808 94.176
L147.811 97.632
L147.811 97.632
L147.817 101.088
L147.835 97.632
L147.835 97.632
L147.921 76.896
L147.957 83.808
L148.031 69.984
L148.061 80.352
L148.21 69.984
L148.213 73.44
L148.303 66.528
L148.344 63.072
L148.345 66.528
L148.345 66.528
L148.45 87.264
L148.489 80.352
L148.491 76.896
L148.501 80.352
L148.501 80.352
L148.596 94.176
L148.799 76.896
L148.801 80.352
L148.81 83.808
L148.82 80.352
L148.82 80.352
L148.831 76.896
L148.853 80.352
L148.853 80.352
L149.016 118.368
L149.032 111.456
L149.1 104.544
L149.109 108
L149.241 94.176
L149.338 87.264
L149.448 73.44
L149.529 76.896
L149.53 80.352
L149.53 76.896
L149.53 76.896
L149.568 63.072
L149.638 76.896
L149.768 97.632
L149.783 94.176
L149.862 87.264
L149.878 94.176
L149.997 111.456
L150.018 108
L150.086 94.176
L150.102 87.264
L150.136 94.176
L150.136 94.176
L150.246 101.088
L150.25 97.632
L150.359 76.896
L150.502 52.704
L150.592 59.616
L150.598 63.072
L150.599 59.616
L150.599 59.616
L150.603 56.16
L150.604 59.616
L150.604 59.616
L150.718 69.984
L150.719 66.528
L150.726 63.072
L150.741 66.528
L150.741 66.528
L150.869 111.456
L150.984 108
L151.06 104.544
L151.079 108
L151.137 111.456
L151.154 108
L151.154 108
L151.282 97.632
L151.288 101.088
L151.288 97.632
L151.288 97.632
L151.304 94.176
L151.334 97.632
L151.334 97.632
L151.439 111.456
L151.449 108
L151.569 94.176
L151.579 101.088
L151.69 108
L151.697 104.544
L151.707 97.632
L151.732 104.544
L151.732 104.544
L151.735 108
L151.783 104.544
L151.783 104.544
L151.86 90.72
L151.886 97.632
L151.934 108
L151.96 97.632
L151.96 97.632
L152.06 76.896
L152.088 80.352
L152.182 94.176
L152.189 83.808
L152.365 63.072
L152.437 66.528
L152.52 83.808
L152.567 73.44
L152.613 69.984
L152.617 73.44
L152.617 73.44
L152.669 76.896
L152.67 73.44
L152.67 73.44
L152.815 42.336
L152.819 45.792
L152.891 52.704
L152.896 45.792
L152.896 45.792
L152.949 35.424
L152.978 45.792
L153.006 49.248
L153.006 45.792
L153.006 45.792
L153.049 38.88
L153.06 45.792
L153.06 45.792
L153.073 49.248
L153.088 45.792
L153.088 45.792
L153.199 35.424
L153.367 59.616
L153.373 52.704
L153.375 49.248
L153.386 52.704
L153.386 52.704
L153.465 73.44
L153.488 66.528
L153.523 63.072
L153.54 66.528
L153.54 66.528
L153.552 69.984
L153.57 66.528
L153.57 66.528
L153.619 56.16
L153.639 66.528
L153.639 66.528
L153.762 73.44
L153.787 66.528
L153.803 73.44
L153.803 73.44
L153.864 90.72
L153.915 80.352
L153.956 76.896
L153.958 80.352
L153.958 80.352
L154.068 97.632
L154.07 94.176
L154.165 87.264
L154.221 97.632
L154.247 87.264
L154.299 83.808
L154.304 87.264
L154.304 87.264
L154.311 90.72
L154.312 87.264
L154.312 87.264
L154.316 80.352
L154.325 87.264
L154.325 87.264
L154.578 132.192
L154.703 114.912
L154.725 125.28
L154.849 149.472
L154.988 132.192
L154.989 135.648
L155.051 139.104
L155.062 135.648
L155.062 135.648
L155.063 132.192
L155.077 135.648
L155.077 135.648
L155.089 139.104
L155.092 135.648
L155.092 135.648
L155.141 128.736
L155.151 135.648
L155.151 135.648
L155.304 159.84
L155.444 149.472
L155.454 152.928
L155.461 149.472
L155.461 149.472
L155.553 128.736
L155.581 146.016
L155.666 159.84
L155.689 149.472
L155.783 135.648
L155.821 146.016
L155.96 173.664
L155.967 170.208
L156.169 128.736
L156.281 132.192
L156.288 135.648
L156.291 132.192
L156.291 132.192
L156.302 125.28
L156.317 132.192
L156.317 132.192
L156.332 135.648
L156.35 132.192
L156.35 132.192
L156.482 114.912
L156.803 173.664
L156.811 170.208
L156.923 163.296
L156.95 159.84
L156.981 163.296
L156.981 163.296
L157.037 170.208
L157.083 163.296
L157.099 159.84
L157.104 163.296
L157.104 163.296
L157.115 166.752
L157.123 163.296
L157.123 163.296
L157.212 152.928
L157.23 163.296
L157.363 146.016
L157.387 149.472
L157.493 163.296
L157.516 159.84
L157.582 166.752
L157.619 163.296
L157.741 166.752
L157.799 156.384
L157.889 163.296
L157.895 166.752
L157.898 163.296
L157.898 163.296
L157.991 152.928
L158.01 156.384
L158.036 163.296
L158.083 156.384
L158.083 156.384
L158.146 146.016
L158.175 156.384
L158.175 156.384
L158.233 166.752
L158.255 156.384
L158.255 156.384
L158.307 146.016
L158.353 156.384
L158.353 156.384
L158.354 159.84
L158.354 156.384
L158.354 156.384
L158.362 152.928
L158.363 156.384
L158.363 156.384
L158.521 180.576
L158.573 187.488
L158.596 180.576
L158.807 156.384
L158.808 159.84
L158.812 156.384
L158.812 156.384
L158.825 152.928
L158.827 156.384
L158.827 156.384
L158.851 163.296
L158.858 156.384
L158.858 156.384
L158.945 149.472
L158.957 156.384
L158.957 156.384
L158.975 163.296
L158.988 156.384
L158.988 156.384
L159.025 149.472
L159.045 156.384
L159.045 156.384
L159.05 159.84
L159.052 156.384
L159.052 156.384
L159.07 149.472
L159.095 156.384
L159.095 156.384
L159.154 173.664
L159.208 163.296
L159.299 156.384
L159.3 159.84
L159.41 149.472
L159.421 152.928
L159.457 159.84
L159.518 152.928
L159.612 135.648
L159.637 139.104
L159.852 163.296
L159.88 152.928
L159.891 149.472
L159.896 152.928
L159.896 152.928
L159.943 159.84
L159.956 152.928
L159.956 152.928
L159.959 149.472
L159.968 152.928
L159.968 152.928
L160.054 163.296
L160.076 156.384
L160.184 149.472
L160.186 152.928
L160.226 159.84
L160.249 152.928
L160.249 152.928
L160.284 146.016
L160.294 152.928
L160.294 152.928
L160.295 156.384
L160.299 152.928
L160.299 152.928
L160.35 149.472
L160.357 152.928
L160.357 152.928
L160.438 166.752
L160.494 177.12
L160.511 166.752
L160.524 163.296
L160.543 166.752
L160.543 166.752
L160.546 170.208
L160.547 166.752
L160.547 166.752
L160.553 163.296
L160.556 166.752
L160.556 166.752
L160.566 173.664
L160.587 166.752
L160.587 166.752
L160.747 156.384
L160.829 159.84
L160.829 156.384
L160.829 156.384
L160.913 149.472
L160.92 156.384
L160.92 156.384
L160.972 166.752
L161.032 159.84
L161.042 163.296
L161.042 159.84
L161.042 159.84
L161.046 156.384
L161.058 159.84
L161.058 159.84
L161.084 166.752
L161.161 159.84
L161.219 152.928
L161.236 159.84
L161.236 159.84
L161.357 177.12
L161.357 173.664
L161.408 159.84
L161.44 173.664
L161.44 173.664
L161.462 180.576
L161.486 173.664
L161.486 173.664
L161.493 170.208
L161.495 173.664
L161.495 173.664
L161.625 194.4
L161.638 190.944
L161.667 187.488
L161.694 190.944
L161.694 190.944
L161.713 194.4
L161.727 190.944
L161.727 190.944
L161.728 187.488
L161.736 190.944
L161.736 190.944
L161.75 194.4
L161.756 190.944
L161.756 190.944
L161.844 187.488
L161.849 190.944
L161.849 190.944
L161.949 194.4
L161.951 190.944
L161.982 187.488
L161.991 190.944
L161.991 190.944
L161.999 194.4
L162.007 190.944
L162.007 190.944
L162.013 187.488
L162.021 190.944
L162.021 190.944
L162.022 194.4
L162.06 190.944
L162.06 190.944
L162.073 187.488
L162.077 190.944
L162.077 190.944
L162.109 194.4
L162.116 190.944
L162.116 190.944
L162.222 187.488
L162.224 190.944
L162.257 194.4
L162.258 190.944
L162.258 190.944
L162.325 184.032
L162.343 190.944
L162.436 177.12
L162.47 187.488
L162.499 194.4
L162.563 187.488
L162.571 184.032
L162.575 187.488
L162.575 187.488
L162.61 194.4
L162.632 187.488
L162.632 187.488
L162.837 173.664
L162.84 177.12
L162.842 184.032
L162.864 177.12
L162.864 177.12
L162.872 173.664
L162.908 177.12
L162.908 177.12
L162.943 194.4
L163.004 187.488
L163.121 173.664
L163.126 180.576
L163.282 194.4
L163.307 187.488
L163.362 184.032
L163.374 187.488
L163.421 194.4
L163.439 187.488
L163.439 187.488
L163.449 180.576
L163.538 187.488
L163.631 177.12
L163.761 159.84
L163.795 163.296
L163.804 159.84
L163.804 159.84
L163.855 149.472
L163.904 156.384
L163.92 159.84
L163.921 156.384
L163.921 156.384
L163.941 149.472
L163.956 156.384
L163.956 156.384
L163.969 163.296
L163.975 156.384
L163.975 156.384
L163.993 152.928
L163.997 156.384
L163.997 156.384
L164.129 190.944
L164.16 184.032
L164.184 180.576
L164.19 184.032
L164.19 184.032
L164.193 187.488
L164.199 184.032
L164.199 184.032
L164.308 159.84
L164.308 163.296
L164.505 184.032
L164.616 177.12
L164.618 180.576
L164.623 184.032
L164.644 180.576
L164.644 180.576
L164.658 173.664
L164.708 180.576
L164.708 180.576
L164.751 194.4
L164.825 187.488
L164.979 163.296
L165.001 166.752
L165.123 177.12
L165.141 184.032
L165.161 177.12
L165.161 177.12
L165.236 173.664
L165.243 177.12
L165.243 177.12
L165.298 190.944
L165.348 184.032
L165.449 194.4
L165.473 187.488
L165.525 173.664
L165.592 184.032
L165.694 187.488
L165.703 184.032
L165.721 187.488
L165.721 187.488
L165.803 194.4
L165.82 190.944
L165.959 173.664
L165.977 177.12
L165.987 180.576
L165.994 177.12
L165.994 177.12
L166 173.664
L166 177.12
L166 177.12
L166.059 184.032
L166.079 177.12
L166.16 166.752
L166.195 173.664
L166.243 184.032
L166.248 173.664
L166.248 173.664
L166.339 152.928
L166.358 159.84
L166.398 156.384
L166.401 159.84
L166.401 159.84
L166.402 163.296
L166.402 159.84
L166.402 159.84
L166.403 156.384
L166.403 159.84
L166.403 159.84
L166.43 170.208
L166.467 159.84
L166.512 156.384
L166.536 159.84
L166.553 163.296
L166.553 159.84
L166.553 159.84
L166.712 142.56
L166.769 156.384
L166.824 149.472
L166.89 152.928
L166.895 149.472
L166.933 139.104
L167.006 146.016
L167.011 142.56
L167.014 146.016
L167.014 146.016
L167.069 166.752
L167.116 146.016
L167.127 149.472
L167.127 146.016
L167.127 146.016
L167.158 142.56
L167.168 146.016
L167.168 146.016
L167.267 159.84
L167.269 156.384
L167.506 187.488
L167.531 194.4
L167.566 187.488
L167.566 187.488
L167.728 163.296
L167.779 177.12
L167.833 166.752
L167.848 170.208
L167.849 166.752
L167.849 166.752
L167.895 163.296
L167.911 166.752
L167.911 166.752
L167.913 173.664
L167.929 166.752
L167.929 166.752
L168.017 149.472
L168.039 163.296
L168.088 170.208
L168.133 163.296
L168.133 163.296
L168.161 152.928
L168.196 163.296
L168.196 163.296
L168.235 173.664
L168.305 170.208
L168.369 166.752
L168.381 170.208
L168.411 177.12
L168.483 170.208
L168.519 159.84
L168.54 170.208
L168.54 170.208
L168.581 173.664
L168.59 170.208
L168.59 170.208
L168.702 152.928
L168.724 159.84
L168.837 132.192
L168.859 128.736
L168.869 132.192
L168.869 132.192
L168.964 152.928
L168.989 146.016
L169.119 135.648
L169.127 142.56
L169.14 146.016
L169.15 142.56
L169.15 142.56
L169.211 132.192
L169.26 142.56
L169.324 156.384
L169.368 146.016
L169.429 156.384
L169.492 166.752
L169.514 156.384
L169.514 156.384
L169.624 152.928
L169.636 149.472
L169.636 152.928
L169.636 152.928
L169.735 177.12
L169.798 170.208
L169.821 166.752
L169.844 170.208
L169.844 170.208
L169.946 194.4
L169.981 177.12
L170.007 163.296
L170.067 177.12
L170.067 177.12
L170.075 180.576
L170.082 177.12
L170.082 177.12
L170.134 163.296
L170.192 173.664
L170.367 194.4
L170.406 187.488
L170.708 152.928
L170.774 159.84
L170.985 177.12
L170.991 173.664
L171.044 149.472
L171.075 156.384
L171.142 166.752
L171.159 156.384
L171.169 152.928
L171.182 156.384
L171.182 156.384
L171.209 159.84
L171.209 156.384
L171.209 156.384
L171.217 152.928
L171.229 156.384
L171.229 156.384
L171.431 173.664
L171.442 170.208
L171.489 163.296
L171.525 170.208
L171.525 170.208
L171.536 173.664
L171.543 170.208
L171.543 170.208
L171.616 142.56
L171.674 146.016
L171.768 163.296
L171.885 177.12
L172.012 187.488
L172.116 173.664
L172.277 159.84
L172.29 163.296
L172.461 194.4
L172.483 190.944
L172.666 180.576
L172.876 163.296
L172.88 159.84
L172.896 163.296
L172.896 163.296
L172.935 166.752
L172.945 163.296
L172.945 163.296
L172.952 159.84
L172.989 163.296
L172.989 163.296
L173.011 166.752
L173.013 163.296
L173.013 163.296
L173.148 156.384
L173.261 173.664
L173.27 170.208
L173.322 159.84
L173.382 166.752
L173.419 163.296
L173.444 166.752
L173.444 166.752
L173.543 184.032
L173.569 177.12
L173.671 163.296
L173.69 170.208
L173.704 173.664
L173.736 170.208
L173.736 170.208
L173.811 149.472
L173.851 159.84
L174.038 180.576
L174.052 173.664
L174.062 170.208
L174.067 173.664
L174.067 173.664
L174.098 180.576
L174.112 173.664
L174.112 173.664
L174.117 166.752
L174.13 173.664
L174.13 173.664
L174.151 177.12
L174.155 173.664
L174.155 173.664
L174.239 156.384
L174.277 166.752
L174.28 170.208
L174.28 166.752
L174.28 166.752
L174.295 152.928
L174.33 166.752
L174.33 166.752
L174.363 173.664
L174.39 166.752
L174.39 166.752
L174.469 159.84
L174.496 166.752
L174.581 152.928
L174.612 163.296
L174.65 170.208
L174.677 163.296
L174.677 163.296
L174.682 156.384
L174.714 163.296
L174.714 163.296
L174.719 166.752
L174.724 163.296
L174.724 163.296
L174.767 159.84
L174.787 163.296
L174.787 163.296
L174.891 173.664
L174.921 177.12
L174.924 173.664
L174.924 173.664
L175.009 159.84
L175.061 166.752
L175.13 173.664
L175.177 170.208
L175.258 173.664
L175.34 166.752
L175.373 170.208
L175.504 190.944
L175.61 180.576
L175.629 187.488
L175.635 190.944
L175.635 187.488
L175.635 187.488
L175.637 184.032
L175.655 187.488
L175.655 187.488
L175.666 190.944
L175.676 187.488
L175.676 187.488
L175.706 184.032
L175.706 187.488
L175.706 187.488
L175.784 190.944
L175.785 187.488
L175.785 187.488
L175.798 184.032
L175.82 187.488
L175.82 187.488
L175.847 194.4
L175.875 187.488
L175.875 187.488
L175.973 180.576
L175.982 187.488
L176.016 190.944
L176.041 187.488
L176.041 187.488
L176.147 166.752
L176.16 170.208
L176.235 156.384
L176.274 166.752
L176.313 170.208
L176.323 166.752
L176.323 166.752
L176.328 163.296
L176.329 166.752
L176.329 166.752
L176.402 180.576
L176.435 166.752
L176.52 152.928
L176.529 156.384
L176.657 166.752
L176.662 159.84
L176.681 156.384
L176.686 159.84
L176.686 159.84
L176.831 187.488
L176.841 194.4
L176.856 187.488
L176.856 187.488
L176.971 163.296
L176.996 173.664
L177.079 187.488
L177.113 180.576
L177.127 177.12
L177.148 180.576
L177.148 180.576
L177.268 194.4
L177.381 187.488
L177.447 194.4
L177.471 187.488
L177.492 180.576
L177.562 184.032
L177.635 194.4
L177.691 190.944
L177.729 187.488
L177.73 190.944
L177.73 190.944
L177.732 194.4
L177.747 190.944
L177.747 190.944
L177.891 170.208
L177.979 163.296
L177.99 170.208
L178.053 177.12
L178.095 173.664
L178.255 149.472
L178.358 173.664
L178.373 170.208
L178.452 177.12
L178.488 173.664
L178.541 156.384
L178.605 166.752
L178.634 170.208
L178.659 166.752
L178.659 166.752
L178.716 163.296
L178.72 166.752
L178.72 166.752
L178.751 180.576
L178.822 166.752
L178.907 156.384
L178.913 163.296
L178.963 173.664
L179.004 163.296
L179.005 159.84
L179.019 163.296
L179.019 163.296
L179.067 173.664
L179.089 163.296
L179.089 163.296
L179.194 152.928
L179.216 159.84
L179.355 177.12
L179.388 166.752
L179.46 177.12
L179.513 166.752
L179.565 177.12
L179.597 180.576
L179.604 177.12
L179.604 177.12
L179.622 170.208
L179.626 177.12
L179.626 177.12
L179.734 194.4
L179.736 190.944
L179.761 184.032
L179.773 190.944
L179.773 190.944
L179.78 194.4
L179.789 190.944
L179.789 190.944
L179.82 180.576
L179.877 190.944
L179.877 190.944
L179.882 194.4
L179.905 190.944
L179.905 190.944
L180.01 180.576
L180.028 187.488
L180.129 194.4
L180.131 190.944
L180.251 177.12
L180.261 180.576
L180.358 194.4
L180.362 187.488
L180.45 177.12
L180.465 187.488
L180.483 190.944
L180.487 187.488
L180.487 187.488
L180.601 177.12
L180.637 180.576
L180.643 177.12
L180.643 177.12
L180.742 163.296
L180.764 166.752
L180.789 173.664
L180.806 166.752
L180.806 166.752
L180.814 159.84
L180.909 163.296
L181.016 142.56
L181.05 152.928
L181.173 166.752
L181.2 163.296
L181.221 156.384
L181.248 163.296
L181.248 163.296
L181.361 184.032
L181.38 180.576
L181.439 166.752
L181.461 163.296
L181.463 166.752
L181.463 166.752
L181.555 177.12
L181.581 170.208
L181.583 166.752
L181.6 170.208
L181.6 170.208
L181.688 190.944
L181.767 184.032
L181.941 159.84
L181.984 173.664
L182.063 166.752
L182.16 152.928
L182.208 159.84
L182.236 152.928
L182.347 135.648
L182.386 139.104
L182.461 132.192
L182.497 135.648
L182.503 139.104
L182.509 135.648
L182.509 135.648
L182.615 114.912
L182.686 121.824
L182.688 125.28
L182.697 121.824
L182.697 121.824
L182.782 114.912
L182.798 118.368
L182.815 114.912
L182.847 118.368
L182.847 118.368
L182.859 125.28
L182.938 118.368
L182.938 118.368
L183.045 94.176
L183.07 97.632
L183.084 104.544
L183.113 97.632
L183.113 97.632
L183.133 94.176
L183.15 97.632
L183.15 97.632
L183.243 114.912
L183.329 121.824
L183.341 118.368
L183.43 104.544
L183.449 114.912
L183.531 128.736
L183.596 121.824
L183.605 118.368
L183.625 121.824
L183.625 121.824
L183.642 125.28
L183.643 121.824
L183.643 121.824
L183.655 118.368
L183.673 121.824
L183.673 121.824
L183.738 142.56
L183.778 128.736
L183.825 135.648
L183.849 128.736
L183.897 125.28
L183.902 128.736
L183.902 128.736
L184.033 142.56
L184.077 135.648
L184.081 142.56
L184.081 142.56
L184.138 146.016
L184.141 142.56
L184.141 142.56
L184.23 139.104
L184.373 156.384
L184.421 152.928
L184.422 149.472
L184.422 152.928
L184.422 152.928
L184.475 163.296
L184.521 152.928
L184.521 152.928
L184.522 149.472
L184.524 152.928
L184.524 152.928
L184.536 156.384
L184.54 152.928
L184.54 152.928
L184.543 149.472
L184.546 152.928
L184.546 152.928
L184.546 156.384
L184.552 152.928
L184.552 152.928
L184.556 149.472
L184.559 152.928
L184.559 152.928
L184.564 156.384
L184.577 152.928
L184.577 152.928
L184.59 146.016
L184.596 152.928
L184.596 152.928
L184.662 170.208
L184.699 159.84
L184.716 156.384
L184.718 159.84
L184.718 159.84
L184.772 177.12
L184.845 166.752
L184.951 159.84
L185.024 170.208
L185.069 166.752
L185.139 173.664
L185.192 177.12
L185.218 173.664
L185.369 152.928
L185.414 142.56
L185.472 149.472
L185.582 156.384
L185.594 152.928
L185.617 159.84
L185.705 152.928
L185.787 135.648
L185.807 139.104
L185.971 149.472
L185.977 146.016
L186.002 149.472
L186.002 149.472
L186.075 156.384
L186.106 152.928
L186.143 156.384
L186.164 152.928
L186.164 152.928
L186.265 135.648
L186.33 142.56
L186.348 149.472
L186.405 142.56
L186.532 128.736
L186.538 125.28
L186.548 128.736
L186.548 128.736
L186.678 166.752
L186.717 152.928
L186.8 163.296
L186.876 180.576
L186.953 173.664
L187.006 170.208
L187.024 173.664
L187.024 173.664
L187.083 187.488
L187.135 180.576
L187.195 194.4
L187.235 180.576
L187.293 166.752
L187.348 170.208
L187.445 152.928
L187.466 166.752
L187.513 177.12
L187.531 166.752
L187.531 166.752
L187.643 156.384
L187.65 159.84
L187.757 166.752
L187.965 149.472
L187.967 152.928
L188.053 170.208
L188.103 159.84
L188.235 146.016
L188.241 149.472
L188.257 146.016
L188.271 149.472
L188.271 149.472
L188.272 152.928
L188.276 149.472
L188.276 149.472
L188.339 135.648
L188.387 146.016
L188.505 163.296
L188.737 139.104
L188.771 149.472
L188.888 166.752
L188.901 163.296
L188.932 159.84
L188.933 163.296
L188.933 163.296
L188.941 166.752
L188.946 163.296
L188.946 163.296
L189.035 159.84
L189.352 194.4
L189.353 190.944
L189.392 194.4
L189.394 190.944
L189.394 190.944
L189.448 173.664
L189.502 190.944
L189.505 194.4
L189.54 190.944
L189.54 190.944
L189.544 187.488
L189.552 190.944
L189.552 190.944
L189.611 194.4
L189.62 190.944
L189.62 190.944
L189.63 184.032
L189.665 190.944
L189.665 190.944
L189.675 194.4
L189.688 190.944
L189.688 190.944
L189.749 177.12
L189.8 184.032
L189.817 177.12
L189.82 184.032
L189.82 184.032
L189.831 187.488
L189.848 184.032
L189.848 184.032
L189.961 177.12
L189.97 180.576
L189.992 184.032
L189.995 180.576
L189.995 180.576
L190.099 177.12
L190.11 180.576
L190.112 177.12
L190.112 177.12
L190.118 173.664
L190.123 177.12
L190.123 177.12
L190.242 184.032
L190.327 166.752
L190.328 170.208
L190.369 163.296
L190.411 166.752
L190.47 173.664
L190.486 166.752
L190.553 159.84
L190.597 163.296
L190.613 166.752
L190.628 163.296
L190.628 163.296
L190.666 159.84
L190.669 163.296
L190.669 163.296
L190.762 177.12
L190.775 170.208
L190.831 166.752
L190.835 170.208
L190.889 173.664
L190.889 170.208
L190.924 166.752
L190.952 170.208
L190.952 170.208
L190.968 177.12
L191.038 170.208
L191.038 170.208
L191.057 163.296
L191.1 170.208
L191.1 170.208
L191.129 180.576
L191.203 177.12
L191.38 194.4
L191.387 187.488
L191.44 180.576
L191.496 187.488
L191.504 184.032
L191.519 187.488
L191.519 187.488
L191.548 194.4
L191.565 187.488
L191.565 187.488
L191.66 170.208
L191.683 166.752
L191.685 170.208
L191.685 170.208
L191.751 177.12
L191.754 170.208
L191.886 152.928
L191.903 156.384
L191.903 159.84
L191.906 156.384
L191.906 156.384
L191.929 146.016
L191.947 156.384
L191.947 156.384
L191.964 159.84
L191.968 156.384
L191.968 156.384
L191.977 146.016
L192.002 156.384
L192.002 156.384
L192.152 170.208
L192.17 166.752
L192.191 159.84
L192.217 166.752
L192.217 166.752
L192.236 173.664
L192.299 166.752
L192.299 166.752
L192.317 156.384
L192.334 166.752
L192.334 166.752
L192.468 180.576
L192.468 177.12
L192.49 166.752
L192.505 177.12
L192.505 177.12
L192.697 194.4
L192.823 180.576
L192.828 187.488
L192.83 190.944
L192.833 187.488
L192.833 187.488
L192.839 184.032
L192.849 187.488
L192.849 187.488
L192.85 194.4
L192.858 187.488
L192.858 187.488
L192.898 177.12
L192.94 187.488
L192.974 194.4
L193.034 187.488
L193.093 180.576
L193.143 187.488
L193.387 152.928
L193.4 159.84
L193.515 173.664
L193.531 166.752
L193.554 159.84
L193.57 166.752
L193.57 166.752
L193.687 180.576
L193.744 194.4
L193.8 184.032
L193.875 177.12
L193.891 180.576
L193.929 184.032
L193.929 180.576
L193.929 180.576
L193.935 177.12
L193.949 180.576
L193.949 180.576
L193.95 184.032
L193.982 180.576
L193.982 180.576
L194.195 166.752
L194.195 170.208
L194.294 184.032
L194.303 180.576
L194.381 177.12
L194.388 180.576
L194.389 184.032
L194.396 180.576" style="fill:none;stroke:#0000ff;stroke-linecap:square;"/>
   </g>
   <g id="matplotlib.axis_1">
    <g id="text_1">
     <!-- $t$ -->
     <defs>
      <path d="
M1.79688 38.5938
L10.2031 38.5938
L10.2031 11.7031
C10.2031 0.703125 15.0938 -1.09375 18.4062 -1.09375
C22.9062 -1.09375 28 -0.09375 33.2031 2.70312
L31.5938 8.59375
C30.2031 7.59375 27.0938 5.29688 22.7969 5.29688
C17.5938 5.29688 17.4062 11.2031 17.4062 14
L17.4062 38.5938
L31.5 38.5938
L31.5 44.5
L17.4062 44.5
L17.4062 57.0938
L10.4062 57.0938
L10.4062 44.5
L1.79688 44.5
z
" id="CMUSansSerif-74"/>
     </defs>
     <g transform="translate(108.036 209.79725)scale(0.144 -0.144)">
      <use transform="translate(0.0 0.90625)" xlink:href="#CMUSansSerif-74"/>
     </g>
    </g>
   </g>
   <g id="matplotlib.axis_2">
    <g id="text_2">
     <!-- $n(t)$ -->
     <defs>
      <path d="
M8 0
L15.7969 0
L15.7969 24
C15.7969 31.4062 18.2969 39.4062 26 39.4062
C35.7969 39.4062 35.7969 31.9062 35.7969 28.0938
L35.7969 0
L43.5938 0
L43.5938 28.7969
C43.5938 35.7969 42.7031 45.5 29.9062 45.5
C21.0938 45.5 16.7031 39.7969 15.2969 38
L15.2969 45
L8 45
z
" id="CMUSansSerif-6e"/>
      <path d="
M5.5 -25
L11.5938 -25
C18.4062 -18.9062 30.7969 -5.09375 30.7969 25.0938
C30.7969 55 18.4062 68.9062 11.5938 75
L5.5 75
C10.2031 70 23 57.7031 23 25
C23 -6.40625 11.5 -18.5938 5.5 -25" id="CMUSansSerif-29"/>
      <path d="
M8 25
C8 -5.40625 20.7031 -19.2031 27.0938 -25
L33.2969 -25
L30.0938 -21.5938
C18.4062 -8.09375 15.7969 10.2969 15.7969 25
C15.7969 38.7031 18.0938 52.9062 25.2031 64.7969
C28.0938 69.7031 30.4062 71.9062 33.2969 75
L27.0938 75
C20.2969 68.9062 8 55.0938 8 25" id="CMUSansSerif-28"/>
     </defs>
     <g transform="translate(18.4 119.952)rotate(-90.0)scale(0.144 -0.144)">
      <use xlink:href="#CMUSansSerif-6e"/>
      <use transform="translate(51.69999694824219 0.0)" xlink:href="#CMUSansSerif-28"/>
      <use transform="translate(90.59999084472656 0.0)" xlink:href="#CMUSansSerif-74"/>
      <use transform="translate(126.69998168945312 0.0)" xlink:href="#CMUSansSerif-29"/>
     </g>
    </g>
   </g>
   <g id="patch_3">
    <path d="
M194.4 194.4
L194.4 21.6" style="fill:none;stroke:#000000;"/>
   </g>
   <g id="patch_4">
    <path d="
M27 21.6
L194.4 21.6" style="fill:none;stroke:#000000;"/>
   </g>
   <g id="patch_5">
    <path d="
M27 194.4
L27 21.6" style="fill:none;stroke:#000000;"/>
   </g>
   <g id="patch_6">
    <path d="
M27 194.4
L194.4 194.4" style="fill:none;stroke:#000000;"/>
   </g>
  </g>
 </g>
 <defs>
  <clipPath id="p4c72f1c596">
   <rect height="172.8" width="167.4" x="27.0" y="21.6"/>
  </clipPath>
 </defs>
</svg>
