<?xml version="1.0" encoding="UTF-8" standalone="no"?>
<!-- Created with Inkscape (http://www.inkscape.org/) -->

<svg
   xmlns:dc="http://purl.org/dc/elements/1.1/"
   xmlns:cc="http://creativecommons.org/ns#"
   xmlns:rdf="http://www.w3.org/1999/02/22-rdf-syntax-ns#"
   xmlns:svg="http://www.w3.org/2000/svg"
   xmlns="http://www.w3.org/2000/svg"
   xmlns:sodipodi="http://sodipodi.sourceforge.net/DTD/sodipodi-0.dtd"
   xmlns:inkscape="http://www.inkscape.org/namespaces/inkscape"
   width="453.5433"
   height="340.15747"
   id="svg2"
   sodipodi:version="0.32"
   inkscape:version="0.48.4 r9939"
   sodipodi:docname="New document 24"
   version="1.0">
  <defs
     id="defs4" />
  <sodipodi:namedview
     id="base"
     pagecolor="#ffffff"
     bordercolor="#666666"
     borderopacity="1.0"
     inkscape:pageopacity="0.0"
     inkscape:pageshadow="2"
     inkscape:zoom="1.540463"
     inkscape:cx="114.46775"
     inkscape:cy="170.07874"
     inkscape:document-units="mm"
     inkscape:current-layer="layer1"
     inkscape:window-width="1916"
     inkscape:window-height="1041"
     inkscape:window-x="0"
     inkscape:window-y="18"
     width="12.8cm"
     height="9.6cm"
     units="cm"
     showgrid="true"
     grid_units="mm"
     inkscape:object-paths="false"
     inkscape:grid-points="true"
     inkscape:grid-bbox="true"
     inkscape:guide-points="true"
     showguides="true"
     inkscape:guide-bbox="true"
     inkscape:window-maximized="0">
    <sodipodi:guide
       orientation="vertical"
       position="56.476527"
       id="guide3573" />
    <sodipodi:guide
       orientation="horizontal"
       position="11.035643"
       id="guide3579" />
    <sodipodi:guide
       orientation="horizontal"
       position="24.018753"
       id="guide3886" />
    <sodipodi:guide
       orientation="horizontal"
       position="285.62841"
       id="guide3988" />
    <sodipodi:guide
       orientation="horizontal"
       position="303.15561"
       id="guide4081" />
    <inkscape:grid
       id="GridFromPre046Settings"
       type="xygrid"
       originx="0px"
       originy="0px"
       spacingx="2mm"
       spacingy="2mm"
       color="#3f3fff"
       empcolor="#3f3fff"
       opacity="0.15"
       empopacity="0.38"
       empspacing="5" />
  </sodipodi:namedview>
  <metadata
     id="metadata7">
    <rdf:RDF>
      <cc:Work
         rdf:about="">
        <dc:format>image/svg+xml</dc:format>
        <dc:type
           rdf:resource="http://purl.org/dc/dcmitype/StillImage" />
        <dc:title></dc:title>
      </cc:Work>
    </rdf:RDF>
  </metadata>
  <g
     inkscape:label="Layer 1"
     inkscape:groupmode="layer"
     id="layer1"
     transform="translate(4.149475e-6,-698.0315)">
    <rect
       style="color:#000000;fill:#00ffff;fill-opacity:0.19907407;fill-rule:nonzero;stroke:#000000;stroke-width:2.50000000000000000;stroke-linecap:square;stroke-linejoin:round;stroke-miterlimit:4;stroke-opacity:1;stroke-dasharray:none;stroke-dashoffset:0;marker:none;visibility:visible;display:inline;overflow:visible;enable-background:accumulate"
       id="rect5196"
       width="198.4252"
       height="162.99213"
       x="226.77165"
       y="70.866135"
       transform="translate(-4.149475e-6,698.0315)"
       ry="14.173225" />
    <g
       transform="matrix(-0.07333485,-0.05437893,0.05433813,-0.07327981,259.30214,871.24145)"
       id="g4152"
       style="stroke-width:10.27258396;stroke-miterlimit:4;stroke-dasharray:none">
      <path
         style="fill:#a28dff;fill-opacity:1;stroke:#000000;stroke-width:10.27258396;stroke-linecap:butt;stroke-linejoin:miter;stroke-miterlimit:4;stroke-opacity:1;stroke-dasharray:none"
         d="m 567.14286,494.50504 c -17.99458,-10.31094 -44.97491,-1.88892 -50.86665,18.87442 -7.98863,13.88854 1.7017,27.05466 13.55891,33.60251 4.12277,13.80006 -15.38778,11.40072 -23.60444,14.51177 -14.32026,3.4311 -27.54827,12.14657 -34.40547,25.42822 -9.07519,13.97744 -2.86795,34.30164 11.97721,41.54499 13.10968,9.02148 29.00503,16.90487 35.80385,32.11958 4.15787,13.04399 -5.9067,25.94062 -2.4652,38.68813 7.75825,13.47389 23.85994,18.32206 37.10592,24.81188 8.42741,3.47274 17.44607,6.02993 26.63831,5.733 12.86767,-8.69749 28.10839,-12.47724 42.86341,-15.85819 12.05234,-10.61018 0.20221,-26.68818 -7.50725,-36.12467 -7.71469,-9.36935 -18.87278,-19.81061 -14.78224,-33.23923 6.4738,-10.13224 21.78363,-6.41479 31.17856,-13.22304 15.99944,-6.67343 27.5251,-19.92031 37.77574,-33.37396 10.3738,-12.47217 20.8775,-25.5916 24.30183,-41.86767 5.21238,-11.89644 0.8105,-25.28183 -11.81752,-29.65106 -14.5618,-7.94868 -31.77218,-6.70066 -47.13793,-11.74089 -13.54651,-6.59329 -27.25287,-14.14388 -36.79633,-26.11543 -10.41259,-14.24485 -24.76883,-6.50086 -31.82071,5.87964 z"
         id="path4154"
         inkscape:connector-curvature="0" />
      <path
         style="fill:none;stroke:#000000;stroke-width:10.27258396;stroke-linecap:butt;stroke-linejoin:miter;stroke-miterlimit:4;stroke-opacity:1;stroke-dasharray:none"
         d="m 619.28571,545.93361 c 5.3214,13.74152 12.14503,27.21898 14.01122,41.99922 -0.32418,5.66561 -6.72918,7.384 -11.0698,9.17715 -2.38908,0.85777 -4.82213,1.58451 -7.22713,2.39506"
         id="path4156"
         inkscape:connector-curvature="0" />
      <path
         style="fill:none;stroke:#000000;stroke-width:10.27258396;stroke-linecap:butt;stroke-linejoin:miter;stroke-miterlimit:4;stroke-opacity:1;stroke-dasharray:none"
         d="m 567.85714,626.6479 c -9.80347,-2.24166 -19.46549,5.83721 -19.43978,15.72597 -2.62094,10.93594 7.54912,18.49862 10.99424,27.81088 0.96529,2.01614 2.02755,4.00855 3.44557,5.74886"
         id="path4158"
         inkscape:connector-curvature="0" />
      <path
         style="fill:none;stroke:#000000;stroke-width:10.27258396;stroke-linecap:butt;stroke-linejoin:miter;stroke-miterlimit:4;stroke-opacity:1;stroke-dasharray:none"
         d="m 591.42858,515.21932 c -7.60843,2.16285 -9.49373,11.03386 -12.68384,17.25107 -2.34879,7.0867 -5.86531,15.89963 -0.19324,22.31786 3.00508,4.11593 4.94658,8.74589 7.16279,13.28822"
         id="path4160"
         inkscape:connector-curvature="0" />
    </g>
    <g
       style="stroke-width:10.27258396;stroke-miterlimit:4;stroke-dasharray:none"
       id="g5790"
       transform="matrix(0.00866693,0.09088429,-0.09081608,0.00866042,440.87233,833.59905)">
      <path
         inkscape:connector-curvature="0"
         id="path5792"
         d="m 567.14286,494.50504 c -17.99458,-10.31094 -44.97491,-1.88892 -50.86665,18.87442 -7.98863,13.88854 1.7017,27.05466 13.55891,33.60251 4.12277,13.80006 -15.38778,11.40072 -23.60444,14.51177 -14.32026,3.4311 -27.54827,12.14657 -34.40547,25.42822 -9.07519,13.97744 -2.86795,34.30164 11.97721,41.54499 13.10968,9.02148 29.00503,16.90487 35.80385,32.11958 4.15787,13.04399 -5.9067,25.94062 -2.4652,38.68813 7.75825,13.47389 23.85994,18.32206 37.10592,24.81188 8.42741,3.47274 17.44607,6.02993 26.63831,5.733 12.86767,-8.69749 28.10839,-12.47724 42.86341,-15.85819 12.05234,-10.61018 0.20221,-26.68818 -7.50725,-36.12467 -7.71469,-9.36935 -18.87278,-19.81061 -14.78224,-33.23923 6.4738,-10.13224 21.78363,-6.41479 31.17856,-13.22304 15.99944,-6.67343 27.5251,-19.92031 37.77574,-33.37396 10.3738,-12.47217 20.8775,-25.5916 24.30183,-41.86767 5.21238,-11.89644 0.8105,-25.28183 -11.81752,-29.65106 -14.5618,-7.94868 -31.77218,-6.70066 -47.13793,-11.74089 -13.54651,-6.59329 -27.25287,-14.14388 -36.79633,-26.11543 -10.41259,-14.24485 -24.76883,-6.50086 -31.82071,5.87964 z"
         style="fill:#a28dff;fill-opacity:1;stroke:#000000;stroke-width:10.27258396;stroke-linecap:butt;stroke-linejoin:miter;stroke-miterlimit:4;stroke-opacity:1;stroke-dasharray:none" />
      <path
         inkscape:connector-curvature="0"
         id="path5794"
         d="m 619.28571,545.93361 c 5.3214,13.74152 12.14503,27.21898 14.01122,41.99922 -0.32418,5.66561 -6.72918,7.384 -11.0698,9.17715 -2.38908,0.85777 -4.82213,1.58451 -7.22713,2.39506"
         style="fill:none;stroke:#000000;stroke-width:10.27258396;stroke-linecap:butt;stroke-linejoin:miter;stroke-miterlimit:4;stroke-opacity:1;stroke-dasharray:none" />
      <path
         inkscape:connector-curvature="0"
         id="path5796"
         d="m 567.85714,626.6479 c -9.80347,-2.24166 -19.46549,5.83721 -19.43978,15.72597 -2.62094,10.93594 7.54912,18.49862 10.99424,27.81088 0.96529,2.01614 2.02755,4.00855 3.44557,5.74886"
         style="fill:none;stroke:#000000;stroke-width:10.27258396;stroke-linecap:butt;stroke-linejoin:miter;stroke-miterlimit:4;stroke-opacity:1;stroke-dasharray:none" />
      <path
         inkscape:connector-curvature="0"
         id="path5798"
         d="m 591.42858,515.21932 c -7.60843,2.16285 -9.49373,11.03386 -12.68384,17.25107 -2.34879,7.0867 -5.86531,15.89963 -0.19324,22.31786 3.00508,4.11593 4.94658,8.74589 7.16279,13.28822"
         style="fill:none;stroke:#000000;stroke-width:10.27258396;stroke-linecap:butt;stroke-linejoin:miter;stroke-miterlimit:4;stroke-opacity:1;stroke-dasharray:none" />
    </g>
    <g
       transform="matrix(-0.02092159,0.08886707,-0.08880038,-0.0209059,325.59198,851.90326)"
       id="g5800"
       style="stroke-width:10.27258396;stroke-miterlimit:4;stroke-dasharray:none">
      <path
         style="fill:#a28dff;fill-opacity:1;stroke:#000000;stroke-width:10.27258396;stroke-linecap:butt;stroke-linejoin:miter;stroke-miterlimit:4;stroke-opacity:1;stroke-dasharray:none"
         d="m 567.14286,494.50504 c -17.99458,-10.31094 -44.97491,-1.88892 -50.86665,18.87442 -7.98863,13.88854 1.7017,27.05466 13.55891,33.60251 4.12277,13.80006 -15.38778,11.40072 -23.60444,14.51177 -14.32026,3.4311 -27.54827,12.14657 -34.40547,25.42822 -9.07519,13.97744 -2.86795,34.30164 11.97721,41.54499 13.10968,9.02148 29.00503,16.90487 35.80385,32.11958 4.15787,13.04399 -5.9067,25.94062 -2.4652,38.68813 7.75825,13.47389 23.85994,18.32206 37.10592,24.81188 8.42741,3.47274 17.44607,6.02993 26.63831,5.733 12.86767,-8.69749 28.10839,-12.47724 42.86341,-15.85819 12.05234,-10.61018 0.20221,-26.68818 -7.50725,-36.12467 -7.71469,-9.36935 -18.87278,-19.81061 -14.78224,-33.23923 6.4738,-10.13224 21.78363,-6.41479 31.17856,-13.22304 15.99944,-6.67343 27.5251,-19.92031 37.77574,-33.37396 10.3738,-12.47217 20.8775,-25.5916 24.30183,-41.86767 5.21238,-11.89644 0.8105,-25.28183 -11.81752,-29.65106 -14.5618,-7.94868 -31.77218,-6.70066 -47.13793,-11.74089 -13.54651,-6.59329 -27.25287,-14.14388 -36.79633,-26.11543 -10.41259,-14.24485 -24.76883,-6.50086 -31.82071,5.87964 z"
         id="path5802"
         inkscape:connector-curvature="0" />
      <path
         style="fill:none;stroke:#000000;stroke-width:10.27258396;stroke-linecap:butt;stroke-linejoin:miter;stroke-miterlimit:4;stroke-opacity:1;stroke-dasharray:none"
         d="m 619.28571,545.93361 c 5.3214,13.74152 12.14503,27.21898 14.01122,41.99922 -0.32418,5.66561 -6.72918,7.384 -11.0698,9.17715 -2.38908,0.85777 -4.82213,1.58451 -7.22713,2.39506"
         id="path5804"
         inkscape:connector-curvature="0" />
      <path
         style="fill:none;stroke:#000000;stroke-width:10.27258396;stroke-linecap:butt;stroke-linejoin:miter;stroke-miterlimit:4;stroke-opacity:1;stroke-dasharray:none"
         d="m 567.85714,626.6479 c -9.80347,-2.24166 -19.46549,5.83721 -19.43978,15.72597 -2.62094,10.93594 7.54912,18.49862 10.99424,27.81088 0.96529,2.01614 2.02755,4.00855 3.44557,5.74886"
         id="path5806"
         inkscape:connector-curvature="0" />
      <path
         style="fill:none;stroke:#000000;stroke-width:10.27258396;stroke-linecap:butt;stroke-linejoin:miter;stroke-miterlimit:4;stroke-opacity:1;stroke-dasharray:none"
         d="m 591.42858,515.21932 c -7.60843,2.16285 -9.49373,11.03386 -12.68384,17.25107 -2.34879,7.0867 -5.86531,15.89963 -0.19324,22.31786 3.00508,4.11593 4.94658,8.74589 7.16279,13.28822"
         id="path5808"
         inkscape:connector-curvature="0" />
    </g>
    <g
       style="stroke-width:10.27258396;stroke-miterlimit:4;stroke-dasharray:none"
       id="g5810"
       transform="matrix(-0.09031548,-0.01334851,0.01333851,-0.0902477,413.85722,859.08962)">
      <path
         inkscape:connector-curvature="0"
         id="path5812"
         d="m 567.14286,494.50504 c -17.99458,-10.31094 -44.97491,-1.88892 -50.86665,18.87442 -7.98863,13.88854 1.7017,27.05466 13.55891,33.60251 4.12277,13.80006 -15.38778,11.40072 -23.60444,14.51177 -14.32026,3.4311 -27.54827,12.14657 -34.40547,25.42822 -9.07519,13.97744 -2.86795,34.30164 11.97721,41.54499 13.10968,9.02148 29.00503,16.90487 35.80385,32.11958 4.15787,13.04399 -5.9067,25.94062 -2.4652,38.68813 7.75825,13.47389 23.85994,18.32206 37.10592,24.81188 8.42741,3.47274 17.44607,6.02993 26.63831,5.733 12.86767,-8.69749 28.10839,-12.47724 42.86341,-15.85819 12.05234,-10.61018 0.20221,-26.68818 -7.50725,-36.12467 -7.71469,-9.36935 -18.87278,-19.81061 -14.78224,-33.23923 6.4738,-10.13224 21.78363,-6.41479 31.17856,-13.22304 15.99944,-6.67343 27.5251,-19.92031 37.77574,-33.37396 10.3738,-12.47217 20.8775,-25.5916 24.30183,-41.86767 5.21238,-11.89644 0.8105,-25.28183 -11.81752,-29.65106 -14.5618,-7.94868 -31.77218,-6.70066 -47.13793,-11.74089 -13.54651,-6.59329 -27.25287,-14.14388 -36.79633,-26.11543 -10.41259,-14.24485 -24.76883,-6.50086 -31.82071,5.87964 z"
         style="fill:#a28dff;fill-opacity:1;stroke:#000000;stroke-width:10.27258396;stroke-linecap:butt;stroke-linejoin:miter;stroke-miterlimit:4;stroke-opacity:1;stroke-dasharray:none" />
      <path
         inkscape:connector-curvature="0"
         id="path5814"
         d="m 619.28571,545.93361 c 5.3214,13.74152 12.14503,27.21898 14.01122,41.99922 -0.32418,5.66561 -6.72918,7.384 -11.0698,9.17715 -2.38908,0.85777 -4.82213,1.58451 -7.22713,2.39506"
         style="fill:none;stroke:#000000;stroke-width:10.27258396;stroke-linecap:butt;stroke-linejoin:miter;stroke-miterlimit:4;stroke-opacity:1;stroke-dasharray:none" />
      <path
         inkscape:connector-curvature="0"
         id="path5816"
         d="m 567.85714,626.6479 c -9.80347,-2.24166 -19.46549,5.83721 -19.43978,15.72597 -2.62094,10.93594 7.54912,18.49862 10.99424,27.81088 0.96529,2.01614 2.02755,4.00855 3.44557,5.74886"
         style="fill:none;stroke:#000000;stroke-width:10.27258396;stroke-linecap:butt;stroke-linejoin:miter;stroke-miterlimit:4;stroke-opacity:1;stroke-dasharray:none" />
      <path
         inkscape:connector-curvature="0"
         id="path5818"
         d="m 591.42858,515.21932 c -7.60843,2.16285 -9.49373,11.03386 -12.68384,17.25107 -2.34879,7.0867 -5.86531,15.89963 -0.19324,22.31786 3.00508,4.11593 4.94658,8.74589 7.16279,13.28822"
         style="fill:none;stroke:#000000;stroke-width:10.27258396;stroke-linecap:butt;stroke-linejoin:miter;stroke-miterlimit:4;stroke-opacity:1;stroke-dasharray:none" />
    </g>
    <g
       transform="matrix(-0.08390637,-0.03598318,0.03595619,-0.0838434,366.69119,942.2919)"
       id="g5820"
       style="stroke-width:10.27258396;stroke-miterlimit:4;stroke-dasharray:none">
      <path
         style="fill:#a28dff;fill-opacity:1;stroke:#000000;stroke-width:10.27258396;stroke-linecap:butt;stroke-linejoin:miter;stroke-miterlimit:4;stroke-opacity:1;stroke-dasharray:none"
         d="m 567.14286,494.50504 c -17.99458,-10.31094 -44.97491,-1.88892 -50.86665,18.87442 -7.98863,13.88854 1.7017,27.05466 13.55891,33.60251 4.12277,13.80006 -15.38778,11.40072 -23.60444,14.51177 -14.32026,3.4311 -27.54827,12.14657 -34.40547,25.42822 -9.07519,13.97744 -2.86795,34.30164 11.97721,41.54499 13.10968,9.02148 29.00503,16.90487 35.80385,32.11958 4.15787,13.04399 -5.9067,25.94062 -2.4652,38.68813 7.75825,13.47389 23.85994,18.32206 37.10592,24.81188 8.42741,3.47274 17.44607,6.02993 26.63831,5.733 12.86767,-8.69749 28.10839,-12.47724 42.86341,-15.85819 12.05234,-10.61018 0.20221,-26.68818 -7.50725,-36.12467 -7.71469,-9.36935 -18.87278,-19.81061 -14.78224,-33.23923 6.4738,-10.13224 21.78363,-6.41479 31.17856,-13.22304 15.99944,-6.67343 27.5251,-19.92031 37.77574,-33.37396 10.3738,-12.47217 20.8775,-25.5916 24.30183,-41.86767 5.21238,-11.89644 0.8105,-25.28183 -11.81752,-29.65106 -14.5618,-7.94868 -31.77218,-6.70066 -47.13793,-11.74089 -13.54651,-6.59329 -27.25287,-14.14388 -36.79633,-26.11543 -10.41259,-14.24485 -24.76883,-6.50086 -31.82071,5.87964 z"
         id="path5822"
         inkscape:connector-curvature="0" />
      <path
         style="fill:none;stroke:#000000;stroke-width:10.27258396;stroke-linecap:butt;stroke-linejoin:miter;stroke-miterlimit:4;stroke-opacity:1;stroke-dasharray:none"
         d="m 619.28571,545.93361 c 5.3214,13.74152 12.14503,27.21898 14.01122,41.99922 -0.32418,5.66561 -6.72918,7.384 -11.0698,9.17715 -2.38908,0.85777 -4.82213,1.58451 -7.22713,2.39506"
         id="path5824"
         inkscape:connector-curvature="0" />
      <path
         style="fill:none;stroke:#000000;stroke-width:10.27258396;stroke-linecap:butt;stroke-linejoin:miter;stroke-miterlimit:4;stroke-opacity:1;stroke-dasharray:none"
         d="m 567.85714,626.6479 c -9.80347,-2.24166 -19.46549,5.83721 -19.43978,15.72597 -2.62094,10.93594 7.54912,18.49862 10.99424,27.81088 0.96529,2.01614 2.02755,4.00855 3.44557,5.74886"
         id="path5826"
         inkscape:connector-curvature="0" />
      <path
         style="fill:none;stroke:#000000;stroke-width:10.27258396;stroke-linecap:butt;stroke-linejoin:miter;stroke-miterlimit:4;stroke-opacity:1;stroke-dasharray:none"
         d="m 591.42858,515.21932 c -7.60843,2.16285 -9.49373,11.03386 -12.68384,17.25107 -2.34879,7.0867 -5.86531,15.89963 -0.19324,22.31786 3.00508,4.11593 4.94658,8.74589 7.16279,13.28822"
         id="path5828"
         inkscape:connector-curvature="0" />
    </g>
    <g
       style="stroke-width:10.27258396;stroke-miterlimit:4;stroke-dasharray:none"
       id="g5830"
       transform="matrix(0.09111058,-0.00582503,0.00582064,0.09104221,248.84772,763.19574)">
      <path
         inkscape:connector-curvature="0"
         id="path5832"
         d="m 567.14286,494.50504 c -17.99458,-10.31094 -44.97491,-1.88892 -50.86665,18.87442 -7.98863,13.88854 1.7017,27.05466 13.55891,33.60251 4.12277,13.80006 -15.38778,11.40072 -23.60444,14.51177 -14.32026,3.4311 -27.54827,12.14657 -34.40547,25.42822 -9.07519,13.97744 -2.86795,34.30164 11.97721,41.54499 13.10968,9.02148 29.00503,16.90487 35.80385,32.11958 4.15787,13.04399 -5.9067,25.94062 -2.4652,38.68813 7.75825,13.47389 23.85994,18.32206 37.10592,24.81188 8.42741,3.47274 17.44607,6.02993 26.63831,5.733 12.86767,-8.69749 28.10839,-12.47724 42.86341,-15.85819 12.05234,-10.61018 0.20221,-26.68818 -7.50725,-36.12467 -7.71469,-9.36935 -18.87278,-19.81061 -14.78224,-33.23923 6.4738,-10.13224 21.78363,-6.41479 31.17856,-13.22304 15.99944,-6.67343 27.5251,-19.92031 37.77574,-33.37396 10.3738,-12.47217 20.8775,-25.5916 24.30183,-41.86767 5.21238,-11.89644 0.8105,-25.28183 -11.81752,-29.65106 -14.5618,-7.94868 -31.77218,-6.70066 -47.13793,-11.74089 -13.54651,-6.59329 -27.25287,-14.14388 -36.79633,-26.11543 -10.41259,-14.24485 -24.76883,-6.50086 -31.82071,5.87964 z"
         style="fill:#a28dff;fill-opacity:1;stroke:#000000;stroke-width:10.27258396;stroke-linecap:butt;stroke-linejoin:miter;stroke-miterlimit:4;stroke-opacity:1;stroke-dasharray:none" />
      <path
         inkscape:connector-curvature="0"
         id="path5834"
         d="m 619.28571,545.93361 c 5.3214,13.74152 12.14503,27.21898 14.01122,41.99922 -0.32418,5.66561 -6.72918,7.384 -11.0698,9.17715 -2.38908,0.85777 -4.82213,1.58451 -7.22713,2.39506"
         style="fill:none;stroke:#000000;stroke-width:10.27258396;stroke-linecap:butt;stroke-linejoin:miter;stroke-miterlimit:4;stroke-opacity:1;stroke-dasharray:none" />
      <path
         inkscape:connector-curvature="0"
         id="path5836"
         d="m 567.85714,626.6479 c -9.80347,-2.24166 -19.46549,5.83721 -19.43978,15.72597 -2.62094,10.93594 7.54912,18.49862 10.99424,27.81088 0.96529,2.01614 2.02755,4.00855 3.44557,5.74886"
         style="fill:none;stroke:#000000;stroke-width:10.27258396;stroke-linecap:butt;stroke-linejoin:miter;stroke-miterlimit:4;stroke-opacity:1;stroke-dasharray:none" />
      <path
         inkscape:connector-curvature="0"
         id="path5838"
         d="m 591.42858,515.21932 c -7.60843,2.16285 -9.49373,11.03386 -12.68384,17.25107 -2.34879,7.0867 -5.86531,15.89963 -0.19324,22.31786 3.00508,4.11593 4.94658,8.74589 7.16279,13.28822"
         style="fill:none;stroke:#000000;stroke-width:10.27258396;stroke-linecap:butt;stroke-linejoin:miter;stroke-miterlimit:4;stroke-opacity:1;stroke-dasharray:none" />
    </g>
  </g>
</svg>
