<?xml version="1.0" encoding="UTF-8" standalone="no"?>
<!-- Created with matplotlib (http://matplotlib.org/) -->

<svg
   xmlns:dc="http://purl.org/dc/elements/1.1/"
   xmlns:cc="http://creativecommons.org/ns#"
   xmlns:rdf="http://www.w3.org/1999/02/22-rdf-syntax-ns#"
   xmlns:svg="http://www.w3.org/2000/svg"
   xmlns="http://www.w3.org/2000/svg"
   xmlns:sodipodi="http://sodipodi.sourceforge.net/DTD/sodipodi-0.dtd"
   xmlns:inkscape="http://www.inkscape.org/namespaces/inkscape"
   height="889pt"
   version="1.1"
   viewBox="0 0 860 889"
   width="860pt"
   id="svg3272"
   inkscape:version="0.48.4 r9939"
   sodipodi:docname="sample_trj.svg">
  <metadata
     id="metadata3538">
    <rdf:RDF>
      <cc:Work
         rdf:about="">
        <dc:format>image/svg+xml</dc:format>
        <dc:type
           rdf:resource="http://purl.org/dc/dcmitype/StillImage" />
      </cc:Work>
    </rdf:RDF>
  </metadata>
  <sodipodi:namedview
     pagecolor="#ffffff"
     bordercolor="#666666"
     borderopacity="1"
     objecttolerance="10"
     gridtolerance="10"
     guidetolerance="10"
     inkscape:pageopacity="0"
     inkscape:pageshadow="2"
     inkscape:window-width="1916"
     inkscape:window-height="1041"
     id="namedview3536"
     showgrid="false"
     inkscape:zoom="0.26088979"
     inkscape:cx="1594.5807"
     inkscape:cy="856.22692"
     inkscape:window-x="0"
     inkscape:window-y="18"
     inkscape:window-maximized="0"
     inkscape:current-layer="figure_1" />
  <defs
     id="defs3274">
    <style
       type="text/css"
       id="style3276">
*{stroke-linecap:butt;stroke-linejoin:round;}
  </style>
    <clipPath
       id="p695fb529d9-6">
      <rect
         height="711.35999"
         width="666.81"
         x="107.55"
         y="88.919998"
         id="rect3534-0" />
    </clipPath>
    <clipPath
       id="p695fb529d9-6-3">
      <rect
         height="711.35999"
         width="666.81"
         x="107.55"
         y="88.919998"
         id="rect3534-0-5" />
    </clipPath>
  </defs>
  <g
     id="figure_1">
    <g
       transform="matrix(6.2299523,0,0,1.3101316,-2193.3081,-181.12739)"
       id="line2d_1-8"
       style="stroke-linecap:butt;stroke-linejoin:round">
      <path
         inkscape:connector-curvature="0"
         clip-path="url(#p695fb529d9-6-3)"
         d="m 108.65,800.28 0.454,0 0,-11.889 0.221,0 0,-11.889 0.755,0 0,-11.889 0.262,0 0,-11.889 0.397,0 0,-11.889 0.175,0 0,-11.89 0.551,0 0,-11.889 0.476,0 0,-11.889 0.601,0 0,-11.889 2.395,0 0,-11.889 0.256,0 0,-11.889 0.196,0 0,-11.889 0.152,0 0,11.889 0.155,0 0,-11.889 0.618,0 0,-11.889 0.1,0 0,0 0,11.889 0.002,0 0,0 0,-11.889 0.625,0 0,-11.889 0.053,0 0,0 0,11.889 0.372,0 0,-11.889 0.313,0 0,-11.889 1.067,0 0,-11.889 1.635,0 0,-11.89 0.553,0 0,-11.889 1.119,0 0,11.889 0.335,0 0,11.89 0.733,0 0.05,-23.779 1.264,0 0,-11.889 0.375,0 0.086,-23.778 1.222,0 0,-11.889 0.221,0 0,11.889 0.217,0 0.01,-23.778 0.099,11.889 0.531,0 0,-11.889 0.64,0 0,-11.889 0.277,0 0,-11.889 0.351,0 0,-11.889 0.387,0 0,-11.889 0.005,0 0,0 0,11.889 0.323,0 0,11.889 1.38,0 0,-11.889 0.289,0 0,-11.889 0.217,0 0,11.889 0.234,0 0,11.889 0.485,0 0,-11.889 0.179,0 0,-11.889 0.362,0 0,-11.89 0.106,0 0,0 0,11.89 0.02,0 0,0 0,-11.89 0.502,0 0.024,23.779 0.361,0 0.09,23.778 0.005,-11.889 0.083,0 0,11.889 0.478,0 0,11.889 0.004,0 0,0 0,-11.889 0.661,0 0.066,-23.778 0.064,0 0,-11.889 0.33,0 0,11.889 0.24,0 0,-11.889 0.178,0 0,-11.89 0.138,0 0,-11.889 0.319,0 0,11.889 0.667,0 0,-11.889 0.443,0 0,11.889 0.16,0 0.02,23.779 0.599,0 0,-11.889 0.166,0 0,11.889 0.481,0 0,-11.889 0.389,0 0,11.889 0.559,0 0,-11.889 0.014,0 0,0 0.006,23.778 0.053,-11.889 0.116,0 0,-11.889 0.433,0 0,-11.89 1.339,0 0,-11.889 0.052,0 0,0 0.044,23.779 0.295,0 0.109,23.778 0.881,0 0.038,23.778 0.211,0 0,-11.889 0.684,0 0,-11.889 1.256,0 0.035,-23.778 0.203,0 0,11.889 0.179,0 0,11.889 0.073,0 0,0 0,-11.889 0.574,0 0,11.889 0.435,0 0,-11.889 0.279,0 0,-11.889 0.098,0 0,0 0,11.889 1.462,0 0,11.889 0.724,0 0,11.889 0.267,0 0,11.889 0.087,0 0,0 0,-11.889 1.583,0 0,-11.889 0.439,0 0,11.889 0.228,0 0,-11.889 0.268,0 0,-11.889 0.616,0 0,-11.889 1.055,0 0,11.889 0.172,0 0.046,23.778 0.548,0 0,11.889 0.413,0 0,-11.889 0.628,0 0,-11.889 0.356,0 0,11.889 0.067,0 0,0 0.039,-23.778 0.898,0 0,11.889 0.602,0 0,-11.889 0.908,0 0,11.889 0.66,0 0,-11.889 0.326,0 0,11.889 0.03,0 0,0 0,-11.889 0.88,0 0,-11.889 0.123,0 0,-11.89 1.754,0 0,11.89 0.62,0 0,-11.89 0.058,0 0,0 0,11.89 0.227,0 0,-11.89 0.373,0 0.079,23.779 0.581,0 0,11.889 0.61,0 0,-11.889 0.008,0 0,0 0,11.889 0.14,0 0,-11.889 0.438,0 0,11.889 0.548,0 0,11.889 0.265,0 0.074,23.778 0.364,0 0,11.889 0.302,0 0.097,-23.778 0.473,0 0,11.889 0.934,0 0,11.889 0.254,0 0,11.889 1.464,0 0,11.889 0.583,0 0,-11.889 1.205,0 0,11.889 1.11,0 0,-11.889 0.232,0 0.035,-23.778 1.01,0 0,-11.889 0.55,0 0,11.889 0.658,0 0,-11.889 0.102,0 0,0 0,11.889 0.651,0 0,-11.889 0.044,0 0,0 0,11.889 0.024,0 0,0 0,-11.889 0.115,0 0,-11.889 0.558,0 0,11.889 1.062,0 0,-11.889 0.665,0 0,11.889 0.171,0 0,11.889 0.028,0 0,0 0,-11.889 0.124,0 0,11.889 1.087,0 0,11.889 0.514,0 0,11.889 0.046,0 0,0 0.031,-23.778 0.144,0 0,-11.889 0.072,0 0,0 0,11.889 0.337,0 0,11.889 0.25,0 0,-11.889 0.726,0 0,11.889 0.06,0 0,0 0,-11.889 0.042,0 0,0 0,11.889 1.961,0 0.042,-23.778 0.102,0 0,11.889 0.042,0 0,0 0,-11.889 0.381,0 0,-11.889 0.19,0 0,-11.889 0.491,0 0,11.889 0.113,0 0,11.889 0.41,0 0,-11.889 0.229,0 0,-11.889 0.499,0 0,-11.889 0.387,0 0,-11.889 0.438,0 0,11.889 0.156,0 0,11.889 0.356,0 0.021,-23.778 0.269,0 0,11.889 0.746,0 0.072,-23.779 0.48,0 0,-11.889 0.016,0 0,0 0,11.889 0.438,0 0.071,-23.778 0.282,0 0,11.889 0.154,0 0,-11.889 0.452,0 0,-11.889 0.889,0 0,-11.889 0.049,0 0,0 0,11.889 0.636,0 0,11.889 0.545,0 0,11.889 0.377,0 0,-11.889 0.655,0 0,11.889 0.438,0 0,-11.889 0.193,0 0,-11.889 0.158,0 0,11.889 0.137,0 0,-11.889 0.379,0 0,11.889 0.074,0 0,0 0,-11.889 0.259,0 0,11.889 0.726,0 0.035,-23.778 0.723,0 0,-11.889 0.473,0 0.1,-23.778 0.189,0 0,11.889 0.193,0 0,-11.889 0.734,0 0,11.889 0.711,0 0,-11.889 0.405,0 0,11.889 0.119,0 0,-11.889 1.251,0 0,-11.889 0.121,0 0.027,23.778 0.983,0 0,11.889 0.129,0 0,11.889 0.364,0 0.049,23.778 0.454,0 0,-11.889 0.198,0 0,-11.889 0.432,0 0,-11.889 0.2,0 0,11.889 0.685,0 0,-11.889 0.108,0 0,0 0,11.889 0.685,0 0,-11.889 0.659,0 0,-11.889 0.617,0 0,11.889 0.062,0 0,0 0,-11.889 0.106,0 0,0 0,11.889 0.005,0 0,0 0,-11.889 0.203,0 0,11.889 0.955,0 0,11.889 0.73,0 0,11.889 0.157,0 0,-11.889 0.251,0 0,11.889 0.037,0 0,0 0.054,-23.778 0.095,0 0,11.889 0.555,0 0,11.889 0.198,0 0.055,-23.778 0.938,0 0,-11.889 0.345,0 0,-11.889 0.067,0 0,0 0,11.889 0.805,0 0,-11.889 0.278,0 0,11.889 0.34,0 0,11.889 0.192,0 0,-11.889 0.741,0 0,-11.889 1.055,0 0,-11.889 0.263,0 0,11.889 0.236,0 0,11.889 0.199,0 0,-11.889 0.512,0 0,11.889 0.11,0 0,0 0,-11.889 0.236,0 0,11.889 0.663,0 0,11.889 0.205,0 0,11.889 1.081,0 0,-11.889 0.511,0 0,11.889 0.245,0 0,11.889 0,0 0,0 0,-11.889 0.891,0 0,-11.889 0.032,0 0,0 0.102,23.778 0.415,0 0,11.889 0.347,0 0,11.889 0.718,0 0,11.889 1.067,0 0,-11.889 0.069,0 0,0 0,11.889 0.135,0 0.084,-23.778 1.038,0 0,-11.889 0.763,0 0,-11.889 0.019,0 0,0 0,11.889 1.295,0 0,-11.889 0.122,0 0,11.889 0.103,0 0,0 0,-11.889 0.535,0 0,-11.889 0.131,0 0,-11.889 0.115,0 0,11.889 0.637,0 0,11.889 0.07,0 0,0 0,-11.889 0.15,0 0,11.889 0.125,0 0,-11.889 0.44,0 0.082,-35.667 0.054,0 0,11.889 0.155,0 0,11.889 0.257,0 0,11.889 0.163,0 0,-11.889 0.18,0 0,11.889 0.692,0 0,11.889 0.847,0 0,11.889 0.38,0 0,-11.889 0.266,0 0.058,-23.778 1.288,0 0,-11.889 0.239,0 0,-11.889 0.467,0 0,-11.889 0.267,0 0,11.889 0.689,0 0,11.889 0.013,0 0,0 0.032,-23.778 0.084,0 0,11.889 0.265,0 0,-11.889 0.059,0 0,0 0,11.889 0.112,0 0.094,-23.779 0.245,0 0,-11.889 0.006,0 0,0 0,11.889 0.144,0 0,-11.889 0.233,0 0,11.889 0.787,0 0.041,23.779 0.453,0 0,11.889 0.02,0 0,0 0,-11.889 0.22,0 0,-11.889 0.518,0 0,11.889 0.562,0 0,-11.889 0.145,0 0,-11.89 0.531,0 0,-11.889 0.159,0 0,11.889 0.465,0 0,11.89 0.096,0 0,0 0,-11.89 0.063,0 0,0 0.065,23.779 0.278,0 0,11.889 0.629,0 0,11.889 0.171,0 0,11.889 0.129,0 0,11.889 0.863,0 0.036,23.778 0.243,0 0.106,-35.667 0.055,0 0,-11.889 0.408,0 0,11.889 0.25,0 0,-11.889 0.188,0 0,-11.889 0.379,0 0,-11.889 0.017,0 0,0 0,11.889 0.69,0 0,-11.889 0.344,0 0,11.889 0.743,0 0,-11.889 0.412,0 0,11.889 1.234,0 0.033,23.778 0.102,0 0,11.889 0.142,0 0,11.889 0.171,0 0,-11.889 0.181,0 0,11.889 0.987,0 0,11.889 0.581,0 0,-11.889 0.362,0 0,11.889 0.166,0 0,-11.889 0.179,0 0,11.889 0.305,0 0,11.889 0.014,0 0,0 0,-11.889 0.374,0 0,11.889 1.349,0 0,-11.889 0.036,0 0,0 0,11.889 0.55,0 0,-11.889 0.142,0 0,11.889 0.076,0 0,0 0,-11.889 0.429,0 0,-11.889 0.201,0 0,11.889 0.42,0 0,-11.889 0.531,0 0,11.889 0.007,0 0,0 0,-11.889 0.61,0 0,11.889 0.12,0 0,-11.889 0.185,0 0.089,-35.667 0.246,0 0,11.889 0.101,0 0,0 0,-11.889 0.064,0 0,0 0,11.889 0.301,0 0,11.889 0.656,0 0,11.889 0.374,0 0,-11.889 0.341,0 0,-11.889 0.04,0 0,0 0.026,23.778 0.146,0 0,11.889 1.76,0 0,-11.889 0.101,0 0,0 0,11.889 0.408,0 0,11.889 0.277,0 0,-11.889 0.452,0 0,11.889 0.428,0 0.105,-23.778 0.698,0 0.053,23.778 0.079,0 0,-11.889 0.644,0 0,11.889 0.232,0 0,11.889 0.184,0 0,11.89 1.134,0 0.038,23.778 0.147,0 0,-11.889 0.726,0 0,-11.889 0.515,0 0,11.889 0.12,0 0,11.889 0.011,0 0,0 0,-11.889 0.099,0 0,0 0,11.889 0.385,0 0,-11.889 0.041,0 0,0 0,11.889 1.191,0 0,11.889 0.822,0 0,-11.889 0.319,0 0,-11.889 0.193,0 0,11.889 0.338,0 0.013,-23.778 0.199,0 0,11.889 0.126,0 0,11.889 0.256,0 0,-11.889 1.017,0 0,11.889 0.241,0 0,-11.889 0.328,0 0,11.889 0.482,0 0,-11.889 0.176,0 0,11.889 0.546,0 0,-11.889 0.073,0 0,0 0,11.889 0.339,0 0,-11.889 0.711,0 0,11.889 0.103,0 0,0 0,-11.889 0.281,0 0.003,-23.779 0.132,0 0.097,-23.778 0.173,0 0,11.889 0.254,0 0,11.889 0.247,0 0,11.89 1.034,0 0,11.889 1.77,0 0,-11.889 0.671,0 0,-11.89 0.114,0 0.06,23.779 0.703,0 0,11.889 1.321,0 0,11.889 0.542,0 0,-11.889 0.374,0 0,11.889 0.202,0 0.088,23.778 0.035,0 0,11.889 0.235,0 0,-11.889 0.883,0 0,11.889 2.178,0 0,11.889 0.399,0 0,11.889 1.765,0 0,11.889 0.011,0 0,0 0,-11.889 2.147,0 0,11.889 0.263,0 0,-11.889 0.741,0 0,11.889 0.115,0 0,-11.889 0.439,0 0,-11.889 0.117,0 0,11.889 0.567,0 0.016,-23.778 1.448,0 0.045,23.778 0.653,0 0,11.889 0.19,0 0.103,-23.778 1.581,0 0,11.889 0.454,0 0,11.889 0.37,0 0,11.889 0.071,0 0,0 0,-11.889 1.742,0 0,11.889 0.814,0 0,-11.889 0.077,0 0,0 0,11.889 0.348,0 0,-11.889 0.246,0 0,-11.889 0.288,0 0,-11.889 0.266,0 0,-11.889 1.544,0 0,11.889 0.315,0 0,-11.889 0.162,0 0,11.889 0.21,0 0,-11.889 0.226,0 0,11.889 0.514,0 0,-11.889 0.171,0 0,11.889 0.522,0 0,-11.889 0.471,0 0.082,-23.778 0.552,0 0,-11.889 0.48,0 0,-11.889 0.132,0 0.007,23.778 0.233,0 0,-11.889 0.164,0 0,-11.889 0.765,0 0,-11.889 0.114,0 0,11.889 0.04,0 0,0 0,-11.889 0.998,0 0,-11.889 0.09,0 0,0 0,11.889 1.075,0 0,11.889 0.131,0 0,11.889 0.091,0 0,0 0.099,-47.557 0.373,0 0,-11.889 0.552,0 0,11.889 0.313,0 0.029,-23.778 0.286,0 0,-11.889 0.245,0 0,-11.889 0.288,0 0,11.889 0.84,0 0,11.889 0.153,0 0,11.889 0.129,0 0,11.889 1.452,0 0,11.89 1.026,0 0,-11.89 0.47,0 0,-11.889 0.17,0 0,11.889 0.269,0 0,-11.889 0.168,0 0,11.889 0.071,0 0,0 0,-11.889 0.085,0 0,0 0,11.889 0.481,0 0,-11.889 1.869,0 0,11.889 0.412,0 0,11.89 0.124,0 0,-11.89 0.914,0 0,11.89 0.157,0 0.009,23.778 0.259,0 0,-11.889 0.36,0 0,11.889 0.602,0 0.052,-35.668 0.101,0 0.101,23.779 0.1,0 0,-11.889 0.712,0 0,11.889 0.234,0 0,-11.889 0.042,0 0,0 0,11.889 0.339,0 0,11.889 0.232,0 0,-11.889 0.734,0 0,-11.889 0.497,0 0,-11.89 0.007,0 0,0 0,11.89 0.294,0 0,11.889 0.768,0 0,11.889 0.913,0 0,-11.889 0.287,0 0,-11.889 0.84,0 0,-11.89 0.848,0 0,11.89 0.95,0 0.028,-23.779 1.235,0 0,11.889 0.152,0 0,11.89 0.017,0 0,0 0,-11.89 1.06,0 0,-11.889 0.293,0 0,11.889 0.29,0 0,11.89 0.121,0 0,11.889 0.409,0 0,-11.889 0.765,0 0,11.889 0.349,0 0.042,-23.779 0.715,0 0,-11.889 0.462,0 0,11.889 0.548,0 0,-11.889 0.317,0 0,-11.889 0.056,0 0,0 0,11.889 0.856,0 0,11.889 0.88,0 0,-11.889 1.697,0 0,11.889 0.555,0 0,11.89 0.141,0 0,11.889 0.136,0 0,-11.889 0.435,0 0,-11.89 0.643,0 0,11.89 0.07,0 0,0 0,-11.89 0.379,0 0.018,23.779 0.562,0 0,11.889 0.173,0 0,11.889 0.466,0 0,11.889 0.92,0 0,-11.889 0.094,0 0,0 0,11.889 0.26,0 0,11.889 0.074,0 0,0 0,-11.889 0.285,0 0,11.889 0.181,0 0,11.889 0.153,0 0,-11.889 0.202,0 0,-11.889 0.303,0 0,11.889 0.351,0 0,-11.889 0.616,0 0,11.889 0.908,0 0.03,23.778 0.16,0 0,-11.889 0.248,0 0,11.889 0.182,0 0,11.889 0.606,0 0.036,-23.778 0.097,0 0,-11.889 1.051,0 0,-11.889 0.286,0 0,11.889 0.064,0 0,0 0,-11.889 0.548,0 0,11.889 0.364,0 0,11.889 0.186,0 0.002,-23.778 0.835,0 0.094,-23.778 0.08,0 0,-11.889 0.223,0 0,11.889 0.428,0 0.083,-35.668 0.647,0 0,11.89 2.003,0 0.058,-23.779 0.287,0 0.098,-23.778 0.182,0 0,11.889 0.679,0 0.042,-23.778 0.745,0 0,-11.889 0.168,0 0,11.889 0.218,0 0,11.889 0.227,0 0,11.889 0.27,0 0,-11.889 0.914,0 0,11.889 0.091,0 0,0 0,-11.889 0.134,0 0,11.889 0.474,0 0,11.889 0.161,0 0,-11.889 0.638,0 0,11.889 0.705,0 0,11.889 0.958,0 0,-11.889 0.4,0 0,-11.889 0.901,0 0,11.889 0.281,0 0.107,-23.778 0.24,0 0,-11.889 0.179,0 0,-11.889 0.32,0 0,11.889 0.901,0 0.072,23.778 0.092,0 0,-11.889 1.032,0 0,11.889 0.27,0 0,-11.889 0.39,0 0,11.889 0.315,0 0.087,-23.778 0.146,0 0,11.889 0.033,0 0,0 0,-11.889 0.161,0 0,-11.889 0.209,0 0.077,-23.778 0.9,0 0,-11.889 0.069,0 0,0 0,11.889 0.272,0 0,11.889 0.076,0 0,0 0,-11.889 0.069,0 0,0 0,11.889 0.023,0 0,0 0.01,-23.778 0.054,11.889 1.275,0 0,11.889 0.261,0 0,-11.889 0.4,0 0.092,23.778 0.619,0 0,-11.889 0.18,0 0,11.889 0.153,0 0.004,-23.778 0.032,11.889 0.078,0 0,11.889 0.178,0 0,-11.889 0.081,0 0,0 0,11.889 0.147,0 0,-11.889 1.338,0 0,11.889 0.462,0 0,-11.889 0.223,0 0,-11.889 0.362,0 0,11.889 0.462,0 0,11.889 0.183,0 0,-11.889 0.168,0 0,11.889 0.365,0 0,-11.889 0.311,0 0,11.889 0.686,0 10e-4,-23.778 0.273,0 0,-11.889 0.46,0 0,11.889 0.329,0 0,11.889 0.017,0 0,0 0,-11.889 0.365,0 0,11.889 0.91,0 0,11.889 0.188,0 0,-11.889 0.463,0 0,11.889 1.141,0 0,11.889 0.362,0 0,-11.889 0.094,0 0,0 0,11.889 0.147,0 0,-11.889 0.136,0 0,11.889 0.295,0 0,-11.889 0.788,0 0,-11.889 0.159,0 0,11.889 0.167,0 0,-11.889 0.121,0 0,11.889 0.261,0 0,11.889 0.509,0 0,11.889 1.443,0 0,11.889 0.724,0 0,-11.889 0.286,0 0.07,-23.778 0.074,0 0,11.889 0.431,0 0,11.889 0.028,0 0,0 0,-11.889 0.02,0 0,0 0.041,23.778 0.31,0 0.051,23.778 0.067,0 0.043,23.779 0.214,0 0,-11.889 1.877,0 0,11.889 0.111,0 0,0 0,-11.889 0.037,0 0,0 0,11.889 0.153,0 0,11.889 0.209,0 0.043,23.778 0.508,0 0,11.889 0.164,0 0,-11.889 0.28,0 0,-11.889 0.326,0 0,-11.889 0.452,0 0,-11.889 0.165,0 0,11.889 0.216,0 0.018,23.778 0.187,0 0,11.889 0.497,0 0,-11.889 0.692,0 0,11.889 0.193,0 0,11.889 0.742,0 0,-11.889 0.242,0 0,-11.889 0.318,0 0,-11.889 0.545,0 0,-11.889 0.259,0 0,-11.889 0.428,0 0,11.889 0.493,0 0,11.889 0.103,0 0,0 0,-11.889 0.306,0 0,-11.889 0.504,0 0,11.889 0.16,0 0,-11.889 0.581,0 0,-11.889 0.602,0 0,-11.89 0.107,0 0,0 0,11.89 0.499,0 0,-11.89 0.952,0 0,11.89 0.513,0 0,11.889 0.258,0 0,11.889 0.733,0 0.039,-23.778 1.487,0 0,-11.89 0.256,0 0,-11.889 0.2,0 0,11.889 0.15,0 0.012,-23.778 0.373,0 0,11.889 0.36,0 0,11.889 0.972,0 0,-11.889 0.366,0 0,-11.889 0.299,0 0.092,23.778 0.293,0 0,-11.889 0.261,0 0,11.889 0.12,0 0,-11.889 0.069,0 0,0 0,11.889 0.121,0 0,-11.889 0,0 0,0 0.072,23.779 1.538,0 0,11.889 0.143,0 0.086,-47.557 0.121,0 0.037,23.778 0.173,0 0,11.89 0.5,0 0,-11.89 0.763,0 0,11.89 0.794,0 0,-11.89 0.203,0 0,11.89 0.055,0 0,0 0.002,-23.779 0.082,11.889 0.237,0 0,11.89 0.793,0 0,-11.89 0.324,0 0,-11.889 1.148,0 0,11.889 0.245,0 0,11.89 0.381,0 0,11.889 0.187,0 0,-11.889 0.765,0 0,-11.89 0.242,0 0,-11.889 0.32,0 0,-11.889 0.804,0 0,11.889 0.913,0 0,-11.889 0.159,0 0,-11.889 0.094,0 0,0 0,11.889 0.216,0 0.011,-23.778 0.267,0 0,-11.889 0.318,0 0,-11.889 0.281,0 0,-11.889 0.054,0 0,0 0,11.889 0.542,0 0,11.889 0.074,0 0,0 0,-11.889 0.519,0 0,11.889 0.743,0 0,11.889 0.139,0 0,11.889 0.052,0 0,0 0,-11.889 0.274,0 0,11.889 0.399,0 0,11.889 0.189,0 0,11.889 0.014,0 0,0 0,-11.889 0.946,0 0,11.889 0.236,0 0,11.889 0.013,0 0,0 0,-11.889 0.698,0 0,11.889 0.429,0 0.03,-23.778 0.181,0 0,-11.889 0.282,0 0,-11.889 0.115,0 0.049,23.778 0.56,0 0,11.889 0.084,0 0,0 0,-11.889 1.095,0 0,-11.889 0.101,0 0,0 0,11.889 0.076,0 0,0 0,-11.889 0.41,0 0,-11.889 0.113,0 0,11.889 0.501,0 0.064,-35.667 0.435,0 0,11.889 0.197,0 0,-11.889 0.526,0 0,-11.889 0.414,0 0.028,23.778 0.335,0 0,11.889 0.908,0 0,11.889 2.103,0 0,-11.889 0.279,0 0,-11.889 0.233,0 0,-11.889 0.498,0 0,11.889 0.182,0 0,11.889 0.141,0 0.05,23.778 0.662,0 0.014,-23.778 0.096,11.889 0.002,0 0,11.889 0.456,0 0,-11.889 0.88,0 0,-11.889 0.578,0 0.096,47.556 0.48,0 0,-11.889 0.041,0 0,0 0,11.889 0.195,0 0,-11.889 0.16,0 0,-11.889 0.419,0 0,11.889 0.841,0 0,-11.889 0.796,0 0.035,23.778 0.377,0 0.075,-23.778 0.062,0 0,-11.889 0.305,0 0,11.889 0.093,0 0,0 0,-11.889 0.147,0 0,-11.889 0.03,0 0,0 0,11.889 0.542,0 0,-11.889 0.943,0 0.056,23.778 0.253,0 0,11.889 0.595,0 0.099,-23.778 0.081,0 0,11.889 0.252,0 0,-11.889 0.315,0 0,11.889 0.012,0 0,0 0,-11.889 0.55,0 0,-11.889 0.016,0 0,0 0,11.889 1.162,0 0,-11.889 1.118,0 0,11.889 0.146,0 0,11.889 0.302,0 0,-11.889 0.373,0 0,-11.889 0.28,0 0,11.889 0.213,0 0,-11.889 0.232,0 0,11.889 0.784,0 0,-11.889 0.677,0 0,11.889 0.265,0 0,11.889 0.118,0 0,-11.889 0.117,0 0,-11.889 0.44,0 0,-11.889 1.005,0 0,-11.889 0.103,0 0,0 0,11.889 0.149,0 0,-11.889 0.332,0 0,-11.889 0.15,0 0.005,-23.778 1.399,0 0,11.889 2.121,0 0,-11.889 0.144,0 0,-11.89 0.579,0 0,-11.889 0.558,0 0,-11.889 0.851,0 0,-11.889 1.34,0 0,-11.889 0.547,0 0,-11.889 0.815,0 0,11.889 0.02,0 0,0 0,-11.889 0.98,0 0,11.889 0.322,0 0,11.889 0.121,0 0,-11.889 0.185,0 0,-11.889 0.342,0 0,-11.889 0.209,0 0,-11.889 0.483,0 0,-11.889 0.188,0 0,11.889 0.284,0 0,11.889 0.203,0 0,-11.889 0.226,0 0,-11.889 0.36,0 0,-11.889 0.579,0 0.054,23.778 0.948,0 0,11.889 0.04,0 0,0 0,-11.889 0.015,0 0,0 0,11.889 0.77,0 0,11.889 0.153,0 0,-11.889 10e-4,0 0,0 0,11.889 0.332,0 0,11.889 0.595,0 0,11.889 0.656,0 0,11.889 1.011,0 0,-11.889 0.816,0 0,11.889 0.476,0 0,-11.889 0.178,0 0,-11.889 0.222,0 0,11.889 0.219,0 0,11.889 0.245,0 0,11.889 0.291,0 0,-11.889 0.075,0 0,0 0,11.889 0.13,0 0,-11.889 2.123,0 0,11.889 0.28,0 0,11.889 2.318,0 0,11.89 0.608,0 0,-11.89 0.199,0 0,-11.889 0.286,0 0,11.889 0.029,0 0,0 0,-11.889 0.011,0 0,0 0,11.889 0.238,0 0,11.89 0.159,0 0.105,23.778 0.767,0 0,11.889 0.159,0 0,11.889 0.243,0 0,11.889 1.256,0 0,11.889 0.209,0 0,-11.889 0.392,0 0,-11.889 0.307,0 0.074,35.667 0.233,0 0,-11.889 0.871,0 0,11.889 0.765,0 0.019,-23.778 0.106,0 0,-11.889 0.24,0 0,-11.889 0.547,0 0,11.889 0.263,0 0,11.889 0.144,0 0,-11.889 0.94,0 0,-11.889 0.243,0 0,11.889 1.69,0 0,-11.889 0.316,0 0.107,23.778 0.147,0 0,11.889 1.209,0 0,-11.889 0.208,0 0,-11.889 0.361,0 0.028,-23.778 0.257,0 0,-11.889 0.84,0 0,11.889 0.985,0 0,11.889 0.772,0 0,-11.889 0.256,0 0,11.889 0.327,0 0,-11.889 0.19,0 0,-11.889 0.417,0 0.092,23.778 0.681,0 0,-11.889 0.47,0 0,11.889 0.474,0 0.007,-23.778 0.686,0 0,-11.889 0.337,0 0,-11.89 0.316,0 0,-11.889 0.083,0 0,0 0,11.889 0.146,0 0,11.89 0.043,0 0,0 0,-11.89 0.472,0 0,-11.889 0.61,0 0,-11.889 0.151,0 0,-11.889 0.929,0 0.105,-23.778 0.804,0 0,11.889 0.313,0 0,11.889 0.012,0 0,0 0,-11.889 0.263,0 0,-11.889 0.262,0 0.089,23.778 0.855,0 0.093,23.778 0.248,0 0,-11.889 0.412,0 0,-11.889 0.083,0 0,0 0,11.889 0.234,0 0,11.889 0.743,0 0,11.889 0.285,0 0,11.89 0.571,0 0,11.889 0.432,0 0,11.889 0.244,0 0,11.889 0.122,0 0,-11.889 0.067,0 0,0 0,11.889 0.402,0 0,11.889 1.732,0 0,11.889 1.152,0 0,-11.889 0.469,0 0,-11.889 0.137,0 0,-11.889 1.083,0 0,-11.889 0.127,0 0,11.889 0.53,0 0,-11.889 1.046,0 0,-11.889 0.214,0 0,-11.89 0,0 0,0 0.085,35.668 0.062,0 0,-11.889 0.165,0 0,-11.889 0.106,0 0,0 0.034,23.778 0.323,0 0,-11.889 0.141,0 0,-11.889 0.217,0 0,-11.89 0.201,0 0,11.89 0.282,0 0,11.889 0.145,0 0,11.889 0.117,0 0,-11.889 0.559,0 0,11.889 0.744,0 0,-11.889 0.322,0 0,-11.889 0.237,0 0.108,-23.779 0.179,0 0,-11.889 0.195,0 0,-11.889 0.203,0 0,-11.889 0.568,0 0,11.889 0.267,0 0.004,-23.778 1.023,0 0,11.889 0.09,0 0,0 0,-11.889 1.139,0 0,-11.889 0.133,0 0.096,23.778 0.22,0 0,11.889 0.132,0 0,-11.889 0.17,0 0,-11.889 0.069,0 0,0 0.039,23.778 0.013,-11.889 0.549,0 0.082,23.778 0.06,0 0,11.889 0.628,0 0,11.889 0.585,0 0.032,-23.778 0.417,0 0,11.889 0.385,0 0,11.889 0.043,0 0,0 0,-11.889 0.121,0 0,11.889 0.779,0 0,-11.889 0.386,0 0,-11.889 0.279,0 0,11.889 0.182,0 0,-11.889 0.182,0 0,-11.889 0.338,0 0.11,-23.778 0.039,0 0.029,23.778 0.09,0 0,11.889 0.413,0 0,11.889 0.208,0 0,-11.889 0.517,0 0,11.889 1.405,0 0,-11.889 0.458,0 0.094,23.778 0.402,0 0.099,-23.778 0.153,0 0,11.889 0.368,0 0,11.889 0.464,0 0,11.89 0.237,0 0,-11.89 0.278,0 0,-11.889 0.454,0 0.002,-23.778 0.662,0 0,11.889 0.56,0 0.079,-35.667 0.38,0 0,11.889 0.151,0 0,11.889 0.277,0 0,-11.889 0.748,0 0,-11.889 0.064,0 0,0 0.051,35.667 0.033,-11.889 0.388,0 0,11.889 0.301,0 0,-11.889 0.503,0 0,-11.889 0.362,0 0.008,23.778 0.104,0 0.09,-23.778 0.526,0 0.106,23.778 0.04,0 0.068,23.778 0.44,0 0,-11.889 0.848,0 0,11.889 0.022,0 0,0 0,-11.889 0.279,0 0,11.889 0.363,0 0,-11.889 0.33,0 0,-11.889 0.024,0 0,0 0,11.889 0.323,0 0,11.889 0.889,0 0,-11.889 0.068,0 0,0 0,11.889 0.033,0 0,0 0.099,-23.778 0.608,0 0,-11.889 0.145,0 0.002,23.778 0.066,-11.889 0.08,0 0,11.889 0.141,0 0,11.889 0.212,0 0,11.89 0.044,0 0,0 0.049,-23.779 0.654,0 0,11.889 0.306,0 0,-11.889 0.104,0 0,0 0,11.889 0.325,0 0,11.89 0.157,0 0,-11.89 0.305,0 0,-11.889 0.856,0 0,-11.889 0.206,0 0,11.889 0.224,0 0.109,23.779 0.443,0 0,11.889 0.487,0 0,11.889 1.585,0 0,11.889 0.324,0 0,11.889 0.116,0 0,-11.889 0.169,0 0,-11.889 1.058,0 0,11.889 0.197,0 0,11.889 0.018,0 0,0 0,-11.889 0.34,0 0,11.889 0.415,0 0,11.889 0.345,0 0,-11.889 0.227,0 0.006,-23.778 0.106,0 0,11.889 0.658,0 0,-11.889 0.288,0 0.105,23.778 0.108,0 0,-11.889 1.138,0 0,-11.889 1.791,0 0,-11.889 0.192,0 0,11.889 0.249,0 0,11.889 0.025,0 0,0 0,-11.889 0.772,0 0,11.889 0.728,0 0,-11.889 0.538,0 0.015,23.778 0.121,0 0,-11.889 0.437,0 0,11.889 0.072,0 0,0 0,-11.889 0.135,0 0.059,23.778 0.095,0 0.108,23.778 0.087,0 0,-11.889 0.534,0 0,11.889 0.457,0 0,-11.889 0.202,0 0,11.889 0.332,0 0,-11.889 0.789,0 0,-11.889 0.209,0 0.094,23.778 0.277,0 0,11.889 0.114,0 0,-11.889 0.628,0 0,-11.889 0.214,0 0,11.889 0.865,0 0,-11.889 0.115,0 0,11.889 0.188,0 0.043,-23.778 0.755,0 0,-11.889 0.188,0 0,-11.889 0.213,0 0,-11.889 0.446,0 0,11.889 0.045,0 0,0 0.079,-23.778 0.044,0 0,-11.889 0.351,0 0,11.889 0.991,0 0,11.889 0.143,0 0,11.889 1.538,0 0,11.889 0.042,0 0,0 0,-11.889 0.767,0 0,-11.889 0.244,0 0,-11.889 0.763,0 0,11.889 0.379,0 0.067,-23.778 0.161,0 0,-11.89 0.503,0 0,11.89 0.169,0 0,-11.89 0.188,0 0,11.89 0.469,0 0,-11.89 0.476,0 0,11.89 0.13,0 0,11.889 0.071,0 0,0 0,-11.889 0.913,0 0,11.889 0.082,0 0,0 0,-11.889 0.878,0 0,-11.89 0.485,0 0,-11.889 0.89,0 0,11.889 0.117,0 0,-11.889 0.183,0 0,-11.889 0.561,0 0,-11.889 0.162,0 0,11.889 0.16,0 0,-11.889 0.133,0 0,-11.889 0.299,0 0.025,23.778 0.486,0 0,11.889 0.94,0 0,11.889 0.496,0 0,-11.889 0.042,0 0,0 0,11.889 0.027,0 0,0 0,-11.889 0.072,0 0,0 0,11.889 0.602,0 0,-11.889 0.733,0 0,11.889 0.028,0 0,0 0,-11.889 0.125,0 0,11.889 0.828,0 0,-11.889 0.157,0 0.098,-23.778 0.055,0 0,11.889 0.129,0 0,11.889 0.209,0 0,-11.889 0.215,0 0,-11.889 1.231,0 0,11.889 0.164,0 0,-11.889 0.251,0 0,11.889 0.196,0 0,11.889 0.148,0 0,-11.889 0.312,0 0.034,23.778 0.173,0 0,11.89 0.268,0 0,-11.89 0.286,0 0.006,-23.778 0.93,0 0,11.889 1.136,0 0,-11.889 1.474,0 0,11.889 0.389,0 0,11.889 0.209,0 0,11.89 0.152,0 0,-11.89 0.114,0 0,11.89 0.04,0 0,0 0,-11.89 0.691,0 0,11.89 0.169,0 0,11.889 0.131,0 0,-11.889 0.488,0 0.07,-23.779 0.061,0 0,11.889 0.88,0 0,11.89 0.945,0 0,-11.89 0.8,0 0,11.89 1.376,0 0,-11.89 0.003,0 0,0 0,11.89 1.173,0 0,-11.89 0.152,0 0,11.89 0.248,0 0,-11.89 0.353,0 0,-11.889 0.027,0 0,0 0,11.889 0.5,0 0,11.89 0.479,0 0,11.889 0.322,0 0,-11.889 0.169,0 0,11.889 0.135,0 0,11.889 0.137,0 0.032,23.778 0.112,0 0,11.889 0.155,0 0,11.889 0.308,0 0,11.889 0.038,0 0,0 0,-11.889 1.33,0 0,-11.889 0.806,0 0,11.889 0.25,0 0,-11.889 1.546,0 0,-11.889 0.222,0 0,11.889 0.651,0 0.055,-23.778 0.243,0 0,11.889 0.172,0 0,-11.889 0.408,0 0,11.889 0.244,0 0,-11.889 0.057,0 0,0 0,11.889 0.017,0 0,0 0,-11.889 0.317,0 0,11.889 0.558,0 0,-11.889 0.435,0 0,-11.889 0.879,0 0.105,-23.778 0,11.889 0.426,0 0,11.889 0.087,0 0,0 0.042,-23.778 0.09,0 0,-11.89 0.195,0 0.088,35.668 0.057,0 0,-11.889 0.3,0 0,-11.889 0.246,0 0,-11.89 0.208,0 0,-11.889 0.644,0 0,11.889 0.204,0 0,-11.889 1.066,0 0,-11.889 1.4,0 0,11.889 0.141,0 0,-11.889 0.363,0 0,11.889 0.006,0 0,0 0,-11.889 0.163,0 0,11.889 0.743,0 0,11.889 0.207,0 0,-11.889 0.582,0 0,-11.889 0.167,0 0,-11.889 0.146,0 0,-11.889 0.682,0 0,11.889 1.727,0 0,-11.889 0.447,0 0,11.889 0.438,0 0,11.889 0.248,0 0.038,23.778 0.103,0 0,-11.889 0.012,0 0,0 0,11.889 0.221,0 0,11.89 0.008,0 0,0 0,-11.89 0.473,0 0,11.89 0.503,0 0.007,-23.779 0.089,11.889 0.35,0 0,11.89 0.24,0 0,11.889 0.258,0 0,11.889 0.123,0 0,-11.889 0.513,0 0,11.889 0.359,0 0,11.889 0.044,0 0,0 0,-11.889 0.237,0 0,11.889 0.282,0 0,11.889 1.109,0 0,11.889 0.162,0 0.107,23.778 0.684,0 0,-11.889 0.096,0 0,0 0,11.889 0.635,0 0,-11.889 0.247,0 0,11.889 0.162,0 0,11.889 0.108,0 0,0 0,-11.889 0.146,0 0,11.889 0.544,0 0,-11.889 0.078,0 0,0 0,11.889 0.655,0 0,-11.889 0.025,0 0,0 0,11.889 0.263,0 0,-11.889 0.395,0 0,-11.889 1.971,0 0.018,-23.778 0.211,0 0,-11.889 0.271,0 0,-11.889 0.194,0 0,-11.889 0.118,0 0.048,-23.779 0.088,0 0,11.89 0.13,0 0,11.889 0.031,0 0,0 0,-11.889 0.282,0 0,-11.89 0.227,0 0,-11.889 0.136,0 0,-11.889 1.006,0 0,-11.889 0.06,0 0,0 0.076,23.778 0.078,0 0,11.889 0.417,0 0,11.89 0.758,0 0,-11.89 0.039,0 0,0 0,11.89 0.487,0 0,11.889 0.563,0 0,-11.889 0.15,0 0,11.889 0.023,0 0,0 0.005,-23.779 0.071,11.89 0.351,0 0.066,-23.779 0.047,0 0.008,23.779 0.398,0 0,11.889 0.765,0 0,-11.889 0.935,0 0,-11.89 0.056,0 0,0 0,11.89 0.408,0 0,-11.89 0.26,0 0,-11.889 0.365,0 0,-11.889 0.226,0 0,11.889 0.874,0 0,11.889 0.077,0 0,0 0,-11.889 1.058,0 0.104,23.779 0.028,0 0,11.889 0.275,0 0.07,-23.779 0.179,0 0,-11.889 1.145,0 0,11.889 0.4,0 0,11.89 0.63,0 0,-11.89 0.043,0 0,0 0,11.89 0.235,0 0.078,23.778 0.489,0 0,11.889 0.365,0 0,11.889 1.377,0 0,-11.889 0.474,0 0,-11.889 0.111,0 0,0 0,11.889 0.189,0 0,-11.889 1.029,0 0,-11.889 0.418,0 0,-11.889 0.281,0 0,-11.89 0.165,0 0.02,23.779 0.088,-11.889 0.264,0 0,-11.89 0.229,0 0.099,23.779 0.454,0 0,11.889 0.183,0 0,11.889 0.781,0 0,11.889 1.163,0 0.007,-23.778 0.287,0 0,-11.889 0.478,0 0.061,-23.779 0.35,0 0,-11.889 1.16,0 0,-11.889 0.614,0 0,-11.889 0.234,0 0,11.889 0.054,0 0,0 0,-11.889 0.019,0 0,0 0,11.889 0.622,0 0,-11.889 1.933,0 0,11.889 0.876,0 0,-11.889 0.08,0 0,0 0,11.889 0.224,0 0,-11.889 0.213,0 0,-11.889 0.037,0 0,0 0,11.889 0.187,0 0,-11.889 0.041,0 0,0 0,11.889 0.918,0 0,-11.889 0.023,0 0,0 0,11.889 0.95,0 0,-11.889 0.193,0 0,-11.889 0.395,0 0,11.889 0.033,0 0,0 0,-11.889 0.341,0 0.003,-23.778 0.244,0 0,-11.889 0.26,0 0,11.889 0.232,0 0,11.889 0.81,0 0.108,23.778 0.321,0 0.107,-23.778 0.062,0 0.013,-23.778 0.401,0 0,-11.889 0.33,0 0,-11.889 0.059,0 0,0 0,11.889 0.848,0 0,-11.889 0.173,0 0,-11.89 0.618,0 0.005,-23.778 0.231,0 0,-11.889 0.538,0 0,11.889 0.201,0 0.105,-23.778 0.381,0 0,-11.889 0.347,0 0,11.889 0.369,0 0,11.889 0.351,0 0,-11.889 0.275,0 0,11.889 0.37,0 0,-11.889 0.293,0 0.005,-23.778 0.041,11.889 0.609,0 0,-11.889 0.134,0 0,-11.889 0.396,0 0,-11.889 0.182,0 0.059,23.778 0.124,0 0,-11.889 0.558,0 0,11.889 0.15,0 0,-11.889 0.018,0 0,0 0,11.889 0.513,0 0,11.889 0.424,0 0,-11.889 0.361,0 0,11.889 0.257,0 0,-11.889 1.2,0 0.022,23.778 0.108,0 0,11.889 0.167,0 0,-11.889 0.048,0 0,0 0,11.889 0.14,0 0,11.889 0.333,0 0,-11.889 0.358,0 0.006,23.778 0.247,0 0,-11.889 0.178,0 0.102,23.778 0.068,0 0,-11.889 0.291,0 0,-11.889 10e-4,0 0,0 0,11.889 0.175,0 0,-11.889 0.099,0 0,0 0,11.889 0.948,0 0,11.889 0.27,0 0.034,23.779 0.08,0 0,-11.889 0.256,0 0,11.889 0.134,0 0,11.889 0.012,0 0,0 0,-11.889 0.064,0 0,0 0,11.889 0.404,0 0,11.889 1.37,0 0,11.889 0.288,0 0.014,23.778 0.203,0 0,11.889 0.39,0 0.048,23.778 0.213,0 0,11.889 0.176,0 0,11.89 1.015,0 0.083,23.778 0.846,0 0.03,23.778 0.303,0 0,11.889 0.902,0 0,11.889 0.179,0 0,11.889 1.045,0 0,11.889 0.203,0 0,-11.889 0.149,0 0,11.889 0.059,0 0,0 0,-11.889 0.471,0 0,11.889 0.259,0 0.054,-23.778 0.164,0 0,-11.889 0.658,0 0,-11.889 0.195,0 0,-11.889 0.367,0 0,-11.889 0.992,0 0,-11.889 0.569,0 0,-11.889 0.311,0 0,11.889 0.121,0 0,11.889 0.101,0 0,0 0.074,-23.778 0.092,0 0,11.889 0.073,0 0,0 0,-11.889 0.242,0 0,11.889 0.438,0 0,-11.889 0.599,0 0,-11.89 0.234,0 0,11.89 0.014,0 0,0 0,-11.89 0.214,0 0,11.89 0.129,0 0.095,-35.668 0.174,0 0.064,-23.778 1.772,0 0,11.889 0.143,0 0,-11.889 0.304,0 0,-11.889 0.318,0 0,11.889 0.124,0 0.025,23.778 1.221,0 0,-11.889 0.342,0 0,-11.889 0.147,0 0.07,35.667 0.229,0 0.027,-23.778 0.29,0 0,11.889 0.366,0 0,11.889 0.393,0 0.081,23.779 0.348,0 0,-11.89 0.074,0 0,0 0,11.89 0.605,0 0,-11.89 0.015,0 0,0 0,11.89 0.12,0 0,11.889 0.249,0 0,-11.889 0.126,0 0,11.889 0.545,0 0,11.889 0.043,0 0,0 0,-11.889 1.445,0 0,-11.889 0.4,0 0,11.889 0.626,0 0,11.889 0.32,0 0,-11.889 0.222,0 0,-11.889 0.126,0 0,-11.89 0.009,0 0,0 0,11.89 1.59,0 0,-11.89 0.546,0 0,11.89 0.178,0 0,-11.89 0.797,0 0,11.89 1.126,0 0,-11.89 0.524,0 0,-11.889 0.232,0 0,11.889 0.268,0 0,-11.889 0.933,0 0,11.889 0.127,0 0,-11.889 0.058,0 0,0 0,11.889 0.839,0 0,-11.889 0.439,0 0,-11.889 0.111,0 0,0 0.005,23.778 0.147,0 0,11.89 0.3,0 0,11.889 0.135,0 0.062,23.778 0.171,0 0,-11.889 0.087,0 0,0 0.085,35.667 0.898,0 0,11.889 0.205,0 0,11.889 0.216,0 0,11.889 0.123,0 0,-11.889 0.307,0 0,11.889 0.643,0 0,11.889 0.663,0 0,-11.889 0.028,0 0,0 0,11.889 0.61,0 0,-11.889 0.021,0 0,0 0,11.889 0.116,0 0.047,-23.778 0.084,0 0,-11.889 0.378,0 0,-11.889 0.2,0 0,-11.889 0.282,0 0,-11.889 0.332,0 0,11.889 0.203,0 0,11.889 0.201,0 0,11.889 0.577,0 0,11.889 0.267,0 0,11.889 0.918,0 0,11.889 0.142,0 0,11.89 1.15,0 0,-11.89 0.134,0 0,-11.889 0.294,0 0.048,-23.778 0.012,11.889 0.459,0 0,-11.889 0.311,0 0,-11.889 0.758,0 0.022,23.778 0.172,0 0.065,-23.778 0.016,11.889 0.18,0 0,11.889 0.169,0 0.066,23.778 0.171,0 0,11.89 0.403,0 0,-11.89 0.326,0 0,-11.889 1.179,0 0.034,23.779 0.124,0 0,-11.89 0.654,0 0,11.89 0.626,0 0.062,23.778 0.945,0 0,11.889 0.281,0 0.067,-23.778 0.079,0 0,11.889 0.705,0 0,11.889 0.977,0 0,-11.889 0.882,0 0,-11.889 0.708,0 0,-11.889 0.122,0 0,-11.89 0.112,0 0,11.89 0.731,0 0,-11.89 1.891,0 0.066,35.668 0.056,0 0,11.889 0.21,0 0,11.889 0.624,0 0,11.889 1.602,0 0,-11.889 0.002,0 0,0 0,11.889 0.164,0 0,-11.889 0.221,0 0,-11.889 0.2,0 0,-11.889 1.203,0 0,11.889 0.134,0 0,-11.889 0.011,0 0,0 0.084,23.778 0.112,0 0,11.889 0.314,0 0,-11.889 0.148,0 0,-11.889 2.064,0 0,-11.889 0.156,0 0.047,23.778 0.384,0 0.11,23.778 0.829,0 0,11.889 0.449,0 0,11.889 0.08,0 0,0 0,-11.889 0.15,0 0,11.889 0.124,0 0,-11.889 0.394,0 0,11.889 0.457,0 0,-11.889 0.237,0 0,-11.889 0.301,0 0,11.889 0.392,0 0,-11.889 1.298,0 0,-11.889 0.133,0 0,-11.889 0.732,0 0,-11.889 0.54,0 0,-11.889 0.857,0 0,11.889 0.371,0 0,-11.889 0.25,0 0.078,-23.778 0.58,0 0,11.889 1.086,0 0,11.889 0.752,0 0,-11.889 0.358,0 0,11.889 0.505,0 0,-11.889 0.926,0 0,11.889 0.361,0 0,-11.889 0.188,0 0,-11.889 1.417,0 0.066,23.778 0.49,0 0,-11.889 0.514,0 0,-11.889 1.974,0 0,11.889 0.51,0 0,11.889 0.553,0 0,11.889 0.144,0 0,-11.889 0.005,0 0,0 0,11.889 1.253,0 0.028,-23.778 1.247,0 0,11.889 1.522,0 0,-11.889 0.886,0 0,11.889 0.198,0 0,-11.889 0.16,0 0,-11.889 0.51,0 0,-11.89 1.057,0 0,-11.889 0.332,0 0,-11.889 0.256,0 0,-11.889 0.445,0 0,11.889 0.526,0 0,11.889 0.185,0 0,-11.889 0.215,0 0,-11.889 0.011,0 0,0 0,11.889 0.128,0 0.019,-23.778 0.202,0 0,11.889 0.347,0 0,11.889 0.041,0 0,0 0,-11.889 0.059,0 0,0 0,11.889 0.13,0 0,11.889 0.219,0 0,11.889 0.318,0 0,-11.889 0.401,0 0,11.889 0.368,0 0,11.89 0.002,0 0,0 0.018,-23.779 0.473,0 0.085,-23.778 0.038,0 0,-11.889 0.741,0 0,11.889 0.03,0 0,0 0,-11.889 0.134,0 0,-11.889 0.222,0 0.101,23.778 0.186,0 0,11.889 0.047,0 0,0 0,-11.889 0.789,0 0,11.889 0.433,0 0,11.889 0.243,0 0,11.889 0.651,0 0,-11.889 0.43,0 0,-11.889 1.215,0 0,-11.889 0.199,0 0,11.889 0.502,0 0,-11.889 0.346,0 0.017,-23.778 0.497,0 0,-11.889 0.767,0 0,-11.889 0.02,0 0,0 0,11.889 0.385,0 0,11.889 0.95,0 0,11.889 0.021,0 0,0 0,-11.889 0.332,0 0,-11.889 0.121,0 0,-11.889 0.065,0 0,0 0,11.889 0.692,0 0,11.889 0.382,0 0,-11.889 1.393,0 0,-11.889 1.336,0 0.056,-23.778 0.665,0 0,11.889 0.841,0 0,11.889 0.55,0 0,-11.889 0.112,0 0,11.889 0.157,0 0,11.889 0.426,0 0,11.889 0.214,0 0,-11.889 0.584,0 0,-11.889 0.752,0 0,11.889 0.09,0 0,0 0.024,-23.778 0.098,0 0,-11.889 0.353,0 0,11.889 0.065,0 0,0 0,-11.889 0.07,0 0,0 0.035,23.778 0.065,-11.889 0.066,0 0,11.889 0.267,0 0,11.889 0.045,0 0,0 0,-11.889 0.075,0 0,0 0,11.889 0.645,0 0,-11.889 0.134,0 0,-11.889 0.067,0 0,0 0,11.889 0.066,0 0,0 0,-11.889 0.215,0 0,-11.889 0.15,0 0.027,23.778 0.182,0 0,11.889 0.121,0 0,11.889 0.615,0 0.051,23.778 0.065,0 0,11.889 1.119,0 0,-11.889 0.528,0 0,11.889 0.21,0 0,11.889 0.234,0 0,-11.889 0.093,0 0,0 0.04,23.778 0.157,0 0,-11.889 0.179,0 0,11.889 0.514,0 0.098,-35.667 0.233,0 0,-11.889 0.227,0 0,-11.889 0.123,0 0,-11.889 0.663,0 0,11.889 0.331,0 0,11.889 0.138,0 0,-11.889 0.209,0 0,11.889 0.797,0 0,11.889 0.299,0 0,-11.889 0.433,0 0.035,-23.778 0.546,0 0,-11.889 0.184,0 0,11.889 0.159,0 0,-11.889 1.225,0 0.018,23.778 0.307,0 0,-11.889 0.053,0 0,0 0,11.889 0.933,0 0,-11.889 0.215,0 0,-11.889 0.4,0 0,11.889 1.794,0 0,-11.889 0.318,0 0,-11.889 0.791,0 0.033,-23.779 0.158,0 0,11.89 1.958,0 0,11.889 0.929,0 0.044,23.778 0.304,0 0,-11.889 0.237,0 0,11.889 0.293,0 0,-11.889 0.154,0 0,-11.889 0.114,0 0,11.889 0.742,0 0,-11.889 0.333,0 0,-11.889 0.742,0 0,11.889 0.171,0 0,11.889 0.185,0 0.039,23.778 0.136,0 0,-11.889 0.327,0 0,-11.889 0.282,0 0,11.889 1.506,0 0,11.889 0.583,0 0,11.889 0.669,0 0,-11.889 0.678,0 0,-11.889 0.124,0 0,-11.889 0.478,0 0,11.889 1.027,0 0,11.889 0.216,0 0,11.889 0.661,0 0,11.889 0.225,0 0,-11.889 0.2,0 0,-11.889 0.432,0 0,-11.889 0.454,0 0,-11.889 0.189,0 0,-11.889 0.239,0 0,11.889 0.422,0 0,11.889 0.376,0 0,11.889 0.086,0 0,0 0.1,-23.778 0.052,0 0,11.889 0.221,0 0,11.889 0.431,0 0,-11.889 0.233,0 0,-11.889 0.297,0 0,11.889 0.517,0 0,11.889 0.317,0 0,-11.889 0.719,0 0.03,23.778 0.122,0 0,-11.889 0.056,0 0,0 0,11.889 0.117,0 0.032,23.778 0.537,0 0,-11.889 0.14,0 0,-11.889 0.025,0 0,0 0,11.889 0.324,0 0,11.889 0.21,0 0,-11.889 0.042,0 0,0 0,11.889 0.083,0 0,0 0,-11.889 0.057,0 0,0 0,11.889 0.673,0 0,11.889 1.206,0 0,11.889 0.063,0 0,0 0.026,-23.778 0.015,11.889 0.18,0 0,11.889 0.42,0 0,-11.889 0.368,0 0,-11.889 0.233,0 0.084,-23.778 1.168,0 0,11.889 0.159,0 0,11.889 0,0 0,0 0.056,-23.778 0.049,11.889 0.164,0 0,-11.889 0.26,0 0,-11.889 0.624,0 0,11.889 1.139,0 0,-11.889 0.388,0 0,-11.889 0.113,0 0,-11.889 0.691,0 0,-11.889 0.244,0 0,11.889 0.212,0 0,11.889 1.109,0 0,11.889 0.006,0 0,0 0,-11.889 0.03,0 0,0 0.092,23.778 0.103,0 0,11.889 0.194,0 0,-11.889 0.223,0 0,11.889 0.304,0 0.102,-23.778 0.391,0 0.062,23.778 0.024,-11.889 0.49,0 0,11.889 0.038,0 0,0 0,-11.889 0.292,0 0,11.889 0.544,0 0,11.889 0.206,0 0,-11.889 0.263,0 0,11.889 0.335,0 0,-11.889 0.002,0 0,0 0.076,23.778 0.348,0 0,11.889 1.243,0 0,11.89 0.192,0 0,-11.89 0.114,0 0,-11.889 0.61,0 0,-11.889 0.247,0 0,11.889 0.471,0 0,-11.889 0.302,0 0,11.889 0.429,0 0,-11.889 0.155,0 0,11.889 1.103,0 0,11.889 0.136,0 0,11.89 1.022,0 0,-11.89 0.982,0 0.019,-23.778 0.671,0 0,11.889 0.369,0 0,11.889 0.017,0 0,0 0,-11.889 0.272,0 0,-11.889 2.161,0 0,0"
         style="fill:none;stroke:#0000ff;stroke-linecap:square;stroke-linejoin:round"
         id="path3287-1" />
    </g>
  </g>
  <defs
     id="defs3531">
    <clipPath
       id="p695fb529d9">
      <rect
         height="711.36"
         width="666.81"
         x="107.55"
         y="88.92"
         id="rect3534" />
    </clipPath>
  </defs>
</svg>
