<?xml version="1.0" encoding="UTF-8" standalone="no"?>
<!-- Created with Inkscape (http://www.inkscape.org/) -->

<svg
   xmlns:dc="http://purl.org/dc/elements/1.1/"
   xmlns:cc="http://creativecommons.org/ns#"
   xmlns:rdf="http://www.w3.org/1999/02/22-rdf-syntax-ns#"
   xmlns:svg="http://www.w3.org/2000/svg"
   xmlns="http://www.w3.org/2000/svg"
   xmlns:sodipodi="http://sodipodi.sourceforge.net/DTD/sodipodi-0.dtd"
   xmlns:inkscape="http://www.inkscape.org/namespaces/inkscape"
   width="453.5433"
   height="340.15747"
   id="svg2"
   sodipodi:version="0.32"
   inkscape:version="0.48.4 r9939"
   sodipodi:docname="New document 5"
   version="1.0">
  <defs
     id="defs4">
    <marker
       inkscape:stockid="Arrow1Mstart"
       orient="auto"
       refY="0.0"
       refX="0.0"
       id="Arrow1Mstart"
       style="overflow:visible">
      <path
         id="path4693"
         d="M 0.0,0.0 L 5.0,-5.0 L -12.5,0.0 L 5.0,5.0 L 0.0,0.0 z "
         style="fill-rule:evenodd;stroke:#000000;stroke-width:1.0pt"
         transform="scale(0.4) translate(10,0)" />
    </marker>
    <marker
       inkscape:stockid="Arrow1Mend"
       orient="auto"
       refY="0.0"
       refX="0.0"
       id="Arrow1Mend"
       style="overflow:visible;">
      <path
         id="path4696"
         d="M 0.0,0.0 L 5.0,-5.0 L -12.5,0.0 L 5.0,5.0 L 0.0,0.0 z "
         style="fill-rule:evenodd;stroke:#000000;stroke-width:1.0pt;"
         transform="scale(0.4) rotate(180) translate(10,0)" />
    </marker>
    <marker
       inkscape:stockid="Arrow1Lstart"
       orient="auto"
       refY="0.0"
       refX="0.0"
       id="Arrow1Lstart"
       style="overflow:visible">
      <path
         id="path4687"
         d="M 0.0,0.0 L 5.0,-5.0 L -12.5,0.0 L 5.0,5.0 L 0.0,0.0 z "
         style="fill-rule:evenodd;stroke:#000000;stroke-width:1.0pt"
         transform="scale(0.8) translate(12.5,0)" />
    </marker>
    <clipPath
       id="p695fb529d9-6-3">
      <rect
         height="711.35999"
         width="666.81"
         x="107.55"
         y="88.919998"
         id="rect3534-0-5" />
    </clipPath>
    <clipPath
       id="p695fb529d9-6-3-0">
      <rect
         height="711.35999"
         width="666.81"
         x="107.55"
         y="88.919998"
         id="rect3534-0-5-7" />
    </clipPath>
    <clipPath
       id="p695fb529d9-6-3-8">
      <rect
         height="711.35999"
         width="666.81"
         x="107.55"
         y="88.919998"
         id="rect3534-0-5-3" />
    </clipPath>
  </defs>
  <sodipodi:namedview
     id="base"
     pagecolor="#ffffff"
     bordercolor="#666666"
     borderopacity="1.0"
     inkscape:pageopacity="0.0"
     inkscape:pageshadow="2"
     inkscape:zoom="2.1785437"
     inkscape:cx="268.887"
     inkscape:cy="195.23378"
     inkscape:document-units="mm"
     inkscape:current-layer="layer1"
     inkscape:window-width="1916"
     inkscape:window-height="1041"
     inkscape:window-x="0"
     inkscape:window-y="18"
     width="12.8cm"
     height="9.6cm"
     units="cm"
     showgrid="true"
     grid_units="mm"
     inkscape:object-paths="false"
     inkscape:grid-points="true"
     inkscape:grid-bbox="true"
     inkscape:guide-points="true"
     showguides="true"
     inkscape:guide-bbox="true"
     inkscape:window-maximized="0">
    <sodipodi:guide
       orientation="vertical"
       position="56.476527"
       id="guide3573" />
    <sodipodi:guide
       orientation="horizontal"
       position="11.035643"
       id="guide3579" />
    <sodipodi:guide
       orientation="horizontal"
       position="24.018753"
       id="guide3886" />
    <sodipodi:guide
       orientation="horizontal"
       position="285.62841"
       id="guide3988" />
    <sodipodi:guide
       orientation="horizontal"
       position="303.15561"
       id="guide4081" />
    <inkscape:grid
       id="GridFromPre046Settings"
       type="xygrid"
       originx="0px"
       originy="0px"
       spacingx="2mm"
       spacingy="2mm"
       color="#3f3fff"
       empcolor="#3f3fff"
       opacity="0.15"
       empopacity="0.38"
       empspacing="5" />
  </sodipodi:namedview>
  <metadata
     id="metadata7">
    <rdf:RDF>
      <cc:Work
         rdf:about="">
        <dc:format>image/svg+xml</dc:format>
        <dc:type
           rdf:resource="http://purl.org/dc/dcmitype/StillImage" />
        <dc:title></dc:title>
      </cc:Work>
    </rdf:RDF>
  </metadata>
  <g
     inkscape:label="Layer 1"
     inkscape:groupmode="layer"
     id="layer1"
     transform="translate(4.149475e-6,-698.0315)">
    <path
       style="fill:none;stroke:#0000ff;stroke-linecap:square;stroke-linejoin:round"
       d="M 866.97243 -71.74118 L 867.06157 -71.74118 L 867.06157 -68.86561 L 868.33017 -68.86561 L 868.33017 -65.99003 L 868.48659 -65.99003 L 868.48659 -63.11421 L 869.66203 -63.11421 L 869.66203 -65.99003 L 870.79146 -65.99003 L 870.81336 -71.74118 L 871.58511 -71.74118 L 871.58511 -68.86561 L 872.00951 -68.86561 L 872.00951 -65.99003 L 872.02901 -65.99003 L 872.02901 -65.99003 L 872.02901 -68.86561 L 872.34185 -68.86561 L 872.34185 -71.74118 L 874.82729 -71.74118 L 874.82729 -71.74118 "
       id="path5538"
       transform="translate(-4.149475e-6,698.0315)" />
    <path
       style="fill:none;stroke:#0000ff;stroke-width:1.44435227;stroke-linecap:square;stroke-linejoin:round"
       d="m -30.608085,847.80624 0,0.18745 2.8706,0 0,0.22352 0,0 -5.741211,0.0961 0,0.37735 2.870611,0 0,0.43024 -2.870611,0 0,1.23541 8.611822,0.23554 0,0.56001 2.870611,0 0,0.5456 2.87061,0 0,0.29564 2.870611,0 0,1.59353 -2.870611,0 0,0.79557 -2.87061,0 0,0.33167 2.87061,0 0,0.50233 -2.87061,0 0,1.91561 -2.870611,0 0,0.71865 2.870611,0 0,1.04072 5.741221,0.0842 0,1.31231 2.8706,0 0,0.44226 -2.8706,0 0,0.38215 2.8706,0 0,2.94431 -5.741211,0.0433 0,0.73788 2.870611,0 0,0.12747 0,0 -2.870611,0 0,2.24249 2.870611,0 0,0.51675 2.8706,0 0,0.9614 -2.8706,0 0,4.31192 2.8706,0 0,0.76431 2.870611,0 0,1.90118 5.7414611,0.0794 0,0.37978 -2.8708501,0 0,4.70606 -2.870611,0 0,2.23288 -5.741211,0.10574 0,0.73066 2.8706,0 0,0.56963 -2.8706,0 0,0.70423 2.8706,0 0,0.37014 2.870611,0 0,0.27401 -2.870611,0 0,1.78341 2.870611,0 0,0.80035 2.870611,0 0,1.78343 -2.870611,0 0,0.411 -2.870611,0 0,0.44466 -5.741211,0.0936 0,0.32688 2.870611,0 0,0.78594 2.8706,0 0,0.67779 -2.8706,0 0,3.6197 -2.870611,0 0,1.40125 -2.87061,0 0,1.60795 2.87061,0 0,1.62958 2.870611,0 0,0.29804 2.8706,0 0,1.14889 -2.8706,0 0,2.46841 -2.870611,0 0,0.51916 -2.87061,0 0,1.58873 -2.870611,0 0,0.54079 2.870611,0 0,0.4807 2.87061,0 0,1.0383 2.870611,0 0,1.09122 2.8706,0 0,0.45425 2.870611,0 0,0.57445 -2.870611,0 0,1.01427 -2.8706,0 0,0.90372 -2.870611,0 0,0.20668 0,0 5.741211,0.24034 0,0.12497 -2.8706,0 0,0.53118 -2.870611,0 0,1.03591 2.870611,0 0,0.56002 2.8706,0 0,0.71384 -2.8706,0 0,1.24262 -2.870611,0 0,0.76191 2.870611,0 0,1.72813 -5.741221,0.0721 0,0.29322 2.87061,0 0,0.13458 0,0 -2.87061,0 0,0.28122 -5.741222,0.0769 0,1.29068 2.870611,0 0,0.3365 2.870611,0 0,0.0602 0,0 -2.870611,0 0,0.77873 -2.870611,0 0,0.50474 2.870611,0 0,0.10094 0,0 -2.870611,0 0,0.19957 0,0 2.870611,0 0,0.13709 0,0 -2.870611,0 0,1.61758 -2.8706,0 0,2.89863 -2.870611,0 0,0.15151 0,0 5.741211,0.0625 -2.8706,0.0362 0,0.43262 -2.870611,0 0,1.00948 2.870611,0 0,0.8845 2.8706,0 0,0.56001 5.741222,0.20187 0,2.80731 -2.870611,0 0,0.38215 -2.870611,0 0,0 0,0 5.741222,0.13458 -2.870611,0.11787 0,0.39417 2.870611,0 0,0.62492 2.87061,0 0,1.49978 -2.87061,0 0,2.73762 2.87061,0 0,0.93256 2.870611,0 0,0.2716 2.8706,0 0,1.66082 2.870611,0 0,0.58647 -2.870611,0 0,0.50953 -2.8706,0 0,2.66552 -2.870611,0 0,0.0146 0,0 2.870611,0 0,0.0721 0,0 -5.741221,0.22112 0,0.24757 -2.870611,0 0,0.46627 2.870611,0 0,0.53599 -2.870611,0 0,0.73068 5.741221,0.24515 0,0.93977 -5.741221,0.149 2.870611,0.0577 0,1.17771 -2.870611,0 0,0.0913 0,0 2.870611,0 0,0.70182 -2.870611,0 0,1.30751 -2.870611,0 0,0.49513 2.870611,0 0,0.63213 -2.870611,0 0,0.80516 2.870611,0 0,0.004 0,0 -5.741211,0.18265 0,0.83643 -2.870611,0 0,2.98757 -2.87085,0 0,0.46148 2.87085,0 0,0.27399 2.870611,0 0,1.46616 2.8706,0 0,0.59366 -2.8706,0 0,1.13207 2.8706,0 0,0.72585 -2.8706,0 0,1.03112 2.8706,0 0,0.18619"
       id="path5536"
       inkscape:connector-curvature="0" />
    <path
       style="fill:none;stroke:#0000ff;stroke-linecap:square;stroke-linejoin:round"
       d="M 666.44634 -146.50669 L 666.47842 -146.50669 L 666.47842 -143.63111 L 666.65094 -143.63111 L 666.65094 -146.50669 L 666.67164 -146.50669 L 666.67164 -146.50669 L 666.67164 -143.63111 L 667.26166 -143.63111 L 667.26166 -140.75553 L 667.74932 -140.75553 L 667.74932 -143.63111 L 668.16451 -143.63111 L 668.16451 -140.75553 L 668.4601 -140.75553 L 668.4601 -143.63111 L 669.84026 -143.63111 L 669.86556 -137.87996 L 669.98977 -137.87996 L 669.98977 -135.00438 L 670.18185 -135.00438 L 670.18185 -137.87996 L 670.23705 -137.87996 L 670.23705 -137.87996 L 670.23705 -135.00438 L 670.39807 -135.00438 L 670.39807 -132.1288 L 670.78107 -132.1288 L 670.78107 -135.00438 L 671.19282 -135.00438 L 671.19982 -129.25322 L 671.4839 -129.25322 L 671.4839 -132.1288 L 671.68862 -132.1288 L 671.80594 -126.37764 L 671.88414 -126.37764 L 671.88414 -129.25322 L 672.21883 -129.25322 L 672.21883 -132.1288 L 672.21983 -132.1288 L 672.21983 -132.1288 L 672.21983 -129.25322 L 672.4211 -129.25322 L 672.4211 -132.1288 L 672.53497 -132.1288 L 672.53497 -132.1288 L 672.53497 -129.25322 L 673.6253 -129.25322 L 673.6253 -126.37764 L 673.93583 -126.37764 L 673.97493 -120.62625 L 674.06693 -120.62625 L 674.06693 -123.50183 L 674.36136 -123.50183 L 674.36136 -120.62625 L 674.51548 -120.62625 L 674.51548 -117.75067 L 674.52928 -117.75067 L 674.52928 -117.75067 L 674.52928 -120.62625 L 674.60288 -120.62625 L 674.60288 -120.62625 L 674.60288 -117.75067 L 675.06754 -117.75067 L 675.06754 -114.87509 L 676.64322 -114.87509 L 676.64322 -111.99951 L 676.97446 -111.99951 L 676.99056 -106.24836 L 677.22403 -106.24836 L 677.22403 -103.37278 L 677.67259 -103.37278 L 677.72779 -97.62163 L 677.97277 -97.62163 L 677.97277 -94.74605 L 678.1752 -94.74605 L 678.1752 -91.87023 L 679.34259 -91.87023 L 679.43809 -86.11907 L 680.4111 -86.11907 L 680.4456 -80.36792 L 680.79409 -80.36792 L 680.79409 -77.49234 L 681.83151 -77.49234 L 681.83151 -74.61676 L 682.03739 -74.61676 L 682.03739 -71.74118 L 683.23928 -71.74118 L 683.23928 -68.86561 L 683.47276 -68.86561 L 683.47276 -71.74118 L 683.64413 -71.74118 L 683.64413 -68.86561 L 683.71203 -68.86561 L 683.71203 -68.86561 L 683.71203 -71.74118 L 684.25374 -71.74118 L 684.25374 -68.86561 L 684.55163 -68.86561 L 684.61373 -74.61676 L 684.80236 -74.61676 L 684.80236 -77.49234 L 685.55915 -77.49234 L 685.55915 -80.36792 L 685.78342 -80.36792 L 685.78342 -83.2435 L 686.20552 -83.2435 L 686.20552 -86.11907 L 687.34646 -86.11907 L 687.34646 -88.99465 L 688.00089 -88.99465 L 688.00089 -91.87023 L 688.35858 -91.87023 L 688.35858 -88.99465 L 688.49775 -88.99465 L 688.49775 -86.11907 L 688.61391 -86.11907 L 688.61391 -86.11907 L 688.69901 -91.87023 L 688.80482 -91.87023 L 688.80482 -88.99465 L 688.88882 -88.99465 L 688.88882 -88.99465 L 688.88882 -91.87023 L 689.16716 -91.87023 L 689.16716 -88.99465 L 689.67092 -88.99465 L 689.67092 -91.87023 L 690.35985 -91.87023 L 690.35985 -94.74605 L 690.62898 -94.74605 L 690.62898 -91.87023 L 690.64508 -91.87023 L 690.64508 -91.87023 L 690.64508 -94.74605 L 690.89121 -94.74605 L 690.89121 -91.87023 L 691.03958 -91.87023 L 691.14884 -100.4972 L 691.34897 -100.4972 L 691.42257 -106.24836 L 693.46061 -106.24836 L 693.46061 -103.37278 L 693.62508 -103.37278 L 693.62508 -106.24836 L 693.97472 -106.24836 L 693.97472 -109.12394 L 694.34046 -109.12394 L 694.34046 -106.24836 L 694.48308 -106.24836 L 694.51188 -100.4972 L 695.9162 -100.4972 L 695.9162 -103.37278 L 696.30955 -103.37278 L 696.30955 -106.24836 L 696.47862 -106.24836 L 696.55912 -97.62163 L 696.8225 -97.62163 L 696.8536 -103.37278 L 697.18714 -103.37278 L 697.18714 -100.4972 L 697.60809 -100.4972 L 697.60809 -97.62163 L 698.0601 -97.62163 L 698.1533 -91.87023 L 698.55354 -91.87023 L 698.55354 -94.74605 L 698.63864 -94.74605 L 698.63864 -94.74605 L 698.63864 -91.87023 L 699.33448 -91.87023 L 699.33448 -94.74605 L 699.35168 -94.74605 L 699.35168 -94.74605 L 699.35168 -91.87023 L 699.4897 -91.87023 L 699.4897 -88.99465 L 699.77608 -88.99465 L 699.77608 -91.87023 L 699.921 -91.87023 L 699.921 -88.99465 L 700.54782 -88.99465 L 700.54782 -86.11907 L 700.59732 -86.11907 L 700.59732 -86.11907 L 700.59732 -88.99465 L 702.25927 -88.99465 L 702.25927 -91.87023 L 702.71932 -91.87023 L 702.71932 -88.99465 L 703.43931 -88.99465 L 703.43931 -86.11907 L 703.80735 -86.11907 L 703.80735 -88.99465 L 704.06268 -88.99465 L 704.06268 -91.87023 L 704.2076 -91.87023 L 704.2076 -94.74605 L 704.218 -94.74605 L 704.218 -94.74605 L 704.218 -91.87023 L 706.04672 -91.87023 L 706.04672 -94.74605 L 706.67469 -94.74605 L 706.67469 -91.87023 L 706.87942 -91.87023 L 706.87942 -94.74605 L 707.79608 -94.74605 L 707.79608 -91.87023 L 709.09113 -91.87023 L 709.09113 -94.74605 L 709.6938 -94.74605 L 709.6938 -97.62163 L 709.96063 -97.62163 L 709.96063 -94.74605 L 710.26887 -94.74605 L 710.26887 -97.62163 L 711.34195 -97.62163 L 711.34195 -94.74605 L 711.48802 -94.74605 L 711.48802 -97.62163 L 711.55472 -97.62163 L 711.55472 -97.62163 L 711.55472 -94.74605 L 712.51969 -94.74605 L 712.51969 -97.62163 L 713.0246 -97.62163 L 713.0246 -100.4972 L 713.15226 -100.4972 L 713.15226 -100.4972 L 713.15826 -94.74605 L 713.32733 -94.74605 L 713.32733 -91.87023 L 713.67238 -91.87023 L 713.67238 -88.99465 L 713.82764 -88.99465 L 713.89894 -83.2435 L 714.09562 -83.2435 L 714.09562 -86.11907 L 714.19568 -86.11907 L 714.19568 -86.11907 L 714.29348 -77.49234 L 715.3263 -77.49234 L 715.3263 -74.61676 L 715.56208 -74.61676 L 715.56208 -71.74118 L 715.81051 -71.74118 L 715.81051 -68.86561 L 715.95198 -68.86561 L 715.95198 -71.74118 L 716.30507 -71.74118 L 716.30507 -68.86561 L 717.04461 -68.86561 L 717.04461 -65.99003 L 717.80715 -65.99003 L 717.80715 -68.86561 L 717.83935 -68.86561 L 717.83935 -68.86561 L 717.83935 -65.99003 L 718.54094 -65.99003 L 718.54094 -68.86561 L 718.56504 -68.86561 L 718.56504 -68.86561 L 718.56504 -65.99003 L 718.69845 -65.99003 L 718.75255 -71.74118 L 718.84915 -71.74118 L 718.84915 -74.61676 L 719.2839 -74.61676 L 719.2839 -77.49234 L 719.51393 -77.49234 L 719.51393 -80.36792 L 719.83827 -80.36792 L 719.83827 -83.2435 L 720.22012 -83.2435 L 720.22012 -80.36792 L 720.45359 -80.36792 L 720.45359 -77.49234 L 720.68477 -77.49234 L 720.68477 -74.61676 L 721.3484 -74.61676 L 721.3484 -71.74118 L 721.65549 -71.74118 L 721.65549 -68.86561 L 722.71131 -68.86561 L 722.71131 -65.99003 L 722.87463 -65.99003 L 722.87463 -63.11421 L 724.19729 -63.11421 L 724.19729 -65.99003 L 724.35141 -65.99003 L 724.35141 -68.86561 L 724.68955 -68.86561 L 724.74475 -74.61676 L 724.75855 -71.74118 L 725.28646 -71.74118 L 725.28646 -74.61676 L 725.64415 -74.61676 L 725.64415 -77.49234 L 726.51596 -77.49234 L 726.54126 -71.74118 L 726.73908 -71.74118 L 726.81388 -77.49234 L 726.83228 -74.61676 L 727.03931 -74.61676 L 727.03931 -71.74118 L 727.23368 -71.74118 L 727.30958 -65.99003 L 727.50625 -65.99003 L 727.50625 -63.11421 L 727.96976 -63.11421 L 727.96976 -65.99003 L 728.3447 -65.99003 L 728.3447 -68.86561 L 729.70071 -68.86561 L 729.73981 -63.11421 L 729.88243 -63.11421 L 729.88243 -65.99003 L 730.63462 -65.99003 L 730.63462 -63.11421 L 731.3546 -63.11421 L 731.4259 -57.36305 L 732.51278 -57.36305 L 732.51278 -54.48748 L 732.83597 -54.48748 L 732.91307 -60.23863 L 733.00397 -60.23863 L 733.00397 -57.36305 L 733.81481 -57.36305 L 733.81481 -54.48748 L 734.9385 -54.48748 L 734.9385 -57.36305 L 735.95292 -57.36305 L 735.95292 -60.23863 L 736.76722 -60.23863 L 736.76722 -63.11421 L 736.90753 -63.11421 L 736.90753 -65.99003 L 737.03635 -65.99003 L 737.03635 -63.11421 L 737.8771 -63.11421 L 737.8771 -65.99003 L 740.05201 -65.99003 L 740.12791 -57.36305 L 740.19231 -57.36305 L 740.19231 -54.48748 L 740.43384 -54.48748 L 740.43384 -51.6119 L 741.15153 -51.6119 L 741.15153 -48.73632 L 742.99405 -48.73632 L 742.99405 -51.6119 L 742.99605 -51.6119 L 742.99605 -51.6119 L 742.99605 -48.73632 L 743.18467 -48.73632 L 743.18467 -51.6119 L 743.43885 -51.6119 L 743.43885 -54.48748 L 743.66888 -54.48748 L 743.66888 -57.36305 L 745.05249 -57.36305 L 745.05249 -54.48748 L 745.20661 -54.48748 L 745.20661 -57.36305 L 745.21931 -57.36305 L 745.21931 -57.36305 L 745.31591 -51.6119 L 745.44473 -51.6119 L 745.44473 -48.73632 L 745.80587 -48.73632 L 745.80587 -51.6119 L 745.97609 -51.6119 L 745.97609 -54.48748 L 748.34998 -54.48748 L 748.34998 -57.36305 L 748.5294 -57.36305 L 748.5834 -51.6119 L 749.02506 -51.6119 L 749.15157 -45.86074 L 750.10504 -45.86074 L 750.10504 -42.98517 L 750.62145 -42.98517 L 750.62145 -40.10959 L 750.71345 -40.10959 L 750.71345 -40.10959 L 750.71345 -42.98517 L 750.88597 -42.98517 L 750.88597 -40.10959 L 751.02859 -40.10959 L 751.02859 -42.98517 L 751.48174 -42.98517 L 751.48174 -40.10959 L 752.00735 -40.10959 L 752.00735 -42.98517 L 752.27993 -42.98517 L 752.27993 -45.86074 L 752.62613 -45.86074 L 752.62613 -42.98517 L 753.07698 -42.98517 L 753.07698 -45.86074 L 754.56986 -45.86074 L 754.56986 -48.73632 L 754.72283 -48.73632 L 754.72283 -51.6119 L 755.56473 -51.6119 L 755.56473 -54.48748 L 756.1858 -54.48748 L 756.1858 -57.36305 L 757.17147 -57.36305 L 757.17147 -54.48748 L 757.59817 -54.48748 L 757.59817 -57.36305 L 757.8857 -57.36305 L 757.9754 -63.11421 L 758.64248 -63.11421 L 758.64248 -60.23863 L 759.89153 -60.23863 L 759.89153 -57.36305 L 760.75643 -57.36305 L 760.75643 -60.23863 L 761.16818 -60.23863 L 761.16818 -57.36305 L 761.749 -57.36305 L 761.749 -60.23863 L 762.81403 -60.23863 L 762.81403 -57.36305 L 763.22923 -57.36305 L 763.22923 -60.23863 L 763.44545 -60.23863 L 763.44545 -63.11421 L 765.0752 -63.11421 L 765.1511 -57.36305 L 765.71466 -57.36305 L 765.71466 -60.23863 L 766.30584 -60.23863 L 766.30584 -63.11421 L 768.57621 -63.11421 L 768.57621 -60.23863 L 769.16278 -60.23863 L 769.16278 -57.36305 L 769.7988 -57.36305 L 769.7988 -54.48748 L 769.96442 -54.48748 L 769.96442 -57.36305 L 769.97042 -57.36305 L 769.97042 -57.36305 L 769.97042 -54.48748 L 771.41154 -54.48748 L 771.44374 -60.23863 L 772.87796 -60.23863 L 772.87796 -57.36305 L 774.62847 -57.36305 L 774.62847 -60.23863 L 775.64749 -60.23863 L 775.64749 -57.36305 L 775.87522 -57.36305 L 775.87522 -60.23863 L 776.05924 -60.23863 L 776.05924 -63.11421 L 776.64581 -63.11421 L 776.64581 -65.99003 L 777.8615 -65.99003 L 777.8615 -68.86561 L 778.24335 -68.86561 L 778.24335 -71.74118 L 778.53778 -71.74118 L 778.53778 -74.61676 L 779.04959 -74.61676 L 779.04959 -71.74118 L 779.65457 -71.74118 L 779.65457 -68.86561 L 779.86734 -68.86561 L 779.86734 -71.74118 L 780.11462 -71.74118 L 780.11462 -74.61676 L 780.12732 -74.61676 L 780.12732 -74.61676 L 780.12732 -71.74118 L 780.27454 -71.74118 L 780.29644 -77.49234 L 780.52877 -77.49234 L 780.52877 -74.61676 L 780.92787 -74.61676 L 780.92787 -71.74118 L 780.97507 -71.74118 L 780.97507 -71.74118 L 780.97507 -74.61676 L 781.04297 -74.61676 L 781.04297 -74.61676 L 781.04297 -71.74118 L 781.19249 -71.74118 L 781.19249 -68.86561 L 781.44437 -68.86561 L 781.44437 -65.99003 L 781.81011 -65.99003 L 781.81011 -68.86561 L 782.27132 -68.86561 L 782.27132 -65.99003 L 782.69457 -65.99003 L 782.69457 -63.11421 L 782.69657 -63.11421 L 782.69657 -63.11421 L 782.71727 -68.86561 L 783.26128 -68.86561 L 783.35908 -74.61676 L 783.40278 -74.61676 L 783.40278 -77.49234 L 784.25503 -77.49234 L 784.25503 -74.61676 L 784.28953 -74.61676 L 784.28953 -74.61676 L 784.28953 -77.49234 L 784.44365 -77.49234 L 784.44365 -80.36792 L 784.69898 -80.36792 L 784.81514 -74.61676 L 785.02907 -74.61676 L 785.02907 -71.74118 L 785.08307 -71.74118 L 785.08307 -71.74118 L 785.08307 -74.61676 L 785.99053 -74.61676 L 785.99053 -71.74118 L 786.48854 -71.74118 L 786.48854 -68.86561 L 786.76802 -68.86561 L 786.76802 -65.99003 L 787.51676 -65.99003 L 787.51676 -68.86561 L 788.01132 -68.86561 L 788.01132 -71.74118 L 789.40874 -71.74118 L 789.40874 -74.61676 L 789.63761 -74.61676 L 789.63761 -71.74118 L 790.21498 -71.74118 L 790.21498 -74.61676 L 790.61293 -74.61676 L 790.63243 -80.36792 L 791.20405 -80.36792 L 791.20405 -83.2435 L 792.08621 -83.2435 L 792.08621 -86.11907 L 792.10921 -86.11907 L 792.10921 -86.11907 L 792.10921 -83.2435 L 792.55201 -83.2435 L 792.55201 -80.36792 L 793.64464 -80.36792 L 793.64464 -77.49234 L 793.66874 -77.49234 L 793.66874 -77.49234 L 793.66874 -80.36792 L 794.05059 -80.36792 L 794.05059 -83.2435 L 794.18976 -83.2435 L 794.18976 -86.11907 L 794.26456 -86.11907 L 794.26456 -86.11907 L 794.26456 -83.2435 L 795.06045 -83.2435 L 795.06045 -80.36792 L 795.4998 -80.36792 L 795.4998 -83.2435 L 797.10194 -83.2435 L 797.10194 -86.11907 L 798.63853 -86.11907 L 798.70293 -91.87023 L 799.46778 -91.87023 L 799.46778 -88.99465 L 800.43504 -88.99465 L 800.43504 -86.11907 L 801.06762 -86.11907 L 801.06762 -88.99465 L 801.19643 -88.99465 L 801.19643 -86.11907 L 801.377 -86.11907 L 801.377 -83.2435 L 801.86696 -83.2435 L 801.86696 -80.36792 L 802.11309 -80.36792 L 802.11309 -83.2435 L 802.78477 -83.2435 L 802.78477 -86.11907 L 803.64967 -86.11907 L 803.64967 -83.2435 L 803.75319 -83.2435 L 803.75319 -83.2435 L 803.78079 -88.99465 L 803.8935 -88.99465 L 803.8935 -91.87023 L 804.2995 -91.87023 L 804.2995 -88.99465 L 804.3743 -88.99465 L 804.3743 -88.99465 L 804.3743 -91.87023 L 804.4548 -91.87023 L 804.4548 -91.87023 L 804.4951 -86.11907 L 804.5699 -88.99465 L 804.6458 -88.99465 L 804.6458 -86.11907 L 804.95289 -86.11907 L 804.95289 -83.2435 L 805.00469 -83.2435 L 805.00469 -83.2435 L 805.00469 -86.11907 L 805.09099 -86.11907 L 805.09099 -86.11907 L 805.09099 -83.2435 L 805.83282 -83.2435 L 805.83282 -86.11907 L 805.98694 -86.11907 L 805.98694 -88.99465 L 806.06404 -88.99465 L 806.06404 -88.99465 L 806.06404 -86.11907 L 806.13994 -86.11907 L 806.13994 -86.11907 L 806.13994 -88.99465 L 806.38722 -88.99465 L 806.38722 -91.87023 L 806.55974 -91.87023 L 806.59074 -86.11907 L 806.80007 -86.11907 L 806.80007 -83.2435 L 806.93924 -83.2435 L 806.93924 -80.36792 L 807.64657 -80.36792 L 807.70527 -74.61676 L 807.78007 -74.61676 L 807.78007 -71.74118 L 809.06707 -71.74118 L 809.06707 -74.61676 L 809.67434 -74.61676 L 809.67434 -71.74118 L 809.91587 -71.74118 L 809.91587 -68.86561 L 810.09529 -68.86561 "
       id="path4586"
       transform="translate(-4.149475e-6,698.0315)" />
    <path
       style="fill:none;stroke:#0000ff;stroke-linecap:square;stroke-linejoin:round"
       d="M 605.03768 -91.87023 L 605.37261 -91.87023 L 605.38061 -97.62163 L 605.48297 -94.74605 L 605.88552 -94.74605 L 605.88552 -91.87023 L 606.16155 -91.87023 L 606.16155 -88.99465 L 606.45828 -88.99465 L 606.45828 -86.11907 L 606.59975 -86.11907 L 606.59975 -88.99465 L 607.18977 -88.99465 L 607.18977 -86.11907 L 607.60267 -86.11907 L 607.60267 -83.2435 L 607.65327 -83.2435 L 607.65327 -83.2435 L 607.65327 -86.11907 L 607.92585 -86.11907 L 607.92585 -83.2435 L 608.25019 -83.2435 L 608.25019 -80.36792 L 609.52569 -80.36792 L 609.52569 -77.49234 L 609.71201 -77.49234 L 609.83508 -71.74118 L 610.62177 -71.74118 L 610.62177 -74.61676 L 610.73218 -74.61676 L 610.73218 -74.61676 L 610.73218 -71.74118 L 611.46252 -71.74118 L 611.46252 -74.61676 L 611.7466 -74.61676 L 611.7466 -71.74118 L 611.93293 -71.74118 L 611.93293 -68.86561 L 612.05714 -68.86561 L 612.05714 -68.86561 L 612.05714 -71.74118 L 612.22506 -71.74118 L 612.22506 -68.86561 L 612.85074 -68.86561 L 612.85074 -71.74118 L 612.94044 -71.74118 L 612.94044 -71.74118 L 612.94044 -68.86561 L 613.69378 -68.86561 L 613.69378 -71.74118 L 613.72258 -71.74118 L 613.72258 -71.74118 L 613.72258 -68.86561 L 614.02507 -68.86561 L 614.02507 -71.74118 L 614.47937 -71.74118 L 614.47937 -74.61676 L 616.74629 -74.61676 L 616.76699 -80.36792 L 617.00967 -80.36792 L 617.00967 -83.2435 L 617.32136 -83.2435 L 617.32136 -86.11907 L 617.54449 -86.11907 L 617.54449 -88.99465 L 617.6802 -88.99465 L 617.7354 -94.74605 L 617.83661 -94.74605 L 617.83661 -91.87023 L 617.98613 -91.87023 L 617.98613 -88.99465 L 618.02173 -88.99465 L 618.02173 -88.99465 L 618.02173 -91.87023 L 618.34607 -91.87023 L 618.34607 -94.74605 L 618.60715 -94.74605 L 618.60715 -97.62163 L 618.76357 -97.62163 L 618.76357 -100.4972 L 619.92061 -100.4972 L 619.92061 -103.37278 L 619.98961 -103.37278 L 619.98961 -103.37278 L 620.07701 -97.62163 L 620.16671 -97.62163 L 620.16671 -94.74605 L 620.64631 -94.74605 L 620.64631 -91.87023 L 621.51812 -91.87023 L 621.51812 -94.74605 L 621.56292 -94.74605 L 621.56292 -94.74605 L 621.56292 -91.87023 L 622.12304 -91.87023 L 622.12304 -88.99465 L 622.77057 -88.99465 L 622.77057 -91.87023 L 622.94309 -91.87023 L 622.94309 -88.99465 L 622.96959 -88.99465 L 622.96959 -88.99465 L 622.97559 -94.74605 L 623.05729 -91.87023 L 623.46099 -91.87023 L 623.53689 -97.62163 L 623.59099 -97.62163 L 623.59999 -91.87023 L 624.05774 -91.87023 L 624.05774 -88.99465 L 624.9376 -88.99465 L 624.9376 -91.87023 L 626.01297 -91.87023 L 626.01297 -94.74605 L 626.07737 -94.74605 L 626.07737 -94.74605 L 626.07737 -91.87023 L 626.54663 -91.87023 L 626.54663 -94.74605 L 626.84566 -94.74605 L 626.84566 -97.62163 L 627.26546 -97.62163 L 627.26546 -100.4972 L 627.52539 -100.4972 L 627.52539 -97.62163 L 628.53061 -97.62163 L 628.53061 -94.74605 L 628.61921 -94.74605 L 628.61921 -94.74605 L 628.61921 -97.62163 L 629.83606 -97.62163 L 629.95567 -91.87023 L 629.98787 -91.87023 L 629.98787 -88.99465 L 630.30416 -88.99465 L 630.38466 -94.74605 L 630.59054 -94.74605 L 630.59054 -97.62163 L 631.90745 -97.62163 L 631.90745 -94.74605 L 632.3675 -94.74605 L 632.3675 -91.87023 L 633.09209 -91.87023 L 633.09209 -94.74605 L 633.14159 -94.74605 L 633.14159 -94.74605 L 633.14159 -91.87023 L 633.41188 -91.87023 L 633.50158 -86.11907 L 634.06399 -86.11907 L 634.06399 -83.2435 L 634.48379 -83.2435 L 634.48379 -80.36792 L 636.06753 -80.36792 L 636.06753 -83.2435 L 636.6127 -83.2435 L 636.6127 -86.11907 L 636.74036 -86.11907 L 636.74036 -86.11907 L 636.74036 -83.2435 L 636.95774 -83.2435 L 636.95774 -86.11907 L 638.14123 -86.11907 L 638.14123 -88.99465 L 638.62199 -88.99465 L 638.62199 -91.87023 L 638.94517 -91.87023 L 638.94517 -94.74605 L 639.13495 -94.74605 L 639.15795 -88.99465 L 639.25916 -91.87023 L 639.5628 -91.87023 L 639.5628 -94.74605 L 639.82618 -94.74605 L 639.94004 -88.99465 L 640.46221 -88.99465 L 640.46221 -86.11907 L 640.67268 -86.11907 L 640.67268 -83.2435 L 641.57094 -83.2435 L 641.57094 -80.36792 L 642.90855 -80.36792 L 642.91655 -86.11907 L 643.24664 -86.11907 L 643.24664 -88.99465 L 643.7964 -88.99465 L 643.8666 -94.74605 L 644.26915 -94.74605 L 644.26915 -97.62163 L 645.60331 -97.62163 L 645.60331 -100.4972 L 646.30949 -100.4972 L 646.30949 -103.37278 L 646.57862 -103.37278 L 646.57862 -100.4972 L 646.64072 -100.4972 L 646.64072 -100.4972 L 646.64072 -103.37278 L 646.66262 -103.37278 L 646.66262 -103.37278 L 646.66262 -100.4972 L 647.37801 -100.4972 L 647.37801 -103.37278 L 649.60122 -103.37278 L 649.60122 -100.4972 L 650.60874 -100.4972 L 650.60874 -103.37278 L 650.70074 -103.37278 L 650.70074 -103.37278 L 650.70074 -100.4972 L 650.95838 -100.4972 L 650.95838 -103.37278 L 651.20335 -103.37278 L 651.20335 -106.24836 L 651.24595 -106.24836 L 651.24595 -106.24836 L 651.24595 -103.37278 L 651.46103 -103.37278 L 651.46103 -106.24836 L 651.50813 -106.24836 L 651.50813 -106.24836 L 651.50813 -103.37278 L 652.56396 -103.37278 L 652.56396 -106.24836 L 652.59046 -106.24836 L 652.59046 -106.24836 L 652.59046 -103.37278 L 653.68309 -103.37278 L 653.68309 -106.24836 L 653.90507 -106.24836 L 653.90507 -109.12394 L 654.35937 -109.12394 L 654.35937 -106.24836 L 654.39737 -106.24836 L 654.39737 -106.24836 L 654.39737 -109.12394 L 654.78956 -109.12394 L 654.79256 -114.87509 L 655.0732 -114.87509 L 655.0732 -117.75067 L 655.37223 -117.75067 L 655.37223 -114.87509 L 655.63906 -114.87509 L 655.63906 -111.99951 L 656.57067 -111.99951 L 656.69489 -106.24836 L 657.06408 -106.24836 L 657.18715 -111.99951 L 657.25845 -111.99951 L 657.27335 -117.75067 L 657.73455 -117.75067 L 657.73455 -120.62625 L 658.1141 -120.62625 L 658.1141 -123.50183 L 658.182 -123.50183 L 658.182 -123.50183 L 658.182 -120.62625 L 659.15731 -120.62625 L 659.15731 -123.50183 L 659.35629 -123.50183 L 659.35629 -126.37764 L 660.06707 -126.37764 L 660.07307 -132.1288 L 660.33875 -132.1288 L 660.33875 -135.00438 L 660.95753 -135.00438 L 660.95753 -132.1288 L 661.1887 -132.1288 L 661.30947 -137.87996 L 661.74767 -137.87996 L 661.74767 -140.75553 L 662.14677 -140.75553 L 662.14677 -137.87996 L 662.57117 -137.87996 L 662.57117 -135.00438 L 662.97487 -135.00438 L 662.97487 -137.87996 L 663.29115 -137.87996 L 663.29115 -135.00438 L 663.71671 -135.00438 L 663.71671 -137.87996 L 664.0537 -137.87996 L 664.0597 -143.63111 L 664.1068 -140.75553 L 664.80724 -140.75553 L 664.80724 -143.63111 L 664.96135 -143.63111 L 664.96135 -146.50669 L 665.41681 -146.50669 L 665.41681 -149.38227 L 665.62613 -149.38227 L 665.69403 -143.63111 L 665.83665 -143.63111 L 665.83665 -146.50669 L 666.44634 -146.50669 "
       id="path4584"
       transform="translate(-4.149475e-6,698.0315)" />
    <path
       style="fill:none;stroke:#0000ff;stroke-linecap:square;stroke-linejoin:round"
       d="M 603.02193 -106.24836 L 603.02193 -103.37278 L 603.52569 -103.37278 L 603.52569 -100.4972 L 603.81092 -100.4972 L 603.85462 -94.74605 L 603.97309 -94.74605 L 603.97309 -97.62163 L 603.98689 -97.62163 L 603.98689 -97.62163 L 603.98689 -94.74605 L 604.24107 -94.74605 L 604.24107 -91.87023 L 604.25007 -91.87023 L 604.25007 -91.87023 L 604.25007 -94.74605 L 604.79409 -94.74605 L 604.79409 -91.87023 L 605.03768 -91.87023 "
       id="path3287-1"
       transform="translate(-4.149475e-6,698.0315)" />
    <g
       transform="matrix(1.150137,0,0,0.24186876,-232.76049,510.70135)"
       id="line2d_1-8"
       style="stroke-linecap:butt;stroke-linejoin:round" />
    <path
       style="fill:none;stroke:#0000ff;stroke-width:1.44611728;stroke-linecap:square;stroke-linejoin:round"
       d="m 351.75017,847.60064 0,2.39661 -2.86855,0 0,0.7812 -2.86856,0 0,0.27968 2.86856,0 0,0.40749 2.86855,0 0,2.55097 -2.86855,0 0,0.47499 -2.86856,0 0,0.0434 0,0 2.86856,0 0,0.81977 -2.86856,0 0,1.00062 -2.86856,0 0,0.83183 2.86856,0 0,0.54732 5.73711,0.0147 0,0.25561 -2.86855,0 0,1.58649 2.86855,0 0,0.69438 -5.73711,0.25318 0,0.2604 2.86856,0 0,2.74385 2.86855,0 0,4.31832 2.86856,0 0,0.46292 -2.86856,0 0,0.60037 -2.86855,0 0,0.0604 0,0 2.86855,0 0,1.86137 -2.86855,0 0,1.75531 2.86855,0 0,1.2972 -5.73711,0.0361 0,0.29173 2.86856,0 0,1.05366 -2.86856,0 0,0.17357 0,0 2.86856,0 0,0.32549 -5.73712,0.14234 0,0.2291 -5.73712,0.26036 0,0.20977 2.86856,0 0,1.28757 -2.86856,0 0,1.10184 2.86856,0 0,0.48706 -2.86856,0 0,0.80048 2.86856,0 0,1.90237 2.86856,0 0,0.50393 -5.73712,0.22664 0,0.66788 -2.86856,0 0,0.27488 2.86856,0 0,1.51419 2.86856,0 0,0.51597 -2.86856,0 0,2.08561 2.86856,0 0,0.27725 -2.86856,0 0,0.4533 5.73712,0.10378 0,1.82038 2.86856,0 0,0.4533 2.86856,0 0,0.51355 2.86855,0 0,1.07537 -2.86855,0 0,0.10839 0,0 5.73711,0.19056 0,0.10608 2.86857,0 0,0.8463 -2.86857,0 0,2.38941 -2.86856,0 0,0.34478 -2.86855,0 0,3.7083 -2.86856,0 0,0.10126 0,0 2.86856,0 0,1.8493 2.86855,0 0,0.58834 2.86856,0 0,1.83966 -2.86856,0 0,0.91381 5.73713,0.16163 0,0.38819 2.86879,0 0,1.21279 -2.86879,0 0,0.40749 2.86879,0 0,0.4533 -2.86879,0 0,1.1308 2.86879,0 0,1.14768 -2.86879,0 0,0.31348 -2.86857,0 0,0.17127 0,0 2.86857,0 0,2.20134 -2.86857,0 0,0.19769 0,0 2.86857,0 0,2.11696 2.86879,0 0,1.16938 2.86857,0 0,2.14588 -2.86857,0 0,0.28211 2.86857,0 0,0.44126 2.86855,0 0,1.35261 2.86857,0 0,0.39058 -2.86857,0 0,0.38582 2.86857,0 0,0.32065 2.86856,0 0,0.72096 -5.73713,0.0604 0,1.1718 -2.86855,0 0,2.26642 -2.86857,0 0,1.19593 2.86857,0 0,0.10125 0,0 -2.86857,0 0,0.065 0,0 2.86857,0 0,0.17357 0,0 -2.86857,0 0,1.45149 2.86857,0 0,1.76733 -2.86857,0 0,0.0675 0,0 2.86857,0 0,0.30137 -2.86857,0 0,1.99642 2.86857,0 0,0.37854 5.73712,0.23626 0,0.1327 -2.86857,0 0,0.31104 -2.86855,0 0,0.50393 2.86855,0 0,0.51839 2.86857,0 0,2.96808 -2.86857,0 0,0.39542 2.86857,0 0,0.60519 -2.86857,0 0,0.47257 -2.86855,0 0,0.35685 2.86855,0 0,0.75226 -5.73712,0.082 0,0.4171 -2.86879,0 0,0.64621 2.86879,0 0,0.68957 5.73712,0.0147 0,2.24236 -2.86855,0 0,2.73902 2.86855,0 0,3.55398 -2.86855,0 0,0.93793 -2.86857,0 0,0.50391 -2.86879,0 0,0.36649 2.86879,0 0,0.27485 -2.86879,0 0,0.0965 0,0 2.86879,0 0,1.66604 -2.86879,0 0,0.4075 -2.86857,0 0,0.31585 2.86857,0 0,1.17662 5.73736,0.16875 0,0.14717 -2.86857,0 0,2.12178 -2.86879,0 0,2.27851 2.86879,0 0,1.92889 -2.86879,0 0,2.60212"
       id="path4671"
       inkscape:connector-curvature="0" />
    <path
       style="fill:none;stroke:#0000ff;stroke-linecap:square;stroke-linejoin:round"
       d="M 382.68956 -97.2341 L 382.68956 -97.2341 "
       id="path4668"
       transform="translate(-4.149475e-6,698.0315)" />
    <path
       style="fill:none;stroke:#0000ff;stroke-width:1.44435227;stroke-linecap:square;stroke-linejoin:round"
       d="m 76.356161,848.11348 0,1.26619 2.870601,0 0,0.36293 2.87062,0 0,2.23287 5.741222,0.25236 0,1.93243 -2.870611,0 0,0.75231 -2.870611,0 0,0.0288 0,0 2.870611,0 0,0.63213 2.870611,0 0,0.62973 -5.741222,0.21389 0,2.05501 -5.741221,0.22352 0,0.59607 2.870601,0 0,0.99025 2.87062,0 0,0.19958 0,0 -2.87062,0 0,0.56239 -2.870601,0 0,1.78583 -2.87061,0 0,0.68499 -2.870851,0 0,1.37241 -2.87061,0 0,1.03832 -2.870611,0 0,0.58649 -2.8706,0 0,0.29322 2.8706,0 0,0.16112 0,0 -2.8706,0 0,0.96622 -2.870611,0 0,4.16285 -2.87061,0 0,2.76886 2.87061,0 0,1.12726 2.870611,0 0,0.32926 2.8706,0 0,2.60301 2.870611,0 0,0.30526 -2.870611,0 0,1.27388 2.870611,0 0,2.51409 2.87061,0 0,0.51433 2.870851,0 0,0 0,0 -8.612072,0.20438 0,0.149 2.870611,0 0,0.39659 2.87061,0 0,0.25475 0,0 -5.741221,0.0817 0,0.77632 2.870611,0 0,0.33888 2.87061,0 0,0.52158 2.870851,0 0,0.48312 -2.870851,0 0,0.67779 -2.87061,0 0,0.34851 -2.870611,0 0,0.2812 2.870611,0 0,1.34357 -2.870611,0 0,1.78821 2.870611,0 0,0.77395 2.87061,0 0,0.56963 5.741461,0.25957 0,0.43022 2.870601,0 0,0.46867 2.87062,0 0,0.48794 2.870611,0 0,1.3652 -2.870611,0 0,0.64174 5.741222,0.0104 0,2.4588 -2.870611,0 0,0.21631 0,0 2.870611,0 0,2.73764 2.8706,0 0,0.31963 -5.741211,0.23075 0,0.52877 -2.870611,0 0,0.31727 2.870611,0 0,0.40859 2.870611,0 0,0.16593 0,0 -5.741222,0.0936 2.870611,0.0311 0,1.31954 -5.741231,0.19706 0,0.14419 -2.870601,0 0,1.50942 -2.87061,0 0,1.40606 5.741211,0.0769 0,1.00227 -2.870601,0 0,0.92535 -2.87061,0 0,0.10344 0,0 2.87061,0 0,0.29082 -2.87061,0 0,1.87234 2.87061,0 0,0.92775 2.870601,0 0,0.67057 -2.870601,0 0,0.43745 2.870601,0 0,0.43745 2.87062,0 0,0.81239 5.741222,0.26438 0,0.0938 -5.741222,0.0696 0,0.21631 -2.87062,0 0,0.99266 -2.870601,0 0,0.49994 2.870601,0 0,1.24261 -2.870601,0 0,3.37694 2.870601,0 0,1.1008 -5.741211,0.22595 0,0.9662 5.741211,0.23796 0,0.36774 -2.870601,0 0,0.88449 -2.87061,0 0,1.11522 -2.870851,0 0,0.56963 2.870851,0 0,0.66818 2.87061,0 0,1.09119 5.741221,0.004 0,1.59113 -2.87062,0 0,1.34598 8.611842,0.18996 0,0.91333 -2.870611,0 0,0.36293 -2.870611,0 0,0.66578 2.870611,0 0,1.79782 2.870611,0 0,0.15381 0,0 -8.611842,0.12267 2.87062,0.0794 0,0.93255 -2.87062,0 0,0.72346 2.87062,0 0,1.20897 2.870611,0 0,0.87007 -5.741231,0.0188 0,0.24996 5.741231,0.21633 0,1.26425 -5.741231,0.25476 0,0.0961 -5.741211,0.16342 0,1.05755 2.87061,0 0,2.03816 -2.87061,0 0,0.0529 0,0 2.87061,0 0,0.67056 -2.87061,0 0,0.87248 2.87061,0 0,0.79317 2.870601,0 0,0.0577 0,0 -2.870601,0 0,0.77635 -2.87061,0 0,2.13672 2.87061,0 0,0.16342 0,0 -2.87061,0 0,0.0794 0,0 5.741211,0.23797 0,1.46133 2.87062,0 0,0.34851 -5.741221,0.004 2.870601,0.15861 0,0.19226 -2.870601,0 0,0.3389 -2.87061,0 0,0.50954 -2.870851,0 0,0.10574 0,0 5.741461,0.11787 0,1.5719 -2.87061,0 0,0.73547 2.87061,0 0,0.24998 0,0 -2.87061,0 0,0.78113 -2.870851,0 0,0.37735 2.870851,0 0,0.73307 2.87061,0 0,2.05741 2.870601,0 0,0.49513 -2.870601,0 0,0.53839 -5.741461,0.26199 0,1.06476 -2.87061,0 0,1.1705 -2.870611,0 0,1.42051"
       id="path4666"
       inkscape:connector-curvature="0" />
    <path
       style="fill:none;stroke:#0000ff;stroke-linecap:square;stroke-linejoin:round"
       d="M 325.95948 -108.73666 L 325.95948 -108.73666 "
       id="path4663"
       transform="translate(-4.149475e-6,698.0315)" />
    <path
       style="fill:none;stroke:#0000ff;stroke-width:1.44435227;stroke-linecap:square;stroke-linejoin:round"
       d="m 8.289105,848.21945 0,0.91122 -2.8706106,0 0,0.63692 -2.8706106,0 0,0.28362 2.8706106,0 0,0.28122 2.8706106,0 0,1.05755 2.87061,0 0,2.41552 2.870611,0 0,0.24757 0,0 -2.870611,0 0,0.35812 2.870611,0 0,0.79796 2.8706,0 0,0.36053 5.741221,0.0125 0,3.36254 -2.87061,0 0,5.09786 2.87061,0 0,0.3461 2.870851,0 0,1.39164 2.87061,0 0,1.34115 2.870601,0 0,2.0454 2.87061,0 0,3.2207 2.870611,0 0,1.31474 2.870611,0 0,1.95886 -2.870611,0 0,0.0481 0,0 2.870611,0 0,2.35546 -2.870611,0 0,0.77393 -2.870611,0 0,0.29083 2.870611,0 0,0.44464 2.870611,0 0,0.82201 2.8706,0 0,0.50233 2.870611,0 0,1.16089 2.87061,0 0,0.45187 -2.87061,0 0,0.6826 -2.870611,0 0,0.48792 2.870611,0 0,0.54319 2.87061,0 0,0.86527 2.870611,0 0,1.39164 -5.741221,0.12977 0,2.27853 -2.870611,0 0,0.0961 0,0 2.870611,0 0,0.0359 0,0 -2.870611,0 0,1.85071 -2.8706,0 0,0.36774 2.8706,0 0,0.002 0,0 -2.8706,0 0,0.79795 -2.870611,0 0,1.43009 -2.870611,0 0,1.57671 -2.87061,0 0,2.42996 2.87061,0 0,1.96126 -2.87061,0 0,1.14409 2.87061,0 0,0.42781 2.870611,0 0,0.53358 -2.870611,0 0,0.52637 -2.87061,0 0,0.58888 -2.870601,0 0,0.69942 2.870601,0 0,0.18035 0,0 -2.870601,0 0,0.31246 2.870601,0 0,5.10266 -2.870601,0 0,0.67299 -2.87061,0 0,5.57134 -2.870851,0 0,1.46135 2.870851,0 0,0.47828 2.87061,0 0,0.68741 -2.87061,0 0,0.0698 0,0 2.87061,0 0,0.0265 0,0 -2.87061,0 0,0.57203 -2.870851,0 0,0.38215 -5.741221,0.25238 0,1.84349 -2.8706,0 0,0.38216 -2.870611,0 0,0.58406 -2.87061,0 0,3.01882 -2.8706106,0 0,0.50233 2.8706106,0 0,0.94217 2.87061,0 0,0.73788 -8.6118312,0.17784 0,0.56004 2.8706106,0 0,2.09344 -2.8706106,0 0,1.8387 5.7412212,0.0458 0,0.25479 2.87061,0 0,0.57684 2.870611,0 0,1.31471 -2.870611,0 0,0.63213 -2.87061,0 0,0.34611 2.87061,0 0,2.25931 2.870611,0 0,0.58404 -2.870611,0 0,4.06194 2.870611,0 0,0.75953 -5.741221,0.25717 0,0.35331 -2.8706106,0 0,2.90586 2.8706106,0 0,0.49994 2.87061,0 0,0.86767 5.741211,0.0673 0,0.61769 2.870611,0 0,2.01896 -2.870611,0 0,2.36746 -2.8706,0 0,1.85552 2.8706,0 0,0.61531 -2.8706,0 0,0.78594 2.8706,0 0,0.45668 2.870611,0 0,1.00225 -5.741211,0.22114 0,1.63678 2.8706,0 0,1.12965 -2.8706,0 0,1.13927 5.741211,0.0167 0,1.64881 2.87061,0 0,0.80999 2.870851,0 0,0.7595 2.87061,0 0,0.19958 0,0 -2.87061,0 0,0.35091 -2.870851,0 0,0.10344 0,0 2.870851,0 0,1.13447 2.87061,0 0,0.19999"
       id="path4661"
       inkscape:connector-curvature="0" />
    <path
       style="fill:none;stroke:#0000ff;stroke-linecap:square;stroke-linejoin:round"
       d="M 269.28013 -88.60737 L 269.28013 -88.60737 "
       id="path4637"
       transform="translate(-4.149475e-6,698.0315)" />
    <path
       style="fill:none;stroke:#0000ff;stroke-width:1.44611728;stroke-linecap:square;stroke-linejoin:round"
       d="m 368.93814,847.59683 0,0.0692 -2.86856,0 0,1.76735 5.73712,0.0939 0,3.58534 2.8688,0 0,0.61724 2.86857,0 0,0.48223 -2.86857,0 0,0.36166 5.73711,0.0289 0,0.89935 -2.86854,0 0,0.86799 -2.86857,0 0,2.34363 2.86857,0 0,0.88246 2.86854,0 0,0.72092 -5.73711,0.22182 0,0.70646 2.86857,0 0,0.6293 -2.86857,0 0,0.28932 2.86857,0 0,0.16646 0,0 -2.86857,0 0,0.29176 2.86857,0 0,0 0,0 -5.73737,0.17357 0,3.7083 -2.86856,0 0,0.34479 11.47447,0.20733 0,0.29174 -5.73711,0.0893 0,0.41712 -2.8688,0 0,1.20556 2.8688,0 0,1.83969 -2.8688,0 0,1.91443 2.8688,0 0,0.48944 -2.8688,0 0,0.1327 0,0 5.73737,0.004 -2.86857,0.19769 0,0.57145 -2.8688,0 0,1.91199 2.8688,0 0,0.78122 2.86857,0 0,2.76797 -2.86857,0 0,0.59071 -2.8688,0 0,0.91863 -2.86856,0 0,0.45089 2.86856,0 0,1.84449 2.8688,0 0,0.5835 2.86857,0 0,0.77155 2.86854,0 0,1.93854 -2.86854,0 0,2.20134 2.86854,0 0,0.38339 2.86856,0 0,0.22664 0,0 -2.86856,0 0,0.5208 5.73713,0.0266 0,0.64378 2.86855,0 0,0.76673 2.86857,0 0,0.67752 2.86856,0 0,0.13019 0,0 -2.86856,0 0,1.30681 -2.86857,0 0,0.17841 0,0 2.86857,0 0,1.25136 -2.86857,0 0,1.79146 -2.86855,0 0,0.33514 -2.86857,0 0,0.12536 0,0 2.86857,0 0,0.66066 -2.86857,0 0,0.96202 -2.86856,0 0,0.45572 -2.86854,0 0,0.0338 0,0 2.86854,0 0,2.2809 -2.86854,0 0,0.56902 -2.86857,0 0,0.0312 0,0 2.86857,0 0,1.68294 -2.86857,0 0,1.03439 5.73711,0.0723 0,0.4364 2.86856,0 0,0.67994 2.86857,0 0,0.27726 -5.73713,0.11824 0,1.35018 -2.86854,0 0,0.20252 0,0 2.86854,0 0,2.64019 2.86856,0 0,0.24349 0,0 -2.86856,0 0,0.18323 0,0 2.86856,0 0,0.98856 2.86857,0 0,0.27244 -2.86857,0 0,1.20798 8.60569,0.15429 0,1.04881 -2.86857,0 0,0.475 2.86857,0 0,1.26826 2.86856,0 0,0.99819 -5.73713,0.0675 0,0.80774 -2.86855,0 0,2.18928 -2.86857,0 0,5.0706 2.86857,0 0,0.67268 2.86855,0 0,0.56181 2.86857,0 0,1.20074 -2.86857,0 0,0.43879 -2.86855,0 0,0.33999 -5.73713,0.12054 0,1.59618 5.73713,0.0338 -2.86857,0.23147 0,0.004 -2.86856,0 0,1.09949 2.86856,0 0,2.12175 2.86857,0 0,1.39366 -11.47424,0.23146 0,1.15732 2.86857,0 0,0.099 0,0 -2.86857,0 0,0.47015 2.86857,0 0,0.38578 2.86855,0 0,1.01028 -2.86855,0 0,2.02771 2.86855,0 0,1.91926 -5.73712,0.0843 0,0.90899 5.73712,0.18091 0,0.14947 2.86856,0 0,0.73541 -2.86856,0 0,0.2242 0,0 2.86856,0 0,0.35446 2.86857,0 0,0.0723 0,0 -2.86857,0 0,1.30685 2.86857,0 0,2.2737 -5.73713,0.135 0,0.61001 -2.86855,0 0,1.43459 5.73711,0.23871 0,0.19538 -2.86856,0 0,0.60757 2.86856,0 0,0.75949 -2.86856,0 0,0.0289 0,0 2.86856,0 0,1.32609 2.86857,0 0,0.0386 0,0 -2.86857,0 0,2.80172 2.86857,0 0,2.69565 -2.86857,0 0,0.35202 -2.86856,0 0,0.72815 2.86856,0 0,0.89935 2.86857,0 0,0.67511 -2.86857,0 0,0.51356 2.86857,0 0,0.55938 -2.86857,0 0,1.8903 2.86857,0 0,0.71824"
       id="path4635"
       inkscape:connector-curvature="0" />
    <path
       style="fill:none;stroke:#0000ff;stroke-linecap:square;stroke-linejoin:round"
       d="M 212.60361 -81.35366 L 212.60361 -81.35366 "
       id="path4631"
       transform="translate(-4.149475e-6,698.0315)" />
    <path
       style="fill:none;stroke:#0000ff;stroke-width:1.44435227;stroke-linecap:square;stroke-linejoin:round"
       d="m 123.83008,848.15916 0,4.3526 5.74146,0.13939 0,0.68979 5.74122,0.23556 0,0.43743 -2.87062,0 0,1.632 5.74124,0.10094 0,1.79061 2.87061,0 0,0.40381 -2.87061,0 0,0.52396 -2.87062,0 0,0.5456 -2.87062,0 0,0.64894 2.87062,0 0,2.19682 -2.87062,0 0,0.21871 0,0 2.87062,0 0,0.32208 -2.87062,0 0,1.13928 -2.8706,0 0,0.38696 2.8706,0 0,1.53345 -2.8706,0 0,1.69446 -2.87061,0 0,2.30257 2.87061,0 0,0.96141 2.8706,0 0,2.16556 -2.8706,0 0,0.6754 5.74122,0.25716 0,0.57686 2.87062,0 0,0.43022 2.87061,0 0,0.76914 -2.87061,0 0,2.16556 -5.74124,0.17303 0,0.22112 2.87062,0 0,2.48043 -2.87062,0 0,0.64895 2.87062,0 0,0.93737 -2.87062,0 0,0.75712 5.74124,0.2091 0,0.35091 -2.87062,0 0,0.0792 0,0 2.87062,0 0,0.38697 2.87061,0 0,0.50233 5.74121,0.18516 0,2.16318 2.87061,0 0,0.16592 0,0 -2.87061,0 0,0.65374 -2.8706,0 0,0.18265 0,0 2.8706,0 0,0.16593 0,0 -2.8706,0 0,0.0554 0,0 5.74121,0.024 -2.87061,0.12977 0,3.06448 -2.8706,0 0,0.62732 2.8706,0 0,0.9614 -5.74121,0.22112 0,1.48778 2.87061,0 0,0.43263 -2.87061,0 0,0.36773 5.74121,0.0104 -2.8706,0.0769 0,0.18745 -2.87061,0 0,0.42781 2.87061,0 0,0.19477 0,0 -2.87061,0 0,0.35332 2.87061,0 0,3.21589 -2.87061,0 0,1.11042 2.87061,0 0,0.53598 2.8706,0 0,0.87008 -2.8706,0 0,1.11044 -2.87061,0 0,0.43983 2.87061,0 0,0.40378 -2.87061,0 0,0.87729 2.87061,0 0,0.74751 -2.87061,0 0,1.6488 5.74121,0.002 0,0.65617 2.87061,0 0,1.10561 -2.87061,0 0,0.79076 -2.8706,0 0,0.0408 0,0 2.8706,0 0,0.87729 -2.8706,0 0,2.18719 -2.87061,0 0,0.45187 2.87061,0 0,1.11282 -2.87061,0 0,2.74242 -2.87061,0 0,0.87007 2.87061,0 0,0.22593 0,0 -2.87061,0 0,0.35331 2.87061,0 0,0.32688 -2.87061,0 0,0.70904 2.87061,0 0,1.89397 2.87061,0 0,0.38216 -2.87061,0 0,0.40138 2.87061,0 0,0.29083 -2.87061,0 0,0.62731 -2.87061,0 0,1.22339 -2.87062,0 0,3.46828 -2.87062,0 0,1.74014 2.87062,0 0,0.68741 5.74123,0.16823 0,0.17784 -2.87061,0 0,1.03591 -2.87062,0 0,0.0673 0,0 2.87062,0 0,0.0481 0,0 -5.74124,0.0986 0,0.74508 -5.74121,0.12267 0,0.16112 -5.74146,0.10344 0,0.51436 2.87061,0 0,4.51138 -2.87061,0 0,0.2668 0,0 2.87061,0 0,0.0888 0,0 -2.87061,0 0,0.36773 -2.87061,0 0,0.50234 -5.74121,0.10345 0,1.22098 -2.87061,0 0,0.39417 2.87061,0 0,0.67299 2.87061,0 0,0.78354 2.8706,0 0,1.0864 2.87061,0 0,0.39658 -2.87061,0 0,0.51916 -5.74121,0.0433 0,0.44946 -2.87061,0 0,1.19454 2.87061,0 0,1.66324 -2.87061,0 0,0.46389 -2.87061,0 0,1.7834 2.87061,0 0,0.58164 2.87061,0 0,0.76432 2.87061,0 0,1.30992 2.8706,0 0,0.6225 2.87061,0 0,1.02871 -2.87061,0 0,1.18494 -2.8706,0 0,0.24755 0,0 2.8706,0 0,0.73549 2.87061,0 0,1.21136 -2.87061,0 0,0.38458 2.87061,0 0,1.39644 2.87061,0 0,1.44691 2.87085,0 0,0.25717 0,0 -2.87085,0 0,1.19936 2.87085,0 0,2.28814 -2.87085,0 0,1.23301 -2.87061,0 0,0.55121"
       id="path4629"
       inkscape:connector-curvature="0" />
    <path
       style="fill:none;stroke:#0000ff;stroke-linecap:square;stroke-linejoin:round"
       d="M 155.89539 -84.229241 L 155.89539 -84.229241 "
       id="path4625"
       transform="translate(-4.149475e-6,698.0315)" />
    <path
       style="fill:none;stroke:#0000ff;stroke-width:1.44611728;stroke-linecap:square;stroke-linejoin:round"
       d="m 416.27212,847.5745 0,0.12683 2.86856,0 0,1.15732 2.86856,0 0,0.31827 -5.73712,0.0168 0,0.56178 2.86856,0 0,0.39542 2.86856,0 0,1.84452 2.86856,0 0,0.27485 -2.86856,0 0,0.0965 0,0 2.86856,0 0,2.4063 2.86857,0 0,0.21699 0,0 -2.86857,0 0,2.59196 -2.86856,0 0,0.31583 -2.86856,0 0,0.21942 0,0 11.47448,0.2387 0,0.89934 2.86857,0 0,1.33094 -2.86857,0 0,0.75468 5.73712,0.0698 0,0.68958 2.86857,0 0,0.59073 2.86855,0 0,0.69441 -2.86855,0 0,2.02532 -2.86857,0 0,0.36891 -2.86855,0 0,0.31103 -2.86857,0 0,3.50094 -2.86879,0 0,2.4738 2.86879,0 0,1.13322 2.86857,0 0,0.40991 -2.86857,0 0,0.64858 2.86857,0 0,0.40507 -2.86857,0 0,0.17128 0,0 2.86857,0 0,0.20503 0,0 -2.86857,0 0,1.15973 2.86857,0 0,4.50638 -2.86857,0 0,0.99339 -2.86879,0 0,0.29896 2.86879,0 0,2.20377 -2.86879,0 0,0.37854 -5.73713,0.0216 0,0.62448 2.86856,0 0,0.868 -2.86856,0 0,1.45149 8.60592,0.12536 0,0.24354 -5.73736,0.24352 0,0.24112 2.86857,0 0,1.7167 -2.86857,0 0,0.56421 2.86857,0 0,0.10126 0,0 -2.86857,0 0,0.81737 -2.86856,0 0,0.55938 2.86856,0 0,1.76975 2.86857,0 0,1.19834 2.86879,0 0,0.0168 0,0 -2.86879,0 0,0.70886 -2.86857,0 0,1.85175 -2.86856,0 0,2.20134 2.86856,0 0,0.69199 2.86857,0 0,2.02533 2.86879,0 0,2.04463 -2.86879,0 0,2.29056 5.73736,0.0675 0,2.97773 -2.86857,0 0,0.36649 -2.86879,0 0,0.041 0,0 2.86879,0 0,2.55578 2.86857,0 0,0.70645 -2.86857,0 0,0.69923 -2.86879,0 0,0.29175 -2.86857,0 0,0.98613 2.86857,0 0,1.84452 -2.86857,0 0,0.8415 5.73736,0.10126 0,1.72395 2.86857,0 0,1.11395 -2.86857,0 0,1.3213 2.86857,0 0,0.76431 2.86855,0 0,0.13501 0,0 -2.86855,0 0,2.0639 -2.86857,0 0,2.12178 2.86857,0 0,4.09166 -2.86857,0 0,1.33818 -2.86879,0 0,0.33999 -2.86857,0 0,0.32789 2.86857,0 0,1.04881 2.86879,0 0,1.55036 -2.86879,0 0,0.16876 0,0 2.86879,0 0,0.91378 -5.73736,0.0434 0,1.35506 -2.86856,0 0,0.41713 -2.86856,0 0,1.12356 -2.86856,0 0,2.21823 2.86856,0 0,0.22663 0,0 -2.86856,0 0,0.62691 -2.86856,0 0,0.1784 0,0 2.86856,0 0,0.68715 -2.86856,0 0,0.43644 -2.86856,0 0,0.3689 2.86856,0 0,0.48703 2.86856,0 0,0.73056 -2.86856,0 0,0.84633 2.86856,0 0,1.48524 -2.86856,0 0,2.18929 -5.73711,0.0723 0,0.38577 2.86855,0 0,0.59797 -2.86855,0 0,0.43882 -2.86857,0 0,1.46112 5.73712,0.0868 0,0.23387 2.86856,0 0,2.5341 2.86856,0 0,0.68958 -2.86856,0 0,0.15429 0,0 2.86856,0 0,1.3213 -2.86856,0 0,0.87764 -2.86856,0 0,0.44851 5.73712,0.004 0,2.01327 5.73712,0.22664 0,0.19286 2.86856,0 0,0.53768 -2.86856,0 0,1.03197 8.60592,0.2002 0,1.56 -2.86879,0 0,0.4631"
       id="path4623"
       inkscape:connector-curvature="0" />
    <path
       style="fill:none;stroke:#0000ff;stroke-linecap:square;stroke-linejoin:round"
       d="M 99.208164 -72.72693 L 99.208164 -72.72693 "
       id="path4619"
       transform="translate(-4.149475e-6,698.0315)" />
    <path
       style="fill:none;stroke:#0000ff;stroke-width:1.44611728;stroke-linecap:square;stroke-linejoin:round"
       d="m 341.31383,847.60503 0,0.46183 -2.86856,0 0,1.58168 -2.86856,0 0,0.90176 2.86856,0 0,0.8222 2.86856,0 0,0.0964 0,0 -5.73712,0.0627 0,0.35202 -2.86857,0 0,4.24356 2.86857,0 0,0.24352 0,0 -2.86857,0 0,0.98375 -2.86854,0 0,0.66787 2.86854,0 0,1.08983 -2.86854,0 0,1.03196 5.73711,0.25315 0,1.68298 -5.73711,0.12787 0,0.19056 2.86854,0 0,1.55276 -2.86854,0 0,0.55938 -2.86857,0 0,0.44363 -2.8688,0 0,2.73421 -5.73712,0.0916 0,0.35443 2.86857,0 0,1.75047 2.86855,0 0,1.24172 -2.86855,0 0,0.28932 -2.86857,0 0,0.0264 0,0 2.86857,0 0,0.23872 0,0 -2.86857,0 0,0.92827 2.86857,0 0,0.099 0,0 -2.86857,0 0,2.87163 -2.86855,0 0,1.98196 2.86855,0 0,0.76914 2.86857,0 0,0.46534 -2.86857,0 0,0.81496 5.73712,0.0312 0,0.47981 -2.86855,0 0,0.30381 -2.86857,0 0,0.61724 2.86857,0 0,2.45211 -2.86857,0 0,0.58107 2.86857,0 0,0.79085 -2.86857,0 0,1.16215 2.86857,0 0,0.42437 -2.86857,0 0,1.31645 2.86857,0 0,0.1761 0,0 -2.86857,0 0,0.81737 2.86857,0 0,1.71431 -2.86857,0 0,0.24834 0,0 2.86857,0 0,0.67753 5.73735,0.008 0,0.31827 5.73711,0.23387 0,0.41714 -2.86854,0 0,0.61241 -2.86857,0 0,0.59554 -2.8688,0 0,2.49311 -2.86855,0 0,4.26766 2.86855,0 0,1.61786 2.8688,0 0,0.27488 -5.73735,0.14465 0,1.69499 -2.86857,0 0,3.18508 -2.86855,0 0,1.30684 2.86855,0 0,0.90176 -2.86855,0 0,0.48705 -5.73712,0.21218 0,0.0845 -2.86857,0 0,0.56661 2.86857,0 0,2.12901 -2.86857,0 0,5.25142 -2.86854,0 0,0.96203 -2.86857,0 0,4.25563 -2.86856,0 0,0.0266 0,0 2.86856,0 0,5.17666 -2.86856,0 0,0.63413 2.86856,0 0,1.78663 -2.86856,0 0,0.27727 2.86856,0 0,1.05847 2.86857,0 0,0.28212 -2.86857,0 0,1.36711 5.73711,0.0385 0,3.49129 -5.73711,0.1086 0,1.57446 -2.86856,0 0,0.4581 5.73713,0.24835 0,3.81196 -2.86857,0 0,1.09464 -2.86856,0 0,0.89214 -2.86856,0 0,0.17127 0,0 2.86856,0 0,4.20015 -2.86856,0 0,1.96266 2.86856,0 0,0.18574 0,0 -2.86856,0 0,0.83905 2.86856,0 0,0.59315 2.86856,0 0,0.6944 2.86857,0 0,0.64134 2.86854,0 0,3.72276 -2.86854,0 0,0.75952 2.86854,0 0,0.3906 -2.86854,0 0,0.50633 2.86854,0 0,0.54492 -2.86854,0 0,1.2393 2.86854,0 0,0.4123 -2.86854,0 0,1.25861 2.86854,0 0,1.13564 5.73713,0.19768 0,1.20418"
       id="path4617"
       inkscape:connector-curvature="0" />
    <path
       style="fill:none;stroke:#0000ff;stroke-linecap:square;stroke-linejoin:round"
       d="M 42.53628 -101.48295 L 42.53628 -101.48295 "
       id="path4613"
       transform="translate(-4.149475e-6,698.0315)" />
    <path
       style="fill:none;stroke:#0000ff;stroke-width:1.44611728;stroke-linecap:square;stroke-linejoin:round"
       d="m 276.97402,847.48434 0,0.17043 0,0 -2.86857,0 0,0.0125 0,0 2.86857,0 0,0.48946 -2.86857,0 0,2.30262 -2.86855,0 0,1.76012 -2.86857,0 0,0.37854 2.86857,0 0,0.6052 -2.86857,0 0,0.0893 0,0 5.73712,0.13019 0,0.22905 -2.86855,0 0,1.33818 -2.86857,0 0,0.4774 5.73712,0.1327 0,2.26161 2.86857,0 0,0.83184 2.86855,0 0,0.16163 0,0 -2.86855,0 0,1.94095 2.86855,0 0,0.6703 -2.86855,0 0,0.81978 -2.86857,0 0,0.46292 2.86857,0 0,1.78663 2.86855,0 0,2.54374 2.86856,0 0,0.63411 -2.86856,0 0,0.56904 -2.86855,0 0,0.47979 2.86855,0 0,1.2345 -2.86855,0 0,0.26523 0,0 2.86855,0 0,0.56902 -2.86855,0 0,1.59857 -2.86857,0 0,0.49428 -2.86855,0 0,2.60642 2.86855,0 0,1.23208 -2.86855,0 0,0.59071 -2.86857,0 0,0 0,0 2.86857,0 0,2.1483 2.86855,0 0,0.0771 0,0 -5.73712,0.24593 0,1.00062 -2.86856,0 0,0.83665 -2.86856,0 0,1.73117 -2.86855,0 0,2.57267 2.86855,0 0,0.16645 0,0 -2.86855,0 0,0.3255 5.73711,0.20251 0,2.50274 2.86856,0 0,1.83969 2.86857,0 0,0.0459 0,0 -2.86857,0 0,3.1224 2.86857,0 0,0.29414 -2.86857,0 0,0.24836 0,0 2.86857,0 0,1.28993 2.86855,0 0,0.31587 2.86857,0 0,0.27727 -2.86857,0 0,1.53588 -2.86855,0 0,0.16876 0,0 2.86855,0 0,0.36166 -2.86855,0 0,0.3014 2.86855,0 0,1.06089 8.60568,0.19769 0,0.13018 -2.86856,0 0,0.37373 -2.86855,0 0,0.61966 -2.86857,0 0,0.393 2.86857,0 0,0.43399 -2.86857,0 0,1.66851 -2.86855,0 0,2.0422 -2.86857,0 0,0.91624 2.86857,0 0,0.64135 5.73712,0.13983 0,3.10551 2.86855,0 0,0.57626 2.86856,0 0,1.126 2.86856,0 0,0.64375 -2.86856,0 0,1.66128 -2.86856,0 0,0.0312 0,0 5.73712,0.0771 0,0.20252 -2.86856,0 0,0.63893 2.86856,0 0,0.14235 0,0 -2.86856,0 0,0.27005 5.73736,0.22664 0,0.59074 2.86856,0 0,0.0147 0,0 -2.86856,0 0,0.34719 2.86856,0 0,0.56179 -2.86856,0 0,1.89756 -5.73736,0.099 0,1.09224 -2.86856,0 0,0.0482 0,0 2.86856,0 0,0.53044 2.86856,0 0,1.24897 -2.86856,0 0,1.35505 2.86856,0 0,0.3496 2.8688,0 0,1.28031 2.86856,0 0,0.38336 -2.86856,0 0,1.12116 -2.8688,0 0,0.23148 0,0 2.8688,0 0,0.15198 0,0 -5.73736,0.15681 0,0.6703 -2.86856,0 0,1.51657 -2.86855,0 0,0.41233 -2.86857,0 0,0.31101 -2.86855,0 0,2.0808 -5.73713,0.0867 0,0.5859 8.60568,0.25559 0,0.1327 2.86857,0 0,0.98373 -2.86857,0 0,0.60279 2.86857,0 0,0.45327 2.86855,0 0,0.91383 2.86856,0 0,0.0411 0,0 -2.86856,0 0,1.66366 2.86856,0 0,0.82943 -2.86856,0 0,1.79145 2.86856,0 0,0.99339 -2.86856,0 0,2.97531 -5.73712,0.0797 0,0.24593 -2.86855,0 0,0.34237 -2.86857,0 0,0.4123 2.86857,0 0,0.43642 -2.86857,0 0,2.37976 -2.86856,0 0,1.40086 2.86856,0 0,0.87283 -2.86856,0 0,0.40024 2.86856,0 0,0.43159 -2.86856,0 0,0.73539 -2.86856,0 0,0.0338 0,0 2.86856,0 0,0.90175 -2.86856,0 0,3.25261 2.86856,0 0,0.0867 0,0 -2.86856,0 0,1.32611 2.86856,0 0,0.34237 -2.86856,0 0,0.18323 0,0 2.86856,0 0,1.03436 2.86856,0 0,0.48464 -2.86856,0 0,1.01266 2.86856,0 0,1.28031 -2.86856,0 0,0.0168 0,0 2.86856,0 0,1.47078 -2.86856,0 0,0.28934 2.86856,0 0,0.44604 8.60569,0.21458 0,0.59315 -2.86857,0 0,0.24351 0,0 2.86857,0 0,0.1543 0,0 -2.86857,0 0,0.26391"
       id="path4611"
       inkscape:connector-curvature="0" />
    <path
       style="fill:none;stroke:#0000ff;stroke-width:1.44435227;stroke-linecap:square;stroke-linejoin:round"
       d="m 166.15449,850.52829 0,1.4304 2.87061,0 0,0.4134 5.74121,0.11055 0,1.31714 2.87061,0 0,0.99263 -2.87061,0 0,1.50942 -2.8706,0 0,0.85565 2.8706,0 0,0.16113 0,0 -5.74121,0.0938 0,2.15835 2.87061,0 0,1.44691 -2.87061,0 0,2.1824 2.87061,0 0,1.58632 -2.87061,0 0,0.78354 2.87061,0 0,0.0721 0,0 -2.87061,0 0,2.11509 -2.87061,0 0,0.29564 -2.87085,0 0,4.21576 2.87085,0 0,1.49017 -2.87085,0 0,0.13939 0,0 2.87085,0 0,0.5456 -2.87085,0 0,0.89653 5.74146,0.18996 0,1.39644 2.87061,0 0,1.46614 -2.87061,0 0,0.0188 0,0 2.87061,0 0,0.33649 -2.87061,0 0,1.05274 2.87061,0 0,1.31712 2.8706,0 0,0.63694 5.74122,0.17783 0,0.87488 2.87061,0 0,0.72586 -5.74122,0.23316 0,1.13685 2.87061,0 0,2.24489 2.87061,0 0,0.61048 2.8706,0 0,3.51875 2.87061,0 0,1.40125 -2.87061,0 0,2.89625 2.87061,0 0,2.66789 -2.87061,0 0,0.55762 -5.74121,0.0842 0,2.42756 -2.87061,0 0,1.32194 2.87061,0 0,1.58152 -2.87061,0 0,0.24515 0,0 2.87061,0 0,1.56469 -2.87061,0 0,0.10574 0,0 2.87061,0 0,0.0577 0,0 -2.87061,0 0,0.27641 -2.87061,0 0,1.34115 2.87061,0 0,2.55254 -2.87061,0 0,1.59834 2.87061,0 0,0.41099 2.87061,0 0,0.0673 0,0 -2.87061,0 0,0.29804 2.87061,0 0,2.61263 2.87061,0 0,1.2354 2.8706,0 0,0.11055 0,0 -5.74121,0.0746 0,0.3461 -2.87061,0 0,0.17304 0,0 2.87061,0 0,0.80997 2.87061,0 0,0.60089 -2.87061,0 0,1.74495 2.87061,0 0,0.1442 0,0 -2.87061,0 0,0.10093 0,0 2.87061,0 0,4.7133 -5.74122,0.10094 0,0.24515 2.87061,0 0,0.10093 0,0 -2.87061,0 0,0.91574 -2.87061,0 0,0.45667 -2.8706,0 0,1.18014 2.8706,0 0,0.27158 2.87061,0 0,0.98545 -2.87061,0 0,0.5504 -2.8706,0 0,1.19936 -2.87061,0 0,0.93016 -2.87061,0 0,1.05274 2.87061,0 0,0.37494 2.87061,0 0,0.85566 -5.74122,0.0504 0,0.64655 2.87061,0 0,1.79302 -5.74146,0.17303 0,1.1537 -2.87061,0 0,0.0384 0,0 2.87061,0 0,1.05274 -5.74121,0.17074 0,0.67779 2.8706,0 0,0.37014 -2.8706,0 0,1.08638 -2.87061,0 0,2.13673 -2.87061,0 0,0.11786 0,0 2.87061,0 0,1.52864 2.87061,0 0,1.30991 2.8706,0 0,0.90612 -2.8706,0 0,1.5743 2.8706,0 0,1.05274 -2.8706,0 0,0.46389 -2.87061,0 0,0.37975 2.87061,0 0,0.32929 -2.87061,0 0,0.91092 2.87061,0 0,0.17784 0,0 -2.87061,0 0,0.62252 2.87061,0 0,1.74496 -5.74122,0.0842 0,1.73775 -2.87061,0 0,1.13685 -5.74122,0.24035 0,0.45427 2.87061,0 0,0.46388 -2.87061,0 0,1.76418 2.87061,0 0,1.70889 -2.87061,0 0,0.97343 2.87061,0 0,0.28603 -2.87061,0 0,3.00679 -2.87061,0 0,0.29082 5.74122,0.0648 0,1.66025"
       id="path4677"
       inkscape:connector-curvature="0" />
    <path
       style="fill:none;stroke:#000000;stroke-width:0.9992126;stroke-linecap:butt;stroke-linejoin:miter;stroke-opacity:1;stroke-miterlimit:4;stroke-dasharray:none;marker-start:url(#Arrow1Mstart);marker-end:url(#Arrow1Mend)"
       d="m 248.0315,14.173219 0,255.118111 191.33858,0"
       id="path4681"
       inkscape:connector-curvature="0"
       transform="translate(-4.149475e-6,698.0315)" />
    <path
       style="fill:none;stroke:#000000;stroke-width:1px;stroke-linecap:butt;stroke-linejoin:miter;stroke-opacity:1"
       d="m 318.89764,269.29133 0,-232.289469"
       id="path5501"
       inkscape:connector-curvature="0"
       transform="translate(-4.149475e-6,698.0315)" />
    <path
       style="fill:none;stroke:#000000;stroke-width:1px;stroke-linecap:butt;stroke-linejoin:miter;stroke-opacity:1"
       d="m 389.76378,269.29133 0,-232.289469 0,0 0,0"
       id="path5503"
       inkscape:connector-curvature="0"
       transform="translate(-4.149475e-6,698.0315)" />
    <path
       style="fill:none;stroke:#000000;stroke-width:1px;stroke-linecap:butt;stroke-linejoin:miter;stroke-opacity:1"
       d="m 248.0315,148.81889 191.33858,0"
       id="path5505"
       inkscape:connector-curvature="0"
       transform="translate(-4.149475e-6,698.0315)" />
    <text
       xml:space="preserve"
       style="font-size:40px;font-style:normal;font-weight:normal;line-height:125%;letter-spacing:0px;word-spacing:0px;fill:#000000;fill-opacity:1;stroke:none;font-family:Sans"
       x="212.59842"
       y="861.02362"
       id="text5540"
       sodipodi:linespacing="125%"><tspan
         sodipodi:role="line"
         id="tspan5542"
         x="212.59842"
         y="861.02362">$t_s$</tspan></text>
    <text
       xml:space="preserve"
       style="font-size:40px;font-style:normal;font-weight:normal;line-height:125%;letter-spacing:0px;word-spacing:0px;fill:#000000;fill-opacity:1;stroke:none;font-family:Sans"
       x="212.59842"
       y="712.20471"
       id="text5544"
       sodipodi:linespacing="125%"><tspan
         sodipodi:role="line"
         id="tspan5546"
         x="212.59842"
         y="712.20471">$t$</tspan></text>
    <text
       xml:space="preserve"
       style="font-size:40px;font-style:normal;font-weight:normal;line-height:125%;letter-spacing:0px;word-spacing:0px;fill:#000000;fill-opacity:1;stroke:none;font-family:Sans"
       x="425.19684"
       y="988.58264"
       id="text5548"
       sodipodi:linespacing="125%"><tspan
         sodipodi:role="line"
         id="tspan5550"
         x="425.19684"
         y="988.58264">$x$</tspan></text>
  </g>
</svg>
