<?xml version="1.0" encoding="UTF-8" standalone="no"?>
<!-- Created with Inkscape (http://www.inkscape.org/) -->

<svg
   xmlns:dc="http://purl.org/dc/elements/1.1/"
   xmlns:cc="http://creativecommons.org/ns#"
   xmlns:rdf="http://www.w3.org/1999/02/22-rdf-syntax-ns#"
   xmlns:svg="http://www.w3.org/2000/svg"
   xmlns="http://www.w3.org/2000/svg"
   xmlns:sodipodi="http://sodipodi.sourceforge.net/DTD/sodipodi-0.dtd"
   xmlns:inkscape="http://www.inkscape.org/namespaces/inkscape"
   width="453.5433"
   height="340.15747"
   id="svg2"
   sodipodi:version="0.32"
   inkscape:version="0.48.4 r9939"
   sodipodi:docname="wessa-seq00.svg"
   version="1.0">
  <defs
     id="defs4">
    <marker
       inkscape:stockid="Arrow1Mstart"
       orient="auto"
       refY="0"
       refX="0"
       id="Arrow1Mstart"
       style="overflow:visible">
      <path
         inkscape:connector-curvature="0"
         id="path4693"
         d="M 0,0 5,-5 -12.5,0 5,5 0,0 z"
         style="fill-rule:evenodd;stroke:#000000;stroke-width:1pt"
         transform="matrix(0.4,0,0,0.4,4,0)" />
    </marker>
    <marker
       inkscape:stockid="Arrow1Mend"
       orient="auto"
       refY="0"
       refX="0"
       id="Arrow1Mend"
       style="overflow:visible">
      <path
         inkscape:connector-curvature="0"
         id="path4696"
         d="M 0,0 5,-5 -12.5,0 5,5 0,0 z"
         style="fill-rule:evenodd;stroke:#000000;stroke-width:1pt"
         transform="matrix(-0.4,0,0,-0.4,-4,0)" />
    </marker>
    <marker
       inkscape:stockid="Arrow1Mstart"
       orient="auto"
       refY="0"
       refX="0"
       id="Arrow1Mstart-0"
       style="overflow:visible">
      <path
         inkscape:connector-curvature="0"
         id="path4693-3"
         d="M 0,0 5,-5 -12.5,0 5,5 0,0 z"
         style="fill-rule:evenodd;stroke:#000000;stroke-width:1pt"
         transform="matrix(0.4,0,0,0.4,4,0)" />
    </marker>
    <marker
       inkscape:stockid="Arrow1Mend"
       orient="auto"
       refY="0"
       refX="0"
       id="Arrow1Mend-4"
       style="overflow:visible">
      <path
         inkscape:connector-curvature="0"
         id="path4696-4"
         d="M 0,0 5,-5 -12.5,0 5,5 0,0 z"
         style="fill-rule:evenodd;stroke:#000000;stroke-width:1pt"
         transform="matrix(-0.4,0,0,-0.4,-4,0)" />
    </marker>
  </defs>
  <sodipodi:namedview
     id="base"
     pagecolor="#ffffff"
     bordercolor="#666666"
     borderopacity="1.0"
     inkscape:pageopacity="0.0"
     inkscape:pageshadow="2"
     inkscape:zoom="1.540463"
     inkscape:cx="114.46775"
     inkscape:cy="170.07874"
     inkscape:document-units="mm"
     inkscape:current-layer="layer1"
     inkscape:window-width="1916"
     inkscape:window-height="1041"
     inkscape:window-x="0"
     inkscape:window-y="18"
     width="12.8cm"
     height="9.6cm"
     units="cm"
     showgrid="true"
     grid_units="mm"
     inkscape:object-paths="false"
     inkscape:grid-points="true"
     inkscape:grid-bbox="true"
     inkscape:guide-points="true"
     showguides="true"
     inkscape:guide-bbox="true"
     inkscape:window-maximized="0">
    <sodipodi:guide
       orientation="vertical"
       position="56.476527"
       id="guide3573" />
    <sodipodi:guide
       orientation="horizontal"
       position="11.035643"
       id="guide3579" />
    <sodipodi:guide
       orientation="horizontal"
       position="24.018753"
       id="guide3886" />
    <sodipodi:guide
       orientation="horizontal"
       position="285.62841"
       id="guide3988" />
    <sodipodi:guide
       orientation="horizontal"
       position="303.15561"
       id="guide4081" />
    <inkscape:grid
       id="GridFromPre046Settings"
       type="xygrid"
       originx="0px"
       originy="0px"
       spacingx="2mm"
       spacingy="2mm"
       color="#3f3fff"
       empcolor="#3f3fff"
       opacity="0.15"
       empopacity="0.38"
       empspacing="5" />
  </sodipodi:namedview>
  <metadata
     id="metadata7">
    <rdf:RDF>
      <cc:Work
         rdf:about="">
        <dc:format>image/svg+xml</dc:format>
        <dc:type
           rdf:resource="http://purl.org/dc/dcmitype/StillImage" />
        <dc:title></dc:title>
      </cc:Work>
    </rdf:RDF>
  </metadata>
  <g
     inkscape:label="Layer 1"
     inkscape:groupmode="layer"
     id="layer1"
     transform="translate(4.149475e-6,-698.0315)">
    <path
       style="fill:none;stroke:none;stroke-width:0.91185552000000003;stroke-linecap:square;stroke-linejoin:round"
       d="m 256.22143,826.52663 0,0.0721 2.00485,0 0,0.65839 2.00485,0 0,0.18106 -4.0097,0.01 0,0.31959 2.00485,0 0,0.22495 2.00485,0 0,1.04932 2.00484,0 0,0.15636 -2.00484,0 0,0.0549 0,0 2.00484,0 0,1.36891 2.00485,0 0,0.12345 0,0 -2.00485,0 0,1.4745 -2.00484,0 0,0.1797 -2.00485,0 0,0.1248 0,0 8.01955,0.1358 0,0.5117 2.00486,0 0,0.7571 -2.00486,0 0,0.4293 4.0097,0.04 0,0.3923 2.00486,0 0,0.3361 2.00484,0 0,0.395 -2.00484,0 0,1.1522 -2.00486,0 0,0.2099 -2.00484,0 0,0.1769 -2.00486,0 0,1.9917 -2.00501,0 0,1.4073 2.00501,0 0,0.6447 2.00486,0 0,0.2332 -2.00486,0 0,0.3689 2.00486,0 0,0.2305 -2.00486,0 0,0.097 0,0 2.00486,0 0,0.1166 0,0 -2.00486,0 0,0.6598 2.00486,0 0,2.5636 -2.00486,0 0,0.5651 -2.00501,0 0,0.1701 2.00501,0 0,1.2537 -2.00501,0 0,0.2153 -4.00969,0.012 0,0.3553 2.00484,0 0,0.4938 -2.00484,0 0,0.8257 6.0147,0.071 0,0.1386 -4.00986,0.1385 0,0.1372 2.00485,0 0,0.9766 -2.00485,0 0,0.321 2.00485,0 0,0.058 0,0 -2.00485,0 0,0.465 -2.00484,0 0,0.3182 2.00484,0 0,1.0068 2.00485,0 0,0.6817 2.00501,0 0,0.01 0,0 -2.00501,0 0,0.4033 -2.00485,0 0,1.0534 -2.00484,0 0,1.2523 2.00484,0 0,0.3937 2.00485,0 0,1.1522 2.00501,0 0,1.1631 -2.00501,0 0,1.3031 4.00987,0.038 0,1.694 -2.00486,0 0,0.2085 -2.00501,0 0,0.023 0,0 2.00501,0 0,1.454 2.00486,0 0,0.4018 -2.00486,0 0,0.3978 -2.00501,0 0,0.166 -2.00485,0 0,0.561 2.00485,0 0,1.0493 -2.00485,0 0,0.4788 4.00986,0.058 0,0.9807 2.00486,0 0,0.6337 -2.00486,0 0,0.7517 2.00486,0 0,0.4348 2.00484,0 0,0.077 0,0 -2.00484,0 0,1.1741 -2.00486,0 0,1.2071 2.00486,0 0,2.3277 -2.00486,0 0,0.7612 -2.00501,0 0,0.1935 -2.00485,0 0,0.1865 2.00485,0 0,0.5967 2.00501,0 0,0.8819 -2.00501,0 0,0.096 0,0 2.00501,0 0,0.5199 -4.00986,0.025 0,0.7708 -2.00484,0 0,0.2373 -2.00485,0 0,0.6392 -2.00485,0 0,1.262 2.00485,0 0,0.1289 0,0 -2.00485,0 0,0.3566 -2.00485,0 0,0.1015 0,0 2.00485,0 0,0.3909 -2.00485,0 0,0.2483 -2.00485,0 0,0.2099 2.00485,0 0,0.277 2.00485,0 0,0.4156 -2.00485,0 0,0.4815 2.00485,0 0,0.8449 -2.00485,0 0,1.2455 -4.00969,0.041 0,0.2195 2.00484,0 0,0.3402 -2.00484,0 0,0.2496 -2.00485,0 0,0.8312 4.00969,0.049 0,0.1331 2.00485,0 0,1.4416 2.00485,0 0,0.3923 -2.00485,0 0,0.088 0,0 2.00485,0 0,0.7516 -2.00485,0 0,0.4993 -2.00485,0 0,0.2552 4.0097,0 0,1.1453 4.0097,0.1289 0,0.1098 2.00484,0 0,0.3058 -2.00484,0 0,0.5871 6.0147,0.1139 0,0.8875 -2.00501,0 0,0.2634"
       id="path4623"
       inkscape:connector-curvature="0" />
    <path
       style="fill:none;stroke:#000000;stroke-width:0.63005781;stroke-linecap:butt;stroke-linejoin:miter;stroke-miterlimit:4;stroke-opacity:1;stroke-dasharray:none;marker-start:url(#Arrow1Mstart);marker-end:url(#Arrow1Mend)"
       d="m 138.63737,749.51627 0,145.13389 133.72732,0"
       id="path4681"
       inkscape:connector-curvature="0" />
    <path
       style="fill:none;stroke:#000000;stroke-width:0.63070863;stroke-linecap:butt;stroke-linejoin:miter;stroke-miterlimit:4;stroke-opacity:1;stroke-dasharray:none"
       d="m 188.166,894.65016 0,-132.14693"
       id="path5501"
       inkscape:connector-curvature="0" />
    <path
       style="fill:none;stroke:#000000;stroke-width:0.63055432px;stroke-linecap:butt;stroke-linejoin:miter;stroke-opacity:1"
       d="m 237.69464,894.65016 0,-132.14693 0,0 0,0"
       id="path5503"
       inkscape:connector-curvature="0" />
    <path
       style="fill:none;stroke:#000000;stroke-width:0.63055432px;stroke-linecap:butt;stroke-linejoin:miter;stroke-opacity:1"
       d="m 138.63737,826.11469 133.72732,0"
       id="path5505"
       inkscape:connector-curvature="0" />
    <text
       xml:space="preserve"
       style="font-size:8.29878998px;font-style:normal;font-variant:normal;font-weight:normal;font-stretch:normal;text-align:start;line-height:125%;letter-spacing:0px;word-spacing:0px;writing-mode:lr-tb;text-anchor:start;fill:#000000;fill-opacity:1;stroke:none;font-family:Sans;-inkscape-font-specification:Sans"
       x="184.44962"
       y="570.9502"
       id="text5540"
       sodipodi:linespacing="125%"
       transform="scale(0.69156584,1.4459939)"><tspan
         sodipodi:role="line"
         id="tspan5542"
         x="184.44962"
         y="570.9502">$t_s$</tspan></text>
    <text
       xml:space="preserve"
       style="font-size:12px;font-style:normal;font-variant:normal;font-weight:normal;font-stretch:normal;text-align:start;line-height:125%;letter-spacing:0px;word-spacing:0px;writing-mode:lr-tb;text-anchor:start;fill:#000000;fill-opacity:1;stroke:none;font-family:Sans;-inkscape-font-specification:Sans"
       x="120.12598"
       y="770.55121"
       id="text5544"
       sodipodi:linespacing="125%"><tspan
         sodipodi:role="line"
         id="tspan5546"
         x="120.12598"
         y="770.55121">$t$</tspan></text>
    <text
       xml:space="preserve"
       style="font-size:12px;font-style:normal;font-variant:normal;font-weight:normal;font-stretch:normal;text-align:start;line-height:125%;letter-spacing:0px;word-spacing:0px;writing-mode:lr-tb;text-anchor:start;fill:#000000;fill-opacity:1;stroke:none;font-family:Sans;-inkscape-font-specification:Sans"
       x="255.1181"
       y="908.63"
       id="text5548"
       sodipodi:linespacing="125%"><tspan
         sodipodi:role="line"
         id="tspan5550"
         x="255.1181"
         y="908.63">$x$</tspan></text>
  </g>
</svg>
