<?xml version="1.0" encoding="UTF-8" standalone="no"?>
<!-- Created with Inkscape (http://www.inkscape.org/) -->

<svg
   xmlns:dc="http://purl.org/dc/elements/1.1/"
   xmlns:cc="http://creativecommons.org/ns#"
   xmlns:rdf="http://www.w3.org/1999/02/22-rdf-syntax-ns#"
   xmlns:svg="http://www.w3.org/2000/svg"
   xmlns="http://www.w3.org/2000/svg"
   xmlns:sodipodi="http://sodipodi.sourceforge.net/DTD/sodipodi-0.dtd"
   xmlns:inkscape="http://www.inkscape.org/namespaces/inkscape"
   width="453.5433"
   height="340.15747"
   id="svg2"
   sodipodi:version="0.32"
   inkscape:version="0.48.4 r9939"
   sodipodi:docname="New document 16"
   version="1.0">
  <defs
     id="defs4">
    <marker
       inkscape:stockid="Arrow1Mstart"
       orient="auto"
       refY="0"
       refX="0"
       id="Arrow1Mstart"
       style="overflow:visible">
      <path
         inkscape:connector-curvature="0"
         id="path4693"
         d="M 0,0 5,-5 -12.5,0 5,5 0,0 z"
         style="fill-rule:evenodd;stroke:#000000;stroke-width:1pt"
         transform="matrix(0.4,0,0,0.4,4,0)" />
    </marker>
    <marker
       inkscape:stockid="Arrow1Mend"
       orient="auto"
       refY="0"
       refX="0"
       id="Arrow1Mend"
       style="overflow:visible">
      <path
         inkscape:connector-curvature="0"
         id="path4696"
         d="M 0,0 5,-5 -12.5,0 5,5 0,0 z"
         style="fill-rule:evenodd;stroke:#000000;stroke-width:1pt"
         transform="matrix(-0.4,0,0,-0.4,-4,0)" />
    </marker>
    <marker
       inkscape:stockid="Arrow1Mstart"
       orient="auto"
       refY="0"
       refX="0"
       id="Arrow1Mstart-3"
       style="overflow:visible">
      <path
         inkscape:connector-curvature="0"
         id="path4693-6"
         d="M 0,0 5,-5 -12.5,0 5,5 0,0 z"
         style="fill-rule:evenodd;stroke:#000000;stroke-width:1pt"
         transform="matrix(0.4,0,0,0.4,4,0)" />
    </marker>
    <marker
       inkscape:stockid="Arrow1Mend"
       orient="auto"
       refY="0"
       refX="0"
       id="Arrow1Mend-4"
       style="overflow:visible">
      <path
         inkscape:connector-curvature="0"
         id="path4696-6"
         d="M 0,0 5,-5 -12.5,0 5,5 0,0 z"
         style="fill-rule:evenodd;stroke:#000000;stroke-width:1pt"
         transform="matrix(-0.4,0,0,-0.4,-4,0)" />
    </marker>
    <marker
       inkscape:stockid="Arrow1Mstart"
       orient="auto"
       refY="0"
       refX="0"
       id="Arrow1Mstart-2"
       style="overflow:visible">
      <path
         inkscape:connector-curvature="0"
         id="path4693-2"
         d="M 0,0 5,-5 -12.5,0 5,5 0,0 z"
         style="fill-rule:evenodd;stroke:#000000;stroke-width:1pt"
         transform="matrix(0.4,0,0,0.4,4,0)" />
    </marker>
    <marker
       inkscape:stockid="Arrow1Mend"
       orient="auto"
       refY="0"
       refX="0"
       id="Arrow1Mend-6"
       style="overflow:visible">
      <path
         inkscape:connector-curvature="0"
         id="path4696-4"
         d="M 0,0 5,-5 -12.5,0 5,5 0,0 z"
         style="fill-rule:evenodd;stroke:#000000;stroke-width:1pt"
         transform="matrix(-0.4,0,0,-0.4,-4,0)" />
    </marker>
  </defs>
  <sodipodi:namedview
     id="base"
     pagecolor="#ffffff"
     bordercolor="#666666"
     borderopacity="1.0"
     inkscape:pageopacity="0.0"
     inkscape:pageshadow="2"
     inkscape:zoom="1.540463"
     inkscape:cx="226.77165"
     inkscape:cy="222.01118"
     inkscape:document-units="mm"
     inkscape:current-layer="layer1"
     inkscape:window-width="1916"
     inkscape:window-height="1041"
     inkscape:window-x="0"
     inkscape:window-y="18"
     width="12.8cm"
     height="9.6cm"
     units="cm"
     showgrid="true"
     grid_units="mm"
     inkscape:object-paths="false"
     inkscape:grid-points="true"
     inkscape:grid-bbox="true"
     inkscape:guide-points="true"
     showguides="true"
     inkscape:guide-bbox="true"
     inkscape:window-maximized="0"
     inkscape:snap-global="false">
    <sodipodi:guide
       orientation="vertical"
       position="56.476527"
       id="guide3573" />
    <sodipodi:guide
       orientation="horizontal"
       position="11.035643"
       id="guide3579" />
    <sodipodi:guide
       orientation="horizontal"
       position="24.018753"
       id="guide3886" />
    <sodipodi:guide
       orientation="horizontal"
       position="285.62841"
       id="guide3988" />
    <sodipodi:guide
       orientation="horizontal"
       position="303.15561"
       id="guide4081" />
    <inkscape:grid
       id="GridFromPre046Settings"
       type="xygrid"
       originx="0px"
       originy="0px"
       spacingx="2mm"
       spacingy="2mm"
       color="#3f3fff"
       empcolor="#3f3fff"
       opacity="0.15"
       empopacity="0.38"
       empspacing="5" />
  </sodipodi:namedview>
  <metadata
     id="metadata7">
    <rdf:RDF>
      <cc:Work
         rdf:about="">
        <dc:format>image/svg+xml</dc:format>
        <dc:type
           rdf:resource="http://purl.org/dc/dcmitype/StillImage" />
        <dc:title></dc:title>
      </cc:Work>
    </rdf:RDF>
  </metadata>
  <g
     inkscape:label="Layer 1"
     inkscape:groupmode="layer"
     id="layer1"
     transform="translate(4.149475e-6,-698.0315)">
    <path
       style="fill:none;stroke:#0000ff;stroke-width:0.91185552;stroke-linecap:square;stroke-linejoin:round"
       d="m 349.28843,867.81349 0,1.3634 -2.00484,0 0,0.4444 -2.00485,0 0,0.1591 2.00485,0 0,0.2319 2.00484,0 0,1.4512 -2.00484,0 0,0.2702 -2.00485,0 0,0.025 0,0 2.00485,0 0,0.4664 -2.00485,0 0,0.5692 -2.00485,0 0,0.4732 2.00485,0 0,0.3114 4.00969,0.01 0,0.1454 -2.00484,0 0,0.9025 2.00484,0 0,0.3951 -4.00969,0.144 0,0.1481 2.00485,0 0,1.561 2.00484,0 0,2.4566 2.00485,0 0,0.2634 -2.00485,0 0,0.3415 -2.00484,0 0,0.034 0,0 2.00484,0 0,1.0589 -2.00484,0 0,0.9986 2.00484,0 0,0.738 -4.00969,0.021 0,0.1659 2.00485,0 0,0.5994 -2.00485,0 0,0.099 0,0 2.00485,0 0,0.1852 -4.0097,0.081 0,0.1303 -4.00969,0.1481 0,0.1194 2.00484,0 0,0.7325 -2.00484,0 0,0.6268 2.00484,0 0,0.2771 -2.00484,0 0,0.4553 2.00484,0 0,1.0823 2.00485,0 0,0.2867 -4.00969,0.1289 0,0.3799 -2.00485,0 0,0.1564 2.00485,0 0,0.8614 2.00484,0 0,0.2936 -2.00484,0 0,1.1864 2.00484,0 0,0.1578 -2.00484,0 0,0.2578 4.00969,0.059 0,1.0356 2.00485,0 0,0.2579 2.00485,0 0,0.2922 2.00484,0 0,0.6117 -2.00484,0 0,0.062 0,0 4.00969,0.1084 0,0.06 2.00484,0 0,0.4815 -2.00484,0 0,1.3593 -2.00485,0 0,0.1961 -2.00484,0 0,2.1096 -2.00485,0 0,0.058 0,0 2.00485,0 0,1.0521 2.00484,0 0,0.3347 2.00485,0 0,1.0466 -2.00485,0 0,0.5198 4.00969,0.092 0,0.2209 2.00502,0 0,0.6899 -2.00502,0 0,0.2318 2.00502,0 0,0.2579 -2.00502,0 0,0.6433 2.00502,0 0,0.6529 -2.00502,0 0,0.1783 -2.00484,0 0,0.097 0,0 2.00484,0 0,1.2523 -2.00484,0 0,0.1125 0,0 2.00484,0 0,1.2043 2.00502,0 0,0.6653 2.00485,0 0,1.2207 -2.00485,0 0,0.1605 2.00485,0 0,0.2511 2.00484,0 0,0.7694 2.00486,0 0,0.2222 -2.00486,0 0,0.2195 2.00486,0 0,0.1824 2.00485,0 0,0.4102 -4.00971,0.034 0,0.6666 -2.00484,0 0,1.2893 -2.00485,0 0,0.6804 2.00485,0 0,0.058 0,0 -2.00485,0 0,0.037 0,0 2.00485,0 0,0.099 0,0 -2.00485,0 0,0.8257 2.00485,0 0,1.0054 -2.00485,0 0,0.038 0,0 2.00485,0 0,0.1715 -2.00485,0 0,1.1357 2.00485,0 0,0.2154 4.0097,0.1344 0,0.075 -2.00486,0 0,0.1769 -2.00484,0 0,0.2867 2.00484,0 0,0.2949 2.00486,0 0,1.6885 -2.00486,0 0,0.225 2.00486,0 0,0.3443 -2.00486,0 0,0.2688 -2.00484,0 0,0.203 2.00484,0 0,0.428 -4.00969,0.047 0,0.2372 -2.00502,0 0,0.3677 2.00502,0 0,0.3923 4.00969,0.01 0,1.2756 -2.00484,0 0,1.5582 2.00484,0 0,2.0218 -2.00484,0 0,0.5336 -2.00485,0 0,0.2867 -2.00502,0 0,0.2085 2.00502,0 0,0.1563 -2.00502,0 0,0.055 0,0 2.00502,0 0,0.9478 -2.00502,0 0,0.2318 -2.00484,0 0,0.1797 2.00484,0 0,0.6694 4.00987,0.096 0,0.084 -2.00485,0 0,1.2071 -2.00502,0 0,1.2962 2.00502,0 0,1.0973 -2.00502,0 0,1.4803"
       id="path4671"
       inkscape:connector-curvature="0" />
    <path
       style="fill:none;stroke:#0000ff;stroke-width:0.91185552;stroke-linecap:square;stroke-linejoin:round"
       d="m 361.30116,867.81129 0,0.039 -2.00484,0 0,1.0055 4.00969,0.053 0,2.0396 2.00502,0 0,0.3512 2.00486,0 0,0.2743 -2.00486,0 0,0.2058 4.00969,0.016 0,0.5116 -2.00483,0 0,0.4938 -2.00486,0 0,1.3332 2.00486,0 0,0.5021 2.00483,0 0,0.4101 -4.00969,0.1262 0,0.4019 2.00486,0 0,0.358 -2.00486,0 0,0.1646 2.00486,0 0,0.095 0,0 -2.00486,0 0,0.1659 2.00486,0 0,0 0,0 -4.00988,0.099 0,2.1097 -2.00485,0 0,0.1961 8.01956,0.118 0,0.1659 -4.00969,0.051 0,0.2373 -2.00502,0 0,0.6858 2.00502,0 0,1.0466 -2.00502,0 0,1.0891 2.00502,0 0,0.2785 -2.00502,0 0,0.075 0,0 4.00988,0 -2.00486,0.1124 0,0.3251 -2.00502,0 0,1.0877 2.00502,0 0,0.4445 2.00486,0 0,1.5746 -2.00486,0 0,0.3361 -2.00502,0 0,0.5226 -2.00485,0 0,0.2565 2.00485,0 0,1.0493 2.00502,0 0,0.3319 2.00486,0 0,0.439 2.00483,0 0,1.1028 -2.00483,0 0,1.2523 2.00483,0 0,0.2181 2.00485,0 0,0.1289 0,0 -2.00485,0 0,0.2963 4.0097,0.015 0,0.3662 2.00484,0 0,0.4362 2.00486,0 0,0.3855 2.00485,0 0,0.074 0,0 -2.00485,0 0,0.7434 -2.00486,0 0,0.1015 0,0 2.00486,0 0,0.7119 -2.00486,0 0,1.0191 -2.00484,0 0,0.1907 -2.00485,0 0,0.071 0,0 2.00485,0 0,0.3758 -2.00485,0 0,0.5473 -2.00485,0 0,0.2593 -2.00483,0 0,0.019 0,0 2.00483,0 0,1.2975 -2.00483,0 0,0.3237 -2.00486,0 0,0.018 0,0 2.00486,0 0,0.9575 -2.00486,0 0,0.5884 4.00969,0.041 0,0.2483 2.00485,0 0,0.3868 2.00485,0 0,0.1577 -4.0097,0.067 0,0.7681 -2.00483,0 0,0.1152 0,0 2.00483,0 0,1.502 2.00485,0 0,0.1385 0,0 -2.00485,0 0,0.1043 0,0 2.00485,0 0,0.5624 2.00485,0 0,0.1549 -2.00485,0 0,0.6872 6.01455,0.088 0,0.5967 -2.00486,0 0,0.2702 2.00486,0 0,0.7215 2.00485,0 0,0.5679 -4.00971,0.038 0,0.4595 -2.00484,0 0,1.2455 -2.00485,0 0,2.8846 2.00485,0 0,0.3826 2.00484,0 0,0.3197 2.00486,0 0,0.683 -2.00486,0 0,0.2497 -2.00484,0 0,0.1934 -4.0097,0.068 0,0.908 4.0097,0.019 -2.00485,0.1317 0,0 -2.00485,0 0,0.6255 2.00485,0 0,1.207 2.00485,0 0,0.7929 -8.01939,0.1317 0,0.6583 2.00486,0 0,0.056 0,0 -2.00486,0 0,0.2675 2.00486,0 0,0.2195 2.00484,0 0,0.5747 -2.00484,0 0,1.1536 2.00484,0 0,1.0918 -4.0097,0.048 0,0.5171 4.0097,0.1029 0,0.085 2.00485,0 0,0.4184 -2.00485,0 0,0.1276 0,0 2.00485,0 0,0.2016 2.00485,0 0,0.041 0,0 -2.00485,0 0,0.7435 2.00485,0 0,1.2934 -4.0097,0.077 0,0.3471 -2.00484,0 0,0.8161 4.00969,0.1358 0,0.1111 -2.00485,0 0,0.3457 2.00485,0 0,0.432 -2.00485,0 0,0.016 0,0 2.00485,0 0,0.7544 2.00485,0 0,0.022 0,0 -2.00485,0 0,1.5939 2.00485,0 0,1.5335 -2.00485,0 0,0.2003 -2.00485,0 0,0.4142 2.00485,0 0,0.5117 2.00485,0 0,0.384 -2.00485,0 0,0.2922 2.00485,0 0,0.3182 -2.00485,0 0,1.0754 2.00485,0 0,0.4086"
       id="path4635"
       inkscape:connector-curvature="0" />
    <path
       style="fill:none;stroke:#0000ff;stroke-width:0.91185552;stroke-linecap:square;stroke-linejoin:round"
       d="m 394.38308,867.79859 0,0.072 2.00485,0 0,0.6584 2.00485,0 0,0.1811 -4.0097,0.01 0,0.3196 2.00485,0 0,0.2249 2.00485,0 0,1.0494 2.00484,0 0,0.1563 -2.00484,0 0,0.055 0,0 2.00484,0 0,1.3689 2.00485,0 0,0.1235 0,0 -2.00485,0 0,1.4745 -2.00484,0 0,0.1797 -2.00485,0 0,0.1248 0,0 8.01955,0.1358 0,0.5116 2.00486,0 0,0.7572 -2.00486,0 0,0.4293 4.0097,0.04 0,0.3923 2.00486,0 0,0.3361 2.00484,0 0,0.395 -2.00484,0 0,1.1522 -2.00486,0 0,0.2099 -2.00484,0 0,0.1769 -2.00486,0 0,1.9916 -2.00501,0 0,1.4074 2.00501,0 0,0.6446 2.00486,0 0,0.2332 -2.00486,0 0,0.369 2.00486,0 0,0.2304 -2.00486,0 0,0.097 0,0 2.00486,0 0,0.1167 0,0 -2.00486,0 0,0.6597 2.00486,0 0,2.5637 -2.00486,0 0,0.5651 -2.00501,0 0,0.1701 2.00501,0 0,1.2537 -2.00501,0 0,0.2153 -4.00969,0.012 0,0.3553 2.00484,0 0,0.4938 -2.00484,0 0,0.8257 6.0147,0.071 0,0.1386 -4.00986,0.1385 0,0.1372 2.00485,0 0,0.9766 -2.00485,0 0,0.3209 2.00485,0 0,0.058 0,0 -2.00485,0 0,0.465 -2.00484,0 0,0.3183 2.00484,0 0,1.0067 2.00485,0 0,0.6818 2.00501,0 0,0.01 0,0 -2.00501,0 0,0.4032 -2.00485,0 0,1.0535 -2.00484,0 0,1.2523 2.00484,0 0,0.3937 2.00485,0 0,1.1521 2.00501,0 0,1.1632 -2.00501,0 0,1.3031 4.00987,0.038 0,1.694 -2.00486,0 0,0.2085 -2.00501,0 0,0.023 0,0 2.00501,0 0,1.4539 2.00486,0 0,0.4019 -2.00486,0 0,0.3978 -2.00501,0 0,0.166 -2.00485,0 0,0.561 2.00485,0 0,1.0493 -2.00485,0 0,0.4787 4.00986,0.058 0,0.9808 2.00486,0 0,0.6337 -2.00486,0 0,0.7516 2.00486,0 0,0.4349 2.00484,0 0,0.077 0,0 -2.00484,0 0,1.1741 -2.00486,0 0,1.207 2.00486,0 0,2.3277 -2.00486,0 0,0.7613 -2.00501,0 0,0.1934 -2.00485,0 0,0.1866 2.00485,0 0,0.5966 2.00501,0 0,0.882 -2.00501,0 0,0.096 0,0 2.00501,0 0,0.5198 -4.00986,0.025 0,0.7709 -2.00484,0 0,0.2373 -2.00485,0 0,0.6392 -2.00485,0 0,1.2619 2.00485,0 0,0.129 0,0 -2.00485,0 0,0.3566 -2.00485,0 0,0.1015 0,0 2.00485,0 0,0.3909 -2.00485,0 0,0.2483 -2.00485,0 0,0.2098 2.00485,0 0,0.2771 2.00485,0 0,0.4156 -2.00485,0 0,0.4815 2.00485,0 0,0.8449 -2.00485,0 0,1.2455 -4.00969,0.041 0,0.2194 2.00484,0 0,0.3402 -2.00484,0 0,0.2497 -2.00485,0 0,0.8312 4.00969,0.049 0,0.133 2.00485,0 0,1.4416 2.00485,0 0,0.3923 -2.00485,0 0,0.088 0,0 2.00485,0 0,0.7517 -2.00485,0 0,0.4993 -2.00485,0 0,0.2551 4.0097,0 0,1.1454 4.0097,0.1289 0,0.1097 2.00484,0 0,0.3059 -2.00484,0 0,0.5871 6.0147,0.1139 0,0.8874 -2.00501,0 0,0.2635"
       id="path4623"
       inkscape:connector-curvature="0" />
    <path
       style="fill:none;stroke:#0000ff;stroke-width:0.91185552;stroke-linecap:square;stroke-linejoin:round"
       d="m 341.99443,867.81599 0,0.2627 -2.00485,0 0,0.8998 -2.00485,0 0,0.513 2.00485,0 0,0.4678 2.00485,0 0,0.055 0,0 -4.0097,0.036 0,0.2002 -2.00486,0 0,2.4142 2.00486,0 0,0.1385 0,0 -2.00486,0 0,0.5596 -2.00483,0 0,0.38 2.00483,0 0,0.62 -2.00483,0 0,0.587 4.00969,0.1441 0,0.9574 -4.00969,0.073 0,0.1084 2.00483,0 0,0.8834 -2.00483,0 0,0.3182 -2.00485,0 0,0.2524 -2.00502,0 0,1.5554 -4.0097,0.052 0,0.2016 2.00486,0 0,0.9959 2.00484,0 0,0.7064 -2.00484,0 0,0.1646 -2.00486,0 0,0.015 0,0 2.00486,0 0,0.1358 0,0 -2.00486,0 0,0.528 2.00486,0 0,0.056 0,0 -2.00486,0 0,1.6337 -2.00484,0 0,1.1275 2.00484,0 0,0.4376 2.00486,0 0,0.2647 -2.00486,0 0,0.4636 4.0097,0.018 0,0.273 -2.00484,0 0,0.1728 -2.00486,0 0,0.3511 2.00486,0 0,1.395 -2.00486,0 0,0.3306 2.00486,0 0,0.4499 -2.00486,0 0,0.6611 2.00486,0 0,0.2414 -2.00486,0 0,0.749 2.00486,0 0,0.1001 0,0 -2.00486,0 0,0.465 2.00486,0 0,0.9753 -2.00486,0 0,0.1413 0,0 2.00486,0 0,0.3854 4.00986,0.01 0,0.1811 4.00968,0.133 0,0.2373 -2.00483,0 0,0.3484 -2.00485,0 0,0.3388 -2.00502,0 0,1.4183 -2.00484,0 0,2.4278 2.00484,0 0,0.9204 2.00502,0 0,0.1564 -4.00986,0.082 0,0.9642 -2.00486,0 0,1.812 -2.00484,0 0,0.7434 2.00484,0 0,0.513 -2.00484,0 0,0.2771 -4.0097,0.1207 0,0.048 -2.00485,0 0,0.3224 2.00485,0 0,1.2111 -2.00485,0 0,2.9875 -2.00483,0 0,0.5473 -2.00486,0 0,2.421 -2.00485,0 0,0.015 0,0 2.00485,0 0,2.9449 -2.00485,0 0,0.3608 2.00485,0 0,1.0164 -2.00485,0 0,0.1577 2.00485,0 0,0.6021 2.00486,0 0,0.1605 -2.00486,0 0,0.7778 4.00969,0.022 0,1.9861 -4.00969,0.062 0,0.8957 -2.00485,0 0,0.2606 4.00971,0.1413 0,2.1686 -2.00486,0 0,0.6227 -2.00485,0 0,0.5076 -2.00485,0 0,0.097 0,0 2.00485,0 0,2.3894 -2.00485,0 0,1.1165 2.00485,0 0,0.1057 0,0 -2.00485,0 0,0.4773 2.00485,0 0,0.3374 2.00485,0 0,0.3951 2.00486,0 0,0.3648 2.00483,0 0,2.1179 -2.00483,0 0,0.432 2.00483,0 0,0.2222 -2.00483,0 0,0.2881 2.00483,0 0,0.31 -2.00483,0 0,0.705 2.00483,0 0,0.2346 -2.00483,0 0,0.716 2.00483,0 0,0.646 4.0097,0.1125 0,0.685"
       id="path4617"
       inkscape:connector-curvature="0" />
    <path
       style="fill:none;stroke:#0000ff;stroke-width:0.91185552;stroke-linecap:square;stroke-linejoin:round"
       d="m 297.02707,867.74739 0,0.097 0,0 -2.00485,0 0,0.01 0,0 2.00485,0 0,0.2784 -2.00485,0 0,1.3099 -2.00485,0 0,1.0013 -2.00484,0 0,0.2154 2.00484,0 0,0.3443 -2.00484,0 0,0.051 0,0 4.00969,0.074 0,0.1303 -2.00485,0 0,0.7613 -2.00484,0 0,0.2716 4.00969,0.076 0,1.2866 2.00485,0 0,0.4732 2.00484,0 0,0.092 0,0 -2.00484,0 0,1.1042 2.00484,0 0,0.3813 -2.00484,0 0,0.4664 -2.00485,0 0,0.2633 2.00485,0 0,1.0164 2.00484,0 0,1.4471 2.00485,0 0,0.3607 -2.00485,0 0,0.3238 -2.00484,0 0,0.2729 2.00484,0 0,0.7023 -2.00484,0 0,0.1509 0,0 2.00484,0 0,0.3237 -2.00484,0 0,0.9094 -2.00485,0 0,0.2812 -2.00485,0 0,1.4828 2.00485,0 0,0.7009 -2.00485,0 0,0.336 -2.00484,0 0,0 0,0 2.00484,0 0,1.2222 2.00485,0 0,0.044 0,0 -4.00969,0.1399 0,0.5692 -2.00485,0 0,0.476 -2.00485,0 0,0.9848 -2.00485,0 0,1.4636 2.00485,0 0,0.095 0,0 -2.00485,0 0,0.1852 4.0097,0.1152 0,1.4238 2.00485,0 0,1.0465 2.00484,0 0,0.026 0,0 -2.00484,0 0,1.7763 2.00484,0 0,0.1674 -2.00484,0 0,0.1413 0,0 2.00484,0 0,0.7338 2.00485,0 0,0.1797 2.00485,0 0,0.1577 -2.00485,0 0,0.8738 -2.00485,0 0,0.096 0,0 2.00485,0 0,0.2057 -2.00485,0 0,0.1715 2.00485,0 0,0.6035 6.01454,0.1125 0,0.074 -2.00485,0 0,0.2126 -2.00484,0 0,0.3525 -2.00485,0 0,0.2236 2.00485,0 0,0.2468 -2.00485,0 0,0.9492 -2.00485,0 0,1.1618 -2.00484,0 0,0.5213 2.00484,0 0,0.3648 4.0097,0.08 0,1.7667 2.00484,0 0,0.3278 2.00485,0 0,0.6406 2.00485,0 0,0.3662 -2.00485,0 0,0.9451 -2.00485,0 0,0.018 0,0 4.0097,0.044 0,0.1152 -2.00485,0 0,0.3635 2.00485,0 0,0.081 0,0 -2.00485,0 0,0.1536 4.00986,0.1289 0,0.3361 2.00485,0 0,0.01 0,0 -2.00485,0 0,0.1975 2.00485,0 0,0.3196 -2.00485,0 0,1.0795 -4.00986,0.056 0,0.6214 -2.00485,0 0,0.027 0,0 2.00485,0 0,0.3017 2.00485,0 0,0.7106 -2.00485,0 0,0.7708 2.00485,0 0,0.1989 2.00501,0 0,0.7284 2.00485,0 0,0.2181 -2.00485,0 0,0.6378 -2.00501,0 0,0.1317 0,0 2.00501,0 0,0.086 0,0 -4.00986,0.089 0,0.3813 -2.00485,0 0,0.8628 -2.00484,0 0,0.2345 -2.00485,0 0,0.177 -2.00485,0 0,1.1837 -4.00969,0.049 0,0.3333 6.01454,0.1454 0,0.076 2.00485,0 0,0.5596 -2.00485,0 0,0.343 2.00485,0 0,0.2578 2.00484,0 0,0.5199 2.00485,0 0,0.023 0,0 -2.00485,0 0,0.9464 2.00485,0 0,0.4719 -2.00485,0 0,1.0191 2.00485,0 0,0.5651 -2.00485,0 0,1.6927 -4.00969,0.045 0,0.1399 -2.00485,0 0,0.1948 -2.00484,0 0,0.2345 2.00484,0 0,0.2483 -2.00484,0 0,1.3538 -2.00485,0 0,0.7969 2.00485,0 0,0.4966 -2.00485,0 0,0.2277 2.00485,0 0,0.2455 -2.00485,0 0,0.4184 -2.00485,0 0,0.019 0,0 2.00485,0 0,0.513 -2.00485,0 0,1.8503 2.00485,0 0,0.049 0,0 -2.00485,0 0,0.7544 2.00485,0 0,0.1948 -2.00485,0 0,0.1042 0,0 2.00485,0 0,0.5885 2.00485,0 0,0.2757 -2.00485,0 0,0.5761 2.00485,0 0,0.7283 -2.00485,0 0,0.01 0,0 2.00485,0 0,0.8367 -2.00485,0 0,0.1646 2.00485,0 0,0.2538 6.01454,0.1221 0,0.3374 -2.00485,0 0,0.1385 0,0 2.00485,0 0,0.088 0,0 -2.00485,0 0,0.1502"
       id="path4611"
       inkscape:connector-curvature="0" />
    <path
       style="fill:none;stroke:#000000;stroke-width:0.63005781;stroke-linecap:butt;stroke-linejoin:miter;stroke-miterlimit:4;stroke-opacity:1;stroke-dasharray:none;marker-start:url(#Arrow1Mstart);marker-end:url(#Arrow1Mend)"
       d="m 276.79903,790.78827 0,145.13382 133.72731,0"
       id="path4681"
       inkscape:connector-curvature="0" />
    <path
       style="fill:none;stroke:#000000;stroke-width:0.63055432px;stroke-linecap:butt;stroke-linejoin:miter;stroke-opacity:1"
       d="m 326.32766,935.92209 0,-132.14686"
       id="path5501"
       inkscape:connector-curvature="0" />
    <path
       style="fill:none;stroke:#000000;stroke-width:0.63055432px;stroke-linecap:butt;stroke-linejoin:miter;stroke-opacity:1"
       d="m 375.85629,935.92209 0,-132.14686 0,0 0,0"
       id="path5503"
       inkscape:connector-curvature="0" />
    <path
       style="fill:none;stroke:#000000;stroke-width:0.63055432px;stroke-linecap:butt;stroke-linejoin:miter;stroke-opacity:1"
       d="m 276.79903,867.38669 133.72731,0"
       id="path5505"
       inkscape:connector-curvature="0" />
    <text
       xml:space="preserve"
       style="font-size:27.94865227px;font-style:normal;font-weight:normal;line-height:125%;letter-spacing:0px;word-spacing:0px;fill:#000000;fill-opacity:1;stroke:none;font-family:Sans"
       x="265.20099"
       y="866.86249"
       id="text5540"
       sodipodi:linespacing="125%"><tspan
         sodipodi:role="line"
         id="tspan5542"
         x="265.20099"
         y="866.86249">$t_s$</tspan></text>
    <text
       xml:space="preserve"
       style="font-size:27.94865227px;font-style:normal;font-weight:normal;line-height:125%;letter-spacing:0px;word-spacing:0px;fill:#000000;fill-opacity:1;stroke:none;font-family:Sans"
       x="258.28763"
       y="811.82318"
       id="text5544"
       sodipodi:linespacing="125%"><tspan
         sodipodi:role="line"
         id="tspan5546"
         x="258.28763"
         y="811.82318">$t$</tspan></text>
    <text
       xml:space="preserve"
       style="font-size:27.94865227px;font-style:normal;font-weight:normal;line-height:125%;letter-spacing:0px;word-spacing:0px;fill:#000000;fill-opacity:1;stroke:none;font-family:Sans"
       x="393.27979"
       y="949.90198"
       id="text5548"
       sodipodi:linespacing="125%"><tspan
         sodipodi:role="line"
         id="tspan5550"
         x="393.27979"
         y="949.90198">$x$</tspan></text>
  </g>
</svg>
