<?xml version="1.0" encoding="UTF-8" standalone="no"?>
<!-- Created with Inkscape (http://www.inkscape.org/) -->

<svg
   xmlns:dc="http://purl.org/dc/elements/1.1/"
   xmlns:cc="http://creativecommons.org/ns#"
   xmlns:rdf="http://www.w3.org/1999/02/22-rdf-syntax-ns#"
   xmlns:svg="http://www.w3.org/2000/svg"
   xmlns="http://www.w3.org/2000/svg"
   xmlns:sodipodi="http://sodipodi.sourceforge.net/DTD/sodipodi-0.dtd"
   xmlns:inkscape="http://www.inkscape.org/namespaces/inkscape"
   width="453.5433"
   height="340.15747"
   id="svg2"
   sodipodi:version="0.32"
   inkscape:version="0.48.4 r9939"
   sodipodi:docname="New document 26"
   version="1.0">
  <defs
     id="defs4">
    <marker
       inkscape:stockid="Arrow1Mstart"
       orient="auto"
       refY="0"
       refX="0"
       id="Arrow1Mstart"
       style="overflow:visible">
      <path
         inkscape:connector-curvature="0"
         id="path4693"
         d="M 0,0 5,-5 -12.5,0 5,5 0,0 z"
         style="fill-rule:evenodd;stroke:#000000;stroke-width:1pt"
         transform="matrix(0.4,0,0,0.4,4,0)" />
    </marker>
    <marker
       inkscape:stockid="Arrow1Mend"
       orient="auto"
       refY="0"
       refX="0"
       id="Arrow1Mend"
       style="overflow:visible">
      <path
         inkscape:connector-curvature="0"
         id="path4696"
         d="M 0,0 5,-5 -12.5,0 5,5 0,0 z"
         style="fill-rule:evenodd;stroke:#000000;stroke-width:1pt"
         transform="matrix(-0.4,0,0,-0.4,-4,0)" />
    </marker>
  </defs>
  <sodipodi:namedview
     id="base"
     pagecolor="#ffffff"
     bordercolor="#666666"
     borderopacity="1.0"
     inkscape:pageopacity="0.0"
     inkscape:pageshadow="2"
     inkscape:zoom="1.540463"
     inkscape:cx="226.77165"
     inkscape:cy="170.07874"
     inkscape:document-units="mm"
     inkscape:current-layer="layer1"
     inkscape:window-width="1916"
     inkscape:window-height="1041"
     inkscape:window-x="0"
     inkscape:window-y="18"
     width="12.8cm"
     height="9.6cm"
     units="cm"
     showgrid="true"
     grid_units="mm"
     inkscape:object-paths="false"
     inkscape:grid-points="true"
     inkscape:grid-bbox="true"
     inkscape:guide-points="true"
     showguides="true"
     inkscape:guide-bbox="true"
     inkscape:window-maximized="0">
    <sodipodi:guide
       orientation="vertical"
       position="56.476527"
       id="guide3573" />
    <sodipodi:guide
       orientation="horizontal"
       position="11.035643"
       id="guide3579" />
    <sodipodi:guide
       orientation="horizontal"
       position="24.018753"
       id="guide3886" />
    <sodipodi:guide
       orientation="horizontal"
       position="285.62841"
       id="guide3988" />
    <sodipodi:guide
       orientation="horizontal"
       position="303.15561"
       id="guide4081" />
    <inkscape:grid
       id="GridFromPre046Settings"
       type="xygrid"
       originx="0px"
       originy="0px"
       spacingx="2mm"
       spacingy="2mm"
       color="#3f3fff"
       empcolor="#3f3fff"
       opacity="0.15"
       empopacity="0.38"
       empspacing="5" />
  </sodipodi:namedview>
  <metadata
     id="metadata7">
    <rdf:RDF>
      <cc:Work
         rdf:about="">
        <dc:format>image/svg+xml</dc:format>
        <dc:type
           rdf:resource="http://purl.org/dc/dcmitype/StillImage" />
        <dc:title></dc:title>
      </cc:Work>
    </rdf:RDF>
  </metadata>
  <g
     inkscape:label="Layer 1"
     inkscape:groupmode="layer"
     id="layer1"
     transform="translate(4.149475e-6,-698.0315)">
    <path
       style="fill:none;stroke:#0000ff;stroke-width:0.91185552;stroke-linecap:square;stroke-linejoin:round"
       d="m 367.37874,860.32097 0,1.3634 -2.00484,0 0,0.44442 -2.00485,0 0,0.15911 2.00485,0 0,0.23182 2.00484,0 0,1.45121 -2.00484,0 0,0.27022 -2.00485,0 0,0.0247 0,0 2.00485,0 0,0.46636 -2.00485,0 0,0.56925 -2.00485,0 0,0.47321 2.00485,0 0,0.31136 4.00969,0.008 0,0.14542 -2.00484,0 0,0.90253 2.00484,0 0,0.39503 -4.00969,0.14403 0,0.14814 2.00485,0 0,1.56094 2.00484,0 0,2.45665 2.00485,0 0,0.26335 -2.00485,0 0,0.34154 -2.00484,0 0,0.0344 0,0 2.00484,0 0,1.05891 -2.00484,0 0,0.99858 2.00484,0 0,0.73796 -4.00969,0.0205 0,0.16596 2.00485,0 0,0.59941 -2.00485,0 0,0.0987 0,0 2.00485,0 0,0.18516 -4.0097,0.081 0,0.13033 -4.0097,0.14812 0,0.11933 2.00485,0 0,0.73249 -2.00485,0 0,0.62682 2.00485,0 0,0.27709 -2.00485,0 0,0.45538 2.00485,0 0,1.08224 2.00485,0 0,0.28668 -4.0097,0.12893 0,0.37995 -2.00485,0 0,0.15638 2.00485,0 0,0.86141 2.00485,0 0,0.29352 -2.00485,0 0,1.18648 2.00485,0 0,0.15773 -2.00485,0 0,0.25788 4.0097,0.059 0,1.0356 2.00485,0 0,0.25788 2.00485,0 0,0.29215 2.00484,0 0,0.61176 -2.00484,0 0,0.0616 0,0 4.00969,0.1084 0,0.0603 2.00484,0 0,0.48146 -2.00484,0 0,1.3593 -2.00485,0 0,0.19614 -2.00484,0 0,2.10961 -2.00485,0 0,0.0576 0,0 2.00485,0 0,1.05205 2.00484,0 0,0.33469 2.00485,0 0,1.04657 -2.00485,0 0,0.51986 4.00969,0.0919 0,0.22084 2.00502,0 0,0.68994 -2.00502,0 0,0.23182 2.00502,0 0,0.25788 -2.00502,0 0,0.6433 2.00502,0 0,0.6529 -2.00502,0 0,0.17833 -2.00484,0 0,0.0974 0,0 2.00484,0 0,1.25231 -2.00484,0 0,0.11247 0,0 2.00484,0 0,1.20432 2.00502,0 0,0.66524 2.00485,0 0,1.22076 -2.00485,0 0,0.1605 2.00485,0 0,0.25103 2.00484,0 0,0.76948 2.00486,0 0,0.2222 -2.00486,0 0,0.21949 2.00486,0 0,0.18241 2.00485,0 0,0.41015 -4.00971,0.0344 0,0.66662 -2.00484,0 0,1.28934 -2.00485,0 0,0.68035 2.00485,0 0,0.0576 0,0 -2.00485,0 0,0.037 0,0 2.00485,0 0,0.0987 0,0 -2.00485,0 0,0.82573 2.00485,0 0,1.00542 -2.00485,0 0,0.0384 0,0 2.00485,0 0,0.17144 -2.00485,0 0,1.13574 2.00485,0 0,0.21535 4.0097,0.13441 0,0.0755 -2.00486,0 0,0.17694 -2.00484,0 0,0.28668 2.00484,0 0,0.29491 2.00486,0 0,1.6885 -2.00486,0 0,0.22496 2.00486,0 0,0.34428 -2.00486,0 0,0.26884 -2.00484,0 0,0.203 2.00484,0 0,0.42796 -4.00969,0.0466 0,0.23729 -2.00502,0 0,0.36762 2.00502,0 0,0.39229 4.00969,0.008 0,1.27565 -2.00484,0 0,1.5582 2.00484,0 0,2.02182 -2.00484,0 0,0.53357 -2.00485,0 0,0.28667 -2.00502,0 0,0.2085 2.00502,0 0,0.15636 -2.00502,0 0,0.0549 0,0 2.00502,0 0,0.9478 -2.00502,0 0,0.23182 -2.00484,0 0,0.17968 2.00484,0 0,0.66937 4.00987,0.096 0,0.0837 -2.00485,0 0,1.20706 -2.00502,0 0,1.29622 2.00502,0 0,1.09732 -2.00502,0 0,1.48032"
       id="path4671"
       inkscape:connector-curvature="0" />
    <path
       style="fill:none;stroke:#0000ff;stroke-width:0.91185552;stroke-linecap:square;stroke-linejoin:round"
       d="m 379.39147,860.3188 0,0.0393 -2.00484,0 0,1.00543 4.00969,0.0534 0,2.03965 2.00502,0 0,0.35115 2.00486,0 0,0.27433 -2.00486,0 0,0.20575 4.00969,0.0164 0,0.51163 -2.00483,0 0,0.49379 -2.00486,0 0,1.33327 2.00486,0 0,0.50202 2.00483,0 0,0.41012 -4.00969,0.12619 0,0.40191 2.00486,0 0,0.358 -2.00486,0 0,0.16458 2.00486,0 0,0.0947 0,0 -2.00486,0 0,0.16598 2.00486,0 0,0 0,0 -4.00988,0.0987 0,2.10961 -2.00485,0 0,0.19615 8.01956,0.11795 0,0.16597 -4.00969,0.0508 0,0.2373 -2.00502,0 0,0.68582 2.00502,0 0,1.04658 -2.00502,0 0,1.0891 2.00502,0 0,0.27844 -2.00502,0 0,0.0755 0,0 4.00988,0.002 -2.00486,0.11246 0,0.32509 -2.00502,0 0,1.08771 2.00502,0 0,0.44443 2.00486,0 0,1.57467 -2.00486,0 0,0.33604 -2.00502,0 0,0.52261 -2.00485,0 0,0.2565 2.00485,0 0,1.04931 2.00502,0 0,0.33195 2.00486,0 0,0.43892 2.00483,0 0,1.10282 -2.00483,0 0,1.25231 2.00483,0 0,0.21811 2.00485,0 0,0.12893 0,0 -2.00485,0 0,0.29628 4.0097,0.0151 0,0.36624 2.00484,0 0,0.43618 2.00486,0 0,0.38544 2.00485,0 0,0.0741 0,0 -2.00485,0 0,0.74343 -2.00486,0 0,0.1015 0,0 2.00486,0 0,0.71189 -2.00486,0 0,1.01914 -2.00484,0 0,0.19066 -2.00485,0 0,0.0713 0,0 2.00485,0 0,0.37584 -2.00485,0 0,0.54728 -2.00485,0 0,0.25926 -2.00483,0 0,0.0192 0,0 2.00483,0 0,1.29758 -2.00483,0 0,0.3237 -2.00486,0 0,0.0177 0,0 2.00486,0 0,0.95741 -2.00486,0 0,0.58846 4.00969,0.0411 0,0.24827 2.00485,0 0,0.38681 2.00485,0 0,0.15773 -4.0097,0.0673 0,0.7681 -2.00483,0 0,0.11522 0,0 2.00483,0 0,1.50197 2.00485,0 0,0.13852 0,0 -2.00485,0 0,0.10424 0,0 2.00485,0 0,0.56238 2.00485,0 0,0.15498 -2.00485,0 0,0.68721 6.01455,0.0878 0,0.59666 -2.00486,0 0,0.27022 2.00486,0 0,0.7215 2.00485,0 0,0.56786 -4.00971,0.0384 0,0.45952 -2.00484,0 0,1.24546 -2.00485,0 0,2.8846 2.00485,0 0,0.38268 2.00484,0 0,0.31961 2.00486,0 0,0.68309 -2.00486,0 0,0.24962 -2.00484,0 0,0.19342 -4.0097,0.0685 0,0.90805 4.0097,0.0192 -2.00485,0.13168 0,0.002 -2.00485,0 0,0.62549 2.00485,0 0,1.20704 2.00485,0 0,0.79284 -8.01939,0.13167 0,0.65839 2.00486,0 0,0.0563 0,0 -2.00486,0 0,0.26747 2.00486,0 0,0.21947 2.00484,0 0,0.57473 -2.00484,0 0,1.15354 2.00484,0 0,1.09185 -4.0097,0.048 0,0.51712 4.0097,0.10292 0,0.085 2.00485,0 0,0.41836 -2.00485,0 0,0.12755 0,0 2.00485,0 0,0.20165 2.00485,0 0,0.0411 0,0 -2.00485,0 0,0.74345 2.00485,0 0,1.29349 -4.0097,0.0768 0,0.34703 -2.00484,0 0,0.81612 4.00969,0.1358 0,0.11115 -2.00485,0 0,0.34564 2.00485,0 0,0.43206 -2.00485,0 0,0.0164 0,0 2.00485,0 0,0.7544 2.00485,0 0,0.022 0,0 -2.00485,0 0,1.59387 2.00485,0 0,1.53353 -2.00485,0 0,0.20026 -2.00485,0 0,0.41423 2.00485,0 0,0.51163 2.00485,0 0,0.38407 -2.00485,0 0,0.29215 2.00485,0 0,0.31823 -2.00485,0 0,1.07537 2.00485,0 0,0.4086"
       id="path4635"
       inkscape:connector-curvature="0" />
    <path
       style="fill:none;stroke:#0000ff;stroke-width:0.91185552;stroke-linecap:square;stroke-linejoin:round"
       d="m 412.47339,860.3061 0,0.0721 2.00485,0 0,0.65839 2.00485,0 0,0.18106 -4.0097,0.01 0,0.31959 2.00485,0 0,0.22495 2.00485,0 0,1.04932 2.00484,0 0,0.15636 -2.00484,0 0,0.0549 0,0 2.00484,0 0,1.36891 2.00485,0 0,0.12345 0,0 -2.00485,0 0,1.47453 -2.00484,0 0,0.17968 -2.00485,0 0,0.12482 0,0 8.01955,0.13579 0,0.51163 2.00486,0 0,0.75716 -2.00486,0 0,0.42932 4.0097,0.0397 0,0.39229 2.00486,0 0,0.33607 2.00484,0 0,0.39503 -2.00484,0 0,1.15219 -2.00486,0 0,0.20987 -2.00484,0 0,0.17694 -2.00486,0 0,1.99165 -2.00501,0 0,1.40731 2.00501,0 0,0.64468 2.00486,0 0,0.23319 -2.00486,0 0,0.36897 2.00486,0 0,0.23044 -2.00486,0 0,0.0974 0,0 2.00486,0 0,0.11664 0,0 -2.00486,0 0,0.65976 2.00486,0 0,2.56362 -2.00486,0 0,0.56513 -2.00501,0 0,0.17008 2.00501,0 0,1.2537 -2.00501,0 0,0.21535 -4.00969,0.0123 0,0.35527 2.00484,0 0,0.49379 -2.00484,0 0,0.82573 6.0147,0.0713 0,0.13855 -4.00986,0.13853 0,0.13717 2.00485,0 0,0.97661 -2.00485,0 0,0.32097 2.00485,0 0,0.0576 0,0 -2.00485,0 0,0.46499 -2.00484,0 0,0.31823 2.00484,0 0,1.00678 2.00485,0 0,0.68173 2.00501,0 0,0.01 0,0 -2.00501,0 0,0.40327 -2.00485,0 0,1.05344 -2.00484,0 0,1.25232 2.00484,0 0,0.39366 2.00485,0 0,1.15219 2.00501,0 0,1.16317 -2.00501,0 0,1.30307 4.00987,0.0384 0,1.694 -2.00486,0 0,0.20849 -2.00501,0 0,0.0234 0,0 2.00501,0 0,1.45396 2.00486,0 0,0.40188 -2.00486,0 0,0.39779 -2.00501,0 0,0.16597 -2.00485,0 0,0.561 2.00485,0 0,1.04933 -2.00485,0 0,0.47872 4.00986,0.0576 0,0.98073 2.00486,0 0,0.63372 -2.00486,0 0,0.75167 2.00486,0 0,0.43481 2.00484,0 0,0.0768 0,0 -2.00484,0 0,1.17413 -2.00486,0 0,1.20705 2.00486,0 0,2.3277 -2.00486,0 0,0.76128 -2.00501,0 0,0.19342 -2.00485,0 0,0.18653 2.00485,0 0,0.59666 2.00501,0 0,0.88198 -2.00501,0 0,0.096 0,0 2.00501,0 0,0.51984 -4.00986,0.0247 0,0.77087 -2.00484,0 0,0.2373 -2.00485,0 0,0.63918 -2.00485,0 0,1.26193 2.00485,0 0,0.12893 0,0 -2.00485,0 0,0.35664 -2.00485,0 0,0.10149 0,0 2.00485,0 0,0.39091 -2.00485,0 0,0.24828 -2.00485,0 0,0.20987 2.00485,0 0,0.27706 2.00485,0 0,0.41561 -2.00485,0 0,0.48147 2.00485,0 0,0.84493 -2.00485,0 0,1.24547 -4.00969,0.0411 0,0.21946 2.00484,0 0,0.34018 -2.00484,0 0,0.24964 -2.00485,0 0,0.83122 4.00969,0.0494 0,0.13304 2.00485,0 0,1.44162 2.00485,0 0,0.39229 -2.00485,0 0,0.0878 0,0 2.00485,0 0,0.75167 -2.00485,0 0,0.49928 -2.00485,0 0,0.25516 4.0097,0.002 0,1.14532 4.0097,0.12894 0,0.10972 2.00484,0 0,0.30588 -2.00484,0 0,0.58708 6.0147,0.11389 0,0.88746 -2.00501,0 0,0.26345"
       id="path4623"
       inkscape:connector-curvature="0" />
    <path
       style="fill:none;stroke:#0000ff;stroke-width:0.91185552;stroke-linecap:square;stroke-linejoin:round"
       d="m 360.08474,860.32347 0,0.26273 -2.00485,0 0,0.8998 -2.00486,0 0,0.513 2.00486,0 0,0.46774 2.00485,0 0,0.0549 0,0 -4.00971,0.0357 0,0.20026 -2.00486,0 0,2.41412 2.00486,0 0,0.13854 0,0 -2.00486,0 0,0.55964 -2.00483,0 0,0.37994 2.00483,0 0,0.61999 -2.00483,0 0,0.58707 4.00969,0.14402 0,0.95743 -4.00969,0.0727 0,0.10841 2.00483,0 0,0.88335 -2.00483,0 0,0.31822 -2.00485,0 0,0.25238 -2.00502,0 0,1.55545 -4.0097,0.0521 0,0.20163 2.00486,0 0,0.99582 2.00484,0 0,0.70641 -2.00484,0 0,0.16459 -2.00486,0 0,0.015 0,0 2.00486,0 0,0.1358 0,0 -2.00486,0 0,0.52809 2.00486,0 0,0.0563 0,0 -2.00486,0 0,1.63364 -2.00484,0 0,1.12751 2.00484,0 0,0.43756 2.00486,0 0,0.26473 -2.00486,0 0,0.46362 4.0097,0.0177 0,0.27296 -2.00484,0 0,0.17283 -2.00486,0 0,0.35115 2.00486,0 0,1.39497 -2.00486,0 0,0.33057 2.00486,0 0,0.4499 -2.00486,0 0,0.66113 2.00486,0 0,0.24142 -2.00486,0 0,0.74892 2.00486,0 0,0.10018 0,0 -2.00486,0 0,0.46499 2.00486,0 0,0.97525 -2.00486,0 0,0.14128 0,0 2.00486,0 0,0.38544 4.00986,0.005 0,0.18106 4.00968,0.13304 0,0.23731 -2.00483,0 0,0.34839 -2.00485,0 0,0.3388 -2.00502,0 0,1.4183 -2.00484,0 0,2.42783 2.00484,0 0,0.92037 2.00502,0 0,0.15638 -4.00986,0.0823 0,0.96426 -2.00486,0 0,1.81196 -2.00484,0 0,0.74345 2.00484,0 0,0.51299 -2.00484,0 0,0.27708 -4.0097,0.12071 0,0.048 -2.00484,0 0,0.32234 2.00484,0 0,1.21117 -2.00484,0 0,2.98748 -2.00483,0 0,0.54728 -2.00486,0 0,2.42098 -2.00485,0 0,0.0152 0,0 2.00485,0 0,2.94493 -2.00485,0 0,0.36076 2.00485,0 0,1.01639 -2.00485,0 0,0.15774 2.00485,0 0,0.60215 2.00486,0 0,0.16049 -2.00486,0 0,0.77773 4.00969,0.0219 0,1.98617 -4.00969,0.0618 0,0.8957 -2.00485,0 0,0.2606 4.00971,0.14129 0,2.16857 -2.00486,0 0,0.62274 -2.00485,0 0,0.50752 -2.00485,0 0,0.0974 0,0 2.00485,0 0,2.38941 -2.00485,0 0,1.11654 2.00485,0 0,0.10566 0,0 -2.00485,0 0,0.47733 2.00485,0 0,0.33744 2.00485,0 0,0.39503 2.00486,0 0,0.36486 2.00483,0 0,2.11783 -2.00483,0 0,0.43208 2.00483,0 0,0.22221 -2.00483,0 0,0.28805 2.00483,0 0,0.31 -2.00483,0 0,0.70502 2.00483,0 0,0.23456 -2.00483,0 0,0.71601 2.00483,0 0,0.64605 4.00969,0.11246 0,0.68504"
       id="path4617"
       inkscape:connector-curvature="0" />
    <path
       style="fill:none;stroke:#0000ff;stroke-width:0.91185552;stroke-linecap:square;stroke-linejoin:round"
       d="m 315.11738,860.25481 0,0.097 0,0 -2.00485,0 0,0.007 0,0 2.00485,0 0,0.27844 -2.00485,0 0,1.30994 -2.00485,0 0,1.00131 -2.00484,0 0,0.21535 2.00484,0 0,0.34429 -2.00484,0 0,0.0508 0,0 4.00969,0.0741 0,0.1303 -2.00485,0 0,0.76128 -2.00484,0 0,0.27159 4.00969,0.0755 0,1.2866 2.00485,0 0,0.47323 2.00484,0 0,0.0919 0,0 -2.00484,0 0,1.10418 2.00484,0 0,0.38133 -2.00484,0 0,0.46636 -2.00485,0 0,0.26335 2.00485,0 0,1.0164 2.00484,0 0,1.4471 2.00485,0 0,0.36074 -2.00485,0 0,0.32372 -2.00484,0 0,0.27295 2.00484,0 0,0.7023 -2.00484,0 0,0.15088 0,0 2.00484,0 0,0.32371 -2.00484,0 0,0.90941 -2.00485,0 0,0.28119 -2.00485,0 0,1.48276 2.00485,0 0,0.70092 -2.00485,0 0,0.33604 -2.00484,0 0,0 0,0 2.00484,0 0,1.22215 2.00485,0 0,0.0439 0,0 -4.00969,0.13991 0,0.56924 -2.00485,0 0,0.47596 -2.00485,0 0,0.98485 -2.00485,0 0,1.46356 2.00485,0 0,0.0947 0,0 -2.00485,0 0,0.18518 4.0097,0.1152 0,1.42378 2.00485,0 0,1.04658 2.00484,0 0,0.0261 0,0 -2.00484,0 0,1.77629 2.00484,0 0,0.16734 -2.00484,0 0,0.14129 0,0 2.00484,0 0,0.73382 2.00485,0 0,0.1797 2.00485,0 0,0.15774 -2.00485,0 0,0.87374 -2.00485,0 0,0.096 0,0 2.00485,0 0,0.20574 -2.00485,0 0,0.17146 2.00485,0 0,0.60353 6.01454,0.11247 0,0.0741 -2.00485,0 0,0.21261 -2.00484,0 0,0.35252 -2.00485,0 0,0.22357 2.00485,0 0,0.24689 -2.00485,0 0,0.94919 -2.00485,0 0,1.16179 -2.00484,0 0,0.52124 2.00484,0 0,0.36485 4.0097,0.0796 0,1.76669 2.00484,0 0,0.32783 2.00485,0 0,0.64056 2.00485,0 0,0.36622 -2.00485,0 0,0.94508 -2.00485,0 0,0.0177 0,0 4.0097,0.0439 0,0.11521 -2.00485,0 0,0.36348 2.00485,0 0,0.081 0,0 -2.00485,0 0,0.15363 4.00986,0.12893 0,0.33607 2.00485,0 0,0.008 0,0 -2.00485,0 0,0.19751 2.00485,0 0,0.31959 -2.00485,0 0,1.0795 -4.00986,0.0563 0,0.62136 -2.00485,0 0,0.0274 0,0 2.00485,0 0,0.30176 2.00485,0 0,0.71052 -2.00485,0 0,0.77088 2.00485,0 0,0.19888 2.00501,0 0,0.72835 2.00485,0 0,0.21809 -2.00485,0 0,0.63782 -2.00501,0 0,0.13169 0,0 2.00501,0 0,0.0865 0,0 -4.00986,0.0892 0,0.38133 -2.00485,0 0,0.86276 -2.00484,0 0,0.23457 -2.00485,0 0,0.17693 -2.00485,0 0,1.18374 -4.00969,0.0493 0,0.33332 6.01454,0.14539 0,0.0755 2.00485,0 0,0.55963 -2.00485,0 0,0.34293 2.00485,0 0,0.25786 2.00484,0 0,0.51987 2.00485,0 0,0.0234 0,0 -2.00485,0 0,0.94644 2.00485,0 0,0.47185 -2.00485,0 0,1.01913 2.00485,0 0,0.56513 -2.00485,0 0,1.69263 -4.00969,0.0453 0,0.13991 -2.00485,0 0,0.19477 -2.00484,0 0,0.23455 2.00484,0 0,0.24827 -2.00484,0 0,1.35382 -2.00485,0 0,0.79694 2.00485,0 0,0.49655 -2.00485,0 0,0.22768 2.00485,0 0,0.24553 -2.00485,0 0,0.41836 -2.00485,0 0,0.0192 0,0 2.00485,0 0,0.513 -2.00485,0 0,1.85037 2.00485,0 0,0.0493 0,0 -2.00485,0 0,0.75442 2.00485,0 0,0.19477 -2.00485,0 0,0.10423 0,0 2.00485,0 0,0.58844 2.00485,0 0,0.2757 -2.00485,0 0,0.57609 2.00485,0 0,0.72836 -2.00485,0 0,0.01 0,0 2.00485,0 0,0.8367 -2.00485,0 0,0.1646 2.00485,0 0,0.25376 6.01454,0.12207 0,0.33743 -2.00485,0 0,0.13854 0,0 2.00485,0 0,0.0878 0,0 -2.00485,0 0,0.15014"
       id="path4611"
       inkscape:connector-curvature="0" />
    <path
       inkscape:connector-curvature="0"
       style="fill:none;stroke:#0000ff;stroke-width:0.91074246;stroke-linecap:square;stroke-linejoin:round"
       d="m 303.37117,842.91951 -1e-5,0.24164 -2.00628,0 0,2.31079 2.00628,0 0,0.43209 -4.01256,0.14629 0,0.201 -2.00629,0 0,1.65311 2.00629,0 0,0.28442 2.00628,0 0,0.4936 4.01256,0.0383 0,0.35139 2.00628,0 0,1.14857 -2.00628,0 0,1.34682 -2.00628,0 0,1.05559 2.00628,0 0,0.35004 -2.00628,0 0,0.44712 2.00628,0 0,0.2598 2.00628,0 0,0.57016 -4.01256,0.12581 0,0.93114 2.00628,0 0,0.64265 -2.00628,0 0,0.64812 4.01256,0.01 0,0.93799 2.00628,0 0,0.4608 2.00645,0 0,0.43207 2.00628,0 0,0.11354 0,0 -2.00628,0 0,0.19963 -2.00645,0 0,0.0589 0,0 2.00645,0 0,0.64539 2.00628,0 0,0.11377"
       id="path5924" />
    <path
       inkscape:connector-curvature="0"
       style="fill:none;stroke:#0000ff;stroke-width:0.91074246;stroke-linecap:square;stroke-linejoin:round"
       d="m 322.52792,842.93016 0,0.38559 2.00628,0 0,0.21056 -2.00628,0 0,0.61803 -2.00628,0 0,1.21556 -2.00628,0 0,0.0671 0,0 2.00628,0 0,0.86963 2.00628,0 0,0.74519 2.00628,0 0,0.51548 -2.00628,0 0,0.89561 2.00628,0 0,0.59889 -2.00628,0 0,0.2639 -2.00628,0 0,0.21603 2.00628,0 0,0.18734 -2.00628,0 0,0.51821 2.00628,0 0,0.10117 0,0 -2.00628,0 0,0.35414 2.00628,0 0,0.9927 -4.01256,0.0479 0,0.98858 -2.00629,0 0,0.64675 -4.01255,0.13673 0,0.25843 2.00628,0 0,0.26389 -2.00628,0 0,1.00362 2.00628,0 0,0.97217 -2.00628,0 0,0.55378 2.00628,0 0,0.16272 -2.00628,0 0,1.71053 -2.00628,0 0,0.16544 4.01256,0.0369 0,0.9445"
       id="path5916" />
    <path
       style="fill:none;stroke:#000000;stroke-width:0.63005781;stroke-linecap:butt;stroke-linejoin:miter;stroke-miterlimit:4;stroke-opacity:1;stroke-dasharray:none;marker-start:url(#Arrow1Mstart);marker-end:url(#Arrow1Mend)"
       d="m 294.88934,783.29574 0,145.13385 133.72731,0"
       id="path4681"
       inkscape:connector-curvature="0" />
    <path
       style="fill:none;stroke:#000000;stroke-width:0.63070863;stroke-linecap:butt;stroke-linejoin:miter;stroke-miterlimit:4;stroke-opacity:1;stroke-dasharray:none"
       d="m 344.41796,928.42959 0,-132.14689"
       id="path5501"
       inkscape:connector-curvature="0" />
    <path
       style="fill:none;stroke:#000000;stroke-width:0.63055432px;stroke-linecap:butt;stroke-linejoin:miter;stroke-opacity:1"
       d="m 393.9466,928.42959 0,-132.14689 0,0 0,0"
       id="path5503"
       inkscape:connector-curvature="0" />
    <path
       style="fill:none;stroke:#000000;stroke-width:0.63055432px;stroke-linecap:butt;stroke-linejoin:miter;stroke-opacity:1"
       d="m 294.88934,859.89416 133.72731,0"
       id="path5505"
       inkscape:connector-curvature="0" />
    <text
       xml:space="preserve"
       style="font-size:8.29878998px;font-style:normal;font-variant:normal;font-weight:normal;font-stretch:normal;text-align:start;line-height:125%;letter-spacing:0px;word-spacing:0px;writing-mode:lr-tb;text-anchor:start;fill:#000000;fill-opacity:1;stroke:none;font-family:Sans;-inkscape-font-specification:Sans"
       x="410.38901"
       y="594.31091"
       id="text5540"
       sodipodi:linespacing="125%"
       transform="scale(0.69156584,1.4459939)"><tspan
         sodipodi:role="line"
         id="tspan5542"
         x="410.38901"
         y="594.31091">$t_s$</tspan></text>
    <text
       xml:space="preserve"
       style="font-size:12px;font-style:normal;font-variant:normal;font-weight:normal;font-stretch:normal;text-align:start;line-height:125%;letter-spacing:0px;word-spacing:0px;writing-mode:lr-tb;text-anchor:start;fill:#000000;fill-opacity:1;stroke:none;font-family:Sans;-inkscape-font-specification:Sans"
       x="276.37796"
       y="804.33069"
       id="text5544"
       sodipodi:linespacing="125%"><tspan
         sodipodi:role="line"
         id="tspan5546"
         x="276.37796"
         y="804.33069">$t$</tspan></text>
    <text
       xml:space="preserve"
       style="font-size:12px;font-style:normal;font-variant:normal;font-weight:normal;font-stretch:normal;text-align:start;line-height:125%;letter-spacing:0px;word-spacing:0px;writing-mode:lr-tb;text-anchor:start;fill:#000000;fill-opacity:1;stroke:none;font-family:Sans;-inkscape-font-specification:Sans"
       x="411.37009"
       y="942.40942"
       id="text5548"
       sodipodi:linespacing="125%"><tspan
         sodipodi:role="line"
         id="tspan5550"
         x="411.37009"
         y="942.40942">$x$</tspan></text>
    <path
       sodipodi:type="arc"
       style="color:#000000;fill:none;stroke:#00c806;stroke-width:0.70866144;stroke-linecap:butt;stroke-linejoin:miter;stroke-miterlimit:4;stroke-opacity:1;stroke-dasharray:none;stroke-dashoffset:0;marker:none;visibility:visible;display:inline;overflow:visible;enable-background:accumulate"
       id="path5900"
       sodipodi:cx="346.9736"
       sodipodi:cy="121.71665"
       sodipodi:rx="2.9211996"
       sodipodi:ry="2.9211996"
       d="m 349.8948,121.71665 a 2.9211996,2.9211996 0 1 1 -5.8424,0 2.9211996,2.9211996 0 1 1 5.8424,0 z"
       transform="translate(-31.894946,737.76)" />
  </g>
</svg>
