<?xml version="1.0" encoding="UTF-8" standalone="no"?>
<!-- Created with Inkscape (http://www.inkscape.org/) -->

<svg
   xmlns:dc="http://purl.org/dc/elements/1.1/"
   xmlns:cc="http://creativecommons.org/ns#"
   xmlns:rdf="http://www.w3.org/1999/02/22-rdf-syntax-ns#"
   xmlns:svg="http://www.w3.org/2000/svg"
   xmlns="http://www.w3.org/2000/svg"
   xmlns:sodipodi="http://sodipodi.sourceforge.net/DTD/sodipodi-0.dtd"
   xmlns:inkscape="http://www.inkscape.org/namespaces/inkscape"
   width="453.5433"
   height="340.15747"
   id="svg2"
   sodipodi:version="0.32"
   inkscape:version="0.48.4 r9939"
   sodipodi:docname="wessa-seq04.svg"
   version="1.0">
  <defs
     id="defs4">
    <marker
       inkscape:stockid="Arrow1Mstart"
       orient="auto"
       refY="0"
       refX="0"
       id="Arrow1Mstart"
       style="overflow:visible">
      <path
         inkscape:connector-curvature="0"
         id="path4693"
         d="M 0,0 5,-5 -12.5,0 5,5 0,0 z"
         style="fill-rule:evenodd;stroke:#000000;stroke-width:1pt"
         transform="matrix(0.4,0,0,0.4,4,0)" />
    </marker>
    <marker
       inkscape:stockid="Arrow1Mend"
       orient="auto"
       refY="0"
       refX="0"
       id="Arrow1Mend"
       style="overflow:visible">
      <path
         inkscape:connector-curvature="0"
         id="path4696"
         d="M 0,0 5,-5 -12.5,0 5,5 0,0 z"
         style="fill-rule:evenodd;stroke:#000000;stroke-width:1pt"
         transform="matrix(-0.4,0,0,-0.4,-4,0)" />
    </marker>
  </defs>
  <sodipodi:namedview
     id="base"
     pagecolor="#ffffff"
     bordercolor="#666666"
     borderopacity="1.0"
     inkscape:pageopacity="0.0"
     inkscape:pageshadow="2"
     inkscape:zoom="1.540463"
     inkscape:cx="226.77165"
     inkscape:cy="170.07874"
     inkscape:document-units="mm"
     inkscape:current-layer="layer1"
     inkscape:window-width="1916"
     inkscape:window-height="1041"
     inkscape:window-x="0"
     inkscape:window-y="18"
     width="12.8cm"
     height="9.6cm"
     units="cm"
     showgrid="true"
     grid_units="mm"
     inkscape:object-paths="false"
     inkscape:grid-points="true"
     inkscape:grid-bbox="true"
     inkscape:guide-points="true"
     showguides="true"
     inkscape:guide-bbox="true"
     inkscape:window-maximized="0">
    <sodipodi:guide
       orientation="vertical"
       position="56.476527"
       id="guide3573" />
    <sodipodi:guide
       orientation="horizontal"
       position="11.035643"
       id="guide3579" />
    <sodipodi:guide
       orientation="horizontal"
       position="24.018753"
       id="guide3886" />
    <sodipodi:guide
       orientation="horizontal"
       position="285.62841"
       id="guide3988" />
    <sodipodi:guide
       orientation="horizontal"
       position="303.15561"
       id="guide4081" />
    <inkscape:grid
       id="GridFromPre046Settings"
       type="xygrid"
       originx="0px"
       originy="0px"
       spacingx="2mm"
       spacingy="2mm"
       color="#3f3fff"
       empcolor="#3f3fff"
       opacity="0.15"
       empopacity="0.38"
       empspacing="5" />
  </sodipodi:namedview>
  <metadata
     id="metadata7">
    <rdf:RDF>
      <cc:Work
         rdf:about="">
        <dc:format>image/svg+xml</dc:format>
        <dc:type
           rdf:resource="http://purl.org/dc/dcmitype/StillImage" />
        <dc:title></dc:title>
      </cc:Work>
    </rdf:RDF>
  </metadata>
  <g
     inkscape:label="Layer 1"
     inkscape:groupmode="layer"
     id="layer1"
     transform="translate(4.149475e-6,-698.0315)">
    <path
       style="fill:none;stroke:#0000ff;stroke-width:0.91185552;stroke-linecap:square;stroke-linejoin:round"
       d="m 281.99292,810.36828 0,1.3634 -2.00484,0 0,0.44442 -2.00485,0 0,0.15911 2.00485,0 0,0.23182 2.00484,0 0,1.45121 -2.00484,0 0,0.27022 -2.00485,0 0,0.0247 0,0 2.00485,0 0,0.46636 -2.00485,0 0,0.56925 -2.00485,0 0,0.47321 2.00485,0 0,0.31136 4.00969,0.008 0,0.14542 -2.00484,0 0,0.90253 2.00484,0 0,0.39503 -4.00969,0.14403 0,0.14814 2.00485,0 0,1.56094 2.00484,0 0,2.45665 2.00485,0 0,0.26335 -2.00485,0 0,0.34154 -2.00484,0 0,0.0344 0,0 2.00484,0 0,1.05891 -2.00484,0 0,0.99858 2.00484,0 0,0.73796 -4.00969,0.0205 0,0.16596 2.00485,0 0,0.59941 -2.00485,0 0,0.0987 0,0 2.00485,0 0,0.18516 -4.0097,0.081 0,0.13033 -4.00969,0.14812 0,0.11933 2.00484,0 0,0.73249 -2.00484,0 0,0.62682 2.00484,0 0,0.27709 -2.00484,0 0,0.45538 2.00484,0 0,1.08224 2.00485,0 0,0.28668 -4.00969,0.12893 0,0.37995 -2.00485,0 0,0.15638 2.00485,0 0,0.86141 2.00484,0 0,0.29352 -2.00484,0 0,1.18648 2.00484,0 0,0.15773 -2.00484,0 0,0.25788 4.00969,0.059 0,1.0356 2.00485,0 0,0.25788 2.00485,0 0,0.29215 2.00484,0 0,0.61176 -2.00484,0 0,0.0616 0,0 4.00969,0.1084 0,0.0603 2.00484,0 0,0.48146 -2.00484,0 0,1.3593 -2.00485,0 0,0.19614 -2.00484,0 0,2.10961 -2.00485,0 0,0.0576 0,0 2.00485,0 0,1.05205 2.00484,0 0,0.33469 2.00485,0 0,1.04657 -2.00485,0 0,0.51986 4.00969,0.0919 0,0.22084 2.00502,0 0,0.68994 -2.00502,0 0,0.23182 2.00502,0 0,0.25788 -2.00502,0 0,0.6433 2.00502,0 0,0.6529 -2.00502,0 0,0.17833 -2.00484,0 0,0.0974 0,0 2.00484,0 0,1.25231 -2.00484,0 0,0.11247 0,0 2.00484,0 0,1.20432 2.00502,0 0,0.66524 2.00485,0 0,1.22076 -2.00485,0 0,0.1605 2.00485,0 0,0.25103 2.00484,0 0,0.76948 2.00486,0 0,0.2222 -2.00486,0 0,0.21949 2.00486,0 0,0.18241 2.00485,0 0,0.41015 -4.00971,0.0344 0,0.66662 -2.00484,0 0,1.28934 -2.00485,0 0,0.68035 2.00485,0 0,0.0576 0,0 -2.00485,0 0,0.037 0,0 2.00485,0 0,0.0987 0,0 -2.00485,0 0,0.82573 2.00485,0 0,1.00542 -2.00485,0 0,0.0384 0,0 2.00485,0 0,0.17144 -2.00485,0 0,1.13574 2.00485,0 0,0.21535 4.0097,0.13441 0,0.0755 -2.00486,0 0,0.17694 -2.00484,0 0,0.28668 2.00484,0 0,0.29491 2.00486,0 0,1.6885 -2.00486,0 0,0.22496 2.00486,0 0,0.34428 -2.00486,0 0,0.26884 -2.00484,0 0,0.203 2.00484,0 0,0.42796 -4.00969,0.0466 0,0.23729 -2.00502,0 0,0.36762 2.00502,0 0,0.39229 4.00969,0.008 0,1.27565 -2.00484,0 0,1.5582 2.00484,0 0,2.02182 -2.00484,0 0,0.53357 -2.00485,0 0,0.28667 -2.00502,0 0,0.2085 2.00502,0 0,0.15636 -2.00502,0 0,0.0549 0,0 2.00502,0 0,0.9478 -2.00502,0 0,0.23182 -2.00484,0 0,0.17968 2.00484,0 0,0.66937 4.00987,0.096 0,0.0837 -2.00485,0 0,1.20706 -2.00502,0 0,1.29622 2.00502,0 0,1.09732 -2.00502,0 0,1.48032"
       id="path4671"
       inkscape:connector-curvature="0" />
    <path
       style="fill:none;stroke:#0000ff;stroke-width:0.91185552;stroke-linecap:square;stroke-linejoin:round"
       d="m 294.00565,810.36611 0,0.0393 -2.00484,0 0,1.00543 4.00969,0.0534 0,2.03965 2.00502,0 0,0.35115 2.00486,0 0,0.27433 -2.00486,0 0,0.20575 4.00969,0.0164 0,0.51163 -2.00483,0 0,0.49379 -2.00486,0 0,1.33327 2.00486,0 0,0.50202 2.00483,0 0,0.41012 -4.00969,0.12619 0,0.40191 2.00486,0 0,0.358 -2.00486,0 0,0.16458 2.00486,0 0,0.0947 0,0 -2.00486,0 0,0.16598 2.00486,0 0,0 0,0 -4.00988,0.0987 0,2.10961 -2.00485,0 0,0.19615 8.01956,0.11795 0,0.16597 -4.00969,0.0508 0,0.2373 -2.00502,0 0,0.68582 2.00502,0 0,1.04658 -2.00502,0 0,1.0891 2.00502,0 0,0.27844 -2.00502,0 0,0.0755 0,0 4.00988,0.002 -2.00486,0.11246 0,0.32509 -2.00502,0 0,1.08771 2.00502,0 0,0.44443 2.00486,0 0,1.57467 -2.00486,0 0,0.33604 -2.00502,0 0,0.52261 -2.00485,0 0,0.2565 2.00485,0 0,1.04931 2.00502,0 0,0.33195 2.00486,0 0,0.43892 2.00483,0 0,1.10282 -2.00483,0 0,1.25231 2.00483,0 0,0.21811 2.00485,0 0,0.12893 0,0 -2.00485,0 0,0.29628 4.0097,0.0151 0,0.36624 2.00484,0 0,0.43618 2.00486,0 0,0.38544 2.00485,0 0,0.0741 0,0 -2.00485,0 0,0.74343 -2.00486,0 0,0.1015 0,0 2.00486,0 0,0.71189 -2.00486,0 0,1.01914 -2.00484,0 0,0.19066 -2.00485,0 0,0.0713 0,0 2.00485,0 0,0.37584 -2.00485,0 0,0.54728 -2.00485,0 0,0.25926 -2.00483,0 0,0.0192 0,0 2.00483,0 0,1.29758 -2.00483,0 0,0.3237 -2.00486,0 0,0.0177 0,0 2.00486,0 0,0.95741 -2.00486,0 0,0.58846 4.00969,0.0411 0,0.24827 2.00485,0 0,0.38681 2.00485,0 0,0.15773 -4.0097,0.0673 0,0.7681 -2.00483,0 0,0.11522 0,0 2.00483,0 0,1.50197 2.00485,0 0,0.13852 0,0 -2.00485,0 0,0.10424 0,0 2.00485,0 0,0.56238 2.00485,0 0,0.15498 -2.00485,0 0,0.68721 6.01455,0.0878 0,0.59666 -2.00486,0 0,0.27022 2.00486,0 0,0.7215 2.00485,0 0,0.56786 -4.00971,0.0384 0,0.45952 -2.00484,0 0,1.24546 -2.00485,0 0,2.8846 2.00485,0 0,0.38268 2.00484,0 0,0.31961 2.00486,0 0,0.68309 -2.00486,0 0,0.24962 -2.00484,0 0,0.19342 -4.0097,0.0685 0,0.90805 4.0097,0.0192 -2.00485,0.13168 0,0.002 -2.00485,0 0,0.62549 2.00485,0 0,1.20704 2.00485,0 0,0.79284 -8.01939,0.13167 0,0.65839 2.00486,0 0,0.0563 0,0 -2.00486,0 0,0.26747 2.00486,0 0,0.21947 2.00484,0 0,0.57473 -2.00484,0 0,1.15354 2.00484,0 0,1.09185 -4.0097,0.048 0,0.51712 4.0097,0.10292 0,0.085 2.00485,0 0,0.41836 -2.00485,0 0,0.12755 0,0 2.00485,0 0,0.20165 2.00485,0 0,0.0411 0,0 -2.00485,0 0,0.74345 2.00485,0 0,1.29349 -4.0097,0.0768 0,0.34703 -2.00484,0 0,0.81612 4.00969,0.1358 0,0.11115 -2.00485,0 0,0.34564 2.00485,0 0,0.43206 -2.00485,0 0,0.0164 0,0 2.00485,0 0,0.7544 2.00485,0 0,0.022 0,0 -2.00485,0 0,1.59387 2.00485,0 0,1.53353 -2.00485,0 0,0.20026 -2.00485,0 0,0.41423 2.00485,0 0,0.51163 2.00485,0 0,0.38407 -2.00485,0 0,0.29215 2.00485,0 0,0.31823 -2.00485,0 0,1.07537 2.00485,0 0,0.4086"
       id="path4635"
       inkscape:connector-curvature="0" />
    <path
       style="fill:none;stroke:#0000ff;stroke-width:0.91185552;stroke-linecap:square;stroke-linejoin:round"
       d="m 327.08757,810.35341 0,0.0721 2.00485,0 0,0.65839 2.00485,0 0,0.18106 -4.0097,0.01 0,0.31959 2.00485,0 0,0.22495 2.00485,0 0,1.04932 2.00484,0 0,0.15636 -2.00484,0 0,0.0549 0,0 2.00484,0 0,1.36891 2.00485,0 0,0.12345 0,0 -2.00485,0 0,1.47453 -2.00484,0 0,0.17968 -2.00485,0 0,0.12482 0,0 8.01955,0.13579 0,0.51163 2.00486,0 0,0.75716 -2.00486,0 0,0.42932 4.0097,0.0397 0,0.39229 2.00486,0 0,0.33607 2.00484,0 0,0.39503 -2.00484,0 0,1.15219 -2.00486,0 0,0.20987 -2.00484,0 0,0.17694 -2.00486,0 0,1.99165 -2.00501,0 0,1.40731 2.00501,0 0,0.64468 2.00486,0 0,0.23319 -2.00486,0 0,0.36897 2.00486,0 0,0.23044 -2.00486,0 0,0.0974 0,0 2.00486,0 0,0.11664 0,0 -2.00486,0 0,0.65976 2.00486,0 0,2.56362 -2.00486,0 0,0.56513 -2.00501,0 0,0.17008 2.00501,0 0,1.2537 -2.00501,0 0,0.21535 -4.00969,0.0123 0,0.35527 2.00484,0 0,0.49379 -2.00484,0 0,0.82573 6.0147,0.0713 0,0.13855 -4.00986,0.13853 0,0.13717 2.00485,0 0,0.97661 -2.00485,0 0,0.32097 2.00485,0 0,0.0576 0,0 -2.00485,0 0,0.46499 -2.00484,0 0,0.31823 2.00484,0 0,1.00678 2.00485,0 0,0.68173 2.00501,0 0,0.01 0,0 -2.00501,0 0,0.40327 -2.00485,0 0,1.05344 -2.00484,0 0,1.25232 2.00484,0 0,0.39366 2.00485,0 0,1.15219 2.00501,0 0,1.16317 -2.00501,0 0,1.30307 4.00987,0.0384 0,1.694 -2.00486,0 0,0.20849 -2.00501,0 0,0.0234 0,0 2.00501,0 0,1.45396 2.00486,0 0,0.40188 -2.00486,0 0,0.39779 -2.00501,0 0,0.16597 -2.00485,0 0,0.561 2.00485,0 0,1.04933 -2.00485,0 0,0.47872 4.00986,0.0576 0,0.98073 2.00486,0 0,0.63372 -2.00486,0 0,0.75167 2.00486,0 0,0.43481 2.00484,0 0,0.0768 0,0 -2.00484,0 0,1.17413 -2.00486,0 0,1.20705 2.00486,0 0,2.3277 -2.00486,0 0,0.76128 -2.00501,0 0,0.19342 -2.00485,0 0,0.18653 2.00485,0 0,0.59666 2.00501,0 0,0.88198 -2.00501,0 0,0.096 0,0 2.00501,0 0,0.51984 -4.00986,0.0247 0,0.77087 -2.00484,0 0,0.2373 -2.00485,0 0,0.63918 -2.00485,0 0,1.26193 2.00485,0 0,0.12893 0,0 -2.00485,0 0,0.35664 -2.00485,0 0,0.10149 0,0 2.00485,0 0,0.39091 -2.00485,0 0,0.24828 -2.00485,0 0,0.20987 2.00485,0 0,0.27706 2.00485,0 0,0.41561 -2.00485,0 0,0.48147 2.00485,0 0,0.84493 -2.00485,0 0,1.24547 -4.00969,0.0411 0,0.21946 2.00484,0 0,0.34018 -2.00484,0 0,0.24964 -2.00485,0 0,0.83122 4.00969,0.0494 0,0.13304 2.00485,0 0,1.44162 2.00485,0 0,0.39229 -2.00485,0 0,0.0878 0,0 2.00485,0 0,0.75167 -2.00485,0 0,0.49928 -2.00485,0 0,0.25516 4.0097,0.002 0,1.14532 4.0097,0.12894 0,0.10972 2.00484,0 0,0.30588 -2.00484,0 0,0.58708 6.0147,0.11389 0,0.88746 -2.00501,0 0,0.26345"
       id="path4623"
       inkscape:connector-curvature="0" />
    <path
       style="fill:none;stroke:#0000ff;stroke-width:0.91185552;stroke-linecap:square;stroke-linejoin:round"
       d="m 274.69892,810.37078 0,0.26273 -2.00485,0 0,0.8998 -2.00485,0 0,0.513 2.00485,0 0,0.46774 2.00485,0 0,0.0549 0,0 -4.0097,0.0357 0,0.20026 -2.00486,0 0,2.41412 2.00486,0 0,0.13854 0,0 -2.00486,0 0,0.55964 -2.00483,0 0,0.37994 2.00483,0 0,0.61999 -2.00483,0 0,0.58707 4.00969,0.14402 0,0.95743 -4.00969,0.0727 0,0.10841 2.00483,0 0,0.88335 -2.00483,0 0,0.31822 -2.00485,0 0,0.25238 -2.00502,0 0,1.55545 -4.0097,0.0521 0,0.20163 2.00486,0 0,0.99582 2.00484,0 0,0.70641 -2.00484,0 0,0.16459 -2.00486,0 0,0.015 0,0 2.00486,0 0,0.1358 0,0 -2.00486,0 0,0.52809 2.00486,0 0,0.0563 0,0 -2.00486,0 0,1.63364 -2.00484,0 0,1.12751 2.00484,0 0,0.43756 2.00486,0 0,0.26473 -2.00486,0 0,0.46362 4.0097,0.0177 0,0.27296 -2.00484,0 0,0.17283 -2.00486,0 0,0.35115 2.00486,0 0,1.39497 -2.00486,0 0,0.33057 2.00486,0 0,0.4499 -2.00486,0 0,0.66113 2.00486,0 0,0.24142 -2.00486,0 0,0.74892 2.00486,0 0,0.10018 0,0 -2.00486,0 0,0.46499 2.00486,0 0,0.97525 -2.00486,0 0,0.14128 0,0 2.00486,0 0,0.38544 4.00986,0.005 0,0.18106 4.00968,0.13304 0,0.23731 -2.00483,0 0,0.34839 -2.00485,0 0,0.3388 -2.00502,0 0,1.4183 -2.00484,0 0,2.42783 2.00484,0 0,0.92037 2.00502,0 0,0.15638 -4.00986,0.0823 0,0.96426 -2.00486,0 0,1.81196 -2.00484,0 0,0.74345 2.00484,0 0,0.51299 -2.00484,0 0,0.27708 -4.0097,0.12071 0,0.048 -2.00485,0 0,0.32234 2.00485,0 0,1.21117 -2.00485,0 0,2.98748 -2.00483,0 0,0.54728 -2.00486,0 0,2.42098 -2.00485,0 0,0.0152 0,0 2.00485,0 0,2.94493 -2.00485,0 0,0.36076 2.00485,0 0,1.01639 -2.00485,0 0,0.15774 2.00485,0 0,0.60215 2.00486,0 0,0.16049 -2.00486,0 0,0.77773 4.00969,0.0219 0,1.98617 -4.00969,0.0618 0,0.8957 -2.00485,0 0,0.2606 4.00971,0.14129 0,2.16857 -2.00486,0 0,0.62274 -2.00485,0 0,0.50752 -2.00485,0 0,0.0974 0,0 2.00485,0 0,2.38941 -2.00485,0 0,1.11654 2.00485,0 0,0.10566 0,0 -2.00485,0 0,0.47733 2.00485,0 0,0.33744 2.00485,0 0,0.39503 2.00486,0 0,0.36486 2.00483,0 0,2.11783 -2.00483,0 0,0.43208 2.00483,0 0,0.22221 -2.00483,0 0,0.28805 2.00483,0 0,0.31 -2.00483,0 0,0.70502 2.00483,0 0,0.23456 -2.00483,0 0,0.71601 2.00483,0 0,0.64605 4.0097,0.11246 0,0.68504"
       id="path4617"
       inkscape:connector-curvature="0" />
    <path
       style="fill:none;stroke:#0000ff;stroke-width:0.91185552;stroke-linecap:square;stroke-linejoin:round"
       d="m 229.73156,810.30212 0,0.097 0,0 -2.00485,0 0,0.007 0,0 2.00485,0 0,0.27844 -2.00485,0 0,1.30994 -2.00485,0 0,1.00131 -2.00484,0 0,0.21535 2.00484,0 0,0.34429 -2.00484,0 0,0.0508 0,0 4.00969,0.0741 0,0.1303 -2.00485,0 0,0.76128 -2.00484,0 0,0.27159 4.00969,0.0755 0,1.2866 2.00485,0 0,0.47323 2.00484,0 0,0.0919 0,0 -2.00484,0 0,1.10418 2.00484,0 0,0.38133 -2.00484,0 0,0.46636 -2.00485,0 0,0.26335 2.00485,0 0,1.0164 2.00484,0 0,1.4471 2.00485,0 0,0.36074 -2.00485,0 0,0.32372 -2.00484,0 0,0.27295 2.00484,0 0,0.7023 -2.00484,0 0,0.15088 0,0 2.00484,0 0,0.32371 -2.00484,0 0,0.90941 -2.00485,0 0,0.28119 -2.00485,0 0,1.48276 2.00485,0 0,0.70092 -2.00485,0 0,0.33604 -2.00484,0 0,0 0,0 2.00484,0 0,1.22215 2.00485,0 0,0.0439 0,0 -4.00969,0.13991 0,0.56924 -2.00485,0 0,0.47596 -2.00485,0 0,0.98485 -2.00485,0 0,1.46356 2.00485,0 0,0.0947 0,0 -2.00485,0 0,0.18518 4.0097,0.1152 0,1.42378 2.00485,0 0,1.04658 2.00484,0 0,0.0261 0,0 -2.00484,0 0,1.77629 2.00484,0 0,0.16734 -2.00484,0 0,0.14129 0,0 2.00484,0 0,0.73382 2.00485,0 0,0.1797 2.00485,0 0,0.15774 -2.00485,0 0,0.87374 -2.00485,0 0,0.096 0,0 2.00485,0 0,0.20574 -2.00485,0 0,0.17146 2.00485,0 0,0.60353 6.01454,0.11247 0,0.0741 -2.00485,0 0,0.21261 -2.00484,0 0,0.35252 -2.00485,0 0,0.22357 2.00485,0 0,0.24689 -2.00485,0 0,0.94919 -2.00485,0 0,1.16179 -2.00484,0 0,0.52124 2.00484,0 0,0.36485 4.0097,0.0796 0,1.76669 2.00484,0 0,0.32783 2.00485,0 0,0.64056 2.00485,0 0,0.36622 -2.00485,0 0,0.94508 -2.00485,0 0,0.0177 0,0 4.0097,0.0439 0,0.11521 -2.00485,0 0,0.36348 2.00485,0 0,0.081 0,0 -2.00485,0 0,0.15363 4.00986,0.12893 0,0.33607 2.00485,0 0,0.008 0,0 -2.00485,0 0,0.19751 2.00485,0 0,0.31959 -2.00485,0 0,1.0795 -4.00986,0.0563 0,0.62136 -2.00485,0 0,0.0274 0,0 2.00485,0 0,0.30176 2.00485,0 0,0.71052 -2.00485,0 0,0.77088 2.00485,0 0,0.19888 2.00501,0 0,0.72835 2.00485,0 0,0.21809 -2.00485,0 0,0.63782 -2.00501,0 0,0.13169 0,0 2.00501,0 0,0.0865 0,0 -4.00986,0.0892 0,0.38133 -2.00485,0 0,0.86276 -2.00484,0 0,0.23457 -2.00485,0 0,0.17693 -2.00485,0 0,1.18374 -4.00969,0.0493 0,0.33332 6.01454,0.14539 0,0.0755 2.00485,0 0,0.55963 -2.00485,0 0,0.34293 2.00485,0 0,0.25786 2.00484,0 0,0.51987 2.00485,0 0,0.0234 0,0 -2.00485,0 0,0.94644 2.00485,0 0,0.47185 -2.00485,0 0,1.01913 2.00485,0 0,0.56513 -2.00485,0 0,1.69263 -4.00969,0.0453 0,0.13991 -2.00485,0 0,0.19477 -2.00484,0 0,0.23455 2.00484,0 0,0.24827 -2.00484,0 0,1.35382 -2.00485,0 0,0.79694 2.00485,0 0,0.49655 -2.00485,0 0,0.22768 2.00485,0 0,0.24553 -2.00485,0 0,0.41836 -2.00485,0 0,0.0192 0,0 2.00485,0 0,0.513 -2.00485,0 0,1.85037 2.00485,0 0,0.0493 0,0 -2.00485,0 0,0.75442 2.00485,0 0,0.19477 -2.00485,0 0,0.10423 0,0 2.00485,0 0,0.58844 2.00485,0 0,0.2757 -2.00485,0 0,0.57609 2.00485,0 0,0.72836 -2.00485,0 0,0.01 0,0 2.00485,0 0,0.8367 -2.00485,0 0,0.1646 2.00485,0 0,0.25376 6.01454,0.12207 0,0.33743 -2.00485,0 0,0.13854 0,0 2.00485,0 0,0.0878 0,0 -2.00485,0 0,0.15014"
       id="path4611"
       inkscape:connector-curvature="0" />
    <path
       style="fill:none;stroke:#000000;stroke-width:0.63005781;stroke-linecap:butt;stroke-linejoin:miter;stroke-miterlimit:4;stroke-opacity:1;stroke-dasharray:none;marker-start:url(#Arrow1Mstart);marker-end:url(#Arrow1Mend)"
       d="m 209.50352,733.34305 0,145.13385 133.72731,0"
       id="path4681"
       inkscape:connector-curvature="0" />
    <path
       style="fill:none;stroke:#000000;stroke-width:0.65467811;stroke-linecap:butt;stroke-linejoin:miter;stroke-miterlimit:4;stroke-opacity:1;stroke-dasharray:none"
       d="m 259.04413,878.46491 0,-142.45091"
       id="path5501"
       inkscape:connector-curvature="0" />
    <path
       style="fill:none;stroke:#000000;stroke-width:0.65451795px;stroke-linecap:butt;stroke-linejoin:miter;stroke-opacity:1"
       d="m 308.5488,878.46491 0,-142.45091 0,0 0,0"
       id="path5503"
       inkscape:connector-curvature="0" />
    <text
       xml:space="preserve"
       style="font-size:8.29878998px;font-style:normal;font-variant:normal;font-weight:normal;font-stretch:normal;text-align:start;line-height:125%;letter-spacing:0px;word-spacing:0px;writing-mode:lr-tb;text-anchor:start;fill:#000000;fill-opacity:1;stroke:none;font-family:Sans;-inkscape-font-specification:Sans"
       x="286.92163"
       y="559.76538"
       id="text5540"
       sodipodi:linespacing="125%"
       transform="scale(0.69156584,1.4459939)"><tspan
         sodipodi:role="line"
         id="tspan5542"
         x="286.92163"
         y="559.76538">$t_s$</tspan></text>
    <text
       xml:space="preserve"
       style="font-size:12px;font-style:normal;font-variant:normal;font-weight:normal;font-stretch:normal;text-align:start;line-height:125%;letter-spacing:0px;word-spacing:0px;writing-mode:lr-tb;text-anchor:start;fill:#000000;fill-opacity:1;stroke:none;font-family:Sans;-inkscape-font-specification:Sans"
       x="177.16534"
       y="775.98425"
       id="text5544"
       sodipodi:linespacing="125%"><tspan
         sodipodi:role="line"
         id="tspan5546"
         x="177.16534"
         y="775.98425">$t$</tspan></text>
    <text
       xml:space="preserve"
       style="font-size:12px;font-style:normal;font-variant:normal;font-weight:normal;font-stretch:normal;text-align:start;line-height:125%;letter-spacing:0px;word-spacing:0px;writing-mode:lr-tb;text-anchor:start;fill:#000000;fill-opacity:1;stroke:none;font-family:Sans;-inkscape-font-specification:Sans"
       x="325.98425"
       y="892.45673"
       id="text5548"
       sodipodi:linespacing="125%"><tspan
         sodipodi:role="line"
         id="tspan5550"
         x="325.98425"
         y="892.45673">$x$</tspan></text>
    <path
       inkscape:connector-curvature="0"
       id="path5902"
       d="m 214.78478,742.18663 0,0.51838 -2.00629,0 0,0.36234 -2.00627,0 0,0.16134 2.00627,0 0,0.15999 2.00629,0 0,0.60163 2.00628,0 0,1.37416 2.00628,0 0,0.14083 0,0 -2.00628,0 0,0.20374 2.00628,0 0,0.45394 2.00628,0 0,0.20511 4.01256,0.007 0,1.91291 -2.00628,0 0,2.90012 2.00628,0 0,0.19689 2.00645,0 0,0.79169 2.00628,0 0,0.76297 2.00627,0 0,1.1636 2.00628,0 0,1.83222 2.00628,0 0,0.74794 2.00629,0 0,1.11437 -2.00629,0 0,0.0274 0,0 2.00629,0 0,1.33999 -2.00629,0 0,0.44029 -2.00628,0 0,0.16545 2.00628,0 0,0.25294 2.00629,0 0,0.46764 2.00627,0 0,0.28577 2.00628,0 0,0.66041 2.00629,0 0,0.25707 -2.00629,0 0,0.38832 -2.00628,0 0,0.27757 2.00628,0 0,0.30902 2.00629,0 0,0.49224 2.00628,0 0,0.79169 -4.01257,0.0738 0,1.29623 -2.00628,0 0,0.0546 0,0 2.00628,0 0,0.0204 0,0 -2.00628,0 0,1.05285 -2.00627,0 0,0.2092 2.00627,0 0,8.2e-4 0,0 -2.00627,0 0,0.45394 -2.00629,0 0,0.81357 -2.00628,0 0,0.89697 -2.00628,0 0,1.38238 2.00628,0 0,1.11573 -2.00628,0 0,0.65087 2.00628,0 0,0.24337 2.00628,0 0,0.30355 -2.00628,0 0,0.29945 -2.00628,0 0,0.335 -2.00627,0 0,0.39789 2.00627,0 0,0.10261 0,0 -2.00627,0 0,0.17775 2.00627,0 0,2.90285 -2.00627,0 0,0.38285 -2.00628,0 0,3.16948 -2.00645,0 0,0.83135 2.00645,0 0,0.27208 2.00628,0 0,0.39106 -2.00628,0 0,0.0397 0,0 2.00628,0 0,0.0151 0,0 -2.00628,0 0,0.32543 -2.00645,0 0,0.21739 -4.01256,0.14358 0,1.04874 -2.00628,0 0,0.21741 -2.00628,0 0,0.33226 -2.00628,0 0,1.71738 -2.00629,0 0,0.28577 2.00629,0 0,0.53599 2.00628,0 0,0.41977 -6.01884,0.10116 0,0.31861 2.00627,0 0,1.19093 -2.00627,0 0,1.04602 4.01256,0.0261 0,0.14494 2.00628,0 0,0.32816 2.00628,0 0,0.74793 -2.00628,0 0,0.35961 -2.00628,0 0,0.19689 2.00628,0 0,1.2853 2.00628,0 0,0.33226 -2.00628,0 0,2.31079 2.00628,0 0,0.43209 -4.01256,0.14629 0,0.201 -2.00629,0 0,1.65311 2.00629,0 0,0.28442 2.00628,0 0,0.4936 4.01256,0.0383 0,0.35139 2.00628,0 0,1.14857 -2.00628,0 0,1.34682 -2.00628,0 0,1.05559 2.00628,0 0,0.35004 -2.00628,0 0,0.44712 2.00628,0 0,0.2598 2.00628,0 0,0.57016 -4.01256,0.12581 0,0.93114 2.00628,0 0,0.64265 -2.00628,0 0,0.64812 4.01256,0.01 0,0.93799 2.00628,0 0,0.4608 2.00645,0 0,0.43207 2.00628,0 0,0.11354 0,0 -2.00628,0 0,0.19963 -2.00645,0 0,0.0589 0,0 2.00645,0 0,0.64539 2.00628,0 0,0.11377"
       style="fill:none;stroke:#0000ff;stroke-width:0.91074246;stroke-linecap:square;stroke-linejoin:round" />
    <path
       inkscape:connector-curvature="0"
       id="path5904"
       d="m 243.97311,742.2018 0,0.81373 2.00628,0 0,0.23518 4.01255,0.0629 0,0.7493 2.00628,0 0,0.5647 -2.00628,0 0,0.85869 -2.00627,0 0,0.48677 2.00627,0 0,0.0917 0,0 -4.01255,0.0533 0,1.22785 2.00628,0 0,0.82313 -2.00628,0 0,1.24155 2.00628,0 0,0.90244 -2.00628,0 0,0.44575 2.00628,0 0,0.041 0,0 -2.00628,0 0,1.20325 -2.00628,0 0,0.16818 -2.00645,0 0,2.3983 2.00645,0 0,0.84775 -2.00645,0 0,0.0793 0,0 2.00645,0 0,0.31038 -2.00645,0 0,0.51003 4.01273,0.10807 0,0.79442 2.00628,0 0,0.83407 -2.00628,0 0,0.0107 0,0 2.00628,0 0,0.19143 -2.00628,0 0,0.59889 2.00628,0 0,0.74929 2.00627,0 0,0.36235 4.01256,0.10116 0,0.49772 2.00628,0 0,0.41293 -4.01256,0.13264 0,0.64675 2.00628,0 0,1.27709 2.00628,0 0,0.34729 2.00628,0 0,2.00178 2.00628,0 0,0.79715 -2.00628,0 0,1.64765 2.00628,0 0,1.51773 -2.00628,0 0,0.31723 -4.01256,0.0479 0,1.38101 -2.00628,0 0,0.75204 2.00628,0 0,0.89971 -2.00628,0 0,0.13946 0,0 2.00628,0 0,0.89013 -2.00628,0 0,0.0602 0,0 2.00628,0 0,0.0328 0,0 -2.00628,0 0,0.15725 -2.00628,0 0,0.76297 2.00628,0 0,1.45211 -2.00628,0 0,0.90928 2.00628,0 0,0.2338 2.00628,0 0,0.0383 0,0 -2.00628,0 0,0.16956 2.00628,0 0,1.4863 2.00628,0 0,0.7028 2.00628,0 0,0.0629 0,0 -4.01256,0.0424 0,0.19689 -2.00628,0 0,0.0984 0,0 2.00628,0 0,0.46079 2.00628,0 0,0.34184 -2.00628,0 0,0.99268 2.00628,0 0,0.082 0,0 -2.00628,0 0,0.0574 0,0 2.00628,0 0,2.68135 -4.01256,0.0574 0,0.13946 2.00628,0 0,0.0574 0,0 -2.00628,0 0,0.52096 -2.00628,0 0,0.25979 -2.00627,0 0,0.67137 2.00627,0 0,0.1545 2.00628,0 0,0.56061 -2.00628,0 0,0.31311 -2.00627,0 0,0.68231 -2.00628,0 0,0.52915 -2.00628,0 0,0.5989 2.00628,0 0,0.2133 2.00628,0 0,0.48677 -4.01256,0.0287 0,0.36782 2.00628,0 0,1.02003 -4.01273,0.0984 0,0.65632 -2.00628,0 0,0.0218 0,0 2.00628,0 0,0.5989 -4.01256,0.0971 0,0.38559 2.00628,0 0,0.21056 -2.00628,0 0,0.61803 -2.00628,0 0,1.21556 -2.00628,0 0,0.0671 0,0 2.00628,0 0,0.86963 2.00628,0 0,0.74519 2.00628,0 0,0.51548 -2.00628,0 0,0.89561 2.00628,0 0,0.59889 -2.00628,0 0,0.2639 -2.00628,0 0,0.21603 2.00628,0 0,0.18734 -2.00628,0 0,0.51821 2.00628,0 0,0.10117 0,0 -2.00628,0 0,0.35414 2.00628,0 0,0.9927 -4.01256,0.0479 0,0.98858 -2.00629,0 0,0.64675 -4.01255,0.13673 0,0.25843 2.00628,0 0,0.26389 -2.00628,0 0,1.00362 2.00628,0 0,0.97217 -2.00628,0 0,0.55378 2.00628,0 0,0.16272 -2.00628,0 0,1.71053 -2.00628,0 0,0.16544 4.01256,0.0369 0,0.9445"
       style="fill:none;stroke:#0000ff;stroke-width:0.91074246;stroke-linecap:square;stroke-linejoin:round" />
    <path
       inkscape:connector-curvature="0"
       id="path5906"
       d="m 271.82611,742.20031 0,0.10664 2.00628,0 0,0.12716 0,0 -4.01256,0.0546 0,0.21467 2.00628,0 0,0.24476 -2.00628,0 0,0.70281 6.01884,0.13399 0,0.31859 2.00628,0 0,0.31039 2.00629,0 0,0.16818 2.00628,0 0,0.90654 -2.00628,0 0,0.45259 -2.00629,0 0,0.18868 2.00629,0 0,0.28578 -2.00629,0 0,1.08977 -2.00628,0 0,0.40883 2.00628,0 0,0.59205 4.01257,0.0479 0,0.74655 2.00627,0 0,0.25161 -2.00627,0 0,0.21739 2.00627,0 0,1.67499 -4.01255,0.0246 0,0.41977 2.00628,0 0,0.0725 0,0 -2.00628,0 0,1.27572 2.00628,0 0,0.29397 2.00627,0 0,0.54693 -2.00627,0 0,2.45301 2.00627,0 0,0.4348 2.00628,0 0,1.08157 4.01273,0.0452 0,0.21606 -2.00645,0 0,2.67722 -2.00628,0 0,1.27026 -4.01255,0.0602 0,0.41566 2.00627,0 0,0.32406 -2.00627,0 0,0.40063 2.00627,0 0,0.21056 2.00628,0 0,0.15589 -2.00628,0 0,1.01456 2.00628,0 0,0.45531 2.00628,0 0,1.01458 -2.00628,0 0,0.23381 -2.00628,0 0,0.25296 -4.01255,0.0533 0,0.18596 2.00628,0 0,0.4471 2.00627,0 0,0.3856 -2.00627,0 0,2.0592 -2.00628,0 0,0.79716 -2.00629,0 0,0.91474 2.00629,0 0,0.92705 2.00628,0 0,0.16956 2.00627,0 0,0.65359 -2.00627,0 0,1.40424 -2.00628,0 0,0.29535 -2.00629,0 0,0.90381 -2.00628,0 0,0.30765 2.00628,0 0,0.27346 2.00629,0 0,0.59068 2.00628,0 0,0.62078 2.00627,0 0,0.25843 2.00628,0 0,0.32679 -2.00628,0 0,0.57701 -2.00627,0 0,0.51411 -2.00628,0 0,0.11758 0,0 4.01255,0.13673 0,0.0711 -2.00627,0 0,0.30219 -2.00628,0 0,0.58931 2.00628,0 0,0.3186 2.00627,0 0,0.40609 -2.00627,0 0,0.70691 -2.00628,0 0,0.43345 2.00628,0 0,0.98311 -4.01257,0.041 0,0.16682 2.00629,0 0,0.0765 0,0 -2.00629,0 0,0.15998 -4.01256,0.0437 0,0.73426 2.00628,0 0,0.19143 2.00628,0 0,0.0343 0,0 -2.00628,0 0,0.44301 -2.00628,0 0,0.28715 2.00628,0 0,0.0574 0,0 -2.00628,0 0,0.11354 0,0 2.00628,0 0,0.078 0,0 -2.00628,0 0,0.92023 -2.00628,0 0,1.649 -2.00628,0 0,0.0862 0,0 4.01256,0.0356 -2.00628,0.0206 0,0.24612 -2.00628,0 0,0.57428 2.00628,0 0,0.50318 2.00628,0 0,0.31858 4.01256,0.11484 0,1.59705 -2.00628,0 0,0.2174 -2.00628,0 0,0 0,0 4.01256,0.0765 -2.00628,0.0671 0,0.22423 2.00628,0 0,0.35551 2.00629,0 0,0.85321 -2.00629,0 0,1.5574 2.00629,0 0,0.53053 2.00628,0 0,0.15451 2.00627,0 0,0.94482 2.00628,0 0,0.33364 -2.00628,0 0,0.28987 -2.00627,0 0,1.51638 -2.00628,0 0,0.008 0,0 2.00628,0 0,0.041 0,0 -4.01257,0.12579 0,0.14084 -2.00628,0 0,0.26526 2.00628,0 0,0.30491 -2.00628,0 0,0.41568 4.01257,0.13946 0,0.53462 -4.01257,0.0848 2.00628,0.0328 0,0.66998 -2.00628,0 0,0.052 0,0 2.00628,0 0,0.39925 -2.00628,0 0,0.74383 -2.00628,0 0,0.28167 2.00628,0 0,0.35961 -2.00628,0 0,0.45805 2.00628,0 0,0.002 0,0 -4.01256,0.10391 0,0.47583 -2.00628,0 0,1.6996 -2.00645,0 0,0.26253 2.00645,0 0,0.15587 2.00628,0 0,0.83408 2.00628,0 0,0.33773 -2.00628,0 0,0.64402 2.00628,0 0,0.41293 -2.00628,0 0,0.58659 2.00628,0 0,0.10593"
       style="fill:none;stroke:#0000ff;stroke-width:0.91074246;stroke-linecap:square;stroke-linejoin:round" />
    <path
       inkscape:connector-curvature="0"
       id="path5908"
       d="m 302.11671,742.3751 0,0.72032 2.00627,0 0,0.20647 2.00629,0 0,1.27025 4.01257,0.14357 0,1.09934 -2.00628,0 0,0.42798 -2.00629,0 0,0.0164 0,0 2.00629,0 0,0.35961 2.00628,0 0,0.35825 -4.01257,0.12168 0,1.16907 -4.01256,0.12716 0,0.3391 2.00627,0 0,0.56334 2.00629,0 0,0.11354 0,0 -2.00629,0 0,0.31994 -2.00627,0 0,1.01594 -2.00628,0 0,0.38968 -2.00645,0 0,0.78074 -2.00629,0 0,0.5907 -2.00627,0 0,0.33365 -2.00627,0 0,0.1668 2.00627,0 0,0.0917 0,0 -2.00627,0 0,0.54967 -2.00629,0 0,2.36821 -2.00628,0 0,1.57516 2.00628,0 0,0.64129 2.00629,0 0,0.18732 2.00627,0 0,1.48082 2.00627,0 0,0.17366 -2.00627,0 0,0.72469 2.00627,0 0,1.43024 2.00629,0 0,0.2926 2.00645,0 0,0 0,0 -6.01901,0.11626 0,0.0848 2.00627,0 0,0.22562 2.00629,0 0,0.14492 0,0 -4.01256,0.0465 0,0.44164 2.00627,0 0,0.19278 2.00629,0 0,0.29673 2.00645,0 0,0.27484 -2.00645,0 0,0.38558 -2.00629,0 0,0.19827 -2.00627,0 0,0.15997 2.00627,0 0,0.76434 -2.00627,0 0,1.0173 2.00627,0 0,0.44029 2.00629,0 0,0.32405 4.01273,0.14766 0,0.24476 2.00627,0 0,0.26661 2.00629,0 0,0.27759 2.00629,0 0,0.77664 -2.00629,0 0,0.36509 4.01257,0.006 0,1.39879 -2.00628,0 0,0.12305 0,0 2.00628,0 0,1.55741 2.00627,0 0,0.18184 -4.01255,0.13127 0,0.30081 -2.00629,0 0,0.18049 2.00629,0 0,0.23244 2.00628,0 0,0.0944 0,0 -4.01257,0.0533 2.00629,0.0177 0,0.75067 -4.01258,0.1121 0,0.082 -2.00627,0 0,0.85869 -2.00628,0 0,0.79989 4.01255,0.0437 0,0.57019 -2.00627,0 0,0.52642 -2.00628,0 0,0.0589 0,0 2.00628,0 0,0.16545 -2.00628,0 0,1.06515 2.00628,0 0,0.52779 2.00627,0 0,0.38148 -2.00627,0 0,0.24886 2.00627,0 0,0.24885 2.00629,0 0,0.46216 4.01257,0.15041 0,0.0533 -4.01257,0.0396 0,0.12305 -2.00629,0 0,0.56472 -2.00627,0 0,0.2844 2.00627,0 0,0.70691 -2.00627,0 0,1.92111 2.00627,0 0,0.62623 -4.01255,0.12854 0,0.54966 4.01255,0.13538 0,0.2092 -2.00627,0 0,0.50317 -2.00628,0 0,0.63444 -2.00645,0 0,0.32405 2.00645,0 0,0.38013 2.00628,0 0,0.62076 4.01256,0.002 0,0.90518 -2.00629,0 0,0.76571 6.01886,0.10806 0,0.51959 -2.00628,0 0,0.20647 -2.00629,0 0,0.37875 2.00629,0 0,1.02276 2.00628,0 0,0.0875 0,0 -6.01886,0.0698 2.00629,0.0452 0,0.53052 -2.00629,0 0,0.41157 2.00629,0 0,0.68777 2.00629,0 0,0.49497 -4.01258,0.0107 0,0.14219 4.01258,0.12307 0,0.71922 -4.01258,0.14493 0,0.0547 -4.01255,0.093 0,0.60163 2.00628,0 0,1.15948 -2.00628,0 0,0.0301 0,0 2.00628,0 0,0.38147 -2.00628,0 0,0.49634 2.00628,0 0,0.45122 2.00627,0 0,0.0328 0,0 -2.00627,0 0,0.44166 -2.00628,0 0,1.21556 2.00628,0 0,0.093 0,0 -2.00628,0 0,0.0452 0,0 4.01255,0.13538 0,0.83133 2.00629,0 0,0.19827 -4.01256,0.002 2.00627,0.0902 0,0.10937 -2.00627,0 0,0.1928 -2.00628,0 0,0.28987 -2.00645,0 0,0.0602 0,0 4.01273,0.0671 0,0.89424 -2.00628,0 0,0.4184 2.00628,0 0,0.14221 0,0 -2.00628,0 0,0.44438 -2.00645,0 0,0.21467 2.00645,0 0,0.41703 2.00628,0 0,1.17045 2.00627,0 0,0.28166 -2.00627,0 0,0.30629 -4.01273,0.14904 0,0.60574 -2.00629,0 0,0.66588 -2.00627,0 0,0.80811"
       style="fill:none;stroke:#0000ff;stroke-width:0.91074246;stroke-linecap:square;stroke-linejoin:round" />
    <path
       inkscape:connector-curvature="0"
       id="path5910"
       d="m 328.48029,742.07651 0,2.47614 4.01273,0.0793 0,0.39242 4.01257,0.134 0,0.24885 -2.00629,0 0,0.92843 4.01258,0.0574 0,1.01866 2.00628,0 0,0.22972 -2.00628,0 0,0.29807 -2.00629,0 0,0.31038 -2.00629,0 0,0.36918 2.00629,0 0,1.24975 -2.00629,0 0,0.12442 0,0 2.00629,0 0,0.18323 -2.00629,0 0,0.64813 -2.00628,0 0,0.22013 2.00628,0 0,0.87236 -2.00628,0 0,0.96396 -2.00628,0 0,1.30991 2.00628,0 0,0.54693 2.00628,0 0,1.23196 -2.00628,0 0,0.38424 4.01257,0.14629 0,0.32817 2.00629,0 0,0.24474 2.00628,0 0,0.43756 -2.00628,0 0,1.23196 -4.01258,0.0984 0,0.12579 2.00629,0 0,1.41109 -2.00629,0 0,0.36918 2.00629,0 0,0.53326 -2.00629,0 0,0.43072 4.01258,0.11895 0,0.19963 -2.00629,0 0,0.045 0,0 2.00629,0 0,0.22014 2.00628,0 0,0.28576 4.01255,0.10534 0,1.23061 2.00628,0 0,0.0944 0,0 -2.00628,0 0,0.37191 -2.00628,0 0,0.10391 0,0 2.00628,0 0,0.0944 0,0 -2.00628,0 0,0.0315 0,0 4.01256,0.0137 -2.00628,0.0738 0,1.74334 -2.00628,0 0,0.35688 2.00628,0 0,0.54693 -4.01255,0.12579 0,0.84638 2.00627,0 0,0.24612 -2.00627,0 0,0.20919 4.01255,0.006 -2.00628,0.0437 0,0.10664 -2.00627,0 0,0.24337 2.00627,0 0,0.1108 0,0 -2.00627,0 0,0.201 2.00627,0 0,1.82949 -2.00627,0 0,0.63171 2.00627,0 0,0.3049 2.00628,0 0,0.49498 -2.00628,0 0,0.63173 -2.00627,0 0,0.2502 2.00627,0 0,0.22971 -2.00627,0 0,0.49909 2.00627,0 0,0.42524 -2.00627,0 0,0.93799 4.01255,8.1e-4 0,0.37329 2.00628,0 0,0.62897 -2.00628,0 0,0.44985 -2.00628,0 0,0.0232 0,0 2.00628,0 0,0.49908 -2.00628,0 0,1.24427 -2.00627,0 0,0.25707 2.00627,0 0,0.63306 -2.00627,0 0,1.56014 -2.00628,0 0,0.49497 2.00628,0 0,0.12853 0,0 -2.00628,0 0,0.20099 2.00628,0 0,0.18596 -2.00628,0 0,0.40337 2.00628,0 0,1.07745 2.00627,0 0,0.21742 -2.00627,0 0,0.22834 2.00627,0 0,0.16544 -2.00627,0 0,0.35688 -2.00628,0 0,0.69597 -2.00629,0 0,1.97306 -2.00629,0 0,0.98995 2.00629,0 0,0.39106 4.01257,0.0957 0,0.10118 -2.00628,0 0,0.58931 -2.00629,0 0,0.0383 0,0 2.00629,0 0,0.0274 0,0 -4.01258,0.0561 0,0.42387 -4.01256,0.0698 0,0.0917 -4.01273,0.0589 0,0.29261 2.00628,0 0,2.56648 -2.00628,0 0,0.15178 0,0 2.00628,0 0,0.0505 0,0 -2.00628,0 0,0.2092 -2.00628,0 0,0.28577 -4.01255,0.0589 0,0.69459 -2.00628,0 0,0.22425 2.00628,0 0,0.38286 2.00628,0 0,0.44574 2.00627,0 0,0.61804 2.00628,0 0,0.22561 -2.00628,0 0,0.29535 -4.01255,0.0247 0,0.2557 -2.00628,0 0,0.67955 2.00628,0 0,0.9462 -2.00628,0 0,0.2639 -2.00628,0 0,1.01456 2.00628,0 0,0.33089 2.00628,0 0,0.43481 2.00628,0 0,0.7452 2.00627,0 0,0.35413 2.00628,0 0,0.58523 -2.00628,0 0,0.67409 -2.00627,0 0,0.14083 0,0 2.00627,0 0,0.41842 2.00628,0 0,0.68913 -2.00628,0 0,0.21878 2.00628,0 0,0.79441 2.00628,0 0,0.82313 2.00645,0 0,0.14631 0,0 -2.00645,0 0,0.6823 2.00645,0 0,1.3017 -2.00645,0 0,0.70144 -2.00628,0 0,0.31358"
       style="fill:none;stroke:#0000ff;stroke-width:0.91074246;stroke-linecap:square;stroke-linejoin:round" />
    <path
       style="fill:none;stroke:#000000;stroke-width:0.63055432px;stroke-linecap:butt;stroke-linejoin:miter;stroke-opacity:1"
       d="m 209.50352,809.94147 133.72731,0"
       id="path5505"
       inkscape:connector-curvature="0" />
    <path
       inkscape:connector-curvature="0"
       id="path7165"
       d="m 209.50352,741.94147 133.72731,0"
       style="fill:none;stroke:#000000;stroke-width:0.63055432px;stroke-linecap:butt;stroke-linejoin:miter;stroke-opacity:1" />
    <text
       transform="scale(0.69156584,1.4459939)"
       sodipodi:linespacing="125%"
       id="text7167"
       y="516.11682"
       x="276.91821"
       style="font-size:8.29878998px;font-style:normal;font-variant:normal;font-weight:normal;font-stretch:normal;text-align:start;line-height:125%;letter-spacing:0px;word-spacing:0px;writing-mode:lr-tb;text-anchor:start;fill:#000000;fill-opacity:1;stroke:none;font-family:Sans;-inkscape-font-specification:Sans"
       xml:space="preserve"><tspan
         y="516.11682"
         x="276.91821"
         id="tspan7169"
         sodipodi:role="line">$2t_s$</tspan></text>
    <path
       sodipodi:type="arc"
       style="color:#000000;fill:none;stroke:#00c806;stroke-width:0.70866144;stroke-linecap:butt;stroke-linejoin:miter;stroke-miterlimit:4;stroke-opacity:1;stroke-dasharray:none;stroke-dashoffset:0;marker:none;visibility:visible;display:inline;overflow:visible;enable-background:accumulate"
       id="path5900"
       sodipodi:cx="346.9736"
       sodipodi:cy="121.71665"
       sodipodi:rx="2.9211996"
       sodipodi:ry="2.9211996"
       d="m 349.8948,121.71665 a 2.9211996,2.9211996 0 1 1 -5.8424,0 2.9211996,2.9211996 0 1 1 5.8424,0 z"
       transform="translate(-117.28077,687.80731)" />
    <path
       id="path7009"
       style="fill:none;stroke:#ed0000;stroke-width:1px;stroke-linecap:butt;stroke-linejoin:miter;stroke-opacity:1"
       d="m 279.29628,807.99841 4.05722,4.3818 0,0 0,0 0,0 m 0.81144,-2.02861 c 0,1.61334 -1.30786,2.9212 -2.9212,2.9212 -1.61333,0 -2.9212,-1.30786 -2.9212,-2.9212 0,-1.61333 1.30787,-2.9212 2.9212,-2.9212 1.61334,0 2.9212,1.30787 2.9212,2.9212 z"
       inkscape:connector-curvature="0" />
  </g>
</svg>
