<?xml version="1.0" encoding="UTF-8" standalone="no"?>
<!-- Created with Inkscape (http://www.inkscape.org/) -->

<svg
   xmlns:dc="http://purl.org/dc/elements/1.1/"
   xmlns:cc="http://creativecommons.org/ns#"
   xmlns:rdf="http://www.w3.org/1999/02/22-rdf-syntax-ns#"
   xmlns:svg="http://www.w3.org/2000/svg"
   xmlns="http://www.w3.org/2000/svg"
   xmlns:sodipodi="http://sodipodi.sourceforge.net/DTD/sodipodi-0.dtd"
   xmlns:inkscape="http://www.inkscape.org/namespaces/inkscape"
   width="453.5433"
   height="340.15747"
   id="svg2"
   sodipodi:version="0.32"
   inkscape:version="0.48.4 r9939"
   sodipodi:docname="wessa-expln.svg"
   version="1.0">
  <defs
     id="defs4">
    <marker
       inkscape:stockid="Arrow1Mstart"
       orient="auto"
       refY="0.0"
       refX="0.0"
       id="Arrow1Mstart"
       style="overflow:visible">
      <path
         id="path4693"
         d="M 0.0,0.0 L 5.0,-5.0 L -12.5,0.0 L 5.0,5.0 L 0.0,0.0 z "
         style="fill-rule:evenodd;stroke:#000000;stroke-width:1.0pt"
         transform="scale(0.4) translate(10,0)" />
    </marker>
    <marker
       inkscape:stockid="Arrow1Mend"
       orient="auto"
       refY="0.0"
       refX="0.0"
       id="Arrow1Mend"
       style="overflow:visible;">
      <path
         id="path4696"
         d="M 0.0,0.0 L 5.0,-5.0 L -12.5,0.0 L 5.0,5.0 L 0.0,0.0 z "
         style="fill-rule:evenodd;stroke:#000000;stroke-width:1.0pt;"
         transform="scale(0.4) rotate(180) translate(10,0)" />
    </marker>
    <marker
       inkscape:stockid="Arrow1Lstart"
       orient="auto"
       refY="0.0"
       refX="0.0"
       id="Arrow1Lstart"
       style="overflow:visible">
      <path
         id="path4687"
         d="M 0.0,0.0 L 5.0,-5.0 L -12.5,0.0 L 5.0,5.0 L 0.0,0.0 z "
         style="fill-rule:evenodd;stroke:#000000;stroke-width:1.0pt"
         transform="scale(0.8) translate(12.5,0)" />
    </marker>
    <clipPath
       id="p695fb529d9-6-3">
      <rect
         height="711.35999"
         width="666.81"
         x="107.55"
         y="88.919998"
         id="rect3534-0-5" />
    </clipPath>
    <clipPath
       id="p695fb529d9-6-3-0">
      <rect
         height="711.35999"
         width="666.81"
         x="107.55"
         y="88.919998"
         id="rect3534-0-5-7" />
    </clipPath>
    <clipPath
       id="p695fb529d9-6-3-8">
      <rect
         height="711.35999"
         width="666.81"
         x="107.55"
         y="88.919998"
         id="rect3534-0-5-3" />
    </clipPath>
  </defs>
  <sodipodi:namedview
     id="base"
     pagecolor="#ffffff"
     bordercolor="#666666"
     borderopacity="1.0"
     inkscape:pageopacity="0.0"
     inkscape:pageshadow="2"
     inkscape:zoom="4.3570873"
     inkscape:cx="364.14925"
     inkscape:cy="211.06764"
     inkscape:document-units="mm"
     inkscape:current-layer="layer1"
     inkscape:window-width="1916"
     inkscape:window-height="1041"
     inkscape:window-x="0"
     inkscape:window-y="18"
     width="12.8cm"
     height="9.6cm"
     units="cm"
     showgrid="true"
     grid_units="mm"
     inkscape:object-paths="false"
     inkscape:grid-points="true"
     inkscape:grid-bbox="true"
     inkscape:guide-points="true"
     showguides="true"
     inkscape:guide-bbox="true"
     inkscape:window-maximized="0"
     inkscape:snap-nodes="true"
     inkscape:snap-grids="false">
    <sodipodi:guide
       orientation="vertical"
       position="56.476527"
       id="guide3573" />
    <sodipodi:guide
       orientation="horizontal"
       position="11.035643"
       id="guide3579" />
    <sodipodi:guide
       orientation="horizontal"
       position="24.018753"
       id="guide3886" />
    <sodipodi:guide
       orientation="horizontal"
       position="285.62841"
       id="guide3988" />
    <sodipodi:guide
       orientation="horizontal"
       position="303.15561"
       id="guide4081" />
    <inkscape:grid
       id="GridFromPre046Settings"
       type="xygrid"
       originx="0px"
       originy="0px"
       spacingx="2mm"
       spacingy="2mm"
       color="#3f3fff"
       empcolor="#3f3fff"
       opacity="0.15"
       empopacity="0.38"
       empspacing="5" />
  </sodipodi:namedview>
  <metadata
     id="metadata7">
    <rdf:RDF>
      <cc:Work
         rdf:about="">
        <dc:format>image/svg+xml</dc:format>
        <dc:type
           rdf:resource="http://purl.org/dc/dcmitype/StillImage" />
      </cc:Work>
    </rdf:RDF>
  </metadata>
  <g
     inkscape:label="Layer 1"
     inkscape:groupmode="layer"
     id="layer1"
     transform="translate(4.149475e-6,-698.0315)">
    <path
       style="fill:none;stroke:#0000ff;stroke-linecap:square;stroke-linejoin:round"
       d="M 866.97243 -71.74118 L 867.06157 -71.74118 L 867.06157 -68.86561 L 868.33017 -68.86561 L 868.33017 -65.99003 L 868.48659 -65.99003 L 868.48659 -63.11421 L 869.66203 -63.11421 L 869.66203 -65.99003 L 870.79146 -65.99003 L 870.81336 -71.74118 L 871.58511 -71.74118 L 871.58511 -68.86561 L 872.00951 -68.86561 L 872.00951 -65.99003 L 872.02901 -65.99003 L 872.02901 -65.99003 L 872.02901 -68.86561 L 872.34185 -68.86561 L 872.34185 -71.74118 L 874.82729 -71.74118 L 874.82729 -71.74118 "
       id="path5538"
       transform="translate(-4.149475e-6,698.0315)" />
    <path
       style="fill:none;stroke:#0000ff;stroke-linecap:square;stroke-linejoin:round"
       d="M 666.44634 -146.50669 L 666.47842 -146.50669 L 666.47842 -143.63111 L 666.65094 -143.63111 L 666.65094 -146.50669 L 666.67164 -146.50669 L 666.67164 -146.50669 L 666.67164 -143.63111 L 667.26166 -143.63111 L 667.26166 -140.75553 L 667.74932 -140.75553 L 667.74932 -143.63111 L 668.16451 -143.63111 L 668.16451 -140.75553 L 668.4601 -140.75553 L 668.4601 -143.63111 L 669.84026 -143.63111 L 669.86556 -137.87996 L 669.98977 -137.87996 L 669.98977 -135.00438 L 670.18185 -135.00438 L 670.18185 -137.87996 L 670.23705 -137.87996 L 670.23705 -137.87996 L 670.23705 -135.00438 L 670.39807 -135.00438 L 670.39807 -132.1288 L 670.78107 -132.1288 L 670.78107 -135.00438 L 671.19282 -135.00438 L 671.19982 -129.25322 L 671.4839 -129.25322 L 671.4839 -132.1288 L 671.68862 -132.1288 L 671.80594 -126.37764 L 671.88414 -126.37764 L 671.88414 -129.25322 L 672.21883 -129.25322 L 672.21883 -132.1288 L 672.21983 -132.1288 L 672.21983 -132.1288 L 672.21983 -129.25322 L 672.4211 -129.25322 L 672.4211 -132.1288 L 672.53497 -132.1288 L 672.53497 -132.1288 L 672.53497 -129.25322 L 673.6253 -129.25322 L 673.6253 -126.37764 L 673.93583 -126.37764 L 673.97493 -120.62625 L 674.06693 -120.62625 L 674.06693 -123.50183 L 674.36136 -123.50183 L 674.36136 -120.62625 L 674.51548 -120.62625 L 674.51548 -117.75067 L 674.52928 -117.75067 L 674.52928 -117.75067 L 674.52928 -120.62625 L 674.60288 -120.62625 L 674.60288 -120.62625 L 674.60288 -117.75067 L 675.06754 -117.75067 L 675.06754 -114.87509 L 676.64322 -114.87509 L 676.64322 -111.99951 L 676.97446 -111.99951 L 676.99056 -106.24836 L 677.22403 -106.24836 L 677.22403 -103.37278 L 677.67259 -103.37278 L 677.72779 -97.62163 L 677.97277 -97.62163 L 677.97277 -94.74605 L 678.1752 -94.74605 L 678.1752 -91.87023 L 679.34259 -91.87023 L 679.43809 -86.11907 L 680.4111 -86.11907 L 680.4456 -80.36792 L 680.79409 -80.36792 L 680.79409 -77.49234 L 681.83151 -77.49234 L 681.83151 -74.61676 L 682.03739 -74.61676 L 682.03739 -71.74118 L 683.23928 -71.74118 L 683.23928 -68.86561 L 683.47276 -68.86561 L 683.47276 -71.74118 L 683.64413 -71.74118 L 683.64413 -68.86561 L 683.71203 -68.86561 L 683.71203 -68.86561 L 683.71203 -71.74118 L 684.25374 -71.74118 L 684.25374 -68.86561 L 684.55163 -68.86561 L 684.61373 -74.61676 L 684.80236 -74.61676 L 684.80236 -77.49234 L 685.55915 -77.49234 L 685.55915 -80.36792 L 685.78342 -80.36792 L 685.78342 -83.2435 L 686.20552 -83.2435 L 686.20552 -86.11907 L 687.34646 -86.11907 L 687.34646 -88.99465 L 688.00089 -88.99465 L 688.00089 -91.87023 L 688.35858 -91.87023 L 688.35858 -88.99465 L 688.49775 -88.99465 L 688.49775 -86.11907 L 688.61391 -86.11907 L 688.61391 -86.11907 L 688.69901 -91.87023 L 688.80482 -91.87023 L 688.80482 -88.99465 L 688.88882 -88.99465 L 688.88882 -88.99465 L 688.88882 -91.87023 L 689.16716 -91.87023 L 689.16716 -88.99465 L 689.67092 -88.99465 L 689.67092 -91.87023 L 690.35985 -91.87023 L 690.35985 -94.74605 L 690.62898 -94.74605 L 690.62898 -91.87023 L 690.64508 -91.87023 L 690.64508 -91.87023 L 690.64508 -94.74605 L 690.89121 -94.74605 L 690.89121 -91.87023 L 691.03958 -91.87023 L 691.14884 -100.4972 L 691.34897 -100.4972 L 691.42257 -106.24836 L 693.46061 -106.24836 L 693.46061 -103.37278 L 693.62508 -103.37278 L 693.62508 -106.24836 L 693.97472 -106.24836 L 693.97472 -109.12394 L 694.34046 -109.12394 L 694.34046 -106.24836 L 694.48308 -106.24836 L 694.51188 -100.4972 L 695.9162 -100.4972 L 695.9162 -103.37278 L 696.30955 -103.37278 L 696.30955 -106.24836 L 696.47862 -106.24836 L 696.55912 -97.62163 L 696.8225 -97.62163 L 696.8536 -103.37278 L 697.18714 -103.37278 L 697.18714 -100.4972 L 697.60809 -100.4972 L 697.60809 -97.62163 L 698.0601 -97.62163 L 698.1533 -91.87023 L 698.55354 -91.87023 L 698.55354 -94.74605 L 698.63864 -94.74605 L 698.63864 -94.74605 L 698.63864 -91.87023 L 699.33448 -91.87023 L 699.33448 -94.74605 L 699.35168 -94.74605 L 699.35168 -94.74605 L 699.35168 -91.87023 L 699.4897 -91.87023 L 699.4897 -88.99465 L 699.77608 -88.99465 L 699.77608 -91.87023 L 699.921 -91.87023 L 699.921 -88.99465 L 700.54782 -88.99465 L 700.54782 -86.11907 L 700.59732 -86.11907 L 700.59732 -86.11907 L 700.59732 -88.99465 L 702.25927 -88.99465 L 702.25927 -91.87023 L 702.71932 -91.87023 L 702.71932 -88.99465 L 703.43931 -88.99465 L 703.43931 -86.11907 L 703.80735 -86.11907 L 703.80735 -88.99465 L 704.06268 -88.99465 L 704.06268 -91.87023 L 704.2076 -91.87023 L 704.2076 -94.74605 L 704.218 -94.74605 L 704.218 -94.74605 L 704.218 -91.87023 L 706.04672 -91.87023 L 706.04672 -94.74605 L 706.67469 -94.74605 L 706.67469 -91.87023 L 706.87942 -91.87023 L 706.87942 -94.74605 L 707.79608 -94.74605 L 707.79608 -91.87023 L 709.09113 -91.87023 L 709.09113 -94.74605 L 709.6938 -94.74605 L 709.6938 -97.62163 L 709.96063 -97.62163 L 709.96063 -94.74605 L 710.26887 -94.74605 L 710.26887 -97.62163 L 711.34195 -97.62163 L 711.34195 -94.74605 L 711.48802 -94.74605 L 711.48802 -97.62163 L 711.55472 -97.62163 L 711.55472 -97.62163 L 711.55472 -94.74605 L 712.51969 -94.74605 L 712.51969 -97.62163 L 713.0246 -97.62163 L 713.0246 -100.4972 L 713.15226 -100.4972 L 713.15226 -100.4972 L 713.15826 -94.74605 L 713.32733 -94.74605 L 713.32733 -91.87023 L 713.67238 -91.87023 L 713.67238 -88.99465 L 713.82764 -88.99465 L 713.89894 -83.2435 L 714.09562 -83.2435 L 714.09562 -86.11907 L 714.19568 -86.11907 L 714.19568 -86.11907 L 714.29348 -77.49234 L 715.3263 -77.49234 L 715.3263 -74.61676 L 715.56208 -74.61676 L 715.56208 -71.74118 L 715.81051 -71.74118 L 715.81051 -68.86561 L 715.95198 -68.86561 L 715.95198 -71.74118 L 716.30507 -71.74118 L 716.30507 -68.86561 L 717.04461 -68.86561 L 717.04461 -65.99003 L 717.80715 -65.99003 L 717.80715 -68.86561 L 717.83935 -68.86561 L 717.83935 -68.86561 L 717.83935 -65.99003 L 718.54094 -65.99003 L 718.54094 -68.86561 L 718.56504 -68.86561 L 718.56504 -68.86561 L 718.56504 -65.99003 L 718.69845 -65.99003 L 718.75255 -71.74118 L 718.84915 -71.74118 L 718.84915 -74.61676 L 719.2839 -74.61676 L 719.2839 -77.49234 L 719.51393 -77.49234 L 719.51393 -80.36792 L 719.83827 -80.36792 L 719.83827 -83.2435 L 720.22012 -83.2435 L 720.22012 -80.36792 L 720.45359 -80.36792 L 720.45359 -77.49234 L 720.68477 -77.49234 L 720.68477 -74.61676 L 721.3484 -74.61676 L 721.3484 -71.74118 L 721.65549 -71.74118 L 721.65549 -68.86561 L 722.71131 -68.86561 L 722.71131 -65.99003 L 722.87463 -65.99003 L 722.87463 -63.11421 L 724.19729 -63.11421 L 724.19729 -65.99003 L 724.35141 -65.99003 L 724.35141 -68.86561 L 724.68955 -68.86561 L 724.74475 -74.61676 L 724.75855 -71.74118 L 725.28646 -71.74118 L 725.28646 -74.61676 L 725.64415 -74.61676 L 725.64415 -77.49234 L 726.51596 -77.49234 L 726.54126 -71.74118 L 726.73908 -71.74118 L 726.81388 -77.49234 L 726.83228 -74.61676 L 727.03931 -74.61676 L 727.03931 -71.74118 L 727.23368 -71.74118 L 727.30958 -65.99003 L 727.50625 -65.99003 L 727.50625 -63.11421 L 727.96976 -63.11421 L 727.96976 -65.99003 L 728.3447 -65.99003 L 728.3447 -68.86561 L 729.70071 -68.86561 L 729.73981 -63.11421 L 729.88243 -63.11421 L 729.88243 -65.99003 L 730.63462 -65.99003 L 730.63462 -63.11421 L 731.3546 -63.11421 L 731.4259 -57.36305 L 732.51278 -57.36305 L 732.51278 -54.48748 L 732.83597 -54.48748 L 732.91307 -60.23863 L 733.00397 -60.23863 L 733.00397 -57.36305 L 733.81481 -57.36305 L 733.81481 -54.48748 L 734.9385 -54.48748 L 734.9385 -57.36305 L 735.95292 -57.36305 L 735.95292 -60.23863 L 736.76722 -60.23863 L 736.76722 -63.11421 L 736.90753 -63.11421 L 736.90753 -65.99003 L 737.03635 -65.99003 L 737.03635 -63.11421 L 737.8771 -63.11421 L 737.8771 -65.99003 L 740.05201 -65.99003 L 740.12791 -57.36305 L 740.19231 -57.36305 L 740.19231 -54.48748 L 740.43384 -54.48748 L 740.43384 -51.6119 L 741.15153 -51.6119 L 741.15153 -48.73632 L 742.99405 -48.73632 L 742.99405 -51.6119 L 742.99605 -51.6119 L 742.99605 -51.6119 L 742.99605 -48.73632 L 743.18467 -48.73632 L 743.18467 -51.6119 L 743.43885 -51.6119 L 743.43885 -54.48748 L 743.66888 -54.48748 L 743.66888 -57.36305 L 745.05249 -57.36305 L 745.05249 -54.48748 L 745.20661 -54.48748 L 745.20661 -57.36305 L 745.21931 -57.36305 L 745.21931 -57.36305 L 745.31591 -51.6119 L 745.44473 -51.6119 L 745.44473 -48.73632 L 745.80587 -48.73632 L 745.80587 -51.6119 L 745.97609 -51.6119 L 745.97609 -54.48748 L 748.34998 -54.48748 L 748.34998 -57.36305 L 748.5294 -57.36305 L 748.5834 -51.6119 L 749.02506 -51.6119 L 749.15157 -45.86074 L 750.10504 -45.86074 L 750.10504 -42.98517 L 750.62145 -42.98517 L 750.62145 -40.10959 L 750.71345 -40.10959 L 750.71345 -40.10959 L 750.71345 -42.98517 L 750.88597 -42.98517 L 750.88597 -40.10959 L 751.02859 -40.10959 L 751.02859 -42.98517 L 751.48174 -42.98517 L 751.48174 -40.10959 L 752.00735 -40.10959 L 752.00735 -42.98517 L 752.27993 -42.98517 L 752.27993 -45.86074 L 752.62613 -45.86074 L 752.62613 -42.98517 L 753.07698 -42.98517 L 753.07698 -45.86074 L 754.56986 -45.86074 L 754.56986 -48.73632 L 754.72283 -48.73632 L 754.72283 -51.6119 L 755.56473 -51.6119 L 755.56473 -54.48748 L 756.1858 -54.48748 L 756.1858 -57.36305 L 757.17147 -57.36305 L 757.17147 -54.48748 L 757.59817 -54.48748 L 757.59817 -57.36305 L 757.8857 -57.36305 L 757.9754 -63.11421 L 758.64248 -63.11421 L 758.64248 -60.23863 L 759.89153 -60.23863 L 759.89153 -57.36305 L 760.75643 -57.36305 L 760.75643 -60.23863 L 761.16818 -60.23863 L 761.16818 -57.36305 L 761.749 -57.36305 L 761.749 -60.23863 L 762.81403 -60.23863 L 762.81403 -57.36305 L 763.22923 -57.36305 L 763.22923 -60.23863 L 763.44545 -60.23863 L 763.44545 -63.11421 L 765.0752 -63.11421 L 765.1511 -57.36305 L 765.71466 -57.36305 L 765.71466 -60.23863 L 766.30584 -60.23863 L 766.30584 -63.11421 L 768.57621 -63.11421 L 768.57621 -60.23863 L 769.16278 -60.23863 L 769.16278 -57.36305 L 769.7988 -57.36305 L 769.7988 -54.48748 L 769.96442 -54.48748 L 769.96442 -57.36305 L 769.97042 -57.36305 L 769.97042 -57.36305 L 769.97042 -54.48748 L 771.41154 -54.48748 L 771.44374 -60.23863 L 772.87796 -60.23863 L 772.87796 -57.36305 L 774.62847 -57.36305 L 774.62847 -60.23863 L 775.64749 -60.23863 L 775.64749 -57.36305 L 775.87522 -57.36305 L 775.87522 -60.23863 L 776.05924 -60.23863 L 776.05924 -63.11421 L 776.64581 -63.11421 L 776.64581 -65.99003 L 777.8615 -65.99003 L 777.8615 -68.86561 L 778.24335 -68.86561 L 778.24335 -71.74118 L 778.53778 -71.74118 L 778.53778 -74.61676 L 779.04959 -74.61676 L 779.04959 -71.74118 L 779.65457 -71.74118 L 779.65457 -68.86561 L 779.86734 -68.86561 L 779.86734 -71.74118 L 780.11462 -71.74118 L 780.11462 -74.61676 L 780.12732 -74.61676 L 780.12732 -74.61676 L 780.12732 -71.74118 L 780.27454 -71.74118 L 780.29644 -77.49234 L 780.52877 -77.49234 L 780.52877 -74.61676 L 780.92787 -74.61676 L 780.92787 -71.74118 L 780.97507 -71.74118 L 780.97507 -71.74118 L 780.97507 -74.61676 L 781.04297 -74.61676 L 781.04297 -74.61676 L 781.04297 -71.74118 L 781.19249 -71.74118 L 781.19249 -68.86561 L 781.44437 -68.86561 L 781.44437 -65.99003 L 781.81011 -65.99003 L 781.81011 -68.86561 L 782.27132 -68.86561 L 782.27132 -65.99003 L 782.69457 -65.99003 L 782.69457 -63.11421 L 782.69657 -63.11421 L 782.69657 -63.11421 L 782.71727 -68.86561 L 783.26128 -68.86561 L 783.35908 -74.61676 L 783.40278 -74.61676 L 783.40278 -77.49234 L 784.25503 -77.49234 L 784.25503 -74.61676 L 784.28953 -74.61676 L 784.28953 -74.61676 L 784.28953 -77.49234 L 784.44365 -77.49234 L 784.44365 -80.36792 L 784.69898 -80.36792 L 784.81514 -74.61676 L 785.02907 -74.61676 L 785.02907 -71.74118 L 785.08307 -71.74118 L 785.08307 -71.74118 L 785.08307 -74.61676 L 785.99053 -74.61676 L 785.99053 -71.74118 L 786.48854 -71.74118 L 786.48854 -68.86561 L 786.76802 -68.86561 L 786.76802 -65.99003 L 787.51676 -65.99003 L 787.51676 -68.86561 L 788.01132 -68.86561 L 788.01132 -71.74118 L 789.40874 -71.74118 L 789.40874 -74.61676 L 789.63761 -74.61676 L 789.63761 -71.74118 L 790.21498 -71.74118 L 790.21498 -74.61676 L 790.61293 -74.61676 L 790.63243 -80.36792 L 791.20405 -80.36792 L 791.20405 -83.2435 L 792.08621 -83.2435 L 792.08621 -86.11907 L 792.10921 -86.11907 L 792.10921 -86.11907 L 792.10921 -83.2435 L 792.55201 -83.2435 L 792.55201 -80.36792 L 793.64464 -80.36792 L 793.64464 -77.49234 L 793.66874 -77.49234 L 793.66874 -77.49234 L 793.66874 -80.36792 L 794.05059 -80.36792 L 794.05059 -83.2435 L 794.18976 -83.2435 L 794.18976 -86.11907 L 794.26456 -86.11907 L 794.26456 -86.11907 L 794.26456 -83.2435 L 795.06045 -83.2435 L 795.06045 -80.36792 L 795.4998 -80.36792 L 795.4998 -83.2435 L 797.10194 -83.2435 L 797.10194 -86.11907 L 798.63853 -86.11907 L 798.70293 -91.87023 L 799.46778 -91.87023 L 799.46778 -88.99465 L 800.43504 -88.99465 L 800.43504 -86.11907 L 801.06762 -86.11907 L 801.06762 -88.99465 L 801.19643 -88.99465 L 801.19643 -86.11907 L 801.377 -86.11907 L 801.377 -83.2435 L 801.86696 -83.2435 L 801.86696 -80.36792 L 802.11309 -80.36792 L 802.11309 -83.2435 L 802.78477 -83.2435 L 802.78477 -86.11907 L 803.64967 -86.11907 L 803.64967 -83.2435 L 803.75319 -83.2435 L 803.75319 -83.2435 L 803.78079 -88.99465 L 803.8935 -88.99465 L 803.8935 -91.87023 L 804.2995 -91.87023 L 804.2995 -88.99465 L 804.3743 -88.99465 L 804.3743 -88.99465 L 804.3743 -91.87023 L 804.4548 -91.87023 L 804.4548 -91.87023 L 804.4951 -86.11907 L 804.5699 -88.99465 L 804.6458 -88.99465 L 804.6458 -86.11907 L 804.95289 -86.11907 L 804.95289 -83.2435 L 805.00469 -83.2435 L 805.00469 -83.2435 L 805.00469 -86.11907 L 805.09099 -86.11907 L 805.09099 -86.11907 L 805.09099 -83.2435 L 805.83282 -83.2435 L 805.83282 -86.11907 L 805.98694 -86.11907 L 805.98694 -88.99465 L 806.06404 -88.99465 L 806.06404 -88.99465 L 806.06404 -86.11907 L 806.13994 -86.11907 L 806.13994 -86.11907 L 806.13994 -88.99465 L 806.38722 -88.99465 L 806.38722 -91.87023 L 806.55974 -91.87023 L 806.59074 -86.11907 L 806.80007 -86.11907 L 806.80007 -83.2435 L 806.93924 -83.2435 L 806.93924 -80.36792 L 807.64657 -80.36792 L 807.70527 -74.61676 L 807.78007 -74.61676 L 807.78007 -71.74118 L 809.06707 -71.74118 L 809.06707 -74.61676 L 809.67434 -74.61676 L 809.67434 -71.74118 L 809.91587 -71.74118 L 809.91587 -68.86561 L 810.09529 -68.86561 "
       id="path4586"
       transform="translate(-4.149475e-6,698.0315)" />
    <path
       style="fill:none;stroke:#0000ff;stroke-linecap:square;stroke-linejoin:round"
       d="M 605.03768 -91.87023 L 605.37261 -91.87023 L 605.38061 -97.62163 L 605.48297 -94.74605 L 605.88552 -94.74605 L 605.88552 -91.87023 L 606.16155 -91.87023 L 606.16155 -88.99465 L 606.45828 -88.99465 L 606.45828 -86.11907 L 606.59975 -86.11907 L 606.59975 -88.99465 L 607.18977 -88.99465 L 607.18977 -86.11907 L 607.60267 -86.11907 L 607.60267 -83.2435 L 607.65327 -83.2435 L 607.65327 -83.2435 L 607.65327 -86.11907 L 607.92585 -86.11907 L 607.92585 -83.2435 L 608.25019 -83.2435 L 608.25019 -80.36792 L 609.52569 -80.36792 L 609.52569 -77.49234 L 609.71201 -77.49234 L 609.83508 -71.74118 L 610.62177 -71.74118 L 610.62177 -74.61676 L 610.73218 -74.61676 L 610.73218 -74.61676 L 610.73218 -71.74118 L 611.46252 -71.74118 L 611.46252 -74.61676 L 611.7466 -74.61676 L 611.7466 -71.74118 L 611.93293 -71.74118 L 611.93293 -68.86561 L 612.05714 -68.86561 L 612.05714 -68.86561 L 612.05714 -71.74118 L 612.22506 -71.74118 L 612.22506 -68.86561 L 612.85074 -68.86561 L 612.85074 -71.74118 L 612.94044 -71.74118 L 612.94044 -71.74118 L 612.94044 -68.86561 L 613.69378 -68.86561 L 613.69378 -71.74118 L 613.72258 -71.74118 L 613.72258 -71.74118 L 613.72258 -68.86561 L 614.02507 -68.86561 L 614.02507 -71.74118 L 614.47937 -71.74118 L 614.47937 -74.61676 L 616.74629 -74.61676 L 616.76699 -80.36792 L 617.00967 -80.36792 L 617.00967 -83.2435 L 617.32136 -83.2435 L 617.32136 -86.11907 L 617.54449 -86.11907 L 617.54449 -88.99465 L 617.6802 -88.99465 L 617.7354 -94.74605 L 617.83661 -94.74605 L 617.83661 -91.87023 L 617.98613 -91.87023 L 617.98613 -88.99465 L 618.02173 -88.99465 L 618.02173 -88.99465 L 618.02173 -91.87023 L 618.34607 -91.87023 L 618.34607 -94.74605 L 618.60715 -94.74605 L 618.60715 -97.62163 L 618.76357 -97.62163 L 618.76357 -100.4972 L 619.92061 -100.4972 L 619.92061 -103.37278 L 619.98961 -103.37278 L 619.98961 -103.37278 L 620.07701 -97.62163 L 620.16671 -97.62163 L 620.16671 -94.74605 L 620.64631 -94.74605 L 620.64631 -91.87023 L 621.51812 -91.87023 L 621.51812 -94.74605 L 621.56292 -94.74605 L 621.56292 -94.74605 L 621.56292 -91.87023 L 622.12304 -91.87023 L 622.12304 -88.99465 L 622.77057 -88.99465 L 622.77057 -91.87023 L 622.94309 -91.87023 L 622.94309 -88.99465 L 622.96959 -88.99465 L 622.96959 -88.99465 L 622.97559 -94.74605 L 623.05729 -91.87023 L 623.46099 -91.87023 L 623.53689 -97.62163 L 623.59099 -97.62163 L 623.59999 -91.87023 L 624.05774 -91.87023 L 624.05774 -88.99465 L 624.9376 -88.99465 L 624.9376 -91.87023 L 626.01297 -91.87023 L 626.01297 -94.74605 L 626.07737 -94.74605 L 626.07737 -94.74605 L 626.07737 -91.87023 L 626.54663 -91.87023 L 626.54663 -94.74605 L 626.84566 -94.74605 L 626.84566 -97.62163 L 627.26546 -97.62163 L 627.26546 -100.4972 L 627.52539 -100.4972 L 627.52539 -97.62163 L 628.53061 -97.62163 L 628.53061 -94.74605 L 628.61921 -94.74605 L 628.61921 -94.74605 L 628.61921 -97.62163 L 629.83606 -97.62163 L 629.95567 -91.87023 L 629.98787 -91.87023 L 629.98787 -88.99465 L 630.30416 -88.99465 L 630.38466 -94.74605 L 630.59054 -94.74605 L 630.59054 -97.62163 L 631.90745 -97.62163 L 631.90745 -94.74605 L 632.3675 -94.74605 L 632.3675 -91.87023 L 633.09209 -91.87023 L 633.09209 -94.74605 L 633.14159 -94.74605 L 633.14159 -94.74605 L 633.14159 -91.87023 L 633.41188 -91.87023 L 633.50158 -86.11907 L 634.06399 -86.11907 L 634.06399 -83.2435 L 634.48379 -83.2435 L 634.48379 -80.36792 L 636.06753 -80.36792 L 636.06753 -83.2435 L 636.6127 -83.2435 L 636.6127 -86.11907 L 636.74036 -86.11907 L 636.74036 -86.11907 L 636.74036 -83.2435 L 636.95774 -83.2435 L 636.95774 -86.11907 L 638.14123 -86.11907 L 638.14123 -88.99465 L 638.62199 -88.99465 L 638.62199 -91.87023 L 638.94517 -91.87023 L 638.94517 -94.74605 L 639.13495 -94.74605 L 639.15795 -88.99465 L 639.25916 -91.87023 L 639.5628 -91.87023 L 639.5628 -94.74605 L 639.82618 -94.74605 L 639.94004 -88.99465 L 640.46221 -88.99465 L 640.46221 -86.11907 L 640.67268 -86.11907 L 640.67268 -83.2435 L 641.57094 -83.2435 L 641.57094 -80.36792 L 642.90855 -80.36792 L 642.91655 -86.11907 L 643.24664 -86.11907 L 643.24664 -88.99465 L 643.7964 -88.99465 L 643.8666 -94.74605 L 644.26915 -94.74605 L 644.26915 -97.62163 L 645.60331 -97.62163 L 645.60331 -100.4972 L 646.30949 -100.4972 L 646.30949 -103.37278 L 646.57862 -103.37278 L 646.57862 -100.4972 L 646.64072 -100.4972 L 646.64072 -100.4972 L 646.64072 -103.37278 L 646.66262 -103.37278 L 646.66262 -103.37278 L 646.66262 -100.4972 L 647.37801 -100.4972 L 647.37801 -103.37278 L 649.60122 -103.37278 L 649.60122 -100.4972 L 650.60874 -100.4972 L 650.60874 -103.37278 L 650.70074 -103.37278 L 650.70074 -103.37278 L 650.70074 -100.4972 L 650.95838 -100.4972 L 650.95838 -103.37278 L 651.20335 -103.37278 L 651.20335 -106.24836 L 651.24595 -106.24836 L 651.24595 -106.24836 L 651.24595 -103.37278 L 651.46103 -103.37278 L 651.46103 -106.24836 L 651.50813 -106.24836 L 651.50813 -106.24836 L 651.50813 -103.37278 L 652.56396 -103.37278 L 652.56396 -106.24836 L 652.59046 -106.24836 L 652.59046 -106.24836 L 652.59046 -103.37278 L 653.68309 -103.37278 L 653.68309 -106.24836 L 653.90507 -106.24836 L 653.90507 -109.12394 L 654.35937 -109.12394 L 654.35937 -106.24836 L 654.39737 -106.24836 L 654.39737 -106.24836 L 654.39737 -109.12394 L 654.78956 -109.12394 L 654.79256 -114.87509 L 655.0732 -114.87509 L 655.0732 -117.75067 L 655.37223 -117.75067 L 655.37223 -114.87509 L 655.63906 -114.87509 L 655.63906 -111.99951 L 656.57067 -111.99951 L 656.69489 -106.24836 L 657.06408 -106.24836 L 657.18715 -111.99951 L 657.25845 -111.99951 L 657.27335 -117.75067 L 657.73455 -117.75067 L 657.73455 -120.62625 L 658.1141 -120.62625 L 658.1141 -123.50183 L 658.182 -123.50183 L 658.182 -123.50183 L 658.182 -120.62625 L 659.15731 -120.62625 L 659.15731 -123.50183 L 659.35629 -123.50183 L 659.35629 -126.37764 L 660.06707 -126.37764 L 660.07307 -132.1288 L 660.33875 -132.1288 L 660.33875 -135.00438 L 660.95753 -135.00438 L 660.95753 -132.1288 L 661.1887 -132.1288 L 661.30947 -137.87996 L 661.74767 -137.87996 L 661.74767 -140.75553 L 662.14677 -140.75553 L 662.14677 -137.87996 L 662.57117 -137.87996 L 662.57117 -135.00438 L 662.97487 -135.00438 L 662.97487 -137.87996 L 663.29115 -137.87996 L 663.29115 -135.00438 L 663.71671 -135.00438 L 663.71671 -137.87996 L 664.0537 -137.87996 L 664.0597 -143.63111 L 664.1068 -140.75553 L 664.80724 -140.75553 L 664.80724 -143.63111 L 664.96135 -143.63111 L 664.96135 -146.50669 L 665.41681 -146.50669 L 665.41681 -149.38227 L 665.62613 -149.38227 L 665.69403 -143.63111 L 665.83665 -143.63111 L 665.83665 -146.50669 L 666.44634 -146.50669 "
       id="path4584"
       transform="translate(-4.149475e-6,698.0315)" />
    <path
       style="fill:none;stroke:#0000ff;stroke-linecap:square;stroke-linejoin:round"
       d="M 603.02193 -106.24836 L 603.02193 -103.37278 L 603.52569 -103.37278 L 603.52569 -100.4972 L 603.81092 -100.4972 L 603.85462 -94.74605 L 603.97309 -94.74605 L 603.97309 -97.62163 L 603.98689 -97.62163 L 603.98689 -97.62163 L 603.98689 -94.74605 L 604.24107 -94.74605 L 604.24107 -91.87023 L 604.25007 -91.87023 L 604.25007 -91.87023 L 604.25007 -94.74605 L 604.79409 -94.74605 L 604.79409 -91.87023 L 605.03768 -91.87023 "
       id="path3287-1"
       transform="translate(-4.149475e-6,698.0315)" />
    <g
       transform="matrix(1.150137,0,0,0.24186876,-232.76049,510.70135)"
       id="line2d_1-8"
       style="stroke-linecap:butt;stroke-linejoin:round" />
    <path
       style="fill:none;stroke:#0000ff;stroke-width:0.91185552;stroke-linecap:square;stroke-linejoin:round"
       d="m 395.37875,874.1478 0,1.3634 -2.00484,0 0,0.44442 -2.00485,0 0,0.15911 2.00485,0 0,0.23182 2.00484,0 0,1.45121 -2.00484,0 0,0.27022 -2.00485,0 0,0.0247 0,0 2.00485,0 0,0.46636 -2.00485,0 0,0.56925 -2.00485,0 0,0.47321 2.00485,0 0,0.31136 4.00969,0.008 0,0.14542 -2.00484,0 0,0.90253 2.00484,0 0,0.39503 -4.00969,0.14403 0,0.14814 2.00485,0 0,1.56094 2.00484,0 0,2.45665 2.00485,0 0,0.26335 -2.00485,0 0,0.34154 -2.00484,0 0,0.0344 0,0 2.00484,0 0,1.05891 -2.00484,0 0,0.99858 2.00484,0 0,0.73796 -4.00969,0.0205 0,0.16596 2.00485,0 0,0.59941 -2.00485,0 0,0.0987 0,0 2.00485,0 0,0.18516 -4.0097,0.081 0,0.13033 -4.00969,0.14812 0,0.11933 2.00484,0 0,0.73249 -2.00484,0 0,0.62682 2.00484,0 0,0.27709 -2.00484,0 0,0.45538 2.00484,0 0,1.08224 2.00485,0 0,0.28668 -4.00969,0.12893 0,0.37995 -2.00485,0 0,0.15638 2.00485,0 0,0.86141 2.00484,0 0,0.29352 -2.00484,0 0,1.18648 2.00484,0 0,0.15773 -2.00484,0 0,0.25788 4.00969,0.059 0,1.0356 2.00485,0 0,0.25788 2.00485,0 0,0.29215 2.00484,0 0,0.61176 -2.00484,0 0,0.0616 0,0 4.00969,0.1084 0,0.0603 2.00484,0 0,0.48146 -2.00484,0 0,1.3593 -2.00485,0 0,0.19614 -2.00484,0 0,2.10961 -2.00485,0 0,0.0576 0,0 2.00485,0 0,1.05205 2.00484,0 0,0.33469 2.00485,0 0,1.04657 -2.00485,0 0,0.51986 4.00969,0.0919 0,0.22084 2.00502,0 0,0.68994 -2.00502,0 0,0.23182 2.00502,0 0,0.25788 -2.00502,0 0,0.6433 2.00502,0 0,0.6529 -2.00502,0 0,0.17833 -2.00484,0 0,0.0974 0,0 2.00484,0 0,1.25231 -2.00484,0 0,0.11247 0,0 2.00484,0 0,1.20432 2.00502,0 0,0.66524 2.00485,0 0,1.22076 -2.00485,0 0,0.1605 2.00485,0 0,0.25103 2.00484,0 0,0.76948 2.00486,0 0,0.2222 -2.00486,0 0,0.21949 2.00486,0 0,0.18241 2.00485,0 0,0.41015 -4.00971,0.0344 0,0.66662 -2.00484,0 0,1.28934 -2.00485,0 0,0.68035 2.00485,0 0,0.0576 0,0 -2.00485,0 0,0.037 0,0 2.00485,0 0,0.0987 0,0 -2.00485,0 0,0.82573 2.00485,0 0,1.00542 -2.00485,0 0,0.0384 0,0 2.00485,0 0,0.17144 -2.00485,0 0,1.13574 2.00485,0 0,0.21535 4.0097,0.13441 0,0.0755 -2.00486,0 0,0.17694 -2.00484,0 0,0.28668 2.00484,0 0,0.29491 2.00486,0 0,1.6885 -2.00486,0 0,0.22496 2.00486,0 0,0.34428 -2.00486,0 0,0.26884 -2.00484,0 0,0.203 2.00484,0 0,0.42796 -4.00969,0.0466 0,0.23729 -2.00502,0 0,0.36762 2.00502,0 0,0.39229 4.00969,0.008 0,1.27565 -2.00484,0 0,1.5582 2.00484,0 0,2.02182 -2.00484,0 0,0.53357 -2.00485,0 0,0.28667 -2.00502,0 0,0.2085 2.00502,0 0,0.15636 -2.00502,0 0,0.0549 0,0 2.00502,0 0,0.9478 -2.00502,0 0,0.23182 -2.00484,0 0,0.17968 2.00484,0 0,0.66937 4.00987,0.096 0,0.0837 -2.00485,0 0,1.20706 -2.00502,0 0,1.29622 2.00502,0 0,1.09732 -2.00502,0 0,1.48032"
       id="path4671"
       inkscape:connector-curvature="0" />
    <path
       style="fill:none;stroke:#0000ff;stroke-linecap:square;stroke-linejoin:round"
       d="M 382.68956 -97.2341 L 382.68956 -97.2341 "
       id="path4668"
       transform="translate(-4.149475e-6,698.0315)" />
    <path
       style="fill:none;stroke:#0000ff;stroke-linecap:square;stroke-linejoin:round"
       d="M 325.95948 -108.73666 L 325.95948 -108.73666 "
       id="path4663"
       transform="translate(-4.149475e-6,698.0315)" />
    <path
       style="fill:none;stroke:#0000ff;stroke-linecap:square;stroke-linejoin:round"
       d="M 269.28013 -88.60737 L 269.28013 -88.60737 "
       id="path4637"
       transform="translate(-4.149475e-6,698.0315)" />
    <path
       style="fill:none;stroke:#0000ff;stroke-width:0.91185552;stroke-linecap:square;stroke-linejoin:round"
       d="m 407.39148,874.14563 0,0.0393 -2.00484,0 0,1.00543 4.00969,0.0534 0,2.03965 2.00502,0 0,0.35115 2.00486,0 0,0.27433 -2.00486,0 0,0.20575 4.00969,0.0164 0,0.51163 -2.00483,0 0,0.49379 -2.00486,0 0,1.33327 2.00486,0 0,0.50202 2.00483,0 0,0.41012 -4.00969,0.12619 0,0.40191 2.00486,0 0,0.358 -2.00486,0 0,0.16458 2.00486,0 0,0.0947 0,0 -2.00486,0 0,0.16598 2.00486,0 0,0 0,0 -4.00988,0.0987 0,2.10961 -2.00485,0 0,0.19615 8.01956,0.11795 0,0.16597 -4.00969,0.0508 0,0.2373 -2.00502,0 0,0.68582 2.00502,0 0,1.04658 -2.00502,0 0,1.0891 2.00502,0 0,0.27844 -2.00502,0 0,0.0755 0,0 4.00988,0.002 -2.00486,0.11246 0,0.32509 -2.00502,0 0,1.08771 2.00502,0 0,0.44443 2.00486,0 0,1.57467 -2.00486,0 0,0.33604 -2.00502,0 0,0.52261 -2.00485,0 0,0.2565 2.00485,0 0,1.04931 2.00502,0 0,0.33195 2.00486,0 0,0.43892 2.00483,0 0,1.10282 -2.00483,0 0,1.25231 2.00483,0 0,0.21811 2.00485,0 0,0.12893 0,0 -2.00485,0 0,0.29628 4.0097,0.0151 0,0.36624 2.00484,0 0,0.43618 2.00486,0 0,0.38544 2.00485,0 0,0.0741 0,0 -2.00485,0 0,0.74343 -2.00486,0 0,0.1015 0,0 2.00486,0 0,0.71189 -2.00486,0 0,1.01914 -2.00484,0 0,0.19066 -2.00485,0 0,0.0713 0,0 2.00485,0 0,0.37584 -2.00485,0 0,0.54728 -2.00485,0 0,0.25926 -2.00483,0 0,0.0192 0,0 2.00483,0 0,1.29758 -2.00483,0 0,0.3237 -2.00486,0 0,0.0177 0,0 2.00486,0 0,0.95741 -2.00486,0 0,0.58846 4.00969,0.0411 0,0.24827 2.00485,0 0,0.38681 2.00485,0 0,0.15773 -4.0097,0.0673 0,0.7681 -2.00483,0 0,0.11522 0,0 2.00483,0 0,1.50197 2.00485,0 0,0.13852 0,0 -2.00485,0 0,0.10424 0,0 2.00485,0 0,0.56238 2.00485,0 0,0.15498 -2.00485,0 0,0.68721 6.01455,0.0878 0,0.59666 -2.00486,0 0,0.27022 2.00486,0 0,0.7215 2.00485,0 0,0.56786 -4.00971,0.0384 0,0.45952 -2.00484,0 0,1.24546 -2.00485,0 0,2.8846 2.00485,0 0,0.38268 2.00484,0 0,0.31961 2.00486,0 0,0.68309 -2.00486,0 0,0.24962 -2.00484,0 0,0.19342 -4.0097,0.0685 0,0.90805 4.0097,0.0192 -2.00485,0.13168 0,0.002 -2.00485,0 0,0.62549 2.00485,0 0,1.20704 2.00485,0 0,0.79284 -8.01939,0.13167 0,0.65839 2.00486,0 0,0.0563 0,0 -2.00486,0 0,0.26747 2.00486,0 0,0.21947 2.00484,0 0,0.57473 -2.00484,0 0,1.15354 2.00484,0 0,1.09185 -4.0097,0.048 0,0.51712 4.0097,0.10292 0,0.085 2.00485,0 0,0.41836 -2.00485,0 0,0.12755 0,0 2.00485,0 0,0.20165 2.00485,0 0,0.0411 0,0 -2.00485,0 0,0.74345 2.00485,0 0,1.29349 -4.0097,0.0768 0,0.34703 -2.00484,0 0,0.81612 4.00969,0.1358 0,0.11115 -2.00485,0 0,0.34564 2.00485,0 0,0.43206 -2.00485,0 0,0.0164 0,0 2.00485,0 0,0.7544 2.00485,0 0,0.022 0,0 -2.00485,0 0,1.59387 2.00485,0 0,1.53353 -2.00485,0 0,0.20026 -2.00485,0 0,0.41423 2.00485,0 0,0.51163 2.00485,0 0,0.38407 -2.00485,0 0,0.29215 2.00485,0 0,0.31823 -2.00485,0 0,1.07537 2.00485,0 0,0.4086"
       id="path4635"
       inkscape:connector-curvature="0" />
    <path
       style="fill:none;stroke:#0000ff;stroke-linecap:square;stroke-linejoin:round"
       d="M 212.60361 -81.35366 L 212.60361 -81.35366 "
       id="path4631"
       transform="translate(-4.149475e-6,698.0315)" />
    <path
       style="fill:none;stroke:#0000ff;stroke-linecap:square;stroke-linejoin:round"
       d="M 155.89539 -84.229241 L 155.89539 -84.229241 "
       id="path4625"
       transform="translate(-4.149475e-6,698.0315)" />
    <path
       style="fill:none;stroke:#0000ff;stroke-width:0.91185552;stroke-linecap:square;stroke-linejoin:round"
       d="m 440.4734,874.13293 0,0.0721 2.00485,0 0,0.65839 2.00485,0 0,0.18106 -4.0097,0.01 0,0.31959 2.00485,0 0,0.22495 2.00485,0 0,1.04932 2.00484,0 0,0.15636 -2.00484,0 0,0.0549 0,0 2.00484,0 0,1.36891 2.00485,0 0,0.12345 0,0 -2.00485,0 0,1.47453 -2.00484,0 0,0.17968 -2.00485,0 0,0.12482 0,0 8.01955,0.13579 0,0.51163 2.00486,0 0,0.75716 -2.00486,0 0,0.42932 4.0097,0.0397 0,0.39229 2.00486,0 0,0.33607 2.00484,0 0,0.39503 -2.00484,0 0,1.15219 -2.00486,0 0,0.20987 -2.00484,0 0,0.17694 -2.00486,0 0,1.99165 -2.00501,0 0,1.40731 2.00501,0 0,0.64468 2.00486,0 0,0.23319 -2.00486,0 0,0.36897 2.00486,0 0,0.23044 -2.00486,0 0,0.0974 0,0 2.00486,0 0,0.11664 0,0 -2.00486,0 0,0.65976 2.00486,0 0,2.56362 -2.00486,0 0,0.56513 -2.00501,0 0,0.17008 2.00501,0 0,1.2537 -2.00501,0 0,0.21535 -4.00969,0.0123 0,0.35527 2.00484,0 0,0.49379 -2.00484,0 0,0.82573 6.0147,0.0713 0,0.13855 -4.00986,0.13853 0,0.13717 2.00485,0 0,0.97661 -2.00485,0 0,0.32097 2.00485,0 0,0.0576 0,0 -2.00485,0 0,0.46499 -2.00484,0 0,0.31823 2.00484,0 0,1.00678 2.00485,0 0,0.68173 2.00501,0 0,0.01 0,0 -2.00501,0 0,0.40327 -2.00485,0 0,1.05344 -2.00484,0 0,1.25232 2.00484,0 0,0.39366 2.00485,0 0,1.15219 2.00501,0 0,1.16317 -2.00501,0 0,1.30307 4.00987,0.0384 0,1.694 -2.00486,0 0,0.20849 -2.00501,0 0,0.0234 0,0 2.00501,0 0,1.45396 2.00486,0 0,0.40188 -2.00486,0 0,0.39779 -2.00501,0 0,0.16597 -2.00485,0 0,0.561 2.00485,0 0,1.04933 -2.00485,0 0,0.47872 4.00986,0.0576 0,0.98073 2.00486,0 0,0.63372 -2.00486,0 0,0.75167 2.00486,0 0,0.43481 2.00484,0 0,0.0768 0,0 -2.00484,0 0,1.17413 -2.00486,0 0,1.20705 2.00486,0 0,2.3277 -2.00486,0 0,0.76128 -2.00501,0 0,0.19342 -2.00485,0 0,0.18653 2.00485,0 0,0.59666 2.00501,0 0,0.88198 -2.00501,0 0,0.096 0,0 2.00501,0 0,0.51984 -4.00986,0.0247 0,0.77087 -2.00484,0 0,0.2373 -2.00485,0 0,0.63918 -2.00485,0 0,1.26193 2.00485,0 0,0.12893 0,0 -2.00485,0 0,0.35664 -2.00485,0 0,0.10149 0,0 2.00485,0 0,0.39091 -2.00485,0 0,0.24828 -2.00485,0 0,0.20987 2.00485,0 0,0.27706 2.00485,0 0,0.41561 -2.00485,0 0,0.48147 2.00485,0 0,0.84493 -2.00485,0 0,1.24547 -4.00969,0.0411 0,0.21946 2.00484,0 0,0.34018 -2.00484,0 0,0.24964 -2.00485,0 0,0.83122 4.00969,0.0494 0,0.13304 2.00485,0 0,1.44162 2.00485,0 0,0.39229 -2.00485,0 0,0.0878 0,0 2.00485,0 0,0.75167 -2.00485,0 0,0.49928 -2.00485,0 0,0.25516 4.0097,0.002 0,1.14532 4.0097,0.12894 0,0.10972 2.00484,0 0,0.30588 -2.00484,0 0,0.58708 6.0147,0.11389 0,0.88746 -2.00501,0 0,0.26345"
       id="path4623"
       inkscape:connector-curvature="0" />
    <path
       style="fill:none;stroke:#0000ff;stroke-linecap:square;stroke-linejoin:round"
       d="M 99.208164 -72.72693 L 99.208164 -72.72693 "
       id="path4619"
       transform="translate(-4.149475e-6,698.0315)" />
    <path
       style="fill:none;stroke:#0000ff;stroke-width:0.91185552;stroke-linecap:square;stroke-linejoin:round"
       d="m 388.08475,874.1503 0,0.26273 -2.00485,0 0,0.8998 -2.00485,0 0,0.513 2.00485,0 0,0.46774 2.00485,0 0,0.0549 0,0 -4.0097,0.0357 0,0.20026 -2.00486,0 0,2.41412 2.00486,0 0,0.13854 0,0 -2.00486,0 0,0.55964 -2.00483,0 0,0.37994 2.00483,0 0,0.61999 -2.00483,0 0,0.58707 4.00969,0.14402 0,0.95743 -4.00969,0.0727 0,0.10841 2.00483,0 0,0.88335 -2.00483,0 0,0.31822 -2.00485,0 0,0.25238 -2.00502,0 0,1.55545 -4.0097,0.0521 0,0.20163 2.00486,0 0,0.99582 2.00484,0 0,0.70641 -2.00484,0 0,0.16459 -2.00486,0 0,0.015 0,0 2.00486,0 0,0.1358 0,0 -2.00486,0 0,0.52809 2.00486,0 0,0.0563 0,0 -2.00486,0 0,1.63364 -2.00484,0 0,1.12751 2.00484,0 0,0.43756 2.00486,0 0,0.26473 -2.00486,0 0,0.46362 4.0097,0.0177 0,0.27296 -2.00484,0 0,0.17283 -2.00486,0 0,0.35115 2.00486,0 0,1.39497 -2.00486,0 0,0.33057 2.00486,0 0,0.4499 -2.00486,0 0,0.66113 2.00486,0 0,0.24142 -2.00486,0 0,0.74892 2.00486,0 0,0.10018 0,0 -2.00486,0 0,0.46499 2.00486,0 0,0.97525 -2.00486,0 0,0.14128 0,0 2.00486,0 0,0.38544 4.00986,0.005 0,0.18106 4.00968,0.13304 0,0.23731 -2.00483,0 0,0.34839 -2.00485,0 0,0.3388 -2.00502,0 0,1.4183 -2.00484,0 0,2.42783 2.00484,0 0,0.92037 2.00502,0 0,0.15638 -4.00986,0.0823 0,0.96426 -2.00486,0 0,1.81196 -2.00484,0 0,0.74345 2.00484,0 0,0.51299 -2.00484,0 0,0.27708 -4.0097,0.12071 0,0.048 -2.00485,0 0,0.32234 2.00485,0 0,1.21117 -2.00485,0 0,2.98748 -2.00483,0 0,0.54728 -2.00486,0 0,2.42098 -2.00485,0 0,0.0152 0,0 2.00485,0 0,2.94493 -2.00485,0 0,0.36076 2.00485,0 0,1.01639 -2.00485,0 0,0.15774 2.00485,0 0,0.60215 2.00486,0 0,0.16049 -2.00486,0 0,0.77773 4.00969,0.0219 0,1.98617 -4.00969,0.0618 0,0.8957 -2.00485,0 0,0.2606 4.00971,0.14129 0,2.16857 -2.00486,0 0,0.62274 -2.00485,0 0,0.50752 -2.00485,0 0,0.0974 0,0 2.00485,0 0,2.38941 -2.00485,0 0,1.11654 2.00485,0 0,0.10566 0,0 -2.00485,0 0,0.47733 2.00485,0 0,0.33744 2.00485,0 0,0.39503 2.00486,0 0,0.36486 2.00483,0 0,2.11783 -2.00483,0 0,0.43208 2.00483,0 0,0.22221 -2.00483,0 0,0.28805 2.00483,0 0,0.31 -2.00483,0 0,0.70502 2.00483,0 0,0.23456 -2.00483,0 0,0.71601 2.00483,0 0,0.64605 4.0097,0.11246 0,0.68504"
       id="path4617"
       inkscape:connector-curvature="0" />
    <path
       style="fill:none;stroke:#0000ff;stroke-linecap:square;stroke-linejoin:round"
       d="M 42.53628 -101.48295 L 42.53628 -101.48295 "
       id="path4613"
       transform="translate(-4.149475e-6,698.0315)" />
    <path
       style="fill:none;stroke:#0000ff;stroke-width:0.91185552;stroke-linecap:square;stroke-linejoin:round"
       d="m 343.11739,874.08164 0,0.097 0,0 -2.00485,0 0,0.007 0,0 2.00485,0 0,0.27844 -2.00485,0 0,1.30994 -2.00485,0 0,1.00131 -2.00484,0 0,0.21535 2.00484,0 0,0.34429 -2.00484,0 0,0.0508 0,0 4.00969,0.0741 0,0.1303 -2.00485,0 0,0.76128 -2.00484,0 0,0.27159 4.00969,0.0755 0,1.2866 2.00485,0 0,0.47323 2.00484,0 0,0.0919 0,0 -2.00484,0 0,1.10418 2.00484,0 0,0.38133 -2.00484,0 0,0.46636 -2.00485,0 0,0.26335 2.00485,0 0,1.0164 2.00484,0 0,1.4471 2.00485,0 0,0.36074 -2.00485,0 0,0.32372 -2.00484,0 0,0.27295 2.00484,0 0,0.7023 -2.00484,0 0,0.15088 0,0 2.00484,0 0,0.32371 -2.00484,0 0,0.90941 -2.00485,0 0,0.28119 -2.00485,0 0,1.48276 2.00485,0 0,0.70092 -2.00485,0 0,0.33604 -2.00484,0 0,0 0,0 2.00484,0 0,1.22215 2.00485,0 0,0.0439 0,0 -4.00969,0.13991 0,0.56924 -2.00485,0 0,0.47596 -2.00485,0 0,0.98485 -2.00485,0 0,1.46356 2.00485,0 0,0.0947 0,0 -2.00485,0 0,0.18518 4.0097,0.1152 0,1.42378 2.00485,0 0,1.04658 2.00484,0 0,0.0261 0,0 -2.00484,0 0,1.77629 2.00484,0 0,0.16734 -2.00484,0 0,0.14129 0,0 2.00484,0 0,0.73382 2.00485,0 0,0.1797 2.00485,0 0,0.15774 -2.00485,0 0,0.87374 -2.00485,0 0,0.096 0,0 2.00485,0 0,0.20574 -2.00485,0 0,0.17146 2.00485,0 0,0.60353 6.01454,0.11247 0,0.0741 -2.00485,0 0,0.21261 -2.00484,0 0,0.35252 -2.00485,0 0,0.22357 2.00485,0 0,0.24689 -2.00485,0 0,0.94919 -2.00485,0 0,1.16179 -2.00484,0 0,0.52124 2.00484,0 0,0.36485 4.0097,0.0796 0,1.76669 2.00484,0 0,0.32783 2.00485,0 0,0.64056 2.00485,0 0,0.36622 -2.00485,0 0,0.94508 -2.00485,0 0,0.0177 0,0 4.0097,0.0439 0,0.11521 -2.00485,0 0,0.36348 2.00485,0 0,0.081 0,0 -2.00485,0 0,0.15363 4.00986,0.12893 0,0.33607 2.00485,0 0,0.008 0,0 -2.00485,0 0,0.19751 2.00485,0 0,0.31959 -2.00485,0 0,1.0795 -4.00986,0.0563 0,0.62136 -2.00485,0 0,0.0274 0,0 2.00485,0 0,0.30176 2.00485,0 0,0.71052 -2.00485,0 0,0.77088 2.00485,0 0,0.19888 2.00501,0 0,0.72835 2.00485,0 0,0.21809 -2.00485,0 0,0.63782 -2.00501,0 0,0.13169 0,0 2.00501,0 0,0.0865 0,0 -4.00986,0.0892 0,0.38133 -2.00485,0 0,0.86276 -2.00484,0 0,0.23457 -2.00485,0 0,0.17693 -2.00485,0 0,1.18374 -4.00969,0.0493 0,0.33332 6.01454,0.14539 0,0.0755 2.00485,0 0,0.55963 -2.00485,0 0,0.34293 2.00485,0 0,0.25786 2.00484,0 0,0.51987 2.00485,0 0,0.0234 0,0 -2.00485,0 0,0.94644 2.00485,0 0,0.47185 -2.00485,0 0,1.01913 2.00485,0 0,0.56513 -2.00485,0 0,1.69263 -4.00969,0.0453 0,0.13991 -2.00485,0 0,0.19477 -2.00484,0 0,0.23455 2.00484,0 0,0.24827 -2.00484,0 0,1.35382 -2.00485,0 0,0.79694 2.00485,0 0,0.49655 -2.00485,0 0,0.22768 2.00485,0 0,0.24553 -2.00485,0 0,0.41836 -2.00485,0 0,0.0192 0,0 2.00485,0 0,0.513 -2.00485,0 0,1.85037 2.00485,0 0,0.0493 0,0 -2.00485,0 0,0.75442 2.00485,0 0,0.19477 -2.00485,0 0,0.10423 0,0 2.00485,0 0,0.58844 2.00485,0 0,0.2757 -2.00485,0 0,0.57609 2.00485,0 0,0.72836 -2.00485,0 0,0.01 0,0 2.00485,0 0,0.8367 -2.00485,0 0,0.1646 2.00485,0 0,0.25376 6.01454,0.12207 0,0.33743 -2.00485,0 0,0.13854 0,0 2.00485,0 0,0.0878 0,0 -2.00485,0 0,0.15014"
       id="path4611"
       inkscape:connector-curvature="0" />
    <path
       style="fill:none;stroke:#0000ff;stroke-width:0.91074246;stroke-linecap:square;stroke-linejoin:round"
       d="m 239.35388,762.71746 0,0.316 -2.00629,0 0,1.5574 2.00629,0 0,0.53053 2.00628,0 0,0.15451 2.00627,0 0,0.94482 2.00628,0 0,0.33364 -2.00628,0 0,0.28987 -2.00627,0 0,1.51638 -2.00628,0 0,0.008 0,0 2.00628,0 0,0.041 0,0 -4.01257,0.12579 0,0.14084 -2.00628,0 0,0.26526 2.00628,0 0,0.30491 -2.00628,0 0,0.41568 4.01257,0.13946 0,0.53462 -4.01257,0.0848 2.00628,0.0328 0,0.66998 -2.00628,0 0,0.052 0,0 2.00628,0 0,0.39925 -2.00628,0 0,0.74383 -2.00628,0 0,0.28167 2.00628,0 0,0.35961 -2.00628,0 0,0.45805 2.00628,0 0,0.002 0,0 -4.01256,0.10391 0,0.47583 -2.00628,0 0,1.6996 -2.00645,0 0,0.26253 2.00645,0 0,0.15587 2.00628,0 0,0.83408 2.00628,0 0,0.33773 -2.00628,0 0,0.64402 2.00628,0 0,0.41293 -2.00628,0 0,0.58659 2.00628,0 0,0.10593"
       id="path5934"
       inkscape:connector-curvature="0" />
    <path
       style="fill:none;stroke:#0000ff;stroke-width:0.91074246;stroke-linecap:square;stroke-linejoin:round"
       d="m 263.62562,762.71412 0,0.41157 2.00629,0 0,0.68777 2.00629,0 0,0.49497 -4.01258,0.0107 0,0.14219 4.01258,0.12307 0,0.71922 -4.01258,0.14493 0,0.0547 -4.01255,0.093 0,0.60163 2.00628,0 0,1.15948 -2.00628,0 0,0.0301 0,0 2.00628,0 0,0.38147 -2.00628,0 0,0.49634 2.00628,0 0,0.45122 2.00627,0 0,0.0328 0,0 -2.00627,0 0,0.44166 -2.00628,0 0,1.21556 2.00628,0 0,0.093 0,0 -2.00628,0 0,0.0452 0,0 4.01255,0.13538 0,0.83133 2.00629,0 0,0.19827 -4.01256,0.002 2.00627,0.0902 0,0.10937 -2.00627,0 0,0.1928 -2.00628,0 0,0.28987 -2.00645,0 0,0.0602 0,0 4.01273,0.0671 0,0.89424 -2.00628,0 0,0.4184 2.00628,0 0,0.14221 0,0 -2.00628,0 0,0.44438 -2.00645,0 0,0.21467 2.00645,0 0,0.41703 2.00628,0 0,1.17045 2.00627,0 0,0.28166 -2.00627,0 0,0.30629 -4.01273,0.14904 0,0.60574 -2.00629,0 0,0.66588 -2.00627,0 0,0.80811"
       id="path5930"
       inkscape:connector-curvature="0" />
    <path
       style="fill:none;stroke:#0000ff;stroke-width:0.91074246;stroke-linecap:square;stroke-linejoin:round"
       d="m 176.22167,762.41727 -10e-6,0.24164 -2.00628,0 0,2.31079 2.00628,0 0,0.43209 -4.01256,0.14629 0,0.201 -2.00629,0 0,1.65311 2.00629,0 0,0.28442 2.00628,0 0,0.4936 4.01256,0.0383 0,0.35139 2.00628,0 0,1.14857 -2.00628,0 0,1.34682 -2.00628,0 0,1.05559 2.00628,0 0,0.35004 -2.00628,0 0,0.44712 2.00628,0 0,0.2598 2.00628,0 0,0.57016 -4.01256,0.12581 0,0.93114 2.00628,0 0,0.64265 -2.00628,0 0,0.64812 4.01256,0.01 0,0.93799 2.00628,0 0,0.4608 2.00645,0 0,0.43207 2.00628,0 0,0.11354 0,0 -2.00628,0 0,0.19963 -2.00645,0 0,0.0589 0,0 2.00645,0 0,0.64539 2.00628,0 0,0.11377"
       id="path5924"
       inkscape:connector-curvature="0" />
    <path
       style="fill:none;stroke:#0000ff;stroke-width:0.91074246;stroke-linecap:square;stroke-linejoin:round"
       d="m 287.98293,762.71047 0,0.0253 0,0 -2.00628,0 0,0.2092 -2.00628,0 0,0.28577 -4.01255,0.0589 0,0.69459 -2.00628,0 0,0.22425 2.00628,0 0,0.38286 2.00628,0 0,0.44574 2.00627,0 0,0.61804 2.00628,0 0,0.22561 -2.00628,0 0,0.29535 -4.01255,0.0247 0,0.2557 -2.00628,0 0,0.67955 2.00628,0 0,0.9462 -2.00628,0 0,0.2639 -2.00628,0 0,1.01456 2.00628,0 0,0.33089 2.00628,0 0,0.43481 2.00628,0 0,0.7452 2.00627,0 0,0.35413 2.00628,0 0,0.58523 -2.00628,0 0,0.67409 -2.00627,0 0,0.14083 0,0 2.00627,0 0,0.41842 2.00628,0 0,0.68913 -2.00628,0 0,0.21878 2.00628,0 0,0.79441 2.00628,0 0,0.82313 2.00645,0 0,0.14631 0,0 -2.00645,0 0,0.6823 2.00645,0 0,1.3017 -2.00645,0 0,0.70144 -2.00628,0 0,0.31358"
       id="path5920"
       inkscape:connector-curvature="0" />
    <path
       style="fill:none;stroke:#0000ff;stroke-width:0.91074246;stroke-linecap:square;stroke-linejoin:round"
       d="m 195.37842,762.42792 0,0.38559 2.00628,0 0,0.21056 -2.00628,0 0,0.61803 -2.00628,0 0,1.21556 -2.00628,0 0,0.0671 0,0 2.00628,0 0,0.86963 2.00628,0 0,0.74519 2.00628,0 0,0.51548 -2.00628,0 0,0.89561 2.00628,0 0,0.59889 -2.00628,0 0,0.2639 -2.00628,0 0,0.21603 2.00628,0 0,0.18734 -2.00628,0 0,0.51821 2.00628,0 0,0.10117 0,0 -2.00628,0 0,0.35414 2.00628,0 0,0.9927 -4.01256,0.0479 0,0.98858 -2.00629,0 0,0.64675 -4.01255,0.13673 0,0.25843 2.00628,0 0,0.26389 -2.00628,0 0,1.00362 2.00628,0 0,0.97217 -2.00628,0 0,0.55378 2.00628,0 0,0.16272 -2.00628,0 0,1.71053 -2.00628,0 0,0.16544 4.01256,0.0369 0,0.9445"
       id="path5916"
       inkscape:connector-curvature="0" />
    <path
       style="fill:none;stroke:#000000;stroke-width:0.63005781;stroke-linecap:butt;stroke-linejoin:miter;stroke-miterlimit:4;stroke-opacity:1;stroke-dasharray:none;marker-start:url(#Arrow1Mstart);marker-end:url(#Arrow1Mend)"
       d="m 322.88935,797.12257 0,145.13385 133.72731,0"
       id="path4681"
       inkscape:connector-curvature="0" />
    <path
       style="fill:none;stroke:#000000;stroke-width:0.65467811;stroke-linecap:butt;stroke-linejoin:miter;stroke-miterlimit:4;stroke-opacity:1;stroke-dasharray:none"
       d="m 372.42996,942.24443 0,-142.45091"
       id="path5501"
       inkscape:connector-curvature="0" />
    <path
       style="fill:none;stroke:#000000;stroke-width:0.65451795px;stroke-linecap:butt;stroke-linejoin:miter;stroke-opacity:1"
       d="m 421.93463,942.24443 0,-142.45091 0,0 0,0"
       id="path5503"
       inkscape:connector-curvature="0" />
    <text
       xml:space="preserve"
       style="font-size:8.29878998px;font-style:normal;font-variant:normal;font-weight:normal;font-stretch:normal;text-align:start;line-height:125%;letter-spacing:0px;word-spacing:0px;writing-mode:lr-tb;text-anchor:start;fill:#000000;fill-opacity:1;stroke:none;font-family:Sans;-inkscape-font-specification:Sans"
       x="450.87686"
       y="603.87311"
       id="text5540"
       sodipodi:linespacing="125%"
       transform="scale(0.69156583,1.4459939)"><tspan
         sodipodi:role="line"
         id="tspan5542"
         x="450.87686"
         y="603.87311">$t_s$</tspan></text>
    <text
       xml:space="preserve"
       style="font-size:12px;font-style:normal;font-variant:normal;font-weight:normal;font-stretch:normal;text-align:start;line-height:125%;letter-spacing:0px;word-spacing:0px;writing-mode:lr-tb;text-anchor:start;fill:#000000;fill-opacity:1;stroke:none;font-family:Sans;-inkscape-font-specification:Sans"
       x="300.24677"
       y="822.51819"
       id="text5544"
       sodipodi:linespacing="125%"><tspan
         sodipodi:role="line"
         id="tspan5546"
         x="300.24677"
         y="822.51819">$t$</tspan></text>
    <text
       xml:space="preserve"
       style="font-size:12px;font-style:normal;font-weight:normal;line-height:125%;letter-spacing:0px;word-spacing:0px;fill:#000000;fill-opacity:1;stroke:none;font-family:Sans;-inkscape-font-specification:Sans;font-stretch:normal;font-variant:normal;text-anchor:start;text-align:start;writing-mode:lr"
       x="439.37009"
       y="956.23621"
       id="text5548"
       sodipodi:linespacing="125%"><tspan
         sodipodi:role="line"
         id="tspan5550"
         x="439.37009"
         y="956.23621">$x$</tspan></text>
    <path
       inkscape:connector-curvature="0"
       id="path5902"
       d="m 328.17061,805.96615 0,0.51838 -2.00629,0 0,0.36234 -2.00627,0 0,0.16134 2.00627,0 0,0.15999 2.00629,0 0,0.60163 2.00628,0 0,1.37416 2.00628,0 0,0.14083 0,0 -2.00628,0 0,0.20374 2.00628,0 0,0.45394 2.00628,0 0,0.20511 4.01256,0.007 0,1.91291 -2.00628,0 0,2.90012 2.00628,0 0,0.19689 2.00645,0 0,0.79169 2.00628,0 0,0.76297 2.00627,0 0,1.1636 2.00628,0 0,1.83222 2.00628,0 0,0.74794 2.00629,0 0,1.11437 -2.00629,0 0,0.0274 0,0 2.00629,0 0,1.33999 -2.00629,0 0,0.44029 -2.00628,0 0,0.16545 2.00628,0 0,0.25294 2.00629,0 0,0.46764 2.00627,0 0,0.28577 2.00628,0 0,0.66041 2.00629,0 0,0.25707 -2.00629,0 0,0.38832 -2.00628,0 0,0.27757 2.00628,0 0,0.30902 2.00629,0 0,0.49224 2.00628,0 0,0.79169 -4.01257,0.0738 0,1.29623 -2.00628,0 0,0.0546 0,0 2.00628,0 0,0.0204 0,0 -2.00628,0 0,1.05285 -2.00627,0 0,0.2092 2.00627,0 0,8.2e-4 0,0 -2.00627,0 0,0.45394 -2.00629,0 0,0.81357 -2.00628,0 0,0.89697 -2.00628,0 0,1.38238 2.00628,0 0,1.11573 -2.00628,0 0,0.65087 2.00628,0 0,0.24337 2.00628,0 0,0.30355 -2.00628,0 0,0.29945 -2.00628,0 0,0.335 -2.00627,0 0,0.39789 2.00627,0 0,0.10261 0,0 -2.00627,0 0,0.17775 2.00627,0 0,2.90285 -2.00627,0 0,0.38285 -2.00628,0 0,3.16948 -2.00645,0 0,0.83135 2.00645,0 0,0.27208 2.00628,0 0,0.39106 -2.00628,0 0,0.0397 0,0 2.00628,0 0,0.0151 0,0 -2.00628,0 0,0.32543 -2.00645,0 0,0.21739 -4.01256,0.14358 0,1.04874 -2.00628,0 0,0.21741 -2.00628,0 0,0.33226 -2.00628,0 0,1.71738 -2.00629,0 0,0.28577 2.00629,0 0,0.53599 2.00628,0 0,0.41977 -6.01884,0.10116 0,0.31861 2.00627,0 0,1.19093 -2.00627,0 0,1.04602 4.01256,0.0261 0,0.14494 2.00628,0 0,0.32816 2.00628,0 0,0.74793 -2.00628,0 0,0.35961 -2.00628,0 0,0.19689 2.00628,0 0,1.2853 2.00628,0 0,0.33226 -2.00628,0 0,2.31079 2.00628,0 0,0.43209 -4.01256,0.14629 0,0.201 -2.00629,0 0,1.65311 2.00629,0 0,0.28442 2.00628,0 0,0.4936 4.01256,0.0383 0,0.35139 2.00628,0 0,1.14857 -2.00628,0 0,1.34682 -2.00628,0 0,1.05559 2.00628,0 0,0.35004 -2.00628,0 0,0.44712 2.00628,0 0,0.2598 2.00628,0 0,0.57016 -4.01256,0.12581 0,0.93114 2.00628,0 0,0.64265 -2.00628,0 0,0.64812 4.01256,0.01 0,0.93799 2.00628,0 0,0.4608 2.00645,0 0,0.43207 2.00628,0 0,0.11354 0,0 -2.00628,0 0,0.19963 -2.00645,0 0,0.0589 0,0 2.00645,0 0,0.64539 2.00628,0 0,0.11377"
       style="fill:none;stroke:#0000ff;stroke-width:0.91074246;stroke-linecap:square;stroke-linejoin:round" />
    <path
       inkscape:connector-curvature="0"
       id="path5904"
       d="m 357.35894,805.98132 0,0.81373 2.00628,0 0,0.23518 4.01255,0.0629 0,0.7493 2.00628,0 0,0.5647 -2.00628,0 0,0.85869 -2.00627,0 0,0.48677 2.00627,0 0,0.0917 0,0 -4.01255,0.0533 0,1.22785 2.00628,0 0,0.82313 -2.00628,0 0,1.24155 2.00628,0 0,0.90244 -2.00628,0 0,0.44575 2.00628,0 0,0.041 0,0 -2.00628,0 0,1.20325 -2.00628,0 0,0.16818 -2.00645,0 0,2.3983 2.00645,0 0,0.84775 -2.00645,0 0,0.0793 0,0 2.00645,0 0,0.31038 -2.00645,0 0,0.51003 4.01273,0.10807 0,0.79442 2.00628,0 0,0.83407 -2.00628,0 0,0.0107 0,0 2.00628,0 0,0.19143 -2.00628,0 0,0.59889 2.00628,0 0,0.74929 2.00627,0 0,0.36235 4.01256,0.10116 0,0.49772 2.00628,0 0,0.41293 -4.01256,0.13264 0,0.64675 2.00628,0 0,1.27709 2.00628,0 0,0.34729 2.00628,0 0,2.00178 2.00628,0 0,0.79715 -2.00628,0 0,1.64765 2.00628,0 0,1.51773 -2.00628,0 0,0.31723 -4.01256,0.0479 0,1.38101 -2.00628,0 0,0.75204 2.00628,0 0,0.89971 -2.00628,0 0,0.13946 0,0 2.00628,0 0,0.89013 -2.00628,0 0,0.0602 0,0 2.00628,0 0,0.0328 0,0 -2.00628,0 0,0.15725 -2.00628,0 0,0.76297 2.00628,0 0,1.45211 -2.00628,0 0,0.90928 2.00628,0 0,0.2338 2.00628,0 0,0.0383 0,0 -2.00628,0 0,0.16956 2.00628,0 0,1.4863 2.00628,0 0,0.7028 2.00628,0 0,0.0629 0,0 -4.01256,0.0424 0,0.19689 -2.00628,0 0,0.0984 0,0 2.00628,0 0,0.46079 2.00628,0 0,0.34184 -2.00628,0 0,0.99268 2.00628,0 0,0.082 0,0 -2.00628,0 0,0.0574 0,0 2.00628,0 0,2.68135 -4.01256,0.0574 0,0.13946 2.00628,0 0,0.0574 0,0 -2.00628,0 0,0.52096 -2.00628,0 0,0.25979 -2.00627,0 0,0.67137 2.00627,0 0,0.1545 2.00628,0 0,0.56061 -2.00628,0 0,0.31311 -2.00627,0 0,0.68231 -2.00628,0 0,0.52915 -2.00628,0 0,0.5989 2.00628,0 0,0.2133 2.00628,0 0,0.48677 -4.01256,0.0287 0,0.36782 2.00628,0 0,1.02003 -4.01273,0.0984 0,0.65632 -2.00628,0 0,0.0218 0,0 2.00628,0 0,0.5989 -4.01256,0.0971 0,0.38559 2.00628,0 0,0.21056 -2.00628,0 0,0.61803 -2.00628,0 0,1.21556 -2.00628,0 0,0.0671 0,0 2.00628,0 0,0.86963 2.00628,0 0,0.74519 2.00628,0 0,0.51548 -2.00628,0 0,0.89561 2.00628,0 0,0.59889 -2.00628,0 0,0.2639 -2.00628,0 0,0.21603 2.00628,0 0,0.18734 -2.00628,0 0,0.51821 2.00628,0 0,0.10117 0,0 -2.00628,0 0,0.35414 2.00628,0 0,0.9927 -4.01256,0.0479 0,0.98858 -2.00629,0 0,0.64675 -4.01255,0.13673 0,0.25843 2.00628,0 0,0.26389 -2.00628,0 0,1.00362 2.00628,0 0,0.97217 -2.00628,0 0,0.55378 2.00628,0 0,0.16272 -2.00628,0 0,1.71053 -2.00628,0 0,0.16544 4.01256,0.0369 0,0.9445"
       style="fill:none;stroke:#0000ff;stroke-width:0.91074246;stroke-linecap:square;stroke-linejoin:round" />
    <path
       inkscape:connector-curvature="0"
       id="path5906"
       d="m 385.21194,805.97983 0,0.10664 2.00628,0 0,0.12716 0,0 -4.01256,0.0546 0,0.21467 2.00628,0 0,0.24476 -2.00628,0 0,0.70281 6.01884,0.13399 0,0.31859 2.00628,0 0,0.31039 2.00629,0 0,0.16818 2.00628,0 0,0.90654 -2.00628,0 0,0.45259 -2.00629,0 0,0.18868 2.00629,0 0,0.28578 -2.00629,0 0,1.08977 -2.00628,0 0,0.40883 2.00628,0 0,0.59205 4.01257,0.0479 0,0.74655 2.00627,0 0,0.25161 -2.00627,0 0,0.21739 2.00627,0 0,1.67499 -4.01255,0.0246 0,0.41977 2.00628,0 0,0.0725 0,0 -2.00628,0 0,1.27572 2.00628,0 0,0.29397 2.00627,0 0,0.54693 -2.00627,0 0,2.45301 2.00627,0 0,0.4348 2.00628,0 0,1.08157 4.01273,0.0452 0,0.21606 -2.00645,0 0,2.67722 -2.00628,0 0,1.27026 -4.01255,0.0602 0,0.41566 2.00627,0 0,0.32406 -2.00627,0 0,0.40063 2.00627,0 0,0.21056 2.00628,0 0,0.15589 -2.00628,0 0,1.01456 2.00628,0 0,0.45531 2.00628,0 0,1.01458 -2.00628,0 0,0.23381 -2.00628,0 0,0.25296 -4.01255,0.0533 0,0.18596 2.00628,0 0,0.4471 2.00627,0 0,0.3856 -2.00627,0 0,2.0592 -2.00628,0 0,0.79716 -2.00629,0 0,0.91474 2.00629,0 0,0.92705 2.00628,0 0,0.16956 2.00627,0 0,0.65359 -2.00627,0 0,1.40424 -2.00628,0 0,0.29535 -2.00629,0 0,0.90381 -2.00628,0 0,0.30765 2.00628,0 0,0.27346 2.00629,0 0,0.59068 2.00628,0 0,0.62078 2.00627,0 0,0.25843 2.00628,0 0,0.32679 -2.00628,0 0,0.57701 -2.00627,0 0,0.51411 -2.00628,0 0,0.11758 0,0 4.01255,0.13673 0,0.0711 -2.00627,0 0,0.30219 -2.00628,0 0,0.58931 2.00628,0 0,0.3186 2.00627,0 0,0.40609 -2.00627,0 0,0.70691 -2.00628,0 0,0.43345 2.00628,0 0,0.98311 -4.01257,0.041 0,0.16682 2.00629,0 0,0.0765 0,0 -2.00629,0 0,0.15998 -4.01256,0.0437 0,0.73426 2.00628,0 0,0.19143 2.00628,0 0,0.0343 0,0 -2.00628,0 0,0.44301 -2.00628,0 0,0.28715 2.00628,0 0,0.0574 0,0 -2.00628,0 0,0.11354 0,0 2.00628,0 0,0.078 0,0 -2.00628,0 0,0.92023 -2.00628,0 0,1.649 -2.00628,0 0,0.0862 0,0 4.01256,0.0356 -2.00628,0.0206 0,0.24612 -2.00628,0 0,0.57428 2.00628,0 0,0.50318 2.00628,0 0,0.31858 4.01256,0.11484 0,1.59705 -2.00628,0 0,0.2174 -2.00628,0 0,0 0,0 4.01256,0.0765 -2.00628,0.0671 0,0.22423 2.00628,0 0,0.35551 2.00629,0 0,0.85321 -2.00629,0 0,1.5574 2.00629,0 0,0.53053 2.00628,0 0,0.15451 2.00627,0 0,0.94482 2.00628,0 0,0.33364 -2.00628,0 0,0.28987 -2.00627,0 0,1.51638 -2.00628,0 0,0.008 0,0 2.00628,0 0,0.041 0,0 -4.01257,0.12579 0,0.14084 -2.00628,0 0,0.26526 2.00628,0 0,0.30491 -2.00628,0 0,0.41568 4.01257,0.13946 0,0.53462 -4.01257,0.0848 2.00628,0.0328 0,0.66998 -2.00628,0 0,0.052 0,0 2.00628,0 0,0.39925 -2.00628,0 0,0.74383 -2.00628,0 0,0.28167 2.00628,0 0,0.35961 -2.00628,0 0,0.45805 2.00628,0 0,0.002 0,0 -4.01256,0.10391 0,0.47583 -2.00628,0 0,1.6996 -2.00645,0 0,0.26253 2.00645,0 0,0.15587 2.00628,0 0,0.83408 2.00628,0 0,0.33773 -2.00628,0 0,0.64402 2.00628,0 0,0.41293 -2.00628,0 0,0.58659 2.00628,0 0,0.10593"
       style="fill:none;stroke:#0000ff;stroke-width:0.91074246;stroke-linecap:square;stroke-linejoin:round" />
    <path
       inkscape:connector-curvature="0"
       id="path5908"
       d="m 415.50254,806.15462 0,0.72032 2.00627,0 0,0.20647 2.00629,0 0,1.27025 4.01257,0.14357 0,1.09934 -2.00628,0 0,0.42798 -2.00629,0 0,0.0164 0,0 2.00629,0 0,0.35961 2.00628,0 0,0.35825 -4.01257,0.12168 0,1.16907 -4.01256,0.12716 0,0.3391 2.00627,0 0,0.56334 2.00629,0 0,0.11354 0,0 -2.00629,0 0,0.31994 -2.00627,0 0,1.01594 -2.00628,0 0,0.38968 -2.00645,0 0,0.78074 -2.00629,0 0,0.5907 -2.00627,0 0,0.33365 -2.00627,0 0,0.1668 2.00627,0 0,0.0917 0,0 -2.00627,0 0,0.54967 -2.00629,0 0,2.36821 -2.00628,0 0,1.57516 2.00628,0 0,0.64129 2.00629,0 0,0.18732 2.00627,0 0,1.48082 2.00627,0 0,0.17366 -2.00627,0 0,0.72469 2.00627,0 0,1.43024 2.00629,0 0,0.2926 2.00645,0 0,0 0,0 -6.01901,0.11626 0,0.0848 2.00627,0 0,0.22562 2.00629,0 0,0.14492 0,0 -4.01256,0.0465 0,0.44164 2.00627,0 0,0.19278 2.00629,0 0,0.29673 2.00645,0 0,0.27484 -2.00645,0 0,0.38558 -2.00629,0 0,0.19827 -2.00627,0 0,0.15997 2.00627,0 0,0.76434 -2.00627,0 0,1.0173 2.00627,0 0,0.44029 2.00629,0 0,0.32405 4.01273,0.14766 0,0.24476 2.00627,0 0,0.26661 2.00629,0 0,0.27759 2.00629,0 0,0.77664 -2.00629,0 0,0.36509 4.01257,0.006 0,1.39879 -2.00628,0 0,0.12305 0,0 2.00628,0 0,1.55741 2.00627,0 0,0.18184 -4.01255,0.13127 0,0.30081 -2.00629,0 0,0.18049 2.00629,0 0,0.23244 2.00628,0 0,0.0944 0,0 -4.01257,0.0533 2.00629,0.0177 0,0.75067 -4.01258,0.1121 0,0.082 -2.00627,0 0,0.85869 -2.00628,0 0,0.79989 4.01255,0.0437 0,0.57019 -2.00627,0 0,0.52642 -2.00628,0 0,0.0589 0,0 2.00628,0 0,0.16545 -2.00628,0 0,1.06515 2.00628,0 0,0.52779 2.00627,0 0,0.38148 -2.00627,0 0,0.24886 2.00627,0 0,0.24885 2.00629,0 0,0.46216 4.01257,0.15041 0,0.0533 -4.01257,0.0396 0,0.12305 -2.00629,0 0,0.56472 -2.00627,0 0,0.2844 2.00627,0 0,0.70691 -2.00627,0 0,1.92111 2.00627,0 0,0.62623 -4.01255,0.12854 0,0.54966 4.01255,0.13538 0,0.2092 -2.00627,0 0,0.50317 -2.00628,0 0,0.63444 -2.00645,0 0,0.32405 2.00645,0 0,0.38013 2.00628,0 0,0.62076 4.01256,0.002 0,0.90518 -2.00629,0 0,0.76571 6.01886,0.10806 0,0.51959 -2.00628,0 0,0.20647 -2.00629,0 0,0.37875 2.00629,0 0,1.02276 2.00628,0 0,0.0875 0,0 -6.01886,0.0698 2.00629,0.0452 0,0.53052 -2.00629,0 0,0.41157 2.00629,0 0,0.68777 2.00629,0 0,0.49497 -4.01258,0.0107 0,0.14219 4.01258,0.12307 0,0.71922 -4.01258,0.14493 0,0.0547 -4.01255,0.093 0,0.60163 2.00628,0 0,1.15948 -2.00628,0 0,0.0301 0,0 2.00628,0 0,0.38147 -2.00628,0 0,0.49634 2.00628,0 0,0.45122 2.00627,0 0,0.0328 0,0 -2.00627,0 0,0.44166 -2.00628,0 0,1.21556 2.00628,0 0,0.093 0,0 -2.00628,0 0,0.0452 0,0 4.01255,0.13538 0,0.83133 2.00629,0 0,0.19827 -4.01256,0.002 2.00627,0.0902 0,0.10937 -2.00627,0 0,0.1928 -2.00628,0 0,0.28987 -2.00645,0 0,0.0602 0,0 4.01273,0.0671 0,0.89424 -2.00628,0 0,0.4184 2.00628,0 0,0.14221 0,0 -2.00628,0 0,0.44438 -2.00645,0 0,0.21467 2.00645,0 0,0.41703 2.00628,0 0,1.17045 2.00627,0 0,0.28166 -2.00627,0 0,0.30629 -4.01273,0.14904 0,0.60574 -2.00629,0 0,0.66588 -2.00627,0 0,0.80811"
       style="fill:none;stroke:#0000ff;stroke-width:0.91074246;stroke-linecap:square;stroke-linejoin:round" />
    <path
       inkscape:connector-curvature="0"
       id="path5910"
       d="m 441.86612,805.85603 0,2.47614 4.01273,0.0793 0,0.39242 4.01257,0.134 0,0.24885 -2.00629,0 0,0.92843 4.01258,0.0574 0,1.01866 2.00628,0 0,0.22972 -2.00628,0 0,0.29807 -2.00629,0 0,0.31038 -2.00629,0 0,0.36918 2.00629,0 0,1.24975 -2.00629,0 0,0.12442 0,0 2.00629,0 0,0.18323 -2.00629,0 0,0.64813 -2.00628,0 0,0.22013 2.00628,0 0,0.87236 -2.00628,0 0,0.96396 -2.00628,0 0,1.30991 2.00628,0 0,0.54693 2.00628,0 0,1.23196 -2.00628,0 0,0.38424 4.01257,0.14629 0,0.32817 2.00629,0 0,0.24474 2.00628,0 0,0.43756 -2.00628,0 0,1.23196 -4.01258,0.0984 0,0.12579 2.00629,0 0,1.41109 -2.00629,0 0,0.36918 2.00629,0 0,0.53326 -2.00629,0 0,0.43072 4.01258,0.11895 0,0.19963 -2.00629,0 0,0.045 0,0 2.00629,0 0,0.22014 2.00628,0 0,0.28576 4.01255,0.10534 0,1.23061 2.00628,0 0,0.0944 0,0 -2.00628,0 0,0.37191 -2.00628,0 0,0.10391 0,0 2.00628,0 0,0.0944 0,0 -2.00628,0 0,0.0315 0,0 4.01256,0.0137 -2.00628,0.0738 0,1.74334 -2.00628,0 0,0.35688 2.00628,0 0,0.54693 -4.01255,0.12579 0,0.84638 2.00627,0 0,0.24612 -2.00627,0 0,0.20919 4.01255,0.006 -2.00628,0.0437 0,0.10664 -2.00627,0 0,0.24337 2.00627,0 0,0.1108 0,0 -2.00627,0 0,0.201 2.00627,0 0,1.82949 -2.00627,0 0,0.63171 2.00627,0 0,0.3049 2.00628,0 0,0.49498 -2.00628,0 0,0.63173 -2.00627,0 0,0.2502 2.00627,0 0,0.22971 -2.00627,0 0,0.49909 2.00627,0 0,0.42524 -2.00627,0 0,0.93799 4.01255,8.1e-4 0,0.37329 2.00628,0 0,0.62897 -2.00628,0 0,0.44985 -2.00628,0 0,0.0232 0,0 2.00628,0 0,0.49908 -2.00628,0 0,1.24427 -2.00627,0 0,0.25707 2.00627,0 0,0.63306 -2.00627,0 0,1.56014 -2.00628,0 0,0.49497 2.00628,0 0,0.12853 0,0 -2.00628,0 0,0.20099 2.00628,0 0,0.18596 -2.00628,0 0,0.40337 2.00628,0 0,1.07745 2.00627,0 0,0.21742 -2.00627,0 0,0.22834 2.00627,0 0,0.16544 -2.00627,0 0,0.35688 -2.00628,0 0,0.69597 -2.00629,0 0,1.97306 -2.00629,0 0,0.98995 2.00629,0 0,0.39106 4.01257,0.0957 0,0.10118 -2.00628,0 0,0.58931 -2.00629,0 0,0.0383 0,0 2.00629,0 0,0.0274 0,0 -4.01258,0.0561 0,0.42387 -4.01256,0.0698 0,0.0917 -4.01273,0.0589 0,0.29261 2.00628,0 0,2.56648 -2.00628,0 0,0.15178 0,0 2.00628,0 0,0.0505 0,0 -2.00628,0 0,0.2092 -2.00628,0 0,0.28577 -4.01255,0.0589 0,0.69459 -2.00628,0 0,0.22425 2.00628,0 0,0.38286 2.00628,0 0,0.44574 2.00627,0 0,0.61804 2.00628,0 0,0.22561 -2.00628,0 0,0.29535 -4.01255,0.0247 0,0.2557 -2.00628,0 0,0.67955 2.00628,0 0,0.9462 -2.00628,0 0,0.2639 -2.00628,0 0,1.01456 2.00628,0 0,0.33089 2.00628,0 0,0.43481 2.00628,0 0,0.7452 2.00627,0 0,0.35413 2.00628,0 0,0.58523 -2.00628,0 0,0.67409 -2.00627,0 0,0.14083 0,0 2.00627,0 0,0.41842 2.00628,0 0,0.68913 -2.00628,0 0,0.21878 2.00628,0 0,0.79441 2.00628,0 0,0.82313 2.00645,0 0,0.14631 0,0 -2.00645,0 0,0.6823 2.00645,0 0,1.3017 -2.00645,0 0,0.70144 -2.00628,0 0,0.31358"
       style="fill:none;stroke:#0000ff;stroke-width:0.91074246;stroke-linecap:square;stroke-linejoin:round" />
    <path
       style="fill:none;stroke:#000000;stroke-width:0.63055432px;stroke-linecap:butt;stroke-linejoin:miter;stroke-opacity:1"
       d="m 322.88935,873.72099 133.72731,0"
       id="path5505"
       inkscape:connector-curvature="0" />
    <path
       inkscape:connector-curvature="0"
       id="path7165"
       d="m 322.88935,805.72099 133.72731,0"
       style="fill:none;stroke:#000000;stroke-width:0.63055432px;stroke-linecap:butt;stroke-linejoin:miter;stroke-opacity:1" />
    <text
       transform="scale(0.69156584,1.4459939)"
       sodipodi:linespacing="125%"
       id="text7167"
       y="560.22455"
       x="445.56689"
       style="font-size:8.29878998px;font-style:normal;font-variant:normal;font-weight:normal;font-stretch:normal;text-align:start;line-height:125%;letter-spacing:0px;word-spacing:0px;writing-mode:lr-tb;text-anchor:start;fill:#000000;fill-opacity:1;stroke:none;font-family:Sans;-inkscape-font-specification:Sans"
       xml:space="preserve"><tspan
         y="560.22455"
         x="445.56689"
         id="tspan7169"
         sodipodi:role="line">$2t_s$</tspan></text>
    <path
       sodipodi:type="arc"
       style="color:#000000;fill:none;stroke:#00c806;stroke-width:0.70866144;stroke-linecap:butt;stroke-linejoin:miter;stroke-miterlimit:4;stroke-opacity:1;stroke-dasharray:none;stroke-dashoffset:0;marker:none;visibility:visible;display:inline;overflow:visible;enable-background:accumulate"
       id="path5900"
       sodipodi:cx="346.9736"
       sodipodi:cy="121.71665"
       sodipodi:rx="2.9211996"
       sodipodi:ry="2.9211996"
       d="m 349.8948,121.71665 a 2.9211996,2.9211996 0 1 1 -5.8424,0 2.9211996,2.9211996 0 1 1 5.8424,0 z"
       transform="translate(-3.894937,751.58683)" />
    <path
       id="path7009"
       style="fill:none;stroke:#ed0000;stroke-width:1px;stroke-linecap:butt;stroke-linejoin:miter;stroke-opacity:1"
       d="m 392.68211,871.77793 4.05722,4.3818 0,0 0,0 0,0 m 0.81144,-2.02861 c 0,1.61334 -1.30786,2.9212 -2.9212,2.9212 -1.61333,0 -2.9212,-1.30786 -2.9212,-2.9212 0,-1.61333 1.30787,-2.9212 2.9212,-2.9212 1.61334,0 2.9212,1.30787 2.9212,2.9212 z"
       inkscape:connector-curvature="0" />
  </g>
</svg>
